<svg width="512" height="512" version="1.1" xmlns="http://www.w3.org/2000/svg" desc="Created with imagetracer.js version 1.2.6" ><path fill="rgb(0,0,0)" stroke="rgb(0,0,0)" stroke-width="1" opacity="0" d="M 0 0 L 512 0 L 512 512 L 0 512 L 0 0 Z M 121 106 L 111 110 Q 102 116 99 128 L 84 173 L 6 390 Q 5 396 7 400 Q 10 404 17 406 L 61 406 L 64 405 L 70 398 L 84 358 L 86 356 L 201 356 L 204 361 L 215 394 L 219 402 L 227 406 L 271 406 L 276 404 Q 280 401 281 396 L 280 388 L 223 230 L 219 216 Q 202 173 188 129 L 181 115 Q 176 108 167 106 L 121 106 Z M 393 181 L 371 187 Q 354 194 342 204 Q 327 216 317 234 L 310 252 L 306 273 L 306 318 Q 309 319 307 325 Q 314 353 330 372 Q 340 384 355 392 L 378 402 L 397 406 L 415 406 L 416 405 L 427 404 Q 442 400 455 393 L 457 400 L 466 406 L 496 406 L 503 402 L 506 396 L 506 192 L 504 187 L 497 181 L 466 181 L 463 182 Q 456 186 456 194 Q 442 186 424 182 Q 419 183 418 181 L 393 181 Z " /><path fill="rgb(0,0,0)" stroke="rgb(0,0,0)" stroke-width="1" opacity="0" d="M 143.5 193 L 179 293 L 107 292.5 L 143.5 193 Z " /><path fill="rgb(0,0,0)" stroke="rgb(0,0,0)" stroke-width="1" opacity="0" d="M 402.5 243 L 408.5 243 L 420.5 246 L 433 254 L 439 262.5 L 443 273.5 L 443 312.5 Q 439.8 327.3 429.5 335 Q 420.1 344.6 399.5 343 Q 383.3 339.2 375 327.5 L 369 314.5 Q 370.5 309 368 307.5 L 368 278.5 L 370 268.5 L 374 260.5 L 382.5 251 L 393.5 245 L 402.5 243 Z " /><path fill="rgb(0,0,0)" stroke="rgb(0,0,0)" stroke-width="1" opacity="0.8196078431372549" d="M 120.5 106 L 124 106.5 L 120.5 107 L 120.5 106 Z " /><path fill="rgb(0,0,0)" stroke="rgb(0,0,0)" stroke-width="1" opacity="0.8196078431372549" d="M 162.5 106 L 167 106.5 L 162.5 107 L 162.5 106 Z " /><path fill="rgb(0,0,0)" stroke="rgb(0,0,0)" stroke-width="1" opacity="0.8196078431372549" d="M 110.5 110 L 105.5 116 L 110.5 110 Z " /><path fill="rgb(0,0,0)" stroke="rgb(0,0,0)" stroke-width="1" opacity="0.8196078431372549" d="M 177.5 111 L 180.5 115 L 177.5 111 Z " /><path fill="rgb(0,0,0)" stroke="rgb(0,0,0)" stroke-width="1" opacity="0.8196078431372549" d="M 392.5 181 L 397 181.5 L 392.5 182 L 392.5 181 Z " /><path fill="rgb(0,0,0)" stroke="rgb(0,0,0)" stroke-width="1" opacity="0.8196078431372549" d="M 414.5 181 L 418 181.5 L 414.5 182 L 414.5 181 Z " /><path fill="rgb(0,0,0)" stroke="rgb(0,0,0)" stroke-width="1" opacity="0.8196078431372549" d="M 421.5 182 L 424 182.5 L 421.5 183 L 421.5 182 Z " /><path fill="rgb(0,0,0)" stroke="rgb(0,0,0)" stroke-width="1" opacity="0.8196078431372549" d="M 499.5 182 L 500.5 184 L 499.5 182 Z " /><path fill="rgb(0,0,0)" stroke="rgb(0,0,0)" stroke-width="1" opacity="0.8196078431372549" d="M 505.5 191 L 506 333.5 L 505 333.5 L 505.5 191 Z " /><path fill="rgb(0,0,0)" stroke="rgb(0,0,0)" stroke-width="1" opacity="0.8196078431372549" d="M 143.5 192 L 143 193.5 L 142.5 195 L 142 193.5 L 143.5 192 Z " /><path fill="rgb(0,0,0)" stroke="rgb(0,0,0)" stroke-width="1" opacity="0.8196078431372549" d="M 354.5 195 L 353.5 197 L 354.5 195 Z " /><path fill="rgb(0,0,0)" stroke="rgb(0,0,0)" stroke-width="1" opacity="0.8196078431372549" d="M 345.5 201 L 344.5 203 L 345.5 201 Z " /><path fill="rgb(0,0,0)" stroke="rgb(0,0,0)" stroke-width="1" opacity="0.8196078431372549" d="M 341.5 204 L 338.5 208 L 341.5 204 Z " /><path fill="rgb(0,0,0)" stroke="rgb(0,0,0)" stroke-width="1" opacity="0.8196078431372549" d="M 330.5 215 L 327.5 219 L 330.5 215 Z " /><path fill="rgb(0,0,0)" stroke="rgb(0,0,0)" stroke-width="1" opacity="0.8196078431372549" d="M 325.5 221 L 324.5 223 L 325.5 221 Z " /><path fill="rgb(0,0,0)" stroke="rgb(0,0,0)" stroke-width="1" opacity="0.8196078431372549" d="M 318.5 232 L 318 233.5 L 315.5 239 L 315 237.5 L 318.5 232 Z " /><path fill="rgb(0,0,0)" stroke="rgb(0,0,0)" stroke-width="1" opacity="0.8196078431372549" d="M 399.5 243 L 402 243.5 L 399.5 244 L 399.5 243 Z " /><path fill="rgb(0,0,0)" stroke="rgb(0,0,0)" stroke-width="1" opacity="0.8196078431372549" d="M 409.5 243 L 413 243.5 L 409.5 244 L 409.5 243 Z " /><path fill="rgb(0,0,0)" stroke="rgb(0,0,0)" stroke-width="1" opacity="0.8196078431372549" d="M 425.5 248 L 426.5 250 L 425.5 248 Z " /><path fill="rgb(0,0,0)" stroke="rgb(0,0,0)" stroke-width="1" opacity="0.8196078431372549" d="M 384.5 249 L 383.5 251 L 384.5 249 Z " /><path fill="rgb(0,0,0)" stroke="rgb(0,0,0)" stroke-width="1" opacity="0.8196078431372549" d="M 428.5 250 L 431.5 254 L 428.5 250 Z " /><path fill="rgb(0,0,0)" stroke="rgb(0,0,0)" stroke-width="1" opacity="0.8196078431372549" d="M 379.5 253 L 378.5 255 L 379.5 253 Z " /><path fill="rgb(0,0,0)" stroke="rgb(0,0,0)" stroke-width="1" opacity="0.8196078431372549" d="M 433.5 255 L 436.5 259 L 433.5 255 Z " /><path fill="rgb(0,0,0)" stroke="rgb(0,0,0)" stroke-width="1" opacity="0.8196078431372549" d="M 376.5 257 L 374.5 260 L 376.5 257 Z " /><path fill="rgb(0,0,0)" stroke="rgb(0,0,0)" stroke-width="1" opacity="0.8196078431372549" d="M 307.5 264 L 308 267.5 L 307 267.5 L 307.5 264 Z " /><path fill="rgb(0,0,0)" stroke="rgb(0,0,0)" stroke-width="1" opacity="0.8196078431372549" d="M 306.5 272 L 307 279.5 L 306 279.5 L 306.5 272 Z " /><path fill="rgb(0,0,0)" stroke="rgb(0,0,0)" stroke-width="1" opacity="0.8196078431372549" d="M 368.5 274 L 369 277.5 L 368 277.5 L 368.5 274 Z " /><path fill="rgb(0,0,0)" stroke="rgb(0,0,0)" stroke-width="1" opacity="0.8196078431372549" d="M 443.5 276 L 444 309.5 L 443 309.5 L 443.5 276 Z " /><path fill="rgb(0,0,0)" stroke="rgb(0,0,0)" stroke-width="1" opacity="0.8196078431372549" d="M 368.5 308 L 369 311.5 L 368 311.5 L 368.5 308 Z " /><path fill="rgb(0,0,0)" stroke="rgb(0,0,0)" stroke-width="1" opacity="0.8196078431372549" d="M 306.5 311 L 307 317.5 L 306 317.5 L 306.5 311 Z " /><path fill="rgb(0,0,0)" stroke="rgb(0,0,0)" stroke-width="1" opacity="0.8196078431372549" d="M 307.5 322 L 308 324.5 L 307 324.5 L 307.5 322 Z " /><path fill="rgb(0,0,0)" stroke="rgb(0,0,0)" stroke-width="1" opacity="0.8196078431372549" d="M 437.5 326 L 435.5 329 L 437.5 326 Z " /><path fill="rgb(0,0,0)" stroke="rgb(0,0,0)" stroke-width="1" opacity="0.8196078431372549" d="M 376.5 329 L 382.5 336 L 376.5 329 Z " /><path fill="rgb(0,0,0)" stroke="rgb(0,0,0)" stroke-width="1" opacity="0.8196078431372549" d="M 434.5 330 L 431.5 334 L 434.5 330 Z " /><path fill="rgb(0,0,0)" stroke="rgb(0,0,0)" stroke-width="1" opacity="0.8196078431372549" d="M 428.5 335 L 427.5 337 L 428.5 335 Z " /><path fill="rgb(0,0,0)" stroke="rgb(0,0,0)" stroke-width="1" opacity="0.8196078431372549" d="M 384.5 336 L 385.5 338 L 384.5 336 Z " /><path fill="rgb(0,0,0)" stroke="rgb(0,0,0)" stroke-width="1" opacity="0.8196078431372549" d="M 403.5 343 L 408 343.5 L 403.5 344 L 403.5 343 Z " /><path fill="rgb(0,0,0)" stroke="rgb(0,0,0)" stroke-width="1" opacity="0.8196078431372549" d="M 88.5 355 L 199 355.5 L 88.5 356 L 88.5 355 Z " /><path fill="rgb(0,0,0)" stroke="rgb(0,0,0)" stroke-width="1" opacity="0.8196078431372549" d="M 201.5 356 L 202.5 358 L 201.5 356 Z " /><path fill="rgb(0,0,0)" stroke="rgb(0,0,0)" stroke-width="1" opacity="0.8196078431372549" d="M 320.5 357 L 321.5 359 L 320.5 357 Z " /><path fill="rgb(0,0,0)" stroke="rgb(0,0,0)" stroke-width="1" opacity="0.8196078431372549" d="M 326.5 366 L 328.5 369 L 326.5 366 Z " /><path fill="rgb(0,0,0)" stroke="rgb(0,0,0)" stroke-width="1" opacity="0.8196078431372549" d="M 330.5 371 L 341.5 383 L 330.5 371 Z " /><path fill="rgb(0,0,0)" stroke="rgb(0,0,0)" stroke-width="1" opacity="0.8196078431372549" d="M 343.5 383 L 345.5 386 L 343.5 383 Z " /><path fill="rgb(0,0,0)" stroke="rgb(0,0,0)" stroke-width="1" opacity="0.8196078431372549" d="M 6.5 389 L 7 391.5 L 6 391.5 L 6.5 389 Z " /><path fill="rgb(0,0,0)" stroke="rgb(0,0,0)" stroke-width="1" opacity="0.8196078431372549" d="M 353.5 390 L 354.5 392 L 353.5 390 Z " /><path fill="rgb(0,0,0)" stroke="rgb(0,0,0)" stroke-width="1" opacity="0.8196078431372549" d="M 280.5 391 L 281 395.5 L 280 395.5 L 280.5 391 Z " /><path fill="rgb(0,0,0)" stroke="rgb(0,0,0)" stroke-width="1" opacity="0.8196078431372549" d="M 505.5 392 L 506 395.5 L 505 395.5 L 505.5 392 Z " /><path fill="rgb(0,0,0)" stroke="rgb(0,0,0)" stroke-width="1" opacity="0.8196078431372549" d="M 6.5 395 L 7 397.5 L 6 397.5 L 6.5 395 Z " /><path fill="rgb(0,0,0)" stroke="rgb(0,0,0)" stroke-width="1" opacity="0.8196078431372549" d="M 7.5 399 L 8.5 401 L 7.5 399 Z " /><path fill="rgb(0,0,0)" stroke="rgb(0,0,0)" stroke-width="1" opacity="0.8196078431372549" d="M 68.5 399 L 67.5 401 L 68.5 399 Z " /><path fill="rgb(0,0,0)" stroke="rgb(0,0,0)" stroke-width="1" opacity="0.8196078431372549" d="M 457.5 399 L 461.5 404 L 457.5 399 Z " /><path fill="rgb(0,0,0)" stroke="rgb(0,0,0)" stroke-width="1" opacity="0.8196078431372549" d="M 278.5 400 L 275.5 404 L 278.5 400 Z " /><path fill="rgb(0,0,0)" stroke="rgb(0,0,0)" stroke-width="1" opacity="0.8196078431372549" d="M 219.5 401 L 221.5 404 L 219.5 401 Z " /><path fill="rgb(0,0,0)" stroke="rgb(0,0,0)" stroke-width="1" opacity="0.8196078431372549" d="M 64.5 403 L 63.5 405 L 62 404.5 L 64.5 403 Z " /><path fill="rgb(0,0,0)" stroke="rgb(0,0,0)" stroke-width="1" opacity="0.8196078431372549" d="M 424.5 403 L 427 403.5 L 424.5 404 L 424.5 403 Z " /><path fill="rgb(0,0,0)" stroke="rgb(0,0,0)" stroke-width="1" opacity="0.8196078431372549" d="M 499.5 403 L 498.5 405 L 497 404.5 L 499.5 403 Z " /><path fill="rgb(0,0,0)" stroke="rgb(0,0,0)" stroke-width="1" opacity="0.8196078431372549" d="M 389.5 404 L 393 404.5 L 389.5 405 L 389.5 404 Z " /><path fill="rgb(0,0,0)" stroke="rgb(0,0,0)" stroke-width="1" opacity="0.8196078431372549" d="M 419.5 404 L 422 404.5 L 419.5 405 L 419.5 404 Z " /><path fill="rgb(0,0,0)" stroke="rgb(0,0,0)" stroke-width="1" opacity="0.8196078431372549" d="M 16.5 405 L 61 405.5 L 16.5 406 L 16.5 405 Z " /><path fill="rgb(0,0,0)" stroke="rgb(0,0,0)" stroke-width="1" opacity="0.8196078431372549" d="M 226.5 405 L 271 405.5 L 226.5 406 L 226.5 405 Z " /><path fill="rgb(0,0,0)" stroke="rgb(0,0,0)" stroke-width="1" opacity="0.8196078431372549" d="M 396.5 405 L 404 405.5 L 396.5 406 L 396.5 405 Z " /><path fill="rgb(0,0,0)" stroke="rgb(0,0,0)" stroke-width="1" opacity="0.8196078431372549" d="M 407.5 405 L 415 405.5 L 407.5 406 L 407.5 405 Z " /><path fill="rgb(0,0,0)" stroke="rgb(0,0,0)" stroke-width="1" opacity="0.8196078431372549" d="M 465.5 405 L 468 405.5 L 465.5 406 L 465.5 405 Z " /><path fill="rgb(0,0,0)" stroke="rgb(0,0,0)" stroke-width="1" opacity="0.8196078431372549" d="M 480.5 405 L 483 405.5 L 480.5 406 L 480.5 405 Z " /><path fill="rgb(0,0,0)" stroke="rgb(0,0,0)" stroke-width="1" opacity="0.8196078431372549" d="M 493.5 405 L 496 405.5 L 493.5 406 L 493.5 405 Z " /><path fill="rgb(0,0,0)" stroke="rgb(0,0,0)" stroke-width="1" opacity="1" d="M 124.5 106 L 161.5 106 Q 163 108.5 168.5 107 Q 177.5 109.4 182 116.5 L 190 135.5 L 277 380.5 L 280 389.5 L 280 397.5 L 274.5 404 L 271.5 405 L 224.5 405 L 218 399.5 L 205 361.5 L 201.5 356 L 198.5 355 L 88.5 355 L 84 356 L 70 396.5 L 65.5 403 L 61.5 405 L 14.5 405 L 9 401.5 Q 6 398.5 6 392.5 L 100 126.5 L 104 117.5 L 111.5 110 L 124.5 106 Z M 144 192 L 138 205 L 107 293 L 180 293 L 144 192 Z " /><path fill="rgb(0,0,0)" stroke="rgb(0,0,0)" stroke-width="1" opacity="1" d="M 397.5 181 L 413.5 181 L 414.5 182 L 425.5 183 Q 442.5 187 455.5 195 Q 456.7 187.2 461.5 183 L 467.5 181 L 494.5 181 L 498.5 182 L 503 185.5 L 505 189.5 L 505 333.5 L 506 334.5 L 506 391.5 L 505 396.5 L 500.5 403 Q 494.7 407.2 483.5 406 L 480.5 405 L 479.5 406 L 468.5 406 Q 460.4 404.6 457 398.5 L 456 393 L 452.5 393 L 443.5 398 L 428.5 403 L 404.5 406 L 403.5 405 L 393.5 405 L 382.5 403 L 365.5 397 Q 343.1 387.4 329 369.5 Q 315.7 353.3 309 330.5 L 307 321.5 L 307 311.5 L 306 310.5 L 306 280.5 L 307 279.5 L 308 261.5 L 313 243.5 Q 321.6 222.1 337.5 208 Q 351.2 195.7 369.5 188 L 384.5 183 L 396.5 182 L 397.5 181 Z M 400 243 Q 387 246 380 253 Q 371 261 368 275 L 368 312 Q 370 323 376 330 L 386 338 L 394 342 L 404 344 Q 422 344 432 334 L 438 327 L 442 319 L 444 310 L 444 277 L 441 266 L 437 259 Q 430 250 420 245 Q 412 242 400 243 Z " /></svg>