<svg width="26" height="26" viewBox="0 0 26 26" fill="none" xmlns="http://www.w3.org/2000/svg">
<path d="M2.7084 13C2.7084 12.5515 3.0724 12.1875 3.5209 12.1875L21.059 12.1875L14.8623 5.99084C14.5449 5.67342 14.5449 5.1588 14.8623 4.84138C15.0205 4.68322 15.2285 4.60308 15.4365 4.60308C15.6445 4.60308 15.8525 4.68213 16.0106 4.84138L23.594 12.4247C23.9114 12.7421 23.9114 13.2568 23.594 13.5742L16.0106 21.1575C15.6932 21.4749 15.1787 21.4749 14.8612 21.1575C14.5438 20.8401 14.5438 20.3255 14.8612 20.0081L21.0579 13.8114L3.5209 13.8114C3.0724 13.8125 2.7084 13.4485 2.7084 13Z" fill="black"/>
</svg>
