<svg width="512" height="512" version="1.1" xmlns="http://www.w3.org/2000/svg" desc="Created with imagetracer.js version 1.2.6" ><path fill="rgb(0,0,0)" stroke="rgb(0,0,0)" stroke-width="1" opacity="0" d="M 0 0 L 375 0.5 L 359.5 3 L 339.5 11 Q 322.6 20.6 310 34.5 L 47 299.5 Q 32 316.5 23 339.5 L 17 361.5 L 15 385.5 L 16 386.5 L 16 399.5 L 17 400.5 L 18 411.5 L 25 433.5 Q 37.4 462.1 59.5 481 Q 74.8 494.7 95.5 503 L 118.5 510 L 133 511.5 L 0 512 L 0 0 Z " /><path fill="rgb(0,0,0)" stroke="rgb(0,0,0)" stroke-width="1" opacity="0" d="M 394.5 0 L 511.5 0 L 512 0.5 L 512 512 L 154 511.5 L 172.5 509 L 191.5 503 Q 209 496 222.5 485 L 314 394.5 L 490 217.5 Q 496.5 212 497 200.5 L 495 192.5 L 487.5 184 Q 482.5 180 473.5 180 L 468.5 181 L 461.5 185 L 406 240.5 L 203.5 445 Q 189.5 459 168.5 466 L 154.5 469 L 132.5 469 Q 98.6 462.9 80 441.5 Q 70.2 430.8 64 416.5 L 59 398.5 L 58 376.5 L 61 360.5 L 65 349.5 Q 70.8 336.3 80 326.5 L 351.5 54 L 371.5 44 L 376.5 43 L 392.5 43 Q 412.8 46.8 424 59.5 L 434 74.5 L 437 83.5 L 438 101.5 L 434 117.5 L 424 132.5 L 203.5 353 Q 198.1 358.6 187.5 359 L 179.5 357 L 171 349.5 Q 167.2 344.8 167 336.5 L 169 328.5 L 173 322.5 L 282 213.5 Q 286.5 208 285 196.5 Q 282.9 188.2 276.5 184 Q 271.5 180 262.5 180 L 251.5 184 L 139 296.5 Q 130.2 307.2 126 322.5 L 125 327.5 L 125 346.5 Q 129.7 371.3 145.5 385 Q 155.6 394.4 170.5 399 L 179.5 401 L 198.5 401 Q 217.3 397.3 229.5 387 L 457 159.5 Q 467.3 147.8 474 132.5 L 480 110.5 L 481 91.5 L 480 90.5 L 480 81.5 L 478 71.5 L 474 59.5 Q 464.5 37.5 447.5 23 Q 436.4 13.1 421.5 7 L 405.5 2 L 394.5 1 L 394.5 0 Z " /><path fill="rgb(0,0,0)" stroke="rgb(0,0,0)" stroke-width="1" opacity="0.9921568627450981" d="M 375.5 0 L 400.5 1 L 421.5 7 Q 443.7 16.3 458 33.5 Q 467.7 44.8 474 59.5 L 480 81.5 L 481 100.5 L 480 101.5 L 480 110.5 L 478 120.5 L 474 132.5 Q 467.3 147.8 457 159.5 L 229.5 387 Q 220.2 394.7 207.5 399 L 198.5 401 L 179.5 401 Q 154.7 396.3 141 380.5 Q 131.6 370.4 127 355.5 L 125 346.5 L 125 327.5 Q 128.7 308.7 139 296.5 L 251.5 184 Q 256.8 179.8 266.5 180 Q 276.9 182.1 282 189.5 Q 286.5 195 285 206.5 L 282 213.5 L 173 322.5 Q 167.4 327.9 167 338.5 L 169 346.5 L 176.5 355 Q 181.5 359 190.5 359 Q 198.7 357.7 203.5 353 L 424 132.5 L 434 117.5 L 437 108.5 L 438 90.5 Q 435.5 89 437 83.5 L 432 70.5 L 420.5 56 Q 412.6 48.9 401.5 45 L 392.5 43 L 376.5 43 Q 361.3 45.8 351.5 54 L 222 183.5 L 75 332.5 Q 65.8 344.3 61 360.5 L 58 376.5 L 58 391.5 L 59 392.5 L 60 403.5 L 64 416.5 Q 71.9 434.6 85.5 447 Q 99 459.5 118.5 466 L 132.5 469 L 154.5 469 L 168.5 466 L 186.5 458 L 195.5 452 L 215 433.5 L 461.5 185 Q 466.7 179.7 477.5 180 Q 488.3 181.7 493 189.5 Q 496.8 194.2 497 202.5 L 495 210.5 L 490 217.5 L 229.5 479 Q 213.3 493.8 191.5 503 L 176.5 508 L 161.5 511 L 133.5 512 L 106.5 507 L 82.5 497 Q 61.9 485.6 47 468.5 Q 32 451.5 23 428.5 L 17 406.5 L 15 382.5 L 16 381.5 L 17 361.5 L 23 339.5 Q 32 316.5 47 299.5 L 316.5 28 Q 328.6 15.6 345.5 8 L 359.5 3 L 375.5 0 Z " /></svg>