<svg width="25" height="25" viewBox="0 0 25 25" fill="none" xmlns="http://www.w3.org/2000/svg">
<g clip-path="url(#clip0_144_1873)">
<path opacity="0.462745" d="M12.1826 0L12.3535 0.0244141L12.1826 0.0488281V0Z" fill="black" stroke="black"/>
<path opacity="0.462745" d="M12.6709 0L12.8418 0.0244141L12.6709 0.0488281V0Z" fill="black" stroke="black"/>
<path opacity="0.462745" d="M13.6475 0.341797L13.6963 0.439453" stroke="black"/>
<path opacity="0.462745" d="M14.0869 0.585938L14.1357 0.683594" stroke="black"/>
<path opacity="0.462745" d="M12.2803 0.732422L12.4023 0.756836L12.2803 0.78125V0.732422Z" fill="black" stroke="black"/>
<path opacity="0.462745" d="M12.6221 0.732422L12.7441 0.756836L12.6221 0.78125V0.732422Z" fill="black" stroke="black"/>
<path opacity="0.462745" d="M10.4736 0.830078L10.4248 0.927734" stroke="black"/>
<path opacity="0.462745" d="M13.4521 1.07422L13.501 1.17188" stroke="black"/>
<path opacity="0.462745" d="M9.59473 1.31836L9.5459 1.41602" stroke="black"/>
<path opacity="0.462745" d="M13.8916 1.31836L13.9404 1.41602" stroke="black"/>
<path opacity="0.462745" d="M9.15527 1.5625L9.10645 1.66016" stroke="black"/>
<path opacity="0.462745" d="M8.71582 1.80664L8.66699 1.9043" stroke="black"/>
<path opacity="0.462745" d="M8.27637 2.05078L8.22754 2.14844" stroke="black"/>
<path opacity="0.462745" d="M12.2803 2.19727L12.7441 2.22168L12.2803 2.24609V2.19727Z" fill="black" stroke="black"/>
<path opacity="0.462745" d="M11.4014 2.58789L11.2061 2.83203" stroke="black"/>
<path opacity="0.462745" d="M13.5986 2.58789L13.7451 2.7832" stroke="black"/>
<path opacity="0.462745" d="M18.1396 2.83203L18.1885 2.92969" stroke="black"/>
<path opacity="0.462745" d="M12.3291 2.92969L12.6953 2.9541L12.3291 2.97852V2.92969Z" fill="black" stroke="black"/>
<path opacity="0.462745" d="M6.81152 3.02734L6.83594 3.14941H6.78711L6.81152 3.02734Z" fill="black" stroke="black"/>
<path opacity="0.462745" d="M6.86035 3.27148L7.08008 3.44238L7.00684 3.4668L6.86035 3.27148Z" fill="black" stroke="black"/>
<path opacity="0.462745" d="M19.0186 3.32031L19.0674 3.41797" stroke="black"/>
<path opacity="0.462745" d="M5.59082 3.56445L5.76172 3.58887L5.59082 3.61328V3.56445Z" fill="black" stroke="black"/>
<path opacity="0.462745" d="M17.9443 3.56445L17.9932 3.66211" stroke="black"/>
<path opacity="0.462745" d="M19.458 3.56445L19.5068 3.66211" stroke="black"/>
<path opacity="0.462745" d="M10.8154 3.71094L10.8398 4.07715H10.791L10.8154 3.71094Z" fill="black" stroke="black"/>
<path opacity="0.462745" d="M14.1846 3.71094L14.209 4.07715H14.1602L14.1846 3.71094Z" fill="black" stroke="black"/>
<path opacity="0.462745" d="M11.5479 3.75977L11.5723 4.02832H11.5234L11.5479 3.75977Z" fill="black" stroke="black"/>
<path opacity="0.462745" d="M13.4521 3.75977L13.4766 4.02832H13.4277L13.4521 3.75977Z" fill="black" stroke="black"/>
<path opacity="0.462745" d="M5.10254 3.80859L5.05371 3.90625" stroke="black"/>
<path opacity="0.462745" d="M18.3838 3.80859L18.4326 3.90625" stroke="black"/>
<path opacity="0.462745" d="M19.8975 3.80859L19.9463 3.90625" stroke="black"/>
<path opacity="0.462745" d="M6.03027 3.85742L6.05469 4.02832H6.00586L6.03027 3.85742Z" fill="black" stroke="black"/>
<path opacity="0.462745" d="M4.66309 4.05273L4.61426 4.15039" stroke="black"/>
<path opacity="0.462745" d="M18.8232 4.05273L18.8721 4.15039" stroke="black"/>
<path opacity="0.462745" d="M20.3369 4.05273L20.3857 4.15039" stroke="black"/>
<path opacity="0.462745" d="M4.22363 4.29688L4.1748 4.39453" stroke="black"/>
<path opacity="0.462745" d="M19.2627 4.29688L19.3115 4.39453" stroke="black"/>
<path opacity="0.462745" d="M20.7764 4.29688L20.8252 4.39453" stroke="black"/>
<path opacity="0.462745" d="M11.6943 4.39453L11.7432 4.49219" stroke="black"/>
<path opacity="0.462745" d="M13.3057 4.39453L13.2568 4.49219" stroke="black"/>
<path opacity="0.462745" d="M5.29785 4.54102L5.24902 4.63867" stroke="black"/>
<path opacity="0.462745" d="M19.7021 4.54102L19.751 4.63867" stroke="black"/>
<path opacity="0.462745" d="M11.9385 4.63867L11.9873 4.73633" stroke="black"/>
<path opacity="0.462745" d="M13.0615 4.63867L13.0127 4.73633" stroke="black"/>
<path opacity="0.462745" d="M11.1084 4.83398L11.1572 4.93164" stroke="black"/>
<path opacity="0.462745" d="M12.4268 4.83398L12.5977 4.8584L12.4268 4.88281V4.83398Z" fill="black" stroke="black"/>
<path opacity="0.462745" d="M13.8916 4.83398L13.8428 4.93164" stroke="black"/>
<path opacity="0.462745" d="M11.499 5.22461L11.5479 5.32227" stroke="black"/>
<path opacity="0.462745" d="M13.501 5.22461L13.4521 5.32227" stroke="black"/>
<path opacity="0.462745" d="M22.6318 5.32227L22.6807 5.41992" stroke="black"/>
<path opacity="0.462745" d="M12.3779 5.56641L12.6465 5.59082L12.3779 5.61523V5.56641Z" fill="black" stroke="black"/>
<path opacity="0.462745" d="M21.9971 5.81055L22.0459 5.9082" stroke="black"/>
<path opacity="0.462745" d="M23.5107 5.81055L23.5596 5.9082" stroke="black"/>
<path opacity="0.462745" d="M22.4365 6.05469L22.4854 6.15234" stroke="black"/>
<path opacity="0.462745" d="M22.876 6.29883L22.9248 6.39648" stroke="black"/>
<path opacity="0.462745" d="M1.87988 6.44531L1.92871 6.49414H23.0713C23.1104 6.42253 23.151 6.43066 23.1934 6.51855L1.83105 6.54297L1.87988 6.44531Z" fill="black" stroke="black"/>
<path opacity="0.462745" d="M0.12207 6.5918L0.0732422 6.68945" stroke="black"/>
<path opacity="0.462745" d="M24.8779 6.5918L24.9268 6.68945" stroke="black"/>
<path opacity="0.462745" d="M0.756836 7.22656L24.2676 7.25098L0.756836 7.27539V7.22656Z" fill="black" stroke="black"/>
<path opacity="0.462745" d="M1.34277 8.69141L23.6816 8.71582L1.34277 8.74023V8.69141Z" fill="black" stroke="black"/>
<path opacity="0.462745" d="M0.219727 8.74023L0.268555 8.83789" stroke="black"/>
<path opacity="0.462745" d="M24.7803 8.74023L24.7314 8.83789" stroke="black"/>
<path opacity="0.462745" d="M0.366211 8.93555L0.512695 9.13086" stroke="black"/>
<path opacity="0.462745" d="M24.6338 8.93555L24.5361 9.08203" stroke="black"/>
<path opacity="0.462745" d="M24.3896 9.13086L24.3408 9.22852" stroke="black"/>
<path opacity="0.462745" d="M1.24512 9.42383L1.46484 9.44824L1.24512 9.47266V9.42383Z" fill="black" stroke="black"/>
<path opacity="0.462745" d="M1.53809 9.42383L1.70898 9.49707L1.63574 9.47266C1.53809 9.48893 1.50553 9.47266 1.53809 9.42383Z" fill="black" stroke="black"/>
<path opacity="0.462745" d="M2.53906 9.42383H6.95801L6.98242 9.49707L6.90918 9.47266L2.58789 9.49707L2.6123 9.57031L2.53906 9.42383Z" fill="black" stroke="black"/>
<path opacity="0.462745" d="M7.93457 9.42383L17.0898 9.44824L7.93457 9.47266V9.42383Z" fill="black" stroke="black"/>
<path opacity="0.462745" d="M18.0176 9.42383H22.4365L22.4609 9.49707L22.3633 9.5459L22.3877 9.47266H18.0908L18.042 9.52148L18.0176 9.42383Z" fill="black" stroke="black"/>
<path opacity="0.462745" d="M23.3643 9.42383L23.7305 9.44824L23.3643 9.47266V9.42383Z" fill="black" stroke="black"/>
<path opacity="0.462745" d="M7.83691 9.52148L7.78809 9.61914" stroke="black"/>
<path opacity="0.462745" d="M17.1631 9.52148L17.2119 9.61914" stroke="black"/>
<path opacity="0.462745" d="M1.7334 9.57031L1.78223 9.66797" stroke="black"/>
<path opacity="0.462745" d="M23.2666 9.57031L23.2178 9.66797" stroke="black"/>
<path opacity="0.462745" d="M6.86035 9.61914L6.81152 9.7168" stroke="black"/>
<path opacity="0.462745" d="M18.1396 9.61914L18.1885 9.7168" stroke="black"/>
<path opacity="0.462745" d="M2.70996 9.66797L2.75879 9.76562" stroke="black"/>
<path opacity="0.462745" d="M7.69043 9.7168L7.6416 9.81445" stroke="black"/>
<path opacity="0.462745" d="M17.3096 9.7168L17.3584 9.81445" stroke="black"/>
<path opacity="0.462745" d="M6.7627 9.76562L6.71387 9.86328" stroke="black"/>
<path opacity="0.462745" d="M18.2373 9.76562L18.2861 9.86328" stroke="black"/>
<path opacity="0.462745" d="M2.80762 9.81445L2.85645 9.91211" stroke="black"/>
<path opacity="0.462745" d="M22.1924 9.81445L22.1436 9.91211" stroke="black"/>
<path opacity="0.462745" d="M7.59277 9.86328L7.54395 9.96094" stroke="black"/>
<path opacity="0.462745" d="M17.4072 9.86328L17.4561 9.96094" stroke="black"/>
<path opacity="0.462745" d="M1.97754 9.91211L2.02637 10.0098" stroke="black"/>
<path opacity="0.462745" d="M23.0225 9.91211L22.9736 10.0098" stroke="black"/>
<path opacity="0.462745" d="M6.61621 9.96094L6.56738 10.0586" stroke="black"/>
<path opacity="0.462745" d="M18.3838 9.96094L18.4326 10.0586" stroke="black"/>
<path opacity="0.462745" d="M6.51855 10.1074L6.46973 10.2051" stroke="black"/>
<path opacity="0.462745" d="M18.4814 10.1074L18.5303 10.2051" stroke="black"/>
<path opacity="0.462745" d="M3.05176 10.1562L3.10059 10.2539" stroke="black"/>
<path opacity="0.462745" d="M21.9482 10.1562L21.8994 10.2539" stroke="black"/>
<path opacity="0.462745" d="M7.34863 10.2051L7.2998 10.3027" stroke="black"/>
<path opacity="0.462745" d="M17.6514 10.2051L17.7002 10.3027" stroke="black"/>
<path opacity="0.462745" d="M2.22168 10.2539L2.27051 10.3516" stroke="black"/>
<path opacity="0.462745" d="M22.7783 10.2539L22.7295 10.3516" stroke="black"/>
<path opacity="0.462745" d="M2.31934 10.4004L2.36816 10.498" stroke="black"/>
<path opacity="0.462745" d="M22.6807 10.4004L22.6318 10.498" stroke="black"/>
<path opacity="0.462745" d="M6.27441 10.4492L6.22559 10.5469" stroke="black"/>
<path opacity="0.462745" d="M18.7256 10.4492L18.7744 10.5469" stroke="black"/>
<path opacity="0.462745" d="M3.2959 10.498L3.34473 10.5957" stroke="black"/>
<path opacity="0.462745" d="M21.7041 10.498L21.6553 10.5957" stroke="black"/>
<path opacity="0.462745" d="M7.10449 10.5469L7.05566 10.6445" stroke="black"/>
<path opacity="0.462745" d="M17.8955 10.5469L17.9443 10.6445" stroke="black"/>
<path opacity="0.462745" d="M2.46582 10.5957L2.51465 10.6934" stroke="black"/>
<path opacity="0.462745" d="M22.5342 10.5957L22.4854 10.6934" stroke="black"/>
<path opacity="0.462745" d="M3.39355 10.6445L3.49121 10.791" stroke="black"/>
<path opacity="0.462745" d="M21.6064 10.6445L21.5088 10.791" stroke="black"/>
<path opacity="0.462745" d="M7.00684 10.6934L6.95801 10.791" stroke="black"/>
<path opacity="0.462745" d="M2.56348 10.7422L2.6123 10.8398" stroke="black"/>
<path opacity="0.462745" d="M22.4365 10.7422L22.3877 10.8398" stroke="black"/>
<path opacity="0.462745" d="M6.86035 10.8887L6.81152 10.9863" stroke="black"/>
<path opacity="0.462745" d="M18.1396 10.8887L18.1885 10.9863" stroke="black"/>
<path opacity="0.462745" d="M2.70996 10.9375L2.75879 11.0352" stroke="black"/>
<path opacity="0.462745" d="M22.29 10.9375L22.2412 11.0352" stroke="black"/>
<path opacity="0.462745" d="M6.7627 11.0352L6.71387 11.1328" stroke="black"/>
<path opacity="0.462745" d="M18.2373 11.0352L18.2861 11.1328" stroke="black"/>
<path opacity="0.462745" d="M2.80762 11.084L2.85645 11.1816" stroke="black"/>
<path opacity="0.462745" d="M22.1924 11.084L22.1436 11.1816" stroke="black"/>
<path opacity="0.462745" d="M6.61621 11.2305L6.64062 20.2393H6.5918L6.61621 11.2305Z" fill="black" stroke="black"/>
<path opacity="0.462745" d="M18.3838 11.2305L18.4082 15.6982H18.3594L18.3838 11.2305Z" fill="black" stroke="black"/>
<path opacity="0.462745" d="M11.8896 11.5723L12.0605 11.5967L11.8896 11.6211V11.5723Z" fill="black" stroke="black"/>
<path opacity="0.462745" d="M12.9639 11.5723L13.1348 11.5967L12.9639 11.6211V11.5723Z" fill="black" stroke="black"/>
<path opacity="0.462745" d="M11.9873 12.3047L12.1094 12.3291L11.9873 12.3535V12.3047Z" fill="black" stroke="black"/>
<path opacity="0.462745" d="M12.915 12.3047L13.0371 12.3291L12.915 12.3535V12.3047Z" fill="black" stroke="black"/>
<path opacity="0.462745" d="M14.917 12.3047L14.9658 12.4023" stroke="black"/>
<path opacity="0.462745" d="M9.93652 12.4023L9.83887 12.5488" stroke="black"/>
<path opacity="0.462745" d="M15.0635 12.4023L15.1611 12.5488" stroke="black"/>
<path opacity="0.462745" d="M14.0869 12.6465L14.1357 12.7441" stroke="black"/>
<path opacity="0.462745" d="M9.5459 12.7441L9.49707 12.8418" stroke="black"/>
<path opacity="0.462745" d="M15.4541 12.7441L15.5029 12.8418" stroke="black"/>
<path opacity="0.462745" d="M12.4268 12.793L12.5977 12.8174L12.4268 12.8418V12.793Z" fill="black" stroke="black"/>
<path opacity="0.462745" d="M10.5225 12.8906L10.4736 12.9883" stroke="black"/>
<path opacity="0.462745" d="M14.4775 12.8906L14.5264 12.9883" stroke="black"/>
<path opacity="0.462745" d="M10.3271 13.0371L10.2295 13.1836" stroke="black"/>
<path opacity="0.462745" d="M14.6729 13.0371L14.7705 13.1836" stroke="black"/>
<path opacity="0.462745" d="M9.25293 13.0859L9.2041 13.1836" stroke="black"/>
<path opacity="0.462745" d="M12.1338 13.0859L12.1582 13.3545H12.1094L12.1338 13.0859Z" fill="black" stroke="black"/>
<path opacity="0.462745" d="M12.8662 13.0859L12.8906 13.3545H12.8418L12.8662 13.0859Z" fill="black" stroke="black"/>
<path opacity="0.462745" d="M15.7471 13.0859L15.7959 13.1836" stroke="black"/>
<path opacity="0.462745" d="M9.10645 13.2812L9.05762 13.3789" stroke="black"/>
<path opacity="0.462745" d="M15.8936 13.2812L15.9424 13.3789" stroke="black"/>
<path opacity="0.462745" d="M11.8408 13.3789L11.9629 13.4033L11.8408 13.4277V13.3789Z" fill="black" stroke="black"/>
<path opacity="0.462745" d="M13.0127 13.3789L13.1348 13.4033L13.0127 13.4277V13.3789Z" fill="black" stroke="black"/>
<path opacity="0.462745" d="M9.8877 13.4766L9.79004 13.623" stroke="black"/>
<path opacity="0.462745" d="M15.1123 13.4766L15.21 13.623" stroke="black"/>
<path opacity="0.462745" d="M11.4502 13.5742L11.2549 13.8184" stroke="black"/>
<path opacity="0.462745" d="M13.5498 13.5742L13.7451 13.8184" stroke="black"/>
<path opacity="0.462745" d="M16.0889 13.5742L16.1377 13.6719" stroke="black"/>
<path opacity="0.462745" d="M9.69238 13.7207L9.64355 13.8184" stroke="black"/>
<path opacity="0.462745" d="M15.3076 13.7207L15.3564 13.8184" stroke="black"/>
<path opacity="0.462745" d="M9.59473 13.8672L9.5459 13.9648" stroke="black"/>
<path opacity="0.462745" d="M15.4053 13.8672L15.4541 13.9648" stroke="black"/>
<path opacity="0.462745" d="M12.1338 14.1113L12.1582 15.3564H12.1094L12.1338 14.1113Z" fill="black" stroke="black"/>
<path opacity="0.462745" d="M12.8662 14.1113L12.8906 15.3564H12.8418L12.8662 14.1113Z" fill="black" stroke="black"/>
<path opacity="0.462745" d="M11.8896 14.1602L11.8408 14.2578" stroke="black"/>
<path opacity="0.462745" d="M13.1104 14.1602L13.1592 14.2578" stroke="black"/>
<path opacity="0.462745" d="M11.0107 14.4531L11.0352 15.0635H10.9863L11.0107 14.4531Z" fill="black" stroke="black"/>
<path opacity="0.462745" d="M11.7432 14.502L11.7676 15.0146H11.7188L11.7432 14.502Z" fill="black" stroke="black"/>
<path opacity="0.462745" d="M13.2568 14.502L13.2812 14.624H13.2324L13.2568 14.502Z" fill="black" stroke="black"/>
<path opacity="0.462745" d="M13.3057 14.6973L13.4033 14.8438" stroke="black"/>
<path opacity="0.462745" d="M13.5498 14.8438L13.7207 14.8682L13.5498 14.8926V14.8438Z" fill="black" stroke="black"/>
<path opacity="0.462745" d="M9.10645 14.9902L9.13086 15.1123H9.08203L9.10645 14.9902Z" fill="black" stroke="black"/>
<path opacity="0.462745" d="M11.792 15.1855L11.8408 15.2832" stroke="black"/>
<path opacity="0.462745" d="M8.3252 15.2344L8.34961 15.4541H8.30078L8.3252 15.2344Z" fill="black" stroke="black"/>
<path opacity="0.462745" d="M16.6748 15.2344L16.6992 15.4541H16.6504L16.6748 15.2344Z" fill="black" stroke="black"/>
<path opacity="0.462745" d="M9.05762 15.2832L9.08203 15.5029H9.0332L9.05762 15.2832Z" fill="black" stroke="black"/>
<path opacity="0.462745" d="M15.9424 15.2832L15.9668 15.5029H15.918L15.9424 15.2832Z" fill="black" stroke="black"/>
<path opacity="0.462745" d="M13.0127 15.3809L13.1348 15.4053L13.0127 15.4297V15.3809Z" fill="black" stroke="black"/>
<path opacity="0.462745" d="M13.5498 15.5762L13.7451 15.8203" stroke="black"/>
<path opacity="0.462745" d="M11.2061 15.625L11.2549 15.7227" stroke="black"/>
<path opacity="0.462745" d="M11.499 15.918L11.5479 16.0156" stroke="black"/>
<path opacity="0.462745" d="M18.4814 15.918L18.5303 16.0156" stroke="black"/>
<path opacity="0.462745" d="M9.05762 15.9668L9.08203 16.1865H9.0332L9.05762 15.9668Z" fill="black" stroke="black"/>
<path opacity="0.462745" d="M15.9424 15.9668L15.9668 16.1865H15.918L15.9424 15.9668Z" fill="black" stroke="black"/>
<path opacity="0.462745" d="M8.3252 16.0156L8.34961 16.2842H8.30078L8.3252 16.0156Z" fill="black" stroke="black"/>
<path opacity="0.462745" d="M16.6748 16.0156L16.6992 16.2842H16.6504L16.6748 16.0156Z" fill="black" stroke="black"/>
<path opacity="0.462745" d="M12.0361 16.1133L12.1582 16.1377V17.3584H12.1094V16.1865L12.0361 16.1621V16.1133Z" fill="black" stroke="black"/>
<path opacity="0.462745" d="M12.8662 16.1133L12.8906 17.3584L12.9395 17.4072L12.8418 17.3584L12.8662 16.1133Z" fill="black" stroke="black"/>
<path opacity="0.462745" d="M13.1104 16.1621L13.1592 16.2598" stroke="black"/>
<path opacity="0.462745" d="M15.8936 16.3574L15.918 16.4795H15.8691L15.8936 16.3574Z" fill="black" stroke="black"/>
<path opacity="0.462745" d="M8.37402 16.4551L8.39844 16.5771H8.34961L8.37402 16.4551Z" fill="black" stroke="black"/>
<path opacity="0.462745" d="M13.9893 16.4551L14.0137 17.0654H13.9648L13.9893 16.4551Z" fill="black" stroke="black"/>
<path opacity="0.462745" d="M16.626 16.4551L16.6504 16.5771H16.6016L16.626 16.4551Z" fill="black" stroke="black"/>
<path opacity="0.462745" d="M13.2568 16.5039L13.2812 17.0166H13.2324L13.2568 16.5039Z" fill="black" stroke="black"/>
<path opacity="0.462745" d="M11.1572 16.6992L11.1084 16.7969" stroke="black"/>
<path opacity="0.462745" d="M11.7432 16.8945L11.7676 17.0166H11.7188L11.7432 16.8945Z" fill="black" stroke="black"/>
<path opacity="0.462745" d="M18.9697 17.0898L19.0674 17.2363" stroke="black"/>
<path opacity="0.462745" d="M13.208 17.1387L13.2324 17.2119L13.1348 17.2607L13.208 17.1387Z" fill="black" stroke="black"/>
<path opacity="0.462745" d="M11.792 17.1875L11.8408 17.2852" stroke="black"/>
<path opacity="0.462745" d="M19.1162 17.2852L19.1406 17.4072H19.0918L19.1162 17.2852Z" fill="black" stroke="black"/>
<path opacity="0.462745" d="M18.3838 17.4316L18.4082 20.2393H18.3594L18.3838 17.4316Z" fill="black" stroke="black"/>
<path opacity="0.462745" d="M9.59473 17.627L9.64355 17.7246" stroke="black"/>
<path opacity="0.462745" d="M11.2061 17.627L11.2549 17.7246" stroke="black"/>
<path opacity="0.462745" d="M13.7939 17.627L13.7451 17.7246" stroke="black"/>
<path opacity="0.462745" d="M15.4053 17.627L15.3564 17.7246" stroke="black"/>
<path opacity="0.462745" d="M9.69238 17.7734L9.79004 17.9199" stroke="black"/>
<path opacity="0.462745" d="M15.3076 17.7734L15.21 17.9199" stroke="black"/>
<path opacity="0.462745" d="M8.91113 17.9199L8.95996 18.0176" stroke="black"/>
<path opacity="0.462745" d="M11.499 17.9199L11.5479 18.0176" stroke="black"/>
<path opacity="0.462745" d="M16.0889 17.9199L16.04 18.0176" stroke="black"/>
<path opacity="0.462745" d="M9.8877 18.0176L10.1807 18.3594" stroke="black"/>
<path opacity="0.462745" d="M15.1123 18.0176L14.8193 18.3594" stroke="black"/>
<path opacity="0.462745" d="M9.00879 18.0664L9.05762 18.1641" stroke="black"/>
<path opacity="0.462745" d="M15.9912 18.0664L15.9424 18.1641" stroke="black"/>
<path opacity="0.462745" d="M11.9873 18.115C12.1859 18.0564 12.2428 18.146 12.1582 18.3836H12.1094C12.1777 18.1915 12.137 18.1183 11.9873 18.1639V18.115Z" fill="black" stroke="black"/>
<path opacity="0.462745" d="M12.8418 18.1152L12.9883 18.1396L12.8906 18.1641L12.8662 18.4082L12.8418 18.1152Z" fill="black" stroke="black"/>
<path opacity="0.462745" d="M9.10645 18.2129L9.15527 18.3105" stroke="black"/>
<path opacity="0.462745" d="M15.8936 18.2129L15.8447 18.3105" stroke="black"/>
<path opacity="0.462745" d="M9.30176 18.457L9.79004 18.9941" stroke="black"/>
<path opacity="0.462745" d="M10.376 18.457L10.4248 18.5547" stroke="black"/>
<path opacity="0.462745" d="M14.624 18.457L14.5752 18.5547" stroke="black"/>
<path opacity="0.462745" d="M15.6982 18.457L15.21 18.9941" stroke="black"/>
<path opacity="0.462745" d="M12.1826 18.5059L12.2803 18.6523" stroke="black"/>
<path opacity="0.462745" d="M12.8174 18.5059L12.7197 18.6523" stroke="black"/>
<path opacity="0.462745" d="M10.5713 18.6035L10.6201 18.7012" stroke="black"/>
<path opacity="0.462745" d="M9.93652 19.043L9.98535 19.1406" stroke="black"/>
<path opacity="0.462745" d="M15.0635 19.043L15.0146 19.1406" stroke="black"/>
<path opacity="0.462745" d="M11.8408 19.1406L11.9629 19.165L11.8408 19.1895V19.1406Z" fill="black" stroke="black"/>
<path opacity="0.462745" d="M13.0615 19.1406L13.1836 19.165L13.0615 19.1895V19.1406Z" fill="black" stroke="black"/>
<path opacity="0.462745" d="M10.1318 19.1895L10.1807 19.2871" stroke="black"/>
<path opacity="0.462745" d="M12.1338 19.1895L12.8906 19.2139L12.1338 19.2383V19.1895Z" fill="black" stroke="black"/>
<path opacity="0.462745" d="M14.8682 19.1895L14.8193 19.2871" stroke="black"/>
<path opacity="0.462745" d="M10.2783 19.2871L10.3271 19.3848" stroke="black"/>
<path opacity="0.462745" d="M11.7432 19.873L11.8652 19.8975L11.7432 19.9219V19.873Z" fill="black" stroke="black"/>
<path opacity="0.462745" d="M13.1592 19.873L13.2812 19.8975L13.1592 19.9219V19.873Z" fill="black" stroke="black"/>
<path opacity="0.462745" d="M12.085 19.9219L12.9395 19.9463L12.085 19.9707V19.9219Z" fill="black" stroke="black"/>
<path opacity="0.462745" d="M3.68652 19.9707L5.85938 19.9951L3.68652 20.0195V19.9707Z" fill="black" stroke="black"/>
<path opacity="0.462745" d="M19.165 19.9707L21.3379 19.9951L19.165 20.0195V19.9707Z" fill="black" stroke="black"/>
<path opacity="0.462745" d="M22.0947 20.2637L22.1436 20.3613" stroke="black"/>
<path opacity="0.462745" d="M2.80762 20.4102L2.75879 20.5078" stroke="black"/>
<path opacity="0.462745" d="M22.1924 20.4102L22.2412 20.5078" stroke="black"/>
<path opacity="0.462745" d="M6.7627 20.459L6.81152 20.5566" stroke="black"/>
<path opacity="0.462745" d="M18.2373 20.459L18.1885 20.5566" stroke="black"/>
<path opacity="0.462745" d="M18.1396 20.6055L18.0908 20.7031" stroke="black"/>
<path opacity="0.462745" d="M3.54004 20.7031H6.03027L6.10352 20.7764L6.03027 20.752H3.54004V20.7031Z" fill="black" stroke="black"/>
<path opacity="0.462745" d="M18.9697 20.7031L21.4844 20.7275L18.9697 20.752L18.9209 20.8008L18.9697 20.7031Z" fill="black" stroke="black"/>
<path opacity="0.462745" d="M2.56348 20.752L2.51465 20.8496" stroke="black"/>
<path opacity="0.462745" d="M22.4365 20.752L22.4854 20.8496" stroke="black"/>
<path opacity="0.462745" d="M7.00684 20.8008L7.05566 20.8984" stroke="black"/>
<path opacity="0.462745" d="M17.9932 20.8008L17.9443 20.8984" stroke="black"/>
<path opacity="0.462745" d="M3.39355 20.8496L3.34473 20.9473" stroke="black"/>
<path opacity="0.462745" d="M21.6064 20.8496L21.6553 20.9473" stroke="black"/>
<path opacity="0.462745" d="M6.17676 20.8984L6.22559 20.9961" stroke="black"/>
<path opacity="0.462745" d="M18.8232 20.8984L18.7744 20.9961" stroke="black"/>
<path opacity="0.462745" d="M7.10449 20.9473L7.15332 21.0449" stroke="black"/>
<path opacity="0.462745" d="M17.8955 20.9473L17.8467 21.0449" stroke="black"/>
<path opacity="0.462745" d="M3.2959 20.9961L3.24707 21.0938" stroke="black"/>
<path opacity="0.462745" d="M21.7041 20.9961L21.7529 21.0938" stroke="black"/>
<path opacity="0.462745" d="M6.27441 21.0449L6.32324 21.1426" stroke="black"/>
<path opacity="0.462745" d="M18.7256 21.0449L18.6768 21.1426" stroke="black"/>
<path opacity="0.462745" d="M2.31934 21.0938L2.27051 21.1914" stroke="black"/>
<path opacity="0.462745" d="M22.6807 21.0938L22.7295 21.1914" stroke="black"/>
<path opacity="0.462745" d="M7.25098 21.1426L7.2998 21.2402" stroke="black"/>
<path opacity="0.462745" d="M17.749 21.1426L17.7002 21.2402" stroke="black"/>
<path opacity="0.462745" d="M3.14941 21.1914L3.10059 21.2891" stroke="black"/>
<path opacity="0.462745" d="M21.8506 21.1914L21.8994 21.2891" stroke="black"/>
<path opacity="0.462745" d="M2.22168 21.2402L2.17285 21.3379" stroke="black"/>
<path opacity="0.462745" d="M6.4209 21.2402L6.46973 21.3379" stroke="black"/>
<path opacity="0.462745" d="M18.5791 21.2402L18.5303 21.3379" stroke="black"/>
<path opacity="0.462745" d="M22.7783 21.2402L22.8271 21.3379" stroke="black"/>
<path opacity="0.462745" d="M7.34863 21.2891L7.39746 21.3867" stroke="black"/>
<path opacity="0.462745" d="M17.6514 21.2891L17.6025 21.3867" stroke="black"/>
<path opacity="0.462745" d="M3.05176 21.3379L3.00293 21.4355" stroke="black"/>
<path opacity="0.462745" d="M21.9482 21.3379L21.9971 21.4355" stroke="black"/>
<path opacity="0.462745" d="M6.51855 21.3867L6.56738 21.4844" stroke="black"/>
<path opacity="0.462745" d="M18.4814 21.3867L18.4326 21.4844" stroke="black"/>
<path opacity="0.462745" d="M2.0752 21.4355L2.02637 21.5332" stroke="black"/>
<path opacity="0.462745" d="M22.9248 21.4355L22.9736 21.5332" stroke="black"/>
<path opacity="0.462745" d="M7.49512 21.4844L7.54395 21.582" stroke="black"/>
<path opacity="0.462745" d="M17.5049 21.4844L17.4561 21.582" stroke="black"/>
<path opacity="0.462745" d="M2.90527 21.5332L2.85645 21.6309" stroke="black"/>
<path opacity="0.462745" d="M22.0947 21.5332L22.1436 21.6309" stroke="black"/>
<path opacity="0.462745" d="M1.97754 21.582L1.92871 21.6797" stroke="black"/>
<path opacity="0.462745" d="M23.0225 21.582L23.0713 21.6797" stroke="black"/>
<path opacity="0.462745" d="M7.59277 21.6309L7.6416 21.7285" stroke="black"/>
<path opacity="0.462745" d="M17.4072 21.6309L17.3584 21.7285" stroke="black"/>
<path opacity="0.462745" d="M2.80762 21.6797L2.75879 21.7773" stroke="black"/>
<path opacity="0.462745" d="M22.1924 21.6797L22.2412 21.7773" stroke="black"/>
<path opacity="0.462745" d="M6.7627 21.7285L6.81152 21.8262" stroke="black"/>
<path opacity="0.462745" d="M18.2373 21.7285L18.1885 21.8262" stroke="black"/>
<path opacity="0.462745" d="M1.83105 21.7773L1.78223 21.875" stroke="black"/>
<path opacity="0.462745" d="M23.1689 21.7773L23.2178 21.875" stroke="black"/>
<path opacity="0.462745" d="M22.3389 21.875L22.3877 21.9727" stroke="black"/>
<path opacity="0.462745" d="M1.7334 21.9238L1.68457 22.0215" stroke="black"/>
<path opacity="0.462745" d="M23.2666 21.9238L23.3154 22.0215" stroke="black"/>
<path opacity="0.462745" d="M7.83691 21.9727L7.88574 22.0703" stroke="black"/>
<path opacity="0.462745" d="M17.1631 21.9727L17.1143 22.0703" stroke="black"/>
<path opacity="0.462745" d="M0.268555 22.2656L0.219727 22.3633" stroke="black"/>
<path opacity="0.462745" d="M24.7314 22.2656L24.7803 22.3633" stroke="black"/>
<path opacity="0.462745" d="M0.756836 24.1699L0.805664 24.2676" stroke="black"/>
<path opacity="0.462745" d="M24.2432 24.1699L24.1943 24.2676" stroke="black"/>
<path opacity="0.462745" d="M0.366211 24.8047L0.415039 24.9023" stroke="black"/>
<path opacity="0.462745" d="M24.6338 24.8047L24.585 24.9023" stroke="black"/>
<path opacity="0.992157" d="M12.3779 0L12.915 0.0488281L13.5986 0.341797L24.4385 6.34766L24.9512 6.71387L25 6.81152V8.17871C24.9154 8.59863 24.7282 8.91602 24.4385 9.13086C24.1943 9.36523 23.8281 9.46289 23.3398 9.42383L22.0703 11.2549V20.2881L23.3643 22.0703H24.292C24.5426 22.1289 24.7298 22.251 24.8535 22.4365L25 22.7783V24.2432C24.9609 24.4971 24.8551 24.6842 24.6826 24.8047L24.2432 25H0.756836C0.486654 24.9447 0.283203 24.8226 0.146484 24.6338L0 24.2432V22.7783C0.061849 22.5277 0.183919 22.3405 0.366211 22.2168L0.708008 22.0703H1.63574L1.75781 21.9482L2.92969 20.2881V11.2549L1.63574 9.42383L1.48926 9.47266L0.756836 9.27734L0.292969 8.8623L0 8.17871V6.81152L0.219727 6.54297L5.15137 3.80859L5.54199 3.61328H5.83496C5.99772 3.66211 6.05469 3.81673 6.00586 4.07715L5.88379 4.24805L1.80664 6.51855L23.1689 6.54297L23.1201 6.44531L13.4521 1.07422L12.7197 0.732422H12.2803L11.6455 1.02539L7.49512 3.36914C7.42025 3.45703 7.29004 3.48958 7.10449 3.4668L6.83594 3.24707C6.80013 2.99967 6.8571 2.84505 7.00684 2.7832L11.4014 0.341797L11.792 0.146484L12.3779 0ZM0.732422 7.22656V8.20312L0.927734 8.54492L1.36719 8.74023H23.6816L24.0723 8.54492L24.2676 8.20312V7.27539V7.22656H0.732422ZM2.53906 9.42383L3.36914 10.6934L3.51562 10.791H6.05469L6.98242 9.52148V9.42383H2.53906ZM7.95898 9.42383L6.5918 11.2793V20.2637L7.8125 22.0215L7.91016 22.0703H17.1387L18.4082 20.2637V17.334L18.457 17.2363L18.75 17.041L18.9453 17.0898L19.0918 17.2852L19.1406 17.4805V20.0195H21.3379V11.5723V11.5234H19.1406V15.7227L19.043 15.9668L18.8965 16.0645L18.6035 16.0156L18.4082 15.8203V11.2793L17.2363 9.61914L17.0898 9.42383H7.95898ZM18.0176 9.42383L18.8477 10.6934L18.9941 10.791H21.5332L22.4609 9.52148V9.42383H18.0176ZM3.66211 11.5234V20.0195H3.71094H5.85938V11.5723V11.5234H3.66211ZM3.56445 20.7031L3.32031 20.9473L2.63672 21.9727L2.58789 22.0703H6.98242L6.10352 20.8008L6.05469 20.7031H3.56445ZM18.9941 20.7031L18.0664 22.0215V22.0703H22.4609L21.6797 20.9473L21.4844 20.7031H18.9941ZM0.830078 22.8027L0.732422 22.9004V24.2188L0.830078 24.2676H24.2188L24.2676 24.2188V22.9004L24.2188 22.8027H0.830078Z" fill="black" stroke="black"/>
<path opacity="0.992157" d="M12.1338 2.24621C12.57 2.18436 12.9118 2.21691 13.1592 2.34387C13.4521 2.47408 13.6881 2.66125 13.8672 2.90539L14.1601 3.58899V4.22375C14.0495 4.65018 13.846 4.98384 13.5498 5.22473L13.0127 5.5177C12.7946 5.59257 12.5179 5.60884 12.1826 5.56652C11.7562 5.45585 11.4225 5.2524 11.1816 4.95617L10.8886 4.41906C10.8138 4.20096 10.7975 3.92427 10.8398 3.58899C10.9407 3.12024 11.1605 2.7703 11.499 2.53918L12.1338 2.24621ZM12.3535 2.92981L12.0117 3.07629C11.7513 3.23905 11.5885 3.48319 11.5234 3.80871V4.05285L11.6699 4.44348C11.8327 4.67134 12.0931 4.81783 12.4511 4.88293L13.0371 4.73645C13.2649 4.57369 13.4114 4.34582 13.4765 4.05285V3.80871L13.3301 3.41809C13.1673 3.06001 12.8418 2.89725 12.3535 2.92981Z" fill="black" stroke="black"/>
<path opacity="0.992157" d="M12.085 11.5723L13.2568 11.6211L14.0869 11.8652C14.7477 12.1484 15.293 12.5472 15.7227 13.0615C16.0286 13.4229 16.2728 13.846 16.4551 14.3311L16.6504 15.0635L16.6992 15.9912L16.6504 16.04V16.4307L16.5527 16.8701L16.1133 17.8955C15.8496 18.348 15.516 18.7305 15.1123 19.043C14.7282 19.3587 14.2725 19.6029 13.7451 19.7754L13.1104 19.9219H11.8896C10.6917 19.6875 9.78841 19.1585 9.17969 18.335C8.86068 17.9183 8.61654 17.43 8.44727 16.8701L8.34961 16.4307V16.04L8.30078 15.9912V15.5029L8.34961 15.4541V15.0635L8.44727 14.624L8.83789 13.6963C9.0918 13.2503 9.40918 12.8678 9.79004 12.5488C10.1123 12.2689 10.4867 12.041 10.9131 11.8652L12.085 11.5723ZM12.0117 12.3047C11.3281 12.4349 10.7747 12.679 10.3516 13.0371C9.66797 13.5579 9.22852 14.3229 9.0332 15.332V16.2109L9.13086 16.6992C9.29362 17.2201 9.53776 17.6758 9.86328 18.0664C10.1562 18.3919 10.5306 18.6686 10.9863 18.8965L11.4746 19.0918L12.1582 19.2383H12.8906L13.5742 19.0918C14.0625 18.929 14.4857 18.6849 14.8438 18.3594C15.4297 17.8711 15.804 17.1549 15.9668 16.2109V15.332L15.8203 14.6973C15.6901 14.2741 15.4948 13.916 15.2344 13.623C14.8438 13.1348 14.3555 12.7604 13.7695 12.5L13.0371 12.3047H12.0117Z" fill="black" stroke="black"/>
<path opacity="0.992157" d="M12.3779 12.8419C12.5895 12.8094 12.7279 12.85 12.793 12.964L12.8418 13.379L13.4521 13.5255L13.8184 13.8917L13.9648 14.2823V14.6241L13.8428 14.795L13.4521 14.8439L13.2812 14.673C13.291 14.4353 13.234 14.2644 13.1104 14.1603L12.8418 14.1114V15.3566L12.9639 15.381L13.4521 15.5275L13.8184 15.8937L13.9648 16.2843V17.2609C13.8835 17.5375 13.7451 17.7573 13.5498 17.92C13.387 18.073 13.151 18.1381 12.8418 18.1153C12.9069 18.4018 12.8499 18.5808 12.6709 18.6525L12.4268 18.7013L12.1582 18.4816V18.1153H11.8408C11.5999 18.047 11.4128 17.9249 11.2793 17.7491L11.0352 17.2609V16.9191L11.2061 16.6993L11.4502 16.6505L11.6699 16.7726L11.7676 17.212L11.9385 17.3829C12.085 17.3992 12.1582 17.3911 12.1582 17.3585V16.1134C11.7383 16.1362 11.4453 16.0141 11.2793 15.7472L11.0352 15.2589V14.2823C11.11 13.934 11.2809 13.6817 11.5479 13.5255L12.1582 13.379C12.1094 13.1446 12.1501 12.9819 12.2803 12.8907L12.3779 12.8419ZM12.0117 14.1114L11.9141 14.1603L11.7188 14.5509L11.7676 15.2345C11.8327 15.3647 11.9629 15.4135 12.1582 15.381V14.1603L12.0117 14.1114ZM12.8418 16.1134V17.3829L12.9395 17.4317L13.0859 17.3829L13.2324 17.2364L13.2812 17.0411C13.3138 16.6831 13.2812 16.4226 13.1836 16.2599C13.1185 16.1297 13.0046 16.0808 12.8418 16.1134Z" fill="black" stroke="black"/>
</g>
<defs>
<clipPath id="clip0_144_1873">
<rect width="25" height="25" fill="white"/>
</clipPath>
</defs>
</svg>
