<svg width="512" height="512" version="1.1" xmlns="http://www.w3.org/2000/svg" desc="Created with imagetracer.js version 1.2.6" ><path fill="rgb(0,0,0)" stroke="rgb(0,0,0)" stroke-width="1" opacity="0.7843137254901961" d="M 256.5 85 L 277 85.5 L 256.5 86 L 256.5 85 Z " /><path fill="rgb(0,0,0)" stroke="rgb(0,0,0)" stroke-width="1" opacity="0.7843137254901961" d="M 245.5 86 L 250 86.5 L 245.5 87 L 245.5 86 Z " /><path fill="rgb(0,0,0)" stroke="rgb(0,0,0)" stroke-width="1" opacity="0.7843137254901961" d="M 283.5 86 L 288 86.5 L 283.5 87 L 283.5 86 Z " /><path fill="rgb(0,0,0)" stroke="rgb(0,0,0)" stroke-width="1" opacity="0.7843137254901961" d="M 238.5 87 L 242 87.5 L 238.5 88 L 238.5 87 Z " /><path fill="rgb(0,0,0)" stroke="rgb(0,0,0)" stroke-width="1" opacity="0.7843137254901961" d="M 292.5 87 L 295 87.5 L 292.5 88 L 292.5 87 Z " /><path fill="rgb(0,0,0)" stroke="rgb(0,0,0)" stroke-width="1" opacity="0.7843137254901961" d="M 298.5 88 L 301 88.5 L 298.5 89 L 298.5 88 Z " /><path fill="rgb(0,0,0)" stroke="rgb(0,0,0)" stroke-width="1" opacity="0.7843137254901961" d="M 227.5 89 L 230 89.5 L 227.5 90 L 227.5 89 Z " /><path fill="rgb(0,0,0)" stroke="rgb(0,0,0)" stroke-width="1" opacity="0.7843137254901961" d="M 257.5 106 L 276 106.5 L 257.5 107 L 257.5 106 Z " /><path fill="rgb(0,0,0)" stroke="rgb(0,0,0)" stroke-width="1" opacity="0.7843137254901961" d="M 179.5 107 L 178.5 109 L 179.5 107 Z " /><path fill="rgb(0,0,0)" stroke="rgb(0,0,0)" stroke-width="1" opacity="0.7843137254901961" d="M 246.5 107 L 251 107.5 L 246.5 108 L 246.5 107 Z " /><path fill="rgb(0,0,0)" stroke="rgb(0,0,0)" stroke-width="1" opacity="0.7843137254901961" d="M 283.5 107 L 287 107.5 L 283.5 108 L 283.5 107 Z " /><path fill="rgb(0,0,0)" stroke="rgb(0,0,0)" stroke-width="1" opacity="0.7843137254901961" d="M 240.5 108 L 243 108.5 L 240.5 109 L 240.5 108 Z " /><path fill="rgb(0,0,0)" stroke="rgb(0,0,0)" stroke-width="1" opacity="0.7843137254901961" d="M 290.5 108 L 294 108.5 L 290.5 109 L 290.5 108 Z " /><path fill="rgb(0,0,0)" stroke="rgb(0,0,0)" stroke-width="1" opacity="0.7843137254901961" d="M 355.5 108 L 356.5 110 L 355.5 108 Z " /><path fill="rgb(0,0,0)" stroke="rgb(0,0,0)" stroke-width="1" opacity="0.7843137254901961" d="M 234.5 109 L 237 109.5 L 234.5 110 L 234.5 109 Z " /><path fill="rgb(0,0,0)" stroke="rgb(0,0,0)" stroke-width="1" opacity="0.7843137254901961" d="M 296.5 109 L 299 109.5 L 296.5 110 L 296.5 109 Z " /><path fill="rgb(0,0,0)" stroke="rgb(0,0,0)" stroke-width="1" opacity="0.7843137254901961" d="M 360.5 111 L 361.5 113 L 360.5 111 Z " /><path fill="rgb(0,0,0)" stroke="rgb(0,0,0)" stroke-width="1" opacity="0.7843137254901961" d="M 169.5 113 L 168.5 115 L 169.5 113 Z " /><path fill="rgb(0,0,0)" stroke="rgb(0,0,0)" stroke-width="1" opacity="0.7843137254901961" d="M 166.5 115 L 165.5 117 L 166.5 115 Z " /><path fill="rgb(0,0,0)" stroke="rgb(0,0,0)" stroke-width="1" opacity="0.7843137254901961" d="M 163.5 117 L 162.5 119 L 163.5 117 Z " /><path fill="rgb(0,0,0)" stroke="rgb(0,0,0)" stroke-width="1" opacity="0.7843137254901961" d="M 369.5 117 L 370.5 119 L 369.5 117 Z " /><path fill="rgb(0,0,0)" stroke="rgb(0,0,0)" stroke-width="1" opacity="0.7843137254901961" d="M 372.5 119 L 373.5 121 L 372.5 119 Z " /><path fill="rgb(0,0,0)" stroke="rgb(0,0,0)" stroke-width="1" opacity="0.7843137254901961" d="M 159.5 120 L 158.5 122 L 159.5 120 Z " /><path fill="rgb(0,0,0)" stroke="rgb(0,0,0)" stroke-width="1" opacity="0.7843137254901961" d="M 156.5 122 L 154.5 125 L 156.5 122 Z " /><path fill="rgb(0,0,0)" stroke="rgb(0,0,0)" stroke-width="1" opacity="0.7843137254901961" d="M 376.5 122 L 377.5 124 L 376.5 122 Z " /><path fill="rgb(0,0,0)" stroke="rgb(0,0,0)" stroke-width="1" opacity="0.7843137254901961" d="M 192.5 124 L 191.5 126 L 189.5 127 L 190.5 125 L 192.5 124 Z " /><path fill="rgb(0,0,0)" stroke="rgb(0,0,0)" stroke-width="1" opacity="0.7843137254901961" d="M 380.5 125 L 382.5 128 L 380.5 125 Z " /><path fill="rgb(0,0,0)" stroke="rgb(0,0,0)" stroke-width="1" opacity="0.7843137254901961" d="M 151.5 126 L 148.5 130 L 151.5 126 Z " /><path fill="rgb(0,0,0)" stroke="rgb(0,0,0)" stroke-width="1" opacity="0.7843137254901961" d="M 183.5 129 L 182.5 131 L 183.5 129 Z " /><path fill="rgb(0,0,0)" stroke="rgb(0,0,0)" stroke-width="1" opacity="0.7843137254901961" d="M 351.5 130 L 352.5 132 L 351.5 130 Z " /><path fill="rgb(0,0,0)" stroke="rgb(0,0,0)" stroke-width="1" opacity="0.7843137254901961" d="M 386.5 130 L 402.5 147 L 386.5 130 Z " /><path fill="rgb(0,0,0)" stroke="rgb(0,0,0)" stroke-width="1" opacity="0.7843137254901961" d="M 180.5 131 L 179.5 133 L 180.5 131 Z " /><path fill="rgb(0,0,0)" stroke="rgb(0,0,0)" stroke-width="1" opacity="0.7843137254901961" d="M 144.5 132 L 132.5 145 L 144.5 132 Z " /><path fill="rgb(0,0,0)" stroke="rgb(0,0,0)" stroke-width="1" opacity="0.7843137254901961" d="M 354.5 132 L 355.5 134 L 354.5 132 Z " /><path fill="rgb(0,0,0)" stroke="rgb(0,0,0)" stroke-width="1" opacity="0.7843137254901961" d="M 177.5 133 L 176.5 135 L 177.5 133 Z " /><path fill="rgb(0,0,0)" stroke="rgb(0,0,0)" stroke-width="1" opacity="0.7843137254901961" d="M 357.5 134 L 358.5 136 L 357.5 134 Z " /><path fill="rgb(0,0,0)" stroke="rgb(0,0,0)" stroke-width="1" opacity="0.7843137254901961" d="M 174.5 135 L 173.5 137 L 174.5 135 Z " /><path fill="rgb(0,0,0)" stroke="rgb(0,0,0)" stroke-width="1" opacity="0.7843137254901961" d="M 361.5 137 L 362.5 139 L 361.5 137 Z " /><path fill="rgb(0,0,0)" stroke="rgb(0,0,0)" stroke-width="1" opacity="0.7843137254901961" d="M 170.5 138 L 169.5 140 L 170.5 138 Z " /><path fill="rgb(0,0,0)" stroke="rgb(0,0,0)" stroke-width="1" opacity="0.7843137254901961" d="M 365.5 140 L 366.5 142 L 365.5 140 Z " /><path fill="rgb(0,0,0)" stroke="rgb(0,0,0)" stroke-width="1" opacity="0.7843137254901961" d="M 166.5 141 L 164.5 144 L 166.5 141 Z " /><path fill="rgb(0,0,0)" stroke="rgb(0,0,0)" stroke-width="1" opacity="0.7843137254901961" d="M 370.5 144 L 374.5 149 L 370.5 144 Z " /><path fill="rgb(0,0,0)" stroke="rgb(0,0,0)" stroke-width="1" opacity="0.7843137254901961" d="M 160.5 146 L 146.5 161 L 160.5 146 Z " /><path fill="rgb(0,0,0)" stroke="rgb(0,0,0)" stroke-width="1" opacity="0.7843137254901961" d="M 129.5 148 L 126.5 152 L 129.5 148 Z " /><path fill="rgb(0,0,0)" stroke="rgb(0,0,0)" stroke-width="1" opacity="0.7843137254901961" d="M 265.5 150 L 269 150.5 L 265.5 151 L 265.5 150 Z " /><path fill="rgb(0,0,0)" stroke="rgb(0,0,0)" stroke-width="1" opacity="0.7843137254901961" d="M 405.5 150 L 407.5 153 L 405.5 150 Z " /><path fill="rgb(0,0,0)" stroke="rgb(0,0,0)" stroke-width="1" opacity="0.7843137254901961" d="M 270.5 151 L 273 152.5 L 271.5 152 L 270.5 151 Z " /><path fill="rgb(0,0,0)" stroke="rgb(0,0,0)" stroke-width="1" opacity="0.7843137254901961" d="M 260.5 152 L 257.5 156 L 260.5 152 Z " /><path fill="rgb(0,0,0)" stroke="rgb(0,0,0)" stroke-width="1" opacity="0.7843137254901961" d="M 124.5 154 L 122.5 157 L 124.5 154 Z " /><path fill="rgb(0,0,0)" stroke="rgb(0,0,0)" stroke-width="1" opacity="0.7843137254901961" d="M 409.5 155 L 411.5 158 L 409.5 155 Z " /><path fill="rgb(0,0,0)" stroke="rgb(0,0,0)" stroke-width="1" opacity="0.7843137254901961" d="M 384.5 158 L 388.5 163 L 384.5 158 Z " /><path fill="rgb(0,0,0)" stroke="rgb(0,0,0)" stroke-width="1" opacity="0.7843137254901961" d="M 120.5 159 L 119.5 161 L 120.5 159 Z " /><path fill="rgb(0,0,0)" stroke="rgb(0,0,0)" stroke-width="1" opacity="0.7843137254901961" d="M 412.5 159 L 413.5 161 L 412.5 159 Z " /><path fill="rgb(0,0,0)" stroke="rgb(0,0,0)" stroke-width="1" opacity="0.7843137254901961" d="M 118.5 162 L 117.5 164 L 118.5 162 Z " /><path fill="rgb(0,0,0)" stroke="rgb(0,0,0)" stroke-width="1" opacity="0.7843137254901961" d="M 415.5 163 L 416.5 165 L 415.5 163 Z " /><path fill="rgb(0,0,0)" stroke="rgb(0,0,0)" stroke-width="1" opacity="0.7843137254901961" d="M 143.5 164 L 141.5 167 L 143.5 164 Z " /><path fill="rgb(0,0,0)" stroke="rgb(0,0,0)" stroke-width="1" opacity="0.7843137254901961" d="M 116.5 165 L 115.5 167 L 116.5 165 Z " /><path fill="rgb(0,0,0)" stroke="rgb(0,0,0)" stroke-width="1" opacity="0.7843137254901961" d="M 391.5 166 L 393.5 169 L 391.5 166 Z " /><path fill="rgb(0,0,0)" stroke="rgb(0,0,0)" stroke-width="1" opacity="0.7843137254901961" d="M 417.5 166 L 418.5 168 L 417.5 166 Z " /><path fill="rgb(0,0,0)" stroke="rgb(0,0,0)" stroke-width="1" opacity="0.7843137254901961" d="M 114.5 168 L 113.5 170 L 114.5 168 Z " /><path fill="rgb(0,0,0)" stroke="rgb(0,0,0)" stroke-width="1" opacity="0.7843137254901961" d="M 139.5 169 L 138.5 171 L 139.5 169 Z " /><path fill="rgb(0,0,0)" stroke="rgb(0,0,0)" stroke-width="1" opacity="0.7843137254901961" d="M 394.5 170 L 396.5 173 L 394.5 170 Z " /><path fill="rgb(0,0,0)" stroke="rgb(0,0,0)" stroke-width="1" opacity="0.7843137254901961" d="M 136.5 173 L 135.5 175 L 136.5 173 Z " /><path fill="rgb(0,0,0)" stroke="rgb(0,0,0)" stroke-width="1" opacity="0.7843137254901961" d="M 397.5 174 L 398.5 176 L 397.5 174 Z " /><path fill="rgb(0,0,0)" stroke="rgb(0,0,0)" stroke-width="1" opacity="0.7843137254901961" d="M 134.5 176 L 133.5 178 L 134.5 176 Z " /><path fill="rgb(0,0,0)" stroke="rgb(0,0,0)" stroke-width="1" opacity="0.7843137254901961" d="M 399.5 177 L 400.5 179 L 399.5 177 Z " /><path fill="rgb(0,0,0)" stroke="rgb(0,0,0)" stroke-width="1" opacity="0.7843137254901961" d="M 108.5 178 L 107.5 180 L 108.5 178 Z " /><path fill="rgb(0,0,0)" stroke="rgb(0,0,0)" stroke-width="1" opacity="0.7843137254901961" d="M 132.5 179 L 131.5 181 L 132.5 179 Z " /><path fill="rgb(0,0,0)" stroke="rgb(0,0,0)" stroke-width="1" opacity="0.7843137254901961" d="M 401.5 180 L 402.5 182 L 401.5 180 Z " /><path fill="rgb(0,0,0)" stroke="rgb(0,0,0)" stroke-width="1" opacity="0.7843137254901961" d="M 404.5 185 L 405.5 187 L 404.5 185 Z " /><path fill="rgb(0,0,0)" stroke="rgb(0,0,0)" stroke-width="1" opacity="0.7843137254901961" d="M 125.5 191 L 124.5 193 L 125.5 191 Z " /><path fill="rgb(0,0,0)" stroke="rgb(0,0,0)" stroke-width="1" opacity="0.7843137254901961" d="M 423.5 233 L 424 235.5 L 423 235.5 L 423.5 233 Z " /><path fill="rgb(0,0,0)" stroke="rgb(0,0,0)" stroke-width="1" opacity="0.7843137254901961" d="M 445.5 236 L 446 238.5 L 445 238.5 L 445.5 236 Z " /><path fill="rgb(0,0,0)" stroke="rgb(0,0,0)" stroke-width="1" opacity="0.7843137254901961" d="M 87.5 237 L 88 240.5 L 87 240.5 L 87.5 237 Z " /><path fill="rgb(0,0,0)" stroke="rgb(0,0,0)" stroke-width="1" opacity="0.7843137254901961" d="M 424.5 238 L 425 240.5 L 424 240.5 L 424.5 238 Z " /><path fill="rgb(0,0,0)" stroke="rgb(0,0,0)" stroke-width="1" opacity="0.7843137254901961" d="M 108.5 240 L 109 242.5 L 108 242.5 L 108.5 240 Z " /><path fill="rgb(0,0,0)" stroke="rgb(0,0,0)" stroke-width="1" opacity="0.7843137254901961" d="M 446.5 243 L 447 246.5 L 446 246.5 L 446.5 243 Z " /><path fill="rgb(0,0,0)" stroke="rgb(0,0,0)" stroke-width="1" opacity="0.7843137254901961" d="M 86.5 244 L 87 248.5 L 86 248.5 L 86.5 244 Z " /><path fill="rgb(0,0,0)" stroke="rgb(0,0,0)" stroke-width="1" opacity="0.7843137254901961" d="M 425.5 245 L 426 247.5 L 425 247.5 L 425.5 245 Z " /><path fill="rgb(0,0,0)" stroke="rgb(0,0,0)" stroke-width="1" opacity="0.7843137254901961" d="M 107.5 247 L 108 250.5 L 107 250.5 L 107.5 247 Z " /><path fill="rgb(0,0,0)" stroke="rgb(0,0,0)" stroke-width="1" opacity="0.7843137254901961" d="M 447.5 252 L 448 262.5 L 447 262.5 L 447.5 252 Z " /><path fill="rgb(0,0,0)" stroke="rgb(0,0,0)" stroke-width="1" opacity="0.7843137254901961" d="M 426.5 253 L 427 263.5 L 426 263.5 L 426.5 253 Z " /><path fill="rgb(0,0,0)" stroke="rgb(0,0,0)" stroke-width="1" opacity="0.7843137254901961" d="M 85.5 255 L 86 277.5 L 85 277.5 L 85.5 255 Z " /><path fill="rgb(0,0,0)" stroke="rgb(0,0,0)" stroke-width="1" opacity="0.7843137254901961" d="M 106.5 258 L 107 274.5 L 106 274.5 L 106.5 258 Z " /><path fill="rgb(0,0,0)" stroke="rgb(0,0,0)" stroke-width="1" opacity="0.7843137254901961" d="M 275.5 272 L 208.5 340 L 275.5 272 Z " /><path fill="rgb(0,0,0)" stroke="rgb(0,0,0)" stroke-width="1" opacity="0.7843137254901961" d="M 428.5 272 L 431.5 276 L 428.5 272 Z " /><path fill="rgb(0,0,0)" stroke="rgb(0,0,0)" stroke-width="1" opacity="0.7843137254901961" d="M 445.5 273 L 444.5 275 L 445.5 273 Z " /><path fill="rgb(0,0,0)" stroke="rgb(0,0,0)" stroke-width="1" opacity="0.7843137254901961" d="M 107.5 282 L 108 285.5 L 107 285.5 L 107.5 282 Z " /><path fill="rgb(0,0,0)" stroke="rgb(0,0,0)" stroke-width="1" opacity="0.7843137254901961" d="M 86.5 284 L 87 288.5 L 86 288.5 L 86.5 284 Z " /><path fill="rgb(0,0,0)" stroke="rgb(0,0,0)" stroke-width="1" opacity="0.7843137254901961" d="M 347.5 288 L 350 288.5 L 347.5 289 L 347.5 288 Z " /><path fill="rgb(0,0,0)" stroke="rgb(0,0,0)" stroke-width="1" opacity="0.7843137254901961" d="M 406.5 288 L 409 288.5 L 406.5 289 L 406.5 288 Z " /><path fill="rgb(0,0,0)" stroke="rgb(0,0,0)" stroke-width="1" opacity="0.7843137254901961" d="M 108.5 290 L 109 292.5 L 108 292.5 L 108.5 290 Z " /><path fill="rgb(0,0,0)" stroke="rgb(0,0,0)" stroke-width="1" opacity="0.7843137254901961" d="M 340.5 291 L 339.5 293 L 340.5 291 Z " /><path fill="rgb(0,0,0)" stroke="rgb(0,0,0)" stroke-width="1" opacity="0.7843137254901961" d="M 87.5 293 L 88 295.5 L 87 295.5 L 87.5 293 Z " /><path fill="rgb(0,0,0)" stroke="rgb(0,0,0)" stroke-width="1" opacity="0.7843137254901961" d="M 415.5 295 L 416 297.5 L 415 297.5 L 415.5 295 Z " /><path fill="rgb(0,0,0)" stroke="rgb(0,0,0)" stroke-width="1" opacity="0.7843137254901961" d="M 109.5 296 L 110 298.5 L 109 298.5 L 109.5 296 Z " /><path fill="rgb(0,0,0)" stroke="rgb(0,0,0)" stroke-width="1" opacity="0.7843137254901961" d="M 88.5 299 L 89 301.5 L 88 301.5 L 88.5 299 Z " /><path fill="rgb(0,0,0)" stroke="rgb(0,0,0)" stroke-width="1" opacity="0.7843137254901961" d="M 413.5 305 L 412.5 307 L 413.5 305 Z " /><path fill="rgb(0,0,0)" stroke="rgb(0,0,0)" stroke-width="1" opacity="0.7843137254901961" d="M 90.5 308 L 91 310.5 L 90 310.5 L 90.5 308 Z " /><path fill="rgb(0,0,0)" stroke="rgb(0,0,0)" stroke-width="1" opacity="0.7843137254901961" d="M 194.5 337 L 195.5 339 L 194.5 337 Z " /><path fill="rgb(0,0,0)" stroke="rgb(0,0,0)" stroke-width="1" opacity="0.7843137254901961" d="M 411.5 339 L 412.5 341 L 411.5 339 Z " /><path fill="rgb(0,0,0)" stroke="rgb(0,0,0)" stroke-width="1" opacity="0.7843137254901961" d="M 339.5 347 L 340.5 349 L 339.5 347 Z " /><path fill="rgb(0,0,0)" stroke="rgb(0,0,0)" stroke-width="1" opacity="0.7843137254901961" d="M 415.5 347 L 416 349.5 L 415 349.5 L 415.5 347 Z " /><path fill="rgb(0,0,0)" stroke="rgb(0,0,0)" stroke-width="1" opacity="0.7843137254901961" d="M 129.5 349 L 130.5 351 L 129.5 349 Z " /><path fill="rgb(0,0,0)" stroke="rgb(0,0,0)" stroke-width="1" opacity="0.7843137254901961" d="M 347.5 351 L 350 351.5 L 347.5 352 L 347.5 351 Z " /><path fill="rgb(0,0,0)" stroke="rgb(0,0,0)" stroke-width="1" opacity="0.7843137254901961" d="M 109.5 357 L 110.5 359 L 109.5 357 Z " /><path fill="rgb(0,0,0)" stroke="rgb(0,0,0)" stroke-width="1" opacity="0.7843137254901961" d="M 135.5 358 L 136.5 360 L 135.5 358 Z " /><path fill="rgb(0,0,0)" stroke="rgb(0,0,0)" stroke-width="1" opacity="0.7843137254901961" d="M 137.5 361 L 138.5 363 L 137.5 361 Z " /><path fill="rgb(0,0,0)" stroke="rgb(0,0,0)" stroke-width="1" opacity="0.7843137254901961" d="M 114.5 365 L 115.5 367 L 114.5 365 Z " /><path fill="rgb(0,0,0)" stroke="rgb(0,0,0)" stroke-width="1" opacity="0.7843137254901961" d="M 140.5 365 L 142.5 368 L 140.5 365 Z " /><path fill="rgb(0,0,0)" stroke="rgb(0,0,0)" stroke-width="1" opacity="0.7843137254901961" d="M 116.5 368 L 117.5 370 L 116.5 368 Z " /><path fill="rgb(0,0,0)" stroke="rgb(0,0,0)" stroke-width="1" opacity="0.7843137254901961" d="M 145.5 371 L 150.5 377 L 145.5 371 Z " /><path fill="rgb(0,0,0)" stroke="rgb(0,0,0)" stroke-width="1" opacity="0.7843137254901961" d="M 339.5 373 L 395 373.5 L 339.5 374 L 339.5 373 Z " /><path fill="rgb(0,0,0)" stroke="rgb(0,0,0)" stroke-width="1" opacity="0.7843137254901961" d="M 336.5 374 L 335.5 376 L 336.5 374 Z " /><path fill="rgb(0,0,0)" stroke="rgb(0,0,0)" stroke-width="1" opacity="0.7843137254901961" d="M 121.5 375 L 123.5 378 L 121.5 375 Z " /><path fill="rgb(0,0,0)" stroke="rgb(0,0,0)" stroke-width="1" opacity="0.7843137254901961" d="M 415.5 375 L 416 377.5 L 415 377.5 L 415.5 375 Z " /><path fill="rgb(0,0,0)" stroke="rgb(0,0,0)" stroke-width="1" opacity="0.7843137254901961" d="M 125.5 380 L 127.5 383 L 125.5 380 Z " /><path fill="rgb(0,0,0)" stroke="rgb(0,0,0)" stroke-width="1" opacity="0.7843137254901961" d="M 413.5 382 L 414 383.5 L 412 384.5 L 413.5 382 Z " /><path fill="rgb(0,0,0)" stroke="rgb(0,0,0)" stroke-width="1" opacity="0.7843137254901961" d="M 157.5 383 L 162.5 389 L 157.5 383 Z " /><path fill="rgb(0,0,0)" stroke="rgb(0,0,0)" stroke-width="1" opacity="0.7843137254901961" d="M 130.5 386 L 139.5 396 L 130.5 386 Z " /><path fill="rgb(0,0,0)" stroke="rgb(0,0,0)" stroke-width="1" opacity="0.7843137254901961" d="M 411.5 386 L 408.5 390 L 411.5 386 Z " /><path fill="rgb(0,0,0)" stroke="rgb(0,0,0)" stroke-width="1" opacity="0.7843137254901961" d="M 165.5 390 L 167.5 393 L 165.5 390 Z " /><path fill="rgb(0,0,0)" stroke="rgb(0,0,0)" stroke-width="1" opacity="0.7843137254901961" d="M 335.5 392 L 336.5 394 L 335.5 392 Z " /><path fill="rgb(0,0,0)" stroke="rgb(0,0,0)" stroke-width="1" opacity="0.7843137254901961" d="M 170.5 394 L 171.5 396 L 170.5 394 Z " /><path fill="rgb(0,0,0)" stroke="rgb(0,0,0)" stroke-width="1" opacity="0.7843137254901961" d="M 339.5 394 L 398 394.5 L 339.5 395 L 339.5 394 Z " /><path fill="rgb(0,0,0)" stroke="rgb(0,0,0)" stroke-width="1" opacity="0.7843137254901961" d="M 141.5 397 L 147.5 404 L 141.5 397 Z " /><path fill="rgb(0,0,0)" stroke="rgb(0,0,0)" stroke-width="1" opacity="0.7843137254901961" d="M 174.5 397 L 175.5 399 L 174.5 397 Z " /><path fill="rgb(0,0,0)" stroke="rgb(0,0,0)" stroke-width="1" opacity="0.7843137254901961" d="M 177.5 399 L 178.5 401 L 177.5 399 Z " /><path fill="rgb(0,0,0)" stroke="rgb(0,0,0)" stroke-width="1" opacity="0.7843137254901961" d="M 185.5 404 L 186.5 406 L 185.5 404 Z " /><path fill="rgb(0,0,0)" stroke="rgb(0,0,0)" stroke-width="1" opacity="0.7843137254901961" d="M 150.5 405 L 153.5 409 L 150.5 405 Z " /><path fill="rgb(0,0,0)" stroke="rgb(0,0,0)" stroke-width="1" opacity="0.7843137254901961" d="M 156.5 410 L 157.5 412 L 156.5 410 Z " /><path fill="rgb(0,0,0)" stroke="rgb(0,0,0)" stroke-width="1" opacity="0.7843137254901961" d="M 159.5 412 L 161.5 415 L 159.5 412 Z " /><path fill="rgb(0,0,0)" stroke="rgb(0,0,0)" stroke-width="1" opacity="0.7843137254901961" d="M 163.5 415 L 164.5 417 L 163.5 415 Z " /><path fill="rgb(0,0,0)" stroke="rgb(0,0,0)" stroke-width="1" opacity="0.7843137254901961" d="M 166.5 417 L 167.5 419 L 166.5 417 Z " /><path fill="rgb(0,0,0)" stroke="rgb(0,0,0)" stroke-width="1" opacity="0.7843137254901961" d="M 340.5 418 L 341.5 420 L 340.5 418 Z " /><path fill="rgb(0,0,0)" stroke="rgb(0,0,0)" stroke-width="1" opacity="0.7843137254901961" d="M 169.5 419 L 170.5 421 L 169.5 419 Z " /><path fill="rgb(0,0,0)" stroke="rgb(0,0,0)" stroke-width="1" opacity="0.7843137254901961" d="M 174.5 422 L 175.5 424 L 174.5 422 Z " /><path fill="rgb(0,0,0)" stroke="rgb(0,0,0)" stroke-width="1" opacity="0.7843137254901961" d="M 342.5 422 L 343 425.5 L 342 425.5 L 342.5 422 Z " /><path fill="rgb(0,0,0)" stroke="rgb(0,0,0)" stroke-width="1" opacity="0.7843137254901961" d="M 233.5 423 L 236 423.5 L 233.5 424 L 233.5 423 Z " /><path fill="rgb(0,0,0)" stroke="rgb(0,0,0)" stroke-width="1" opacity="0.7843137254901961" d="M 297.5 423 L 300 423.5 L 297.5 424 L 297.5 423 Z " /><path fill="rgb(0,0,0)" stroke="rgb(0,0,0)" stroke-width="1" opacity="0.7843137254901961" d="M 239.5 424 L 242 424.5 L 239.5 425 L 239.5 424 Z " /><path fill="rgb(0,0,0)" stroke="rgb(0,0,0)" stroke-width="1" opacity="0.7843137254901961" d="M 292.5 424 L 295 424.5 L 292.5 425 L 292.5 424 Z " /><path fill="rgb(0,0,0)" stroke="rgb(0,0,0)" stroke-width="1" opacity="0.7843137254901961" d="M 245.5 425 L 249 425.5 L 245.5 426 L 245.5 425 Z " /><path fill="rgb(0,0,0)" stroke="rgb(0,0,0)" stroke-width="1" opacity="0.7843137254901961" d="M 284.5 425 L 288 425.5 L 284.5 426 L 284.5 425 Z " /><path fill="rgb(0,0,0)" stroke="rgb(0,0,0)" stroke-width="1" opacity="0.7843137254901961" d="M 254.5 426 L 279 426.5 L 254.5 427 L 254.5 426 Z " /><path fill="rgb(0,0,0)" stroke="rgb(0,0,0)" stroke-width="1" opacity="0.7843137254901961" d="M 340.5 430 L 338.5 433 L 340.5 430 Z " /><path fill="rgb(0,0,0)" stroke="rgb(0,0,0)" stroke-width="1" opacity="0.7843137254901961" d="M 231.5 444 L 234 444.5 L 231.5 445 L 231.5 444 Z " /><path fill="rgb(0,0,0)" stroke="rgb(0,0,0)" stroke-width="1" opacity="0.7843137254901961" d="M 236.5 445 L 239 445.5 L 236.5 446 L 236.5 445 Z " /><path fill="rgb(0,0,0)" stroke="rgb(0,0,0)" stroke-width="1" opacity="0.7843137254901961" d="M 294.5 445 L 297 445.5 L 294.5 446 L 294.5 445 Z " /><path fill="rgb(0,0,0)" stroke="rgb(0,0,0)" stroke-width="1" opacity="0.7843137254901961" d="M 243.5 446 L 247 446.5 L 243.5 447 L 243.5 446 Z " /><path fill="rgb(0,0,0)" stroke="rgb(0,0,0)" stroke-width="1" opacity="0.7843137254901961" d="M 286.5 446 L 290 446.5 L 286.5 447 L 286.5 446 Z " /><path fill="rgb(0,0,0)" stroke="rgb(0,0,0)" stroke-width="1" opacity="0.7843137254901961" d="M 253.5 447 L 263 447.5 L 253.5 448 L 253.5 447 Z " /><path fill="rgb(0,0,0)" stroke="rgb(0,0,0)" stroke-width="1" opacity="0.7843137254901961" d="M 270.5 447 L 281 447.5 L 270.5 448 L 270.5 447 Z " /><path fill="rgb(0,0,0)" stroke="rgb(0,0,0)" stroke-width="1" opacity="0" d="M 0 0 L 512 0 L 512 512 L 0 512 L 0 0 Z M 257 85 L 256 86 L 246 86 L 233 89 L 228 89 L 199 98 Q 168 111 145 132 Q 117 157 100 194 L 89 228 L 86 245 L 86 255 L 85 256 L 85 278 L 86 279 L 87 296 L 90 311 L 97 333 Q 109 364 130 387 Q 156 417 196 434 L 227 444 L 244 447 L 253 447 L 254 448 L 281 448 L 282 447 L 297 446 L 322 440 L 339 433 L 343 426 L 342 420 L 336 414 L 328 414 L 310 421 L 284 426 L 250 426 L 249 425 L 232 423 L 209 416 Q 178 404 157 383 Q 135 362 121 334 L 112 309 L 107 282 L 107 252 L 108 251 L 110 233 L 114 218 Q 125 186 144 164 Q 164 139 194 124 L 218 114 L 233 110 L 251 108 L 252 107 L 283 107 L 284 108 L 301 110 L 322 116 Q 353 128 376 149 Q 400 171 414 204 L 423 232 L 426 249 L 426 264 L 428 273 L 434 277 Q 442 279 445 275 L 448 270 L 448 253 L 447 252 L 446 237 L 438 206 Q 425 171 403 147 Q 377 117 340 100 Q 322 92 301 88 L 289 87 L 288 86 L 278 86 L 277 85 L 257 85 Z M 266 150 L 261 152 L 256 159 L 256 263 L 192 328 Q 191 335 194 338 L 199 341 Q 205 342 209 340 L 277 271 L 277 158 L 276 156 Q 274 150 266 150 Z M 348 288 L 341 291 Q 334 295 331 304 L 331 337 L 334 343 Q 338 350 348 352 L 395 352 L 395 373 L 340 373 L 337 374 L 331 381 L 332 390 L 340 395 L 398 395 L 409 390 Q 414 386 416 378 L 416 348 L 413 341 Q 409 334 401 331 L 352 331 L 352 309 L 410 309 L 413 307 L 416 302 L 415 294 L 409 288 L 348 288 Z " /><path fill="rgb(0,0,0)" stroke="rgb(0,0,0)" stroke-width="1" opacity="0.996078431372549" d="M 378.5 124 L 379.5 126 L 378.5 124 Z " /><path fill="rgb(0,0,0)" stroke="rgb(0,0,0)" stroke-width="1" opacity="0.996078431372549" d="M 153.5 125 L 152.5 127 L 153.5 125 Z " /><path fill="rgb(0,0,0)" stroke="rgb(0,0,0)" stroke-width="1" opacity="0.996078431372549" d="M 383.5 128 L 385.5 131 L 383.5 128 Z " /><path fill="rgb(0,0,0)" stroke="rgb(0,0,0)" stroke-width="1" opacity="0.996078431372549" d="M 147.5 130 L 144.5 134 L 147.5 130 Z " /><path fill="rgb(0,0,0)" stroke="rgb(0,0,0)" stroke-width="1" opacity="0.996078431372549" d="M 359.5 135 L 360.5 137 L 359.5 135 Z " /><path fill="rgb(0,0,0)" stroke="rgb(0,0,0)" stroke-width="1" opacity="0.996078431372549" d="M 172.5 136 L 171.5 138 L 172.5 136 Z " /><path fill="rgb(0,0,0)" stroke="rgb(0,0,0)" stroke-width="1" opacity="0.996078431372549" d="M 363.5 138 L 364.5 140 L 363.5 138 Z " /><path fill="rgb(0,0,0)" stroke="rgb(0,0,0)" stroke-width="1" opacity="0.996078431372549" d="M 168.5 139 L 167.5 141 L 168.5 139 Z " /><path fill="rgb(0,0,0)" stroke="rgb(0,0,0)" stroke-width="1" opacity="0.996078431372549" d="M 368.5 142 L 369.5 144 L 368.5 142 Z " /><path fill="rgb(0,0,0)" stroke="rgb(0,0,0)" stroke-width="1" opacity="0.996078431372549" d="M 163.5 143 L 161.5 146 L 163.5 143 Z " /><path fill="rgb(0,0,0)" stroke="rgb(0,0,0)" stroke-width="1" opacity="0.996078431372549" d="M 132.5 145 L 130.5 148 L 132.5 145 Z " /><path fill="rgb(0,0,0)" stroke="rgb(0,0,0)" stroke-width="1" opacity="0.996078431372549" d="M 374.5 147 L 384.5 158 L 374.5 147 Z " /><path fill="rgb(0,0,0)" stroke="rgb(0,0,0)" stroke-width="1" opacity="0.996078431372549" d="M 402.5 147 L 404.5 150 L 402.5 147 Z " /><path fill="rgb(0,0,0)" stroke="rgb(0,0,0)" stroke-width="1" opacity="0.996078431372549" d="M 126.5 152 L 125.5 154 L 126.5 152 Z " /><path fill="rgb(0,0,0)" stroke="rgb(0,0,0)" stroke-width="1" opacity="0.996078431372549" d="M 273.5 153 L 274.5 155 L 273.5 153 Z " /><path fill="rgb(0,0,0)" stroke="rgb(0,0,0)" stroke-width="1" opacity="0.996078431372549" d="M 407.5 153 L 408.5 155 L 407.5 153 Z " /><path fill="rgb(0,0,0)" stroke="rgb(0,0,0)" stroke-width="1" opacity="0.996078431372549" d="M 122.5 157 L 121.5 159 L 122.5 157 Z " /><path fill="rgb(0,0,0)" stroke="rgb(0,0,0)" stroke-width="1" opacity="0.996078431372549" d="M 145.5 161 L 143.5 164 L 145.5 161 Z " /><path fill="rgb(0,0,0)" stroke="rgb(0,0,0)" stroke-width="1" opacity="0.996078431372549" d="M 389.5 163 L 391.5 166 L 389.5 163 Z " /><path fill="rgb(0,0,0)" stroke="rgb(0,0,0)" stroke-width="1" opacity="0.996078431372549" d="M 140.5 167 L 139.5 169 L 140.5 167 Z " /><path fill="rgb(0,0,0)" stroke="rgb(0,0,0)" stroke-width="1" opacity="0.996078431372549" d="M 137.5 171 L 136.5 173 L 137.5 171 Z " /><path fill="rgb(0,0,0)" stroke="rgb(0,0,0)" stroke-width="1" opacity="0.996078431372549" d="M 255.5 263 L 194.5 325 L 255.5 263 Z " /><path fill="rgb(0,0,0)" stroke="rgb(0,0,0)" stroke-width="1" opacity="0.996078431372549" d="M 447.5 263 L 448 267.5 L 447 267.5 L 447.5 263 Z " /><path fill="rgb(0,0,0)" stroke="rgb(0,0,0)" stroke-width="1" opacity="0.996078431372549" d="M 443.5 274 L 442.5 276 L 443.5 274 Z " /><path fill="rgb(0,0,0)" stroke="rgb(0,0,0)" stroke-width="1" opacity="0.996078431372549" d="M 411.5 290 L 413.5 293 L 411.5 290 Z " /><path fill="rgb(0,0,0)" stroke="rgb(0,0,0)" stroke-width="1" opacity="0.996078431372549" d="M 338.5 293 L 335.5 297 L 338.5 293 Z " /><path fill="rgb(0,0,0)" stroke="rgb(0,0,0)" stroke-width="1" opacity="0.996078431372549" d="M 411.5 306 L 410.5 308 L 411.5 306 Z " /><path fill="rgb(0,0,0)" stroke="rgb(0,0,0)" stroke-width="1" opacity="0.996078431372549" d="M 192.5 329 L 193 331.5 L 192 331.5 L 192.5 329 Z " /><path fill="rgb(0,0,0)" stroke="rgb(0,0,0)" stroke-width="1" opacity="0.996078431372549" d="M 407.5 335 L 410.5 339 L 407.5 335 Z " /><path fill="rgb(0,0,0)" stroke="rgb(0,0,0)" stroke-width="1" opacity="0.996078431372549" d="M 335.5 343 L 338.5 347 L 335.5 343 Z " /><path fill="rgb(0,0,0)" stroke="rgb(0,0,0)" stroke-width="1" opacity="0.996078431372549" d="M 142.5 368 L 144.5 371 L 142.5 368 Z " /><path fill="rgb(0,0,0)" stroke="rgb(0,0,0)" stroke-width="1" opacity="0.996078431372549" d="M 120.5 373 L 121.5 375 L 120.5 373 Z " /><path fill="rgb(0,0,0)" stroke="rgb(0,0,0)" stroke-width="1" opacity="0.996078431372549" d="M 334.5 376 L 333.5 378 L 334.5 376 Z " /><path fill="rgb(0,0,0)" stroke="rgb(0,0,0)" stroke-width="1" opacity="0.996078431372549" d="M 150.5 377 L 156.5 384 L 150.5 377 Z " /><path fill="rgb(0,0,0)" stroke="rgb(0,0,0)" stroke-width="1" opacity="0.996078431372549" d="M 128.5 383 L 130.5 386 L 128.5 383 Z " /><path fill="rgb(0,0,0)" stroke="rgb(0,0,0)" stroke-width="1" opacity="0.996078431372549" d="M 163.5 389 L 164.5 391 L 163.5 389 Z " /><path fill="rgb(0,0,0)" stroke="rgb(0,0,0)" stroke-width="1" opacity="0.996078431372549" d="M 333.5 390 L 334.5 392 L 333.5 390 Z " /><path fill="rgb(0,0,0)" stroke="rgb(0,0,0)" stroke-width="1" opacity="0.996078431372549" d="M 168.5 393 L 169.5 395 L 168.5 393 Z " /><path fill="rgb(0,0,0)" stroke="rgb(0,0,0)" stroke-width="1" opacity="0.996078431372549" d="M 148.5 403 L 149.5 405 L 148.5 403 Z " /><path fill="rgb(0,0,0)" stroke="rgb(0,0,0)" stroke-width="1" opacity="0.996078431372549" d="M 154.5 408 L 155.5 410 L 154.5 408 Z " /><path fill="rgb(0,0,0)" stroke="rgb(0,0,0)" stroke-width="1" opacity="0.996078431372549" d="M 338.5 416 L 339.5 418 L 338.5 416 Z " /><path fill="rgb(0,0,0)" stroke="rgb(0,0,0)" stroke-width="1" opacity="0.996078431372549" d="M 263.5 447 L 267 447.5 L 263.5 448 L 263.5 447 Z " /><path fill="rgb(0,0,0)" stroke="rgb(0,0,0)" stroke-width="1" opacity="1" d="M 252.5 86 L 281.5 86 L 282.5 87 L 290.5 87 L 318.5 93 L 337.5 100 Q 376.1 116.9 402 146.5 Q 423.5 170 436 202.5 L 441 217.5 L 446 240.5 Q 444.3 246.8 447 248.5 L 447 270.5 L 445 274 Q 442 276.7 435.5 277 L 429 272.5 L 427 268.5 L 427 252.5 L 426 251.5 L 426 243.5 L 424 232.5 L 420 217.5 L 413 199.5 Q 398.5 168.5 374.5 147 Q 353.1 127.4 323.5 116 L 294.5 108 L 278.5 107 L 277.5 106 L 255.5 106 L 254.5 107 L 239.5 108 L 218.5 113 L 186.5 127 Q 161.2 141.7 143 163.5 Q 123.5 186.5 113 218.5 L 107 246.5 L 106 276.5 L 107 277.5 L 107 287.5 L 110 303.5 L 118 328.5 Q 132.3 361.2 156.5 384 Q 178.5 405 209.5 417 L 224.5 422 L 244.5 426 L 252.5 426 L 253.5 427 L 279.5 427 L 280.5 426 L 288.5 426 L 289.5 425 L 300.5 424 L 333.5 414 L 341 419.5 L 342 426.5 L 337.5 433 L 303.5 444 L 285.5 446 L 284.5 447 L 268.5 447 L 267.5 448 L 266.5 447 L 248.5 447 L 247.5 446 L 229.5 444 Q 208.2 439.3 190.5 431 Q 155.3 414.2 131 386.5 Q 105.6 358.9 93 318.5 L 88 297.5 L 87 283.5 L 86 282.5 L 86 250.5 L 87 249.5 L 88 235.5 L 93 214.5 L 100 195.5 Q 115.9 158.9 143.5 134 Q 164.9 113.9 193.5 101 L 218.5 92 L 252.5 86 Z " /><path fill="rgb(0,0,0)" stroke="rgb(0,0,0)" stroke-width="1" opacity="1" d="M 264.5 151 L 269.5 151 L 276 156.5 L 277 159.5 L 277 268.5 L 275 272.5 L 208.5 339 Q 206.2 341.7 200.5 341 L 195 337.5 Q 191.6 334.9 193 327.5 L 256 263.5 L 256 161.5 L 258 155.5 L 260.5 153 L 264.5 151 Z " /><path fill="rgb(0,0,0)" stroke="rgb(0,0,0)" stroke-width="1" opacity="1" d="M 352.5 288 L 404.5 288 Q 411.1 288.9 414 293.5 L 415 302.5 L 413 306 L 406.5 309 L 352 309 L 352 331 L 397.5 331 Q 407.5 333 412 340.5 Q 418.5 352 416 372.5 L 414 381.5 L 407.5 390 L 399.5 394 L 338.5 394 L 332 388.5 L 331 382.5 L 336.5 375 L 338.5 374 L 395 374 L 395 352 L 352.5 352 L 343.5 350 L 334 341.5 L 331 333.5 L 331 306.5 Q 333 296.5 340.5 292 L 343.5 290 L 352.5 288 Z " /></svg>