<svg width="512" height="512" version="1.1" xmlns="http://www.w3.org/2000/svg" desc="Created with imagetracer.js version 1.2.6" ><path fill="rgb(0,0,0)" stroke="rgb(0,0,0)" stroke-width="1" opacity="0" d="M 0 0 L 512 0 L 512 512 L 0 512 L 0 0 Z M 199 48 Q 182 51 171 60 L 156 77 L 152 85 L 144 111 L 143 112 L 68 112 Q 50 115 39 124 Q 21 137 16 164 L 16 413 L 19 426 L 28 442 Q 41 459 68 464 L 445 464 L 458 461 L 474 452 Q 491 439 496 413 L 496 164 L 493 151 L 484 135 Q 472 119 451 113 Q 446 114 445 112 L 370 112 L 368 111 L 360 85 L 352 71 Q 339 53 314 48 L 199 48 Z " /><path fill="rgb(0,0,0)" stroke="rgb(0,0,0)" stroke-width="1" opacity="0" d="M 202.5 80 L 309.5 80 Q 320 82.5 326 89.5 L 331 98.5 L 342 133.5 L 347.5 141 L 353.5 144 L 441.5 144 Q 453.3 146.2 459 154.5 L 464 166.5 L 464 409.5 Q 461.3 420.8 453.5 427 L 441.5 432 L 70.5 432 Q 58.6 429.9 53 421.5 L 48 409.5 L 48 166.5 Q 50 155.5 57.5 150 Q 62.3 145.3 70.5 144 L 158.5 144 L 168 137.5 L 181 98.5 L 189.5 86 L 202.5 80 Z M 245 160 L 244 161 L 232 162 L 212 168 Q 193 175 180 187 Q 160 203 148 227 L 140 248 L 136 269 L 136 292 L 140 313 Q 148 338 163 357 Q 176 372 194 383 Q 207 391 224 396 L 245 400 L 268 400 L 289 396 Q 314 388 333 373 Q 348 360 359 343 Q 367 329 372 313 L 376 292 L 376 269 L 372 248 Q 364 221 348 203 Q 330 181 303 169 L 289 164 L 275 161 Q 269 163 268 160 L 245 160 Z M 413 176 L 408 178 Q 402 181 400 189 Q 399 197 402 201 Q 405 206 413 208 Q 421 209 425 206 Q 430 203 432 196 Q 433 188 430 184 Q 426 175 413 176 Z " /><path fill="rgb(0,0,0)" stroke="rgb(0,0,0)" stroke-width="1" opacity="0" d="M 248.5 192 L 271.5 193 L 288.5 198 Q 308.7 206.3 322 221.5 Q 332 232.5 338 247.5 L 343 265.5 L 344 287.5 L 341 303.5 L 331 326.5 L 314.5 346 Q 303.5 356 288.5 362 L 270.5 367 L 248.5 368 L 232.5 365 L 209.5 355 L 190 338.5 Q 180 327.5 174 312.5 L 169 295.5 L 168 272.5 L 171 256.5 L 178 238.5 Q 186.1 223.6 198.5 213 Q 209.2 203.7 223.5 198 L 236.5 194 L 247.5 193 L 248.5 192 Z " /><path fill="rgb(0,0,0)" stroke="rgb(0,0,0)" stroke-width="1" opacity="0.8117647058823529" d="M 198.5 48 L 204 48.5 L 198.5 49 L 198.5 48 Z " /><path fill="rgb(0,0,0)" stroke="rgb(0,0,0)" stroke-width="1" opacity="0.8117647058823529" d="M 308.5 48 L 314 48.5 L 308.5 49 L 308.5 48 Z " /><path fill="rgb(0,0,0)" stroke="rgb(0,0,0)" stroke-width="1" opacity="0.8117647058823529" d="M 170.5 60 L 167.5 64 L 170.5 60 Z " /><path fill="rgb(0,0,0)" stroke="rgb(0,0,0)" stroke-width="1" opacity="0.8117647058823529" d="M 341.5 60 L 344.5 64 L 341.5 60 Z " /><path fill="rgb(0,0,0)" stroke="rgb(0,0,0)" stroke-width="1" opacity="0.8117647058823529" d="M 164.5 66 L 160.5 71 L 164.5 66 Z " /><path fill="rgb(0,0,0)" stroke="rgb(0,0,0)" stroke-width="1" opacity="0.8117647058823529" d="M 348.5 67 L 351.5 71 L 348.5 67 Z " /><path fill="rgb(0,0,0)" stroke="rgb(0,0,0)" stroke-width="1" opacity="0.8117647058823529" d="M 159.5 72 L 158.5 74 L 159.5 72 Z " /><path fill="rgb(0,0,0)" stroke="rgb(0,0,0)" stroke-width="1" opacity="0.8117647058823529" d="M 194.5 82 L 196 82.5 L 193.5 84 L 194.5 82 Z " /><path fill="rgb(0,0,0)" stroke="rgb(0,0,0)" stroke-width="1" opacity="0.8117647058823529" d="M 316.5 82 L 319 83.5 L 317.5 83 L 316.5 82 Z " /><path fill="rgb(0,0,0)" stroke="rgb(0,0,0)" stroke-width="1" opacity="0.8117647058823529" d="M 191.5 84 L 190.5 86 L 191.5 84 Z " /><path fill="rgb(0,0,0)" stroke="rgb(0,0,0)" stroke-width="1" opacity="0.8117647058823529" d="M 320.5 84 L 321.5 86 L 320.5 84 Z " /><path fill="rgb(0,0,0)" stroke="rgb(0,0,0)" stroke-width="1" opacity="0.8117647058823529" d="M 185.5 90 L 184.5 92 L 185.5 90 Z " /><path fill="rgb(0,0,0)" stroke="rgb(0,0,0)" stroke-width="1" opacity="0.8117647058823529" d="M 326.5 90 L 327.5 92 L 326.5 90 Z " /><path fill="rgb(0,0,0)" stroke="rgb(0,0,0)" stroke-width="1" opacity="0.8117647058823529" d="M 67.5 112 L 71 112.5 L 67.5 113 L 67.5 112 Z " /><path fill="rgb(0,0,0)" stroke="rgb(0,0,0)" stroke-width="1" opacity="0.8117647058823529" d="M 441.5 112 L 445 112.5 L 441.5 113 L 441.5 112 Z " /><path fill="rgb(0,0,0)" stroke="rgb(0,0,0)" stroke-width="1" opacity="0.8117647058823529" d="M 42.5 121 L 41.5 123 L 42.5 121 Z " /><path fill="rgb(0,0,0)" stroke="rgb(0,0,0)" stroke-width="1" opacity="0.8117647058823529" d="M 469.5 121 L 470.5 123 L 469.5 121 Z " /><path fill="rgb(0,0,0)" stroke="rgb(0,0,0)" stroke-width="1" opacity="0.8117647058823529" d="M 38.5 124 L 35.5 128 L 38.5 124 Z " /><path fill="rgb(0,0,0)" stroke="rgb(0,0,0)" stroke-width="1" opacity="0.8117647058823529" d="M 473.5 124 L 476.5 128 L 473.5 124 Z " /><path fill="rgb(0,0,0)" stroke="rgb(0,0,0)" stroke-width="1" opacity="0.8117647058823529" d="M 31.5 131 L 28.5 135 L 31.5 131 Z " /><path fill="rgb(0,0,0)" stroke="rgb(0,0,0)" stroke-width="1" opacity="0.8117647058823529" d="M 480.5 131 L 483.5 135 L 480.5 131 Z " /><path fill="rgb(0,0,0)" stroke="rgb(0,0,0)" stroke-width="1" opacity="0.8117647058823529" d="M 26.5 137 L 25.5 139 L 26.5 137 Z " /><path fill="rgb(0,0,0)" stroke="rgb(0,0,0)" stroke-width="1" opacity="0.8117647058823529" d="M 167.5 137 L 164.5 141 L 167.5 137 Z " /><path fill="rgb(0,0,0)" stroke="rgb(0,0,0)" stroke-width="1" opacity="0.8117647058823529" d="M 344.5 137 L 347.5 141 L 344.5 137 Z " /><path fill="rgb(0,0,0)" stroke="rgb(0,0,0)" stroke-width="1" opacity="0.8117647058823529" d="M 485.5 137 L 486.5 139 L 485.5 137 Z " /><path fill="rgb(0,0,0)" stroke="rgb(0,0,0)" stroke-width="1" opacity="0.8117647058823529" d="M 162.5 141 L 161.5 143 L 160 142.5 L 162.5 141 Z " /><path fill="rgb(0,0,0)" stroke="rgb(0,0,0)" stroke-width="1" opacity="0.8117647058823529" d="M 349.5 141 L 352 142.5 L 350.5 143 L 349.5 141 Z " /><path fill="rgb(0,0,0)" stroke="rgb(0,0,0)" stroke-width="1" opacity="0.8117647058823529" d="M 156.5 143 L 159 143.5 L 156.5 144 L 156.5 143 Z " /><path fill="rgb(0,0,0)" stroke="rgb(0,0,0)" stroke-width="1" opacity="0.8117647058823529" d="M 353.5 143 L 356 143.5 L 353.5 144 L 353.5 143 Z " /><path fill="rgb(0,0,0)" stroke="rgb(0,0,0)" stroke-width="1" opacity="0.8117647058823529" d="M 59.5 148 L 58.5 150 L 59.5 148 Z " /><path fill="rgb(0,0,0)" stroke="rgb(0,0,0)" stroke-width="1" opacity="0.8117647058823529" d="M 460.5 157 L 461.5 159 L 460.5 157 Z " /><path fill="rgb(0,0,0)" stroke="rgb(0,0,0)" stroke-width="1" opacity="0.8117647058823529" d="M 244.5 160 L 251 160.5 L 244.5 161 L 244.5 160 Z " /><path fill="rgb(0,0,0)" stroke="rgb(0,0,0)" stroke-width="1" opacity="0.8117647058823529" d="M 260.5 160 L 268 160.5 L 260.5 161 L 260.5 160 Z " /><path fill="rgb(0,0,0)" stroke="rgb(0,0,0)" stroke-width="1" opacity="0.8117647058823529" d="M 237.5 161 L 240 161.5 L 237.5 162 L 237.5 161 Z " /><path fill="rgb(0,0,0)" stroke="rgb(0,0,0)" stroke-width="1" opacity="0.8117647058823529" d="M 272.5 161 L 275 161.5 L 272.5 162 L 272.5 161 Z " /><path fill="rgb(0,0,0)" stroke="rgb(0,0,0)" stroke-width="1" opacity="0.8117647058823529" d="M 231.5 162 L 234 162.5 L 231.5 163 L 231.5 162 Z " /><path fill="rgb(0,0,0)" stroke="rgb(0,0,0)" stroke-width="1" opacity="0.8117647058823529" d="M 278.5 162 L 281 162.5 L 278.5 163 L 278.5 162 Z " /><path fill="rgb(0,0,0)" stroke="rgb(0,0,0)" stroke-width="1" opacity="0.8117647058823529" d="M 16.5 163 L 17 166.5 L 16 166.5 L 16.5 163 Z " /><path fill="rgb(0,0,0)" stroke="rgb(0,0,0)" stroke-width="1" opacity="0.8117647058823529" d="M 495.5 163 L 496 166.5 L 495 166.5 L 495.5 163 Z " /><path fill="rgb(0,0,0)" stroke="rgb(0,0,0)" stroke-width="1" opacity="0.8117647058823529" d="M 193.5 177 L 192.5 179 L 193.5 177 Z " /><path fill="rgb(0,0,0)" stroke="rgb(0,0,0)" stroke-width="1" opacity="0.8117647058823529" d="M 407.5 178 L 406.5 180 L 407.5 178 Z " /><path fill="rgb(0,0,0)" stroke="rgb(0,0,0)" stroke-width="1" opacity="0.8117647058823529" d="M 424.5 178 L 429.5 184 L 424.5 178 Z " /><path fill="rgb(0,0,0)" stroke="rgb(0,0,0)" stroke-width="1" opacity="0.8117647058823529" d="M 190.5 179 L 189.5 181 L 190.5 179 Z " /><path fill="rgb(0,0,0)" stroke="rgb(0,0,0)" stroke-width="1" opacity="0.8117647058823529" d="M 321.5 179 L 322.5 181 L 321.5 179 Z " /><path fill="rgb(0,0,0)" stroke="rgb(0,0,0)" stroke-width="1" opacity="0.8117647058823529" d="M 187.5 181 L 186.5 183 L 187.5 181 Z " /><path fill="rgb(0,0,0)" stroke="rgb(0,0,0)" stroke-width="1" opacity="0.8117647058823529" d="M 324.5 181 L 325.5 183 L 324.5 181 Z " /><path fill="rgb(0,0,0)" stroke="rgb(0,0,0)" stroke-width="1" opacity="0.8117647058823529" d="M 403.5 182 L 402.5 184 L 403.5 182 Z " /><path fill="rgb(0,0,0)" stroke="rgb(0,0,0)" stroke-width="1" opacity="0.8117647058823529" d="M 183.5 184 L 182.5 186 L 183.5 184 Z " /><path fill="rgb(0,0,0)" stroke="rgb(0,0,0)" stroke-width="1" opacity="0.8117647058823529" d="M 328.5 184 L 330.5 187 L 328.5 184 Z " /><path fill="rgb(0,0,0)" stroke="rgb(0,0,0)" stroke-width="1" opacity="0.8117647058823529" d="M 179.5 187 L 175.5 192 L 179.5 187 Z " /><path fill="rgb(0,0,0)" stroke="rgb(0,0,0)" stroke-width="1" opacity="0.8117647058823529" d="M 333.5 188 L 338.5 194 L 333.5 188 Z " /><path fill="rgb(0,0,0)" stroke="rgb(0,0,0)" stroke-width="1" opacity="0.8117647058823529" d="M 244.5 192 L 248 192.5 L 244.5 193 L 244.5 192 Z " /><path fill="rgb(0,0,0)" stroke="rgb(0,0,0)" stroke-width="1" opacity="0.8117647058823529" d="M 264.5 192 L 268 192.5 L 264.5 193 L 264.5 192 Z " /><path fill="rgb(0,0,0)" stroke="rgb(0,0,0)" stroke-width="1" opacity="0.8117647058823529" d="M 238.5 193 L 241 193.5 L 238.5 194 L 238.5 193 Z " /><path fill="rgb(0,0,0)" stroke="rgb(0,0,0)" stroke-width="1" opacity="0.8117647058823529" d="M 342.5 197 L 347.5 203 L 342.5 197 Z " /><path fill="rgb(0,0,0)" stroke="rgb(0,0,0)" stroke-width="1" opacity="0.8117647058823529" d="M 167.5 199 L 163.5 204 L 167.5 199 Z " /><path fill="rgb(0,0,0)" stroke="rgb(0,0,0)" stroke-width="1" opacity="0.8117647058823529" d="M 402.5 200 L 407.5 206 L 402.5 200 Z " /><path fill="rgb(0,0,0)" stroke="rgb(0,0,0)" stroke-width="1" opacity="0.8117647058823529" d="M 429.5 200 L 424.5 206 L 429.5 200 Z " /><path fill="rgb(0,0,0)" stroke="rgb(0,0,0)" stroke-width="1" opacity="0.8117647058823529" d="M 296.5 201 L 297.5 203 L 296.5 201 Z " /><path fill="rgb(0,0,0)" stroke="rgb(0,0,0)" stroke-width="1" opacity="0.8117647058823529" d="M 208.5 205 L 207.5 207 L 208.5 205 Z " /><path fill="rgb(0,0,0)" stroke="rgb(0,0,0)" stroke-width="1" opacity="0.8117647058823529" d="M 349.5 205 L 351.5 208 L 349.5 205 Z " /><path fill="rgb(0,0,0)" stroke="rgb(0,0,0)" stroke-width="1" opacity="0.8117647058823529" d="M 161.5 206 L 160.5 208 L 161.5 206 Z " /><path fill="rgb(0,0,0)" stroke="rgb(0,0,0)" stroke-width="1" opacity="0.8117647058823529" d="M 306.5 207 L 308.5 210 L 306.5 207 Z " /><path fill="rgb(0,0,0)" stroke="rgb(0,0,0)" stroke-width="1" opacity="0.8117647058823529" d="M 158.5 210 L 157.5 212 L 158.5 210 Z " /><path fill="rgb(0,0,0)" stroke="rgb(0,0,0)" stroke-width="1" opacity="0.8117647058823529" d="M 201.5 210 L 199.5 213 L 201.5 210 Z " /><path fill="rgb(0,0,0)" stroke="rgb(0,0,0)" stroke-width="1" opacity="0.8117647058823529" d="M 310.5 210 L 313.5 214 L 310.5 210 Z " /><path fill="rgb(0,0,0)" stroke="rgb(0,0,0)" stroke-width="1" opacity="0.8117647058823529" d="M 353.5 210 L 354.5 212 L 353.5 210 Z " /><path fill="rgb(0,0,0)" stroke="rgb(0,0,0)" stroke-width="1" opacity="0.8117647058823529" d="M 156.5 213 L 155.5 215 L 156.5 213 Z " /><path fill="rgb(0,0,0)" stroke="rgb(0,0,0)" stroke-width="1" opacity="0.8117647058823529" d="M 355.5 213 L 356.5 215 L 355.5 213 Z " /><path fill="rgb(0,0,0)" stroke="rgb(0,0,0)" stroke-width="1" opacity="0.8117647058823529" d="M 154.5 216 L 153.5 218 L 154.5 216 Z " /><path fill="rgb(0,0,0)" stroke="rgb(0,0,0)" stroke-width="1" opacity="0.8117647058823529" d="M 322.5 222 L 325.5 226 L 322.5 222 Z " /><path fill="rgb(0,0,0)" stroke="rgb(0,0,0)" stroke-width="1" opacity="0.8117647058823529" d="M 188.5 223 L 186.5 226 L 188.5 223 Z " /><path fill="rgb(0,0,0)" stroke="rgb(0,0,0)" stroke-width="1" opacity="0.8117647058823529" d="M 149.5 225 L 149 226.5 L 148.5 228 L 148 226.5 L 149.5 225 Z " /><path fill="rgb(0,0,0)" stroke="rgb(0,0,0)" stroke-width="1" opacity="0.8117647058823529" d="M 326.5 227 L 328.5 230 L 326.5 227 Z " /><path fill="rgb(0,0,0)" stroke="rgb(0,0,0)" stroke-width="1" opacity="0.8117647058823529" d="M 184.5 228 L 183.5 230 L 184.5 228 Z " /><path fill="rgb(0,0,0)" stroke="rgb(0,0,0)" stroke-width="1" opacity="0.8117647058823529" d="M 182.5 231 L 181.5 233 L 182.5 231 Z " /><path fill="rgb(0,0,0)" stroke="rgb(0,0,0)" stroke-width="1" opacity="0.8117647058823529" d="M 329.5 231 L 330.5 233 L 329.5 231 Z " /><path fill="rgb(0,0,0)" stroke="rgb(0,0,0)" stroke-width="1" opacity="0.8117647058823529" d="M 333.5 238 L 336 242.5 L 335 242.5 L 333.5 238 Z " /><path fill="rgb(0,0,0)" stroke="rgb(0,0,0)" stroke-width="1" opacity="0.8117647058823529" d="M 138.5 255 L 139 257.5 L 138 257.5 L 138.5 255 Z " /><path fill="rgb(0,0,0)" stroke="rgb(0,0,0)" stroke-width="1" opacity="0.8117647058823529" d="M 373.5 255 L 374 257.5 L 373 257.5 L 373.5 255 Z " /><path fill="rgb(0,0,0)" stroke="rgb(0,0,0)" stroke-width="1" opacity="0.8117647058823529" d="M 137.5 260 L 138 263.5 L 137 263.5 L 137.5 260 Z " /><path fill="rgb(0,0,0)" stroke="rgb(0,0,0)" stroke-width="1" opacity="0.8117647058823529" d="M 374.5 261 L 375 263.5 L 374 263.5 L 374.5 261 Z " /><path fill="rgb(0,0,0)" stroke="rgb(0,0,0)" stroke-width="1" opacity="0.8117647058823529" d="M 169.5 262 L 170 264.5 L 169 264.5 L 169.5 262 Z " /><path fill="rgb(0,0,0)" stroke="rgb(0,0,0)" stroke-width="1" opacity="0.8117647058823529" d="M 342.5 262 L 343 264.5 L 342 264.5 L 342.5 262 Z " /><path fill="rgb(0,0,0)" stroke="rgb(0,0,0)" stroke-width="1" opacity="0.8117647058823529" d="M 136.5 268 L 137 275.5 L 136 275.5 L 136.5 268 Z " /><path fill="rgb(0,0,0)" stroke="rgb(0,0,0)" stroke-width="1" opacity="0.8117647058823529" d="M 168.5 268 L 169 271.5 L 168 271.5 L 168.5 268 Z " /><path fill="rgb(0,0,0)" stroke="rgb(0,0,0)" stroke-width="1" opacity="0.8117647058823529" d="M 343.5 268 L 344 271.5 L 343 271.5 L 343.5 268 Z " /><path fill="rgb(0,0,0)" stroke="rgb(0,0,0)" stroke-width="1" opacity="0.8117647058823529" d="M 375.5 268 L 376 276.5 L 375 276.5 L 375.5 268 Z " /><path fill="rgb(0,0,0)" stroke="rgb(0,0,0)" stroke-width="1" opacity="0.8117647058823529" d="M 136.5 284 L 137 291.5 L 136 291.5 L 136.5 284 Z " /><path fill="rgb(0,0,0)" stroke="rgb(0,0,0)" stroke-width="1" opacity="0.8117647058823529" d="M 375.5 284 L 376 291.5 L 375 291.5 L 375.5 284 Z " /><path fill="rgb(0,0,0)" stroke="rgb(0,0,0)" stroke-width="1" opacity="0.8117647058823529" d="M 168.5 288 L 169 291.5 L 168 291.5 L 168.5 288 Z " /><path fill="rgb(0,0,0)" stroke="rgb(0,0,0)" stroke-width="1" opacity="0.8117647058823529" d="M 343.5 288 L 344 291.5 L 343 291.5 L 343.5 288 Z " /><path fill="rgb(0,0,0)" stroke="rgb(0,0,0)" stroke-width="1" opacity="0.8117647058823529" d="M 342.5 295 L 343 297.5 L 342 297.5 L 342.5 295 Z " /><path fill="rgb(0,0,0)" stroke="rgb(0,0,0)" stroke-width="1" opacity="0.8117647058823529" d="M 137.5 296 L 138 298.5 L 137 298.5 L 137.5 296 Z " /><path fill="rgb(0,0,0)" stroke="rgb(0,0,0)" stroke-width="1" opacity="0.8117647058823529" d="M 374.5 296 L 375 298.5 L 374 298.5 L 374.5 296 Z " /><path fill="rgb(0,0,0)" stroke="rgb(0,0,0)" stroke-width="1" opacity="0.8117647058823529" d="M 138.5 302 L 139 304.5 L 138 304.5 L 138.5 302 Z " /><path fill="rgb(0,0,0)" stroke="rgb(0,0,0)" stroke-width="1" opacity="0.8117647058823529" d="M 373.5 302 L 374 304.5 L 373 304.5 L 373.5 302 Z " /><path fill="rgb(0,0,0)" stroke="rgb(0,0,0)" stroke-width="1" opacity="0.8117647058823529" d="M 335.5 317 L 336 318.5 L 333.5 322 L 334 320.5 L 335.5 317 Z " /><path fill="rgb(0,0,0)" stroke="rgb(0,0,0)" stroke-width="1" opacity="0.8117647058823529" d="M 177.5 320 L 178.5 322 L 177.5 320 Z " /><path fill="rgb(0,0,0)" stroke="rgb(0,0,0)" stroke-width="1" opacity="0.8117647058823529" d="M 183.5 330 L 185.5 333 L 183.5 330 Z " /><path fill="rgb(0,0,0)" stroke="rgb(0,0,0)" stroke-width="1" opacity="0.8117647058823529" d="M 327.5 331 L 326.5 333 L 327.5 331 Z " /><path fill="rgb(0,0,0)" stroke="rgb(0,0,0)" stroke-width="1" opacity="0.8117647058823529" d="M 148.5 332 L 150 334.5 L 148 333.5 L 148.5 332 Z " /><path fill="rgb(0,0,0)" stroke="rgb(0,0,0)" stroke-width="1" opacity="0.8117647058823529" d="M 186.5 334 L 189.5 338 L 186.5 334 Z " /><path fill="rgb(0,0,0)" stroke="rgb(0,0,0)" stroke-width="1" opacity="0.8117647058823529" d="M 325.5 334 L 322.5 338 L 325.5 334 Z " /><path fill="rgb(0,0,0)" stroke="rgb(0,0,0)" stroke-width="1" opacity="0.8117647058823529" d="M 153.5 342 L 154.5 344 L 153.5 342 Z " /><path fill="rgb(0,0,0)" stroke="rgb(0,0,0)" stroke-width="1" opacity="0.8117647058823529" d="M 358.5 342 L 357.5 344 L 358.5 342 Z " /><path fill="rgb(0,0,0)" stroke="rgb(0,0,0)" stroke-width="1" opacity="0.8117647058823529" d="M 155.5 345 L 156.5 347 L 155.5 345 Z " /><path fill="rgb(0,0,0)" stroke="rgb(0,0,0)" stroke-width="1" opacity="0.8117647058823529" d="M 356.5 345 L 355.5 347 L 356.5 345 Z " /><path fill="rgb(0,0,0)" stroke="rgb(0,0,0)" stroke-width="1" opacity="0.8117647058823529" d="M 198.5 346 L 201.5 350 L 198.5 346 Z " /><path fill="rgb(0,0,0)" stroke="rgb(0,0,0)" stroke-width="1" opacity="0.8117647058823529" d="M 313.5 346 L 310.5 350 L 313.5 346 Z " /><path fill="rgb(0,0,0)" stroke="rgb(0,0,0)" stroke-width="1" opacity="0.8117647058823529" d="M 157.5 348 L 158.5 350 L 157.5 348 Z " /><path fill="rgb(0,0,0)" stroke="rgb(0,0,0)" stroke-width="1" opacity="0.8117647058823529" d="M 354.5 348 L 353.5 350 L 354.5 348 Z " /><path fill="rgb(0,0,0)" stroke="rgb(0,0,0)" stroke-width="1" opacity="0.8117647058823529" d="M 203.5 350 L 204.5 352 L 203.5 350 Z " /><path fill="rgb(0,0,0)" stroke="rgb(0,0,0)" stroke-width="1" opacity="0.8117647058823529" d="M 308.5 350 L 307.5 352 L 308.5 350 Z " /><path fill="rgb(0,0,0)" stroke="rgb(0,0,0)" stroke-width="1" opacity="0.8117647058823529" d="M 160.5 352 L 161.5 354 L 160.5 352 Z " /><path fill="rgb(0,0,0)" stroke="rgb(0,0,0)" stroke-width="1" opacity="0.8117647058823529" d="M 351.5 352 L 350.5 354 L 351.5 352 Z " /><path fill="rgb(0,0,0)" stroke="rgb(0,0,0)" stroke-width="1" opacity="0.8117647058823529" d="M 163.5 356 L 167.5 361 L 163.5 356 Z " /><path fill="rgb(0,0,0)" stroke="rgb(0,0,0)" stroke-width="1" opacity="0.8117647058823529" d="M 348.5 356 L 343.5 362 L 348.5 356 Z " /><path fill="rgb(0,0,0)" stroke="rgb(0,0,0)" stroke-width="1" opacity="0.8117647058823529" d="M 214.5 357 L 219 359.5 L 217.5 360 L 214.5 357 Z " /><path fill="rgb(0,0,0)" stroke="rgb(0,0,0)" stroke-width="1" opacity="0.8117647058823529" d="M 297.5 357 L 296.5 359 L 293.5 360 L 293.5 359 L 297.5 357 Z " /><path fill="rgb(0,0,0)" stroke="rgb(0,0,0)" stroke-width="1" opacity="0.8117647058823529" d="M 238.5 366 L 241 366.5 L 238.5 367 L 238.5 366 Z " /><path fill="rgb(0,0,0)" stroke="rgb(0,0,0)" stroke-width="1" opacity="0.8117647058823529" d="M 271.5 366 L 274 366.5 L 271.5 367 L 271.5 366 Z " /><path fill="rgb(0,0,0)" stroke="rgb(0,0,0)" stroke-width="1" opacity="0.8117647058823529" d="M 244.5 367 L 248 367.5 L 244.5 368 L 244.5 367 Z " /><path fill="rgb(0,0,0)" stroke="rgb(0,0,0)" stroke-width="1" opacity="0.8117647058823529" d="M 264.5 367 L 268 367.5 L 264.5 368 L 264.5 367 Z " /><path fill="rgb(0,0,0)" stroke="rgb(0,0,0)" stroke-width="1" opacity="0.8117647058823529" d="M 337.5 367 L 332.5 373 L 337.5 367 Z " /><path fill="rgb(0,0,0)" stroke="rgb(0,0,0)" stroke-width="1" opacity="0.8117647058823529" d="M 175.5 368 L 179.5 373 L 175.5 368 Z " /><path fill="rgb(0,0,0)" stroke="rgb(0,0,0)" stroke-width="1" opacity="0.8117647058823529" d="M 182.5 374 L 183.5 376 L 182.5 374 Z " /><path fill="rgb(0,0,0)" stroke="rgb(0,0,0)" stroke-width="1" opacity="0.8117647058823529" d="M 329.5 374 L 328.5 376 L 329.5 374 Z " /><path fill="rgb(0,0,0)" stroke="rgb(0,0,0)" stroke-width="1" opacity="0.8117647058823529" d="M 186.5 377 L 187.5 379 L 186.5 377 Z " /><path fill="rgb(0,0,0)" stroke="rgb(0,0,0)" stroke-width="1" opacity="0.8117647058823529" d="M 325.5 377 L 324.5 379 L 325.5 377 Z " /><path fill="rgb(0,0,0)" stroke="rgb(0,0,0)" stroke-width="1" opacity="0.8117647058823529" d="M 189.5 379 L 190.5 381 L 189.5 379 Z " /><path fill="rgb(0,0,0)" stroke="rgb(0,0,0)" stroke-width="1" opacity="0.8117647058823529" d="M 322.5 379 L 321.5 381 L 322.5 379 Z " /><path fill="rgb(0,0,0)" stroke="rgb(0,0,0)" stroke-width="1" opacity="0.8117647058823529" d="M 192.5 381 L 193.5 383 L 192.5 381 Z " /><path fill="rgb(0,0,0)" stroke="rgb(0,0,0)" stroke-width="1" opacity="0.8117647058823529" d="M 319.5 381 L 318.5 383 L 319.5 381 Z " /><path fill="rgb(0,0,0)" stroke="rgb(0,0,0)" stroke-width="1" opacity="0.8117647058823529" d="M 231.5 397 L 234 397.5 L 231.5 398 L 231.5 397 Z " /><path fill="rgb(0,0,0)" stroke="rgb(0,0,0)" stroke-width="1" opacity="0.8117647058823529" d="M 278.5 397 L 281 397.5 L 278.5 398 L 278.5 397 Z " /><path fill="rgb(0,0,0)" stroke="rgb(0,0,0)" stroke-width="1" opacity="0.8117647058823529" d="M 237.5 398 L 240 398.5 L 237.5 399 L 237.5 398 Z " /><path fill="rgb(0,0,0)" stroke="rgb(0,0,0)" stroke-width="1" opacity="0.8117647058823529" d="M 272.5 398 L 275 398.5 L 272.5 399 L 272.5 398 Z " /><path fill="rgb(0,0,0)" stroke="rgb(0,0,0)" stroke-width="1" opacity="0.8117647058823529" d="M 244.5 399 L 252 399.5 L 244.5 400 L 244.5 399 Z " /><path fill="rgb(0,0,0)" stroke="rgb(0,0,0)" stroke-width="1" opacity="0.8117647058823529" d="M 260.5 399 L 268 399.5 L 260.5 400 L 260.5 399 Z " /><path fill="rgb(0,0,0)" stroke="rgb(0,0,0)" stroke-width="1" opacity="0.8117647058823529" d="M 16.5 409 L 17 412.5 L 16 412.5 L 16.5 409 Z " /><path fill="rgb(0,0,0)" stroke="rgb(0,0,0)" stroke-width="1" opacity="0.8117647058823529" d="M 495.5 409 L 496 412.5 L 495 412.5 L 495.5 409 Z " /><path fill="rgb(0,0,0)" stroke="rgb(0,0,0)" stroke-width="1" opacity="0.8117647058823529" d="M 461.5 416 L 462 417.5 L 460 418.5 L 461.5 416 Z " /><path fill="rgb(0,0,0)" stroke="rgb(0,0,0)" stroke-width="1" opacity="0.8117647058823529" d="M 459.5 420 L 458.5 422 L 459.5 420 Z " /><path fill="rgb(0,0,0)" stroke="rgb(0,0,0)" stroke-width="1" opacity="0.8117647058823529" d="M 58.5 426 L 59.5 428 L 58.5 426 Z " /><path fill="rgb(0,0,0)" stroke="rgb(0,0,0)" stroke-width="1" opacity="0.8117647058823529" d="M 61.5 428 L 62.5 430 L 61.5 428 Z " /><path fill="rgb(0,0,0)" stroke="rgb(0,0,0)" stroke-width="1" opacity="0.8117647058823529" d="M 450.5 428 L 449.5 430 L 448 429.5 L 450.5 428 Z " /><path fill="rgb(0,0,0)" stroke="rgb(0,0,0)" stroke-width="1" opacity="0.8117647058823529" d="M 25.5 437 L 26.5 439 L 25.5 437 Z " /><path fill="rgb(0,0,0)" stroke="rgb(0,0,0)" stroke-width="1" opacity="0.8117647058823529" d="M 486.5 437 L 485.5 439 L 486.5 437 Z " /><path fill="rgb(0,0,0)" stroke="rgb(0,0,0)" stroke-width="1" opacity="0.8117647058823529" d="M 28.5 441 L 31.5 445 L 28.5 441 Z " /><path fill="rgb(0,0,0)" stroke="rgb(0,0,0)" stroke-width="1" opacity="0.8117647058823529" d="M 483.5 441 L 480.5 445 L 483.5 441 Z " /><path fill="rgb(0,0,0)" stroke="rgb(0,0,0)" stroke-width="1" opacity="0.8117647058823529" d="M 35.5 448 L 38.5 452 L 35.5 448 Z " /><path fill="rgb(0,0,0)" stroke="rgb(0,0,0)" stroke-width="1" opacity="0.8117647058823529" d="M 476.5 448 L 473.5 452 L 476.5 448 Z " /><path fill="rgb(0,0,0)" stroke="rgb(0,0,0)" stroke-width="1" opacity="0.8117647058823529" d="M 41.5 453 L 42.5 455 L 41.5 453 Z " /><path fill="rgb(0,0,0)" stroke="rgb(0,0,0)" stroke-width="1" opacity="0.8117647058823529" d="M 470.5 453 L 469.5 455 L 470.5 453 Z " /><path fill="rgb(0,0,0)" stroke="rgb(0,0,0)" stroke-width="1" opacity="0.8117647058823529" d="M 67.5 463 L 71 463.5 L 67.5 464 L 67.5 463 Z " /><path fill="rgb(0,0,0)" stroke="rgb(0,0,0)" stroke-width="1" opacity="0.8117647058823529" d="M 441.5 463 L 445 463.5 L 441.5 464 L 441.5 463 Z " /><path fill="rgb(0,0,0)" stroke="rgb(0,0,0)" stroke-width="1" opacity="1" d="M 204.5 48 L 307.5 48 L 308.5 49 L 316.5 49 Q 336.3 53.7 348 66.5 Q 355.6 74.4 360 85.5 L 368 112 L 440.5 112 Q 442.2 114.7 448.5 113 Q 468.3 117.7 480 130.5 Q 487.6 138.4 492 149.5 L 496 167.5 L 496 408.5 L 492 426.5 Q 486.9 439.4 477.5 448 Q 469.6 455.6 458.5 460 L 440.5 464 L 71.5 464 L 53.5 460 Q 40.6 454.9 32 445.5 Q 24.4 437.6 20 426.5 L 16 408.5 L 16 167.5 L 20 149.5 Q 25.1 136.6 34.5 128 Q 45.7 117.2 63.5 113 Q 69.7 114.7 71.5 112 L 144 112 L 153 83.5 Q 157.8 71.8 166.5 64 Q 174.4 56.4 185.5 52 L 195.5 49 L 203.5 49 L 204.5 48 Z M 201 80 L 192 84 Q 184 89 181 98 L 168 137 Q 164 143 156 144 L 69 144 L 63 146 L 55 151 L 50 159 L 48 165 L 48 412 L 50 418 L 55 425 L 63 430 L 69 432 L 444 432 L 450 430 L 457 425 L 462 418 L 464 412 L 464 165 L 462 159 L 457 151 L 450 146 L 444 144 L 357 144 L 349 141 L 342 133 L 331 98 L 328 92 Q 322 83 312 80 L 201 80 Z " /><path fill="rgb(0,0,0)" stroke="rgb(0,0,0)" stroke-width="1" opacity="1" d="M 251.5 160 L 277.5 162 L 301.5 169 Q 325.4 179.1 342 196.5 Q 359.5 214 369 239.5 L 375 264.5 L 376 283.5 L 375 284.5 L 375 295.5 L 373 306.5 L 367 325.5 Q 356.6 350.1 338.5 367 Q 321.2 383.7 296.5 393 L 271.5 399 L 252.5 400 L 251.5 399 L 240.5 399 L 229.5 397 L 210.5 391 Q 185.3 380.2 168 361.5 Q 152 344.5 143 320.5 L 137 295.5 L 136 276.5 L 137 275.5 L 137 264.5 L 139 253.5 L 145 234.5 Q 155.8 209.3 174.5 192 Q 189.7 177.7 210.5 169 L 229.5 163 L 240.5 161 L 250.5 161 L 251.5 160 Z M 245 192 L 231 195 L 218 200 L 209 205 L 193 217 L 183 230 L 176 242 L 171 255 L 168 269 L 168 292 L 171 306 Q 176 322 186 335 Q 198 350 216 359 L 231 365 L 245 368 L 268 368 L 282 365 Q 298 360 311 350 Q 326 338 335 321 L 341 306 L 344 292 L 344 269 L 341 255 Q 336 238 326 226 Q 312 206 288 197 L 268 192 L 245 192 Z " /><path fill="rgb(0,0,0)" stroke="rgb(0,0,0)" stroke-width="1" opacity="1" d="M 414.5 176 Q 426.1 176.4 430 184.5 L 432 193.5 Q 430.4 202.4 423.5 206 L 414.5 208 Q 405.6 206.4 402 199.5 L 400 190.5 Q 401.3 183.8 405.5 180 L 414.5 176 Z " /></svg>