<svg width="512" height="512" version="1.1" xmlns="http://www.w3.org/2000/svg" desc="Created with imagetracer.js version 1.2.6" ><path fill="rgb(0,0,0)" stroke="rgb(0,0,0)" stroke-width="1" opacity="0" d="M 0 0 L 512 0 L 512 188.5 L 511 188.5 L 511 182.5 L 508 170.5 L 500 152.5 Q 490.6 136.4 476.5 125 Q 463.1 113.9 444.5 108 L 421.5 104 L 383.5 104 L 375 98.5 L 361 72.5 L 347.5 58 L 325.5 45 L 304.5 40 L 207.5 40 L 192.5 43 L 174.5 51 Q 163.2 57.7 155 67.5 L 147 78.5 L 139 95.5 L 135.5 100 L 128.5 104 L 90.5 104 L 89.5 105 L 80.5 105 L 64.5 109 Q 37.4 118.9 21 139.5 Q 4.4 157.9 0.5 189 L 0 0 Z " /><path fill="rgb(0,0,0)" stroke="rgb(0,0,0)" stroke-width="1" opacity="0" d="M 211.5 70 L 300.5 70 Q 302 72.5 307.5 71 Q 326.2 75.8 336 89.5 L 348 112.5 L 359.5 125 Q 367.3 131.3 378.5 134 L 386.5 134 L 387.5 135 L 427.5 135 L 432.5 136 Q 453.5 142 466 156.5 Q 473.5 165 478 176.5 L 482 193.5 L 482 383.5 L 480 393.5 L 474 408.5 Q 467.8 419.3 458.5 427 L 439.5 438 L 421.5 442 L 90.5 442 L 89.5 441 L 78.5 440 L 60.5 432 L 45 418.5 L 35 402.5 L 30 383.5 L 30 193.5 L 32 182.5 L 36 171.5 Q 41.6 160.1 50.5 152 Q 61.9 140.9 79.5 136 L 84.5 135 L 124.5 135 L 125.5 134 L 133.5 134 Q 152.3 129.3 162 115.5 L 172 95.5 L 185.5 80 L 195.5 74 L 211.5 70 Z M 242 153 L 225 156 L 205 163 Q 185 172 170 186 Q 150 203 139 229 L 131 253 L 130 264 L 129 265 L 129 275 L 120 267 L 115 265 Q 107 264 104 267 Q 97 270 96 279 L 98 288 L 132 322 L 132 323 L 140 327 Q 149 328 154 324 L 187 291 L 191 283 Q 192 276 189 273 Q 186 267 179 265 Q 171 264 168 267 L 159 275 L 160 262 L 165 245 Q 171 229 181 218 Q 203 190 245 183 L 268 183 L 292 189 L 308 197 L 327 213 L 335 216 L 345 213 Q 350 209 351 202 L 348 192 Q 328 170 298 159 L 272 153 L 242 153 Z M 365 233 L 361 235 L 323 273 L 321 278 L 321 283 L 325 291 L 333 295 Q 341 296 345 293 L 353 286 L 351 304 L 347 316 Q 341 331 331 343 Q 310 369 270 377 L 243 377 L 223 372 L 208 365 L 182 345 Q 171 343 167 348 L 164 351 L 161 359 L 164 369 Q 182 388 209 399 L 229 405 L 240 407 L 250 407 L 251 408 L 262 408 L 263 407 L 279 406 L 304 399 Q 325 390 341 376 Q 362 357 374 330 L 381 308 L 383 297 L 383 285 L 397 295 Q 405 296 409 293 Q 415 290 416 282 L 414 273 L 377 235 Q 373 232 365 233 Z " /><path fill="rgb(0,0,0)" stroke="rgb(0,0,0)" stroke-width="1" opacity="0" d="M 0.5 387 L 2 398.5 L 7 413.5 Q 15.3 432.7 29.5 446 Q 41.8 457.7 58.5 465 L 70.5 469 L 86.5 472 L 425.5 472 L 426.5 471 L 437.5 470 L 453.5 465 Q 472.7 456.7 486 442.5 Q 497.9 430.4 505 413.5 L 510 398.5 L 511.5 387 L 512 512 L 0.5 512 L 0 511.5 L 0.5 387 Z " /><path fill="rgb(0,0,0)" stroke="rgb(0,0,0)" stroke-width="1" opacity="0.796078431372549" d="M 207.5 40 L 305 40.5 L 207.5 41 L 207.5 40 Z " /><path fill="rgb(0,0,0)" stroke="rgb(0,0,0)" stroke-width="1" opacity="0.796078431372549" d="M 200.5 41 L 203 41.5 L 200.5 42 L 200.5 41 Z " /><path fill="rgb(0,0,0)" stroke="rgb(0,0,0)" stroke-width="1" opacity="0.796078431372549" d="M 309.5 41 L 312 41.5 L 309.5 42 L 309.5 41 Z " /><path fill="rgb(0,0,0)" stroke="rgb(0,0,0)" stroke-width="1" opacity="0.796078431372549" d="M 174.5 51 L 173.5 53 L 174.5 51 Z " /><path fill="rgb(0,0,0)" stroke="rgb(0,0,0)" stroke-width="1" opacity="0.796078431372549" d="M 171.5 53 L 170.5 55 L 171.5 53 Z " /><path fill="rgb(0,0,0)" stroke="rgb(0,0,0)" stroke-width="1" opacity="0.796078431372549" d="M 340.5 53 L 341.5 55 L 340.5 53 Z " /><path fill="rgb(0,0,0)" stroke="rgb(0,0,0)" stroke-width="1" opacity="0.796078431372549" d="M 168.5 55 L 167.5 57 L 168.5 55 Z " /><path fill="rgb(0,0,0)" stroke="rgb(0,0,0)" stroke-width="1" opacity="0.796078431372549" d="M 343.5 55 L 344.5 57 L 343.5 55 Z " /><path fill="rgb(0,0,0)" stroke="rgb(0,0,0)" stroke-width="1" opacity="0.796078431372549" d="M 164.5 58 L 155.5 68 L 164.5 58 Z " /><path fill="rgb(0,0,0)" stroke="rgb(0,0,0)" stroke-width="1" opacity="0.796078431372549" d="M 347.5 58 L 356.5 68 L 347.5 58 Z " /><path fill="rgb(0,0,0)" stroke="rgb(0,0,0)" stroke-width="1" opacity="0.796078431372549" d="M 207.5 70 L 211 70.5 L 207.5 71 L 207.5 70 Z " /><path fill="rgb(0,0,0)" stroke="rgb(0,0,0)" stroke-width="1" opacity="0.796078431372549" d="M 301.5 70 L 305 70.5 L 301.5 71 L 301.5 70 Z " /><path fill="rgb(0,0,0)" stroke="rgb(0,0,0)" stroke-width="1" opacity="0.796078431372549" d="M 358.5 70 L 360.5 73 L 358.5 70 Z " /><path fill="rgb(0,0,0)" stroke="rgb(0,0,0)" stroke-width="1" opacity="0.796078431372549" d="M 152.5 71 L 151.5 73 L 152.5 71 Z " /><path fill="rgb(0,0,0)" stroke="rgb(0,0,0)" stroke-width="1" opacity="0.796078431372549" d="M 150.5 74 L 149.5 76 L 150.5 74 Z " /><path fill="rgb(0,0,0)" stroke="rgb(0,0,0)" stroke-width="1" opacity="0.796078431372549" d="M 361.5 74 L 362.5 76 L 361.5 74 Z " /><path fill="rgb(0,0,0)" stroke="rgb(0,0,0)" stroke-width="1" opacity="0.796078431372549" d="M 190.5 76 L 189.5 78 L 190.5 76 Z " /><path fill="rgb(0,0,0)" stroke="rgb(0,0,0)" stroke-width="1" opacity="0.796078431372549" d="M 321.5 76 L 322.5 78 L 321.5 76 Z " /><path fill="rgb(0,0,0)" stroke="rgb(0,0,0)" stroke-width="1" opacity="0.796078431372549" d="M 148.5 77 L 147.5 79 L 148.5 77 Z " /><path fill="rgb(0,0,0)" stroke="rgb(0,0,0)" stroke-width="1" opacity="0.796078431372549" d="M 363.5 77 L 364.5 79 L 363.5 77 Z " /><path fill="rgb(0,0,0)" stroke="rgb(0,0,0)" stroke-width="1" opacity="0.796078431372549" d="M 187.5 78 L 186.5 80 L 187.5 78 Z " /><path fill="rgb(0,0,0)" stroke="rgb(0,0,0)" stroke-width="1" opacity="0.796078431372549" d="M 324.5 78 L 325.5 80 L 324.5 78 Z " /><path fill="rgb(0,0,0)" stroke="rgb(0,0,0)" stroke-width="1" opacity="0.796078431372549" d="M 183.5 81 L 177.5 88 L 183.5 81 Z " /><path fill="rgb(0,0,0)" stroke="rgb(0,0,0)" stroke-width="1" opacity="0.796078431372549" d="M 328.5 81 L 334.5 88 L 328.5 81 Z " /><path fill="rgb(0,0,0)" stroke="rgb(0,0,0)" stroke-width="1" opacity="0.796078431372549" d="M 175.5 90 L 174.5 92 L 175.5 90 Z " /><path fill="rgb(0,0,0)" stroke="rgb(0,0,0)" stroke-width="1" opacity="0.796078431372549" d="M 336.5 90 L 337.5 92 L 336.5 90 Z " /><path fill="rgb(0,0,0)" stroke="rgb(0,0,0)" stroke-width="1" opacity="0.796078431372549" d="M 173.5 93 L 172.5 95 L 173.5 93 Z " /><path fill="rgb(0,0,0)" stroke="rgb(0,0,0)" stroke-width="1" opacity="0.796078431372549" d="M 338.5 93 L 339.5 95 L 338.5 93 Z " /><path fill="rgb(0,0,0)" stroke="rgb(0,0,0)" stroke-width="1" opacity="0.796078431372549" d="M 138.5 96 L 137.5 98 L 138.5 96 Z " /><path fill="rgb(0,0,0)" stroke="rgb(0,0,0)" stroke-width="1" opacity="0.796078431372549" d="M 373.5 96 L 374.5 98 L 373.5 96 Z " /><path fill="rgb(0,0,0)" stroke="rgb(0,0,0)" stroke-width="1" opacity="0.796078431372549" d="M 134.5 100 L 133.5 102 L 134.5 100 Z " /><path fill="rgb(0,0,0)" stroke="rgb(0,0,0)" stroke-width="1" opacity="0.796078431372549" d="M 377.5 100 L 378.5 102 L 377.5 100 Z " /><path fill="rgb(0,0,0)" stroke="rgb(0,0,0)" stroke-width="1" opacity="0.796078431372549" d="M 90.5 104 L 127 104.5 L 90.5 105 L 90.5 104 Z " /><path fill="rgb(0,0,0)" stroke="rgb(0,0,0)" stroke-width="1" opacity="0.796078431372549" d="M 385.5 104 L 422 104.5 L 385.5 105 L 385.5 104 Z " /><path fill="rgb(0,0,0)" stroke="rgb(0,0,0)" stroke-width="1" opacity="0.796078431372549" d="M 80.5 105 L 84 105.5 L 80.5 106 L 80.5 105 Z " /><path fill="rgb(0,0,0)" stroke="rgb(0,0,0)" stroke-width="1" opacity="0.796078431372549" d="M 428.5 105 L 432 105.5 L 428.5 106 L 428.5 105 Z " /><path fill="rgb(0,0,0)" stroke="rgb(0,0,0)" stroke-width="1" opacity="0.796078431372549" d="M 75.5 106 L 78 106.5 L 75.5 107 L 75.5 106 Z " /><path fill="rgb(0,0,0)" stroke="rgb(0,0,0)" stroke-width="1" opacity="0.796078431372549" d="M 434.5 106 L 437 106.5 L 434.5 107 L 434.5 106 Z " /><path fill="rgb(0,0,0)" stroke="rgb(0,0,0)" stroke-width="1" opacity="0.796078431372549" d="M 163.5 112 L 162.5 114 L 163.5 112 Z " /><path fill="rgb(0,0,0)" stroke="rgb(0,0,0)" stroke-width="1" opacity="0.796078431372549" d="M 348.5 112 L 349.5 114 L 348.5 112 Z " /><path fill="rgb(0,0,0)" stroke="rgb(0,0,0)" stroke-width="1" opacity="0.796078431372549" d="M 456.5 113 L 461 115.5 L 459.5 115 Q 455.7 114.7 456.5 113 Z " /><path fill="rgb(0,0,0)" stroke="rgb(0,0,0)" stroke-width="1" opacity="0.796078431372549" d="M 52.5 114 L 51.5 116 L 49.5 117 L 50.5 115 L 52.5 114 Z " /><path fill="rgb(0,0,0)" stroke="rgb(0,0,0)" stroke-width="1" opacity="0.796078431372549" d="M 161.5 115 L 158.5 119 L 161.5 115 Z " /><path fill="rgb(0,0,0)" stroke="rgb(0,0,0)" stroke-width="1" opacity="0.796078431372549" d="M 350.5 115 L 353.5 119 L 350.5 115 Z " /><path fill="rgb(0,0,0)" stroke="rgb(0,0,0)" stroke-width="1" opacity="0.796078431372549" d="M 45.5 118 L 44.5 120 L 45.5 118 Z " /><path fill="rgb(0,0,0)" stroke="rgb(0,0,0)" stroke-width="1" opacity="0.796078431372549" d="M 466.5 118 L 467.5 120 L 466.5 118 Z " /><path fill="rgb(0,0,0)" stroke="rgb(0,0,0)" stroke-width="1" opacity="0.796078431372549" d="M 42.5 120 L 41.5 122 L 42.5 120 Z " /><path fill="rgb(0,0,0)" stroke="rgb(0,0,0)" stroke-width="1" opacity="0.796078431372549" d="M 469.5 120 L 470.5 122 L 469.5 120 Z " /><path fill="rgb(0,0,0)" stroke="rgb(0,0,0)" stroke-width="1" opacity="0.796078431372549" d="M 39.5 122 L 38.5 124 L 39.5 122 Z " /><path fill="rgb(0,0,0)" stroke="rgb(0,0,0)" stroke-width="1" opacity="0.796078431372549" d="M 154.5 122 L 152.5 125 L 154.5 122 Z " /><path fill="rgb(0,0,0)" stroke="rgb(0,0,0)" stroke-width="1" opacity="0.796078431372549" d="M 357.5 122 L 359.5 125 L 357.5 122 Z " /><path fill="rgb(0,0,0)" stroke="rgb(0,0,0)" stroke-width="1" opacity="0.796078431372549" d="M 472.5 122 L 473.5 124 L 472.5 122 Z " /><path fill="rgb(0,0,0)" stroke="rgb(0,0,0)" stroke-width="1" opacity="0.796078431372549" d="M 35.5 125 L 32.5 129 L 35.5 125 Z " /><path fill="rgb(0,0,0)" stroke="rgb(0,0,0)" stroke-width="1" opacity="0.796078431372549" d="M 476.5 125 L 479.5 129 L 476.5 125 Z " /><path fill="rgb(0,0,0)" stroke="rgb(0,0,0)" stroke-width="1" opacity="0.796078431372549" d="M 149.5 126 L 148.5 128 L 149.5 126 Z " /><path fill="rgb(0,0,0)" stroke="rgb(0,0,0)" stroke-width="1" opacity="0.796078431372549" d="M 362.5 126 L 363.5 128 L 362.5 126 Z " /><path fill="rgb(0,0,0)" stroke="rgb(0,0,0)" stroke-width="1" opacity="0.796078431372549" d="M 131.5 133 L 134 133.5 L 131.5 134 L 131.5 133 Z " /><path fill="rgb(0,0,0)" stroke="rgb(0,0,0)" stroke-width="1" opacity="0.796078431372549" d="M 378.5 133 L 381 133.5 L 378.5 134 L 378.5 133 Z " /><path fill="rgb(0,0,0)" stroke="rgb(0,0,0)" stroke-width="1" opacity="0.796078431372549" d="M 88.5 134 L 125 134.5 L 88.5 135 L 88.5 134 Z " /><path fill="rgb(0,0,0)" stroke="rgb(0,0,0)" stroke-width="1" opacity="0.796078431372549" d="M 387.5 134 L 424 134.5 L 387.5 135 L 387.5 134 Z " /><path fill="rgb(0,0,0)" stroke="rgb(0,0,0)" stroke-width="1" opacity="0.796078431372549" d="M 24.5 136 L 21.5 140 L 24.5 136 Z " /><path fill="rgb(0,0,0)" stroke="rgb(0,0,0)" stroke-width="1" opacity="0.796078431372549" d="M 487.5 136 L 490.5 140 L 487.5 136 Z " /><path fill="rgb(0,0,0)" stroke="rgb(0,0,0)" stroke-width="1" opacity="0.796078431372549" d="M 19.5 142 L 18.5 144 L 19.5 142 Z " /><path fill="rgb(0,0,0)" stroke="rgb(0,0,0)" stroke-width="1" opacity="0.796078431372549" d="M 492.5 142 L 493.5 144 L 492.5 142 Z " /><path fill="rgb(0,0,0)" stroke="rgb(0,0,0)" stroke-width="1" opacity="0.796078431372549" d="M 61.5 143 L 60.5 145 L 61.5 143 Z " /><path fill="rgb(0,0,0)" stroke="rgb(0,0,0)" stroke-width="1" opacity="0.796078431372549" d="M 450.5 143 L 451.5 145 L 450.5 143 Z " /><path fill="rgb(0,0,0)" stroke="rgb(0,0,0)" stroke-width="1" opacity="0.796078431372549" d="M 58.5 145 L 57.5 147 L 58.5 145 Z " /><path fill="rgb(0,0,0)" stroke="rgb(0,0,0)" stroke-width="1" opacity="0.796078431372549" d="M 453.5 145 L 454.5 147 L 453.5 145 Z " /><path fill="rgb(0,0,0)" stroke="rgb(0,0,0)" stroke-width="1" opacity="0.796078431372549" d="M 16.5 146 L 15.5 148 L 16.5 146 Z " /><path fill="rgb(0,0,0)" stroke="rgb(0,0,0)" stroke-width="1" opacity="0.796078431372549" d="M 495.5 146 L 496.5 148 L 495.5 146 Z " /><path fill="rgb(0,0,0)" stroke="rgb(0,0,0)" stroke-width="1" opacity="0.796078431372549" d="M 54.5 148 L 51.5 152 L 54.5 148 Z " /><path fill="rgb(0,0,0)" stroke="rgb(0,0,0)" stroke-width="1" opacity="0.796078431372549" d="M 457.5 148 L 460.5 152 L 457.5 148 Z " /><path fill="rgb(0,0,0)" stroke="rgb(0,0,0)" stroke-width="1" opacity="0.796078431372549" d="M 13.5 151 L 12.5 153 L 13.5 151 Z " /><path fill="rgb(0,0,0)" stroke="rgb(0,0,0)" stroke-width="1" opacity="0.796078431372549" d="M 498.5 151 L 499.5 153 L 498.5 151 Z " /><path fill="rgb(0,0,0)" stroke="rgb(0,0,0)" stroke-width="1" opacity="0.796078431372549" d="M 241.5 153 L 245 153.5 L 241.5 154 L 241.5 153 Z " /><path fill="rgb(0,0,0)" stroke="rgb(0,0,0)" stroke-width="1" opacity="0.796078431372549" d="M 267.5 153 L 272 153.5 L 267.5 154 L 267.5 153 Z " /><path fill="rgb(0,0,0)" stroke="rgb(0,0,0)" stroke-width="1" opacity="0.796078431372549" d="M 234.5 154 L 237 154.5 L 234.5 155 L 234.5 154 Z " /><path fill="rgb(0,0,0)" stroke="rgb(0,0,0)" stroke-width="1" opacity="0.796078431372549" d="M 275.5 154 L 278 154.5 L 275.5 155 L 275.5 154 Z " /><path fill="rgb(0,0,0)" stroke="rgb(0,0,0)" stroke-width="1" opacity="0.796078431372549" d="M 46.5 156 L 43.5 160 L 46.5 156 Z " /><path fill="rgb(0,0,0)" stroke="rgb(0,0,0)" stroke-width="1" opacity="0.796078431372549" d="M 224.5 156 L 227 156.5 L 224.5 157 L 224.5 156 Z " /><path fill="rgb(0,0,0)" stroke="rgb(0,0,0)" stroke-width="1" opacity="0.796078431372549" d="M 466.5 157 L 468.5 160 L 466.5 157 Z " /><path fill="rgb(0,0,0)" stroke="rgb(0,0,0)" stroke-width="1" opacity="0.796078431372549" d="M 38.5 167 L 38 168.5 L 36.5 171 L 37 169.5 L 38.5 167 Z " /><path fill="rgb(0,0,0)" stroke="rgb(0,0,0)" stroke-width="1" opacity="0.796078431372549" d="M 194.5 168 L 193.5 170 L 194.5 168 Z " /><path fill="rgb(0,0,0)" stroke="rgb(0,0,0)" stroke-width="1" opacity="0.796078431372549" d="M 319.5 169 L 320.5 171 L 319.5 169 Z " /><path fill="rgb(0,0,0)" stroke="rgb(0,0,0)" stroke-width="1" opacity="0.796078431372549" d="M 474.5 169 L 476 171.5 L 475 171.5 L 474.5 169 Z " /><path fill="rgb(0,0,0)" stroke="rgb(0,0,0)" stroke-width="1" opacity="0.796078431372549" d="M 189.5 171 L 188.5 173 L 189.5 171 Z " /><path fill="rgb(0,0,0)" stroke="rgb(0,0,0)" stroke-width="1" opacity="0.796078431372549" d="M 324.5 172 L 325.5 174 L 324.5 172 Z " /><path fill="rgb(0,0,0)" stroke="rgb(0,0,0)" stroke-width="1" opacity="0.796078431372549" d="M 327.5 174 L 328.5 176 L 327.5 174 Z " /><path fill="rgb(0,0,0)" stroke="rgb(0,0,0)" stroke-width="1" opacity="0.796078431372549" d="M 183.5 175 L 182.5 177 L 183.5 175 Z " /><path fill="rgb(0,0,0)" stroke="rgb(0,0,0)" stroke-width="1" opacity="0.796078431372549" d="M 180.5 177 L 179.5 179 L 180.5 177 Z " /><path fill="rgb(0,0,0)" stroke="rgb(0,0,0)" stroke-width="1" opacity="0.796078431372549" d="M 331.5 177 L 332.5 179 L 331.5 177 Z " /><path fill="rgb(0,0,0)" stroke="rgb(0,0,0)" stroke-width="1" opacity="0.796078431372549" d="M 176.5 180 L 173.5 184 L 176.5 180 Z " /><path fill="rgb(0,0,0)" stroke="rgb(0,0,0)" stroke-width="1" opacity="0.796078431372549" d="M 335.5 180 L 338.5 184 L 335.5 180 Z " /><path fill="rgb(0,0,0)" stroke="rgb(0,0,0)" stroke-width="1" opacity="0.796078431372549" d="M 1.5 182 L 2 184.5 L 1 184.5 L 1.5 182 Z " /><path fill="rgb(0,0,0)" stroke="rgb(0,0,0)" stroke-width="1" opacity="0.796078431372549" d="M 249.5 182 L 263 182.5 L 249.5 183 L 249.5 182 Z " /><path fill="rgb(0,0,0)" stroke="rgb(0,0,0)" stroke-width="1" opacity="0.796078431372549" d="M 510.5 182 L 511 184.5 L 510 184.5 L 510.5 182 Z " /><path fill="rgb(0,0,0)" stroke="rgb(0,0,0)" stroke-width="1" opacity="0.796078431372549" d="M 240.5 183 L 244 183.5 L 240.5 184 L 240.5 183 Z " /><path fill="rgb(0,0,0)" stroke="rgb(0,0,0)" stroke-width="1" opacity="0.796078431372549" d="M 268.5 183 L 272 183.5 L 268.5 184 L 268.5 183 Z " /><path fill="rgb(0,0,0)" stroke="rgb(0,0,0)" stroke-width="1" opacity="0.796078431372549" d="M 235.5 184 L 238 184.5 L 235.5 185 L 235.5 184 Z " /><path fill="rgb(0,0,0)" stroke="rgb(0,0,0)" stroke-width="1" opacity="0.796078431372549" d="M 341.5 185 L 347.5 192 L 341.5 185 Z " /><path fill="rgb(0,0,0)" stroke="rgb(0,0,0)" stroke-width="1" opacity="0.796078431372549" d="M 169.5 186 L 162.5 194 L 169.5 186 Z " /><path fill="rgb(0,0,0)" stroke="rgb(0,0,0)" stroke-width="1" opacity="0.796078431372549" d="M 0.5 189 L 1 195.5 L 0 195.5 L 0.5 189 Z " /><path fill="rgb(0,0,0)" stroke="rgb(0,0,0)" stroke-width="1" opacity="0.796078431372549" d="M 30.5 189 L 31 192.5 L 30 192.5 L 30.5 189 Z " /><path fill="rgb(0,0,0)" stroke="rgb(0,0,0)" stroke-width="1" opacity="0.796078431372549" d="M 481.5 189 L 482 192.5 L 481 192.5 L 481.5 189 Z " /><path fill="rgb(0,0,0)" stroke="rgb(0,0,0)" stroke-width="1" opacity="0.796078431372549" d="M 511.5 189 L 512 195.5 L 511 195.5 L 511.5 189 Z " /><path fill="rgb(0,0,0)" stroke="rgb(0,0,0)" stroke-width="1" opacity="0.796078431372549" d="M 214.5 191 L 216 191.5 L 209.5 195 L 210.5 193 L 214.5 191 Z " /><path fill="rgb(0,0,0)" stroke="rgb(0,0,0)" stroke-width="1" opacity="0.796078431372549" d="M 301.5 193 L 302.5 195 L 301.5 193 Z " /><path fill="rgb(0,0,0)" stroke="rgb(0,0,0)" stroke-width="1" opacity="0.796078431372549" d="M 159.5 197 L 156.5 201 L 159.5 197 Z " /><path fill="rgb(0,0,0)" stroke="rgb(0,0,0)" stroke-width="1" opacity="0.796078431372549" d="M 202.5 198 L 201.5 200 L 202.5 198 Z " /><path fill="rgb(0,0,0)" stroke="rgb(0,0,0)" stroke-width="1" opacity="0.796078431372549" d="M 350.5 199 L 351 201.5 L 350 201.5 L 350.5 199 Z " /><path fill="rgb(0,0,0)" stroke="rgb(0,0,0)" stroke-width="1" opacity="0.796078431372549" d="M 199.5 200 L 198.5 202 L 199.5 200 Z " /><path fill="rgb(0,0,0)" stroke="rgb(0,0,0)" stroke-width="1" opacity="0.796078431372549" d="M 312.5 200 L 313.5 202 L 312.5 200 Z " /><path fill="rgb(0,0,0)" stroke="rgb(0,0,0)" stroke-width="1" opacity="0.796078431372549" d="M 196.5 202 L 193.5 206 L 196.5 202 Z " /><path fill="rgb(0,0,0)" stroke="rgb(0,0,0)" stroke-width="1" opacity="0.796078431372549" d="M 315.5 202 L 317.5 205 L 315.5 202 Z " /><path fill="rgb(0,0,0)" stroke="rgb(0,0,0)" stroke-width="1" opacity="0.796078431372549" d="M 154.5 203 L 153.5 205 L 154.5 203 Z " /><path fill="rgb(0,0,0)" stroke="rgb(0,0,0)" stroke-width="1" opacity="0.796078431372549" d="M 190.5 207 L 183.5 215 L 190.5 207 Z " /><path fill="rgb(0,0,0)" stroke="rgb(0,0,0)" stroke-width="1" opacity="0.796078431372549" d="M 321.5 207 L 326.5 213 L 321.5 207 Z " /><path fill="rgb(0,0,0)" stroke="rgb(0,0,0)" stroke-width="1" opacity="0.796078431372549" d="M 347.5 209 L 344.5 213 L 347.5 209 Z " /><path fill="rgb(0,0,0)" stroke="rgb(0,0,0)" stroke-width="1" opacity="0.796078431372549" d="M 146.5 215 L 145.5 217 L 146.5 215 Z " /><path fill="rgb(0,0,0)" stroke="rgb(0,0,0)" stroke-width="1" opacity="0.796078431372549" d="M 334.5 215 L 337 215.5 L 334.5 216 L 334.5 215 Z " /><path fill="rgb(0,0,0)" stroke="rgb(0,0,0)" stroke-width="1" opacity="0.796078431372549" d="M 180.5 218 L 178.5 221 L 180.5 218 Z " /><path fill="rgb(0,0,0)" stroke="rgb(0,0,0)" stroke-width="1" opacity="0.796078431372549" d="M 177.5 222 L 176.5 224 L 177.5 222 Z " /><path fill="rgb(0,0,0)" stroke="rgb(0,0,0)" stroke-width="1" opacity="0.796078431372549" d="M 170.5 233 L 169.5 235 L 170.5 233 Z " /><path fill="rgb(0,0,0)" stroke="rgb(0,0,0)" stroke-width="1" opacity="0.796078431372549" d="M 364.5 233 L 367 233.5 L 364.5 234 L 364.5 233 Z " /><path fill="rgb(0,0,0)" stroke="rgb(0,0,0)" stroke-width="1" opacity="0.796078431372549" d="M 370.5 233 L 373 233.5 L 370.5 234 L 370.5 233 Z " /><path fill="rgb(0,0,0)" stroke="rgb(0,0,0)" stroke-width="1" opacity="0.796078431372549" d="M 131.5 252 L 132 254.5 L 131 254.5 L 131.5 252 Z " /><path fill="rgb(0,0,0)" stroke="rgb(0,0,0)" stroke-width="1" opacity="0.796078431372549" d="M 130.5 257 L 131 259.5 L 130 259.5 L 130.5 257 Z " /><path fill="rgb(0,0,0)" stroke="rgb(0,0,0)" stroke-width="1" opacity="0.796078431372549" d="M 129.5 264 L 130 267.5 L 129 267.5 L 129.5 264 Z " /><path fill="rgb(0,0,0)" stroke="rgb(0,0,0)" stroke-width="1" opacity="0.796078431372549" d="M 159.5 264 L 160 266.5 L 159 266.5 L 159.5 264 Z " /><path fill="rgb(0,0,0)" stroke="rgb(0,0,0)" stroke-width="1" opacity="0.796078431372549" d="M 108.5 265 L 115 265.5 L 108.5 266 L 108.5 265 Z " /><path fill="rgb(0,0,0)" stroke="rgb(0,0,0)" stroke-width="1" opacity="0.796078431372549" d="M 172.5 265 L 179 265.5 L 172.5 266 L 172.5 265 Z " /><path fill="rgb(0,0,0)" stroke="rgb(0,0,0)" stroke-width="1" opacity="0.796078431372549" d="M 103.5 267 L 102.5 269 L 103.5 267 Z " /><path fill="rgb(0,0,0)" stroke="rgb(0,0,0)" stroke-width="1" opacity="0.796078431372549" d="M 119.5 267 L 129 275.5 L 127.5 276 L 119.5 267 Z " /><path fill="rgb(0,0,0)" stroke="rgb(0,0,0)" stroke-width="1" opacity="0.796078431372549" d="M 167.5 267 L 159.5 276 Q 156.5 276.9 158 272.5 L 159 272.5 L 159.5 275 L 167.5 267 Z " /><path fill="rgb(0,0,0)" stroke="rgb(0,0,0)" stroke-width="1" opacity="0.796078431372549" d="M 99.5 271 L 98.5 273 L 99.5 271 Z " /><path fill="rgb(0,0,0)" stroke="rgb(0,0,0)" stroke-width="1" opacity="0.796078431372549" d="M 187.5 271 L 188.5 273 L 187.5 271 Z " /><path fill="rgb(0,0,0)" stroke="rgb(0,0,0)" stroke-width="1" opacity="0.796078431372549" d="M 324.5 271 L 323.5 273 L 324.5 271 Z " /><path fill="rgb(0,0,0)" stroke="rgb(0,0,0)" stroke-width="1" opacity="0.796078431372549" d="M 412.5 271 L 413.5 273 L 412.5 271 Z " /><path fill="rgb(0,0,0)" stroke="rgb(0,0,0)" stroke-width="1" opacity="0.796078431372549" d="M 190.5 277 L 191 282.5 L 190 282.5 L 190.5 277 Z " /><path fill="rgb(0,0,0)" stroke="rgb(0,0,0)" stroke-width="1" opacity="0.796078431372549" d="M 321.5 277 L 322 282.5 L 321 282.5 L 321.5 277 Z " /><path fill="rgb(0,0,0)" stroke="rgb(0,0,0)" stroke-width="1" opacity="0.796078431372549" d="M 96.5 278 L 97 281.5 L 96 281.5 L 96.5 278 Z " /><path fill="rgb(0,0,0)" stroke="rgb(0,0,0)" stroke-width="1" opacity="0.796078431372549" d="M 415.5 278 L 416 281.5 L 415 281.5 L 415.5 278 Z " /><path fill="rgb(0,0,0)" stroke="rgb(0,0,0)" stroke-width="1" opacity="0.796078431372549" d="M 353.5 284 L 354 287.5 L 353 287.5 L 353.5 284 Z " /><path fill="rgb(0,0,0)" stroke="rgb(0,0,0)" stroke-width="1" opacity="0.796078431372549" d="M 186.5 290 L 153.5 324 L 186.5 290 Z " /><path fill="rgb(0,0,0)" stroke="rgb(0,0,0)" stroke-width="1" opacity="0.796078431372549" d="M 325.5 290 L 326.5 292 L 325.5 290 Z " /><path fill="rgb(0,0,0)" stroke="rgb(0,0,0)" stroke-width="1" opacity="0.796078431372549" d="M 345.5 291 L 344.5 293 L 345.5 291 Z " /><path fill="rgb(0,0,0)" stroke="rgb(0,0,0)" stroke-width="1" opacity="0.796078431372549" d="M 382.5 292 L 383 296.5 L 382 296.5 L 382.5 292 Z " /><path fill="rgb(0,0,0)" stroke="rgb(0,0,0)" stroke-width="1" opacity="0.796078431372549" d="M 352.5 293 L 353 295.5 L 352 295.5 L 352.5 293 Z " /><path fill="rgb(0,0,0)" stroke="rgb(0,0,0)" stroke-width="1" opacity="0.796078431372549" d="M 338.5 294 L 341 294.5 L 338.5 295 L 338.5 294 Z " /><path fill="rgb(0,0,0)" stroke="rgb(0,0,0)" stroke-width="1" opacity="0.796078431372549" d="M 396.5 294 L 399 294.5 L 396.5 295 L 396.5 294 Z " /><path fill="rgb(0,0,0)" stroke="rgb(0,0,0)" stroke-width="1" opacity="0.796078431372549" d="M 381.5 300 L 382 302.5 L 381 302.5 L 381.5 300 Z " /><path fill="rgb(0,0,0)" stroke="rgb(0,0,0)" stroke-width="1" opacity="0.796078431372549" d="M 380.5 305 L 381 307.5 L 380 307.5 L 380.5 305 Z " /><path fill="rgb(0,0,0)" stroke="rgb(0,0,0)" stroke-width="1" opacity="0.796078431372549" d="M 151.5 324 L 150.5 326 L 151.5 324 Z " /><path fill="rgb(0,0,0)" stroke="rgb(0,0,0)" stroke-width="1" opacity="0.796078431372549" d="M 341.5 327 L 340.5 329 L 341.5 327 Z " /><path fill="rgb(0,0,0)" stroke="rgb(0,0,0)" stroke-width="1" opacity="0.796078431372549" d="M 338.5 332 L 337.5 334 L 338.5 332 Z " /><path fill="rgb(0,0,0)" stroke="rgb(0,0,0)" stroke-width="1" opacity="0.796078431372549" d="M 336.5 335 L 335.5 337 L 336.5 335 Z " /><path fill="rgb(0,0,0)" stroke="rgb(0,0,0)" stroke-width="1" opacity="0.796078431372549" d="M 333.5 339 L 331.5 342 L 333.5 339 Z " /><path fill="rgb(0,0,0)" stroke="rgb(0,0,0)" stroke-width="1" opacity="0.796078431372549" d="M 366.5 343 L 365.5 345 L 366.5 343 Z " /><path fill="rgb(0,0,0)" stroke="rgb(0,0,0)" stroke-width="1" opacity="0.796078431372549" d="M 329.5 344 L 320.5 354 L 329.5 344 Z " /><path fill="rgb(0,0,0)" stroke="rgb(0,0,0)" stroke-width="1" opacity="0.796078431372549" d="M 166.5 348 L 164.5 351 L 166.5 348 Z " /><path fill="rgb(0,0,0)" stroke="rgb(0,0,0)" stroke-width="1" opacity="0.796078431372549" d="M 186.5 348 L 191.5 354 L 186.5 348 Z " /><path fill="rgb(0,0,0)" stroke="rgb(0,0,0)" stroke-width="1" opacity="0.796078431372549" d="M 363.5 348 L 362.5 350 L 363.5 348 Z " /><path fill="rgb(0,0,0)" stroke="rgb(0,0,0)" stroke-width="1" opacity="0.796078431372549" d="M 361.5 351 L 360.5 353 L 361.5 351 Z " /><path fill="rgb(0,0,0)" stroke="rgb(0,0,0)" stroke-width="1" opacity="0.796078431372549" d="M 358.5 355 L 357.5 357 L 358.5 355 Z " /><path fill="rgb(0,0,0)" stroke="rgb(0,0,0)" stroke-width="1" opacity="0.796078431372549" d="M 195.5 356 L 197.5 359 L 195.5 356 Z " /><path fill="rgb(0,0,0)" stroke="rgb(0,0,0)" stroke-width="1" opacity="0.796078431372549" d="M 316.5 356 L 315.5 358 L 316.5 356 Z " /><path fill="rgb(0,0,0)" stroke="rgb(0,0,0)" stroke-width="1" opacity="0.796078431372549" d="M 161.5 358 L 162 360.5 L 161 360.5 L 161.5 358 Z " /><path fill="rgb(0,0,0)" stroke="rgb(0,0,0)" stroke-width="1" opacity="0.796078431372549" d="M 356.5 358 L 353.5 362 L 356.5 358 Z " /><path fill="rgb(0,0,0)" stroke="rgb(0,0,0)" stroke-width="1" opacity="0.796078431372549" d="M 199.5 359 L 200.5 361 L 199.5 359 Z " /><path fill="rgb(0,0,0)" stroke="rgb(0,0,0)" stroke-width="1" opacity="0.796078431372549" d="M 312.5 359 L 311.5 361 L 312.5 359 Z " /><path fill="rgb(0,0,0)" stroke="rgb(0,0,0)" stroke-width="1" opacity="0.796078431372549" d="M 202.5 361 L 203.5 363 L 202.5 361 Z " /><path fill="rgb(0,0,0)" stroke="rgb(0,0,0)" stroke-width="1" opacity="0.796078431372549" d="M 309.5 361 L 308.5 363 L 309.5 361 Z " /><path fill="rgb(0,0,0)" stroke="rgb(0,0,0)" stroke-width="1" opacity="0.796078431372549" d="M 205.5 363 L 206.5 365 L 205.5 363 Z " /><path fill="rgb(0,0,0)" stroke="rgb(0,0,0)" stroke-width="1" opacity="0.796078431372549" d="M 304.5 364 L 303.5 366 L 304.5 364 Z " /><path fill="rgb(0,0,0)" stroke="rgb(0,0,0)" stroke-width="1" opacity="0.796078431372549" d="M 350.5 365 L 340.5 376 L 350.5 365 Z " /><path fill="rgb(0,0,0)" stroke="rgb(0,0,0)" stroke-width="1" opacity="0.796078431372549" d="M 164.5 368 L 171.5 376 L 164.5 368 Z " /><path fill="rgb(0,0,0)" stroke="rgb(0,0,0)" stroke-width="1" opacity="0.796078431372549" d="M 275.5 375 L 278 375.5 L 275.5 376 L 275.5 375 Z " /><path fill="rgb(0,0,0)" stroke="rgb(0,0,0)" stroke-width="1" opacity="0.796078431372549" d="M 239.5 376 L 242 376.5 L 239.5 377 L 239.5 376 Z " /><path fill="rgb(0,0,0)" stroke="rgb(0,0,0)" stroke-width="1" opacity="0.796078431372549" d="M 270.5 376 L 273 376.5 L 270.5 377 L 270.5 376 Z " /><path fill="rgb(0,0,0)" stroke="rgb(0,0,0)" stroke-width="1" opacity="0.796078431372549" d="M 246.5 377 L 265 377.5 L 246.5 378 L 246.5 377 Z " /><path fill="rgb(0,0,0)" stroke="rgb(0,0,0)" stroke-width="1" opacity="0.796078431372549" d="M 337.5 377 L 334.5 381 L 337.5 377 Z " /><path fill="rgb(0,0,0)" stroke="rgb(0,0,0)" stroke-width="1" opacity="0.796078431372549" d="M 175.5 378 L 177.5 381 L 175.5 378 Z " /><path fill="rgb(0,0,0)" stroke="rgb(0,0,0)" stroke-width="1" opacity="0.796078431372549" d="M 511.5 380 L 512 386.5 L 511 386.5 L 511.5 380 Z " /><path fill="rgb(0,0,0)" stroke="rgb(0,0,0)" stroke-width="1" opacity="0.796078431372549" d="M 0.5 381 L 1 386.5 L 0 386.5 L 0.5 381 Z " /><path fill="rgb(0,0,0)" stroke="rgb(0,0,0)" stroke-width="1" opacity="0.796078431372549" d="M 332.5 381 L 330.5 384 L 332.5 381 Z " /><path fill="rgb(0,0,0)" stroke="rgb(0,0,0)" stroke-width="1" opacity="0.796078431372549" d="M 180.5 382 L 181.5 384 L 180.5 382 Z " /><path fill="rgb(0,0,0)" stroke="rgb(0,0,0)" stroke-width="1" opacity="0.796078431372549" d="M 30.5 384 L 31 386.5 L 30 386.5 L 30.5 384 Z " /><path fill="rgb(0,0,0)" stroke="rgb(0,0,0)" stroke-width="1" opacity="0.796078431372549" d="M 183.5 384 L 184.5 386 L 183.5 384 Z " /><path fill="rgb(0,0,0)" stroke="rgb(0,0,0)" stroke-width="1" opacity="0.796078431372549" d="M 328.5 384 L 327.5 386 L 328.5 384 Z " /><path fill="rgb(0,0,0)" stroke="rgb(0,0,0)" stroke-width="1" opacity="0.796078431372549" d="M 481.5 384 L 482 386.5 L 481 386.5 L 481.5 384 Z " /><path fill="rgb(0,0,0)" stroke="rgb(0,0,0)" stroke-width="1" opacity="0.796078431372549" d="M 186.5 386 L 187.5 388 L 186.5 386 Z " /><path fill="rgb(0,0,0)" stroke="rgb(0,0,0)" stroke-width="1" opacity="0.796078431372549" d="M 325.5 386 L 324.5 388 L 325.5 386 Z " /><path fill="rgb(0,0,0)" stroke="rgb(0,0,0)" stroke-width="1" opacity="0.796078431372549" d="M 189.5 388 L 190.5 390 L 189.5 388 Z " /><path fill="rgb(0,0,0)" stroke="rgb(0,0,0)" stroke-width="1" opacity="0.796078431372549" d="M 1.5 391 L 2 393.5 L 1 393.5 L 1.5 391 Z " /><path fill="rgb(0,0,0)" stroke="rgb(0,0,0)" stroke-width="1" opacity="0.796078431372549" d="M 510.5 391 L 511 393.5 L 510 393.5 L 510.5 391 Z " /><path fill="rgb(0,0,0)" stroke="rgb(0,0,0)" stroke-width="1" opacity="0.796078431372549" d="M 2.5 396 L 3 398.5 L 2 398.5 L 2.5 396 Z " /><path fill="rgb(0,0,0)" stroke="rgb(0,0,0)" stroke-width="1" opacity="0.796078431372549" d="M 509.5 396 L 510 398.5 L 509 398.5 L 509.5 396 Z " /><path fill="rgb(0,0,0)" stroke="rgb(0,0,0)" stroke-width="1" opacity="0.796078431372549" d="M 233.5 405 L 236 405.5 L 233.5 406 L 233.5 405 Z " /><path fill="rgb(0,0,0)" stroke="rgb(0,0,0)" stroke-width="1" opacity="0.796078431372549" d="M 276.5 405 L 279 405.5 L 276.5 406 L 276.5 405 Z " /><path fill="rgb(0,0,0)" stroke="rgb(0,0,0)" stroke-width="1" opacity="0.796078431372549" d="M 239.5 406 L 243 406.5 L 239.5 407 L 239.5 406 Z " /><path fill="rgb(0,0,0)" stroke="rgb(0,0,0)" stroke-width="1" opacity="0.796078431372549" d="M 269.5 406 L 273 406.5 L 269.5 407 L 269.5 406 Z " /><path fill="rgb(0,0,0)" stroke="rgb(0,0,0)" stroke-width="1" opacity="0.796078431372549" d="M 250.5 407 L 262 407.5 L 250.5 408 L 250.5 407 Z " /><path fill="rgb(0,0,0)" stroke="rgb(0,0,0)" stroke-width="1" opacity="0.796078431372549" d="M 38.5 409 L 39.5 411 L 38.5 409 Z " /><path fill="rgb(0,0,0)" stroke="rgb(0,0,0)" stroke-width="1" opacity="0.796078431372549" d="M 40.5 412 L 41.5 414 L 40.5 412 Z " /><path fill="rgb(0,0,0)" stroke="rgb(0,0,0)" stroke-width="1" opacity="0.796078431372549" d="M 471.5 412 L 470.5 414 L 471.5 412 Z " /><path fill="rgb(0,0,0)" stroke="rgb(0,0,0)" stroke-width="1" opacity="0.796078431372549" d="M 42.5 415 L 44.5 418 L 42.5 415 Z " /><path fill="rgb(0,0,0)" stroke="rgb(0,0,0)" stroke-width="1" opacity="0.796078431372549" d="M 469.5 415 L 467.5 418 L 469.5 415 Z " /><path fill="rgb(0,0,0)" stroke="rgb(0,0,0)" stroke-width="1" opacity="0.796078431372549" d="M 47.5 421 L 49.5 424 L 47.5 421 Z " /><path fill="rgb(0,0,0)" stroke="rgb(0,0,0)" stroke-width="1" opacity="0.796078431372549" d="M 464.5 421 L 461.5 425 L 464.5 421 Z " /><path fill="rgb(0,0,0)" stroke="rgb(0,0,0)" stroke-width="1" opacity="0.796078431372549" d="M 13.5 425 L 14.5 427 L 13.5 425 Z " /><path fill="rgb(0,0,0)" stroke="rgb(0,0,0)" stroke-width="1" opacity="0.796078431372549" d="M 498.5 425 L 497.5 427 L 498.5 425 Z " /><path fill="rgb(0,0,0)" stroke="rgb(0,0,0)" stroke-width="1" opacity="0.796078431372549" d="M 54.5 427 L 55.5 429 L 54.5 427 Z " /><path fill="rgb(0,0,0)" stroke="rgb(0,0,0)" stroke-width="1" opacity="0.796078431372549" d="M 457.5 427 L 456.5 429 L 457.5 427 Z " /><path fill="rgb(0,0,0)" stroke="rgb(0,0,0)" stroke-width="1" opacity="0.796078431372549" d="M 15.5 428 L 16.5 430 L 15.5 428 Z " /><path fill="rgb(0,0,0)" stroke="rgb(0,0,0)" stroke-width="1" opacity="0.796078431372549" d="M 496.5 428 L 495.5 430 L 496.5 428 Z " /><path fill="rgb(0,0,0)" stroke="rgb(0,0,0)" stroke-width="1" opacity="0.796078431372549" d="M 58.5 430 L 59.5 432 L 58.5 430 Z " /><path fill="rgb(0,0,0)" stroke="rgb(0,0,0)" stroke-width="1" opacity="0.796078431372549" d="M 453.5 430 L 452.5 432 L 453.5 430 Z " /><path fill="rgb(0,0,0)" stroke="rgb(0,0,0)" stroke-width="1" opacity="0.796078431372549" d="M 17.5 431 L 18.5 433 L 17.5 431 Z " /><path fill="rgb(0,0,0)" stroke="rgb(0,0,0)" stroke-width="1" opacity="0.796078431372549" d="M 494.5 431 L 493.5 433 L 494.5 431 Z " /><path fill="rgb(0,0,0)" stroke="rgb(0,0,0)" stroke-width="1" opacity="0.796078431372549" d="M 63.5 433 L 68 435.5 L 66.5 436 L 63.5 433 Z " /><path fill="rgb(0,0,0)" stroke="rgb(0,0,0)" stroke-width="1" opacity="0.796078431372549" d="M 448.5 433 L 447.5 435 L 444.5 436 L 444.5 435 L 448.5 433 Z " /><path fill="rgb(0,0,0)" stroke="rgb(0,0,0)" stroke-width="1" opacity="0.796078431372549" d="M 20.5 435 L 22.5 438 L 20.5 435 Z " /><path fill="rgb(0,0,0)" stroke="rgb(0,0,0)" stroke-width="1" opacity="0.796078431372549" d="M 491.5 435 L 489.5 438 L 491.5 435 Z " /><path fill="rgb(0,0,0)" stroke="rgb(0,0,0)" stroke-width="1" opacity="0.796078431372549" d="M 80.5 440 L 83 440.5 L 80.5 441 L 80.5 440 Z " /><path fill="rgb(0,0,0)" stroke="rgb(0,0,0)" stroke-width="1" opacity="0.796078431372549" d="M 25.5 441 L 29.5 446 L 25.5 441 Z " /><path fill="rgb(0,0,0)" stroke="rgb(0,0,0)" stroke-width="1" opacity="0.796078431372549" d="M 86.5 441 L 90 441.5 L 86.5 442 L 86.5 441 Z " /><path fill="rgb(0,0,0)" stroke="rgb(0,0,0)" stroke-width="1" opacity="0.796078431372549" d="M 422.5 441 L 426 441.5 L 422.5 442 L 422.5 441 Z " /><path fill="rgb(0,0,0)" stroke="rgb(0,0,0)" stroke-width="1" opacity="0.796078431372549" d="M 485.5 442 L 482.5 446 L 485.5 442 Z " /><path fill="rgb(0,0,0)" stroke="rgb(0,0,0)" stroke-width="1" opacity="0.796078431372549" d="M 34.5 449 L 36.5 452 L 34.5 449 Z " /><path fill="rgb(0,0,0)" stroke="rgb(0,0,0)" stroke-width="1" opacity="0.796078431372549" d="M 477.5 449 L 475.5 452 L 477.5 449 Z " /><path fill="rgb(0,0,0)" stroke="rgb(0,0,0)" stroke-width="1" opacity="0.796078431372549" d="M 39.5 453 L 40.5 455 L 39.5 453 Z " /><path fill="rgb(0,0,0)" stroke="rgb(0,0,0)" stroke-width="1" opacity="0.796078431372549" d="M 472.5 453 L 471.5 455 L 472.5 453 Z " /><path fill="rgb(0,0,0)" stroke="rgb(0,0,0)" stroke-width="1" opacity="0.796078431372549" d="M 42.5 455 L 43.5 457 L 42.5 455 Z " /><path fill="rgb(0,0,0)" stroke="rgb(0,0,0)" stroke-width="1" opacity="0.796078431372549" d="M 469.5 455 L 468.5 457 L 469.5 455 Z " /><path fill="rgb(0,0,0)" stroke="rgb(0,0,0)" stroke-width="1" opacity="0.796078431372549" d="M 79.5 470 L 82 470.5 L 79.5 471 L 79.5 470 Z " /><path fill="rgb(0,0,0)" stroke="rgb(0,0,0)" stroke-width="1" opacity="0.796078431372549" d="M 430.5 470 L 433 470.5 L 430.5 471 L 430.5 470 Z " /><path fill="rgb(0,0,0)" stroke="rgb(0,0,0)" stroke-width="1" opacity="0.796078431372549" d="M 86.5 471 L 426 471.5 L 86.5 472 L 86.5 471 Z " /><path fill="rgb(0,0,0)" stroke="rgb(0,0,0)" stroke-width="1" opacity="1" d="M 203.5 41 L 308.5 41 Q 341.2 47.3 358 69.5 Q 367.4 81.1 373 96.5 L 378.5 102 L 385.5 105 L 427.5 105 L 442.5 108 Q 470 116.5 487 135.5 Q 505.3 154.2 511 185.5 L 511 195.5 L 512 196.5 L 512 379.5 L 511 380.5 L 511 390.5 L 509 400.5 L 505 412.5 Q 495.5 434.5 478.5 449 Q 459.9 465.9 429.5 471 L 82.5 471 Q 43.5 464 23 438.5 Q 13.3 427.3 7 412.5 L 3 400.5 L 1 390.5 L 1 381.5 L 0 380.5 L 0 196.5 L 1 195.5 L 2 180.5 L 8 161.5 Q 16.7 142.2 31.5 129 Q 46.6 114.6 69.5 108 L 84.5 105 L 126.5 105 Q 134.8 102.9 139 96.5 Q 147.7 71.7 166.5 57 Q 181 45 203.5 41 Z M 208 70 Q 193 73 184 81 L 172 95 Q 167 109 158 120 Q 150 129 136 133 L 131 134 L 89 134 Q 87 136 83 135 Q 66 139 55 148 Q 35 162 30 190 L 30 387 Q 34 408 47 422 Q 61 438 87 442 L 426 442 Q 448 438 462 425 Q 477 411 482 387 L 482 190 Q 479 171 469 160 Q 457 144 438 137 L 424 134 L 382 134 Q 366 131 357 122 L 348 112 Q 343 98 335 88 Q 325 74 305 70 L 208 70 Z " /><path fill="rgb(0,0,0)" stroke="rgb(0,0,0)" stroke-width="1" opacity="1" d="M 245.5 153 L 274.5 154 L 301.5 161 Q 329.5 172 348 192.5 Q 351 196.5 350 204.5 L 343.5 213 Q 339.8 216.3 331.5 215 L 315.5 202 L 297.5 191 L 284.5 186 L 271.5 183 L 249.5 182 L 227.5 186 L 214.5 191 Q 196 200 183 214.5 Q 171.3 227.8 164 245.5 L 160 259.5 L 158 276 L 170.5 266 L 180.5 266 L 187 270.5 Q 191.3 274.7 190 284.5 L 188 288.5 L 152.5 324 Q 149.3 327.8 141.5 327 L 134.5 324 L 99 288.5 Q 96 284.5 97 276.5 L 101.5 269 Q 105.6 264.1 116.5 266 L 129 276 L 132 250.5 L 139 229.5 Q 151.2 202.2 172.5 184 Q 188.7 169.7 210.5 161 L 231.5 155 L 244.5 154 L 245.5 153 Z " /><path fill="rgb(0,0,0)" stroke="rgb(0,0,0)" stroke-width="1" opacity="1" d="M 367.5 233 L 377.5 236 L 412 270.5 Q 416.2 274.3 415 283.5 Q 413.8 289.3 409.5 292 L 399.5 295 Q 388.4 292.6 383.5 284 L 380 309.5 L 373 330.5 Q 360.5 358.5 338.5 377 Q 319.9 393.4 293.5 402 L 268.5 407 L 243.5 407 L 242.5 406 L 230.5 405 L 207.5 398 Q 181.3 387.2 164 367.5 Q 160.8 364.2 162 356.5 Q 163.5 350 168.5 347 Q 172.1 344.1 179.5 345 L 184.5 347 L 197.5 359 L 218.5 371 L 239.5 377 L 264.5 378 L 281.5 375 L 303.5 366 Q 318.8 357.3 330 344.5 Q 339.6 333.6 346 319.5 Q 352.8 304.8 354 284.5 L 346.5 291 Q 342.5 295 334.5 295 Q 327.6 293.4 324 288.5 Q 320.7 284.8 322 276.5 L 325 270.5 L 359.5 236 L 367.5 233 Z " /></svg>