<svg width="512" height="512" version="1.1" xmlns="http://www.w3.org/2000/svg" desc="Created with imagetracer.js version 1.2.6" ><path fill="rgb(0,0,0)" stroke="rgb(0,0,0)" stroke-width="1" opacity="0" d="M 0 0 L 512 0 L 512 512 L 0 512 L 0 0 Z M 122 21 L 121 22 L 107 23 L 90 28 Q 73 34 61 45 Q 45 58 34 77 L 25 99 L 21 122 L 21 195 L 25 205 Q 29 210 37 213 Q 49 215 55 210 Q 62 206 64 197 L 64 122 Q 66 120 65 116 Q 69 98 79 87 Q 92 70 116 65 Q 120 66 122 64 L 197 64 L 204 61 Q 210 57 213 49 Q 215 36 210 31 Q 205 23 195 21 L 122 21 Z M 318 21 L 308 25 Q 302 29 299 37 Q 297 49 302 55 Q 306 62 316 64 L 391 64 Q 392 66 397 65 Q 414 69 426 79 Q 442 92 447 116 Q 446 120 448 122 L 448 197 L 451 204 Q 455 210 464 213 Q 476 215 482 210 Q 489 205 491 195 L 491 122 L 490 121 L 489 107 Q 483 79 467 61 Q 447 36 414 25 L 391 21 L 318 21 Z M 250 149 L 249 150 L 235 151 L 218 156 Q 202 162 190 172 Q 172 186 161 207 L 153 227 L 149 250 L 150 272 L 153 286 Q 160 308 173 324 Q 187 341 209 352 L 227 359 L 249 363 L 263 363 L 286 359 Q 308 352 324 339 Q 340 325 351 306 L 359 286 L 363 263 L 363 249 L 359 227 Q 352 204 339 189 Q 324 170 302 159 L 278 151 L 264 150 L 263 149 L 250 149 Z M 37 299 L 31 302 Q 23 307 21 318 L 21 391 L 22 392 L 22 401 Q 28 432 45 452 Q 59 468 79 479 L 99 487 L 122 491 L 195 491 L 205 487 Q 210 483 213 476 Q 215 463 210 458 Q 206 450 197 448 L 122 448 Q 120 446 116 447 Q 97 443 86 432 Q 70 419 65 397 Q 66 392 64 391 L 64 316 L 61 309 L 52 300 Q 46 298 37 299 Z M 464 299 L 458 302 Q 450 306 448 316 L 448 391 Q 446 392 447 397 Q 443 415 432 427 Q 419 442 397 447 Q 392 446 391 448 L 316 448 L 309 451 Q 302 455 299 464 Q 297 476 302 482 Q 307 489 318 491 L 391 491 L 392 490 L 406 489 Q 433 483 452 467 Q 468 453 479 434 L 487 414 L 491 391 L 491 318 L 487 308 Q 483 302 476 299 L 464 299 Z " /><path fill="rgb(0,0,0)" stroke="rgb(0,0,0)" stroke-width="1" opacity="0.7568627450980392" d="M 121.5 21 L 195 21.5 L 121.5 22 L 121.5 21 Z " /><path fill="rgb(0,0,0)" stroke="rgb(0,0,0)" stroke-width="1" opacity="0.7568627450980392" d="M 317.5 21 L 391 21.5 L 317.5 22 L 317.5 21 Z " /><path fill="rgb(0,0,0)" stroke="rgb(0,0,0)" stroke-width="1" opacity="0.7568627450980392" d="M 111.5 22 L 115 22.5 L 111.5 23 L 111.5 22 Z " /><path fill="rgb(0,0,0)" stroke="rgb(0,0,0)" stroke-width="1" opacity="0.7568627450980392" d="M 397.5 22 L 401 22.5 L 397.5 23 L 397.5 22 Z " /><path fill="rgb(0,0,0)" stroke="rgb(0,0,0)" stroke-width="1" opacity="0.7568627450980392" d="M 106.5 23 L 109 23.5 L 106.5 24 L 106.5 23 Z " /><path fill="rgb(0,0,0)" stroke="rgb(0,0,0)" stroke-width="1" opacity="0.7568627450980392" d="M 200.5 23 L 203 24.5 L 201.5 24 L 200.5 23 Z " /><path fill="rgb(0,0,0)" stroke="rgb(0,0,0)" stroke-width="1" opacity="0.7568627450980392" d="M 310.5 23 L 309.5 25 L 310.5 23 Z " /><path fill="rgb(0,0,0)" stroke="rgb(0,0,0)" stroke-width="1" opacity="0.7568627450980392" d="M 403.5 23 L 406 23.5 L 403.5 24 L 403.5 23 Z " /><path fill="rgb(0,0,0)" stroke="rgb(0,0,0)" stroke-width="1" opacity="0.7568627450980392" d="M 204.5 25 L 209.5 31 L 204.5 25 Z " /><path fill="rgb(0,0,0)" stroke="rgb(0,0,0)" stroke-width="1" opacity="0.7568627450980392" d="M 307.5 25 L 302.5 31 L 307.5 25 Z " /><path fill="rgb(0,0,0)" stroke="rgb(0,0,0)" stroke-width="1" opacity="0.7568627450980392" d="M 76.5 34 L 75.5 36 L 76.5 34 Z " /><path fill="rgb(0,0,0)" stroke="rgb(0,0,0)" stroke-width="1" opacity="0.7568627450980392" d="M 71.5 37 L 70.5 39 L 71.5 37 Z " /><path fill="rgb(0,0,0)" stroke="rgb(0,0,0)" stroke-width="1" opacity="0.7568627450980392" d="M 440.5 37 L 441.5 39 L 440.5 37 Z " /><path fill="rgb(0,0,0)" stroke="rgb(0,0,0)" stroke-width="1" opacity="0.7568627450980392" d="M 68.5 39 L 67.5 41 L 68.5 39 Z " /><path fill="rgb(0,0,0)" stroke="rgb(0,0,0)" stroke-width="1" opacity="0.7568627450980392" d="M 443.5 39 L 444.5 41 L 443.5 39 Z " /><path fill="rgb(0,0,0)" stroke="rgb(0,0,0)" stroke-width="1" opacity="0.7568627450980392" d="M 446.5 41 L 448.5 44 L 446.5 41 Z " /><path fill="rgb(0,0,0)" stroke="rgb(0,0,0)" stroke-width="1" opacity="0.7568627450980392" d="M 64.5 42 L 63.5 44 L 64.5 42 Z " /><path fill="rgb(0,0,0)" stroke="rgb(0,0,0)" stroke-width="1" opacity="0.7568627450980392" d="M 60.5 45 L 57.5 49 L 60.5 45 Z " /><path fill="rgb(0,0,0)" stroke="rgb(0,0,0)" stroke-width="1" opacity="0.7568627450980392" d="M 451.5 45 L 454.5 49 L 451.5 45 Z " /><path fill="rgb(0,0,0)" stroke="rgb(0,0,0)" stroke-width="1" opacity="0.7568627450980392" d="M 48.5 57 L 45.5 61 L 48.5 57 Z " /><path fill="rgb(0,0,0)" stroke="rgb(0,0,0)" stroke-width="1" opacity="0.7568627450980392" d="M 463.5 57 L 466.5 61 L 463.5 57 Z " /><path fill="rgb(0,0,0)" stroke="rgb(0,0,0)" stroke-width="1" opacity="0.7568627450980392" d="M 204.5 59 L 203.5 61 L 204.5 59 Z " /><path fill="rgb(0,0,0)" stroke="rgb(0,0,0)" stroke-width="1" opacity="0.7568627450980392" d="M 307.5 59 L 308.5 61 L 307.5 59 Z " /><path fill="rgb(0,0,0)" stroke="rgb(0,0,0)" stroke-width="1" opacity="0.7568627450980392" d="M 43.5 63 L 42.5 65 L 43.5 63 Z " /><path fill="rgb(0,0,0)" stroke="rgb(0,0,0)" stroke-width="1" opacity="0.7568627450980392" d="M 194.5 63 L 197 63.5 L 194.5 64 L 194.5 63 Z " /><path fill="rgb(0,0,0)" stroke="rgb(0,0,0)" stroke-width="1" opacity="0.7568627450980392" d="M 315.5 63 L 318 63.5 L 315.5 64 L 315.5 63 Z " /><path fill="rgb(0,0,0)" stroke="rgb(0,0,0)" stroke-width="1" opacity="0.7568627450980392" d="M 468.5 63 L 469.5 65 L 468.5 63 Z " /><path fill="rgb(0,0,0)" stroke="rgb(0,0,0)" stroke-width="1" opacity="0.7568627450980392" d="M 117.5 64 L 121 64.5 L 117.5 65 L 117.5 64 Z " /><path fill="rgb(0,0,0)" stroke="rgb(0,0,0)" stroke-width="1" opacity="0.7568627450980392" d="M 391.5 64 L 395 64.5 L 391.5 65 L 391.5 64 Z " /><path fill="rgb(0,0,0)" stroke="rgb(0,0,0)" stroke-width="1" opacity="0.7568627450980392" d="M 40.5 67 L 39.5 69 L 40.5 67 Z " /><path fill="rgb(0,0,0)" stroke="rgb(0,0,0)" stroke-width="1" opacity="0.7568627450980392" d="M 471.5 67 L 472.5 69 L 471.5 67 Z " /><path fill="rgb(0,0,0)" stroke="rgb(0,0,0)" stroke-width="1" opacity="0.7568627450980392" d="M 38.5 70 L 37.5 72 L 38.5 70 Z " /><path fill="rgb(0,0,0)" stroke="rgb(0,0,0)" stroke-width="1" opacity="0.7568627450980392" d="M 473.5 70 L 474.5 72 L 473.5 70 Z " /><path fill="rgb(0,0,0)" stroke="rgb(0,0,0)" stroke-width="1" opacity="0.7568627450980392" d="M 92.5 74 L 91.5 76 L 92.5 74 Z " /><path fill="rgb(0,0,0)" stroke="rgb(0,0,0)" stroke-width="1" opacity="0.7568627450980392" d="M 419.5 74 L 420.5 76 L 419.5 74 Z " /><path fill="rgb(0,0,0)" stroke="rgb(0,0,0)" stroke-width="1" opacity="0.7568627450980392" d="M 35.5 75 L 34.5 77 L 35.5 75 Z " /><path fill="rgb(0,0,0)" stroke="rgb(0,0,0)" stroke-width="1" opacity="0.7568627450980392" d="M 89.5 76 L 86.5 80 L 89.5 76 Z " /><path fill="rgb(0,0,0)" stroke="rgb(0,0,0)" stroke-width="1" opacity="0.7568627450980392" d="M 422.5 76 L 424.5 79 L 422.5 76 Z " /><path fill="rgb(0,0,0)" stroke="rgb(0,0,0)" stroke-width="1" opacity="0.7568627450980392" d="M 78.5 87 L 76.5 90 L 78.5 87 Z " /><path fill="rgb(0,0,0)" stroke="rgb(0,0,0)" stroke-width="1" opacity="0.7568627450980392" d="M 433.5 87 L 434.5 89 L 433.5 87 Z " /><path fill="rgb(0,0,0)" stroke="rgb(0,0,0)" stroke-width="1" opacity="0.7568627450980392" d="M 75.5 91 L 74.5 93 L 75.5 91 Z " /><path fill="rgb(0,0,0)" stroke="rgb(0,0,0)" stroke-width="1" opacity="0.7568627450980392" d="M 436.5 91 L 437.5 93 L 436.5 91 Z " /><path fill="rgb(0,0,0)" stroke="rgb(0,0,0)" stroke-width="1" opacity="0.7568627450980392" d="M 438.5 94 L 439.5 96 L 438.5 94 Z " /><path fill="rgb(0,0,0)" stroke="rgb(0,0,0)" stroke-width="1" opacity="0.7568627450980392" d="M 23.5 106 L 24 108.5 L 23 108.5 L 23.5 106 Z " /><path fill="rgb(0,0,0)" stroke="rgb(0,0,0)" stroke-width="1" opacity="0.7568627450980392" d="M 488.5 106 L 489 108.5 L 488 108.5 L 488.5 106 Z " /><path fill="rgb(0,0,0)" stroke="rgb(0,0,0)" stroke-width="1" opacity="0.7568627450980392" d="M 22.5 111 L 23 114.5 L 22 114.5 L 22.5 111 Z " /><path fill="rgb(0,0,0)" stroke="rgb(0,0,0)" stroke-width="1" opacity="0.7568627450980392" d="M 489.5 112 L 490 114.5 L 489 114.5 L 489.5 112 Z " /><path fill="rgb(0,0,0)" stroke="rgb(0,0,0)" stroke-width="1" opacity="0.7568627450980392" d="M 64.5 117 L 65 120.5 L 64 120.5 L 64.5 117 Z " /><path fill="rgb(0,0,0)" stroke="rgb(0,0,0)" stroke-width="1" opacity="0.7568627450980392" d="M 447.5 118 L 448 120.5 L 447 120.5 L 447.5 118 Z " /><path fill="rgb(0,0,0)" stroke="rgb(0,0,0)" stroke-width="1" opacity="0.7568627450980392" d="M 21.5 121 L 22 194.5 L 21 194.5 L 21.5 121 Z " /><path fill="rgb(0,0,0)" stroke="rgb(0,0,0)" stroke-width="1" opacity="0.7568627450980392" d="M 490.5 121 L 491 194.5 L 490 194.5 L 490.5 121 Z " /><path fill="rgb(0,0,0)" stroke="rgb(0,0,0)" stroke-width="1" opacity="0.7568627450980392" d="M 249.5 149 L 263 149.5 L 249.5 150 L 249.5 149 Z " /><path fill="rgb(0,0,0)" stroke="rgb(0,0,0)" stroke-width="1" opacity="0.7568627450980392" d="M 240.5 150 L 243 150.5 L 240.5 151 L 240.5 150 Z " /><path fill="rgb(0,0,0)" stroke="rgb(0,0,0)" stroke-width="1" opacity="0.7568627450980392" d="M 269.5 150 L 272 150.5 L 269.5 151 L 269.5 150 Z " /><path fill="rgb(0,0,0)" stroke="rgb(0,0,0)" stroke-width="1" opacity="0.7568627450980392" d="M 234.5 151 L 237 151.5 L 234.5 152 L 234.5 151 Z " /><path fill="rgb(0,0,0)" stroke="rgb(0,0,0)" stroke-width="1" opacity="0.7568627450980392" d="M 275.5 151 L 278 151.5 L 275.5 152 L 275.5 151 Z " /><path fill="rgb(0,0,0)" stroke="rgb(0,0,0)" stroke-width="1" opacity="0.7568627450980392" d="M 212.5 158 L 214 158.5 L 211.5 160 L 212.5 158 Z " /><path fill="rgb(0,0,0)" stroke="rgb(0,0,0)" stroke-width="1" opacity="0.7568627450980392" d="M 199.5 165 L 198.5 167 L 199.5 165 Z " /><path fill="rgb(0,0,0)" stroke="rgb(0,0,0)" stroke-width="1" opacity="0.7568627450980392" d="M 312.5 165 L 313.5 167 L 312.5 165 Z " /><path fill="rgb(0,0,0)" stroke="rgb(0,0,0)" stroke-width="1" opacity="0.7568627450980392" d="M 196.5 167 L 195.5 169 L 196.5 167 Z " /><path fill="rgb(0,0,0)" stroke="rgb(0,0,0)" stroke-width="1" opacity="0.7568627450980392" d="M 315.5 167 L 316.5 169 L 315.5 167 Z " /><path fill="rgb(0,0,0)" stroke="rgb(0,0,0)" stroke-width="1" opacity="0.7568627450980392" d="M 193.5 169 L 191.5 172 L 193.5 169 Z " /><path fill="rgb(0,0,0)" stroke="rgb(0,0,0)" stroke-width="1" opacity="0.7568627450980392" d="M 318.5 169 L 320.5 172 L 318.5 169 Z " /><path fill="rgb(0,0,0)" stroke="rgb(0,0,0)" stroke-width="1" opacity="0.7568627450980392" d="M 189.5 172 L 186.5 176 L 189.5 172 Z " /><path fill="rgb(0,0,0)" stroke="rgb(0,0,0)" stroke-width="1" opacity="0.7568627450980392" d="M 323.5 173 L 326.5 177 L 323.5 173 Z " /><path fill="rgb(0,0,0)" stroke="rgb(0,0,0)" stroke-width="1" opacity="0.7568627450980392" d="M 175.5 186 L 172.5 190 L 175.5 186 Z " /><path fill="rgb(0,0,0)" stroke="rgb(0,0,0)" stroke-width="1" opacity="0.7568627450980392" d="M 336.5 186 L 338.5 189 L 336.5 186 Z " /><path fill="rgb(0,0,0)" stroke="rgb(0,0,0)" stroke-width="1" opacity="0.7568627450980392" d="M 171.5 191 L 169.5 194 L 171.5 191 Z " /><path fill="rgb(0,0,0)" stroke="rgb(0,0,0)" stroke-width="1" opacity="0.7568627450980392" d="M 340.5 191 L 341.5 193 L 340.5 191 Z " /><path fill="rgb(0,0,0)" stroke="rgb(0,0,0)" stroke-width="1" opacity="0.7568627450980392" d="M 63.5 194 L 64 196.5 L 63 196.5 L 63.5 194 Z " /><path fill="rgb(0,0,0)" stroke="rgb(0,0,0)" stroke-width="1" opacity="0.7568627450980392" d="M 448.5 194 L 449 196.5 L 448 196.5 L 448.5 194 Z " /><path fill="rgb(0,0,0)" stroke="rgb(0,0,0)" stroke-width="1" opacity="0.7568627450980392" d="M 168.5 195 L 167.5 197 L 168.5 195 Z " /><path fill="rgb(0,0,0)" stroke="rgb(0,0,0)" stroke-width="1" opacity="0.7568627450980392" d="M 343.5 195 L 344.5 197 L 343.5 195 Z " /><path fill="rgb(0,0,0)" stroke="rgb(0,0,0)" stroke-width="1" opacity="0.7568627450980392" d="M 166.5 198 L 165.5 200 L 166.5 198 Z " /><path fill="rgb(0,0,0)" stroke="rgb(0,0,0)" stroke-width="1" opacity="0.7568627450980392" d="M 345.5 198 L 346.5 200 L 345.5 198 Z " /><path fill="rgb(0,0,0)" stroke="rgb(0,0,0)" stroke-width="1" opacity="0.7568627450980392" d="M 23.5 200 L 25 202.5 L 23 201.5 L 23.5 200 Z " /><path fill="rgb(0,0,0)" stroke="rgb(0,0,0)" stroke-width="1" opacity="0.7568627450980392" d="M 488.5 200 L 489 201.5 L 487 202.5 L 488.5 200 Z " /><path fill="rgb(0,0,0)" stroke="rgb(0,0,0)" stroke-width="1" opacity="0.7568627450980392" d="M 60.5 203 L 59.5 205 L 60.5 203 Z " /><path fill="rgb(0,0,0)" stroke="rgb(0,0,0)" stroke-width="1" opacity="0.7568627450980392" d="M 451.5 203 L 452.5 205 L 451.5 203 Z " /><path fill="rgb(0,0,0)" stroke="rgb(0,0,0)" stroke-width="1" opacity="0.7568627450980392" d="M 25.5 204 L 30.5 210 L 25.5 204 Z " /><path fill="rgb(0,0,0)" stroke="rgb(0,0,0)" stroke-width="1" opacity="0.7568627450980392" d="M 486.5 204 L 481.5 210 L 486.5 204 Z " /><path fill="rgb(0,0,0)" stroke="rgb(0,0,0)" stroke-width="1" opacity="0.7568627450980392" d="M 349.5 205 L 350.5 207 L 349.5 205 Z " /><path fill="rgb(0,0,0)" stroke="rgb(0,0,0)" stroke-width="1" opacity="0.7568627450980392" d="M 151.5 234 L 152 236.5 L 151 236.5 L 151.5 234 Z " /><path fill="rgb(0,0,0)" stroke="rgb(0,0,0)" stroke-width="1" opacity="0.7568627450980392" d="M 360.5 234 L 361 236.5 L 360 236.5 L 360.5 234 Z " /><path fill="rgb(0,0,0)" stroke="rgb(0,0,0)" stroke-width="1" opacity="0.7568627450980392" d="M 150.5 240 L 151 242.5 L 150 242.5 L 150.5 240 Z " /><path fill="rgb(0,0,0)" stroke="rgb(0,0,0)" stroke-width="1" opacity="0.7568627450980392" d="M 361.5 240 L 362 243.5 L 361 243.5 L 361.5 240 Z " /><path fill="rgb(0,0,0)" stroke="rgb(0,0,0)" stroke-width="1" opacity="0.7568627450980392" d="M 362.5 248 L 363 262.5 L 362 262.5 L 362.5 248 Z " /><path fill="rgb(0,0,0)" stroke="rgb(0,0,0)" stroke-width="1" opacity="0.7568627450980392" d="M 149.5 249 L 150 262.5 L 149 262.5 L 149.5 249 Z " /><path fill="rgb(0,0,0)" stroke="rgb(0,0,0)" stroke-width="1" opacity="0.7568627450980392" d="M 150.5 269 L 151 271.5 L 150 271.5 L 150.5 269 Z " /><path fill="rgb(0,0,0)" stroke="rgb(0,0,0)" stroke-width="1" opacity="0.7568627450980392" d="M 361.5 269 L 362 271.5 L 361 271.5 L 361.5 269 Z " /><path fill="rgb(0,0,0)" stroke="rgb(0,0,0)" stroke-width="1" opacity="0.7568627450980392" d="M 151.5 275 L 152 277.5 L 151 277.5 L 151.5 275 Z " /><path fill="rgb(0,0,0)" stroke="rgb(0,0,0)" stroke-width="1" opacity="0.7568627450980392" d="M 360.5 275 L 361 277.5 L 360 277.5 L 360.5 275 Z " /><path fill="rgb(0,0,0)" stroke="rgb(0,0,0)" stroke-width="1" opacity="0.7568627450980392" d="M 30.5 302 L 25.5 308 L 30.5 302 Z " /><path fill="rgb(0,0,0)" stroke="rgb(0,0,0)" stroke-width="1" opacity="0.7568627450980392" d="M 481.5 302 L 486.5 308 L 481.5 302 Z " /><path fill="rgb(0,0,0)" stroke="rgb(0,0,0)" stroke-width="1" opacity="0.7568627450980392" d="M 161.5 305 L 162.5 307 L 161.5 305 Z " /><path fill="rgb(0,0,0)" stroke="rgb(0,0,0)" stroke-width="1" opacity="0.7568627450980392" d="M 350.5 305 L 349.5 307 L 350.5 305 Z " /><path fill="rgb(0,0,0)" stroke="rgb(0,0,0)" stroke-width="1" opacity="0.7568627450980392" d="M 59.5 307 L 60.5 309 L 59.5 307 Z " /><path fill="rgb(0,0,0)" stroke="rgb(0,0,0)" stroke-width="1" opacity="0.7568627450980392" d="M 452.5 307 L 451.5 309 L 452.5 307 Z " /><path fill="rgb(0,0,0)" stroke="rgb(0,0,0)" stroke-width="1" opacity="0.7568627450980392" d="M 24.5 309 L 23.5 311 L 24.5 309 Z " /><path fill="rgb(0,0,0)" stroke="rgb(0,0,0)" stroke-width="1" opacity="0.7568627450980392" d="M 487.5 309 L 489 311.5 L 488 311.5 L 487.5 309 Z " /><path fill="rgb(0,0,0)" stroke="rgb(0,0,0)" stroke-width="1" opacity="0.7568627450980392" d="M 165.5 312 L 166.5 314 L 165.5 312 Z " /><path fill="rgb(0,0,0)" stroke="rgb(0,0,0)" stroke-width="1" opacity="0.7568627450980392" d="M 346.5 312 L 345.5 314 L 346.5 312 Z " /><path fill="rgb(0,0,0)" stroke="rgb(0,0,0)" stroke-width="1" opacity="0.7568627450980392" d="M 63.5 315 L 64 317.5 L 63 317.5 L 63.5 315 Z " /><path fill="rgb(0,0,0)" stroke="rgb(0,0,0)" stroke-width="1" opacity="0.7568627450980392" d="M 167.5 315 L 168.5 317 L 167.5 315 Z " /><path fill="rgb(0,0,0)" stroke="rgb(0,0,0)" stroke-width="1" opacity="0.7568627450980392" d="M 344.5 315 L 343.5 317 L 344.5 315 Z " /><path fill="rgb(0,0,0)" stroke="rgb(0,0,0)" stroke-width="1" opacity="0.7568627450980392" d="M 448.5 315 L 449 317.5 L 448 317.5 L 448.5 315 Z " /><path fill="rgb(0,0,0)" stroke="rgb(0,0,0)" stroke-width="1" opacity="0.7568627450980392" d="M 21.5 317 L 22 390.5 L 21 390.5 L 21.5 317 Z " /><path fill="rgb(0,0,0)" stroke="rgb(0,0,0)" stroke-width="1" opacity="0.7568627450980392" d="M 490.5 317 L 491 390.5 L 490 390.5 L 490.5 317 Z " /><path fill="rgb(0,0,0)" stroke="rgb(0,0,0)" stroke-width="1" opacity="0.7568627450980392" d="M 169.5 318 L 171.5 321 L 169.5 318 Z " /><path fill="rgb(0,0,0)" stroke="rgb(0,0,0)" stroke-width="1" opacity="0.7568627450980392" d="M 341.5 319 L 340.5 321 L 341.5 319 Z " /><path fill="rgb(0,0,0)" stroke="rgb(0,0,0)" stroke-width="1" opacity="0.7568627450980392" d="M 173.5 323 L 176.5 327 L 173.5 323 Z " /><path fill="rgb(0,0,0)" stroke="rgb(0,0,0)" stroke-width="1" opacity="0.7568627450980392" d="M 338.5 323 L 335.5 327 L 338.5 323 Z " /><path fill="rgb(0,0,0)" stroke="rgb(0,0,0)" stroke-width="1" opacity="0.7568627450980392" d="M 326.5 335 L 323.5 339 L 326.5 335 Z " /><path fill="rgb(0,0,0)" stroke="rgb(0,0,0)" stroke-width="1" opacity="0.7568627450980392" d="M 186.5 336 L 188.5 339 L 186.5 336 Z " /><path fill="rgb(0,0,0)" stroke="rgb(0,0,0)" stroke-width="1" opacity="0.7568627450980392" d="M 191.5 340 L 192.5 342 L 191.5 340 Z " /><path fill="rgb(0,0,0)" stroke="rgb(0,0,0)" stroke-width="1" opacity="0.7568627450980392" d="M 320.5 340 L 319.5 342 L 320.5 340 Z " /><path fill="rgb(0,0,0)" stroke="rgb(0,0,0)" stroke-width="1" opacity="0.7568627450980392" d="M 195.5 343 L 196.5 345 L 195.5 343 Z " /><path fill="rgb(0,0,0)" stroke="rgb(0,0,0)" stroke-width="1" opacity="0.7568627450980392" d="M 316.5 343 L 315.5 345 L 316.5 343 Z " /><path fill="rgb(0,0,0)" stroke="rgb(0,0,0)" stroke-width="1" opacity="0.7568627450980392" d="M 313.5 345 L 312.5 347 L 313.5 345 Z " /><path fill="rgb(0,0,0)" stroke="rgb(0,0,0)" stroke-width="1" opacity="0.7568627450980392" d="M 306.5 349 L 305.5 351 L 306.5 349 Z " /><path fill="rgb(0,0,0)" stroke="rgb(0,0,0)" stroke-width="1" opacity="0.7568627450980392" d="M 207.5 350 L 208.5 352 L 207.5 350 Z " /><path fill="rgb(0,0,0)" stroke="rgb(0,0,0)" stroke-width="1" opacity="0.7568627450980392" d="M 234.5 360 L 237 360.5 L 234.5 361 L 234.5 360 Z " /><path fill="rgb(0,0,0)" stroke="rgb(0,0,0)" stroke-width="1" opacity="0.7568627450980392" d="M 275.5 360 L 278 360.5 L 275.5 361 L 275.5 360 Z " /><path fill="rgb(0,0,0)" stroke="rgb(0,0,0)" stroke-width="1" opacity="0.7568627450980392" d="M 240.5 361 L 244 361.5 L 240.5 362 L 240.5 361 Z " /><path fill="rgb(0,0,0)" stroke="rgb(0,0,0)" stroke-width="1" opacity="0.7568627450980392" d="M 269.5 361 L 272 361.5 L 269.5 362 L 269.5 361 Z " /><path fill="rgb(0,0,0)" stroke="rgb(0,0,0)" stroke-width="1" opacity="0.7568627450980392" d="M 248.5 362 L 263 362.5 L 248.5 363 L 248.5 362 Z " /><path fill="rgb(0,0,0)" stroke="rgb(0,0,0)" stroke-width="1" opacity="0.7568627450980392" d="M 64.5 391 L 65 394.5 L 64 394.5 L 64.5 391 Z " /><path fill="rgb(0,0,0)" stroke="rgb(0,0,0)" stroke-width="1" opacity="0.7568627450980392" d="M 447.5 391 L 448 393.5 L 447 393.5 L 447.5 391 Z " /><path fill="rgb(0,0,0)" stroke="rgb(0,0,0)" stroke-width="1" opacity="0.7568627450980392" d="M 22.5 397 L 23 400.5 L 22 400.5 L 22.5 397 Z " /><path fill="rgb(0,0,0)" stroke="rgb(0,0,0)" stroke-width="1" opacity="0.7568627450980392" d="M 489.5 397 L 490 399.5 L 489 399.5 L 489.5 397 Z " /><path fill="rgb(0,0,0)" stroke="rgb(0,0,0)" stroke-width="1" opacity="0.7568627450980392" d="M 23.5 403 L 24 405.5 L 23 405.5 L 23.5 403 Z " /><path fill="rgb(0,0,0)" stroke="rgb(0,0,0)" stroke-width="1" opacity="0.7568627450980392" d="M 488.5 403 L 489 405.5 L 488 405.5 L 488.5 403 Z " /><path fill="rgb(0,0,0)" stroke="rgb(0,0,0)" stroke-width="1" opacity="0.7568627450980392" d="M 74.5 419 L 75.5 421 L 74.5 419 Z " /><path fill="rgb(0,0,0)" stroke="rgb(0,0,0)" stroke-width="1" opacity="0.7568627450980392" d="M 437.5 419 L 436.5 421 L 437.5 419 Z " /><path fill="rgb(0,0,0)" stroke="rgb(0,0,0)" stroke-width="1" opacity="0.7568627450980392" d="M 76.5 422 L 78.5 425 L 76.5 422 Z " /><path fill="rgb(0,0,0)" stroke="rgb(0,0,0)" stroke-width="1" opacity="0.7568627450980392" d="M 434.5 423 L 432.5 426 L 434.5 423 Z " /><path fill="rgb(0,0,0)" stroke="rgb(0,0,0)" stroke-width="1" opacity="0.7568627450980392" d="M 86.5 432 L 88.5 435 L 86.5 432 Z " /><path fill="rgb(0,0,0)" stroke="rgb(0,0,0)" stroke-width="1" opacity="0.7568627450980392" d="M 424.5 433 L 423.5 435 L 424.5 433 Z " /><path fill="rgb(0,0,0)" stroke="rgb(0,0,0)" stroke-width="1" opacity="0.7568627450980392" d="M 478.5 433 L 477.5 435 L 478.5 433 Z " /><path fill="rgb(0,0,0)" stroke="rgb(0,0,0)" stroke-width="1" opacity="0.7568627450980392" d="M 91.5 436 L 92.5 438 L 91.5 436 Z " /><path fill="rgb(0,0,0)" stroke="rgb(0,0,0)" stroke-width="1" opacity="0.7568627450980392" d="M 420.5 436 L 419.5 438 L 420.5 436 Z " /><path fill="rgb(0,0,0)" stroke="rgb(0,0,0)" stroke-width="1" opacity="0.7568627450980392" d="M 94.5 438 L 95.5 440 L 94.5 438 Z " /><path fill="rgb(0,0,0)" stroke="rgb(0,0,0)" stroke-width="1" opacity="0.7568627450980392" d="M 37.5 440 L 38.5 442 L 37.5 440 Z " /><path fill="rgb(0,0,0)" stroke="rgb(0,0,0)" stroke-width="1" opacity="0.7568627450980392" d="M 474.5 440 L 473.5 442 L 474.5 440 Z " /><path fill="rgb(0,0,0)" stroke="rgb(0,0,0)" stroke-width="1" opacity="0.7568627450980392" d="M 39.5 443 L 40.5 445 L 39.5 443 Z " /><path fill="rgb(0,0,0)" stroke="rgb(0,0,0)" stroke-width="1" opacity="0.7568627450980392" d="M 472.5 443 L 471.5 445 L 472.5 443 Z " /><path fill="rgb(0,0,0)" stroke="rgb(0,0,0)" stroke-width="1" opacity="0.7568627450980392" d="M 42.5 447 L 43.5 449 L 42.5 447 Z " /><path fill="rgb(0,0,0)" stroke="rgb(0,0,0)" stroke-width="1" opacity="0.7568627450980392" d="M 118.5 447 L 121 447.5 L 118.5 448 L 118.5 447 Z " /><path fill="rgb(0,0,0)" stroke="rgb(0,0,0)" stroke-width="1" opacity="0.7568627450980392" d="M 391.5 447 L 394 447.5 L 391.5 448 L 391.5 447 Z " /><path fill="rgb(0,0,0)" stroke="rgb(0,0,0)" stroke-width="1" opacity="0.7568627450980392" d="M 469.5 447 L 468.5 449 L 469.5 447 Z " /><path fill="rgb(0,0,0)" stroke="rgb(0,0,0)" stroke-width="1" opacity="0.7568627450980392" d="M 194.5 448 L 197 448.5 L 194.5 449 L 194.5 448 Z " /><path fill="rgb(0,0,0)" stroke="rgb(0,0,0)" stroke-width="1" opacity="0.7568627450980392" d="M 315.5 448 L 318 448.5 L 315.5 449 L 315.5 448 Z " /><path fill="rgb(0,0,0)" stroke="rgb(0,0,0)" stroke-width="1" opacity="0.7568627450980392" d="M 45.5 451 L 48.5 455 L 45.5 451 Z " /><path fill="rgb(0,0,0)" stroke="rgb(0,0,0)" stroke-width="1" opacity="0.7568627450980392" d="M 203.5 451 L 204.5 453 L 203.5 451 Z " /><path fill="rgb(0,0,0)" stroke="rgb(0,0,0)" stroke-width="1" opacity="0.7568627450980392" d="M 308.5 451 L 307.5 453 L 308.5 451 Z " /><path fill="rgb(0,0,0)" stroke="rgb(0,0,0)" stroke-width="1" opacity="0.7568627450980392" d="M 466.5 451 L 463.5 455 L 466.5 451 Z " /><path fill="rgb(0,0,0)" stroke="rgb(0,0,0)" stroke-width="1" opacity="0.7568627450980392" d="M 57.5 463 L 60.5 467 L 57.5 463 Z " /><path fill="rgb(0,0,0)" stroke="rgb(0,0,0)" stroke-width="1" opacity="0.7568627450980392" d="M 454.5 463 L 451.5 467 L 454.5 463 Z " /><path fill="rgb(0,0,0)" stroke="rgb(0,0,0)" stroke-width="1" opacity="0.7568627450980392" d="M 63.5 468 L 64.5 470 L 63.5 468 Z " /><path fill="rgb(0,0,0)" stroke="rgb(0,0,0)" stroke-width="1" opacity="0.7568627450980392" d="M 448.5 468 L 447.5 470 L 448.5 468 Z " /><path fill="rgb(0,0,0)" stroke="rgb(0,0,0)" stroke-width="1" opacity="0.7568627450980392" d="M 67.5 471 L 68.5 473 L 67.5 471 Z " /><path fill="rgb(0,0,0)" stroke="rgb(0,0,0)" stroke-width="1" opacity="0.7568627450980392" d="M 444.5 471 L 443.5 473 L 444.5 471 Z " /><path fill="rgb(0,0,0)" stroke="rgb(0,0,0)" stroke-width="1" opacity="0.7568627450980392" d="M 441.5 473 L 440.5 475 L 441.5 473 Z " /><path fill="rgb(0,0,0)" stroke="rgb(0,0,0)" stroke-width="1" opacity="0.7568627450980392" d="M 434.5 477 L 433.5 479 L 434.5 477 Z " /><path fill="rgb(0,0,0)" stroke="rgb(0,0,0)" stroke-width="1" opacity="0.7568627450980392" d="M 209.5 481 L 204.5 487 L 209.5 481 Z " /><path fill="rgb(0,0,0)" stroke="rgb(0,0,0)" stroke-width="1" opacity="0.7568627450980392" d="M 302.5 481 L 307.5 487 L 302.5 481 Z " /><path fill="rgb(0,0,0)" stroke="rgb(0,0,0)" stroke-width="1" opacity="0.7568627450980392" d="M 202.5 487 L 201.5 489 L 200 488.5 L 202.5 487 Z " /><path fill="rgb(0,0,0)" stroke="rgb(0,0,0)" stroke-width="1" opacity="0.7568627450980392" d="M 309.5 487 L 312 488.5 L 310.5 489 L 309.5 487 Z " /><path fill="rgb(0,0,0)" stroke="rgb(0,0,0)" stroke-width="1" opacity="0.7568627450980392" d="M 106.5 488 L 109 488.5 L 106.5 489 L 106.5 488 Z " /><path fill="rgb(0,0,0)" stroke="rgb(0,0,0)" stroke-width="1" opacity="0.7568627450980392" d="M 403.5 488 L 406 488.5 L 403.5 489 L 403.5 488 Z " /><path fill="rgb(0,0,0)" stroke="rgb(0,0,0)" stroke-width="1" opacity="0.7568627450980392" d="M 112.5 489 L 115 489.5 L 112.5 490 L 112.5 489 Z " /><path fill="rgb(0,0,0)" stroke="rgb(0,0,0)" stroke-width="1" opacity="0.7568627450980392" d="M 397.5 489 L 400 489.5 L 397.5 490 L 397.5 489 Z " /><path fill="rgb(0,0,0)" stroke="rgb(0,0,0)" stroke-width="1" opacity="0.7568627450980392" d="M 121.5 490 L 195 490.5 L 121.5 491 L 121.5 490 Z " /><path fill="rgb(0,0,0)" stroke="rgb(0,0,0)" stroke-width="1" opacity="0.7568627450980392" d="M 317.5 490 L 391 490.5 L 317.5 491 L 317.5 490 Z " /><path fill="rgb(0,0,0)" stroke="rgb(0,0,0)" stroke-width="1" opacity="1" d="M 115.5 22 L 197.5 22 Q 205.6 24.9 210 31.5 Q 214.2 36.3 213 46.5 Q 211.3 54.8 205.5 59 L 198.5 63 L 193.5 64 L 117.5 64 Q 90.1 70.1 76 89.5 L 68 103.5 L 64 117.5 L 64 193.5 Q 62.3 203.8 55.5 209 L 46.5 213 L 38.5 213 Q 29.4 210.5 25 203.5 L 22 197.5 L 22 115.5 L 26 96.5 L 34 77.5 Q 43.2 61.2 56.5 49 Q 68.3 38.3 83.5 31 L 96.5 26 L 115.5 22 Z " /><path fill="rgb(0,0,0)" stroke="rgb(0,0,0)" stroke-width="1" opacity="1" d="M 314.5 22 L 396.5 22 L 407.5 24 Q 442.8 32.7 463 56.5 Q 482.4 76.6 489 109.5 Q 487.7 114.3 490 115.5 L 490 197.5 Q 487.1 205.6 480.5 210 Q 475.7 214.2 465.5 213 Q 457.2 211.3 453 205.5 L 449 198.5 L 448 193.5 L 448 118.5 L 447 113.5 Q 440.7 88.8 422.5 76 L 408.5 68 L 394.5 64 L 318.5 64 Q 308.3 62.3 303 55.5 L 299 46.5 L 299 38.5 Q 301.4 29.4 308.5 25 L 314.5 22 Z " /><path fill="rgb(0,0,0)" stroke="rgb(0,0,0)" stroke-width="1" opacity="1" d="M 243.5 150 L 268.5 150 L 290.5 155 Q 318.2 165.3 336 185.5 L 351 207.5 L 358 224.5 L 362 244.5 L 362 268.5 L 358 287.5 L 351 304.5 Q 341.6 322.1 327.5 335 Q 311.1 350.1 287.5 358 L 268.5 362 L 244.5 362 L 224.5 358 L 209.5 352 Q 190.6 342.4 177 327.5 Q 162.9 312.1 155 290.5 L 150 268.5 L 150 243.5 L 155 221.5 L 162 205.5 Q 171.6 188.6 185.5 176 L 209.5 160 L 221.5 155 L 243.5 150 Z " /><path fill="rgb(0,0,0)" stroke="rgb(0,0,0)" stroke-width="1" opacity="1" d="M 38.5 299 Q 53.4 298.1 59 306.5 L 63 313.5 L 64 318.5 L 64 394.5 Q 69.8 421.2 88.5 435 Q 100.2 444.8 118.5 448 L 193.5 448 Q 203.8 449.8 209 456.5 L 213 465.5 L 213 473.5 Q 210.5 482.5 203.5 487 L 197.5 490 L 115.5 490 L 96.5 486 L 77.5 478 Q 61.2 468.8 49 455.5 Q 29.6 435.4 23 402.5 Q 24.3 397.7 22 396.5 L 22 314.5 Q 24.9 306.4 31.5 302 L 38.5 299 Z " /><path fill="rgb(0,0,0)" stroke="rgb(0,0,0)" stroke-width="1" opacity="1" d="M 465.5 299 Q 481.9 298.1 487 308.5 L 490 314.5 L 490 396.5 L 486 415.5 L 479 432.5 Q 469.6 450.1 455.5 463 Q 435.4 482.4 402.5 489 Q 397.7 487.7 396.5 490 L 314.5 490 Q 306.4 487.1 302 480.5 Q 297.8 475.7 299 465.5 Q 300.7 457.2 306.5 453 L 313.5 449 L 318.5 448 L 393.5 448 L 398.5 447 Q 422.3 440.8 435 423.5 Q 444.8 411.8 448 393.5 L 448 318.5 Q 449.8 308.3 456.5 303 L 465.5 299 Z " /></svg>