<svg width="30" height="30" viewBox="0 0 30 30" fill="none" xmlns="http://www.w3.org/2000/svg">
<g clip-path="url(#clip0_134_786)">
<path opacity="0.756863" d="M0.205078 1.23047L0.0878906 1.40625" stroke="black"/>
<path opacity="0.756863" d="M0.0878906 1.875L0.205078 2.05078" stroke="black"/>
<path opacity="0.756863" d="M7.29492 4.16016L7.32422 4.30664H7.26562L7.29492 4.16016Z" fill="black" stroke="black"/>
<path opacity="0.756863" d="M6.41602 4.51172L6.44531 4.6582H6.38672L6.41602 4.51172Z" fill="black" stroke="black"/>
<path opacity="0.756863" d="M7.35352 4.51172L7.38281 4.6582H7.32422L7.35352 4.51172Z" fill="black" stroke="black"/>
<path opacity="0.756863" d="M6.47461 4.80469L6.50391 4.95117H6.44531L6.47461 4.80469Z" fill="black" stroke="black"/>
<path opacity="0.756863" d="M7.41211 4.80469L7.44141 4.95117H7.38281L7.41211 4.80469Z" fill="black" stroke="black"/>
<path opacity="0.756863" d="M6.5332 5.15625L6.5625 5.30273H6.50391L6.5332 5.15625Z" fill="black" stroke="black"/>
<path opacity="0.756863" d="M7.4707 5.15625L7.5 5.30273H7.44141L7.4707 5.15625Z" fill="black" stroke="black"/>
<path opacity="0.756863" d="M6.65039 5.80078L6.67969 5.94727H6.62109L6.65039 5.80078Z" fill="black" stroke="black"/>
<path opacity="0.756863" d="M7.58789 5.80078L7.61719 5.94727H7.55859L7.58789 5.80078Z" fill="black" stroke="black"/>
<path opacity="0.756863" d="M6.70898 6.15234L6.73828 6.29883H6.67969L6.70898 6.15234Z" fill="black" stroke="black"/>
<path opacity="0.756863" d="M7.64648 6.15234L7.67578 6.29883H7.61719L7.64648 6.15234Z" fill="black" stroke="black"/>
<path opacity="0.756863" d="M6.82617 6.79688L6.85547 6.94336H6.79688L6.82617 6.79688Z" fill="black" stroke="black"/>
<path opacity="0.756863" d="M7.76367 6.79688L7.79297 6.94336H7.73438L7.76367 6.79688Z" fill="black" stroke="black"/>
<path opacity="0.756863" d="M6.88477 7.14844L6.91406 7.29492H6.85547L6.88477 7.14844Z" fill="black" stroke="black"/>
<path opacity="0.756863" d="M7.82227 7.14844L7.85156 7.29492H7.79297L7.82227 7.14844Z" fill="black" stroke="black"/>
<path opacity="0.756863" d="M6.94336 7.44141L6.97266 7.58789H6.91406L6.94336 7.44141Z" fill="black" stroke="black"/>
<path opacity="0.756863" d="M7.88086 7.44141L7.91016 7.58789H7.85156L7.88086 7.44141Z" fill="black" stroke="black"/>
<path opacity="0.756863" d="M7.00195 7.79297L7.03125 7.93945H6.97266L7.00195 7.79297Z" fill="black" stroke="black"/>
<path opacity="0.756863" d="M7.93945 7.79297L7.96875 7.93945H7.91016L7.93945 7.79297Z" fill="black" stroke="black"/>
<path opacity="0.756863" d="M29.4434 7.91016L29.6484 7.93945L29.4434 7.96875V7.91016Z" fill="black" stroke="black"/>
<path opacity="0.756863" d="M29.209 8.02734L29.1504 8.14453" stroke="black"/>
<path opacity="0.756863" d="M29.8535 8.02734L29.9121 8.14453" stroke="black"/>
<path opacity="0.756863" d="M7.06055 8.14453L7.08984 8.29102H7.03125L7.06055 8.14453Z" fill="black" stroke="black"/>
<path opacity="0.756863" d="M7.99805 8.14453L8.02734 8.29102H7.96875L7.99805 8.14453Z" fill="black" stroke="black"/>
<path opacity="0.756863" d="M7.11914 8.4375L7.14844 8.58398H7.08984L7.11914 8.4375Z" fill="black" stroke="black"/>
<path opacity="0.756863" d="M8.05664 8.4375L8.08594 8.58398H8.02734L8.05664 8.4375Z" fill="black" stroke="black"/>
<path opacity="0.756863" d="M29.0332 8.4375L29.0625 8.58398H29.0039L29.0332 8.4375Z" fill="black" stroke="black"/>
<path opacity="0.756863" d="M29.9707 8.4375L30 8.58398H29.9414L29.9707 8.4375Z" fill="black" stroke="black"/>
<path opacity="0.756863" d="M7.17773 8.78906L7.20703 8.93555H7.14844L7.17773 8.78906Z" fill="black" stroke="black"/>
<path opacity="0.756863" d="M8.11523 8.78906L8.14453 8.93555H8.08594L8.11523 8.78906Z" fill="black" stroke="black"/>
<path opacity="0.756863" d="M29.8535 9.08203L29.8828 9.22852H29.8242L29.8535 9.08203Z" fill="black" stroke="black"/>
<path opacity="0.756863" d="M28.8574 9.375L28.8867 9.52148H28.8281L28.8574 9.375Z" fill="black" stroke="black"/>
<path opacity="0.756863" d="M29.7949 9.375L29.8242 9.52148H29.7656L29.7949 9.375Z" fill="black" stroke="black"/>
<path opacity="0.756863" d="M7.29492 9.43359L7.32422 9.58008H7.26562L7.29492 9.43359Z" fill="black" stroke="black"/>
<path opacity="0.756863" d="M8.23242 9.43359L8.26172 9.58008H8.20312L8.23242 9.43359Z" fill="black" stroke="black"/>
<path opacity="0.756863" d="M28.7988 9.66797L28.8281 9.81445H28.7695L28.7988 9.66797Z" fill="black" stroke="black"/>
<path opacity="0.756863" d="M29.7363 9.66797L29.7656 9.81445H29.707L29.7363 9.66797Z" fill="black" stroke="black"/>
<path opacity="0.756863" d="M7.35352 9.78516L7.38281 9.93164H7.32422L7.35352 9.78516Z" fill="black" stroke="black"/>
<path opacity="0.756863" d="M8.29102 9.78516L8.32031 9.93164H8.26172L8.29102 9.78516Z" fill="black" stroke="black"/>
<path opacity="0.756863" d="M28.7402 9.96094L28.7695 10.1074H28.7109L28.7402 9.96094Z" fill="black" stroke="black"/>
<path opacity="0.756863" d="M7.4707 10.4297L7.5 10.5762H7.44141L7.4707 10.4297Z" fill="black" stroke="black"/>
<path opacity="0.756863" d="M8.4082 10.4297L8.4375 10.5762H8.37891L8.4082 10.4297Z" fill="black" stroke="black"/>
<path opacity="0.756863" d="M29.5605 10.6055L29.5898 10.752H29.5312L29.5605 10.6055Z" fill="black" stroke="black"/>
<path opacity="0.756863" d="M7.5293 10.7812L7.55859 10.9277H7.5L7.5293 10.7812Z" fill="black" stroke="black"/>
<path opacity="0.756863" d="M8.4668 10.7812L8.49609 10.9277H8.4375L8.4668 10.7812Z" fill="black" stroke="black"/>
<path opacity="0.756863" d="M28.5645 10.8984L28.5938 11.0449H28.5352L28.5645 10.8984Z" fill="black" stroke="black"/>
<path opacity="0.756863" d="M29.502 10.8984L29.5312 11.0449H29.4727L29.502 10.8984Z" fill="black" stroke="black"/>
<path opacity="0.756863" d="M28.5059 11.1914L28.5352 11.3379H28.4766L28.5059 11.1914Z" fill="black" stroke="black"/>
<path opacity="0.756863" d="M29.4434 11.1914L29.4727 11.3379H29.4141L29.4434 11.1914Z" fill="black" stroke="black"/>
<path opacity="0.756863" d="M7.64648 11.4258L7.67578 11.5723H7.61719L7.64648 11.4258Z" fill="black" stroke="black"/>
<path opacity="0.756863" d="M8.58398 11.4258L8.61328 11.5723H8.55469L8.58398 11.4258Z" fill="black" stroke="black"/>
<path opacity="0.756863" d="M28.4473 11.4844L28.4766 11.6309H28.418L28.4473 11.4844Z" fill="black" stroke="black"/>
<path opacity="0.756863" d="M7.70508 11.7773L7.73438 11.9238H7.67578L7.70508 11.7773Z" fill="black" stroke="black"/>
<path opacity="0.756863" d="M8.64258 11.7773L8.67188 11.9238H8.61328L8.64258 11.7773Z" fill="black" stroke="black"/>
<path opacity="0.756863" d="M7.76367 12.0703L7.79297 12.2168H7.73438L7.76367 12.0703Z" fill="black" stroke="black"/>
<path opacity="0.756863" d="M8.70117 12.0703L8.73047 12.2168H8.67188L8.70117 12.0703Z" fill="black" stroke="black"/>
<path opacity="0.756863" d="M29.2676 12.1289L29.2969 12.2754H29.2383L29.2676 12.1289Z" fill="black" stroke="black"/>
<path opacity="0.756863" d="M7.82227 12.4219L7.85156 12.5684H7.79297L7.82227 12.4219Z" fill="black" stroke="black"/>
<path opacity="0.756863" d="M8.75977 12.4219L8.78906 12.5684H8.73047L8.75977 12.4219Z" fill="black" stroke="black"/>
<path opacity="0.756863" d="M28.2715 12.4219L28.3008 12.5684H28.2422L28.2715 12.4219Z" fill="black" stroke="black"/>
<path opacity="0.756863" d="M29.209 12.4219L29.2383 12.5684H29.1797L29.209 12.4219Z" fill="black" stroke="black"/>
<path opacity="0.756863" d="M28.2129 12.7148L28.2422 12.8613H28.1836L28.2129 12.7148Z" fill="black" stroke="black"/>
<path opacity="0.756863" d="M29.1504 12.7148L29.1797 12.8613H29.1211L29.1504 12.7148Z" fill="black" stroke="black"/>
<path opacity="0.756863" d="M7.88086 12.7734L7.91016 12.9199H7.85156L7.88086 12.7734Z" fill="black" stroke="black"/>
<path opacity="0.756863" d="M8.81836 12.7734L8.84766 12.9199H8.78906L8.81836 12.7734Z" fill="black" stroke="black"/>
<path opacity="0.756863" d="M28.1543 13.0078L28.1836 13.1543H28.125L28.1543 13.0078Z" fill="black" stroke="black"/>
<path opacity="0.756863" d="M7.93945 13.0664L7.96875 13.2129H7.91016L7.93945 13.0664Z" fill="black" stroke="black"/>
<path opacity="0.756863" d="M8.87695 13.0664L8.90625 13.2129H8.84766L8.87695 13.0664Z" fill="black" stroke="black"/>
<path opacity="0.756863" d="M7.99805 13.418L8.02734 13.5645H7.96875L7.99805 13.418Z" fill="black" stroke="black"/>
<path opacity="0.756863" d="M8.93555 13.418L8.96484 13.5645H8.90625L8.93555 13.418Z" fill="black" stroke="black"/>
<path opacity="0.756863" d="M28.9746 13.6523L29.0039 13.7988H28.9453L28.9746 13.6523Z" fill="black" stroke="black"/>
<path opacity="0.756863" d="M27.9785 13.9453L28.0078 14.0918H27.9492L27.9785 13.9453Z" fill="black" stroke="black"/>
<path opacity="0.756863" d="M28.916 13.9453L28.9453 14.0918H28.8867L28.916 13.9453Z" fill="black" stroke="black"/>
<path opacity="0.756863" d="M8.11523 14.0625L8.14453 14.209H8.08594L8.11523 14.0625Z" fill="black" stroke="black"/>
<path opacity="0.756863" d="M9.05273 14.0625L9.08203 14.209H9.02344L9.05273 14.0625Z" fill="black" stroke="black"/>
<path opacity="0.756863" d="M27.9199 14.2383L27.9492 14.3848H27.8906L27.9199 14.2383Z" fill="black" stroke="black"/>
<path opacity="0.756863" d="M28.8574 14.2383L28.8867 14.3848H28.8281L28.8574 14.2383Z" fill="black" stroke="black"/>
<path opacity="0.756863" d="M8.17383 14.4141L8.20312 14.5605H8.14453L8.17383 14.4141Z" fill="black" stroke="black"/>
<path opacity="0.756863" d="M9.11133 14.4141L9.14062 14.5605H9.08203L9.11133 14.4141Z" fill="black" stroke="black"/>
<path opacity="0.756863" d="M27.8613 14.5312L27.8906 14.6777H27.832L27.8613 14.5312Z" fill="black" stroke="black"/>
<path opacity="0.756863" d="M8.29102 15.0586L8.32031 15.2051H8.26172L8.29102 15.0586Z" fill="black" stroke="black"/>
<path opacity="0.756863" d="M9.22852 15.0586L9.25781 15.2051H9.19922L9.22852 15.0586Z" fill="black" stroke="black"/>
<path opacity="0.756863" d="M28.6816 15.1758L28.7109 15.3223H28.6523L28.6816 15.1758Z" fill="black" stroke="black"/>
<path opacity="0.756863" d="M8.34961 15.4102L8.37891 15.5566H8.32031L8.34961 15.4102Z" fill="black" stroke="black"/>
<path opacity="0.756863" d="M9.28711 15.4102L9.31641 15.5566H9.25781L9.28711 15.4102Z" fill="black" stroke="black"/>
<path opacity="0.756863" d="M27.6855 15.4688L27.7148 15.6152H27.6562L27.6855 15.4688Z" fill="black" stroke="black"/>
<path opacity="0.756863" d="M28.623 15.4688L28.6523 15.6152H28.5938L28.623 15.4688Z" fill="black" stroke="black"/>
<path opacity="0.756863" d="M8.4082 15.7031L8.4375 15.8496H8.37891L8.4082 15.7031Z" fill="black" stroke="black"/>
<path opacity="0.756863" d="M27.627 15.7617L27.6562 15.9082H27.5977L27.627 15.7617Z" fill="black" stroke="black"/>
<path opacity="0.756863" d="M28.5645 15.7617L28.5938 15.9082H28.5352L28.5645 15.7617Z" fill="black" stroke="black"/>
<path opacity="0.756863" d="M8.4668 16.0547L8.49609 16.2012H8.4375L8.4668 16.0547Z" fill="black" stroke="black"/>
<path opacity="0.756863" d="M9.4043 16.0547L9.43359 16.2012H9.375L9.4043 16.0547Z" fill="black" stroke="black"/>
<path opacity="0.756863" d="M27.5684 16.0547L27.5977 16.2012H27.5391L27.5684 16.0547Z" fill="black" stroke="black"/>
<path opacity="0.756863" d="M8.52539 16.4062L8.55469 16.5527H8.49609L8.52539 16.4062Z" fill="black" stroke="black"/>
<path opacity="0.756863" d="M9.46289 16.4062L9.49219 16.5527H9.43359L9.46289 16.4062Z" fill="black" stroke="black"/>
<path opacity="0.756863" d="M8.58398 16.6992L8.61328 16.8457H8.55469L8.58398 16.6992Z" fill="black" stroke="black"/>
<path opacity="0.756863" d="M9.52148 16.6992L9.55078 16.8457H9.49219L9.52148 16.6992Z" fill="black" stroke="black"/>
<path opacity="0.756863" d="M28.3301 16.9922L28.3594 17.1387H28.3008L28.3301 16.9922Z" fill="black" stroke="black"/>
<path opacity="0.756863" d="M8.64258 17.0508L8.67188 17.1973H8.61328L8.64258 17.0508Z" fill="black" stroke="black"/>
<path opacity="0.756863" d="M9.58008 17.0508L9.60938 17.1973H9.55078L9.58008 17.0508Z" fill="black" stroke="black"/>
<path opacity="0.756863" d="M27.334 17.2852L27.3633 17.4316H27.3047L27.334 17.2852Z" fill="black" stroke="black"/>
<path opacity="0.756863" d="M28.2715 17.2852L28.3008 17.4316H28.2422L28.2715 17.2852Z" fill="black" stroke="black"/>
<path opacity="0.756863" d="M8.70117 17.4023L8.73047 17.5488H8.67188L8.70117 17.4023Z" fill="black" stroke="black"/>
<path opacity="0.756863" d="M9.63867 17.4023L9.66797 17.5195L27.3047 17.5488L9.69727 17.5781L9.63867 17.4023Z" fill="black" stroke="black"/>
<path opacity="0.756863" d="M28.2129 17.5781L28.2422 17.7246H28.1836L28.2129 17.5781Z" fill="black" stroke="black"/>
<path opacity="0.756863" d="M8.75977 17.6953L8.78906 17.8418H8.73047L8.75977 17.6953Z" fill="black" stroke="black"/>
<path opacity="0.756863" d="M8.81836 18.0469L8.84766 18.1934H8.78906L8.81836 18.0469Z" fill="black" stroke="black"/>
<path opacity="0.756863" d="M28.0371 18.2812L27.9199 18.457" stroke="black"/>
<path opacity="0.756863" d="M9.87305 18.457L27.7734 18.4863L9.87305 18.5156V18.457Z" fill="black" stroke="black"/>
<path opacity="0.756863" d="M8.93555 18.6914L8.96484 18.8379H8.90625L8.93555 18.6914Z" fill="black" stroke="black"/>
<path opacity="0.756863" d="M9.87305 18.6914L9.90234 18.8379H9.84375L9.87305 18.6914Z" fill="black" stroke="black"/>
<path opacity="0.756863" d="M8.99414 19.043L9.02344 19.1895H8.96484L8.99414 19.043Z" fill="black" stroke="black"/>
<path opacity="0.756863" d="M9.93164 19.043L9.96094 19.1895H9.90234L9.93164 19.043Z" fill="black" stroke="black"/>
<path opacity="0.756863" d="M9.11133 19.6875L9.14062 19.834H9.08203L9.11133 19.6875Z" fill="black" stroke="black"/>
<path opacity="0.756863" d="M10.0488 19.6875L10.0781 19.834H10.0195L10.0488 19.6875Z" fill="black" stroke="black"/>
<path opacity="0.756863" d="M9.16992 20.0391L9.19922 20.1855H9.14062L9.16992 20.0391Z" fill="black" stroke="black"/>
<path opacity="0.756863" d="M10.1074 20.0391L10.1367 20.1855H10.0781L10.1074 20.0391Z" fill="black" stroke="black"/>
<path opacity="0.756863" d="M9.22852 20.332L9.25781 20.4785H9.19922L9.22852 20.332Z" fill="black" stroke="black"/>
<path opacity="0.756863" d="M10.166 20.332L10.1953 20.4785H10.1367L10.166 20.332Z" fill="black" stroke="black"/>
<path opacity="0.756863" d="M9.28711 20.6836L9.31641 20.8301H9.25781L9.28711 20.6836Z" fill="black" stroke="black"/>
<path opacity="0.756863" d="M10.2246 20.6836L10.2539 20.8301H10.1953L10.2246 20.6836Z" fill="black" stroke="black"/>
<path opacity="0.756863" d="M9.3457 21.0352L9.375 21.1816H9.31641L9.3457 21.0352Z" fill="black" stroke="black"/>
<path opacity="0.756863" d="M27.8027 21.5625L27.6855 21.7383" stroke="black"/>
<path opacity="0.756863" d="M9.75586 21.7383L27.5977 21.7676L9.75586 21.7969V21.7383Z" fill="black" stroke="black"/>
<path opacity="0.756863" d="M13.0371 23.3203L13.5352 23.3496L13.0371 23.3789V23.3203Z" fill="black" stroke="black"/>
<path opacity="0.756863" d="M23.7012 23.3203L24.2578 23.3496L23.7012 23.3789V23.3203Z" fill="black" stroke="black"/>
<path opacity="0.756863" d="M23.3496 23.3789L23.4961 23.4082L23.3496 23.4375V23.3789Z" fill="black" stroke="black"/>
<path opacity="0.756863" d="M22.4121 23.7891L22.3535 23.9062" stroke="black"/>
<path opacity="0.756863" d="M25.5762 23.8477L25.6348 23.9648" stroke="black"/>
<path opacity="0.756863" d="M11.5723 23.9062L11.3965 24.1406" stroke="black"/>
<path opacity="0.756863" d="M14.9707 23.9062L15.4395 24.4336" stroke="black"/>
<path opacity="0.756863" d="M22.1777 23.9648L21.8848 24.3164" stroke="black"/>
<path opacity="0.756863" d="M11.2793 24.1992L11.1035 24.4336" stroke="black"/>
<path opacity="0.756863" d="M12.9785 24.2578L13.2422 24.2871L12.9785 24.3164V24.2578Z" fill="black" stroke="black"/>
<path opacity="0.756863" d="M13.3301 24.2578L13.5938 24.2871L13.3301 24.3164V24.2578Z" fill="black" stroke="black"/>
<path opacity="0.756863" d="M23.6426 24.2578L23.9062 24.2871L23.6426 24.3164V24.2578Z" fill="black" stroke="black"/>
<path opacity="0.756863" d="M23.9941 24.2578L24.2578 24.2871L23.9941 24.3164V24.2578Z" fill="black" stroke="black"/>
<path opacity="0.756863" d="M26.1035 24.375L26.1621 24.4922" stroke="black"/>
<path opacity="0.756863" d="M21.7676 24.4336L21.709 24.5508" stroke="black"/>
<path opacity="0.756863" d="M12.334 24.4922L12.2754 24.6094" stroke="black"/>
<path opacity="0.756863" d="M14.209 24.4922L14.2676 24.6094" stroke="black"/>
<path opacity="0.756863" d="M15.498 24.4922L15.5566 24.6094" stroke="black"/>
<path opacity="0.756863" d="M22.9395 24.5508L22.8809 24.668" stroke="black"/>
<path opacity="0.756863" d="M21.6504 24.6094L21.5918 24.7266" stroke="black"/>
<path opacity="0.756863" d="M25.0488 24.6094L25.166 24.7852" stroke="black"/>
<path opacity="0.756863" d="M10.9277 24.668L10.8691 24.7852" stroke="black"/>
<path opacity="0.756863" d="M12.0996 24.668L11.8652 24.9609" stroke="black"/>
<path opacity="0.756863" d="M14.4434 24.668L14.6777 24.9609" stroke="black"/>
<path opacity="0.756863" d="M15.6152 24.668L15.6738 24.7852" stroke="black"/>
<path opacity="0.756863" d="M22.7051 24.7266L22.6465 24.8438" stroke="black"/>
<path opacity="0.756863" d="M25.3418 24.9023L25.4004 25.0195" stroke="black"/>
<path opacity="0.756863" d="M10.5762 25.5469L10.6055 25.6934H10.5469L10.5762 25.5469Z" fill="black" stroke="black"/>
<path opacity="0.756863" d="M15.9668 25.5469L15.9961 25.6934H15.9375L15.9668 25.5469Z" fill="black" stroke="black"/>
<path opacity="0.756863" d="M21.2402 25.6641L21.2695 25.8691H21.2109L21.2402 25.6641Z" fill="black" stroke="black"/>
<path opacity="0.756863" d="M25.752 25.7812L25.7812 26.3965H25.7227L25.752 25.7812Z" fill="black" stroke="black"/>
<path opacity="0.756863" d="M26.6895 25.7812L26.7188 26.3379H26.6602L26.6895 25.7812Z" fill="black" stroke="black"/>
<path opacity="0.756863" d="M11.4551 25.8984L11.4844 26.2793H11.4258L11.4551 25.8984Z" fill="black" stroke="black"/>
<path opacity="0.756863" d="M15.0879 25.8984L15.1172 26.2207H15.0586L15.0879 25.8984Z" fill="black" stroke="black"/>
<path opacity="0.756863" d="M21.2402 26.25L21.2695 26.5137H21.2109L21.2402 26.25Z" fill="black" stroke="black"/>
<path opacity="0.756863" d="M15.9668 26.4258L15.9961 26.5723H15.9375L15.9668 26.4258Z" fill="black" stroke="black"/>
<path opacity="0.756863" d="M10.5762 26.4844L10.6055 26.6309H10.5469L10.5762 26.4844Z" fill="black" stroke="black"/>
<path opacity="0.756863" d="M26.6309 26.543L26.6602 26.6895H26.6016L26.6309 26.543Z" fill="black" stroke="black"/>
<path opacity="0.756863" d="M14.8535 26.9531L14.7949 27.0703" stroke="black"/>
<path opacity="0.756863" d="M25.459 27.0703L25.4004 27.1875" stroke="black"/>
<path opacity="0.756863" d="M11.8066 27.1289L11.9238 27.3047" stroke="black"/>
<path opacity="0.756863" d="M14.7363 27.1289L14.6191 27.3047" stroke="black"/>
<path opacity="0.756863" d="M22.5293 27.1875L22.8223 27.5391" stroke="black"/>
<path opacity="0.756863" d="M12.0996 27.4219L12.2168 27.5977" stroke="black"/>
<path opacity="0.756863" d="M14.4434 27.4219L14.3262 27.5977" stroke="black"/>
<path opacity="0.756863" d="M10.9277 27.4805L10.9863 27.5977" stroke="black"/>
<path opacity="0.756863" d="M15.6152 27.4805L15.5566 27.5977" stroke="black"/>
<path opacity="0.756863" d="M21.6504 27.5391L21.709 27.6562" stroke="black"/>
<path opacity="0.756863" d="M12.334 27.5977L12.4805 27.6855L12.3926 27.7148L12.334 27.5977Z" fill="black" stroke="black"/>
<path opacity="0.756863" d="M26.2207 27.5977L26.1621 27.7148" stroke="black"/>
<path opacity="0.756863" d="M11.0449 27.6562L11.1035 27.7734" stroke="black"/>
<path opacity="0.756863" d="M15.498 27.6562L15.3809 27.832" stroke="black"/>
<path opacity="0.756863" d="M21.7676 27.7148L22.2363 28.2422" stroke="black"/>
<path opacity="0.756863" d="M12.8613 27.832L13.0078 27.8613L12.8613 27.8906V27.832Z" fill="black" stroke="black"/>
<path opacity="0.756863" d="M13.5645 27.832L13.7109 27.8613L13.5645 27.8906V27.832Z" fill="black" stroke="black"/>
<path opacity="0.756863" d="M24.2285 27.832L24.375 27.8613L24.2285 27.8906V27.832Z" fill="black" stroke="black"/>
<path opacity="0.756863" d="M26.0449 27.832L25.752 28.1836" stroke="black"/>
<path opacity="0.756863" d="M11.5723 28.1836L11.6309 28.3008" stroke="black"/>
<path opacity="0.756863" d="M14.9707 28.1836L14.9121 28.3008" stroke="black"/>
<path opacity="0.756863" d="M25.5762 28.2422L25.5176 28.3594" stroke="black"/>
<path opacity="0.756863" d="M22.4121 28.3008L22.4707 28.418" stroke="black"/>
<path opacity="0.756863" d="M25.4004 28.3594L25.3418 28.4766" stroke="black"/>
<path opacity="0.756863" d="M14.6191 28.418L14.5605 28.5352" stroke="black"/>
<path opacity="0.756863" d="M12.8613 28.7695L13.125 28.7988L12.8613 28.8281V28.7695Z" fill="black" stroke="black"/>
<path opacity="0.756863" d="M13.4473 28.7695L13.7109 28.7988L13.4473 28.8281V28.7695Z" fill="black" stroke="black"/>
<path opacity="0.756863" d="M23.584 28.7695L23.8477 28.7988L23.584 28.8281V28.7695Z" fill="black" stroke="black"/>
<path opacity="0.756863" d="M24.1113 28.7695L24.375 28.7988L24.1113 28.8281V28.7695Z" fill="black" stroke="black"/>
<path opacity="0.996078" d="M7.06055 3.80859L7.17773 3.98438" stroke="black"/>
<path opacity="0.996078" d="M25.459 23.7891L25.5176 23.9062" stroke="black"/>
<path opacity="0.996078" d="M11.6895 23.8477L11.6309 23.9648" stroke="black"/>
<path opacity="0.996078" d="M14.8535 23.8477L14.9121 23.9648" stroke="black"/>
<path opacity="0.996078" d="M22.2949 23.9062L22.2363 24.0234" stroke="black"/>
<path opacity="0.996078" d="M25.6934 23.9648L26.0449 24.375" stroke="black"/>
<path opacity="0.996078" d="M11.1035 24.4336L11.0449 24.5508" stroke="black"/>
<path opacity="0.996078" d="M26.1621 24.4922L26.2207 24.6094" stroke="black"/>
<path opacity="0.996078" d="M12.2168 24.5508L12.1582 24.668" stroke="black"/>
<path opacity="0.996078" d="M14.3262 24.5508L14.3848 24.668" stroke="black"/>
<path opacity="0.996078" d="M22.8223 24.6094L22.7637 24.7266" stroke="black"/>
<path opacity="0.996078" d="M25.2246 24.7266L25.3418 24.9023" stroke="black"/>
<path opacity="0.996078" d="M22.5879 24.8438L22.5293 24.9609" stroke="black"/>
<path opacity="0.996078" d="M11.8066 24.9609L11.748 25.0781" stroke="black"/>
<path opacity="0.996078" d="M21.2402 25.8984L21.2695 26.2207H21.2109L21.2402 25.8984Z" fill="black" stroke="black"/>
<path opacity="0.996078" d="M25.4004 27.1875L25.2832 27.3633" stroke="black"/>
<path opacity="0.996078" d="M11.8652 27.2461L12.041 27.4805" stroke="black"/>
<path opacity="0.996078" d="M14.6191 27.3047L14.502 27.4805" stroke="black"/>
<path opacity="0.996078" d="M25.166 27.4219L25.1074 27.5391" stroke="black"/>
<path opacity="0.996078" d="M26.1035 27.7148L26.0449 27.832" stroke="black"/>
<path opacity="0.996078" d="M11.1621 27.7734L11.5137 28.1836" stroke="black"/>
<path opacity="0.996078" d="M15.3223 27.832L15.0293 28.1836" stroke="black"/>
<path opacity="0.996078" d="M25.6934 28.125L25.6348 28.2422" stroke="black"/>
<path opacity="0.996078" d="M23.877 28.7695L24.082 28.7988L23.877 28.8281V28.7695Z" fill="black" stroke="black"/>
<path d="M0.322266 1.23047H0.673828L1.55273 1.58203L6.88477 3.75L7.20703 4.01367L7.55859 5.71289L7.61719 6.35742L7.73438 6.70898L7.79297 7.35352L7.91016 7.70508L7.96875 8.34961L8.08594 8.70117L8.14453 9.3457L8.37891 10.3418L8.4375 10.9863L8.55469 11.3379L8.61328 11.9824L8.73047 12.334L8.78906 12.9785L9.02344 13.9746V14.2676L9.19922 14.9707L9.60938 17.5781H27.2754L27.3633 17.4902L27.4219 16.9043L27.7148 15.6738V15.3809L28.0078 14.1504V13.8574L28.3008 12.627V12.334L28.5938 11.1035V10.8105L28.8867 9.58008L29.0625 8.4082L29.2676 8.02734L29.6777 7.96875L29.8828 8.11523C29.9727 8.24023 29.9922 8.43555 29.9414 8.70117L29.707 9.63867V9.93164L29.4141 11.1621V11.4551L29.1211 12.6855V12.9785L28.8281 14.209V14.502L28.5352 15.7324V16.0254L28.2422 17.2559L28.125 18.1348L27.9199 18.3984L27.8027 18.457H9.78516L10.1953 20.8594H27.4512L27.832 21.123L27.8906 21.3574L27.6855 21.6797L27.5684 21.7383H9.69727L9.49219 21.5918L9.31641 20.9473L9.25781 20.3027L9.14062 19.9512L9.08203 19.3066L8.84766 18.3105L8.78906 17.666L8.67188 17.3145L8.61328 16.6699L8.49609 16.3184L8.4375 15.6738L8.32031 15.3223L8.26172 14.6777L8.02734 13.6816L7.96875 13.0371L7.85156 12.6855L7.79297 12.041L7.67578 11.6895L7.61719 11.0449L7.38281 10.0488L7.32422 9.4043L7.20703 9.05273L7.14844 8.4082L7.03125 8.05664L6.97266 7.41211L6.85547 7.06055V6.76758L6.44531 4.51172L0.556641 2.16797L0.117188 1.9043L0.0585938 1.49414L0.205078 1.28906L0.322266 1.23047Z" fill="black" stroke="black"/>
<path d="M12.8613 23.3789H13.6816L14.1504 23.4961C14.6738 23.6953 15.0937 23.998 15.4102 24.4043C15.8125 24.8418 16.0078 25.4863 15.9961 26.3379C15.8437 27.2207 15.4629 27.875 14.8535 28.3008L14.0332 28.7109L13.3301 28.7695L13.2715 28.8281L13.2129 28.7695L12.5098 28.7109L11.8652 28.418L11.0742 27.6855L10.6055 26.6895L10.5469 25.8105C10.6797 24.9863 11.0215 24.3711 11.5723 23.9648C11.916 23.6836 12.3457 23.4883 12.8613 23.3789ZM12.9492 24.2578L12.2461 24.5508C11.8164 24.8242 11.543 25.2539 11.4258 25.8398L11.4844 26.6602L11.8359 27.3047C12.0703 27.5781 12.4219 27.7734 12.8906 27.8906C13.6328 27.9688 14.1797 27.832 14.5312 27.4805C14.8437 27.207 15.0391 26.8164 15.1172 26.3086C15.1562 25.7227 15.0391 25.293 14.7656 25.0195C14.5703 24.707 14.2773 24.4727 13.8867 24.3164L12.9492 24.2578Z" fill="black" stroke="black"/>
<path d="M23.584 23.3789H24.3457L24.9902 23.5547C25.4551 23.7734 25.8359 24.0762 26.1328 24.4629L26.543 25.2246L26.6602 25.6934V26.4551C26.5234 27.1777 26.2207 27.7344 25.752 28.125C25.4707 28.3906 25.1191 28.5859 24.6973 28.7109C24.373 28.8164 23.9629 28.8359 23.4668 28.7695C22.7324 28.6055 22.1758 28.2637 21.7969 27.7441C21.5391 27.4355 21.3633 27.0449 21.2695 26.5723V25.5762C21.4258 24.9121 21.7285 24.3945 22.1777 24.0234C22.5332 23.6953 23.002 23.4805 23.584 23.3789ZM23.6133 24.2578L22.8516 24.6094C22.5391 24.8047 22.3242 25.0977 22.207 25.4883L22.0898 26.1328L22.2656 26.8945L22.4414 27.1875C22.6758 27.5391 23.0469 27.7734 23.5547 27.8906H24.4336L25.1367 27.5391C25.4492 27.2656 25.6641 26.9141 25.7812 26.4844C25.8594 25.7422 25.7227 25.2148 25.3711 24.9023L24.7266 24.375C24.4141 24.2578 24.043 24.2187 23.6133 24.2578Z" fill="black" stroke="black"/>
</g>
<defs>
<clipPath id="clip0_134_786">
<rect width="30" height="30" fill="white"/>
</clipPath>
</defs>
</svg>
