<svg width="35" height="35" viewBox="0 0 35 35" fill="none" xmlns="http://www.w3.org/2000/svg">
<path opacity="0.552941" d="M4.47754 5.81055L9.57031 5.84473L4.47754 5.87891V5.81055Z" fill="black" stroke="black"/>
<path opacity="0.552941" d="M26.6943 6.97266L28.3691 7.00684L26.6943 7.04102V6.97266Z" fill="black" stroke="black"/>
<path opacity="0.552941" d="M26.0791 7.24609L25.9424 7.45117" stroke="black"/>
<path opacity="0.552941" d="M3.72559 7.65625L3.79395 7.79297" stroke="black"/>
<path opacity="0.552941" d="M25.6689 8.06641L25.7031 8.2373H25.6348L25.6689 8.06641Z" fill="black" stroke="black"/>
<path opacity="0.552941" d="M4.61426 8.13477L8.33984 8.16895L4.61426 8.20312V8.13477Z" fill="black" stroke="black"/>
<path opacity="0.552941" d="M19.7217 8.13477L19.9609 8.16895L19.7217 8.20312V8.13477Z" fill="black" stroke="black"/>
<path opacity="0.552941" d="M30.7959 8.27148L30.8643 8.4082" stroke="black"/>
<path opacity="0.552941" d="M25.9424 8.88672L26.0791 9.0918" stroke="black"/>
<path opacity="0.552941" d="M26.7627 9.29688L28.1641 9.33105L26.7627 9.36523V9.29688Z" fill="black" stroke="black"/>
<path opacity="0.552941" d="M24.2334 13.5352L24.0967 13.7402" stroke="black"/>
<path opacity="0.552941" d="M20.7471 17.0215L20.542 17.2949" stroke="black"/>
<path opacity="0.552941" d="M27.1045 19.8926L27.0361 20.0293" stroke="black"/>
<path opacity="0.552941" d="M26.2158 20.3711L26.3867 20.4053L26.2158 20.4395V20.3711Z" fill="black" stroke="black"/>
<path opacity="0.552941" d="M13.7744 22.6953L14.0137 22.7295L13.7744 22.7637V22.6953Z" fill="black" stroke="black"/>
<path opacity="0.552941" d="M26.4209 22.6953L26.5918 22.7295L26.4209 22.7637V22.6953Z" fill="black" stroke="black"/>
<path opacity="0.552941" d="M14.9365 24.4727L15.4492 24.5068L14.9365 24.541V24.4727Z" fill="black" stroke="black"/>
<path opacity="0.552941" d="M25.3955 24.4727L25.9766 24.5068L25.3955 24.541V24.4727Z" fill="black" stroke="black"/>
<path opacity="0.552941" d="M23.4131 25.293L23.3447 25.4297" stroke="black"/>
<path opacity="0.552941" d="M27.9248 25.293L27.9932 25.4297" stroke="black"/>
<path opacity="0.552941" d="M28.2666 25.6348L28.335 25.7715" stroke="black"/>
<path opacity="0.552941" d="M15.0732 26.7969L15.3125 26.8311L15.0732 26.8652V26.7969Z" fill="black" stroke="black"/>
<path opacity="0.552941" d="M25.6006 26.7969L25.8398 26.8311L25.6006 26.8652V26.7969Z" fill="black" stroke="black"/>
<path opacity="0.552941" d="M24.917 27.0703L24.7803 27.2754" stroke="black"/>
<path opacity="0.552941" d="M26.4209 27.0703L26.5576 27.2754" stroke="black"/>
<path opacity="0.552941" d="M22.1826 27.6172L22.2168 27.7881H22.1484L22.1826 27.6172Z" fill="black" stroke="black"/>
<path opacity="0.552941" d="M29.1553 27.6855L29.1895 28.335H29.1211L29.1553 27.6855Z" fill="black" stroke="black"/>
<path opacity="0.552941" d="M24.5068 27.8223L24.541 28.1982H24.4727L24.5068 27.8223Z" fill="black" stroke="black"/>
<path opacity="0.552941" d="M26.8311 27.8223L26.8652 28.1299H26.7969L26.8311 27.8223Z" fill="black" stroke="black"/>
<path opacity="0.552941" d="M22.1826 28.1641L22.2168 28.335H22.1484L22.1826 28.1641Z" fill="black" stroke="black"/>
<path opacity="0.552941" d="M26.626 28.6426L26.5576 28.7793" stroke="black"/>
<path opacity="0.552941" d="M26.4209 28.8477L26.3525 28.9844" stroke="black"/>
<path opacity="0.552941" d="M28.4033 30.1465L28.335 30.2832" stroke="black"/>
<path opacity="0.552941" d="M12.5439 30.2832L12.8174 30.625" stroke="black"/>
<path opacity="0.552941" d="M14.7998 31.4453L14.9707 31.4795L14.7998 31.5137V31.4453Z" fill="black" stroke="black"/>
<path opacity="0.552941" d="M15.3467 31.4453L15.5859 31.4795L15.3467 31.5137V31.4453Z" fill="black" stroke="black"/>
<path opacity="0.552941" d="M25.2588 31.4453L25.4297 31.4795L25.2588 31.5137V31.4453Z" fill="black" stroke="black"/>
<path opacity="0.552941" d="M25.874 31.4453L26.0449 31.4795L25.874 31.5137V31.4453Z" fill="black" stroke="black"/>
<path opacity="0.960784" d="M10.1514 6.15234L10.2197 6.28906" stroke="black"/>
<path opacity="0.960784" d="M30.4541 7.92969L30.5908 8.13477" stroke="black"/>
<path opacity="0.960784" d="M20.542 8.4082L20.6787 8.61328" stroke="black"/>
<path opacity="0.960784" d="M18.6963 9.22852L18.7305 11.6553H18.6621L18.6963 9.22852Z" fill="black" stroke="black"/>
<path opacity="0.960784" d="M28.7451 9.50195L28.9502 9.77539" stroke="black"/>
<path opacity="0.960784" d="M31.5479 10.3223L31.582 10.6299H31.5137L31.5479 10.3223Z" fill="black" stroke="black"/>
<path opacity="0.960784" d="M24.0967 11.9629L24.2334 12.168" stroke="black"/>
<path opacity="0.960784" d="M18.6963 14.0137L18.7305 16.3721H18.6621L18.6963 14.0137Z" fill="black" stroke="black"/>
<path opacity="0.960784" d="M13.2275 19.9609L13.4326 20.2344" stroke="black"/>
<path opacity="0.960784" d="M11.5186 21.4648L11.8604 21.875" stroke="black"/>
<path opacity="0.960784" d="M28.4717 21.8066L28.4033 21.9434" stroke="black"/>
<path opacity="0.960784" d="M12.9541 25.293L12.8857 25.4297" stroke="black"/>
<path opacity="0.960784" d="M17.5342 25.4297L17.7393 25.7031" stroke="black"/>
<path opacity="0.960784" d="M12.5439 25.7031L12.4756 25.8398" stroke="black"/>
<path opacity="0.960784" d="M22.9346 25.8398L22.8662 25.9766" stroke="black"/>
<path opacity="0.960784" d="M15.9619 27.0703L16.0986 27.2754" stroke="black"/>
<path opacity="0.960784" d="M24.7803 28.7793L24.8486 28.916" stroke="black"/>
<path opacity="0.960784" d="M17.8076 30.2148L17.6709 30.4199" stroke="black"/>
<path opacity="0.960784" d="M17.5342 30.4883L17.3975 30.6934" stroke="black"/>
<path opacity="0.960784" d="M12.9541 30.625L13.0225 30.7617" stroke="black"/>
<path opacity="0.278431" d="M28.4033 6.97266L28.5742 7.00684L28.4033 7.04102V6.97266Z" fill="black" stroke="black"/>
<path opacity="0.278431" d="M30.5225 7.92969L30.6592 8.13477" stroke="black"/>
<path opacity="0.278431" d="M20.6104 8.4082L20.7471 8.61328" stroke="black"/>
<path opacity="0.278431" d="M21.0205 9.22852L21.0547 11.6211L23.5156 11.6553L21.0889 11.6895L20.9863 11.5869L21.0205 9.22852Z" fill="black" stroke="black"/>
<path opacity="0.278431" d="M28.8818 9.70703L28.9502 9.84375" stroke="black"/>
<path opacity="0.278431" d="M16.167 11.6211L18.6621 11.6553L16.167 11.6895V11.6211Z" fill="black" stroke="black"/>
<path opacity="0.278431" d="M24.0967 11.8945L24.2334 12.0996" stroke="black"/>
<path opacity="0.278431" d="M24.5068 12.6465L24.541 13.0225H24.4727L24.5068 12.6465Z" fill="black" stroke="black"/>
<path opacity="0.278431" d="M15.415 13.5352L15.6201 13.8086" stroke="black"/>
<path opacity="0.278431" d="M21.0205 14.0137L21.0547 16.3721H20.9863L21.0205 14.0137Z" fill="black" stroke="black"/>
<path opacity="0.278431" d="M18.9014 17.0215L19.1064 17.2949" stroke="black"/>
<path opacity="0.278431" d="M13.2275 19.8926L13.4326 20.166" stroke="black"/>
<path opacity="0.278431" d="M26.9678 20.0293L26.8994 20.166" stroke="black"/>
<path opacity="0.278431" d="M14.1162 20.3711L26.1816 20.4053L14.1162 20.4395V20.3711Z" fill="black" stroke="black"/>
<path opacity="0.278431" d="M28.8818 21.4648L28.6768 21.7383" stroke="black"/>
<path opacity="0.278431" d="M11.5186 21.5332L11.792 21.875" stroke="black"/>
<path opacity="0.278431" d="M28.54 21.8066L28.4033 22.0117" stroke="black"/>
<path opacity="0.278431" d="M14.7314 24.4727L14.9023 24.5068L14.7314 24.541V24.4727Z" fill="black" stroke="black"/>
<path opacity="0.278431" d="M15.4834 24.4727L15.6543 24.5068L15.4834 24.541V24.4727Z" fill="black" stroke="black"/>
<path opacity="0.278431" d="M17.1924 25.0879L17.2607 25.2246" stroke="black"/>
<path opacity="0.278431" d="M23.5498 25.1562L23.4814 25.293" stroke="black"/>
<path opacity="0.278431" d="M27.7881 25.1562L27.8564 25.293" stroke="black"/>
<path opacity="0.278431" d="M12.8857 25.293L12.749 25.498" stroke="black"/>
<path opacity="0.278431" d="M17.5342 25.3613L17.7393 25.6348" stroke="black"/>
<path opacity="0.278431" d="M12.6123 25.5664L12.4756 25.7715" stroke="black"/>
<path opacity="0.278431" d="M22.9346 25.7715L22.8662 25.9082" stroke="black"/>
<path opacity="0.278431" d="M28.4033 25.7715L28.4717 25.9082" stroke="black"/>
<path opacity="0.278431" d="M14.5264 27.002L14.458 27.1387" stroke="black"/>
<path opacity="0.278431" d="M15.8936 27.0703L16.0986 27.3438" stroke="black"/>
<path opacity="0.278431" d="M29.1553 27.4805L29.1895 27.6514H29.1211L29.1553 27.4805Z" fill="black" stroke="black"/>
<path opacity="0.278431" d="M11.6553 27.6855L11.6895 28.2666H11.6211L11.6553 27.6855Z" fill="black" stroke="black"/>
<path opacity="0.278431" d="M24.7803 28.7109L24.917 28.916" stroke="black"/>
<path opacity="0.278431" d="M15.8936 28.8477L15.8252 28.9844" stroke="black"/>
<path opacity="0.278431" d="M25.6006 29.1211L25.7715 29.1553L25.6006 29.1895V29.1211Z" fill="black" stroke="black"/>
<path opacity="0.278431" d="M18.0811 29.9414L18.0127 30.0781" stroke="black"/>
<path opacity="0.278431" d="M22.7979 30.0098L22.8662 30.1465" stroke="black"/>
<path opacity="0.278431" d="M12.4072 30.1465L12.4756 30.2832" stroke="black"/>
<path opacity="0.278431" d="M17.876 30.2148L17.4658 30.6934" stroke="black"/>
<path opacity="0.278431" d="M12.8857 30.625L12.9541 30.7617" stroke="black"/>
<path d="M4.40942 5.87891H9.60474C9.93286 5.96094 10.1721 6.13184 10.3225 6.3916L10.5276 6.93848L12.9202 19.3115C12.9885 19.7217 13.1594 20.0293 13.4329 20.2344L13.9114 20.4395H26.4211L27.0706 20.0977L27.344 19.5166L29.2581 10.4932L29.1213 9.94629L28.7454 9.50195L28.2668 9.29688H26.5579L25.9084 8.85254L25.7034 8.44238V7.89551L26.1477 7.24609L26.5579 7.04102H28.6086C29.593 7.24154 30.3336 7.68587 30.8303 8.37402L31.4456 9.60449C31.5732 10.001 31.5959 10.5023 31.5139 11.1084L29.5315 20.2002C29.331 20.8656 29.0006 21.401 28.5403 21.8066C28.08 22.235 27.4875 22.5312 26.7629 22.6953H13.5696C12.5852 22.472 11.8446 22.0049 11.3479 21.2939L10.801 20.2002L8.40845 8.13477H4.40942L3.76001 7.69043C3.55493 7.48535 3.48657 7.14355 3.55493 6.66504L4.06763 6.01562L4.40942 5.87891Z" fill="black" stroke="black"/>
<path d="M19.585 8.20264C20.2412 8.16163 20.6628 8.35531 20.8496 8.7837L20.9863 9.19385V11.689H23.5498C23.9098 11.7847 24.1719 11.9784 24.3359 12.27C24.4681 12.4341 24.5137 12.6847 24.4727 13.022C24.3997 13.341 24.2516 13.5802 24.0283 13.7398L23.6182 13.9448H20.9863V16.4399C20.9316 16.7954 20.7835 17.0575 20.542 17.2261L20.2002 17.4312L19.8584 17.4995L19.3115 17.3628L18.9355 17.0552L18.7305 16.645V14.0474L18.6279 13.9448H16.0303L15.4492 13.5689C15.2669 13.3866 15.1758 13.1131 15.1758 12.7485C15.2441 12.3612 15.415 12.0763 15.6885 11.894L16.167 11.689H18.7305V8.98877L19.2432 8.33936L19.585 8.20264Z" fill="black" stroke="black"/>
<path d="M14.6631 24.541H15.6885L16.5771 24.8145C17.1514 25.0833 17.6185 25.4593 17.9785 25.9424L18.5254 27.0361L18.6621 28.0615L18.457 29.1553L18.252 29.6338L17.6367 30.4883L16.9873 30.9668L16.0303 31.377C15.652 31.5 15.1735 31.5228 14.5947 31.4453L13.7061 31.1719C13.2367 30.9349 12.8379 30.6273 12.5098 30.249C12.2135 29.9072 11.9857 29.4971 11.8262 29.0186L11.6895 28.335V27.6514C11.7897 27.5967 11.8125 27.46 11.7578 27.2412L12.168 26.2158L12.8174 25.4297C13.2777 24.9785 13.8929 24.6823 14.6631 24.541ZM14.9707 26.7969L14.4922 27.002C14.1732 27.1842 13.9909 27.4805 13.9453 27.8906C13.9453 28.2096 14.0137 28.4831 14.1504 28.7109C14.3327 28.9388 14.5833 29.0983 14.9023 29.1895C15.3581 29.2806 15.6999 29.2122 15.9277 28.9844L16.3379 28.3691C16.429 27.8223 16.3607 27.4577 16.1328 27.2754C15.9049 26.9108 15.5176 26.7513 14.9707 26.7969Z" fill="black" stroke="black"/>
<path d="M25.1904 24.541H26.1475L26.8994 24.7461C27.5101 24.9785 28 25.3317 28.3691 25.8057C28.6882 26.1702 28.916 26.626 29.0527 27.1729L29.1211 28.4717C28.9388 29.4971 28.4945 30.2604 27.7881 30.7617L26.5576 31.377L26.2158 31.4453H25.1221C24.1377 31.2448 23.3971 30.8005 22.9004 30.1123L22.2852 28.8818L22.2168 28.54V27.4463C22.4128 26.5029 22.8343 25.7852 23.4814 25.293C23.9189 24.9102 24.4886 24.6595 25.1904 24.541ZM25.498 26.7969L25.0879 26.9336C24.7689 27.1159 24.5638 27.3893 24.4727 27.7539C24.4271 28.2552 24.5182 28.6198 24.7461 28.8477L25.4297 29.1895C25.7943 29.235 26.0905 29.1895 26.3184 29.0527C26.5918 28.8704 26.7741 28.6198 26.8652 28.3008C26.9108 27.8906 26.8652 27.5944 26.7285 27.4121C26.5462 26.9564 26.1361 26.7513 25.498 26.7969Z" fill="black" stroke="black"/>
<path opacity="0.8" d="M3.93066 6.08398L3.79395 6.28906" stroke="black"/>
<path opacity="0.8" d="M3.52051 6.83594L3.55469 7.0752H3.48633L3.52051 6.83594Z" fill="black" stroke="black"/>
<path opacity="0.8" d="M30.3174 7.79297L30.3857 7.92969" stroke="black"/>
<path opacity="0.8" d="M30.6592 8.13477L30.7275 8.27148" stroke="black"/>
<path opacity="0.8" d="M19.1064 8.4082L18.9697 8.61328" stroke="black"/>
<path opacity="0.8" d="M31.5479 10.1172L31.582 10.2881H31.5137L31.5479 10.1172Z" fill="black" stroke="black"/>
<path opacity="0.8" d="M31.5479 10.6641L31.582 10.835H31.5137L31.5479 10.6641Z" fill="black" stroke="black"/>
<path opacity="0.8" d="M15.6201 11.8945L15.415 12.168" stroke="black"/>
<path opacity="0.8" d="M16.2354 13.9453L18.6621 13.9795L16.2354 14.0137V13.9453Z" fill="black" stroke="black"/>
<path opacity="0.8" d="M21.0205 13.9453L23.4473 13.9795L21.0205 14.0137V13.9453Z" fill="black" stroke="black"/>
<path opacity="0.8" d="M28.9502 21.3281L28.8818 21.4648" stroke="black"/>
<path opacity="0.8" d="M11.9287 21.875L11.9971 22.0117" stroke="black"/>
<path opacity="0.8" d="M14.0479 22.6953L26.3867 22.7295L14.0479 22.7637V22.6953Z" fill="black" stroke="black"/>
<path opacity="0.8" d="M17.3975 25.293L17.4658 25.4297" stroke="black"/>
<path opacity="0.8" d="M23.2764 25.4297L23.0713 25.7031" stroke="black"/>
<path opacity="0.8" d="M28.0615 25.4297L28.1982 25.6348" stroke="black"/>
<path opacity="0.8" d="M17.8076 25.7031L17.876 25.8398" stroke="black"/>
<path opacity="0.8" d="M14.3896 27.0703L14.2529 27.2754" stroke="black"/>
<path opacity="0.8" d="M22.1826 27.8223L22.2168 28.1299H22.1484L22.1826 27.8223Z" fill="black" stroke="black"/>
<path opacity="0.8" d="M13.9795 27.8906L14.0137 28.0615H13.9453L13.9795 27.8906Z" fill="black" stroke="black"/>
<path opacity="0.8" d="M18.6279 28.2324L18.6621 28.4033H18.5938L18.6279 28.2324Z" fill="black" stroke="black"/>
<path opacity="0.8" d="M16.0303 28.7793L15.9619 28.916" stroke="black"/>
<path opacity="0.8" d="M14.3896 28.8477L14.458 28.9844" stroke="black"/>
<path opacity="0.8" d="M12.3389 30.0098L12.4072 30.1465" stroke="black"/>
<path opacity="0.8" d="M23.0029 30.2148L23.4131 30.6934" stroke="black"/>
<path opacity="0.8" d="M28.2666 30.2832L27.9248 30.6934" stroke="black"/>
<path opacity="0.8" d="M15.0049 31.4453L15.3125 31.4795L15.0049 31.5137V31.4453Z" fill="black" stroke="black"/>
<path opacity="0.8" d="M25.4639 31.4453L25.8398 31.4795L25.4639 31.5137V31.4453Z" fill="black" stroke="black"/>
</svg>
