<svg width="30" height="30" viewBox="0 0 30 30" fill="none" xmlns="http://www.w3.org/2000/svg">
<g clip-path="url(#clip0_131_598)">
<path opacity="0.772549" d="M9.4043 2.8125L9.72656 2.8418L9.4043 2.87109V2.8125Z" fill="black" stroke="black"/>
<path opacity="0.772549" d="M10.2832 2.8125L10.6641 2.8418L10.2832 2.87109V2.8125Z" fill="black" stroke="black"/>
<path opacity="0.772549" d="M8.99414 2.87109L9.14062 2.90039L8.99414 2.92969V2.87109Z" fill="black" stroke="black"/>
<path opacity="0.772549" d="M10.9277 2.87109L11.0742 2.90039L10.9277 2.92969V2.87109Z" fill="black" stroke="black"/>
<path opacity="0.772549" d="M11.2207 2.92969L11.3672 2.95898L11.2207 2.98828V2.92969Z" fill="black" stroke="black"/>
<path opacity="0.772549" d="M12.8613 3.51562L12.9199 3.63281" stroke="black"/>
<path opacity="0.772549" d="M6.94336 3.63281L6.88477 3.75" stroke="black"/>
<path opacity="0.772549" d="M13.1543 3.69141L13.2129 3.80859" stroke="black"/>
<path opacity="0.772549" d="M13.3301 3.80859L13.3887 3.92578" stroke="black"/>
<path opacity="0.772549" d="M6.5918 3.86719L6.5332 3.98438" stroke="black"/>
<path opacity="0.772549" d="M13.5059 3.92578L13.623 4.10156" stroke="black"/>
<path opacity="0.772549" d="M6.41602 3.98438L6.29883 4.16016" stroke="black"/>
<path opacity="0.772549" d="M20.8887 4.04297L21.6211 4.07227L20.8887 4.10156V4.04297Z" fill="black" stroke="black"/>
<path opacity="0.772549" d="M21.9434 4.10156L22.0898 4.13086L21.9434 4.16016V4.10156Z" fill="black" stroke="black"/>
<path opacity="0.772549" d="M13.7988 4.16016L13.9746 4.39453" stroke="black"/>
<path opacity="0.772549" d="M22.2363 4.16016L22.3828 4.18945L22.2363 4.21875V4.16016Z" fill="black" stroke="black"/>
<path opacity="0.772549" d="M6.06445 4.27734L5.53711 4.86328" stroke="black"/>
<path opacity="0.772549" d="M19.0723 4.57031L19.0137 4.6875" stroke="black"/>
<path opacity="0.772549" d="M23.6426 4.6875L23.7012 4.80469" stroke="black"/>
<path opacity="0.772549" d="M14.3848 4.74609L14.5605 4.98047" stroke="black"/>
<path opacity="0.772549" d="M23.8184 4.80469L23.877 4.92188" stroke="black"/>
<path opacity="0.772549" d="M18.6035 4.86328L18.5449 4.98047" stroke="black"/>
<path opacity="0.772549" d="M23.9941 4.92188L24.0527 5.03906" stroke="black"/>
<path opacity="0.772549" d="M18.4277 4.98047L18.3105 5.15625" stroke="black"/>
<path opacity="0.772549" d="M5.36133 5.03906L5.24414 5.21484" stroke="black"/>
<path opacity="0.772549" d="M14.6777 5.09766L14.7949 5.27344" stroke="black"/>
<path opacity="0.772549" d="M24.2285 5.09766L24.873 5.80078" stroke="black"/>
<path opacity="0.772549" d="M18.1348 5.21484L17.7832 5.625" stroke="black"/>
<path opacity="0.772549" d="M5.18555 5.27344L5.12695 5.39062" stroke="black"/>
<path opacity="0.772549" d="M14.8535 5.33203L14.9121 5.44922" stroke="black"/>
<path opacity="0.772549" d="M5.06836 5.44922L5.00977 5.56641" stroke="black"/>
<path opacity="0.772549" d="M14.9707 5.50781L15.0293 5.625" stroke="black"/>
<path opacity="0.772549" d="M4.95117 5.625L4.89258 5.74219" stroke="black"/>
<path opacity="0.772549" d="M15.1465 5.80078L15.2051 5.91797" stroke="black"/>
<path opacity="0.772549" d="M17.6074 5.80078L17.4902 5.97656" stroke="black"/>
<path opacity="0.772549" d="M24.9902 5.91797L25.0488 6.03516" stroke="black"/>
<path opacity="0.772549" d="M17.4316 6.03516L17.373 6.15234" stroke="black"/>
<path opacity="0.772549" d="M25.1074 6.09375L25.166 6.21094" stroke="black"/>
<path opacity="0.772549" d="M17.3145 6.21094L17.2559 6.32812" stroke="black"/>
<path opacity="0.772549" d="M25.2246 6.26953L25.2832 6.38672" stroke="black"/>
<path opacity="0.772549" d="M16.9629 6.85547L16.9922 7.00195H16.9336L16.9629 6.85547Z" fill="black" stroke="black"/>
<path opacity="0.772549" d="M17.0801 7.44141L17.1094 7.58789H17.0508L17.0801 7.44141Z" fill="black" stroke="black"/>
<path opacity="0.772549" d="M25.8105 7.61719L25.8398 7.76367H25.7812L25.8105 7.61719Z" fill="black" stroke="black"/>
<path opacity="0.772549" d="M15.8496 7.67578L15.8789 7.82227H15.8203L15.8496 7.67578Z" fill="black" stroke="black"/>
<path opacity="0.772549" d="M4.13086 7.79297L4.16016 7.99805H4.10156L4.13086 7.79297Z" fill="black" stroke="black"/>
<path opacity="0.772549" d="M17.1387 7.79297L17.168 7.99805H17.1094L17.1387 7.79297Z" fill="black" stroke="black"/>
<path opacity="0.772549" d="M25.8691 7.91016L25.8984 8.05664H25.8398L25.8691 7.91016Z" fill="black" stroke="black"/>
<path opacity="0.772549" d="M15.9082 8.08594L15.9375 8.4668H15.8789L15.9082 8.08594Z" fill="black" stroke="black"/>
<path opacity="0.772549" d="M4.07227 8.32031L4.10156 9.16992H4.04297L4.07227 8.32031Z" fill="black" stroke="black"/>
<path opacity="0.772549" d="M17.1973 8.37891L17.2266 9.11133H17.168L17.1973 8.37891Z" fill="black" stroke="black"/>
<path opacity="0.772549" d="M25.9277 8.37891L25.957 9.11133H25.8984L25.9277 8.37891Z" fill="black" stroke="black"/>
<path opacity="0.772549" d="M15.9082 9.02344L15.9375 9.3457H15.8789L15.9082 9.02344Z" fill="black" stroke="black"/>
<path opacity="0.772549" d="M25.8691 9.375L25.8984 9.52148H25.8398L25.8691 9.375Z" fill="black" stroke="black"/>
<path opacity="0.772549" d="M4.13086 9.49219L4.16016 9.63867H4.10156L4.13086 9.49219Z" fill="black" stroke="black"/>
<path opacity="0.772549" d="M17.1387 9.49219L17.168 9.69727H17.1094L17.1387 9.49219Z" fill="black" stroke="black"/>
<path opacity="0.772549" d="M15.8496 9.60938L15.8789 9.75586H15.8203L15.8496 9.60938Z" fill="black" stroke="black"/>
<path opacity="0.772549" d="M4.18945 9.84375L4.21875 9.99023H4.16016L4.18945 9.84375Z" fill="black" stroke="black"/>
<path opacity="0.772549" d="M17.0801 9.90234L17.1094 10.0488H17.0508L17.0801 9.90234Z" fill="black" stroke="black"/>
<path opacity="0.772549" d="M17.0215 10.1953L17.0508 10.3418H16.9922L17.0215 10.1953Z" fill="black" stroke="black"/>
<path opacity="0.772549" d="M16.9629 10.4883L16.9922 10.6348H16.9336L16.9629 10.4883Z" fill="black" stroke="black"/>
<path opacity="0.772549" d="M25.459 10.7812L25.4004 10.8984" stroke="black"/>
<path opacity="0.772549" d="M17.2559 11.1914L17.3145 11.3086" stroke="black"/>
<path opacity="0.772549" d="M25.2246 11.1914L25.166 11.3086" stroke="black"/>
<path opacity="0.772549" d="M17.373 11.3672L17.4902 11.543" stroke="black"/>
<path opacity="0.772549" d="M25.1074 11.3672L25.0488 11.4844" stroke="black"/>
<path opacity="0.772549" d="M24.9902 11.543L24.873 11.7188" stroke="black"/>
<path opacity="0.772549" d="M17.5488 11.6016L17.7246 11.8359" stroke="black"/>
<path opacity="0.772549" d="M15.0879 11.7773L15.0293 11.8945" stroke="black"/>
<path opacity="0.772549" d="M24.6973 11.8945L24.4629 12.1875" stroke="black"/>
<path opacity="0.772549" d="M14.8535 12.1289L14.7949 12.2461" stroke="black"/>
<path opacity="0.772549" d="M5.18555 12.1875L5.24414 12.3047" stroke="black"/>
<path opacity="0.772549" d="M18.1934 12.2461L18.3691 12.4805" stroke="black"/>
<path opacity="0.772549" d="M14.7363 12.3047L14.6191 12.4805" stroke="black"/>
<path opacity="0.772549" d="M24.2285 12.3047L24.1113 12.4805" stroke="black"/>
<path opacity="0.772549" d="M5.36133 12.4219L5.47852 12.5977" stroke="black"/>
<path opacity="0.772549" d="M18.4863 12.4805L18.5449 12.5977" stroke="black"/>
<path opacity="0.772549" d="M23.9355 12.5391L23.877 12.6562" stroke="black"/>
<path opacity="0.772549" d="M14.4434 12.6562L13.916 13.2422" stroke="black"/>
<path opacity="0.772549" d="M23.7598 12.6562L23.7012 12.7734" stroke="black"/>
<path opacity="0.772549" d="M18.8379 12.7148L18.8965 12.832" stroke="black"/>
<path opacity="0.772549" d="M5.77148 12.8906L5.88867 13.0664" stroke="black"/>
<path opacity="0.772549" d="M6.18164 13.2422L6.29883 13.418" stroke="black"/>
<path opacity="0.772549" d="M20.2441 13.3008L20.3906 13.3301L20.2441 13.3594V13.3008Z" fill="black" stroke="black"/>
<path opacity="0.772549" d="M22.1191 13.3008L22.2656 13.3301L22.1191 13.3594V13.3008Z" fill="black" stroke="black"/>
<path opacity="0.772549" d="M13.6816 13.3594L13.623 13.4766" stroke="black"/>
<path opacity="0.772549" d="M20.5957 13.3594L20.8008 13.3887L20.5957 13.418V13.3594Z" fill="black" stroke="black"/>
<path opacity="0.772549" d="M21.7676 13.3594L21.9727 13.3887L21.7676 13.418V13.3594Z" fill="black" stroke="black"/>
<path opacity="0.772549" d="M6.47461 13.4766L6.5332 13.5938" stroke="black"/>
<path opacity="0.772549" d="M13.4473 13.5352L13.3887 13.6523" stroke="black"/>
<path opacity="0.772549" d="M13.2715 13.6523L13.2129 13.7695" stroke="black"/>
<path opacity="0.772549" d="M6.82617 13.7109L6.88477 13.8281" stroke="black"/>
<path opacity="0.772549" d="M13.0957 13.7695L13.0371 13.8867" stroke="black"/>
<path opacity="0.772549" d="M7.11914 13.8867L7.17773 14.0039" stroke="black"/>
<path opacity="0.772549" d="M19.3652 14.0625L19.6875 14.0918L19.3652 14.1211V14.0625Z" fill="black" stroke="black"/>
<path opacity="0.772549" d="M22.7637 14.0625L23.1445 14.0918L22.7637 14.1211V14.0625Z" fill="black" stroke="black"/>
<path opacity="0.772549" d="M18.9551 14.1211L19.1016 14.1504L18.9551 14.1797V14.1211Z" fill="black" stroke="black"/>
<path opacity="0.772549" d="M23.4082 14.1211L23.5547 14.1504L23.4082 14.1797V14.1211Z" fill="black" stroke="black"/>
<path opacity="0.772549" d="M18.6621 14.1797L18.8086 14.209L18.6621 14.2383V14.1797Z" fill="black" stroke="black"/>
<path opacity="0.772549" d="M8.75977 14.5312L8.90625 14.5605L8.75977 14.5898V14.5312Z" fill="black" stroke="black"/>
<path opacity="0.772549" d="M11.1035 14.5312L11.25 14.5605L11.1035 14.5898V14.5312Z" fill="black" stroke="black"/>
<path opacity="0.772549" d="M9.11133 14.5898L9.25781 14.6191L9.11133 14.6484V14.5898Z" fill="black" stroke="black"/>
<path opacity="0.772549" d="M10.752 14.5898L10.957 14.6191L10.752 14.6484V14.5898Z" fill="black" stroke="black"/>
<path opacity="0.772549" d="M9.63867 14.6484L10.4297 14.6777L9.63867 14.707V14.6484Z" fill="black" stroke="black"/>
<path opacity="0.772549" d="M17.1387 14.7656L17.0801 14.8828" stroke="black"/>
<path opacity="0.772549" d="M25.459 14.8242L25.5176 14.9414" stroke="black"/>
<path opacity="0.772549" d="M16.8457 14.9414L16.7871 15.0586" stroke="black"/>
<path opacity="0.772549" d="M25.752 15L25.8105 15.1172" stroke="black"/>
<path opacity="0.772549" d="M16.6699 15.0586L16.6113 15.1758" stroke="black"/>
<path opacity="0.772549" d="M16.4941 15.1758L16.377 15.3516" stroke="black"/>
<path opacity="0.772549" d="M25.9863 15.1758L26.0449 15.293" stroke="black"/>
<path opacity="0.772549" d="M8.29102 15.293L11.7188 15.3223L8.29102 15.3516V15.293Z" fill="black" stroke="black"/>
<path opacity="0.772549" d="M7.76367 15.3516L7.96875 15.3809L7.76367 15.4102V15.3516Z" fill="black" stroke="black"/>
<path opacity="0.772549" d="M12.0996 15.3516L12.3047 15.3809L12.0996 15.4102V15.3516Z" fill="black" stroke="black"/>
<path opacity="0.772549" d="M26.2207 15.3516L26.3379 15.5273" stroke="black"/>
<path opacity="0.772549" d="M7.41211 15.4102L7.55859 15.4395L7.41211 15.4688V15.4102Z" fill="black" stroke="black"/>
<path opacity="0.772549" d="M16.2012 15.4102L16.084 15.5859" stroke="black"/>
<path opacity="0.772549" d="M7.11914 15.4688L7.26562 15.498L7.11914 15.5273V15.4688Z" fill="black" stroke="black"/>
<path opacity="0.772549" d="M16.2012 15.6445L16.2598 15.7617" stroke="black"/>
<path opacity="0.772549" d="M16.377 15.7617L16.4941 15.9375" stroke="black"/>
<path opacity="0.772549" d="M26.6895 15.7617L26.748 15.8789" stroke="black"/>
<path opacity="0.772549" d="M16.6699 15.9961L16.8457 16.2305" stroke="black"/>
<path opacity="0.772549" d="M26.9824 16.1133L27.1582 16.3477" stroke="black"/>
<path opacity="0.772549" d="M5.18555 16.2305L5.12695 16.3477" stroke="black"/>
<path opacity="0.772549" d="M14.9121 16.2891L14.9707 16.4062" stroke="black"/>
<path opacity="0.772549" d="M4.89258 16.4062L4.83398 16.5234" stroke="black"/>
<path opacity="0.772549" d="M15.2051 16.4648L15.2637 16.582" stroke="black"/>
<path opacity="0.772549" d="M27.2754 16.4648L27.334 16.582" stroke="black"/>
<path opacity="0.772549" d="M4.7168 16.5234L4.6582 16.6406" stroke="black"/>
<path opacity="0.772549" d="M15.4395 16.6406L15.498 16.7578" stroke="black"/>
<path opacity="0.772549" d="M27.3926 16.6406L27.4512 16.7578" stroke="black"/>
<path opacity="0.772549" d="M4.48242 16.6992L4.42383 16.8164" stroke="black"/>
<path opacity="0.772549" d="M15.6738 16.8164L15.7324 16.9336" stroke="black"/>
<path opacity="0.772549" d="M27.5098 16.8164L27.5684 16.9336" stroke="black"/>
<path opacity="0.772549" d="M4.24805 16.875L4.13086 17.0508" stroke="black"/>
<path opacity="0.772549" d="M17.6074 16.9336L17.7246 17.1094" stroke="black"/>
<path opacity="0.772549" d="M15.9668 17.0508L16.6699 17.8125" stroke="black"/>
<path opacity="0.772549" d="M3.89648 17.168L3.48633 17.6367" stroke="black"/>
<path opacity="0.772549" d="M17.9004 17.2852L17.959 17.4023" stroke="black"/>
<path opacity="0.772549" d="M18.0762 17.5195L18.1348 17.6367" stroke="black"/>
<path opacity="0.772549" d="M3.31055 17.8125L3.13477 18.0469" stroke="black"/>
<path opacity="0.772549" d="M18.3105 17.8711L18.3691 17.9883" stroke="black"/>
<path opacity="0.772549" d="M16.8457 17.9883L16.9043 18.1055" stroke="black"/>
<path opacity="0.772549" d="M18.4277 18.0469L18.4863 18.1641" stroke="black"/>
<path opacity="0.772549" d="M3.01758 18.1641L2.95898 18.2812" stroke="black"/>
<path opacity="0.772549" d="M17.0215 18.2227L17.0801 18.3398" stroke="black"/>
<path opacity="0.772549" d="M2.90039 18.3398L2.8418 18.457" stroke="black"/>
<path opacity="0.772549" d="M18.6621 18.457L18.7207 18.5742" stroke="black"/>
<path opacity="0.772549" d="M17.373 18.75L17.4316 18.8672" stroke="black"/>
<path opacity="0.772549" d="M18.8965 18.8672L18.9844 19.0723H18.9258L18.8965 18.8672Z" fill="black" stroke="black"/>
<path opacity="0.772549" d="M2.49023 18.9844L2.43164 19.1016" stroke="black"/>
<path opacity="0.772549" d="M28.3887 19.2188L28.418 19.4238H28.3594L28.3887 19.2188Z" fill="black" stroke="black"/>
<path opacity="0.772549" d="M28.3887 20.3906L28.418 20.5957H28.3594L28.3887 20.3906Z" fill="black" stroke="black"/>
<path opacity="0.772549" d="M1.72852 20.918L1.75781 21.0645H1.69922L1.72852 20.918Z" fill="black" stroke="black"/>
<path opacity="0.772549" d="M19.5996 21.1523L19.6289 21.2988H19.5703L19.5996 21.1523Z" fill="black" stroke="black"/>
<path opacity="0.772549" d="M1.66992 21.2109L1.69922 21.3574H1.64062L1.66992 21.2109Z" fill="black" stroke="black"/>
<path opacity="0.772549" d="M18.3691 21.5039L18.3984 21.6504H18.3398L18.3691 21.5039Z" fill="black" stroke="black"/>
<path opacity="0.772549" d="M19.6582 21.5625L19.6875 21.8848H19.6289L19.6582 21.5625Z" fill="black" stroke="black"/>
<path opacity="0.772549" d="M1.61133 21.6211L1.64062 21.8848H1.58203L1.61133 21.6211Z" fill="black" stroke="black"/>
<path opacity="0.772549" d="M27.9785 21.6797L27.9199 21.7969" stroke="black"/>
<path opacity="0.772549" d="M18.4277 22.0312L18.457 22.8223H18.3984L18.4277 22.0312Z" fill="black" stroke="black"/>
<path opacity="0.772549" d="M27.7441 22.0312L27.6855 22.1484" stroke="black"/>
<path opacity="0.772549" d="M27.4512 22.3828L27.3926 22.5" stroke="black"/>
<path opacity="0.772549" d="M27.0996 22.6758L27.041 22.793" stroke="black"/>
<path opacity="0.772549" d="M26.9238 22.793L26.8652 22.9102" stroke="black"/>
<path opacity="0.772549" d="M1.61133 22.9102L1.64062 23.0566H1.58203L1.61133 22.9102Z" fill="black" stroke="black"/>
<path opacity="0.772549" d="M19.6582 22.9102L19.6875 23.1152H19.6289L19.6582 22.9102Z" fill="black" stroke="black"/>
<path opacity="0.772549" d="M18.3691 23.0273L18.3984 23.1738H18.3398L18.3691 23.0273Z" fill="black" stroke="black"/>
<path opacity="0.772549" d="M25.166 23.3789L25.4883 23.4082L25.166 23.4375V23.3789Z" fill="black" stroke="black"/>
<path opacity="0.772549" d="M1.8457 23.7891L1.93359 23.9941H1.875L1.8457 23.7891Z" fill="black" stroke="black"/>
<path opacity="0.772549" d="M1.96289 24.082L2.02148 24.1992" stroke="black"/>
<path opacity="0.772549" d="M17.9004 24.3164L17.8418 24.4336" stroke="black"/>
<path opacity="0.772549" d="M2.13867 24.375L2.19727 24.4922" stroke="black"/>
<path opacity="0.772549" d="M17.7246 24.5508L17.666 24.668" stroke="black"/>
<path opacity="0.772549" d="M2.31445 24.6094L2.54883 24.9023" stroke="black"/>
<path opacity="0.772549" d="M2.66602 24.9609L2.8418 25.1953" stroke="black"/>
<path opacity="0.772549" d="M17.1387 25.1367L17.0801 25.2539" stroke="black"/>
<path opacity="0.772549" d="M3.01758 25.2539L3.07617 25.3711" stroke="black"/>
<path opacity="0.772549" d="M16.9043 25.3125L16.8457 25.4297" stroke="black"/>
<path opacity="0.772549" d="M3.19336 25.3711L3.25195 25.4883" stroke="black"/>
<path opacity="0.772549" d="M4.30664 25.8398L4.45312 25.8691L4.30664 25.8984V25.8398Z" fill="black" stroke="black"/>
<path opacity="0.772549" d="M15.5566 25.8398L15.7031 25.8691L15.5566 25.8984V25.8398Z" fill="black" stroke="black"/>
<path opacity="0.772549" d="M4.7168 25.8984L15.3516 25.9277L4.7168 25.957V25.8984Z" fill="black" stroke="black"/>
<path d="M9.75586 2.8125L10.8691 2.87109L11.4551 2.98828L12.4512 3.33984C13.1895 3.69531 13.8242 4.1543 14.3555 4.7168C14.8437 5.24414 15.2344 5.86914 15.5273 6.5918L15.8789 7.88086L15.9375 8.99414L15.8789 9.05273V9.58008L15.7031 10.4004L15.1172 11.748C14.75 12.377 14.291 12.9141 13.7402 13.3594C13.1426 13.8555 12.4199 14.2266 11.5723 14.4727L10.6934 14.6484H9.28711C7.63086 14.3711 6.37109 13.6973 5.50781 12.627C4.95313 12.0098 4.54297 11.248 4.27734 10.3418L4.10156 9.46289V8.05664C4.39063 6.33398 5.10352 5.03516 6.24023 4.16016C6.70508 3.78516 7.23242 3.47266 7.82227 3.22266L8.81836 2.92969L9.69727 2.87109L9.75586 2.8125Z" fill="black" stroke="black"/>
<path d="M20.5957 4.10156H21.8848L22.998 4.39453C23.8066 4.73828 24.4609 5.23633 24.9609 5.88867C25.3203 6.34961 25.5937 6.89648 25.7812 7.5293L25.8984 8.11523V9.3457L25.7812 9.93164L25.4883 10.752C25.1875 11.3691 24.7871 11.8867 24.2871 12.3047C23.8223 12.7187 23.2559 13.0313 22.5879 13.2422L21.709 13.418H20.8301L20.7715 13.3594L20.127 13.3008L18.9551 12.832L17.7539 11.8652L17.2266 11.1621L16.9922 10.6934V10.4004L17.168 9.69727L17.2266 8.4082L17.168 8.34961V7.82227L16.9922 7.11914V6.82617C17.293 6.15039 17.7129 5.59375 18.252 5.15625C18.8535 4.625 19.6348 4.27344 20.5957 4.10156Z" fill="black" stroke="black"/>
<path d="M19.7168 14.0625H22.7051L22.7637 14.1211H23.3496L24.1699 14.2969C25.3223 14.668 26.25 15.2637 26.9531 16.084C27.3867 16.5684 27.7383 17.1348 28.0078 17.7832L28.3594 19.0137L28.418 20.3613C28.25 21.3848 27.8301 22.1562 27.1582 22.6758L26.2207 23.2031L25.6348 23.3789H25.166L25.1074 23.4375H19.6289L19.6875 23.1152V21.5918L19.3945 20.127L18.9844 19.0137L18.1641 17.6074L17.2852 16.5234L16.377 15.7617L16.1133 15.6445L16.3184 15.3516C16.834 14.9297 17.4395 14.5977 18.1348 14.3555L19.1309 14.1211H19.6582L19.7168 14.0625Z" fill="black" stroke="black"/>
<path d="M7.99805 15.3516H12.041L13.2129 15.5859C14.7324 16.0586 15.9336 16.8496 16.8164 17.959C17.4062 18.6777 17.8555 19.5371 18.1641 20.5371L18.3984 21.709V22.998C18.2148 23.9277 17.8145 24.6406 17.1973 25.1367C16.7559 25.5156 16.1895 25.7695 15.498 25.8984H4.48242L3.66211 25.6641L2.57812 24.9609L2.10938 24.3457L1.75781 23.6426L1.58203 22.8809V21.9434L1.81641 20.5957L2.40234 19.1309C2.84375 18.3223 3.40039 17.6289 4.07227 17.0508C4.61914 16.582 5.24414 16.1914 5.94727 15.8789L7.00195 15.5273L7.99805 15.3516Z" fill="black" stroke="black"/>
</g>
<defs>
<clipPath id="clip0_131_598">
<rect width="30" height="30" fill="white"/>
</clipPath>
</defs>
</svg>
