<svg width="7" height="7" viewBox="0 0 7 7" fill="none" xmlns="http://www.w3.org/2000/svg">
<g clip-path="url(#clip0_66_1207)">
<path d="M3.50016 6.77814C5.2326 6.77814 6.63703 5.37372 6.63703 3.64127C6.63703 1.90882 5.2326 0.504395 3.50016 0.504395C1.76771 0.504395 0.363281 1.90882 0.363281 3.64127C0.363281 5.37372 1.76771 6.77814 3.50016 6.77814Z" fill="#D68F30"/>
<path d="M0.576172 4.45605V4.77652C0.608984 4.86129 0.645625 4.94496 0.685547 5.0259V4.45605H0.576172Z" fill="#BC6F00"/>
<path d="M0.934082 5.05908V5.44408C0.977832 5.50588 1.02322 5.56658 1.0708 5.6251V5.05908H0.934082Z" fill="#BC6F00"/>
<path d="M1.40771 5.5625V5.97758C1.46076 6.02516 1.51545 6.07055 1.57178 6.1143V5.5625H1.40771Z" fill="#BC6F00"/>
<path d="M1.99072 5.94434V6.39059C2.04432 6.42012 2.099 6.44801 2.15479 6.4748V5.94434H1.99072Z" fill="#BC6F00"/>
<path d="M2.65186 6.18799V6.66049C2.706 6.6758 2.76068 6.68947 2.81592 6.70205V6.18799H2.65186Z" fill="#BC6F00"/>
<path d="M3.42578 6.27197V6.77564C3.45039 6.77619 3.475 6.77729 3.50016 6.77729C3.53023 6.77729 3.56031 6.77564 3.58984 6.7751V6.27197H3.42578Z" fill="#BC6F00"/>
<path d="M4.19922 6.18408V6.69814C4.25445 6.68557 4.30914 6.67135 4.36328 6.65604V6.18408H4.19922Z" fill="#BC6F00"/>
<path d="M4.85889 5.9375V6.46852C4.91467 6.44172 4.96936 6.41273 5.02295 6.38266V5.9375H4.85889Z" fill="#BC6F00"/>
<path d="M5.44043 5.55176V6.1041C5.49672 6.06011 5.55144 6.01414 5.60449 5.96629V5.55176H5.44043Z" fill="#BC6F00"/>
<path d="M6.0752 5.04688H5.93848V5.61289C5.98605 5.55383 6.03199 5.49312 6.0752 5.43078V5.04688Z" fill="#BC6F00"/>
<path d="M6.43066 4.44189H6.32129V5.01283C6.36121 4.93025 6.39785 4.84549 6.43066 4.75963V4.44189Z" fill="#BC6F00"/>
<path d="M3.50016 6.49592C5.2326 6.49592 6.63703 5.09149 6.63703 3.35904C6.63703 1.62659 5.2326 0.222168 3.50016 0.222168C1.76771 0.222168 0.363281 1.62659 0.363281 3.35904C0.363281 5.09149 1.76771 6.49592 3.50016 6.49592Z" fill="#FFF176"/>
<path d="M3.5 6.21631C5.07811 6.21631 6.35742 4.937 6.35742 3.35889C6.35742 1.78078 5.07811 0.501465 3.5 0.501465C1.92189 0.501465 0.642578 1.78078 0.642578 3.35889C0.642578 4.937 1.92189 6.21631 3.5 6.21631Z" fill="#F2BC1A"/>
<path d="M0.636933 3.46836C0.616698 3.09211 0.681777 2.71039 0.813027 2.35273C0.949745 1.99617 1.1592 1.66641 1.42334 1.38641C1.95381 0.825313 2.72381 0.499922 3.49982 0.496094C4.27584 0.500469 5.04639 0.825313 5.57576 1.38695C5.84045 1.66641 6.04936 1.99672 6.18607 2.35273C6.31787 2.71094 6.38295 3.09211 6.36217 3.46836H6.35123C6.35015 3.09302 6.27585 2.72149 6.13248 2.37461C5.98886 2.02812 5.77915 1.7129 5.51506 1.44656C5.2508 1.18048 4.93676 0.969016 4.59084 0.824219C4.24503 0.679835 3.87402 0.605491 3.49928 0.605491C3.12454 0.605491 2.75352 0.679835 2.40771 0.824219C2.06179 0.969016 1.74775 1.18048 1.4835 1.44656C1.21922 1.71276 1.00949 2.02801 0.866073 2.37461C0.722704 2.72149 0.648399 3.09302 0.647323 3.46836H0.636933Z" fill="#E08F00"/>
<path d="M3.50016 0.222656C1.76766 0.222656 0.363281 1.62703 0.363281 3.35953C0.363281 5.09203 1.76766 6.49641 3.50016 6.49641C5.23266 6.49641 6.63703 5.09203 6.63703 3.35953C6.63703 1.62703 5.23266 0.222656 3.50016 0.222656ZM3.50016 6.21695C1.92188 6.21695 0.642734 4.93781 0.642734 3.35953C0.642734 1.7807 1.92188 0.501563 3.50016 0.501563C5.07844 0.501563 6.35758 1.7807 6.35758 3.35898C6.35758 4.93727 5.07844 6.21695 3.50016 6.21695Z" fill="#FFF176"/>
<path d="M2.0776 1.16748L2.14705 1.3824L2.37346 1.296V1.3824L2.19025 1.51529L2.26025 1.64326V1.73021L2.0776 1.59732L1.89439 1.73021V1.64326L1.96439 1.51529L1.78174 1.3824V1.296L2.0076 1.3824L2.0776 1.16748Z" fill="#D38200"/>
<path d="M1.20357 2.40137L1.27357 2.61629L1.49943 2.52988V2.61629L1.31678 2.74918L1.38678 2.8777V2.9641L1.20357 2.83121L1.02092 2.9641V2.8777L1.09092 2.74918L0.907715 2.61629V2.52988L1.13412 2.61629L1.20357 2.40137Z" fill="#D38200"/>
<path d="M1.17818 3.92236L1.24818 4.13729L1.47404 4.05088V4.13729L1.29139 4.27018L1.36139 4.39869V4.4851L1.17818 4.35221L0.995527 4.4851V4.39869L1.06553 4.27018L0.882324 4.13729V4.05088L1.10873 4.13729L1.17818 3.92236Z" fill="#D38200"/>
<path d="M2.1108 5.12988L2.1808 5.3448L2.40666 5.2584V5.3448L2.224 5.4777L2.294 5.60566V5.69262L2.1108 5.55973L1.92814 5.69262V5.60566L1.99814 5.4777L1.81494 5.3448V5.2584L2.04135 5.3448L2.1108 5.12988Z" fill="#D38200"/>
<path d="M4.92232 1.16748L4.85287 1.3824L4.62646 1.296V1.3824L4.80967 1.51529L4.73967 1.64326V1.73021L4.92232 1.59732L5.10553 1.73021V1.64326L5.03553 1.51529L5.21818 1.3824V1.296L4.99232 1.3824L4.92232 1.16748Z" fill="#D38200"/>
<path d="M5.79635 2.40137L5.72635 2.61629L5.50049 2.52988V2.61629L5.68314 2.74918L5.61314 2.8777V2.9641L5.79635 2.83121L5.979 2.9641V2.8777L5.909 2.74918L6.09221 2.61629V2.52988L5.8658 2.61629L5.79635 2.40137Z" fill="#D38200"/>
<path d="M5.82223 3.92236L5.75223 4.13729L5.52637 4.05088V4.13729L5.70902 4.27018L5.63902 4.39869V4.4851L5.82223 4.35221L6.00488 4.4851V4.39869L5.93488 4.27018L6.11809 4.13729V4.05088L5.89168 4.13729L5.82223 3.92236Z" fill="#D38200"/>
<path d="M4.88912 5.12988L4.81912 5.3448L4.59326 5.2584V5.3448L4.77592 5.4777L4.70592 5.60566V5.69262L4.88912 5.55973L5.07178 5.69262V5.60566L5.00178 5.4777L5.18498 5.3448V5.2584L4.95857 5.3448L4.88912 5.12988Z" fill="#D38200"/>
<path d="M4.88912 5.04248L4.95857 5.2574H5.18498L5.00178 5.39029L5.07178 5.60521L4.88912 5.47232L4.70592 5.60521L4.77592 5.39029L4.59326 5.2574H4.81912L4.88912 5.04248Z" fill="#FFF176"/>
<path d="M5.82223 3.83594L5.89168 4.05086H6.11809L5.93488 4.18375L6.00488 4.39867L5.82223 4.26578L5.63902 4.39867L5.70902 4.18375L5.52637 4.05086H5.75223L5.82223 3.83594Z" fill="#FFF176"/>
<path d="M5.79635 2.31494L5.8658 2.52986H6.09221L5.909 2.66275L5.979 2.87768L5.79635 2.74479L5.61314 2.87768L5.68314 2.66275L5.50049 2.52986H5.72635L5.79635 2.31494Z" fill="#FFF176"/>
<path d="M4.92232 1.08057L4.99232 1.29549H5.21818L5.03553 1.42838L5.10553 1.6433L4.92232 1.51041L4.73967 1.6433L4.80967 1.42838L4.62646 1.29549H4.85287L4.92232 1.08057Z" fill="#FFF176"/>
<path d="M3.50289 5.60547L3.57289 5.82039L3.79875 5.73398V5.82039L3.61609 5.95328L3.68609 6.0818V6.1682L3.50289 6.03531L3.32023 6.1682V6.0818L3.39023 5.95328L3.20703 5.82039V5.73398L3.43344 5.82039L3.50289 5.60547Z" fill="#D38200"/>
<path d="M3.50289 5.49072L3.57289 5.70564H3.79875L3.61609 5.83854L3.68609 6.05346L3.50289 5.92057L3.32023 6.05346L3.39023 5.83854L3.20703 5.70564H3.43344L3.50289 5.49072Z" fill="#FFF176"/>
<path d="M3.50289 0.705078L3.57289 0.92L3.79875 0.833594V0.92L3.61609 1.05289L3.68609 1.18141V1.26781L3.50289 1.13492L3.32023 1.26781V1.18141L3.39023 1.05289L3.20703 0.92V0.833594L3.43344 0.92L3.50289 0.705078Z" fill="#D38200"/>
<path d="M3.50289 0.618652L3.57289 0.833574H3.79875L3.61609 0.966465L3.68609 1.18139L3.50289 1.0485L3.32023 1.18139L3.39023 0.966465L3.20703 0.833574H3.43344L3.50289 0.618652Z" fill="#FFF176"/>
<path d="M2.11129 5.04248L2.04184 5.2574H1.81543L1.99863 5.39029L1.92863 5.60521L2.11129 5.47232L2.29449 5.60521L2.22449 5.39029L2.40715 5.2574H2.18129L2.11129 5.04248Z" fill="#FFF176"/>
<path d="M1.17818 3.83594L1.10873 4.05086H0.882324L1.06553 4.18375L0.995527 4.39867L1.17818 4.26578L1.36139 4.39867L1.29139 4.18375L1.47404 4.05086H1.24818L1.17818 3.83594Z" fill="#FFF176"/>
<path d="M1.20406 2.31494L1.13461 2.52986H0.908203L1.09141 2.66275L1.02141 2.87768L1.20406 2.74479L1.38727 2.87768L1.31727 2.66275L1.49992 2.52986H1.27406L1.20406 2.31494Z" fill="#FFF176"/>
<path d="M2.0776 1.08057L2.0076 1.29549H1.78174L1.96439 1.42838L1.89439 1.6433L2.0776 1.51041L2.26025 1.6433L2.19025 1.42838L2.37346 1.29549H2.14705L2.0776 1.08057Z" fill="#FFF176"/>
<path d="M5.20717 2.63595C5.20717 2.61681 1.79576 2.63595 1.79576 2.63595L1.76514 2.72782V2.88478C1.76514 2.91321 1.78811 2.93618 1.81654 2.93618H5.18311C5.21154 2.93618 5.23451 2.91321 5.23451 2.88478V2.7322L5.20717 2.63595Z" fill="#D38200"/>
<path d="M5.21213 4.67578H1.81002L1.58252 4.79008L1.58525 4.93719C1.5858 4.95305 1.59893 4.96617 1.61533 4.96617H5.38494C5.4008 4.96617 5.41447 4.95359 5.41502 4.93719L5.41775 4.79281L5.21213 4.67578Z" fill="#D38200"/>
<path d="M2.3583 4.2283H2.16252C2.13025 4.2283 2.104 4.12658 2.104 4.09432L2.41627 4.08447C2.41627 4.11674 2.39002 4.2283 2.3583 4.2283Z" fill="#D38200"/>
<path d="M2.42512 3.17232H2.09535C2.07074 3.17232 2.04941 3.15592 2.0423 3.1324L2.0166 2.91748H2.49949L2.47762 3.1324C2.47105 3.15592 2.44973 3.17232 2.42512 3.17232Z" fill="#D38200"/>
<path d="M2.09547 4.29346H2.42523C2.44984 4.29346 2.49852 4.30877 2.50508 4.33229C2.50508 4.33229 2.50344 4.43455 2.50344 4.47502C2.50344 4.51549 2.48703 4.54502 2.45039 4.54502H2.07031C2.03367 4.54502 2.01727 4.51221 2.01727 4.47502C2.01727 4.43783 2.01562 4.33338 2.01562 4.33338C2.02273 4.30986 2.07086 4.29346 2.09547 4.29346Z" fill="#D38200"/>
<path d="M4.90127 4.2283H4.70549C4.67322 4.2283 4.64697 4.12658 4.64697 4.09432L4.95924 4.08447C4.95924 4.11674 4.93353 4.2283 4.90127 4.2283Z" fill="#D38200"/>
<path d="M4.96809 3.17232H4.63832C4.61371 3.17232 4.59238 3.15592 4.58527 3.1324L4.55957 2.91748H5.04246L5.02059 3.1324C5.01402 3.15592 4.9927 3.17232 4.96809 3.17232Z" fill="#D38200"/>
<path d="M4.63844 4.29346H4.9682C4.99281 4.29346 5.04148 4.30877 5.04805 4.33229C5.04805 4.33229 5.04641 4.43455 5.04641 4.47502C5.04641 4.51549 5.03 4.54502 4.99336 4.54502H4.61328C4.57664 4.54502 4.56023 4.51221 4.56023 4.47502C4.56023 4.43783 4.55859 4.33338 4.55859 4.33338C4.5657 4.30986 4.61383 4.29346 4.63844 4.29346Z" fill="#D38200"/>
<path d="M4.05361 4.2283H3.85783C3.82557 4.2283 3.79932 4.12658 3.79932 4.09432L4.11158 4.08447C4.11158 4.11674 4.08588 4.2283 4.05361 4.2283Z" fill="#D38200"/>
<path d="M4.12043 3.17232H3.79066C3.76605 3.17232 3.74473 3.15592 3.73762 3.1324L3.71191 2.91748H4.1948L4.17293 3.1324C4.16637 3.15592 4.14504 3.17232 4.12043 3.17232Z" fill="#D38200"/>
<path d="M3.79078 4.29346H4.12055C4.14516 4.29346 4.19383 4.30877 4.20039 4.33229C4.20039 4.33229 4.19875 4.43455 4.19875 4.47502C4.19875 4.51549 4.18234 4.54502 4.1457 4.54502H3.76563C3.72898 4.54502 3.71258 4.51221 3.71258 4.47502C3.71258 4.43783 3.71094 4.33338 3.71094 4.33338C3.71805 4.30986 3.76617 4.29346 3.79078 4.29346Z" fill="#D38200"/>
<path d="M3.20596 4.2283H3.01018C2.97791 4.2283 2.95166 4.12658 2.95166 4.09432L3.26393 4.08447C3.26393 4.11674 3.23822 4.2283 3.20596 4.2283Z" fill="#D38200"/>
<path d="M3.27277 3.17232H2.94301C2.9184 3.17232 2.89707 3.15592 2.88996 3.1324L2.86426 2.91748H3.34715L3.32527 3.1324C3.31871 3.15592 3.29738 3.17232 3.27277 3.17232Z" fill="#D38200"/>
<path d="M2.94312 4.29346H3.27289C3.2975 4.29346 3.34617 4.30877 3.35273 4.33229C3.35273 4.33229 3.35109 4.43455 3.35109 4.47502C3.35109 4.51549 3.33469 4.54502 3.29805 4.54502H2.91797C2.88133 4.54502 2.86492 4.51221 2.86492 4.47502C2.86492 4.43783 2.86328 4.33338 2.86328 4.33338C2.87039 4.30986 2.91852 4.29346 2.94312 4.29346Z" fill="#D38200"/>
<path d="M5.23178 2.48949C5.23178 2.47035 5.22193 2.4523 5.20717 2.44355L3.50201 1.47559L1.79467 2.44246C1.77826 2.4523 1.76787 2.47035 1.76787 2.48949L1.76514 2.72848C1.76514 2.75855 1.78975 2.78316 1.81982 2.78316H5.17928C5.20936 2.78316 5.23396 2.75855 5.23396 2.72848L5.23178 2.48949Z" fill="#FFF176"/>
<path d="M4.80379 2.42449L3.50004 1.68457L2.19629 2.42449H4.80379Z" fill="#F2BC1A"/>
<path d="M4.32406 2.33385L3.49992 1.86572L2.67578 2.33385H4.32406Z" fill="#FFF176"/>
<path d="M5.10747 4.48535H1.89294C1.86122 4.48535 1.83114 4.49902 1.80982 4.52254L1.58888 4.76918C1.57357 4.78613 1.5856 4.81293 1.60857 4.81293H5.39185C5.41427 4.81293 5.4263 4.78613 5.41153 4.76918L5.19005 4.52254C5.16927 4.49902 5.13864 4.48535 5.10747 4.48535Z" fill="#FFF176"/>
<path d="M4.90176 4.12912H4.70598C4.67371 4.12912 4.64746 4.10287 4.64746 4.07061V3.1967C4.64746 3.16443 4.67371 3.13818 4.70598 3.13818H4.90176C4.93402 3.13818 4.96027 3.16443 4.96027 3.1967V4.07115C4.96027 4.10342 4.93402 4.12912 4.90176 4.12912Z" fill="#FFF176"/>
<path d="M4.96882 3.07334H4.63906C4.61445 3.07334 4.59312 3.05693 4.58601 3.03342L4.56085 2.94646C4.55046 2.91146 4.57726 2.87646 4.6139 2.87646H4.99398C5.03062 2.87646 5.05687 2.91146 5.04702 2.94646L5.02187 3.03342C5.01476 3.05693 4.99288 3.07334 4.96882 3.07334Z" fill="#FFF176"/>
<path d="M4.63839 4.19482H4.96816C4.99277 4.19482 5.0141 4.21123 5.02121 4.23475L5.04636 4.3217C5.05675 4.3567 5.02995 4.3917 4.99331 4.3917H4.61324C4.5766 4.3917 4.55035 4.3567 4.56019 4.3217L4.58535 4.23475C4.59245 4.21068 4.61433 4.19482 4.63839 4.19482Z" fill="#FFF176"/>
<path d="M2.35879 4.12912H2.16301C2.13074 4.12912 2.10449 4.10287 2.10449 4.07061V3.1967C2.10449 3.16443 2.13074 3.13818 2.16301 3.13818H2.35879C2.39105 3.13818 2.4173 3.16443 2.4173 3.1967V4.07115C2.41676 4.10342 2.39051 4.12912 2.35879 4.12912Z" fill="#FFF176"/>
<path d="M2.42536 3.07334H2.0956C2.07099 3.07334 2.04966 3.05693 2.04255 3.03342L2.0174 2.94646C2.007 2.91146 2.0338 2.87646 2.07044 2.87646H2.45052C2.48716 2.87646 2.51341 2.91146 2.50357 2.94646L2.47841 3.03342C2.4713 3.05693 2.44997 3.07334 2.42536 3.07334Z" fill="#FFF176"/>
<path d="M2.09542 4.19482H2.42519C2.4498 4.19482 2.47113 4.21123 2.47824 4.23475L2.50339 4.3217C2.51378 4.3567 2.48699 4.3917 2.45035 4.3917H2.07027C2.03363 4.3917 2.00738 4.3567 2.01722 4.3217L2.04238 4.23475C2.04949 4.21068 2.07081 4.19482 2.09542 4.19482Z" fill="#FFF176"/>
<path d="M3.20645 4.12912H3.01066C2.9784 4.12912 2.95215 4.10287 2.95215 4.07061V3.1967C2.95215 3.16443 2.9784 3.13818 3.01066 3.13818H3.20645C3.23871 3.13818 3.26496 3.16443 3.26496 3.1967V4.07115C3.26482 4.08658 3.25859 4.10132 3.24763 4.11218C3.23667 4.12303 3.22187 4.12912 3.20645 4.12912Z" fill="#FFF176"/>
<path d="M3.27302 3.07334H2.94325C2.91865 3.07334 2.89732 3.05693 2.89021 3.03342L2.86505 2.94646C2.85466 2.91146 2.88146 2.87646 2.9181 2.87646H3.29818C3.33482 2.87646 3.36107 2.91146 3.35122 2.94646L3.32607 3.03342C3.31896 3.05693 3.29763 3.07334 3.27302 3.07334Z" fill="#FFF176"/>
<path d="M2.94308 4.19482H3.27285C3.29745 4.19482 3.31878 4.21123 3.32589 4.23475L3.35105 4.3217C3.36144 4.3567 3.33464 4.3917 3.298 4.3917H2.91792C2.88128 4.3917 2.85503 4.3567 2.86488 4.3217L2.89003 4.23475C2.89714 4.21068 2.91847 4.19482 2.94308 4.19482Z" fill="#FFF176"/>
<path d="M4.0541 4.12912H3.85832C3.82605 4.12912 3.7998 4.10287 3.7998 4.07061V3.1967C3.7998 3.16443 3.82605 3.13818 3.85832 3.13818H4.0541C4.08637 3.13818 4.11262 3.16443 4.11262 3.1967V4.07115C4.11247 4.08658 4.10624 4.10132 4.09529 4.11218C4.08433 4.12303 4.06953 4.12912 4.0541 4.12912Z" fill="#FFF176"/>
<path d="M4.12068 3.07334H3.79091C3.7663 3.07334 3.74497 3.05693 3.73786 3.03342L3.71271 2.94646C3.70232 2.91146 3.72911 2.87646 3.76575 2.87646H4.14583C4.18247 2.87646 4.20872 2.91146 4.19888 2.94646L4.17372 3.03342C4.16661 3.05693 4.14529 3.07334 4.12068 3.07334Z" fill="#FFF176"/>
<path d="M3.79074 4.19482H4.1205C4.14511 4.19482 4.16644 4.21123 4.17355 4.23475L4.1987 4.3217C4.2091 4.3567 4.1823 4.3917 4.14566 4.3917H3.76558C3.72894 4.3917 3.70269 4.3567 3.71253 4.3217L3.73769 4.23475C3.7448 4.21068 3.76667 4.19482 3.79074 4.19482Z" fill="#FFF176"/>
</g>
<defs>
<clipPath id="clip0_66_1207">
<rect width="7" height="7" fill="white"/>
</clipPath>
</defs>
</svg>
