<svg width="20" height="20" viewBox="0 0 20 20" fill="none" xmlns="http://www.w3.org/2000/svg">
<g clip-path="url(#clip0_142_1491)">
<path d="M9.27734 1.875H10.7227L10.7617 1.91406H11.0742L11.7383 2.03125L12.5977 2.26562L13.3008 2.53906L14.2578 3.10547L14.1992 3.08594C13.6523 2.79948 13.0404 2.57812 12.3633 2.42188L11.7383 2.30469H11.4648L11.4258 2.26562L10.1758 2.22656L10.1367 2.26562L9.39453 2.30469L8.57422 2.46094L7.40234 2.85156C6.20443 3.3724 5.20833 4.09505 4.41406 5.01953C3.70052 5.81641 3.15365 6.77995 2.77344 7.91016L2.57812 8.65234L2.46094 9.31641V9.62891L2.42188 9.66797V11.1133L2.46094 11.1523V11.4648L2.5 11.5039L2.53906 11.9336L2.69531 12.5977L3.16406 13.8477C3.64844 14.8477 4.27995 15.7005 5.05859 16.4062L5.46875 16.7383L5.37109 16.6797C4.78255 16.3047 4.26823 15.8555 3.82812 15.332C3.10677 14.5169 2.5599 13.5273 2.1875 12.3633L1.99219 11.582V11.3867L1.91406 11.1133V10.8008L1.875 10.7617V9.23828L1.91406 9.19922V8.92578L2.03125 8.26172L2.22656 7.51953C2.39583 6.9987 2.60417 6.51693 2.85156 6.07422C3.33073 5.22526 3.92318 4.48958 4.62891 3.86719C5.20703 3.35156 5.87109 2.92188 6.62109 2.57812L7.79297 2.14844L8.45703 1.99219H8.65234L8.92578 1.91406H9.23828L9.27734 1.875Z" fill="#FC9A25" stroke="#FC9A25"/>
<path d="M14.5508 3.28125C15.1602 3.64844 15.6875 4.09766 16.1328 4.62891C16.8724 5.45182 17.4323 6.45443 17.8125 7.63672L18.0469 8.65234L18.0859 9.19922L18.125 9.23828V10.7617L18.0859 10.8008V11.0742L17.9688 11.7383L17.7734 12.4805L17.4609 13.3008L17.1484 13.9258C16.6693 14.7747 16.0768 15.5104 15.3711 16.1328C14.5742 16.8464 13.6107 17.3932 12.4805 17.7734L11.7383 17.9688L11.0742 18.0859H10.8008L10.7617 18.125H9.23828L9.19922 18.0859H8.88672L8.84766 18.0469L8.41797 18.0078L7.63672 17.8125L6.44531 17.3242L6.50391 17.3047L7.28516 17.6172L8.10547 17.8125L8.92578 17.8906L8.96484 17.9297H10.2148L10.2539 17.8906H10.6055L10.6445 17.8516L11.3086 17.7734C11.8424 17.6562 12.3372 17.5 12.793 17.3047C13.9362 16.8073 14.8932 16.1237 15.6641 15.2539C16.3177 14.5404 16.8385 13.694 17.2266 12.7148L17.6172 11.3867L17.6953 10.6445L17.7344 10.6055L17.7734 9.62891L17.7344 9.58984V8.96484L17.6953 8.92578V8.65234L17.5781 8.02734L17.1484 6.66016C16.6797 5.57943 16.0482 4.66146 15.2539 3.90625L14.6289 3.39844L14.5508 3.28125Z" fill="#FC9A25" stroke="#FC9A25"/>
<path d="M10.3516 6.28906C10.5365 6.29948 10.6667 6.38411 10.7422 6.54297L11.3281 8.35938C11.1693 8.35156 11.0521 8.29297 10.9766 8.18359L10.6641 7.36328L10.3516 6.28906Z" fill="#FC9A25" stroke="#FC9A25"/>
<path d="M13.9062 8.90625C14.1172 8.90625 14.2604 8.99089 14.3359 9.16016C14.4036 9.23568 14.4297 9.35286 14.4141 9.51172L14.1992 9.88281L12.5 11.1133C12.3906 11.2122 12.3516 11.3815 12.3828 11.6211L13.0469 13.5742V13.7695C13.0078 13.9388 12.9232 14.0625 12.793 14.1406C12.6966 14.2266 12.5404 14.2526 12.3242 14.2188L10.5273 12.9297C10.4362 12.8646 10.293 12.8516 10.0977 12.8906L8.33984 14.1406C8.25391 14.224 8.11068 14.25 7.91016 14.2188L7.57812 14.0039L7.5 13.75L7.75391 13.7109L9.47266 12.4609C9.55859 12.3906 9.6888 12.3646 9.86328 12.3828L10.0586 12.4609L11.6992 13.6719C11.7852 13.7422 11.9154 13.7682 12.0898 13.75L12.4609 13.4961C12.5469 13.3997 12.5729 13.2435 12.5391 13.0273L11.9141 11.1914L11.875 10.918L12.0898 10.5469L13.7891 9.31641C13.8958 9.23307 13.9349 9.09635 13.9062 8.90625Z" fill="#FC9A25" stroke="#FC9A25"/>
<path d="M6.15234 9.64844L7.53906 10.6836L7.57812 10.7617L7.48047 10.7031L6.17188 9.74609L6.15234 9.64844Z" fill="#FC9A25" stroke="#FC9A25"/>
<path opacity="0.513726" d="M9.12109 0L9.57031 0.0195312L9.12109 0.0390625V0Z" fill="#FED25A" stroke="#FED25A"/>
<path opacity="0.513726" d="M10.4492 0L10.8984 0.0195312L10.4492 0.0390625V0Z" fill="#FED25A" stroke="#FED25A"/>
<path opacity="0.513726" d="M8.76953 0.0390625L8.98438 0.0585938L8.76953 0.078125V0.0390625Z" fill="#FED25A" stroke="#FED25A"/>
<path opacity="0.513726" d="M11.0352 0.0390625L11.25 0.0585938L11.0352 0.078125V0.0390625Z" fill="#FED25A" stroke="#FED25A"/>
<path opacity="0.513726" d="M8.45703 0.078125L8.67188 0.0976562L8.45703 0.117188V0.078125Z" fill="#FED25A" stroke="#FED25A"/>
<path opacity="0.513726" d="M11.3477 0.078125L11.5625 0.0976562L11.3477 0.117188V0.078125Z" fill="#FED25A" stroke="#FED25A"/>
<path opacity="0.513726" d="M8.26172 0.117188L8.39844 0.136719L8.26172 0.15625V0.117188Z" fill="#FED25A" stroke="#FED25A"/>
<path opacity="0.513726" d="M11.6211 0.117188L11.7969 0.136719L11.6211 0.15625V0.117188Z" fill="#FED25A" stroke="#FED25A"/>
<path opacity="0.513726" d="M8.02734 0.15625L8.16406 0.175781L8.02734 0.195312V0.15625Z" fill="#FED25A" stroke="#FED25A"/>
<path opacity="0.513726" d="M11.8555 0.15625L11.9922 0.175781L11.8555 0.195312V0.15625Z" fill="#FED25A" stroke="#FED25A"/>
<path opacity="0.513726" d="M7.83203 0.195312L7.96875 0.214844L7.67578 0.273438V0.234375L7.83203 0.195312Z" fill="#FED25A" stroke="#FED25A"/>
<path opacity="0.513726" d="M12.0508 0.195312L12.3438 0.253906L12.207 0.273438L12.0508 0.234375V0.195312Z" fill="#FED25A" stroke="#FED25A"/>
<path opacity="0.513726" d="M7.51953 0.273438L7.61719 0.292969L7.51953 0.3125V0.273438Z" fill="#FED25A" stroke="#FED25A"/>
<path opacity="0.513726" d="M12.4023 0.273438L12.5 0.292969L12.4023 0.3125V0.273438Z" fill="#FED25A" stroke="#FED25A"/>
<path opacity="0.513726" d="M7.36328 0.3125L7.46094 0.332031L7.24609 0.390625V0.351562L7.36328 0.3125Z" fill="#FED25A" stroke="#FED25A"/>
<path opacity="0.513726" d="M12.5586 0.3125L12.7734 0.371094L12.6758 0.390625L12.5586 0.351562V0.3125Z" fill="#FED25A" stroke="#FED25A"/>
<path opacity="0.513726" d="M7.08984 0.390625L7.1875 0.410156L6.85547 0.507812V0.46875L7.08984 0.390625Z" fill="#FED25A" stroke="#FED25A"/>
<path opacity="0.513726" d="M12.832 0.390625L13.0469 0.449219L12.9492 0.46875L12.832 0.429688V0.390625Z" fill="#FED25A" stroke="#FED25A"/>
<path opacity="0.513726" d="M6.73828 0.507812L6.79688 0.527344L6.42578 0.664062V0.625L6.73828 0.507812Z" fill="#FED25A" stroke="#FED25A"/>
<path opacity="0.513726" d="M13.3398 0.546875L13.5938 0.644531L13.5352 0.664062L13.3398 0.585938V0.546875Z" fill="#FED25A" stroke="#FED25A"/>
<path opacity="0.513726" d="M6.30859 0.664062L6.36719 0.683594L5.95703 0.859375V0.820312L6.30859 0.664062Z" fill="#FED25A" stroke="#FED25A"/>
<path opacity="0.513726" d="M13.6523 0.664062L13.7891 0.722656L13.7305 0.742188L13.6523 0.664062Z" fill="#FED25A" stroke="#FED25A"/>
<path opacity="0.513726" d="M13.8477 0.742188L14.0625 0.839844L14.0039 0.859375L13.8477 0.78125V0.742188Z" fill="#FED25A" stroke="#FED25A"/>
<path opacity="0.513726" d="M5.83984 0.859375L5.89844 0.878906C4.5651 1.48568 3.44531 2.30599 2.53906 3.33984C1.86719 4.07422 1.3138 4.92708 0.878906 5.89844L0.859375 5.83984C1.49479 4.48307 2.34766 3.34375 3.41797 2.42188C4.1263 1.80208 4.93359 1.28125 5.83984 0.859375Z" fill="#FED25A" stroke="#FED25A"/>
<path opacity="0.513726" d="M14.1211 0.859375C15.5013 1.48438 16.6536 2.33724 17.5781 3.41797C18.1927 4.10547 18.7005 4.89974 19.1016 5.80078H19.0625C18.4635 4.48568 17.6497 3.38542 16.6211 2.5L15.2539 1.48438L14.1211 0.898438V0.859375Z" fill="#FED25A" stroke="#FED25A"/>
<path opacity="0.513726" d="M19.1211 5.85938L19.2578 6.15234H19.2188L19.1211 5.85938Z" fill="#FED25A" stroke="#FED25A"/>
<path opacity="0.513726" d="M0.839844 5.9375L0.859375 5.99609L0.761719 6.17188L0.742188 6.11328L0.839844 5.9375Z" fill="#FED25A" stroke="#FED25A"/>
<path opacity="0.513726" d="M0.722656 6.21094L0.742188 6.26953L0.683594 6.36719L0.664062 6.30859L0.722656 6.21094Z" fill="#FED25A" stroke="#FED25A"/>
<path opacity="0.513726" d="M19.2773 6.21094L19.3359 6.34766H19.2969L19.2773 6.21094Z" fill="#FED25A" stroke="#FED25A"/>
<path opacity="0.513726" d="M0.644531 6.40625L0.664062 6.46484L0.527344 6.79688L0.507812 6.73828L0.644531 6.40625Z" fill="#FED25A" stroke="#FED25A"/>
<path opacity="0.513726" d="M19.3555 6.40625L19.6094 7.16797H19.5703L19.3555 6.40625Z" fill="#FED25A" stroke="#FED25A"/>
<path opacity="0.513726" d="M0.488281 6.83594L0.507812 6.93359L0.410156 7.1875L0.390625 7.08984L0.488281 6.83594Z" fill="#FED25A" stroke="#FED25A"/>
<path opacity="0.513726" d="M0.371094 7.22656L0.390625 7.32422L0.332031 7.46094L0.3125 7.36328L0.371094 7.22656Z" fill="#FED25A" stroke="#FED25A"/>
<path opacity="0.513726" d="M19.6289 7.22656L19.6875 7.44141H19.6484L19.6289 7.22656Z" fill="#FED25A" stroke="#FED25A"/>
<path opacity="0.513726" d="M0.292969 7.5L0.3125 7.59766H0.273438L0.292969 7.5Z" fill="#FED25A" stroke="#FED25A"/>
<path opacity="0.513726" d="M19.707 7.5L19.7266 7.59766H19.6875L19.707 7.5Z" fill="#FED25A" stroke="#FED25A"/>
<path opacity="0.513726" d="M0.253906 7.65625L0.273438 7.79297L0.214844 7.96875L0.195312 7.83203L0.253906 7.65625Z" fill="#FED25A" stroke="#FED25A"/>
<path opacity="0.513726" d="M19.7461 7.65625L19.8047 7.94922H19.7656L19.7461 7.65625Z" fill="#FED25A" stroke="#FED25A"/>
<path opacity="0.513726" d="M0.175781 8.00781L0.195312 8.14453H0.15625L0.175781 8.00781Z" fill="#FED25A" stroke="#FED25A"/>
<path opacity="0.513726" d="M19.8242 8.00781L19.8438 8.14453H19.8047L19.8242 8.00781Z" fill="#FED25A" stroke="#FED25A"/>
<path opacity="0.513726" d="M0.136719 8.20312L0.15625 8.37891H0.117188L0.136719 8.20312Z" fill="#FED25A" stroke="#FED25A"/>
<path opacity="0.513726" d="M19.8633 8.20312L19.8828 8.37891H19.8438L19.8633 8.20312Z" fill="#FED25A" stroke="#FED25A"/>
<path opacity="0.513726" d="M0.0976562 8.4375L0.117188 8.65234H0.078125L0.0976562 8.4375Z" fill="#FED25A" stroke="#FED25A"/>
<path opacity="0.513726" d="M19.9023 8.4375L19.9219 8.65234H19.8828L19.9023 8.4375Z" fill="#FED25A" stroke="#FED25A"/>
<path opacity="0.513726" d="M0.0585938 8.71094L0.078125 8.96484H0.0390625L0.0585938 8.71094Z" fill="#FED25A" stroke="#FED25A"/>
<path opacity="0.513726" d="M19.9414 8.75L19.9609 9.00391H19.9219L19.9414 8.75Z" fill="#FED25A" stroke="#FED25A"/>
<path opacity="0.513726" d="M0.0195312 9.10156L0.0390625 9.55078H0L0.0195312 9.10156Z" fill="#FED25A" stroke="#FED25A"/>
<path opacity="0.513726" d="M19.9805 9.10156L20 9.55078H19.9609L19.9805 9.10156Z" fill="#FED25A" stroke="#FED25A"/>
<path opacity="0.513726" d="M0.0195312 10.4297L0.0390625 10.8789H0L0.0195312 10.4297Z" fill="#FED25A" stroke="#FED25A"/>
<path opacity="0.513726" d="M19.9805 10.4297L20 10.8789H19.9609L19.9805 10.4297Z" fill="#FED25A" stroke="#FED25A"/>
<path opacity="0.513726" d="M0.0585938 10.9766L0.078125 11.2305H0.0390625L0.0585938 10.9766Z" fill="#FED25A" stroke="#FED25A"/>
<path opacity="0.513726" d="M19.9414 10.9766L19.9609 11.2305H19.9219L19.9414 10.9766Z" fill="#FED25A" stroke="#FED25A"/>
<path opacity="0.513726" d="M0.0976562 11.3281L0.117188 11.543H0.078125L0.0976562 11.3281Z" fill="#FED25A" stroke="#FED25A"/>
<path opacity="0.513726" d="M19.9023 11.3281L19.9219 11.543H19.8828L19.9023 11.3281Z" fill="#FED25A" stroke="#FED25A"/>
<path opacity="0.513726" d="M0.136719 11.6016L0.15625 11.7773H0.117188L0.136719 11.6016Z" fill="#FED25A" stroke="#FED25A"/>
<path opacity="0.513726" d="M19.8633 11.6016L19.8828 11.7773H19.8438L19.8633 11.6016Z" fill="#FED25A" stroke="#FED25A"/>
<path opacity="0.513726" d="M0.175781 11.8359L0.195312 11.9727H0.15625L0.175781 11.8359Z" fill="#FED25A" stroke="#FED25A"/>
<path opacity="0.513726" d="M19.8242 11.8359L19.8438 11.9727H19.8047L19.8242 11.8359Z" fill="#FED25A" stroke="#FED25A"/>
<path opacity="0.513726" d="M0.214844 12.0312L0.273438 12.3242H0.234375L0.214844 12.0312Z" fill="#FED25A" stroke="#FED25A"/>
<path opacity="0.513726" d="M19.7852 12.0312L19.8047 12.168L19.7461 12.3438L19.7266 12.207L19.7852 12.0312Z" fill="#FED25A" stroke="#FED25A"/>
<path opacity="0.513726" d="M0.292969 12.3828L0.3125 12.4805H0.273438L0.292969 12.3828Z" fill="#FED25A" stroke="#FED25A"/>
<path opacity="0.513726" d="M19.707 12.3828L19.7266 12.4805H19.6875L19.707 12.3828Z" fill="#FED25A" stroke="#FED25A"/>
<path opacity="0.513726" d="M0.332031 12.5391L0.390625 12.7539H0.351562L0.332031 12.5391Z" fill="#FED25A" stroke="#FED25A"/>
<path opacity="0.513726" d="M19.668 12.5391L19.6875 12.6367L19.6289 12.7734L19.6094 12.6758L19.668 12.5391Z" fill="#FED25A" stroke="#FED25A"/>
<path opacity="0.513726" d="M0.410156 12.8125L0.507812 13.1445H0.46875L0.410156 12.8125Z" fill="#FED25A" stroke="#FED25A"/>
<path opacity="0.513726" d="M19.5898 12.8125L19.6094 12.9102L19.3555 13.5938L19.3359 13.5352L19.5898 12.8125Z" fill="#FED25A" stroke="#FED25A"/>
<path opacity="0.513726" d="M0.527344 13.2031L0.664062 13.5742H0.625L0.527344 13.2031Z" fill="#FED25A" stroke="#FED25A"/>
<path opacity="0.513726" d="M0.683594 13.6328L0.742188 13.7695H0.703125L0.683594 13.6328Z" fill="#FED25A" stroke="#FED25A"/>
<path opacity="0.513726" d="M19.3164 13.6328L19.3359 13.6914L19.2773 13.7891L19.2578 13.7305L19.3164 13.6328Z" fill="#FED25A" stroke="#FED25A"/>
<path opacity="0.513726" d="M0.761719 13.8281L0.859375 14.043H0.820312L0.761719 13.8281Z" fill="#FED25A" stroke="#FED25A"/>
<path opacity="0.513726" d="M19.2383 13.8281L19.2578 13.8867C18.6146 15.3659 17.7227 16.5964 16.582 17.5781C15.8034 18.2708 14.8919 18.8307 13.8477 19.2578V19.2188C15.3138 18.6016 16.5313 17.7357 17.5 16.6211C18.2161 15.8268 18.7956 14.8958 19.2383 13.8281Z" fill="#FED25A" stroke="#FED25A"/>
<path opacity="0.513726" d="M0.878906 14.1016C1.48828 15.4323 2.30859 16.5521 3.33984 17.4609C4.05339 18.1146 4.88021 18.6549 5.82031 19.082L5.76172 19.1016C4.44141 18.4687 3.32813 17.6289 2.42188 16.582L1.44531 15.2539L0.859375 14.1602L0.878906 14.1016Z" fill="#FED25A" stroke="#FED25A"/>
<path opacity="0.513726" d="M5.87891 19.1016L6.36719 19.3164L6.30859 19.3359L5.87891 19.1406V19.1016Z" fill="#FED25A" stroke="#FED25A"/>
<path opacity="0.513726" d="M13.7305 19.2578L13.7891 19.2773L13.6523 19.3359V19.2969L13.7305 19.2578Z" fill="#FED25A" stroke="#FED25A"/>
<path opacity="0.513726" d="M6.42578 19.3359L7.1875 19.5898L7.08984 19.6094L6.50391 19.4141L6.42578 19.3359Z" fill="#FED25A" stroke="#FED25A"/>
<path opacity="0.513726" d="M13.5352 19.3359L13.5938 19.3555L13.1055 19.5312V19.4922L13.5352 19.3359Z" fill="#FED25A" stroke="#FED25A"/>
<path opacity="0.513726" d="M12.9492 19.5312L13.0469 19.5508L12.832 19.6094V19.5703L12.9492 19.5312Z" fill="#FED25A" stroke="#FED25A"/>
<path opacity="0.513726" d="M7.24609 19.6094L7.46094 19.668L7.36328 19.6875L7.24609 19.6484V19.6094Z" fill="#FED25A" stroke="#FED25A"/>
<path opacity="0.513726" d="M12.6758 19.6094L12.7734 19.6289L12.5586 19.6875V19.6484L12.6758 19.6094Z" fill="#FED25A" stroke="#FED25A"/>
<path opacity="0.513726" d="M7.51953 19.6875L7.96875 19.7852L7.83203 19.8047L7.51953 19.7266V19.6875Z" fill="#FED25A" stroke="#FED25A"/>
<path opacity="0.513726" d="M12.4023 19.6875L12.5 19.707L12.4023 19.7266V19.6875Z" fill="#FED25A" stroke="#FED25A"/>
<path opacity="0.513726" d="M12.207 19.7266L12.3438 19.7461L12.0508 19.8047V19.7656L12.207 19.7266Z" fill="#FED25A" stroke="#FED25A"/>
<path opacity="0.513726" d="M8.02734 19.8047L8.16406 19.8242L8.02734 19.8438V19.8047Z" fill="#FED25A" stroke="#FED25A"/>
<path opacity="0.513726" d="M11.8555 19.8047L11.9922 19.8242L11.8555 19.8438V19.8047Z" fill="#FED25A" stroke="#FED25A"/>
<path opacity="0.513726" d="M8.26172 19.8438L8.39844 19.8633L8.26172 19.8828V19.8438Z" fill="#FED25A" stroke="#FED25A"/>
<path opacity="0.513726" d="M11.6211 19.8438L11.7969 19.8633L11.6211 19.8828V19.8438Z" fill="#FED25A" stroke="#FED25A"/>
<path opacity="0.513726" d="M8.45703 19.8828L8.67188 19.9023L8.45703 19.9219V19.8828Z" fill="#FED25A" stroke="#FED25A"/>
<path opacity="0.513726" d="M11.3477 19.8828L11.5625 19.9023L11.3477 19.9219V19.8828Z" fill="#FED25A" stroke="#FED25A"/>
<path opacity="0.513726" d="M8.76953 19.9219L9.02344 19.9414L8.76953 19.9609V19.9219Z" fill="#FED25A" stroke="#FED25A"/>
<path opacity="0.513726" d="M10.9961 19.9219L11.25 19.9414L10.9961 19.9609V19.9219Z" fill="#FED25A" stroke="#FED25A"/>
<path opacity="0.513726" d="M9.12109 19.9609L9.57031 19.9805L9.12109 20V19.9609Z" fill="#FED25A" stroke="#FED25A"/>
<path opacity="0.513726" d="M10.4492 19.9609L10.8984 19.9805L10.4492 20V19.9609Z" fill="#FED25A" stroke="#FED25A"/>
<path opacity="0.996078" d="M9.43359 1.83594L9.53125 1.85547L9.43359 1.875V1.83594Z" fill="#FDCF55" stroke="#FDCF55"/>
<path opacity="0.996078" d="M10.4492 1.83594L10.5859 1.85547L10.4492 1.875V1.83594Z" fill="#FDCF55" stroke="#FDCF55"/>
<path opacity="0.996078" d="M13.8477 2.77344L13.9844 2.87109L13.9258 2.85156L13.8477 2.77344Z" fill="#FDCF55" stroke="#FDCF55"/>
<path opacity="0.996078" d="M14.1211 2.92969L14.2578 3.02734L14.1992 3.00781L14.1211 2.92969Z" fill="#FDCF55" stroke="#FDCF55"/>
<path opacity="0.996078" d="M5.68359 3.04688L5.64453 3.125" stroke="#FDCF55"/>
<path opacity="0.996078" d="M14.3164 3.04688L14.3555 3.125" stroke="#FDCF55"/>
<path opacity="0.996078" d="M14.4336 3.125L14.4727 3.20312" stroke="#FDCF55"/>
<path opacity="0.996078" d="M14.5508 3.20312L14.5898 3.28125" stroke="#FDCF55"/>
<path opacity="0.996078" d="M5.33203 3.28125L5.29297 3.35938" stroke="#FDCF55"/>
<path opacity="0.996078" d="M14.668 3.28125L14.707 3.35938" stroke="#FDCF55"/>
<path opacity="0.996078" d="M14.7852 3.35938L14.8242 3.4375" stroke="#FDCF55"/>
<path opacity="0.996078" d="M5.05859 3.47656L5.01953 3.55469" stroke="#FDCF55"/>
<path opacity="0.996078" d="M14.9414 3.47656L14.9805 3.55469" stroke="#FDCF55"/>
<path opacity="0.996078" d="M15.0977 3.59375L15.1758 3.71094" stroke="#FDCF55"/>
<path opacity="0.996078" d="M4.86328 3.63281L4.78516 3.75" stroke="#FDCF55"/>
<path opacity="0.996078" d="M15.332 3.78906L15.4883 3.98438" stroke="#FDCF55"/>
<path opacity="0.996078" d="M4.62891 3.82812L4.47266 4.02344" stroke="#FDCF55"/>
<path opacity="0.996078" d="M4.00391 4.45312L3.84766 4.64844" stroke="#FDCF55"/>
<path opacity="0.996078" d="M16.0352 4.49219L16.1914 4.6875" stroke="#FDCF55"/>
<path opacity="0.996078" d="M3.69141 4.80469L3.65234 4.88281" stroke="#FDCF55"/>
<path opacity="0.996078" d="M16.3086 4.80469L16.3477 4.88281" stroke="#FDCF55"/>
<path opacity="0.996078" d="M3.53516 5L3.49609 5.07812" stroke="#FDCF55"/>
<path opacity="0.996078" d="M16.4648 5L16.5039 5.07812" stroke="#FDCF55"/>
<path opacity="0.996078" d="M3.33984 5.27344L3.30078 5.35156" stroke="#FDCF55"/>
<path opacity="0.996078" d="M3.02734 5.74219L2.98828 5.82031" stroke="#FDCF55"/>
<path opacity="0.996078" d="M16.9727 5.74219L17.0117 5.82031" stroke="#FDCF55"/>
<path opacity="0.996078" d="M9.58984 5.78125L9.6875 5.80078L9.58984 5.82031V5.78125Z" fill="#FDCF55" stroke="#FDCF55"/>
<path opacity="0.996078" d="M9.43359 5.85938L9.31641 6.01562" stroke="#FDCF55"/>
<path opacity="0.996078" d="M10.0586 5.85938L10.2148 6.05469" stroke="#FDCF55"/>
<path opacity="0.996078" d="M2.87109 6.01562L2.83203 6.09375" stroke="#FDCF55"/>
<path opacity="0.996078" d="M8.57422 8.125L8.41797 8.32031" stroke="#FDCF55"/>
<path opacity="0.996078" d="M10.957 8.16406L11.0742 8.32031" stroke="#FDCF55"/>
<path opacity="0.996078" d="M13.5742 8.4375L13.6719 8.49609L13.6133 8.47656L13.5742 8.4375Z" fill="#FDCF55" stroke="#FDCF55"/>
<path opacity="0.996078" d="M5.83984 8.47656L5.72266 8.63281" stroke="#FDCF55"/>
<path opacity="0.996078" d="M13.7695 8.59375L13.8086 8.67188" stroke="#FDCF55"/>
<path opacity="0.996078" d="M13.8867 8.78906L13.9062 9.04297H13.8672L13.8867 8.78906Z" fill="#FDCF55" stroke="#FDCF55"/>
<path opacity="0.996078" d="M5.60547 8.90625L5.625 9.00391H5.58594L5.60547 8.90625Z" fill="#FDCF55" stroke="#FDCF55"/>
<path opacity="0.996078" d="M5.64453 9.10156L5.70312 9.19922L5.625 9.16016L5.64453 9.10156Z" fill="#FDCF55" stroke="#FDCF55"/>
<path opacity="0.996078" d="M13.8086 9.21875L13.7695 9.29688" stroke="#FDCF55"/>
<path opacity="0.996078" d="M5.72266 9.25781L5.83984 9.41406" stroke="#FDCF55"/>
<path opacity="0.996078" d="M13.6914 9.33594L13.6523 9.41406" stroke="#FDCF55"/>
<path opacity="0.996078" d="M18.1445 9.375L18.1641 9.51172H18.125L18.1445 9.375Z" fill="#FDCF55" stroke="#FDCF55"/>
<path opacity="0.996078" d="M1.85547 9.41406L1.875 9.51172H1.83594L1.85547 9.41406Z" fill="#FDCF55" stroke="#FDCF55"/>
<path opacity="0.996078" d="M5.91797 9.41406L6.13281 9.58984L6.03516 9.53125L5.91797 9.41406Z" fill="#FDCF55" stroke="#FDCF55"/>
<path opacity="0.996078" d="M13.5352 9.45312L13.4961 9.53125" stroke="#FDCF55"/>
<path opacity="0.996078" d="M13.3789 9.57031L13.3398 9.64844" stroke="#FDCF55"/>
<path opacity="0.996078" d="M6.19141 9.60938L6.23047 9.6875" stroke="#FDCF55"/>
<path opacity="0.996078" d="M6.34766 9.72656L6.38672 9.80469" stroke="#FDCF55"/>
<path opacity="0.996078" d="M13.1055 9.76562L13.0664 9.84375" stroke="#FDCF55"/>
<path opacity="0.996078" d="M6.46484 9.80469L6.54297 9.92188" stroke="#FDCF55"/>
<path opacity="0.996078" d="M12.9492 9.88281L12.9102 9.96094" stroke="#FDCF55"/>
<path opacity="0.996078" d="M6.62109 9.92188L6.66016 10" stroke="#FDCF55"/>
<path opacity="0.996078" d="M6.77734 10.0391L6.81641 10.1172" stroke="#FDCF55"/>
<path opacity="0.996078" d="M12.6758 10.0781L12.6367 10.1562" stroke="#FDCF55"/>
<path opacity="0.996078" d="M12.5195 10.1953L12.4805 10.2734" stroke="#FDCF55"/>
<path opacity="0.996078" d="M7.05078 10.2344L7.08984 10.3125" stroke="#FDCF55"/>
<path opacity="0.996078" d="M7.20703 10.3516L7.24609 10.4297" stroke="#FDCF55"/>
<path opacity="0.996078" d="M12.2461 10.3906L12.207 10.4688" stroke="#FDCF55"/>
<path opacity="0.996078" d="M7.36328 10.4688L7.40234 10.5469" stroke="#FDCF55"/>
<path opacity="0.996078" d="M18.1445 10.4688L18.1641 10.5664H18.125L18.1445 10.4688Z" fill="#FDCF55" stroke="#FDCF55"/>
<path opacity="0.996078" d="M1.85547 10.5078L1.875 10.6055H1.83594L1.85547 10.5078Z" fill="#FDCF55" stroke="#FDCF55"/>
<path opacity="0.996078" d="M12.0898 10.5078L11.9727 10.6641" stroke="#FDCF55"/>
<path opacity="0.996078" d="M7.63672 10.8594L7.65625 11.0742H7.61719L7.63672 10.8594Z" fill="#FDCF55" stroke="#FDCF55"/>
<path opacity="0.996078" d="M9.35547 12.5L9.31641 12.5781" stroke="#FDCF55"/>
<path opacity="0.996078" d="M10.1758 12.5L10.2539 12.6172" stroke="#FDCF55"/>
<path opacity="0.996078" d="M10.332 12.6172L10.3711 12.6953" stroke="#FDCF55"/>
<path opacity="0.996078" d="M9.08203 12.6953L9.04297 12.7734" stroke="#FDCF55"/>
<path opacity="0.996078" d="M10.4883 12.7344L10.5273 12.8125" stroke="#FDCF55"/>
<path opacity="0.996078" d="M10.6055 12.8125L10.6445 12.8906" stroke="#FDCF55"/>
<path opacity="0.996078" d="M8.80859 12.8906L8.76953 12.9688" stroke="#FDCF55"/>
<path opacity="0.996078" d="M10.7617 12.9297L10.8008 13.0078" stroke="#FDCF55"/>
<path opacity="0.996078" d="M8.65234 13.0078L8.61328 13.0859" stroke="#FDCF55"/>
<path opacity="0.996078" d="M10.918 13.0469L10.957 13.125" stroke="#FDCF55"/>
<path opacity="0.996078" d="M8.53516 13.0859L8.49609 13.1641" stroke="#FDCF55"/>
<path opacity="0.996078" d="M12.5195 13.0859L12.5391 13.2617H12.5L12.5195 13.0859Z" fill="#FDCF55" stroke="#FDCF55"/>
<path opacity="0.996078" d="M8.37891 13.2031L8.33984 13.2812" stroke="#FDCF55"/>
<path opacity="0.996078" d="M11.1914 13.2422L11.2305 13.3203" stroke="#FDCF55"/>
<path opacity="0.996078" d="M8.26172 13.2812L8.22266 13.3594" stroke="#FDCF55"/>
<path opacity="0.996078" d="M7.01172 13.3203L7.26562 13.6523L7.03125 13.457L7.01172 13.3203Z" fill="#FDCF55" stroke="#FDCF55"/>
<path opacity="0.996078" d="M11.3477 13.3594L11.3867 13.4375" stroke="#FDCF55"/>
<path opacity="0.996078" d="M8.10547 13.3984L8.06641 13.4766" stroke="#FDCF55"/>
<path opacity="0.996078" d="M11.6211 13.5547L11.6602 13.6328" stroke="#FDCF55"/>
<path opacity="0.996078" d="M7.83203 13.5938L7.79297 13.6719" stroke="#FDCF55"/>
<path opacity="0.996078" d="M12.2852 13.5938L12.2461 13.6719" stroke="#FDCF55"/>
<path opacity="0.996078" d="M17.168 13.9062L17.1289 13.9844" stroke="#FDCF55"/>
<path opacity="0.996078" d="M16.6992 14.6484L16.6602 14.7266" stroke="#FDCF55"/>
<path opacity="0.996078" d="M3.37891 14.7656L3.41797 14.8438" stroke="#FDCF55"/>
<path opacity="0.996078" d="M3.49609 14.9219L3.53516 15" stroke="#FDCF55"/>
<path opacity="0.996078" d="M16.5039 14.9219L16.4648 15" stroke="#FDCF55"/>
<path opacity="0.996078" d="M3.65234 15.1172L3.69141 15.1953" stroke="#FDCF55"/>
<path opacity="0.996078" d="M16.3477 15.1172L16.3086 15.1953" stroke="#FDCF55"/>
<path opacity="0.996078" d="M3.84766 15.3516L3.96484 15.5078" stroke="#FDCF55"/>
<path opacity="0.996078" d="M16.1523 15.3516L15.9961 15.5469" stroke="#FDCF55"/>
<path opacity="0.996078" d="M4.51172 16.0156L4.62891 16.1719" stroke="#FDCF55"/>
<path opacity="0.996078" d="M15.4883 16.0156L15.332 16.2109" stroke="#FDCF55"/>
<path opacity="0.996078" d="M4.82422 16.2891L4.86328 16.3672" stroke="#FDCF55"/>
<path opacity="0.996078" d="M15.1758 16.2891L15.1367 16.3672" stroke="#FDCF55"/>
<path opacity="0.996078" d="M5.01953 16.4453L5.05859 16.5234" stroke="#FDCF55"/>
<path opacity="0.996078" d="M14.9805 16.4453L14.9414 16.5234" stroke="#FDCF55"/>
<path opacity="0.996078" d="M5.29297 16.6406L5.33203 16.7188" stroke="#FDCF55"/>
<path opacity="0.996078" d="M14.707 16.6406L14.668 16.7188" stroke="#FDCF55"/>
<path opacity="0.996078" d="M5.64453 16.875L5.68359 16.9531" stroke="#FDCF55"/>
<path opacity="0.996078" d="M14.3555 16.875L14.3164 16.9531" stroke="#FDCF55"/>
<path opacity="0.996078" d="M5.83984 16.9922L5.97656 17.0898L5.91797 17.0703L5.83984 16.9922Z" fill="#FDCF55" stroke="#FDCF55"/>
<path opacity="0.996078" d="M6.03516 17.1094L6.07422 17.1875" stroke="#FDCF55"/>
<path opacity="0.996078" d="M13.9648 17.1094L13.9258 17.1875" stroke="#FDCF55"/>
<path opacity="0.996078" d="M9.43359 18.125L9.53125 18.1445L9.43359 18.1641V18.125Z" fill="#FDCF55" stroke="#FDCF55"/>
<path opacity="0.996078" d="M10.4883 18.125L10.5859 18.1445L10.4883 18.1641V18.125Z" fill="#FDCF55" stroke="#FDCF55"/>
<path opacity="0.996078" d="M9.55078 1.83594L10.4297 1.85547L9.55078 1.875V1.83594Z" fill="#FDB635" stroke="#FDB635"/>
<path opacity="0.996078" d="M9.12109 1.875L9.25781 1.89453L9.12109 1.91406V1.875Z" fill="#FDB635" stroke="#FDB635"/>
<path opacity="0.996078" d="M10.7617 1.875L10.8984 1.89453L10.7617 1.91406V1.875Z" fill="#FDB635" stroke="#FDB635"/>
<path opacity="0.996078" d="M8.80859 1.91406L8.90625 1.93359L8.80859 1.95312V1.91406Z" fill="#FDB635" stroke="#FDB635"/>
<path opacity="0.996078" d="M11.1133 1.91406L11.2109 1.93359L11.1133 1.95312V1.91406Z" fill="#FDB635" stroke="#FDB635"/>
<path opacity="0.996078" d="M8.57422 1.95312L8.67188 1.97266L8.57422 1.99219V1.95312Z" fill="#FDB635" stroke="#FDB635"/>
<path opacity="0.996078" d="M10.1758 2.22656L10.9375 2.24609L10.1758 2.26562V2.22656Z" fill="#FDB635" stroke="#FDB635"/>
<path opacity="0.996078" d="M9.66797 2.26562L9.76562 2.28516L9.66797 2.30469V2.26562Z" fill="#FDB635" stroke="#FDB635"/>
<path opacity="0.996078" d="M11.3477 2.26562L11.4453 2.28516L11.3477 2.30469V2.26562Z" fill="#FDB635" stroke="#FDB635"/>
<path opacity="0.996078" d="M14.1602 3.00781L14.1211 3.08594" stroke="#FDB635"/>
<path opacity="0.996078" d="M14.2775 3.08594L14.3166 3.16406C14.2437 3.18229 14.2306 3.15625 14.2775 3.08594Z" fill="#FDB635" stroke="#FDB635"/>
<path opacity="0.996078" d="M5.52734 3.16406L5.48828 3.24219" stroke="#FDB635"/>
<path opacity="0.996078" d="M14.4336 3.20312L14.5312 3.24219L14.5117 3.32031L14.4336 3.20312Z" fill="#FDB635" stroke="#FDB635"/>
<path opacity="0.996078" d="M5.41016 3.24219L5.37109 3.32031" stroke="#FDB635"/>
<path opacity="0.996078" d="M14.668 3.39844L14.707 3.47656" stroke="#FDB635"/>
<path opacity="0.996078" d="M5.13672 3.4375L5.09766 3.51562" stroke="#FDB635"/>
<path opacity="0.996078" d="M14.8633 3.4375L14.9023 3.51562" stroke="#FDB635"/>
<path opacity="0.996078" d="M14.8633 3.55469L14.9414 3.67188" stroke="#FDB635"/>
<path opacity="0.996078" d="M15.0195 3.55469L15.0977 3.67188" stroke="#FDB635"/>
<path opacity="0.996078" d="M4.94141 3.59375L4.90234 3.67188" stroke="#FDB635"/>
<path opacity="0.996078" d="M4.74609 3.75L4.66797 3.86719" stroke="#FDB635"/>
<path opacity="0.996078" d="M15.2539 3.75L15.332 3.86719" stroke="#FDB635"/>
<path opacity="0.996078" d="M15.2539 3.90625L15.4883 4.17969" stroke="#FDB635"/>
<path opacity="0.996078" d="M15.5273 3.98438L15.957 4.45312" stroke="#FDB635"/>
<path opacity="0.996078" d="M5.44922 4.02344L5.41016 4.10156" stroke="#FDB635"/>
<path opacity="0.996078" d="M4.39453 4.0625L4.08203 4.41406" stroke="#FDB635"/>
<path opacity="0.996078" d="M5.21484 4.21875L5.13672 4.33594" stroke="#FDB635"/>
<path opacity="0.996078" d="M15.7617 4.45312L15.8398 4.57031" stroke="#FDB635"/>
<path opacity="0.996078" d="M3.84766 4.64844L3.76953 4.76562" stroke="#FDB635"/>
<path opacity="0.996078" d="M16.1523 4.64844L16.2695 4.80469" stroke="#FDB635"/>
<path opacity="0.996078" d="M15.957 4.6875L15.9961 4.76562" stroke="#FDB635"/>
<path opacity="0.996078" d="M3.65234 4.88281L3.61328 4.96094" stroke="#FDB635"/>
<path opacity="0.996078" d="M16.3477 4.88281L16.4258 5" stroke="#FDB635"/>
<path opacity="0.996078" d="M4.51172 4.92188L4.43359 5.03906" stroke="#FDB635"/>
<path opacity="0.996078" d="M3.49609 5.07812L3.45703 5.15625" stroke="#FDB635"/>
<path opacity="0.996078" d="M16.5039 5.07812L16.543 5.15625" stroke="#FDB635"/>
<path opacity="0.996078" d="M16.6211 5.23438L16.6602 5.3125" stroke="#FDB635"/>
<path opacity="0.996078" d="M3.30078 5.35156L3.26172 5.42969" stroke="#FDB635"/>
<path opacity="0.996078" d="M16.6992 5.35156L16.7383 5.42969" stroke="#FDB635"/>
<path opacity="0.996078" d="M3.22266 5.46875L3.18359 5.54688" stroke="#FDB635"/>
<path opacity="0.996078" d="M16.7773 5.46875L16.8164 5.54688" stroke="#FDB635"/>
<path opacity="0.996078" d="M16.8555 5.58594L16.8945 5.66406" stroke="#FDB635"/>
<path opacity="0.996078" d="M17.0898 5.97656L17.1289 6.05469" stroke="#FDB635"/>
<path opacity="0.996078" d="M10.6055 6.36719L10.6836 6.48438" stroke="#FDB635"/>
<path opacity="0.996078" d="M2.01172 8.32031L2.03125 8.41797H1.99219L2.01172 8.32031Z" fill="#FDB635" stroke="#FDB635"/>
<path opacity="0.996078" d="M17.9883 8.32031L18.0078 8.41797H17.9688L17.9883 8.32031Z" fill="#FDB635" stroke="#FDB635"/>
<path opacity="0.996078" d="M18.0273 8.51562L18.0469 8.61328H18.0078L18.0273 8.51562Z" fill="#FDB635" stroke="#FDB635"/>
<path opacity="0.996078" d="M17.6758 8.63281L17.6953 8.73047H17.6562L17.6758 8.63281Z" fill="#FDB635" stroke="#FDB635"/>
<path opacity="0.996078" d="M1.93359 8.75L1.95312 8.88672H1.91406L1.93359 8.75Z" fill="#FDB635" stroke="#FDB635"/>
<path opacity="0.996078" d="M18.0664 8.75L18.0859 8.88672H18.0469L18.0664 8.75Z" fill="#FDB635" stroke="#FDB635"/>
<path opacity="0.996078" d="M17.7148 8.94531L17.7344 9.08203H17.6953L17.7148 8.94531Z" fill="#FDB635" stroke="#FDB635"/>
<path opacity="0.996078" d="M14.1992 8.98438L14.2773 9.10156" stroke="#FDB635"/>
<path opacity="0.996078" d="M1.89453 9.0625L1.91406 9.19922H1.875L1.89453 9.0625Z" fill="#FDB635" stroke="#FDB635"/>
<path opacity="0.996078" d="M18.1055 9.0625L18.125 9.19922H18.0859L18.1055 9.0625Z" fill="#FDB635" stroke="#FDB635"/>
<path opacity="0.996078" d="M2.48047 9.29688L2.5 9.39453H2.46094L2.48047 9.29688Z" fill="#FDB635" stroke="#FDB635"/>
<path opacity="0.996078" d="M13.7695 9.29688L13.7305 9.375" stroke="#FDB635"/>
<path opacity="0.996078" d="M13.6133 9.41406L13.5742 9.49219" stroke="#FDB635"/>
<path opacity="0.996078" d="M1.85547 9.53125L1.875 10.4883H1.83594L1.85547 9.53125Z" fill="#FDB635" stroke="#FDB635"/>
<path opacity="0.996078" d="M13.457 9.53125L13.418 9.60938" stroke="#FDB635"/>
<path opacity="0.996078" d="M18.1445 9.53125L18.1641 10.4492H18.125L18.1445 9.53125Z" fill="#FDB635" stroke="#FDB635"/>
<path opacity="0.996078" d="M17.7539 9.60938L17.7734 9.90234H17.7344L17.7539 9.60938Z" fill="#FDB635" stroke="#FDB635"/>
<path opacity="0.996078" d="M2.44141 9.64844L2.46094 9.78516H2.42188L2.44141 9.64844Z" fill="#FDB635" stroke="#FDB635"/>
<path opacity="0.996078" d="M13.3008 9.64844L13.2617 9.72656" stroke="#FDB635"/>
<path opacity="0.996078" d="M6.26953 9.6875L6.30859 9.76562" stroke="#FDB635"/>
<path opacity="0.996078" d="M13.1836 9.72656L13.1445 9.80469" stroke="#FDB635"/>
<path opacity="0.996078" d="M6.42578 9.80469L6.46484 9.88281" stroke="#FDB635"/>
<path opacity="0.996078" d="M13.0273 9.84375L12.9883 9.92188" stroke="#FDB635"/>
<path opacity="0.996078" d="M6.34766 9.88281L6.38672 9.96094" stroke="#FDB635"/>
<path opacity="0.996078" d="M14.1602 9.88281L14.1211 9.96094" stroke="#FDB635"/>
<path opacity="0.996078" d="M6.69922 10L6.73828 10.0781" stroke="#FDB635"/>
<path opacity="0.996078" d="M12.7539 10.0391L12.7148 10.1172" stroke="#FDB635"/>
<path opacity="0.996078" d="M6.85547 10.1172L6.89453 10.1953" stroke="#FDB635"/>
<path opacity="0.996078" d="M12.5977 10.1562L12.5586 10.2344" stroke="#FDB635"/>
<path opacity="0.996078" d="M6.97266 10.1953L7.01172 10.2734" stroke="#FDB635"/>
<path opacity="0.996078" d="M13.7305 10.1953L13.6914 10.2734" stroke="#FDB635"/>
<path opacity="0.996078" d="M7.12891 10.3125L7.16797 10.3906" stroke="#FDB635"/>
<path opacity="0.996078" d="M12.3242 10.3516L12.2852 10.4297" stroke="#FDB635"/>
<path opacity="0.996078" d="M7.28516 10.4297L7.32422 10.5078" stroke="#FDB635"/>
<path opacity="0.996078" d="M12.168 10.4688L12.1289 10.5469" stroke="#FDB635"/>
<path opacity="0.996078" d="M17.7148 10.4688L17.7344 10.6055H17.6953L17.7148 10.4688Z" fill="#FDB635" stroke="#FDB635"/>
<path opacity="0.996078" d="M13.3008 10.5078L13.2617 10.5859" stroke="#FDB635"/>
<path opacity="0.996078" d="M7.44141 10.5469L7.51953 10.6641" stroke="#FDB635"/>
<path opacity="0.996078" d="M7.32422 10.5859L7.36328 10.6641" stroke="#FDB635"/>
<path opacity="0.996078" d="M11.9727 10.6641L11.9531 10.7227L11.9336 10.7812L11.9141 10.7227L11.9727 10.6641Z" fill="#FDB635" stroke="#FDB635"/>
<path opacity="0.996078" d="M1.89453 10.7812L1.91406 10.918H1.875L1.89453 10.7812Z" fill="#FDB635" stroke="#FDB635"/>
<path opacity="0.996078" d="M18.1055 10.7812L18.125 10.918H18.0859L18.1055 10.7812Z" fill="#FDB635" stroke="#FDB635"/>
<path opacity="0.996078" d="M17.6758 10.8203L17.6953 10.918H17.6562L17.6758 10.8203Z" fill="#FDB635" stroke="#FDB635"/>
<path opacity="0.996078" d="M2.44141 10.9766L2.46094 11.1133H2.42188L2.44141 10.9766Z" fill="#FDB635" stroke="#FDB635"/>
<path opacity="0.996078" d="M12.5977 11.0156L12.5195 11.1328" stroke="#FDB635"/>
<path opacity="0.996078" d="M18.0664 11.0938L18.0859 11.2305H18.0469L18.0664 11.0938Z" fill="#FDB635" stroke="#FDB635"/>
<path opacity="0.996078" d="M1.93359 11.1328L1.95312 11.2305H1.91406L1.93359 11.1328Z" fill="#FDB635" stroke="#FDB635"/>
<path opacity="0.996078" d="M1.97266 11.3672L1.99219 11.4648H1.95312L1.97266 11.3672Z" fill="#FDB635" stroke="#FDB635"/>
<path opacity="0.996078" d="M2.48047 11.3672L2.5 11.4648H2.46094L2.48047 11.3672Z" fill="#FDB635" stroke="#FDB635"/>
<path opacity="0.996078" d="M17.9883 11.5625L18.0078 11.6602H17.9688L17.9883 11.5625Z" fill="#FDB635" stroke="#FDB635"/>
<path opacity="0.996078" d="M9.43359 12.4609L9.39453 12.5391" stroke="#FDB635"/>
<path opacity="0.996078" d="M10.1367 12.5L10.1758 12.5781" stroke="#FDB635"/>
<path opacity="0.996078" d="M9.27734 12.5781L9.23828 12.6562" stroke="#FDB635"/>
<path opacity="0.996078" d="M9.16016 12.6562L9.12109 12.7344" stroke="#FDB635"/>
<path opacity="0.996078" d="M10.4102 12.6953L10.4492 12.7734" stroke="#FDB635"/>
<path opacity="0.996078" d="M9.00391 12.7734L8.96484 12.8516" stroke="#FDB635"/>
<path opacity="0.996078" d="M10.5664 12.8125L10.6055 12.8906" stroke="#FDB635"/>
<path opacity="0.996078" d="M8.88672 12.8516L8.84766 12.9297" stroke="#FDB635"/>
<path opacity="0.996078" d="M10.6836 12.8906L10.7227 12.9688" stroke="#FDB635"/>
<path opacity="0.996078" d="M8.73047 12.9688L8.69141 13.0469" stroke="#FDB635"/>
<path opacity="0.996078" d="M10.8398 13.0078L10.8789 13.0859" stroke="#FDB635"/>
<path opacity="0.996078" d="M10.7617 13.0859L10.8008 13.1641" stroke="#FDB635"/>
<path opacity="0.996078" d="M9.70703 13.125L9.66797 13.2031" stroke="#FDB635"/>
<path opacity="0.996078" d="M10.9961 13.125L11.0352 13.2031" stroke="#FDB635"/>
<path opacity="0.996078" d="M8.45703 13.1641L8.41797 13.2422" stroke="#FDB635"/>
<path opacity="0.996078" d="M11.1133 13.2031L11.1523 13.2812" stroke="#FDB635"/>
<path opacity="0.996078" d="M8.30078 13.2812L8.26172 13.3594" stroke="#FDB635"/>
<path opacity="0.996078" d="M11.2695 13.3203L11.3086 13.3984" stroke="#FDB635"/>
<path opacity="0.996078" d="M8.18359 13.3594L8.14453 13.4375" stroke="#FDB635"/>
<path opacity="0.996078" d="M11.1914 13.3984L11.2305 13.4766" stroke="#FDB635"/>
<path opacity="0.996078" d="M11.4258 13.4375L11.4648 13.5156" stroke="#FDB635"/>
<path opacity="0.996078" d="M8.02734 13.4766L7.98828 13.5547" stroke="#FDB635"/>
<path opacity="0.996078" d="M12.4414 13.4766L12.3242 13.6328" stroke="#FDB635"/>
<path opacity="0.996078" d="M11.543 13.5156L11.582 13.5938" stroke="#FDB635"/>
<path opacity="0.996078" d="M7.91016 13.5547L7.87109 13.6328" stroke="#FDB635"/>
<path opacity="0.996078" d="M7.51953 13.7109L7.65625 13.7305L7.48047 13.7891L7.51953 13.7109Z" fill="#FDB635" stroke="#FDB635"/>
<path opacity="0.996078" d="M11.6211 13.7109L11.6602 13.7891" stroke="#FDB635"/>
<path opacity="0.996078" d="M11.8945 13.7109L12.1094 13.7305L11.8945 13.75V13.7109Z" fill="#FDB635" stroke="#FDB635"/>
<path opacity="0.996078" d="M8.84766 13.75L8.80859 13.8281" stroke="#FDB635"/>
<path opacity="0.996078" d="M12.0508 14.0234L12.0898 14.1016" stroke="#FDB635"/>
<path opacity="0.996078" d="M3.10547 14.3359L3.14453 14.4141" stroke="#FDB635"/>
<path opacity="0.996078" d="M16.8164 14.4531L16.7773 14.5312" stroke="#FDB635"/>
<path opacity="0.996078" d="M3.26172 14.5703L3.30078 14.6484" stroke="#FDB635"/>
<path opacity="0.996078" d="M16.7383 14.5703L16.6992 14.6484" stroke="#FDB635"/>
<path opacity="0.996078" d="M3.33984 14.6875L3.37891 14.7656" stroke="#FDB635"/>
<path opacity="0.996078" d="M16.0352 14.7656L15.9961 14.8438" stroke="#FDB635"/>
<path opacity="0.996078" d="M3.45703 14.8438L3.49609 14.9219" stroke="#FDB635"/>
<path opacity="0.996078" d="M16.543 14.8438L16.5039 14.9219" stroke="#FDB635"/>
<path opacity="0.996078" d="M15.8789 14.9609L15.8008 15.0781" stroke="#FDB635"/>
<path opacity="0.996078" d="M3.57422 15L3.65234 15.1172" stroke="#FDB635"/>
<path opacity="0.996078" d="M16.3867 15.0391L16.3477 15.1172" stroke="#FDB635"/>
<path opacity="0.996078" d="M3.73047 15.1953L3.80859 15.3125" stroke="#FDB635"/>
<path opacity="0.996078" d="M16.2695 15.1953L16.1523 15.3516" stroke="#FDB635"/>
<path opacity="0.996078" d="M15.6445 15.2344L15.4102 15.5078" stroke="#FDB635"/>
<path opacity="0.996078" d="M4.12109 15.3516L4.16016 15.4297" stroke="#FDB635"/>
<path opacity="0.996078" d="M4.00391 15.5078L4.47266 16.0156" stroke="#FDB635"/>
<path opacity="0.996078" d="M4.27734 15.5469L4.35547 15.6641" stroke="#FDB635"/>
<path opacity="0.996078" d="M15.957 15.5469L15.5273 16.0156" stroke="#FDB635"/>
<path opacity="0.996078" d="M15.293 15.5859L15.0586 15.8594" stroke="#FDB635"/>
<path opacity="0.996078" d="M4.55078 15.8594L5.05859 16.4062" stroke="#FDB635"/>
<path opacity="0.996078" d="M14.8633 15.9766L14.7852 16.0938" stroke="#FDB635"/>
<path opacity="0.996078" d="M4.66797 16.1328L4.78516 16.2891" stroke="#FDB635"/>
<path opacity="0.996078" d="M15.332 16.1328L15.2148 16.2891" stroke="#FDB635"/>
<path opacity="0.996078" d="M14.4727 16.2891L14.4336 16.3672" stroke="#FDB635"/>
<path opacity="0.996078" d="M4.90234 16.3281L4.98047 16.4453" stroke="#FDB635"/>
<path opacity="0.996078" d="M15.0977 16.3281L15.0195 16.4453" stroke="#FDB635"/>
<path opacity="0.996078" d="M5.09766 16.4844L5.13672 16.5625" stroke="#FDB635"/>
<path opacity="0.996078" d="M14.1992 16.4844L14.1602 16.5625" stroke="#FDB635"/>
<path opacity="0.996078" d="M14.9023 16.4844L14.8633 16.5625" stroke="#FDB635"/>
<path opacity="0.996078" d="M5.29297 16.5625L5.33203 16.6406L5.23438 16.6211L5.29297 16.5625Z" fill="#FDB635" stroke="#FDB635"/>
<path opacity="0.996078" d="M5.37109 16.6797L5.41016 16.7578" stroke="#FDB635"/>
<path opacity="0.996078" d="M14.6289 16.6797L14.5898 16.7578" stroke="#FDB635"/>
<path opacity="0.996078" d="M5.48828 16.7578L5.58594 16.8164L5.52734 16.8359L5.48828 16.7578Z" fill="#FDB635" stroke="#FDB635"/>
<path opacity="0.996078" d="M14.5117 16.7578L14.4727 16.8359" stroke="#FDB635"/>
<path opacity="0.996078" d="M6.07422 17.1094L6.28906 17.2461L6.23047 17.2266C6.1263 17.2135 6.07422 17.1745 6.07422 17.1094Z" fill="#FDB635" stroke="#FDB635"/>
<path opacity="0.996078" d="M6.62109 17.3438L6.58203 17.4219" stroke="#FDB635"/>
<path opacity="0.996078" d="M6.81641 17.4219L6.77734 17.5" stroke="#FDB635"/>
<path opacity="0.996078" d="M8.96484 17.8906L9.14062 17.9102L8.96484 17.9297V17.8906Z" fill="#FDB635" stroke="#FDB635"/>
<path opacity="0.996078" d="M10.0977 17.8906L10.2344 17.9102L10.0977 17.9297V17.8906Z" fill="#FDB635" stroke="#FDB635"/>
<path opacity="0.996078" d="M11.582 17.9688L11.6797 17.9883L11.582 18.0078V17.9688Z" fill="#FDB635" stroke="#FDB635"/>
<path opacity="0.996078" d="M11.1133 18.0469L11.25 18.0664L11.1133 18.0859V18.0469Z" fill="#FDB635" stroke="#FDB635"/>
<path opacity="0.996078" d="M9.08203 18.0859L9.21875 18.1055L9.08203 18.125V18.0859Z" fill="#FDB635" stroke="#FDB635"/>
<path opacity="0.996078" d="M10.8008 18.0859L10.9375 18.1055L10.8008 18.125V18.0859Z" fill="#FDB635" stroke="#FDB635"/>
<path opacity="0.996078" d="M9.55078 18.125L10.4688 18.1445L9.55078 18.1641V18.125Z" fill="#FDB635" stroke="#FDB635"/>
<path d="M9.78516 2.26562H11.3086L11.3477 2.30469H11.6602L11.6992 2.34375L12.1289 2.38281L13.2617 2.69531L14.3164 3.16406L14.2773 3.08594L14.1797 3.02734L14.2383 3.04688L14.5703 3.26172L14.5117 3.24219L14.4531 3.26172C14.9349 3.60026 15.3646 3.99089 15.7422 4.43359C16.513 5.29036 17.0859 6.34505 17.4609 7.59766L17.6172 8.26172L17.6953 9.08203L17.7344 9.12109V10.4492L17.6953 10.4883L17.6172 11.3086L17.4609 11.9727L17.0703 13.0664C16.6276 14.043 16.0482 14.8828 15.332 15.5859C14.5299 16.3984 13.5404 17.0234 12.3633 17.4609L11.7383 17.6562L10.8008 17.8516L10.0977 17.8906L10.0586 17.9297H9.16016L9.12109 17.8906H8.69141L8.65234 17.8516L7.94922 17.7734L7.20703 17.5781L5.99609 17.1094L5.58594 16.875L5.52734 16.7578L5.25391 16.5625L4.375 15.6836C3.77344 14.9961 3.29167 14.1888 2.92969 13.2617L2.69531 12.5586L2.5 11.6211L2.46094 10.9961L2.42188 10.957V9.82422L2.46094 9.78516V9.43359L2.5 9.39453L2.57812 8.69141C2.69531 8.15755 2.85156 7.66276 3.04688 7.20703C3.54427 6.0638 4.22786 5.10677 5.09766 4.33594C5.69661 3.78906 6.38672 3.33333 7.16797 2.96875L8.33984 2.53906L9.78516 2.26562ZM9.60938 5.78125L9.45312 5.85938L9.21875 6.17188L8.59375 8.125C8.51562 8.25521 8.38542 8.34635 8.20312 8.39844H6.01562L5.85938 8.47656C5.70312 8.58073 5.61198 8.73698 5.58594 8.94531C5.58594 9.10156 5.625 9.21875 5.70312 9.29688L6.05469 9.53125L6.17188 9.76562L6.40625 9.96094L7.61719 10.8594V11.1719L6.95312 13.2031L7.03125 13.4766C7.10938 13.6328 7.26562 13.7109 7.5 13.7109L7.46094 13.7891L7.53906 13.9844L7.89062 14.2188C8.07292 14.2708 8.21615 14.2578 8.32031 14.1797L10.1172 12.8906C10.3255 12.8646 10.4818 12.8906 10.5859 12.9688L12.3047 14.2188C12.513 14.2708 12.6693 14.2578 12.7734 14.1797L13.0469 13.8281V13.5547L12.3828 11.5625C12.3568 11.3802 12.3828 11.263 12.4609 11.2109L12.8516 10.8594L14.1406 9.96094L14.4141 9.60938C14.4401 9.34896 14.401 9.17969 14.2969 9.10156C14.2188 8.94531 14.0885 8.86719 13.9062 8.86719L13.8281 8.67188C13.776 8.51562 13.6719 8.42448 13.5156 8.39844H11.3281L10.9375 7.07031L10.7031 6.48438C10.625 6.38021 10.5208 6.3151 10.3906 6.28906C10.2865 6.23698 10.2344 6.15885 10.2344 6.05469L9.92188 5.78125H9.60938Z" fill="#FEB635" stroke="#FEB635"/>
<path d="M14.082 2.92969L14.1211 3.00781" stroke="#FEB635"/>
<path d="M9.58984 0H10.4102L10.4492 0.0390625H10.918L10.957 0.078125H11.3086L11.3477 0.117188L11.8164 0.15625L13.0664 0.46875L13.8086 0.742188C15.2695 1.36458 16.487 2.23047 17.4609 3.33984C17.849 3.77214 18.2005 4.24089 18.5156 4.74609C18.8516 5.28255 19.138 5.86849 19.375 6.50391L19.8047 7.98828V8.18359L19.9219 8.69141L20 9.74609V9.82422V10.1758L19.9609 10.2148L20 10.3711L19.9609 10.4102V10.918L19.9219 10.957L19.8828 11.582L19.7266 12.3633L19.375 13.4961L19.1016 14.1602C18.5 15.4466 17.6992 16.5339 16.6992 17.4219L15.3711 18.4375L13.8086 19.2578L13.0664 19.5312L12.0117 19.8047L11.3477 19.8828L11.3086 19.9219L10.4102 19.9609L10.293 20H10.2148H9.78516L9.74609 19.9609L9.58984 20L9.55078 19.9609H9.04297L9.00391 19.9219H8.69141L8.65234 19.8828L7.98828 19.8047L7.20703 19.6094L5.76172 19.0625C4.49349 18.4583 3.41927 17.6576 2.53906 16.6602C1.73177 15.7747 1.09375 14.7201 0.625 13.4961L0.390625 12.793L0.078125 11.3086L0.0390625 10.4102L0 10.3711V9.62891L0.0390625 9.58984V9.04297L0.078125 9.00391L0.117188 8.41797L0.273438 7.63672L0.507812 6.81641L0.859375 5.91797C1.48438 4.5638 2.32422 3.42448 3.37891 2.5L4.74609 1.48438L6.38672 0.664062L7.98828 0.195312L8.65234 0.117188L8.69141 0.078125H9.00391L9.04297 0.0390625H9.55078L9.58984 0ZM9.45312 1.83594L9.41406 1.875H9.0625L9.02344 1.91406L8.32031 1.99219L6.91406 2.42188C6.05469 2.78646 5.29948 3.25521 4.64844 3.82812C3.8151 4.55729 3.13802 5.44271 2.61719 6.48438L2.10938 7.85156L1.95312 8.51562L1.91406 8.98438L1.875 9.02344V9.41406L1.83594 9.45312V10.625L1.875 10.6641V11.0156L2.07031 12.0703L2.30469 12.8125C2.66927 13.8021 3.17708 14.6615 3.82812 15.3906C4.55729 16.224 5.46875 16.901 6.5625 17.4219L7.69531 17.8516L8.51562 18.0469L8.98438 18.0859L9.02344 18.125H9.41406L9.45312 18.1641H10.5859L10.625 18.125H11.0156L11.0547 18.0859L11.7188 18.0078L12.4609 17.8125L13.9453 17.1875L15.3516 16.2109C16.0807 15.5599 16.6927 14.8047 17.1875 13.9453L17.5781 13.125L17.8516 12.3438L18.0859 11.2891L18.125 10.625L18.1641 10.5859V9.41406L18.125 9.375V9.02344L17.8516 7.69531C17.6693 7.09635 17.4479 6.5625 17.1875 6.09375L16.2109 4.6875C15.4036 3.72396 14.401 2.98177 13.2031 2.46094L12.0703 2.07031L11.2891 1.91406L10.625 1.875L10.5859 1.83594H9.45312Z" fill="#FED056" stroke="#FED056"/>
<path d="M9.70712 5.78125C9.96493 5.79688 10.1407 5.89453 10.2345 6.07422L10.8595 8.02734L11.0743 8.32031L11.2306 8.39844H13.4181L13.7501 8.57422C13.8725 8.67318 13.9115 8.85547 13.8673 9.12109L13.7501 9.33594L11.9532 10.6445C11.8569 10.7565 11.8308 10.9388 11.8751 11.1914L11.9532 11.3086L12.422 12.8711L12.5001 12.9883V13.3398L12.3243 13.5938C12.2332 13.6979 12.0769 13.737 11.8556 13.7109L10.1759 12.5L9.74618 12.3438L9.47274 12.4219L7.754 13.6719L7.40243 13.7109C7.24358 13.6745 7.1329 13.5898 7.0704 13.457C6.99228 13.3789 6.96623 13.2487 6.99228 13.0664L7.61728 11.2305L7.65634 10.8789C7.60946 10.6914 7.51181 10.5547 7.36337 10.4688L5.70321 9.23828C5.61988 9.15234 5.59384 9.00911 5.62509 8.80859L5.879 8.47656L6.07431 8.39844H8.26181L8.59384 8.14453L9.21884 6.30859V6.19141L9.47274 5.85938L9.70712 5.78125Z" fill="#FED056" stroke="#FED056"/>
</g>
<defs>
<clipPath id="clip0_142_1491">
<rect width="20" height="20" fill="white"/>
</clipPath>
</defs>
</svg>
