<svg width="512" height="512" version="1.1" xmlns="http://www.w3.org/2000/svg" desc="Created with imagetracer.js version 1.2.6" ><path fill="rgb(0,0,0)" stroke="rgb(0,0,0)" stroke-width="1" opacity="0.796078431372549" d="M 237.5 16 L 250 16.5 L 237.5 17 L 237.5 16 Z " /><path fill="rgb(0,0,0)" stroke="rgb(0,0,0)" stroke-width="1" opacity="0.796078431372549" d="M 260.5 16 L 273 16.5 L 260.5 17 L 260.5 16 Z " /><path fill="rgb(0,0,0)" stroke="rgb(0,0,0)" stroke-width="1" opacity="0.796078431372549" d="M 225.5 17 L 230 17.5 L 225.5 18 L 225.5 17 Z " /><path fill="rgb(0,0,0)" stroke="rgb(0,0,0)" stroke-width="1" opacity="0.796078431372549" d="M 280.5 17 L 285 17.5 L 280.5 18 L 280.5 17 Z " /><path fill="rgb(0,0,0)" stroke="rgb(0,0,0)" stroke-width="1" opacity="0.796078431372549" d="M 216.5 18 L 221 18.5 L 216.5 19 L 216.5 18 Z " /><path fill="rgb(0,0,0)" stroke="rgb(0,0,0)" stroke-width="1" opacity="0.796078431372549" d="M 289.5 18 L 294 18.5 L 289.5 19 L 289.5 18 Z " /><path fill="rgb(0,0,0)" stroke="rgb(0,0,0)" stroke-width="1" opacity="0.796078431372549" d="M 210.5 19 L 213 19.5 L 210.5 20 L 210.5 19 Z " /><path fill="rgb(0,0,0)" stroke="rgb(0,0,0)" stroke-width="1" opacity="0.796078431372549" d="M 297.5 19 L 300 19.5 L 297.5 20 L 297.5 19 Z " /><path fill="rgb(0,0,0)" stroke="rgb(0,0,0)" stroke-width="1" opacity="0.796078431372549" d="M 204.5 20 L 207 20.5 L 204.5 21 L 204.5 20 Z " /><path fill="rgb(0,0,0)" stroke="rgb(0,0,0)" stroke-width="1" opacity="0.796078431372549" d="M 303.5 20 L 306 20.5 L 303.5 21 L 303.5 20 Z " /><path fill="rgb(0,0,0)" stroke="rgb(0,0,0)" stroke-width="1" opacity="0.796078431372549" d="M 387.5 48 L 388.5 50 L 387.5 48 Z " /><path fill="rgb(0,0,0)" stroke="rgb(0,0,0)" stroke-width="1" opacity="0.796078431372549" d="M 119.5 50 L 118.5 52 L 119.5 50 Z " /><path fill="rgb(0,0,0)" stroke="rgb(0,0,0)" stroke-width="1" opacity="0.796078431372549" d="M 396.5 53 L 397.5 55 L 396.5 53 Z " /><path fill="rgb(0,0,0)" stroke="rgb(0,0,0)" stroke-width="1" opacity="0.796078431372549" d="M 112.5 54 L 111.5 56 L 112.5 54 Z " /><path fill="rgb(0,0,0)" stroke="rgb(0,0,0)" stroke-width="1" opacity="0.796078431372549" d="M 401.5 56 L 402.5 58 L 401.5 56 Z " /><path fill="rgb(0,0,0)" stroke="rgb(0,0,0)" stroke-width="1" opacity="0.796078431372549" d="M 404.5 58 L 405.5 60 L 404.5 58 Z " /><path fill="rgb(0,0,0)" stroke="rgb(0,0,0)" stroke-width="1" opacity="0.796078431372549" d="M 104.5 59 L 103.5 61 L 104.5 59 Z " /><path fill="rgb(0,0,0)" stroke="rgb(0,0,0)" stroke-width="1" opacity="0.796078431372549" d="M 101.5 61 L 100.5 63 L 101.5 61 Z " /><path fill="rgb(0,0,0)" stroke="rgb(0,0,0)" stroke-width="1" opacity="0.796078431372549" d="M 98.5 63 L 97.5 65 L 98.5 63 Z " /><path fill="rgb(0,0,0)" stroke="rgb(0,0,0)" stroke-width="1" opacity="0.796078431372549" d="M 413.5 64 L 414.5 66 L 413.5 64 Z " /><path fill="rgb(0,0,0)" stroke="rgb(0,0,0)" stroke-width="1" opacity="0.796078431372549" d="M 416.5 66 L 417.5 68 L 416.5 66 Z " /><path fill="rgb(0,0,0)" stroke="rgb(0,0,0)" stroke-width="1" opacity="0.796078431372549" d="M 91.5 68 L 89.5 71 L 91.5 68 Z " /><path fill="rgb(0,0,0)" stroke="rgb(0,0,0)" stroke-width="1" opacity="0.796078431372549" d="M 420.5 69 L 421.5 71 L 420.5 69 Z " /><path fill="rgb(0,0,0)" stroke="rgb(0,0,0)" stroke-width="1" opacity="0.796078431372549" d="M 87.5 71 L 85.5 74 L 87.5 71 Z " /><path fill="rgb(0,0,0)" stroke="rgb(0,0,0)" stroke-width="1" opacity="0.796078431372549" d="M 424.5 72 L 425.5 74 L 424.5 72 Z " /><path fill="rgb(0,0,0)" stroke="rgb(0,0,0)" stroke-width="1" opacity="0.796078431372549" d="M 82.5 75 L 79.5 79 L 82.5 75 Z " /><path fill="rgb(0,0,0)" stroke="rgb(0,0,0)" stroke-width="1" opacity="0.796078431372549" d="M 428.5 75 L 431.5 79 L 428.5 75 Z " /><path fill="rgb(0,0,0)" stroke="rgb(0,0,0)" stroke-width="1" opacity="0.796078431372549" d="M 76.5 80 L 71.5 86 L 76.5 80 Z " /><path fill="rgb(0,0,0)" stroke="rgb(0,0,0)" stroke-width="1" opacity="0.796078431372549" d="M 434.5 80 L 438.5 85 L 434.5 80 Z " /><path fill="rgb(0,0,0)" stroke="rgb(0,0,0)" stroke-width="1" opacity="0.796078431372549" d="M 444.5 89 L 452.5 98 L 444.5 89 Z " /><path fill="rgb(0,0,0)" stroke="rgb(0,0,0)" stroke-width="1" opacity="0.796078431372549" d="M 56.5 100 L 51.5 106 L 56.5 100 Z " /><path fill="rgb(0,0,0)" stroke="rgb(0,0,0)" stroke-width="1" opacity="0.796078431372549" d="M 456.5 102 L 461.5 108 L 456.5 102 Z " /><path fill="rgb(0,0,0)" stroke="rgb(0,0,0)" stroke-width="1" opacity="0.796078431372549" d="M 49.5 108 L 47.5 111 L 49.5 108 Z " /><path fill="rgb(0,0,0)" stroke="rgb(0,0,0)" stroke-width="1" opacity="0.796078431372549" d="M 463.5 110 L 465.5 113 L 463.5 110 Z " /><path fill="rgb(0,0,0)" stroke="rgb(0,0,0)" stroke-width="1" opacity="0.796078431372549" d="M 45.5 113 L 43.5 116 L 45.5 113 Z " /><path fill="rgb(0,0,0)" stroke="rgb(0,0,0)" stroke-width="1" opacity="0.796078431372549" d="M 467.5 115 L 468.5 117 L 467.5 115 Z " /><path fill="rgb(0,0,0)" stroke="rgb(0,0,0)" stroke-width="1" opacity="0.796078431372549" d="M 41.5 118 L 40.5 120 L 41.5 118 Z " /><path fill="rgb(0,0,0)" stroke="rgb(0,0,0)" stroke-width="1" opacity="0.796078431372549" d="M 470.5 119 L 471.5 121 L 470.5 119 Z " /><path fill="rgb(0,0,0)" stroke="rgb(0,0,0)" stroke-width="1" opacity="0.796078431372549" d="M 39.5 121 L 38.5 123 L 39.5 121 Z " /><path fill="rgb(0,0,0)" stroke="rgb(0,0,0)" stroke-width="1" opacity="0.796078431372549" d="M 473.5 123 L 474.5 125 L 473.5 123 Z " /><path fill="rgb(0,0,0)" stroke="rgb(0,0,0)" stroke-width="1" opacity="0.796078431372549" d="M 475.5 126 L 476.5 128 L 475.5 126 Z " /><path fill="rgb(0,0,0)" stroke="rgb(0,0,0)" stroke-width="1" opacity="0.796078431372549" d="M 477.5 129 L 478.5 131 L 477.5 129 Z " /><path fill="rgb(0,0,0)" stroke="rgb(0,0,0)" stroke-width="1" opacity="0.796078431372549" d="M 479.5 132 L 480.5 134 L 479.5 132 Z " /><path fill="rgb(0,0,0)" stroke="rgb(0,0,0)" stroke-width="1" opacity="0.796078431372549" d="M 482.5 137 L 483.5 139 L 482.5 137 Z " /><path fill="rgb(0,0,0)" stroke="rgb(0,0,0)" stroke-width="1" opacity="0.796078431372549" d="M 28.5 138 L 27.5 140 L 28.5 138 Z " /><path fill="rgb(0,0,0)" stroke="rgb(0,0,0)" stroke-width="1" opacity="0.796078431372549" d="M 485.5 142 L 486.5 144 L 485.5 142 Z " /><path fill="rgb(0,0,0)" stroke="rgb(0,0,0)" stroke-width="1" opacity="0.796078431372549" d="M 21.5 151 L 20.5 153 L 21.5 151 Z " /><path fill="rgb(0,0,0)" stroke="rgb(0,0,0)" stroke-width="1" opacity="0.796078431372549" d="M 128.5 196 L 133 196.5 L 128.5 197 L 128.5 196 Z " /><path fill="rgb(0,0,0)" stroke="rgb(0,0,0)" stroke-width="1" opacity="0.796078431372549" d="M 141.5 196 L 146 196.5 L 141.5 197 L 141.5 196 Z " /><path fill="rgb(0,0,0)" stroke="rgb(0,0,0)" stroke-width="1" opacity="0.796078431372549" d="M 248.5 196 L 253 196.5 L 248.5 197 L 248.5 196 Z " /><path fill="rgb(0,0,0)" stroke="rgb(0,0,0)" stroke-width="1" opacity="0.796078431372549" d="M 261.5 196 L 266 196.5 L 261.5 197 L 261.5 196 Z " /><path fill="rgb(0,0,0)" stroke="rgb(0,0,0)" stroke-width="1" opacity="0.796078431372549" d="M 368.5 196 L 373 196.5 L 368.5 197 L 368.5 196 Z " /><path fill="rgb(0,0,0)" stroke="rgb(0,0,0)" stroke-width="1" opacity="0.796078431372549" d="M 381.5 196 L 386 196.5 L 381.5 197 L 381.5 196 Z " /><path fill="rgb(0,0,0)" stroke="rgb(0,0,0)" stroke-width="1" opacity="0.796078431372549" d="M 111.5 203 L 108.5 207 L 111.5 203 Z " /><path fill="rgb(0,0,0)" stroke="rgb(0,0,0)" stroke-width="1" opacity="0.796078431372549" d="M 162.5 203 L 165.5 207 L 162.5 203 Z " /><path fill="rgb(0,0,0)" stroke="rgb(0,0,0)" stroke-width="1" opacity="0.796078431372549" d="M 231.5 203 L 228.5 207 L 231.5 203 Z " /><path fill="rgb(0,0,0)" stroke="rgb(0,0,0)" stroke-width="1" opacity="0.796078431372549" d="M 282.5 203 L 285.5 207 L 282.5 203 Z " /><path fill="rgb(0,0,0)" stroke="rgb(0,0,0)" stroke-width="1" opacity="0.796078431372549" d="M 351.5 203 L 348.5 207 L 351.5 203 Z " /><path fill="rgb(0,0,0)" stroke="rgb(0,0,0)" stroke-width="1" opacity="0.796078431372549" d="M 402.5 203 L 405.5 207 L 402.5 203 Z " /><path fill="rgb(0,0,0)" stroke="rgb(0,0,0)" stroke-width="1" opacity="0.796078431372549" d="M 105.5 208 L 104.5 210 L 105.5 208 Z " /><path fill="rgb(0,0,0)" stroke="rgb(0,0,0)" stroke-width="1" opacity="0.796078431372549" d="M 168.5 208 L 169.5 210 L 168.5 208 Z " /><path fill="rgb(0,0,0)" stroke="rgb(0,0,0)" stroke-width="1" opacity="0.796078431372549" d="M 225.5 208 L 224.5 210 L 225.5 208 Z " /><path fill="rgb(0,0,0)" stroke="rgb(0,0,0)" stroke-width="1" opacity="0.796078431372549" d="M 288.5 208 L 289.5 210 L 288.5 208 Z " /><path fill="rgb(0,0,0)" stroke="rgb(0,0,0)" stroke-width="1" opacity="0.796078431372549" d="M 345.5 208 L 344.5 210 L 345.5 208 Z " /><path fill="rgb(0,0,0)" stroke="rgb(0,0,0)" stroke-width="1" opacity="0.796078431372549" d="M 408.5 208 L 409.5 210 L 408.5 208 Z " /><path fill="rgb(0,0,0)" stroke="rgb(0,0,0)" stroke-width="1" opacity="0.796078431372549" d="M 2.5 209 L 3 212.5 L 2 212.5 L 2.5 209 Z " /><path fill="rgb(0,0,0)" stroke="rgb(0,0,0)" stroke-width="1" opacity="0.796078431372549" d="M 509.5 209 L 510 212.5 L 509 212.5 L 509.5 209 Z " /><path fill="rgb(0,0,0)" stroke="rgb(0,0,0)" stroke-width="1" opacity="0.796078431372549" d="M 102.5 212 L 99.5 216 L 102.5 212 Z " /><path fill="rgb(0,0,0)" stroke="rgb(0,0,0)" stroke-width="1" opacity="0.796078431372549" d="M 171.5 212 L 174.5 216 L 171.5 212 Z " /><path fill="rgb(0,0,0)" stroke="rgb(0,0,0)" stroke-width="1" opacity="0.796078431372549" d="M 222.5 212 L 219.5 216 L 222.5 212 Z " /><path fill="rgb(0,0,0)" stroke="rgb(0,0,0)" stroke-width="1" opacity="0.796078431372549" d="M 291.5 212 L 294.5 216 L 291.5 212 Z " /><path fill="rgb(0,0,0)" stroke="rgb(0,0,0)" stroke-width="1" opacity="0.796078431372549" d="M 342.5 212 L 339.5 216 L 342.5 212 Z " /><path fill="rgb(0,0,0)" stroke="rgb(0,0,0)" stroke-width="1" opacity="0.796078431372549" d="M 411.5 212 L 414.5 216 L 411.5 212 Z " /><path fill="rgb(0,0,0)" stroke="rgb(0,0,0)" stroke-width="1" opacity="0.796078431372549" d="M 1.5 216 L 2 220.5 L 1 220.5 L 1.5 216 Z " /><path fill="rgb(0,0,0)" stroke="rgb(0,0,0)" stroke-width="1" opacity="0.796078431372549" d="M 510.5 216 L 511 220.5 L 510 220.5 L 510.5 216 Z " /><path fill="rgb(0,0,0)" stroke="rgb(0,0,0)" stroke-width="1" opacity="0.796078431372549" d="M 0.5 226 L 1 237.5 L 0 237.5 L 0.5 226 Z " /><path fill="rgb(0,0,0)" stroke="rgb(0,0,0)" stroke-width="1" opacity="0.796078431372549" d="M 511.5 226 L 512 237.5 L 511 237.5 L 511.5 226 Z " /><path fill="rgb(0,0,0)" stroke="rgb(0,0,0)" stroke-width="1" opacity="0.796078431372549" d="M 92.5 232 L 93 236.5 L 92 236.5 L 92.5 232 Z " /><path fill="rgb(0,0,0)" stroke="rgb(0,0,0)" stroke-width="1" opacity="0.796078431372549" d="M 181.5 232 L 182 236.5 L 181 236.5 L 181.5 232 Z " /><path fill="rgb(0,0,0)" stroke="rgb(0,0,0)" stroke-width="1" opacity="0.796078431372549" d="M 212.5 232 L 213 236.5 L 212 236.5 L 212.5 232 Z " /><path fill="rgb(0,0,0)" stroke="rgb(0,0,0)" stroke-width="1" opacity="0.796078431372549" d="M 301.5 232 L 302 236.5 L 301 236.5 L 301.5 232 Z " /><path fill="rgb(0,0,0)" stroke="rgb(0,0,0)" stroke-width="1" opacity="0.796078431372549" d="M 332.5 232 L 333 236.5 L 332 236.5 L 332.5 232 Z " /><path fill="rgb(0,0,0)" stroke="rgb(0,0,0)" stroke-width="1" opacity="0.796078431372549" d="M 421.5 232 L 422 236.5 L 421 236.5 L 421.5 232 Z " /><path fill="rgb(0,0,0)" stroke="rgb(0,0,0)" stroke-width="1" opacity="0.796078431372549" d="M 0.5 243 L 1 252.5 L 0 252.5 L 0.5 243 Z " /><path fill="rgb(0,0,0)" stroke="rgb(0,0,0)" stroke-width="1" opacity="0.796078431372549" d="M 511.5 244 L 512 255.5 L 511 255.5 L 511.5 244 Z " /><path fill="rgb(0,0,0)" stroke="rgb(0,0,0)" stroke-width="1" opacity="0.796078431372549" d="M 92.5 245 L 93 249.5 L 92 249.5 L 92.5 245 Z " /><path fill="rgb(0,0,0)" stroke="rgb(0,0,0)" stroke-width="1" opacity="0.796078431372549" d="M 181.5 245 L 182 249.5 L 181 249.5 L 181.5 245 Z " /><path fill="rgb(0,0,0)" stroke="rgb(0,0,0)" stroke-width="1" opacity="0.796078431372549" d="M 212.5 245 L 213 249.5 L 212 249.5 L 212.5 245 Z " /><path fill="rgb(0,0,0)" stroke="rgb(0,0,0)" stroke-width="1" opacity="0.796078431372549" d="M 301.5 245 L 302 249.5 L 301 249.5 L 301.5 245 Z " /><path fill="rgb(0,0,0)" stroke="rgb(0,0,0)" stroke-width="1" opacity="0.796078431372549" d="M 332.5 245 L 333 249.5 L 332 249.5 L 332.5 245 Z " /><path fill="rgb(0,0,0)" stroke="rgb(0,0,0)" stroke-width="1" opacity="0.796078431372549" d="M 421.5 245 L 422 249.5 L 421 249.5 L 421.5 245 Z " /><path fill="rgb(0,0,0)" stroke="rgb(0,0,0)" stroke-width="1" opacity="0.796078431372549" d="M 1.5 261 L 2 264.5 L 1 264.5 L 1.5 261 Z " /><path fill="rgb(0,0,0)" stroke="rgb(0,0,0)" stroke-width="1" opacity="0.796078431372549" d="M 510.5 261 L 511 265.5 L 510 265.5 L 510.5 261 Z " /><path fill="rgb(0,0,0)" stroke="rgb(0,0,0)" stroke-width="1" opacity="0.796078431372549" d="M 99.5 266 L 102.5 270 L 99.5 266 Z " /><path fill="rgb(0,0,0)" stroke="rgb(0,0,0)" stroke-width="1" opacity="0.796078431372549" d="M 174.5 266 L 171.5 270 L 174.5 266 Z " /><path fill="rgb(0,0,0)" stroke="rgb(0,0,0)" stroke-width="1" opacity="0.796078431372549" d="M 219.5 266 L 222.5 270 L 219.5 266 Z " /><path fill="rgb(0,0,0)" stroke="rgb(0,0,0)" stroke-width="1" opacity="0.796078431372549" d="M 294.5 266 L 291.5 270 L 294.5 266 Z " /><path fill="rgb(0,0,0)" stroke="rgb(0,0,0)" stroke-width="1" opacity="0.796078431372549" d="M 339.5 266 L 342.5 270 L 339.5 266 Z " /><path fill="rgb(0,0,0)" stroke="rgb(0,0,0)" stroke-width="1" opacity="0.796078431372549" d="M 414.5 266 L 411.5 270 L 414.5 266 Z " /><path fill="rgb(0,0,0)" stroke="rgb(0,0,0)" stroke-width="1" opacity="0.796078431372549" d="M 2.5 268 L 3 271.5 L 2 271.5 L 2.5 268 Z " /><path fill="rgb(0,0,0)" stroke="rgb(0,0,0)" stroke-width="1" opacity="0.796078431372549" d="M 509.5 269 L 510 272.5 L 509 272.5 L 509.5 269 Z " /><path fill="rgb(0,0,0)" stroke="rgb(0,0,0)" stroke-width="1" opacity="0.796078431372549" d="M 104.5 272 L 105.5 274 L 104.5 272 Z " /><path fill="rgb(0,0,0)" stroke="rgb(0,0,0)" stroke-width="1" opacity="0.796078431372549" d="M 169.5 272 L 168.5 274 L 169.5 272 Z " /><path fill="rgb(0,0,0)" stroke="rgb(0,0,0)" stroke-width="1" opacity="0.796078431372549" d="M 224.5 272 L 225.5 274 L 224.5 272 Z " /><path fill="rgb(0,0,0)" stroke="rgb(0,0,0)" stroke-width="1" opacity="0.796078431372549" d="M 289.5 272 L 288.5 274 L 289.5 272 Z " /><path fill="rgb(0,0,0)" stroke="rgb(0,0,0)" stroke-width="1" opacity="0.796078431372549" d="M 344.5 272 L 345.5 274 L 344.5 272 Z " /><path fill="rgb(0,0,0)" stroke="rgb(0,0,0)" stroke-width="1" opacity="0.796078431372549" d="M 409.5 272 L 408.5 274 L 409.5 272 Z " /><path fill="rgb(0,0,0)" stroke="rgb(0,0,0)" stroke-width="1" opacity="0.796078431372549" d="M 3.5 275 L 4 277.5 L 3 277.5 L 3.5 275 Z " /><path fill="rgb(0,0,0)" stroke="rgb(0,0,0)" stroke-width="1" opacity="0.796078431372549" d="M 108.5 275 L 111.5 279 L 108.5 275 Z " /><path fill="rgb(0,0,0)" stroke="rgb(0,0,0)" stroke-width="1" opacity="0.796078431372549" d="M 165.5 275 L 162.5 279 L 165.5 275 Z " /><path fill="rgb(0,0,0)" stroke="rgb(0,0,0)" stroke-width="1" opacity="0.796078431372549" d="M 228.5 275 L 231.5 279 L 228.5 275 Z " /><path fill="rgb(0,0,0)" stroke="rgb(0,0,0)" stroke-width="1" opacity="0.796078431372549" d="M 285.5 275 L 282.5 279 L 285.5 275 Z " /><path fill="rgb(0,0,0)" stroke="rgb(0,0,0)" stroke-width="1" opacity="0.796078431372549" d="M 348.5 275 L 351.5 279 L 348.5 275 Z " /><path fill="rgb(0,0,0)" stroke="rgb(0,0,0)" stroke-width="1" opacity="0.796078431372549" d="M 405.5 275 L 402.5 279 L 405.5 275 Z " /><path fill="rgb(0,0,0)" stroke="rgb(0,0,0)" stroke-width="1" opacity="0.796078431372549" d="M 128.5 285 L 133 285.5 L 128.5 286 L 128.5 285 Z " /><path fill="rgb(0,0,0)" stroke="rgb(0,0,0)" stroke-width="1" opacity="0.796078431372549" d="M 141.5 285 L 146 285.5 L 141.5 286 L 141.5 285 Z " /><path fill="rgb(0,0,0)" stroke="rgb(0,0,0)" stroke-width="1" opacity="0.796078431372549" d="M 248.5 285 L 253 285.5 L 248.5 286 L 248.5 285 Z " /><path fill="rgb(0,0,0)" stroke="rgb(0,0,0)" stroke-width="1" opacity="0.796078431372549" d="M 261.5 285 L 266 285.5 L 261.5 286 L 261.5 285 Z " /><path fill="rgb(0,0,0)" stroke="rgb(0,0,0)" stroke-width="1" opacity="0.796078431372549" d="M 368.5 285 L 373 285.5 L 368.5 286 L 368.5 285 Z " /><path fill="rgb(0,0,0)" stroke="rgb(0,0,0)" stroke-width="1" opacity="0.796078431372549" d="M 381.5 285 L 386 285.5 L 381.5 286 L 381.5 285 Z " /><path fill="rgb(0,0,0)" stroke="rgb(0,0,0)" stroke-width="1" opacity="0.796078431372549" d="M 23.5 334 L 25 336.5 L 23 335.5 L 23.5 334 Z " /><path fill="rgb(0,0,0)" stroke="rgb(0,0,0)" stroke-width="1" opacity="0.796078431372549" d="M 486.5 338 L 485.5 340 L 486.5 338 Z " /><path fill="rgb(0,0,0)" stroke="rgb(0,0,0)" stroke-width="1" opacity="0.796078431372549" d="M 26.5 340 L 27.5 342 L 26.5 340 Z " /><path fill="rgb(0,0,0)" stroke="rgb(0,0,0)" stroke-width="1" opacity="0.796078431372549" d="M 483.5 343 L 482.5 345 L 483.5 343 Z " /><path fill="rgb(0,0,0)" stroke="rgb(0,0,0)" stroke-width="1" opacity="0.796078431372549" d="M 30.5 347 L 31.5 349 L 30.5 347 Z " /><path fill="rgb(0,0,0)" stroke="rgb(0,0,0)" stroke-width="1" opacity="0.796078431372549" d="M 480.5 348 L 479.5 350 L 480.5 348 Z " /><path fill="rgb(0,0,0)" stroke="rgb(0,0,0)" stroke-width="1" opacity="0.796078431372549" d="M 478.5 351 L 477.5 353 L 478.5 351 Z " /><path fill="rgb(0,0,0)" stroke="rgb(0,0,0)" stroke-width="1" opacity="0.796078431372549" d="M 33.5 352 L 34.5 354 L 33.5 352 Z " /><path fill="rgb(0,0,0)" stroke="rgb(0,0,0)" stroke-width="1" opacity="0.796078431372549" d="M 476.5 354 L 475.5 356 L 476.5 354 Z " /><path fill="rgb(0,0,0)" stroke="rgb(0,0,0)" stroke-width="1" opacity="0.796078431372549" d="M 36.5 356 L 37.5 358 L 36.5 356 Z " /><path fill="rgb(0,0,0)" stroke="rgb(0,0,0)" stroke-width="1" opacity="0.796078431372549" d="M 474.5 357 L 473.5 359 L 474.5 357 Z " /><path fill="rgb(0,0,0)" stroke="rgb(0,0,0)" stroke-width="1" opacity="0.796078431372549" d="M 38.5 359 L 39.5 361 L 38.5 359 Z " /><path fill="rgb(0,0,0)" stroke="rgb(0,0,0)" stroke-width="1" opacity="0.796078431372549" d="M 471.5 361 L 470.5 363 L 471.5 361 Z " /><path fill="rgb(0,0,0)" stroke="rgb(0,0,0)" stroke-width="1" opacity="0.796078431372549" d="M 40.5 362 L 41.5 364 L 40.5 362 Z " /><path fill="rgb(0,0,0)" stroke="rgb(0,0,0)" stroke-width="1" opacity="0.796078431372549" d="M 468.5 365 L 467.5 367 L 468.5 365 Z " /><path fill="rgb(0,0,0)" stroke="rgb(0,0,0)" stroke-width="1" opacity="0.796078431372549" d="M 43.5 366 L 44.5 368 L 43.5 366 Z " /><path fill="rgb(0,0,0)" stroke="rgb(0,0,0)" stroke-width="1" opacity="0.796078431372549" d="M 465.5 369 L 463.5 372 L 465.5 369 Z " /><path fill="rgb(0,0,0)" stroke="rgb(0,0,0)" stroke-width="1" opacity="0.796078431372549" d="M 46.5 370 L 49.5 374 L 46.5 370 Z " /><path fill="rgb(0,0,0)" stroke="rgb(0,0,0)" stroke-width="1" opacity="0.796078431372549" d="M 461.5 374 L 456.5 380 L 461.5 374 Z " /><path fill="rgb(0,0,0)" stroke="rgb(0,0,0)" stroke-width="1" opacity="0.796078431372549" d="M 52.5 377 L 55.5 381 L 52.5 377 Z " /><path fill="rgb(0,0,0)" stroke="rgb(0,0,0)" stroke-width="1" opacity="0.796078431372549" d="M 452.5 384 L 444.5 393 L 452.5 384 Z " /><path fill="rgb(0,0,0)" stroke="rgb(0,0,0)" stroke-width="1" opacity="0.796078431372549" d="M 59.5 388 L 60 390.5 L 59 390.5 L 59.5 388 Z " /><path fill="rgb(0,0,0)" stroke="rgb(0,0,0)" stroke-width="1" opacity="0.796078431372549" d="M 60.5 394 L 61 397.5 L 60 397.5 L 60.5 394 Z " /><path fill="rgb(0,0,0)" stroke="rgb(0,0,0)" stroke-width="1" opacity="0.796078431372549" d="M 438.5 397 L 434.5 402 L 438.5 397 Z " /><path fill="rgb(0,0,0)" stroke="rgb(0,0,0)" stroke-width="1" opacity="0.796078431372549" d="M 431.5 403 L 428.5 407 L 431.5 403 Z " /><path fill="rgb(0,0,0)" stroke="rgb(0,0,0)" stroke-width="1" opacity="0.796078431372549" d="M 425.5 408 L 424.5 410 L 425.5 408 Z " /><path fill="rgb(0,0,0)" stroke="rgb(0,0,0)" stroke-width="1" opacity="0.796078431372549" d="M 421.5 411 L 420.5 413 L 421.5 411 Z " /><path fill="rgb(0,0,0)" stroke="rgb(0,0,0)" stroke-width="1" opacity="0.796078431372549" d="M 60.5 413 L 61 418.5 L 60 418.5 L 60.5 413 Z " /><path fill="rgb(0,0,0)" stroke="rgb(0,0,0)" stroke-width="1" opacity="0.796078431372549" d="M 417.5 414 L 416.5 416 L 417.5 414 Z " /><path fill="rgb(0,0,0)" stroke="rgb(0,0,0)" stroke-width="1" opacity="0.796078431372549" d="M 414.5 416 L 413.5 418 L 414.5 416 Z " /><path fill="rgb(0,0,0)" stroke="rgb(0,0,0)" stroke-width="1" opacity="0.796078431372549" d="M 405.5 422 L 404.5 424 L 405.5 422 Z " /><path fill="rgb(0,0,0)" stroke="rgb(0,0,0)" stroke-width="1" opacity="0.796078431372549" d="M 402.5 424 L 401.5 426 L 402.5 424 Z " /><path fill="rgb(0,0,0)" stroke="rgb(0,0,0)" stroke-width="1" opacity="0.796078431372549" d="M 58.5 426 L 59 428.5 L 58 428.5 L 58.5 426 Z " /><path fill="rgb(0,0,0)" stroke="rgb(0,0,0)" stroke-width="1" opacity="0.796078431372549" d="M 397.5 427 L 396.5 429 L 397.5 427 Z " /><path fill="rgb(0,0,0)" stroke="rgb(0,0,0)" stroke-width="1" opacity="0.796078431372549" d="M 388.5 432 L 387.5 434 L 388.5 432 Z " /><path fill="rgb(0,0,0)" stroke="rgb(0,0,0)" stroke-width="1" opacity="0.796078431372549" d="M 159.5 449 L 157.5 452 L 159.5 449 Z " /><path fill="rgb(0,0,0)" stroke="rgb(0,0,0)" stroke-width="1" opacity="0.796078431372549" d="M 48.5 452 L 47.5 454 L 48.5 452 Z " /><path fill="rgb(0,0,0)" stroke="rgb(0,0,0)" stroke-width="1" opacity="0.796078431372549" d="M 46.5 455 L 45.5 457 L 46.5 455 Z " /><path fill="rgb(0,0,0)" stroke="rgb(0,0,0)" stroke-width="1" opacity="0.796078431372549" d="M 152.5 455 L 149.5 459 L 152.5 455 Z " /><path fill="rgb(0,0,0)" stroke="rgb(0,0,0)" stroke-width="1" opacity="0.796078431372549" d="M 44.5 458 L 43.5 460 L 44.5 458 Z " /><path fill="rgb(0,0,0)" stroke="rgb(0,0,0)" stroke-width="1" opacity="0.796078431372549" d="M 193.5 459 L 196 459.5 L 193.5 460 L 193.5 459 Z " /><path fill="rgb(0,0,0)" stroke="rgb(0,0,0)" stroke-width="1" opacity="0.796078431372549" d="M 146.5 460 L 144.5 463 L 146.5 460 Z " /><path fill="rgb(0,0,0)" stroke="rgb(0,0,0)" stroke-width="1" opacity="0.796078431372549" d="M 198.5 460 L 201 460.5 L 198.5 461 L 198.5 460 Z " /><path fill="rgb(0,0,0)" stroke="rgb(0,0,0)" stroke-width="1" opacity="0.796078431372549" d="M 42.5 461 L 39.5 465 L 42.5 461 Z " /><path fill="rgb(0,0,0)" stroke="rgb(0,0,0)" stroke-width="1" opacity="0.796078431372549" d="M 303.5 461 L 306 461.5 L 303.5 462 L 303.5 461 Z " /><path fill="rgb(0,0,0)" stroke="rgb(0,0,0)" stroke-width="1" opacity="0.796078431372549" d="M 210.5 462 L 213 462.5 L 210.5 463 L 210.5 462 Z " /><path fill="rgb(0,0,0)" stroke="rgb(0,0,0)" stroke-width="1" opacity="0.796078431372549" d="M 297.5 462 L 300 462.5 L 297.5 463 L 297.5 462 Z " /><path fill="rgb(0,0,0)" stroke="rgb(0,0,0)" stroke-width="1" opacity="0.796078431372549" d="M 142.5 463 L 141.5 465 L 142.5 463 Z " /><path fill="rgb(0,0,0)" stroke="rgb(0,0,0)" stroke-width="1" opacity="0.796078431372549" d="M 216.5 463 L 220 463.5 L 216.5 464 L 216.5 463 Z " /><path fill="rgb(0,0,0)" stroke="rgb(0,0,0)" stroke-width="1" opacity="0.796078431372549" d="M 289.5 463 L 294 463.5 L 289.5 464 L 289.5 463 Z " /><path fill="rgb(0,0,0)" stroke="rgb(0,0,0)" stroke-width="1" opacity="0.796078431372549" d="M 225.5 464 L 230 464.5 L 225.5 465 L 225.5 464 Z " /><path fill="rgb(0,0,0)" stroke="rgb(0,0,0)" stroke-width="1" opacity="0.796078431372549" d="M 280.5 464 L 285 464.5 L 280.5 465 L 280.5 464 Z " /><path fill="rgb(0,0,0)" stroke="rgb(0,0,0)" stroke-width="1" opacity="0.796078431372549" d="M 237.5 465 L 250 465.5 L 237.5 466 L 237.5 465 Z " /><path fill="rgb(0,0,0)" stroke="rgb(0,0,0)" stroke-width="1" opacity="0.796078431372549" d="M 260.5 465 L 273 465.5 L 260.5 466 L 260.5 465 Z " /><path fill="rgb(0,0,0)" stroke="rgb(0,0,0)" stroke-width="1" opacity="0.796078431372549" d="M 138.5 466 L 137.5 468 L 138.5 466 Z " /><path fill="rgb(0,0,0)" stroke="rgb(0,0,0)" stroke-width="1" opacity="0.796078431372549" d="M 36.5 468 L 33.5 472 L 36.5 468 Z " /><path fill="rgb(0,0,0)" stroke="rgb(0,0,0)" stroke-width="1" opacity="0.796078431372549" d="M 135.5 468 L 134.5 470 L 135.5 468 Z " /><path fill="rgb(0,0,0)" stroke="rgb(0,0,0)" stroke-width="1" opacity="0.796078431372549" d="M 130.5 471 L 129.5 473 L 130.5 471 Z " /><path fill="rgb(0,0,0)" stroke="rgb(0,0,0)" stroke-width="1" opacity="0.796078431372549" d="M 32.5 473 L 32 474.5 L 31.5 476 L 31 474.5 L 32.5 473 Z " /><path fill="rgb(0,0,0)" stroke="rgb(0,0,0)" stroke-width="1" opacity="0.796078431372549" d="M 30.5 477 L 31 484.5 L 30 484.5 L 30.5 477 Z " /><path fill="rgb(0,0,0)" stroke="rgb(0,0,0)" stroke-width="1" opacity="0.796078431372549" d="M 33.5 490 L 35.5 493 L 33.5 490 Z " /><path fill="rgb(0,0,0)" stroke="rgb(0,0,0)" stroke-width="1" opacity="0.796078431372549" d="M 70.5 493 L 73 493.5 L 70.5 494 L 70.5 493 Z " /><path fill="rgb(0,0,0)" stroke="rgb(0,0,0)" stroke-width="1" opacity="0.796078431372549" d="M 63.5 494 L 67 494.5 L 63.5 495 L 63.5 494 Z " /><path fill="rgb(0,0,0)" stroke="rgb(0,0,0)" stroke-width="1" opacity="0.796078431372549" d="M 41.5 495 L 44 495.5 L 41.5 496 L 41.5 495 Z " /><path fill="rgb(0,0,0)" stroke="rgb(0,0,0)" stroke-width="1" opacity="0.796078431372549" d="M 47.5 495 L 57 495.5 L 47.5 496 L 47.5 495 Z " /><path fill="rgb(0,0,0)" stroke="rgb(0,0,0)" stroke-width="1" opacity="1" d="M 250.5 16 L 279.5 17 L 280.5 18 L 288.5 18 L 289.5 19 L 308.5 21 L 337.5 28 L 365.5 38 Q 419.4 61.1 456 101.5 Q 481.3 128.7 497 165.5 L 504 185.5 L 509 206.5 L 510 220.5 L 511 221.5 L 512 243.5 L 511 244.5 L 511 260.5 L 510 261.5 L 508 280.5 L 504 296.5 L 493 325.5 Q 472.6 367.6 439.5 397 Q 403.2 430.2 352.5 449 Q 332.1 456.6 308.5 461 L 289.5 463 L 288.5 464 L 280.5 464 L 279.5 465 L 250.5 466 L 249.5 465 L 230.5 465 L 229.5 464 L 220.5 464 L 219.5 463 L 206.5 462 L 179.5 456 L 159.5 449 Q 137.6 471.1 106.5 484 L 76.5 493 L 44.5 496 Q 36.7 494.8 33 489.5 Q 29.5 485.5 31 476.5 L 43 461.5 L 55 440.5 L 61 418.5 L 61 394.5 L 59 384.5 Q 29.6 354.4 13 311.5 L 4 280.5 L 2 261.5 L 1 260.5 L 1 243.5 L 0 238.5 L 1 237.5 L 1 221.5 L 2 220.5 L 2 213.5 L 5 196.5 L 11 175.5 L 20 153.5 Q 39.6 114.1 70.5 86 Q 104.9 53.9 152.5 35 L 179.5 26 L 201.5 21 L 220.5 19 L 221.5 18 L 229.5 18 L 230.5 17 L 249.5 17 L 250.5 16 Z M 129 196 L 112 203 L 106 208 L 99 216 L 92 233 L 92 250 L 99 267 L 104 273 L 112 279 L 129 286 L 146 286 L 163 279 L 169 274 L 175 267 L 182 250 L 182 233 L 175 216 L 170 210 L 163 203 L 146 196 L 129 196 Z M 249 196 L 232 203 L 226 208 L 219 216 L 212 233 L 212 250 L 219 267 L 224 273 L 232 279 L 249 286 L 266 286 L 283 279 L 289 274 L 295 267 L 302 250 L 302 233 L 295 216 L 290 210 L 283 203 L 266 196 L 249 196 Z M 369 196 L 352 203 L 346 208 L 339 216 L 332 233 L 332 250 L 339 267 L 344 273 L 352 279 L 369 286 L 386 286 L 403 279 L 409 274 L 415 267 L 422 250 L 422 233 L 415 216 L 410 210 L 403 203 L 386 196 L 369 196 Z " /><path fill="rgb(0,0,0)" stroke="rgb(0,0,0)" stroke-width="1" opacity="0" d="M 0 0 L 512 0 L 512 225.5 L 511 225.5 L 511 216.5 L 508 199.5 Q 503 176.5 494 157.5 Q 475 117.5 444.5 89 Q 423 68.5 396.5 53 L 375.5 42 L 342.5 29 L 320.5 23 L 293.5 18 L 273.5 17 L 272.5 16 L 237.5 16 L 236.5 17 L 216.5 18 L 189.5 23 Q 163.7 29.2 141.5 39 Q 87.3 63.3 51 105.5 Q 29.3 130.8 15 163.5 L 5 194.5 L 2 209.5 L 0.5 226 L 0 0 Z " /><path fill="rgb(0,0,0)" stroke="rgb(0,0,0)" stroke-width="1" opacity="0" d="M 133.5 196 L 147.5 197 L 153.5 199 Q 164.3 203.2 171 211.5 Q 182 222.5 182 244.5 Q 179.5 246 181 251.5 L 175 265.5 L 166.5 275 Q 155.5 286 133.5 286 Q 132 283.5 126.5 285 L 112.5 279 L 103 270.5 Q 92 259.5 92 237.5 Q 94.5 236 93 230.5 L 99 216.5 L 107.5 207 L 120.5 199 L 133.5 196 Z " /><path fill="rgb(0,0,0)" stroke="rgb(0,0,0)" stroke-width="1" opacity="0" d="M 253.5 196 L 267.5 197 L 273.5 199 Q 284.3 203.2 291 211.5 Q 302 222.5 302 244.5 Q 299.5 246 301 251.5 L 295 265.5 L 286.5 275 Q 275.5 286 253.5 286 Q 252 283.5 246.5 285 L 232.5 279 L 223 270.5 Q 212 259.5 212 237.5 Q 214.5 236 213 230.5 L 219 216.5 L 227.5 207 L 240.5 199 L 253.5 196 Z " /><path fill="rgb(0,0,0)" stroke="rgb(0,0,0)" stroke-width="1" opacity="0" d="M 373.5 196 L 387.5 197 L 393.5 199 Q 404.3 203.2 411 211.5 Q 422 222.5 422 244.5 Q 419.5 246 421 251.5 L 415 265.5 L 406.5 275 Q 395.5 286 373.5 286 Q 372 283.5 366.5 285 L 352.5 279 L 343 270.5 Q 332 259.5 332 237.5 Q 334.5 236 333 230.5 L 339 216.5 L 347.5 207 L 360.5 199 L 373.5 196 Z " /><path fill="rgb(0,0,0)" stroke="rgb(0,0,0)" stroke-width="1" opacity="0" d="M 0.5 253 L 1 264.5 L 2 265.5 L 4 282.5 L 14 315.5 Q 30.7 356.3 59 385.5 L 60 397.5 L 61 398.5 L 61 412.5 L 60 413.5 L 60 421.5 Q 57.4 424.4 58 430.5 L 54 441.5 Q 45.2 460.7 31 474.5 L 30 484.5 L 35.5 493 L 41.5 496 L 56.5 496 L 57.5 495 L 66.5 495 L 67.5 494 L 78.5 493 L 105.5 485 L 134.5 470 L 156.5 452 L 161.5 450 L 181.5 457 L 216.5 464 L 236.5 465 L 237.5 466 L 272.5 466 L 273.5 465 L 293.5 464 L 332.5 456 L 375.5 440 Q 420.5 418.5 453 384.5 Q 477.7 358.7 494 324.5 L 505 294.5 L 510 272.5 L 511.5 256 L 512 512 L 0 512 L 0.5 253 Z " /></svg>