<svg width="17" height="19" viewBox="0 0 17 19" fill="none" xmlns="http://www.w3.org/2000/svg">
<path d="M3.19175 17.3689L1.7 5.7H15.3L13.8083 17.3689C13.7503 17.8216 13.5483 18.2358 13.2391 18.5354C12.9299 18.8351 12.5345 19 12.1252 19H4.87475C4.46554 19 4.07005 18.8351 3.76089 18.5354C3.45173 18.2358 3.24965 17.8216 3.19175 17.3689ZM16.15 1.9H11.9V0.95C11.9 0.698044 11.8104 0.456408 11.651 0.278248C11.4916 0.100089 11.2754 0 11.05 0H5.95C5.72457 0 5.50837 0.100089 5.34896 0.278248C5.18955 0.456408 5.1 0.698044 5.1 0.95V1.9H0.85C0.624566 1.9 0.408365 2.00009 0.248959 2.17825C0.0895533 2.35641 0 2.59804 0 2.85C0 3.10196 0.0895533 3.34359 0.248959 3.52175C0.408365 3.69991 0.624566 3.8 0.85 3.8H16.15C16.3754 3.8 16.5916 3.69991 16.751 3.52175C16.9104 3.34359 17 3.10196 17 2.85C17 2.59804 16.9104 2.35641 16.751 2.17825C16.5916 2.00009 16.3754 1.9 16.15 1.9Z" fill="#4087FE"/>
</svg>
