<svg width="24" height="20" viewBox="0 0 24 20" fill="none" xmlns="http://www.w3.org/2000/svg">
<path d="M8.70334 10.4451C8.71402 9.27257 9.02901 8.12289 9.61749 7.10864C10.206 6.09438 11.0477 5.25036 12.0604 4.65917C12.262 4.49991 12.5013 4.39556 12.7552 4.35632C13.0091 4.31708 13.2688 4.34427 13.509 4.43525C13.7492 4.52622 13.9618 4.67789 14.126 4.87545C14.2902 5.07302 14.4004 5.30972 14.4459 5.56254C14.6938 6.28997 14.9937 7.00008 15.2341 7.72999C15.2982 7.9491 15.419 8.14734 15.5844 8.30468C15.7498 8.46203 15.9539 8.57287 16.1759 8.62595C16.912 8.83786 17.6481 9.0473 18.3805 9.26788C18.4767 9.28607 18.5684 9.32328 18.6501 9.37733C18.7317 9.43138 18.8018 9.5012 18.8562 9.58268C18.9105 9.66416 18.9481 9.75566 18.9667 9.85184C18.9852 9.94802 18.9844 10.0469 18.9642 10.1428C18.953 10.2462 18.9198 10.346 18.8667 10.4355C18.8136 10.525 18.742 10.6021 18.6566 10.6615C18.5712 10.7209 18.474 10.7614 18.3716 10.7801C18.2693 10.7987 18.1642 10.7953 18.0633 10.7698C17.3259 10.667 16.591 10.5517 15.8599 10.4105C15.3116 10.3283 14.7918 10.1134 14.3456 9.78445C13.8993 9.4555 13.5403 9.02248 13.2997 8.52309C13.1757 8.27524 13.0245 8.03856 12.8622 7.75601C12.2923 8.31134 11.9094 9.03032 11.7667 9.81315C11.6763 10.1725 11.7667 10.3435 12.1236 10.4662C13.1844 10.8293 14.2377 11.2172 15.2861 11.6162C15.4949 11.6664 15.6878 11.7684 15.8468 11.9127C16.0058 12.0571 16.126 12.2391 16.1961 12.4421C16.2662 12.6451 16.2841 12.8625 16.2481 13.0742C16.212 13.2859 16.1233 13.4852 15.99 13.6535C15.4645 14.521 14.902 15.3661 14.3456 16.215C13.9515 16.8161 13.944 16.8111 14.3456 17.4208C14.3703 17.458 14.4137 17.4964 14.4137 17.5336C14.4137 17.7331 14.4744 17.9958 14.3728 18.1148C14.298 18.1885 14.2072 18.2439 14.1075 18.2765C14.0077 18.3092 13.9017 18.3183 13.7978 18.3031C13.2631 18.1517 12.7397 17.9629 12.2314 17.7381C12.1326 17.7058 12.0422 17.6517 11.9671 17.5799C11.8919 17.508 11.8338 17.4202 11.7972 17.3228C11.7606 17.2255 11.7463 17.1212 11.7554 17.0176C11.7645 16.914 11.7967 16.8138 11.8498 16.7244C12.2389 15.7883 12.6292 14.8523 13.0208 13.9163C13.053 13.8382 13.0766 13.7576 13.11 13.6684C12.281 13.4206 11.4706 13.1801 10.6688 12.9249C10.3159 12.8269 9.97598 12.6871 9.65629 12.5085C9.31908 12.2894 9.05069 11.9794 8.88207 11.6143C8.71346 11.2492 8.6515 10.8439 8.70334 10.4451Z" fill="#4087FE"/>
<path d="M6.79481 11.5691C6.07234 11.5777 5.34863 11.5616 4.62615 11.5765C4.32673 11.583 4.02866 11.6191 3.73636 11.6843C3.12191 11.8141 2.5554 12.1115 2.09957 12.5435C1.64374 12.9755 1.31641 13.5252 1.15381 14.1318L0.893617 14.9113L0.737503 14.8927C0.507758 14.3576 0.422389 13.7715 0.490019 13.1931C0.557648 12.6146 0.775801 12.0641 1.1228 11.5963C0.426347 11.4464 0.0806593 11.118 0.068267 10.5529C0.0352207 9.09145 0.0129701 7.62956 0.00140387 6.16726C-0.00591512 6.02979 0.0154384 5.8923 0.0641825 5.76355C0.112927 5.6348 0.187909 5.5176 0.284437 5.41944C0.380966 5.32128 0.496887 5.2443 0.624804 5.1934C0.752721 5.1425 0.889765 5.1188 1.02734 5.12381C2.55078 5.10977 4.07435 5.10977 5.59778 5.12381C5.89713 5.12369 6.18634 5.23193 6.41209 5.42852C6.63784 5.62511 6.78481 5.89676 6.82582 6.19328C7.10341 7.63741 7.37724 9.08318 7.64739 10.5306C7.68404 10.6577 7.68922 10.7917 7.66252 10.9212C7.63582 11.0507 7.57806 11.1718 7.49415 11.274C7.41024 11.3762 7.3027 11.4565 7.18086 11.5079C7.05903 11.5593 6.92657 11.5803 6.79481 11.5691Z" fill="#4087FE"/>
<path d="M18.6925 12.9422C18.9217 12.8269 19.0147 12.7166 18.9168 12.4601C18.8471 12.2583 18.794 12.051 18.7582 11.8405C18.6913 11.5109 18.8028 11.2853 19.0506 11.2209C19.322 11.1478 19.5376 11.2965 19.6281 11.6286C19.7099 11.9273 19.783 12.2296 19.8673 12.563C20.1686 12.5462 20.4706 12.5462 20.772 12.563C21.5178 12.6552 22.2174 12.9734 22.777 13.4749C23.3366 13.9765 23.7293 14.6373 23.9023 15.3686C24.0738 16.1015 24.0179 16.8692 23.742 17.5695C23.4661 18.2698 22.9834 18.8693 22.3581 19.2883C21.7327 19.7018 20.9957 19.9141 20.2461 19.8966C19.4964 19.8791 18.7701 19.6327 18.1646 19.1904C17.6595 18.8165 17.2585 18.3197 16.9996 17.7471C16.7407 17.1745 16.6325 16.5452 16.6854 15.919C16.7384 15.2929 16.9505 14.6906 17.3018 14.1696C17.6531 13.6486 18.1318 13.226 18.6925 12.9422ZM18.2675 16.9945C18.4598 17.5096 18.8371 17.9346 19.3258 18.1866C19.8145 18.4386 20.3795 18.4996 20.9108 18.3577C21.454 18.2068 21.9195 17.855 22.2129 17.3736C22.5063 16.8921 22.6057 16.3171 22.4907 15.7652C22.3862 15.2518 22.0987 14.794 21.6817 14.4769C21.2648 14.1598 20.7468 14.005 20.2242 14.0414C20.3221 14.4206 20.4101 14.7936 20.5216 15.1567C20.5402 15.2199 20.6455 15.2633 20.7248 15.3029C20.8535 15.3583 20.9691 15.4403 21.0638 15.5436C21.1585 15.6469 21.2302 15.7691 21.2742 15.9021C21.3182 16.0351 21.3336 16.176 21.3192 16.3153C21.3048 16.4547 21.261 16.5895 21.1908 16.7107C21.1241 16.8265 21.0347 16.9277 20.9279 17.0081C20.8211 17.0885 20.6992 17.1465 20.5694 17.1786C20.4396 17.2106 20.3047 17.2161 20.1728 17.1947C20.0408 17.1733 19.9146 17.1254 19.8016 17.054C19.6851 16.977 19.5857 16.8768 19.5098 16.7595C19.4339 16.6423 19.3831 16.5106 19.3606 16.3727C19.3382 16.2349 19.3445 16.0939 19.3793 15.9586C19.414 15.8233 19.4764 15.6967 19.5624 15.5867C19.6263 15.4803 19.6504 15.3548 19.6306 15.2323C19.5699 14.9064 19.4757 14.5879 19.3827 14.2409C18.8867 14.4779 18.4972 14.8918 18.2908 15.4013C18.0845 15.9108 18.0761 16.4791 18.2675 16.9945Z" fill="#4087FE"/>
<path d="M5.43899 12.5521C5.92202 12.5458 6.4014 12.6359 6.84916 12.8172C7.29693 12.9985 7.70403 13.2673 8.04665 13.6078C8.38927 13.9483 8.66062 14.3538 8.84462 14.8004C9.02862 15.2471 9.12161 15.726 9.11827 16.209C9.12252 16.6918 9.03121 17.1707 8.84961 17.6181C8.66801 18.0655 8.39967 18.4725 8.06011 18.8158C7.72055 19.159 7.31649 19.4317 6.8711 19.6181C6.42571 19.8045 5.94783 19.901 5.46501 19.902C4.98207 19.9026 4.50385 19.8078 4.05771 19.6229C3.61156 19.438 3.20628 19.1667 2.86536 18.8247C2.52445 18.4826 2.25455 18.0765 2.07118 17.6297C1.8878 17.183 1.79463 16.7044 1.79692 16.2214C1.79461 15.2523 2.17672 14.3217 2.85946 13.6339C3.54221 12.946 4.46983 12.557 5.43899 12.5521ZM5.46622 18.4359C6.05116 18.4295 6.61023 18.1934 7.02283 17.7788C7.43542 17.3641 7.66855 16.8039 7.67209 16.2189C7.66788 15.6329 7.43313 15.0721 7.01874 14.6577C6.60435 14.2433 6.04362 14.0087 5.45759 14.0044C5.16781 14.0056 4.8811 14.0641 4.61409 14.1767C4.34709 14.2893 4.1051 14.4538 3.90204 14.6605C3.69899 14.8673 3.53892 15.1122 3.43113 15.3812C3.32334 15.6502 3.27001 15.9379 3.27411 16.2276C3.27015 16.517 3.32385 16.8044 3.43219 17.0728C3.54052 17.3412 3.70132 17.5853 3.90507 17.7909C4.10882 17.9965 4.35135 18.1594 4.61878 18.2702C4.88621 18.3809 5.17314 18.4373 5.46259 18.4359H5.46622Z" fill="#4087FE"/>
<path d="M18.3079 2.51282C17.5808 2.37304 16.8628 2.18973 16.1577 1.96384C15.6943 1.82629 15.4464 1.97253 15.5121 2.45087C15.5819 2.85677 15.6724 3.2588 15.7835 3.65539C15.8133 3.81002 15.8866 3.953 15.9948 4.06738C16.1031 4.18177 16.2417 4.26286 16.3945 4.3011C17.0253 4.46964 17.6572 4.63321 18.2942 4.77572C18.5916 4.8414 18.666 4.94178 18.4764 5.19211C18.3585 5.37797 18.1849 5.5218 17.9804 5.60304C17.7758 5.68428 17.5508 5.69876 17.3375 5.64441C16.561 5.46164 15.7986 5.22349 15.0561 4.93184C14.5686 4.72653 14.1574 4.37409 13.8799 3.92375C13.6025 3.47341 13.4725 2.94769 13.5083 2.41993C13.5625 2.11439 13.6433 1.81417 13.7499 1.52273C13.9545 1.04392 14.303 0.640609 14.7471 0.368811C15.1912 0.0970141 15.7089 -0.0297942 16.2284 0.00590521C16.7874 0.0361125 17.3251 0.230226 17.7745 0.564106C18.2238 0.897986 18.5649 1.35679 18.7552 1.88329C18.9398 2.3889 18.8271 2.59585 18.3079 2.51282Z" fill="#4087FE"/>
<path d="M21.6599 11.7802C21.3505 11.6963 21.052 11.577 20.7701 11.4245C20.5364 11.3026 20.3411 11.1181 20.206 10.8916C20.071 10.6651 20.0016 10.4055 20.0055 10.1419C20.0029 9.7434 20.1236 9.35388 20.351 9.02665C20.5784 8.69942 20.9013 8.45052 21.2757 8.31403C21.3587 8.24958 21.4554 8.20514 21.5584 8.18416C21.6613 8.16319 21.7677 8.16623 21.8692 8.19309C21.9708 8.21995 22.0647 8.26988 22.1439 8.33899C22.223 8.40811 22.2851 8.49458 22.3254 8.59162C22.653 9.12301 22.8112 9.74152 22.7789 10.365C22.7075 10.716 22.6123 11.0617 22.4939 11.3997C22.4717 11.4846 22.4309 11.5636 22.3744 11.6308C22.3179 11.6979 22.2472 11.7517 22.1673 11.7881C22.0874 11.8245 22.0005 11.8427 21.9127 11.8414C21.8249 11.84 21.7385 11.8191 21.6599 11.7802Z" fill="#4087FE"/>
<path d="M16.0262 2.18194C16.0782 2.16583 16.2344 2.30586 16.2431 2.38888C16.2518 2.47191 16.1538 2.58841 16.0522 2.78545C15.9122 2.60328 15.7783 2.50412 15.787 2.41366C15.7957 2.32319 15.9258 2.20673 16.0262 2.18194Z" fill="#4087FE"/>
<path d="M5.40615 15.2255C5.54223 15.2171 5.67863 15.2365 5.80703 15.2823C5.93543 15.3282 6.05316 15.3996 6.15314 15.4922C6.25313 15.5849 6.33325 15.697 6.38868 15.8215C6.44411 15.9461 6.47374 16.0806 6.47566 16.2169C6.47511 16.4811 6.37351 16.7351 6.19172 16.9268C6.00992 17.1185 5.76162 17.2334 5.49782 17.248C5.36412 17.2518 5.23094 17.2291 5.10603 17.1813C4.98112 17.1334 4.86701 17.0614 4.77005 16.9692C4.67308 16.8771 4.59518 16.7667 4.54102 16.6444C4.48686 16.5221 4.45739 16.3903 4.45434 16.2566C4.44785 16.1261 4.46743 15.9956 4.51197 15.8728C4.55651 15.7499 4.62515 15.6373 4.71377 15.5413C4.80239 15.4452 4.90924 15.3679 5.02812 15.3137C5.147 15.2595 5.27556 15.2295 5.40615 15.2255Z" fill="#4087FE"/>
</svg>
