<svg width="18" height="18" viewBox="0 0 18 18" fill="none" xmlns="http://www.w3.org/2000/svg">
<g clip-path="url(#clip0_12_273)">
<path d="M6.375 8.25C6.99632 8.25 7.5 7.7463 7.5 7.125C7.5 6.50368 6.99632 6 6.375 6C5.75368 6 5.25 6.50368 5.25 7.125C5.25 7.7463 5.75368 8.25 6.375 8.25Z" fill="white"/>
<path d="M12.75 7.125C12.75 7.7463 12.2463 8.25 11.625 8.25C11.0037 8.25 10.5 7.7463 10.5 7.125C10.5 6.50368 11.0037 6 11.625 6C12.2463 6 12.75 6.50368 12.75 7.125Z" fill="white"/>
<path d="M6.66656 10.1561C6.47867 9.79194 6.03233 9.64554 5.66476 9.82936C5.29427 10.0146 5.1441 10.4651 5.32934 10.8356C5.39119 10.9589 5.46995 11.0744 5.55251 11.1845C5.68961 11.3674 5.89658 11.6028 6.18789 11.8358C6.78004 12.3095 7.69298 12.7502 9.00015 12.7502C10.3073 12.7502 11.2203 12.3095 11.8124 11.8358C12.1037 11.6028 12.3107 11.3674 12.4478 11.1845C12.5307 11.0741 12.6061 10.9585 12.6706 10.8364C12.854 10.4708 12.7014 10.0123 12.3355 9.82936C11.968 9.64554 11.5217 9.79194 11.3338 10.1561C11.3234 10.1747 11.1823 10.419 10.8754 10.6646C10.5301 10.9408 9.94298 11.2502 9.00015 11.2502C8.05733 11.2502 7.47029 10.9408 7.12493 10.6646C6.81803 10.419 6.67691 10.1747 6.66656 10.1561Z" fill="white"/>
<path fill-rule="evenodd" clip-rule="evenodd" d="M9 17.25C13.5563 17.25 17.25 13.5563 17.25 9C17.25 4.44365 13.5563 0.75 9 0.75C4.44365 0.75 0.75 4.44365 0.75 9C0.75 13.5563 4.44365 17.25 9 17.25ZM9 15.7449C5.27491 15.7449 2.25512 12.7251 2.25512 9C2.25512 5.27491 5.27491 2.25512 9 2.25512C12.7251 2.25512 15.7449 5.27491 15.7449 9C15.7449 12.7251 12.7251 15.7449 9 15.7449Z" fill="white"/>
</g>
<defs>
<clipPath id="clip0_12_273">
<rect width="18" height="18" fill="white"/>
</clipPath>
</defs>
</svg>
