<svg width="512" height="512" version="1.1" xmlns="http://www.w3.org/2000/svg" desc="Created with imagetracer.js version 1.2.6" ><path fill="rgb(228,239,253)" stroke="rgb(228,239,253)" stroke-width="1" opacity="0.8196078431372549" d="M 299.5 100 L 306 100.5 L 299.5 101 L 299.5 100 Z " /><path fill="rgb(228,239,253)" stroke="rgb(228,239,253)" stroke-width="1" opacity="0.8196078431372549" d="M 321.5 100 L 332 100.5 L 321.5 101 L 321.5 100 Z " /><path fill="rgb(228,239,253)" stroke="rgb(228,239,253)" stroke-width="1" opacity="0.8196078431372549" d="M 291.5 101 L 295 101.5 L 291.5 102 L 291.5 101 Z " /><path fill="rgb(228,239,253)" stroke="rgb(228,239,253)" stroke-width="1" opacity="0.8196078431372549" d="M 338.5 101 L 344 101.5 L 338.5 102 L 338.5 101 Z " /><path fill="rgb(228,239,253)" stroke="rgb(228,239,253)" stroke-width="1" opacity="0.8196078431372549" d="M 286.5 102 L 289 102.5 L 286.5 103 L 286.5 102 Z " /><path fill="rgb(228,239,253)" stroke="rgb(228,239,253)" stroke-width="1" opacity="0.8196078431372549" d="M 349.5 102 L 353 102.5 L 349.5 103 L 349.5 102 Z " /><path fill="rgb(228,239,253)" stroke="rgb(228,239,253)" stroke-width="1" opacity="0.8196078431372549" d="M 357.5 103 L 361 103.5 L 357.5 104 L 357.5 103 Z " /><path fill="rgb(228,239,253)" stroke="rgb(228,239,253)" stroke-width="1" opacity="0.8196078431372549" d="M 365.5 104 L 368 104.5 L 365.5 105 L 365.5 104 Z " /><path fill="rgb(228,239,253)" stroke="rgb(228,239,253)" stroke-width="1" opacity="0.8196078431372549" d="M 261.5 111 L 260.5 113 L 261.5 111 Z " /><path fill="rgb(228,239,253)" stroke="rgb(228,239,253)" stroke-width="1" opacity="0.8196078431372549" d="M 256.5 114 L 255.5 116 L 256.5 114 Z " /><path fill="rgb(228,239,253)" stroke="rgb(228,239,253)" stroke-width="1" opacity="0.8196078431372549" d="M 253.5 116 L 252.5 118 L 253.5 116 Z " /><path fill="rgb(228,239,253)" stroke="rgb(228,239,253)" stroke-width="1" opacity="0.8196078431372549" d="M 249.5 119 L 247.5 122 L 249.5 119 Z " /><path fill="rgb(228,239,253)" stroke="rgb(228,239,253)" stroke-width="1" opacity="0.8196078431372549" d="M 242.5 125 L 241.5 127 L 242.5 125 Z " /><path fill="rgb(228,239,253)" stroke="rgb(228,239,253)" stroke-width="1" opacity="0.8196078431372549" d="M 237.5 131 L 235.5 134 L 237.5 131 Z " /><path fill="rgb(228,239,253)" stroke="rgb(228,239,253)" stroke-width="1" opacity="0.8196078431372549" d="M 234.5 135 L 233.5 137 L 234.5 135 Z " /><path fill="rgb(228,239,253)" stroke="rgb(228,239,253)" stroke-width="1" opacity="0.8196078431372549" d="M 230.5 141 L 229.5 143 L 230.5 141 Z " /><path fill="rgb(228,239,253)" stroke="rgb(228,239,253)" stroke-width="1" opacity="0.8196078431372549" d="M 219.5 167 L 220 169.5 L 219 169.5 L 219.5 167 Z " /><path fill="rgb(228,239,253)" stroke="rgb(228,239,253)" stroke-width="1" opacity="0.8196078431372549" d="M 327.5 168 L 331 168.5 L 327.5 169 L 327.5 168 Z " /><path fill="rgb(228,239,253)" stroke="rgb(228,239,253)" stroke-width="1" opacity="0.8196078431372549" d="M 218.5 172 L 219 174.5 L 218 174.5 L 218.5 172 Z " /><path fill="rgb(228,239,253)" stroke="rgb(228,239,253)" stroke-width="1" opacity="0.8196078431372549" d="M 311.5 174 L 310.5 176 L 311.5 174 Z " /><path fill="rgb(228,239,253)" stroke="rgb(228,239,253)" stroke-width="1" opacity="0.8196078431372549" d="M 217.5 177 L 218 180.5 L 217 180.5 L 217.5 177 Z " /><path fill="rgb(228,239,253)" stroke="rgb(228,239,253)" stroke-width="1" opacity="0.8196078431372549" d="M 307.5 177 L 304.5 181 L 307.5 177 Z " /><path fill="rgb(228,239,253)" stroke="rgb(228,239,253)" stroke-width="1" opacity="0.8196078431372549" d="M 303.5 182 L 302.5 184 L 303.5 182 Z " /><path fill="rgb(228,239,253)" stroke="rgb(228,239,253)" stroke-width="1" opacity="0.8196078431372549" d="M 216.5 185 L 217 192.5 L 216 192.5 L 216.5 185 Z " /><path fill="rgb(228,239,253)" stroke="rgb(228,239,253)" stroke-width="1" opacity="0.8196078431372549" d="M 301.5 185 L 301 186.5 L 299.5 190 L 299 188.5 L 301.5 185 Z " /><path fill="rgb(228,239,253)" stroke="rgb(228,239,253)" stroke-width="1" opacity="0.8196078431372549" d="M 296.5 198 L 297 201.5 L 296 201.5 L 296.5 198 Z " /><path fill="rgb(228,239,253)" stroke="rgb(228,239,253)" stroke-width="1" opacity="0.8196078431372549" d="M 366.5 257 L 367 260.5 L 366 260.5 L 366.5 257 Z " /><path fill="rgb(228,239,253)" stroke="rgb(228,239,253)" stroke-width="1" opacity="0.8196078431372549" d="M 365.5 264 L 366 266.5 L 365 266.5 L 365.5 264 Z " /><path fill="rgb(228,239,253)" stroke="rgb(228,239,253)" stroke-width="1" opacity="0.8196078431372549" d="M 364.5 270 L 365 273.5 L 364 273.5 L 364.5 270 Z " /><path fill="rgb(228,239,253)" stroke="rgb(228,239,253)" stroke-width="1" opacity="0.8196078431372549" d="M 363.5 277 L 364 279.5 L 363 279.5 L 363.5 277 Z " /><path fill="rgb(228,239,253)" stroke="rgb(228,239,253)" stroke-width="1" opacity="0.8196078431372549" d="M 362.5 283 L 363 286.5 L 362 286.5 L 362.5 283 Z " /><path fill="rgb(228,239,253)" stroke="rgb(228,239,253)" stroke-width="1" opacity="0.8196078431372549" d="M 361.5 290 L 362 292.5 L 361 292.5 L 361.5 290 Z " /><path fill="rgb(228,239,253)" stroke="rgb(228,239,253)" stroke-width="1" opacity="0.8196078431372549" d="M 360.5 296 L 361 299.5 L 360 299.5 L 360.5 296 Z " /><path fill="rgb(228,239,253)" stroke="rgb(228,239,253)" stroke-width="1" opacity="0.8196078431372549" d="M 359.5 303 L 360 305.5 L 359 305.5 L 359.5 303 Z " /><path fill="rgb(228,239,253)" stroke="rgb(228,239,253)" stroke-width="1" opacity="0.8196078431372549" d="M 358.5 309 L 359 312.5 L 358 312.5 L 358.5 309 Z " /><path fill="rgb(228,239,253)" stroke="rgb(228,239,253)" stroke-width="1" opacity="0.8196078431372549" d="M 357.5 316 L 358 318.5 L 357 318.5 L 357.5 316 Z " /><path fill="rgb(228,239,253)" stroke="rgb(228,239,253)" stroke-width="1" opacity="0.8196078431372549" d="M 356.5 322 L 357 325.5 L 356 325.5 L 356.5 322 Z " /><path fill="rgb(228,239,253)" stroke="rgb(228,239,253)" stroke-width="1" opacity="0.8196078431372549" d="M 217.5 509 L 223 509.5 L 217.5 510 L 217.5 509 Z " /><path fill="rgb(228,239,253)" stroke="rgb(228,239,253)" stroke-width="1" opacity="0.8196078431372549" d="M 289.5 509 L 296 509.5 L 289.5 510 L 289.5 509 Z " /><path fill="rgb(228,239,253)" stroke="rgb(228,239,253)" stroke-width="1" opacity="0.8196078431372549" d="M 224.5 510 L 232 510.5 L 224.5 511 L 224.5 510 Z " /><path fill="rgb(228,239,253)" stroke="rgb(228,239,253)" stroke-width="1" opacity="0.8196078431372549" d="M 280.5 510 L 288 510.5 L 280.5 511 L 280.5 510 Z " /><path fill="rgb(228,239,253)" stroke="rgb(228,239,253)" stroke-width="1" opacity="0.8196078431372549" d="M 234.5 511 L 248 511.5 L 234.5 512 L 234.5 511 Z " /><path fill="rgb(228,239,253)" stroke="rgb(228,239,253)" stroke-width="1" opacity="0.8196078431372549" d="M 264.5 511 L 278 511.5 L 264.5 512 L 264.5 511 Z " /><path fill="rgb(28,125,244)" stroke="rgb(28,125,244)" stroke-width="1" opacity="0.5450980392156862" d="M 233.5 0 L 245 0.5 L 233.5 1 L 233.5 0 Z " /><path fill="rgb(28,125,244)" stroke="rgb(28,125,244)" stroke-width="1" opacity="0.5450980392156862" d="M 267.5 0 L 279 0.5 L 267.5 1 L 267.5 0 Z " /><path fill="rgb(28,125,244)" stroke="rgb(28,125,244)" stroke-width="1" opacity="0.5450980392156862" d="M 224.5 1 L 231 1.5 L 224.5 2 L 224.5 1 Z " /><path fill="rgb(28,125,244)" stroke="rgb(28,125,244)" stroke-width="1" opacity="0.5450980392156862" d="M 281.5 1 L 288 1.5 L 281.5 2 L 281.5 1 Z " /><path fill="rgb(28,125,244)" stroke="rgb(28,125,244)" stroke-width="1" opacity="0.5450980392156862" d="M 216.5 2 L 222 2.5 L 216.5 3 L 216.5 2 Z " /><path fill="rgb(28,125,244)" stroke="rgb(28,125,244)" stroke-width="1" opacity="0.5450980392156862" d="M 290.5 2 L 296 2.5 L 290.5 3 L 290.5 2 Z " /><path fill="rgb(28,125,244)" stroke="rgb(28,125,244)" stroke-width="1" opacity="0.5450980392156862" d="M 211.5 3 L 215 3.5 L 211.5 4 L 211.5 3 Z " /><path fill="rgb(28,125,244)" stroke="rgb(28,125,244)" stroke-width="1" opacity="0.5450980392156862" d="M 297.5 3 L 302 3.5 L 297.5 4 L 297.5 3 Z " /><path fill="rgb(28,125,244)" stroke="rgb(28,125,244)" stroke-width="1" opacity="0.5450980392156862" d="M 205.5 4 L 209 4.5 L 205.5 5 L 205.5 4 Z " /><path fill="rgb(28,125,244)" stroke="rgb(28,125,244)" stroke-width="1" opacity="0.5450980392156862" d="M 303.5 4 L 307 4.5 L 303.5 5 L 303.5 4 Z " /><path fill="rgb(28,125,244)" stroke="rgb(28,125,244)" stroke-width="1" opacity="0.5450980392156862" d="M 200.5 5 L 204 5.5 L 196.5 7 L 196.5 6 L 200.5 5 Z " /><path fill="rgb(28,125,244)" stroke="rgb(28,125,244)" stroke-width="1" opacity="0.5450980392156862" d="M 308.5 5 L 316 6.5 L 312.5 7 L 308.5 6 L 308.5 5 Z " /><path fill="rgb(28,125,244)" stroke="rgb(28,125,244)" stroke-width="1" opacity="0.5450980392156862" d="M 192.5 7 L 195 7.5 L 192.5 8 L 192.5 7 Z " /><path fill="rgb(28,125,244)" stroke="rgb(28,125,244)" stroke-width="1" opacity="0.5450980392156862" d="M 317.5 7 L 320 7.5 L 317.5 8 L 317.5 7 Z " /><path fill="rgb(28,125,244)" stroke="rgb(28,125,244)" stroke-width="1" opacity="0.5450980392156862" d="M 188.5 8 L 191 8.5 L 185.5 10 L 185.5 9 L 188.5 8 Z " /><path fill="rgb(28,125,244)" stroke="rgb(28,125,244)" stroke-width="1" opacity="0.5450980392156862" d="M 321.5 8 L 327 9.5 L 324.5 10 L 321.5 9 L 321.5 8 Z " /><path fill="rgb(28,125,244)" stroke="rgb(28,125,244)" stroke-width="1" opacity="0.5450980392156862" d="M 181.5 10 L 184 10.5 L 175.5 13 L 175.5 12 L 181.5 10 Z " /><path fill="rgb(28,125,244)" stroke="rgb(28,125,244)" stroke-width="1" opacity="0.5450980392156862" d="M 328.5 10 L 334 11.5 L 331.5 12 L 328.5 11 L 328.5 10 Z " /><path fill="rgb(28,125,244)" stroke="rgb(28,125,244)" stroke-width="1" opacity="0.5450980392156862" d="M 335.5 12 L 340 13.5 L 337.5 14 L 335.5 12 Z " /><path fill="rgb(28,125,244)" stroke="rgb(28,125,244)" stroke-width="1" opacity="0.5450980392156862" d="M 172.5 13 L 174 13.5 L 164.5 17 L 164.5 16 L 172.5 13 Z " /><path fill="rgb(28,125,244)" stroke="rgb(28,125,244)" stroke-width="1" opacity="0.5450980392156862" d="M 341.5 14 L 348 16.5 L 346.5 17 L 341.5 15 L 341.5 14 Z " /><path fill="rgb(28,125,244)" stroke="rgb(28,125,244)" stroke-width="1" opacity="0.5450980392156862" d="M 161.5 17 L 163 17.5 L 152.5 22 L 152.5 21 L 161.5 17 Z " /><path fill="rgb(28,125,244)" stroke="rgb(28,125,244)" stroke-width="1" opacity="0.5450980392156862" d="M 349.5 17 L 353 18.5 L 351.5 19 L 349.5 17 Z " /><path fill="rgb(28,125,244)" stroke="rgb(28,125,244)" stroke-width="1" opacity="0.5450980392156862" d="M 354.5 19 L 360 21.5 L 358.5 22 L 354.5 20 L 354.5 19 Z " /><path fill="rgb(28,125,244)" stroke="rgb(28,125,244)" stroke-width="1" opacity="0.5450980392156862" d="M 149.5 22 L 151 22.5 Q 99.9 45.9 65 85.5 Q 39.2 113.7 22.5 151 L 22 149.5 Q 46.1 98.1 86.5 63 Q 114 38.5 149.5 22 Z " /><path fill="rgb(28,125,244)" stroke="rgb(28,125,244)" stroke-width="1" opacity="0.5450980392156862" d="M 361.5 22 Q 413.9 45.6 449 86.5 Q 473.3 113.2 489 148.5 L 488 148.5 Q 464.8 98.2 425.5 64 L 390.5 38 L 361.5 23 L 361.5 22 Z " /><path fill="rgb(28,125,244)" stroke="rgb(28,125,244)" stroke-width="1" opacity="0.5450980392156862" d="M 489.5 150 Q 497.7 164.8 502 183.5 L 501 183.5 L 496 166.5 L 489 151.5 L 489.5 150 Z " /><path fill="rgb(28,125,244)" stroke="rgb(28,125,244)" stroke-width="1" opacity="0.5450980392156862" d="M 21.5 152 L 22 153.5 L 19.5 158 L 19 156.5 L 21.5 152 Z " /><path fill="rgb(28,125,244)" stroke="rgb(28,125,244)" stroke-width="1" opacity="0.5450980392156862" d="M 18.5 159 L 19 160.5 L 17.5 163 L 17 161.5 L 18.5 159 Z " /><path fill="rgb(28,125,244)" stroke="rgb(28,125,244)" stroke-width="1" opacity="0.5450980392156862" d="M 16.5 164 L 17 165.5 L 13.5 174 L 13 172.5 L 16.5 164 Z " /><path fill="rgb(28,125,244)" stroke="rgb(28,125,244)" stroke-width="1" opacity="0.5450980392156862" d="M 12.5 175 L 13 177.5 L 10.5 184 L 10 181.5 L 12.5 175 Z " /><path fill="rgb(28,125,244)" stroke="rgb(28,125,244)" stroke-width="1" opacity="0.5450980392156862" d="M 9.5 185 L 10 187.5 L 8.5 191 L 8 188.5 L 9.5 185 Z " /><path fill="rgb(28,125,244)" stroke="rgb(28,125,244)" stroke-width="1" opacity="0.5450980392156862" d="M 502.5 185 L 504 190.5 L 503 190.5 L 502.5 185 Z " /><path fill="rgb(28,125,244)" stroke="rgb(28,125,244)" stroke-width="1" opacity="0.5450980392156862" d="M 7.5 192 L 8 194.5 L 7 194.5 L 7.5 192 Z " /><path fill="rgb(28,125,244)" stroke="rgb(28,125,244)" stroke-width="1" opacity="0.5450980392156862" d="M 504.5 192 L 505 194.5 L 504 194.5 L 504.5 192 Z " /><path fill="rgb(28,125,244)" stroke="rgb(28,125,244)" stroke-width="1" opacity="0.5450980392156862" d="M 6.5 196 L 7 199.5 L 5.5 204 L 5 200.5 L 6.5 196 Z " /><path fill="rgb(28,125,244)" stroke="rgb(28,125,244)" stroke-width="1" opacity="0.5450980392156862" d="M 505.5 196 L 507 203.5 L 506 203.5 L 505.5 196 Z " /><path fill="rgb(28,125,244)" stroke="rgb(28,125,244)" stroke-width="1" opacity="0.5450980392156862" d="M 4.5 205 L 5 208.5 L 4 208.5 L 4.5 205 Z " /><path fill="rgb(28,125,244)" stroke="rgb(28,125,244)" stroke-width="1" opacity="0.5450980392156862" d="M 507.5 205 L 508 208.5 L 507 208.5 L 507.5 205 Z " /><path fill="rgb(28,125,244)" stroke="rgb(28,125,244)" stroke-width="1" opacity="0.5450980392156862" d="M 3.5 210 L 4 214.5 L 3 214.5 L 3.5 210 Z " /><path fill="rgb(28,125,244)" stroke="rgb(28,125,244)" stroke-width="1" opacity="0.5450980392156862" d="M 508.5 210 L 509 214.5 L 508 214.5 L 508.5 210 Z " /><path fill="rgb(28,125,244)" stroke="rgb(28,125,244)" stroke-width="1" opacity="0.5450980392156862" d="M 2.5 216 L 3 221.5 L 2 221.5 L 2.5 216 Z " /><path fill="rgb(28,125,244)" stroke="rgb(28,125,244)" stroke-width="1" opacity="0.5450980392156862" d="M 509.5 217 L 510 221.5 L 509 221.5 L 509.5 217 Z " /><path fill="rgb(28,125,244)" stroke="rgb(28,125,244)" stroke-width="1" opacity="0.5450980392156862" d="M 1.5 224 L 2 230.5 L 1 230.5 L 1.5 224 Z " /><path fill="rgb(28,125,244)" stroke="rgb(28,125,244)" stroke-width="1" opacity="0.5450980392156862" d="M 510.5 224 L 511 230.5 L 510 230.5 L 510.5 224 Z " /><path fill="rgb(28,125,244)" stroke="rgb(28,125,244)" stroke-width="1" opacity="0.5450980392156862" d="M 0.5 233 L 1 244.5 L 0 244.5 L 0.5 233 Z " /><path fill="rgb(28,125,244)" stroke="rgb(28,125,244)" stroke-width="1" opacity="0.5450980392156862" d="M 511.5 233 L 512 244.5 L 511 244.5 L 511.5 233 Z " /><path fill="rgb(28,125,244)" stroke="rgb(28,125,244)" stroke-width="1" opacity="0.5450980392156862" d="M 511.5 266 L 512 277.5 L 511 277.5 L 511.5 266 Z " /><path fill="rgb(28,125,244)" stroke="rgb(28,125,244)" stroke-width="1" opacity="0.5450980392156862" d="M 0.5 267 L 1 278.5 L 0 278.5 L 0.5 267 Z " /><path fill="rgb(28,125,244)" stroke="rgb(28,125,244)" stroke-width="1" opacity="0.5450980392156862" d="M 1.5 281 L 2 287.5 L 1 287.5 L 1.5 281 Z " /><path fill="rgb(28,125,244)" stroke="rgb(28,125,244)" stroke-width="1" opacity="0.5450980392156862" d="M 510.5 281 L 511 287.5 L 510 287.5 L 510.5 281 Z " /><path fill="rgb(28,125,244)" stroke="rgb(28,125,244)" stroke-width="1" opacity="0.5450980392156862" d="M 2.5 290 L 3 294.5 L 2 294.5 L 2.5 290 Z " /><path fill="rgb(28,125,244)" stroke="rgb(28,125,244)" stroke-width="1" opacity="0.5450980392156862" d="M 509.5 290 L 510 294.5 L 509 294.5 L 509.5 290 Z " /><path fill="rgb(28,125,244)" stroke="rgb(28,125,244)" stroke-width="1" opacity="0.5450980392156862" d="M 3.5 296 L 4 300.5 L 3 300.5 L 3.5 296 Z " /><path fill="rgb(28,125,244)" stroke="rgb(28,125,244)" stroke-width="1" opacity="0.5450980392156862" d="M 508.5 296 L 509 300.5 L 508 300.5 L 508.5 296 Z " /><path fill="rgb(28,125,244)" stroke="rgb(28,125,244)" stroke-width="1" opacity="0.5450980392156862" d="M 4.5 303 L 6 310.5 L 5 310.5 L 4.5 303 Z " /><path fill="rgb(28,125,244)" stroke="rgb(28,125,244)" stroke-width="1" opacity="0.5450980392156862" d="M 507.5 303 L 508 306.5 L 506.5 311 L 506 307.5 L 507.5 303 Z " /><path fill="rgb(28,125,244)" stroke="rgb(28,125,244)" stroke-width="1" opacity="0.5450980392156862" d="M 6.5 312 L 7 315.5 L 6 315.5 L 6.5 312 Z " /><path fill="rgb(28,125,244)" stroke="rgb(28,125,244)" stroke-width="1" opacity="0.5450980392156862" d="M 505.5 312 L 506 315.5 L 502.5 327 L 502 324.5 L 505.5 312 Z " /><path fill="rgb(28,125,244)" stroke="rgb(28,125,244)" stroke-width="1" opacity="0.5450980392156862" d="M 7.5 317 L 10 326.5 L 9 326.5 L 7.5 317 Z " /><path fill="rgb(28,125,244)" stroke="rgb(28,125,244)" stroke-width="1" opacity="0.5450980392156862" d="M 10.5 328 Q 15.3 346.3 23 361.5 L 22 361.5 Q 13.8 346.3 10.5 328 Z " /><path fill="rgb(28,125,244)" stroke="rgb(28,125,244)" stroke-width="1" opacity="0.5450980392156862" d="M 501.5 328 L 502 330.5 L 489.5 362 L 489 360.5 Q 497 346 501.5 328 Z " /><path fill="rgb(28,125,244)" stroke="rgb(28,125,244)" stroke-width="1" opacity="0.5450980392156862" d="M 23.5 363 Q 46.9 413.6 86.5 448 Q 104.5 464 126 476.5 L 124.5 476 Q 88.2 455.3 62 424.5 L 37 390.5 L 23 364.5 L 23.5 363 Z " /><path fill="rgb(28,125,244)" stroke="rgb(28,125,244)" stroke-width="1" opacity="0.5450980392156862" d="M 488.5 363 L 489 364.5 Q 464.7 415.2 424.5 450 Q 404.3 467.8 379.5 481 L 380.5 479 Q 419.4 458.4 447 426.5 Q 472.1 399.1 488.5 363 Z " /><path fill="rgb(28,125,244)" stroke="rgb(28,125,244)" stroke-width="1" opacity="0.5450980392156862" d="M 127.5 477 L 149 488.5 L 147.5 489 L 128.5 479 L 127.5 477 Z " /><path fill="rgb(28,125,244)" stroke="rgb(28,125,244)" stroke-width="1" opacity="0.5450980392156862" d="M 377.5 481 L 376.5 483 L 363.5 489 L 363.5 488 L 377.5 481 Z " /><path fill="rgb(28,125,244)" stroke="rgb(28,125,244)" stroke-width="1" opacity="0.5450980392156862" d="M 150.5 489 L 166 495.5 L 164.5 496 L 150.5 490 L 150.5 489 Z " /><path fill="rgb(28,125,244)" stroke="rgb(28,125,244)" stroke-width="1" opacity="0.5450980392156862" d="M 360.5 489 L 362 489.5 L 346.5 496 L 346.5 495 L 360.5 489 Z " /><path fill="rgb(28,125,244)" stroke="rgb(28,125,244)" stroke-width="1" opacity="0.5450980392156862" d="M 167.5 496 L 184 501.5 L 181.5 502 L 169.5 498 L 167.5 496 Z " /><path fill="rgb(28,125,244)" stroke="rgb(28,125,244)" stroke-width="1" opacity="0.5450980392156862" d="M 343.5 496 L 345 496.5 L 328.5 502 L 328.5 501 L 343.5 496 Z " /><path fill="rgb(28,125,244)" stroke="rgb(28,125,244)" stroke-width="1" opacity="0.5450980392156862" d="M 185.5 502 L 195 504.5 L 192.5 505 L 185.5 503 L 185.5 502 Z " /><path fill="rgb(28,125,244)" stroke="rgb(28,125,244)" stroke-width="1" opacity="0.5450980392156862" d="M 324.5 502 L 327 502.5 L 321.5 504 L 321.5 503 L 324.5 502 Z " /><path fill="rgb(28,125,244)" stroke="rgb(28,125,244)" stroke-width="1" opacity="0.5450980392156862" d="M 317.5 504 L 320 504.5 L 317.5 505 L 317.5 504 Z " /><path fill="rgb(28,125,244)" stroke="rgb(28,125,244)" stroke-width="1" opacity="0.5450980392156862" d="M 196.5 505 L 200 505.5 L 196.5 506 L 196.5 505 Z " /><path fill="rgb(28,125,244)" stroke="rgb(28,125,244)" stroke-width="1" opacity="0.5450980392156862" d="M 312.5 505 L 316 505.5 L 312.5 506 L 312.5 505 Z " /><path fill="rgb(28,125,244)" stroke="rgb(28,125,244)" stroke-width="1" opacity="0.5450980392156862" d="M 201.5 506 L 204 506.5 L 201.5 507 L 201.5 506 Z " /><path fill="rgb(28,125,244)" stroke="rgb(28,125,244)" stroke-width="1" opacity="0.5450980392156862" d="M 308.5 506 L 311 506.5 L 308.5 507 L 308.5 506 Z " /><path fill="rgb(28,125,244)" stroke="rgb(28,125,244)" stroke-width="1" opacity="0.5450980392156862" d="M 205.5 507 L 210 507.5 L 205.5 508 L 205.5 507 Z " /><path fill="rgb(28,125,244)" stroke="rgb(28,125,244)" stroke-width="1" opacity="0.5450980392156862" d="M 303.5 507 L 307 507.5 L 303.5 508 L 303.5 507 Z " /><path fill="rgb(28,125,244)" stroke="rgb(28,125,244)" stroke-width="1" opacity="0.5450980392156862" d="M 211.5 508 L 215 508.5 L 211.5 509 L 211.5 508 Z " /><path fill="rgb(28,125,244)" stroke="rgb(28,125,244)" stroke-width="1" opacity="0.5450980392156862" d="M 297.5 508 L 301 508.5 L 297.5 509 L 297.5 508 Z " /><path fill="rgb(0,0,0)" stroke="rgb(0,0,0)" stroke-width="1" opacity="0" d="M 0 0 L 233 0.5 L 205.5 4 L 181.5 10 Q 155.5 18 133.5 30 Q 92.6 52.6 63 86.5 Q 36.1 116.6 19 156.5 Q 10.4 176.9 5 200.5 L 0.5 233 L 0 0 Z " /><path fill="rgb(0,0,0)" stroke="rgb(0,0,0)" stroke-width="1" opacity="0" d="M 279.5 0 L 512 0 L 512 232.5 L 511 232.5 L 509 210.5 L 502 181.5 Q 494 155.5 482 133.5 Q 459.4 92.6 425.5 63 Q 398 38.5 362.5 22 L 323.5 8 L 295.5 2 L 279.5 1 L 279.5 0 Z " /><path fill="rgb(0,0,0)" stroke="rgb(0,0,0)" stroke-width="1" opacity="0" d="M 511.5 278 L 512 512 L 278 511.5 L 295.5 510 L 330.5 502 Q 355.4 494.4 376.5 483 Q 419.4 459.9 450 424.5 Q 476.2 394.7 493 355.5 L 506 315.5 L 510 294.5 L 511.5 278 Z " /><path fill="rgb(0,0,0)" stroke="rgb(0,0,0)" stroke-width="1" opacity="0" d="M 0.5 279 L 4 306.5 L 10 330.5 Q 18 356.5 30 378.5 Q 52.6 419.4 86.5 449 Q 116.6 475.9 156.5 493 L 196.5 506 L 217.5 510 L 234 511.5 L 0 512 L 0.5 279 Z " /><path fill="rgb(24,119,242)" stroke="rgb(24,119,242)" stroke-width="1" opacity="1" d="M 245.5 0 L 266.5 0 L 267.5 1 L 280.5 1 L 281.5 2 L 302.5 4 L 334.5 12 L 353.5 19 Q 409.4 43.1 447 85.5 Q 478 119.5 496 166.5 L 504 191.5 L 509 215.5 L 510 230.5 L 511 231.5 L 511 244.5 L 512 245.5 L 512 265.5 L 511 266.5 L 510 289.5 L 506 311.5 L 502 327.5 L 489 362.5 Q 465.3 413.3 425.5 448 Q 398 472.5 362.5 489 Q 333.2 502.7 296.5 509 L 296 330 L 355.5 330 L 356 326.5 L 357 325.5 L 357 319.5 L 359 312.5 L 359 306.5 L 361 299.5 L 361 293.5 L 363 286.5 L 363 280.5 L 367 256 L 296 256 L 296 202.5 Q 298.3 201.2 297 196.5 L 302 184.5 L 309.5 176 L 318.5 171 L 332.5 168 L 370 168 L 370 105.5 L 368.5 105 L 353.5 102 L 332.5 101 L 331.5 100 L 299.5 100 L 278.5 104 L 265.5 109 Q 251.2 115.7 241 126.5 Q 222.4 145.4 217 177.5 Q 218.7 183.8 216 185.5 L 216 256 L 151 256 L 151 330 L 216 330 L 216 508.5 L 214.5 508 L 204.5 507 L 184.5 502 Q 157.9 494.1 135.5 482 Q 94.6 459.9 65 426.5 Q 34 392.5 16 345.5 L 10 327.5 L 4 302.5 L 2 281.5 L 1 280.5 L 1 267.5 L 0 266.5 L 0 245.5 L 1 244.5 L 2 222.5 L 7 195.5 L 13 174.5 L 22 151.5 Q 45.7 100.2 85.5 65 Q 118.5 35 163.5 17 L 204.5 5 L 221.5 3 L 222.5 2 L 230.5 2 L 231.5 1 L 244.5 1 L 245.5 0 Z " /><path fill="rgb(255,255,255)" stroke="rgb(255,255,255)" stroke-width="1" opacity="0.996078431372549" d="M 306.5 100 L 311 100.5 L 306.5 101 L 306.5 100 Z " /><path fill="rgb(255,255,255)" stroke="rgb(255,255,255)" stroke-width="1" opacity="0.996078431372549" d="M 314.5 100 L 321 100.5 L 314.5 101 L 314.5 100 Z " /><path fill="rgb(255,255,255)" stroke="rgb(255,255,255)" stroke-width="1" opacity="0.996078431372549" d="M 251.5 118 L 250.5 120 L 251.5 118 Z " /><path fill="rgb(255,255,255)" stroke="rgb(255,255,255)" stroke-width="1" opacity="0.996078431372549" d="M 246.5 122 L 238.5 131 L 246.5 122 Z " /><path fill="rgb(255,255,255)" stroke="rgb(255,255,255)" stroke-width="1" opacity="0.996078431372549" d="M 233.5 137 L 232.5 139 L 233.5 137 Z " /><path fill="rgb(255,255,255)" stroke="rgb(255,255,255)" stroke-width="1" opacity="0.996078431372549" d="M 309.5 175 L 308.5 177 L 309.5 175 Z " /><path fill="rgb(255,255,255)" stroke="rgb(255,255,255)" stroke-width="1" opacity="0.996078431372549" d="M 303.5 181 L 302.5 183 L 303.5 181 Z " /><path fill="rgb(255,255,255)" stroke="rgb(255,255,255)" stroke-width="1" opacity="0.996078431372549" d="M 216.5 193 L 217 199.5 L 216 199.5 L 216.5 193 Z " /><path fill="rgb(255,255,255)" stroke="rgb(255,255,255)" stroke-width="1" opacity="0.996078431372549" d="M 248.5 511 L 255 511.5 L 248.5 512 L 248.5 511 Z " /><path fill="rgb(255,255,255)" stroke="rgb(255,255,255)" stroke-width="1" opacity="0.996078431372549" d="M 257.5 511 L 264 511.5 L 257.5 512 L 257.5 511 Z " /><path fill="rgb(255,255,255)" stroke="rgb(255,255,255)" stroke-width="1" opacity="1" d="M 311.5 100 L 314.5 101 L 335.5 101 L 336.5 102 L 346.5 102 L 347.5 103 L 370 105 L 370 168 L 326.5 168 Q 310.1 171.1 302 182.5 L 296 197.5 L 296 256 L 365.5 256 Q 366.6 256.1 366 261.5 L 365 262.5 L 365 268.5 L 363 275.5 L 363 281.5 L 362 282.5 L 361 294.5 L 355 330 L 296.5 330 L 296 330.5 L 296 507.5 L 294.5 509 Q 289 507.5 287.5 510 L 257.5 511 L 255.5 512 L 254.5 511 L 225.5 510 Q 223.8 507.3 217.5 509 L 216 507.5 L 216 330.5 L 215.5 330 L 151 330 L 151 256 L 216 256 L 216 200.5 L 217 199.5 L 218 176.5 L 225 152.5 Q 233.4 132.4 249.5 120 Q 262.8 109.3 281.5 104 L 296.5 101 L 310.5 101 L 311.5 100 Z " /></svg>