<svg width="512" height="512" version="1.1" xmlns="http://www.w3.org/2000/svg" desc="Created with imagetracer.js version 1.2.6" ><path fill="rgb(0,0,0)" stroke="rgb(0,0,0)" stroke-width="1" opacity="0" d="M 0 0 L 512 0 L 512 512 L 0 512 L 0 0 Z M 252 27 L 248 29 L 242 35 L 191 137 L 191 139 L 357 304 L 400 218 Q 401 209 398 205 Q 394 199 387 197 L 272 197 L 272 39 L 269 33 Q 265 25 252 27 Z M 102 91 L 98 93 L 91 102 Q 89 111 93 116 L 165 188 L 112 296 Q 111 304 115 309 Q 119 313 126 315 L 240 315 L 240 473 L 242 478 L 252 485 Q 262 487 267 482 L 271 477 L 331 355 L 333 355 L 397 419 L 405 422 L 414 420 L 420 414 L 422 407 L 419 397 L 116 93 Q 111 89 102 91 Z " /><path fill="rgb(0,0,0)" stroke="rgb(0,0,0)" stroke-width="1" opacity="0.8235294117647058" d="M 263.5 28 L 264.5 30 L 263.5 28 Z " /><path fill="rgb(0,0,0)" stroke="rgb(0,0,0)" stroke-width="1" opacity="0.8235294117647058" d="M 266.5 30 L 268.5 33 L 266.5 30 Z " /><path fill="rgb(0,0,0)" stroke="rgb(0,0,0)" stroke-width="1" opacity="0.8235294117647058" d="M 243.5 33 L 242.5 35 L 243.5 33 Z " /><path fill="rgb(0,0,0)" stroke="rgb(0,0,0)" stroke-width="1" opacity="0.8235294117647058" d="M 97.5 93 L 93.5 98 L 97.5 93 Z " /><path fill="rgb(0,0,0)" stroke="rgb(0,0,0)" stroke-width="1" opacity="0.8235294117647058" d="M 115.5 93 L 116.5 95 L 115.5 93 Z " /><path fill="rgb(0,0,0)" stroke="rgb(0,0,0)" stroke-width="1" opacity="0.8235294117647058" d="M 93.5 115 L 95.5 118 L 93.5 115 Z " /><path fill="rgb(0,0,0)" stroke="rgb(0,0,0)" stroke-width="1" opacity="0.8235294117647058" d="M 191.5 138 L 357 302.5 L 398.5 219 L 399 220.5 L 356.5 304 L 191.5 138 Z " /><path fill="rgb(0,0,0)" stroke="rgb(0,0,0)" stroke-width="1" opacity="0.8235294117647058" d="M 272.5 197 L 387 197.5 L 272.5 198 L 272.5 197 Z " /><path fill="rgb(0,0,0)" stroke="rgb(0,0,0)" stroke-width="1" opacity="0.8235294117647058" d="M 393.5 200 L 397.5 205 L 393.5 200 Z " /><path fill="rgb(0,0,0)" stroke="rgb(0,0,0)" stroke-width="1" opacity="0.8235294117647058" d="M 112.5 295 L 113 301.5 L 112 301.5 L 112.5 295 Z " /><path fill="rgb(0,0,0)" stroke="rgb(0,0,0)" stroke-width="1" opacity="0.8235294117647058" d="M 115.5 308 L 118.5 312 L 115.5 308 Z " /><path fill="rgb(0,0,0)" stroke="rgb(0,0,0)" stroke-width="1" opacity="0.8235294117647058" d="M 125.5 314 L 239.5 314 L 241 315.5 L 240.5 473 L 240 315 L 125.5 315 L 125.5 314 Z " /><path fill="rgb(0,0,0)" stroke="rgb(0,0,0)" stroke-width="1" opacity="0.8235294117647058" d="M 331.5 354 L 331 355.5 L 269.5 478 L 270 476.5 L 331.5 354 Z " /><path fill="rgb(0,0,0)" stroke="rgb(0,0,0)" stroke-width="1" opacity="0.8235294117647058" d="M 417.5 395 L 418.5 397 L 417.5 395 Z " /><path fill="rgb(0,0,0)" stroke="rgb(0,0,0)" stroke-width="1" opacity="0.8235294117647058" d="M 421.5 404 L 422 406.5 L 421 406.5 L 421.5 404 Z " /><path fill="rgb(0,0,0)" stroke="rgb(0,0,0)" stroke-width="1" opacity="0.8235294117647058" d="M 419.5 413 L 418.5 415 L 419.5 413 Z " /><path fill="rgb(0,0,0)" stroke="rgb(0,0,0)" stroke-width="1" opacity="0.8235294117647058" d="M 395.5 417 L 396.5 419 L 395.5 417 Z " /><path fill="rgb(0,0,0)" stroke="rgb(0,0,0)" stroke-width="1" opacity="0.8235294117647058" d="M 414.5 418 L 413.5 420 L 414.5 418 Z " /><path fill="rgb(0,0,0)" stroke="rgb(0,0,0)" stroke-width="1" opacity="0.8235294117647058" d="M 404.5 421 L 407 421.5 L 404.5 422 L 404.5 421 Z " /><path fill="rgb(0,0,0)" stroke="rgb(0,0,0)" stroke-width="1" opacity="0.8235294117647058" d="M 242.5 477 L 243.5 479 L 242.5 477 Z " /><path fill="rgb(0,0,0)" stroke="rgb(0,0,0)" stroke-width="1" opacity="0.8235294117647058" d="M 267.5 480 L 266.5 482 L 267.5 480 Z " /><path fill="rgb(0,0,0)" stroke="rgb(0,0,0)" stroke-width="1" opacity="0.8235294117647058" d="M 264.5 482 L 263.5 484 L 264.5 482 Z " /><path fill="rgb(0,0,0)" stroke="rgb(0,0,0)" stroke-width="1" opacity="1" d="M 253.5 27 Q 265.2 26.3 269 33.5 L 272 40.5 L 272 198 L 388.5 198 L 398 205.5 L 400 215.5 L 356.5 303 L 191 137.5 L 192 136.5 L 242 35.5 L 246.5 30 L 253.5 27 Z " /><path fill="rgb(0,0,0)" stroke="rgb(0,0,0)" stroke-width="1" opacity="1" d="M 103.5 91 Q 113.5 90 117.5 95 L 417 394.5 L 421 401.5 L 421 409.5 L 415.5 418 Q 411.3 422.3 401.5 421 L 394.5 417 L 331.5 354 L 269 478.5 L 265.5 482 Q 262 486 253.5 485 L 244 479.5 L 241 474.5 L 241 315.5 L 239.5 314 L 123.5 314 L 115 307.5 Q 111.3 303.2 113 293.5 L 166 188.5 L 96 118.5 Q 90.5 114 91 103.5 Q 92.8 96.3 98.5 93 L 103.5 91 Z " /></svg>