<svg width="20" height="20" viewBox="0 0 20 20" fill="none" xmlns="http://www.w3.org/2000/svg">
<g clip-path="url(#clip0_153_156)">
<path opacity="0.788235" d="M2.51953 1.09375L2.48047 1.17188" stroke="black"/>
<path opacity="0.788235" d="M3.10547 1.09375L3.14453 1.17188" stroke="black"/>
<path opacity="0.788235" d="M2.40234 1.17188L2.36328 1.25" stroke="black"/>
<path opacity="0.788235" d="M2.20703 1.48438L2.22656 1.58203H2.1875L2.20703 1.48438Z" fill="black" stroke="black"/>
<path opacity="0.788235" d="M3.41797 1.48438L3.4375 1.58203H3.39844L3.41797 1.48438Z" fill="black" stroke="black"/>
<path opacity="0.788235" d="M6.26953 2.5L6.75781 2.51953L6.26953 2.53906V2.5Z" fill="black" stroke="black"/>
<path opacity="0.788235" d="M7.20703 2.5L7.5 2.51953L7.20703 2.53906V2.5Z" fill="black" stroke="black"/>
<path opacity="0.788235" d="M5.80078 2.53906L5.97656 2.55859L5.80078 2.57812V2.53906Z" fill="black" stroke="black"/>
<path opacity="0.788235" d="M7.71484 2.53906L7.8125 2.55859L7.71484 2.57812V2.53906Z" fill="black" stroke="black"/>
<path opacity="0.788235" d="M5.48828 2.57812L5.625 2.59766L5.48828 2.61719V2.57812Z" fill="black" stroke="black"/>
<path opacity="0.788235" d="M7.94922 2.57812L8.04688 2.59766L7.94922 2.61719V2.57812Z" fill="black" stroke="black"/>
<path opacity="0.788235" d="M5.21484 2.61719L5.35156 2.63672L5.21484 2.65625V2.61719Z" fill="black" stroke="black"/>
<path opacity="0.788235" d="M4.78516 2.69531L4.88281 2.71484L4.78516 2.73438V2.69531Z" fill="black" stroke="black"/>
<path opacity="0.788235" d="M4.43359 2.77344L4.53125 2.79297L4.43359 2.8125V2.77344Z" fill="black" stroke="black"/>
<path opacity="0.788235" d="M17.2852 3.47656L17.5 3.49609L17.2852 3.51562V3.47656Z" fill="black" stroke="black"/>
<path opacity="0.788235" d="M17.5977 3.51562L17.6367 3.59375" stroke="black"/>
<path opacity="0.788235" d="M17.7148 3.63281L17.7539 3.71094" stroke="black"/>
<path opacity="0.788235" d="M17.793 3.75L17.8125 3.84766H17.7734L17.793 3.75Z" fill="black" stroke="black"/>
<path opacity="0.788235" d="M15.7617 3.86719L15.8594 3.88672L15.7617 3.90625V3.86719Z" fill="black" stroke="black"/>
<path opacity="0.788235" d="M15.3711 3.94531L15.4688 3.96484L15.3711 3.98438V3.94531Z" fill="black" stroke="black"/>
<path opacity="0.788235" d="M15.1367 3.98438L15.2344 4.00391L15.1367 4.02344V3.98438Z" fill="black" stroke="black"/>
<path opacity="0.788235" d="M12.4023 4.02344L12.5 4.04297L12.4023 4.0625V4.02344Z" fill="black" stroke="black"/>
<path opacity="0.788235" d="M14.8633 4.02344L15 4.04297L14.8633 4.0625V4.02344Z" fill="black" stroke="black"/>
<path opacity="0.788235" d="M12.5977 4.0625L12.6953 4.08203L12.5977 4.10156V4.0625Z" fill="black" stroke="black"/>
<path opacity="0.788235" d="M14.5508 4.0625L14.6875 4.08203L14.5508 4.10156V4.0625Z" fill="black" stroke="black"/>
<path opacity="0.788235" d="M12.832 4.10156L12.9688 4.12109L12.832 4.14062V4.10156Z" fill="black" stroke="black"/>
<path opacity="0.788235" d="M14.1992 4.10156L14.375 4.12109L14.1992 4.14062V4.10156Z" fill="black" stroke="black"/>
<path opacity="0.788235" d="M13.1836 4.14062L13.5547 4.16016L13.1836 4.17969V4.14062Z" fill="black" stroke="black"/>
<path opacity="0.788235" d="M13.6914 4.14062L13.9453 4.16016L13.6914 4.17969V4.14062Z" fill="black" stroke="black"/>
<path opacity="0.788235" d="M6.07422 12.5L6.40625 12.5195L6.07422 12.5391V12.5Z" fill="black" stroke="black"/>
<path opacity="0.788235" d="M7.40234 12.5L7.61719 12.5195L7.40234 12.5391V12.5Z" fill="black" stroke="black"/>
<path opacity="0.788235" d="M5.72266 12.5391L5.85938 12.5586L5.72266 12.5781V12.5391Z" fill="black" stroke="black"/>
<path opacity="0.788235" d="M7.79297 12.5391L7.89062 12.5586L7.79297 12.5781V12.5391Z" fill="black" stroke="black"/>
<path opacity="0.788235" d="M5.41016 12.5781L5.54688 12.5977L5.41016 12.6172V12.5781Z" fill="black" stroke="black"/>
<path opacity="0.788235" d="M8.02734 12.5781L8.125 12.5977L8.02734 12.6172V12.5781Z" fill="black" stroke="black"/>
<path opacity="0.788235" d="M5.13672 12.6172L5.27344 12.6367L5.13672 12.6562V12.6172Z" fill="black" stroke="black"/>
<path opacity="0.788235" d="M8.22266 12.6172L8.32031 12.6367L8.22266 12.6562V12.6172Z" fill="black" stroke="black"/>
<path opacity="0.788235" d="M4.94141 12.6562L5.03906 12.6758L4.94141 12.6953V12.6562Z" fill="black" stroke="black"/>
<path opacity="0.788235" d="M4.55078 12.7344L4.64844 12.7539L4.55078 12.7734V12.7344Z" fill="black" stroke="black"/>
<path opacity="0.788235" d="M17.793 12.7734L17.8125 12.8711H17.7734L17.793 12.7734Z" fill="black" stroke="black"/>
<path opacity="0.788235" d="M17.6367 13.2031L17.4805 13.3984" stroke="black"/>
<path opacity="0.788235" d="M17.4023 13.3984L17.3633 13.4766" stroke="black"/>
<path opacity="0.788235" d="M15.7227 13.8672L15.8203 13.8867L15.7227 13.9062V13.8672Z" fill="black" stroke="black"/>
<path opacity="0.788235" d="M15.5273 13.9062L15.625 13.9258L15.5273 13.9453V13.9062Z" fill="black" stroke="black"/>
<path opacity="0.788235" d="M15.293 13.9453L15.3906 13.9648L15.293 13.9844V13.9453Z" fill="black" stroke="black"/>
<path opacity="0.788235" d="M15.0586 13.9844L15.1562 14.0039L15.0586 14.0234V13.9844Z" fill="black" stroke="black"/>
<path opacity="0.788235" d="M14.7852 14.0234L14.9219 14.043L14.7852 14.0625V14.0234Z" fill="black" stroke="black"/>
<path opacity="0.788235" d="M12.6758 14.0625L12.7734 14.082L12.6758 14.1016V14.0625Z" fill="black" stroke="black"/>
<path opacity="0.788235" d="M14.4727 14.0625L14.6094 14.082L14.4727 14.1016V14.0625Z" fill="black" stroke="black"/>
<path opacity="0.788235" d="M12.9102 14.1016L13.0859 14.1211L12.9102 14.1406V14.1016Z" fill="black" stroke="black"/>
<path opacity="0.788235" d="M14.082 14.1016L14.2578 14.1211L14.082 14.1406V14.1016Z" fill="black" stroke="black"/>
<path opacity="0.788235" d="M13.3398 14.1406L13.7891 14.1602L13.3398 14.1797V14.1406Z" fill="black" stroke="black"/>
<path opacity="0.788235" d="M2.20703 18.3984L2.22656 18.4961H2.1875L2.20703 18.3984Z" fill="black" stroke="black"/>
<path opacity="0.788235" d="M3.41797 18.3984L3.4375 18.4961H3.39844L3.41797 18.3984Z" fill="black" stroke="black"/>
<path opacity="0.788235" d="M3.14453 18.8281L3.10547 18.9062" stroke="black"/>
<path d="M2.67578 1.0544C3.0013 1.02836 3.21615 1.11299 3.32031 1.30831L3.4375 1.62081V3.08565L4.19922 2.85128L5.09766 2.65596L5.95703 2.57784L5.99609 2.53878L7.16797 2.49971L7.20703 2.53878H7.67578L7.71484 2.57784L8.14453 2.6169L8.76953 2.77315L11.4258 3.78878L12.4023 4.06221L12.832 4.14034H13.1445L13.1836 4.1794H13.9258L13.9648 4.14034H14.3555L14.3945 4.10128L15.4492 3.98409L16.6602 3.71065L17.2461 3.51534H17.5586L17.6953 3.59346L17.8125 3.88643V12.7536L17.6953 13.1442L17.4414 13.3982L17.3242 13.4763L16.543 13.7107L15.4883 13.945L14.7852 14.0232L14.7461 14.0622H14.4727L14.4336 14.1013H14.082L14.043 14.1403H13.1055L11.8945 13.906L11.0742 13.6325L9.23828 12.8903L8.30078 12.6169L7.63672 12.5388L7.59766 12.4997H6.07422L6.03516 12.5388L5.41016 12.5778L4.55078 12.7341L3.4375 13.0466V18.3786C3.40625 18.5817 3.32161 18.7315 3.18359 18.8278C3.08464 18.9372 2.91536 18.9763 2.67578 18.945L2.30469 18.6911L2.1875 18.3786V1.62081C2.21875 1.41768 2.30339 1.26794 2.44141 1.17159L2.67578 1.0544Z" fill="black" stroke="black"/>
</g>
<defs>
<clipPath id="clip0_153_156">
<rect width="20" height="20" fill="white"/>
</clipPath>
</defs>
</svg>
