<svg width="512" height="512" version="1.1" xmlns="http://www.w3.org/2000/svg" desc="Created with imagetracer.js version 1.2.6" ><path fill="rgb(0,0,0)" stroke="rgb(0,0,0)" stroke-width="1" opacity="0.9647058823529412" d="M 81.5 21 L 430.5 21 L 446.5 24 L 459.5 30 L 477 45.5 Q 484.1 53.9 488 65.5 L 491 81.5 L 491 430.5 L 488 446.5 L 482 459.5 L 465.5 478 L 446.5 488 L 430.5 491 L 81.5 491 L 65.5 488 L 52.5 482 L 34 465.5 L 24 446.5 L 21 430.5 L 21 81.5 L 24 65.5 L 30 52.5 Q 36.5 41.5 46.5 34 L 65.5 24 L 81.5 21 Z M 78 43 Q 67 45 60 51 Q 47 60 43 78 L 43 317 L 95 283 L 104 279 L 114 277 L 128 278 L 139 282 L 191 317 L 199 320 Q 208 321 213 318 L 313 245 Q 321 238 334 235 L 350 235 L 365 241 L 467 315 L 469 317 L 469 78 Q 467 67 461 60 Q 452 47 435 43 L 78 43 Z M 338 256 L 326 262 L 228 334 L 211 341 L 195 341 L 185 338 L 134 304 L 123 299 Q 110 297 105 302 L 43 344 L 43 435 Q 45 445 51 453 Q 60 465 78 469 L 435 469 Q 445 467 453 461 Q 465 452 469 435 L 469 343 L 355 260 L 346 256 L 338 256 Z " /><path fill="rgb(0,0,0)" stroke="rgb(0,0,0)" stroke-width="1" opacity="0.9647058823529412" d="M 146.5 149 L 152.5 149 L 165.5 152 Q 176.2 156.8 183 165.5 L 191 181.5 L 192 197.5 Q 188.6 216.6 175.5 226 L 162.5 233 L 146.5 235 L 136.5 233 L 127.5 229 L 114 216.5 Q 108.9 209.6 107 199.5 L 107 184.5 Q 110.9 165.9 124.5 157 L 133.5 152 L 146.5 149 Z M 145 171 L 138 174 Q 130 179 128 189 L 128 196 L 131 204 Q 135 211 145 213 Q 157 215 163 209 L 167 205 L 171 194 Q 171 185 167 180 L 158 172 Q 153 170 145 171 Z " /><path fill="rgb(0,0,0)" stroke="rgb(0,0,0)" stroke-width="1" opacity="0" d="M 0 0 L 512 0 L 512 512 L 0 512 L 0 0 Z M 82 21 L 66 24 L 47 34 Q 37 42 30 53 L 24 66 L 21 82 L 21 431 L 24 447 L 34 466 L 53 482 L 66 488 L 82 491 L 431 491 L 447 488 L 466 478 L 482 460 L 488 447 L 491 431 L 491 82 L 488 66 Q 484 54 477 46 L 460 30 L 447 24 L 431 21 L 82 21 Z " /><path fill="rgb(0,0,0)" stroke="rgb(0,0,0)" stroke-width="1" opacity="0" d="M 77.5 43 L 434.5 43 Q 451.9 47.1 461 59.5 Q 466.7 66.8 469 77.5 L 469 316.5 L 466.5 315 L 364.5 241 L 349.5 235 L 333.5 235 Q 320.7 237.7 312.5 245 L 212.5 318 Q 207.5 321 198.5 320 L 190.5 317 L 138.5 282 L 127.5 278 L 113.5 277 L 103.5 279 L 94.5 283 L 43 317 L 43 77.5 Q 47.1 60.1 59.5 51 Q 66.8 45.3 77.5 43 Z M 147 149 L 134 152 L 125 157 Q 111 166 107 185 L 107 200 Q 109 210 114 217 L 128 229 L 137 233 L 147 235 L 163 233 L 176 226 Q 189 217 192 198 L 191 182 L 183 166 Q 176 157 166 152 L 153 149 L 147 149 Z " /><path fill="rgb(0,0,0)" stroke="rgb(0,0,0)" stroke-width="1" opacity="0" d="M 144.5 171 Q 152.7 169.8 157.5 172 L 167 179.5 Q 171 184.5 171 193.5 L 167 204.5 L 162.5 209 Q 157.2 214.7 144.5 213 Q 135.4 210.5 131 203.5 L 128 195.5 L 128 188.5 Q 130 178.5 137.5 174 L 144.5 171 Z " /><path fill="rgb(0,0,0)" stroke="rgb(0,0,0)" stroke-width="1" opacity="0" d="M 337.5 256 L 345.5 256 L 354.5 260 L 469 343 L 469 434.5 Q 464.9 451.9 452.5 461 Q 445.2 466.7 434.5 469 L 77.5 469 Q 60.1 464.9 51 452.5 Q 45.3 445.2 43 434.5 L 43 343.5 L 104.5 302 Q 110.4 297.4 122.5 299 L 133.5 304 L 184.5 338 L 194.5 341 L 210.5 341 L 227.5 334 L 325.5 262 L 337.5 256 Z " /></svg>