<svg width="512" height="512" version="1.1" xmlns="http://www.w3.org/2000/svg" desc="Created with imagetracer.js version 1.2.6" ><path fill="rgb(0,0,0)" stroke="rgb(0,0,0)" stroke-width="1" opacity="0.792156862745098" d="M 119.5 0 L 124 0.5 L 119.5 1 L 119.5 0 Z " /><path fill="rgb(0,0,0)" stroke="rgb(0,0,0)" stroke-width="1" opacity="0.792156862745098" d="M 128.5 0 L 134 0.5 L 128.5 1 L 128.5 0 Z " /><path fill="rgb(0,0,0)" stroke="rgb(0,0,0)" stroke-width="1" opacity="0.792156862745098" d="M 379.5 0 L 385 0.5 L 379.5 1 L 379.5 0 Z " /><path fill="rgb(0,0,0)" stroke="rgb(0,0,0)" stroke-width="1" opacity="0.792156862745098" d="M 388.5 0 L 394 0.5 L 388.5 1 L 388.5 0 Z " /><path fill="rgb(0,0,0)" stroke="rgb(0,0,0)" stroke-width="1" opacity="0.792156862745098" d="M 139.5 1 L 142 1.5 L 139.5 2 L 139.5 1 Z " /><path fill="rgb(0,0,0)" stroke="rgb(0,0,0)" stroke-width="1" opacity="0.792156862745098" d="M 89.5 11 L 82.5 19 L 89.5 11 Z " /><path fill="rgb(0,0,0)" stroke="rgb(0,0,0)" stroke-width="1" opacity="0.792156862745098" d="M 80.5 21 L 79.5 23 L 80.5 21 Z " /><path fill="rgb(0,0,0)" stroke="rgb(0,0,0)" stroke-width="1" opacity="0.792156862745098" d="M 198.5 23 L 199.5 25 L 198.5 23 Z " /><path fill="rgb(0,0,0)" stroke="rgb(0,0,0)" stroke-width="1" opacity="0.792156862745098" d="M 78.5 24 L 77.5 26 L 78.5 24 Z " /><path fill="rgb(0,0,0)" stroke="rgb(0,0,0)" stroke-width="1" opacity="0.792156862745098" d="M 307.5 27 L 306.5 29 L 307.5 27 Z " /><path fill="rgb(0,0,0)" stroke="rgb(0,0,0)" stroke-width="1" opacity="0.792156862745098" d="M 211.5 31 L 212.5 33 L 211.5 31 Z " /><path fill="rgb(0,0,0)" stroke="rgb(0,0,0)" stroke-width="1" opacity="0.792156862745098" d="M 215.5 34 L 216.5 36 L 215.5 34 Z " /><path fill="rgb(0,0,0)" stroke="rgb(0,0,0)" stroke-width="1" opacity="0.792156862745098" d="M 295.5 35 L 294.5 37 L 295.5 35 Z " /><path fill="rgb(0,0,0)" stroke="rgb(0,0,0)" stroke-width="1" opacity="0.792156862745098" d="M 120.5 38 L 124 38.5 L 120.5 39 L 120.5 38 Z " /><path fill="rgb(0,0,0)" stroke="rgb(0,0,0)" stroke-width="1" opacity="0.792156862745098" d="M 128.5 38 L 133 38.5 L 128.5 39 L 128.5 38 Z " /><path fill="rgb(0,0,0)" stroke="rgb(0,0,0)" stroke-width="1" opacity="0.792156862745098" d="M 291.5 38 L 290.5 40 L 291.5 38 Z " /><path fill="rgb(0,0,0)" stroke="rgb(0,0,0)" stroke-width="1" opacity="0.792156862745098" d="M 380.5 38 L 385 38.5 L 380.5 39 L 380.5 38 Z " /><path fill="rgb(0,0,0)" stroke="rgb(0,0,0)" stroke-width="1" opacity="0.792156862745098" d="M 388.5 38 L 392 38.5 L 388.5 39 L 388.5 38 Z " /><path fill="rgb(0,0,0)" stroke="rgb(0,0,0)" stroke-width="1" opacity="0.792156862745098" d="M 222.5 39 L 224.5 42 L 222.5 39 Z " /><path fill="rgb(0,0,0)" stroke="rgb(0,0,0)" stroke-width="1" opacity="0.792156862745098" d="M 373.5 39 L 376 39.5 L 373.5 40 L 373.5 39 Z " /><path fill="rgb(0,0,0)" stroke="rgb(0,0,0)" stroke-width="1" opacity="0.792156862745098" d="M 398.5 40 L 401.5 44 L 398.5 40 Z " /><path fill="rgb(0,0,0)" stroke="rgb(0,0,0)" stroke-width="1" opacity="0.792156862745098" d="M 286.5 42 L 284.5 45 L 286.5 42 Z " /><path fill="rgb(0,0,0)" stroke="rgb(0,0,0)" stroke-width="1" opacity="0.792156862745098" d="M 228.5 44 L 231.5 48 L 228.5 44 Z " /><path fill="rgb(0,0,0)" stroke="rgb(0,0,0)" stroke-width="1" opacity="0.792156862745098" d="M 69.5 50 L 70 52.5 L 69 52.5 L 69.5 50 Z " /><path fill="rgb(0,0,0)" stroke="rgb(0,0,0)" stroke-width="1" opacity="0.792156862745098" d="M 234.5 50 L 239.5 56 L 234.5 50 Z " /><path fill="rgb(0,0,0)" stroke="rgb(0,0,0)" stroke-width="1" opacity="0.792156862745098" d="M 107.5 53 L 108 55.5 L 107 55.5 L 107.5 53 Z " /><path fill="rgb(0,0,0)" stroke="rgb(0,0,0)" stroke-width="1" opacity="0.792156862745098" d="M 443.5 54 L 444 63.5 L 443 63.5 L 443.5 54 Z " /><path fill="rgb(0,0,0)" stroke="rgb(0,0,0)" stroke-width="1" opacity="0.792156862745098" d="M 405.5 56 L 406 61.5 L 405 61.5 L 405.5 56 Z " /><path fill="rgb(0,0,0)" stroke="rgb(0,0,0)" stroke-width="1" opacity="0.792156862745098" d="M 270.5 59 L 269.5 61 L 270.5 59 Z " /><path fill="rgb(0,0,0)" stroke="rgb(0,0,0)" stroke-width="1" opacity="0.792156862745098" d="M 324.5 61 L 323.5 63 L 324.5 61 Z " /><path fill="rgb(0,0,0)" stroke="rgb(0,0,0)" stroke-width="1" opacity="0.792156862745098" d="M 189.5 62 L 190.5 64 L 189.5 62 Z " /><path fill="rgb(0,0,0)" stroke="rgb(0,0,0)" stroke-width="1" opacity="0.792156862745098" d="M 69.5 65 L 70 67.5 L 69 67.5 L 69.5 65 Z " /><path fill="rgb(0,0,0)" stroke="rgb(0,0,0)" stroke-width="1" opacity="0.792156862745098" d="M 193.5 65 L 194.5 67 L 193.5 65 Z " /><path fill="rgb(0,0,0)" stroke="rgb(0,0,0)" stroke-width="1" opacity="0.792156862745098" d="M 317.5 66 L 316.5 68 L 317.5 66 Z " /><path fill="rgb(0,0,0)" stroke="rgb(0,0,0)" stroke-width="1" opacity="0.792156862745098" d="M 403.5 66 L 400.5 70 L 403.5 66 Z " /><path fill="rgb(0,0,0)" stroke="rgb(0,0,0)" stroke-width="1" opacity="0.792156862745098" d="M 313.5 69 L 311.5 72 L 313.5 69 Z " /><path fill="rgb(0,0,0)" stroke="rgb(0,0,0)" stroke-width="1" opacity="0.792156862745098" d="M 174.5 77 L 177 77.5 L 174.5 78 L 174.5 77 Z " /><path fill="rgb(0,0,0)" stroke="rgb(0,0,0)" stroke-width="1" opacity="0.792156862745098" d="M 335.5 77 L 339 77.5 L 335.5 78 L 335.5 77 Z " /><path fill="rgb(0,0,0)" stroke="rgb(0,0,0)" stroke-width="1" opacity="0.792156862745098" d="M 375.5 77 L 378 77.5 L 375.5 78 L 375.5 77 Z " /><path fill="rgb(0,0,0)" stroke="rgb(0,0,0)" stroke-width="1" opacity="0.792156862745098" d="M 142.5 78 L 151 78.5 L 142.5 79 L 142.5 78 Z " /><path fill="rgb(0,0,0)" stroke="rgb(0,0,0)" stroke-width="1" opacity="0.792156862745098" d="M 158.5 78 L 168 78.5 L 158.5 79 L 158.5 78 Z " /><path fill="rgb(0,0,0)" stroke="rgb(0,0,0)" stroke-width="1" opacity="0.792156862745098" d="M 247.5 78 L 248 80.5 L 247 80.5 L 247.5 78 Z " /><path fill="rgb(0,0,0)" stroke="rgb(0,0,0)" stroke-width="1" opacity="0.792156862745098" d="M 345.5 78 L 355 78.5 L 345.5 79 L 345.5 78 Z " /><path fill="rgb(0,0,0)" stroke="rgb(0,0,0)" stroke-width="1" opacity="0.792156862745098" d="M 361.5 78 L 370 78.5 L 361.5 79 L 361.5 78 Z " /><path fill="rgb(0,0,0)" stroke="rgb(0,0,0)" stroke-width="1" opacity="0.792156862745098" d="M 76.5 86 L 77.5 88 L 76.5 86 Z " /><path fill="rgb(0,0,0)" stroke="rgb(0,0,0)" stroke-width="1" opacity="0.792156862745098" d="M 79.5 90 L 80.5 92 L 79.5 90 Z " /><path fill="rgb(0,0,0)" stroke="rgb(0,0,0)" stroke-width="1" opacity="0.792156862745098" d="M 269.5 90 L 271.5 93 L 269.5 90 Z " /><path fill="rgb(0,0,0)" stroke="rgb(0,0,0)" stroke-width="1" opacity="0.792156862745098" d="M 431.5 92 L 426.5 98 L 431.5 92 Z " /><path fill="rgb(0,0,0)" stroke="rgb(0,0,0)" stroke-width="1" opacity="0.792156862745098" d="M 240.5 93 L 238.5 96 L 240.5 93 Z " /><path fill="rgb(0,0,0)" stroke="rgb(0,0,0)" stroke-width="1" opacity="0.792156862745098" d="M 274.5 95 L 276.5 98 L 274.5 95 Z " /><path fill="rgb(0,0,0)" stroke="rgb(0,0,0)" stroke-width="1" opacity="0.792156862745098" d="M 87.5 98 L 88.5 100 L 87.5 98 Z " /><path fill="rgb(0,0,0)" stroke="rgb(0,0,0)" stroke-width="1" opacity="0.792156862745098" d="M 125.5 114 L 128 114.5 L 125.5 115 L 125.5 114 Z " /><path fill="rgb(0,0,0)" stroke="rgb(0,0,0)" stroke-width="1" opacity="0.792156862745098" d="M 184.5 114 L 187 114.5 L 184.5 115 L 184.5 114 Z " /><path fill="rgb(0,0,0)" stroke="rgb(0,0,0)" stroke-width="1" opacity="0.792156862745098" d="M 384.5 114 L 387 114.5 L 384.5 115 L 384.5 114 Z " /><path fill="rgb(0,0,0)" stroke="rgb(0,0,0)" stroke-width="1" opacity="0.792156862745098" d="M 175.5 115 L 179 115.5 L 175.5 116 L 175.5 115 Z " /><path fill="rgb(0,0,0)" stroke="rgb(0,0,0)" stroke-width="1" opacity="0.792156862745098" d="M 334.5 115 L 337 115.5 L 334.5 116 L 334.5 115 Z " /><path fill="rgb(0,0,0)" stroke="rgb(0,0,0)" stroke-width="1" opacity="0.792156862745098" d="M 377.5 115 L 380 115.5 L 377.5 116 L 377.5 115 Z " /><path fill="rgb(0,0,0)" stroke="rgb(0,0,0)" stroke-width="1" opacity="0.792156862745098" d="M 143.5 116 L 152 116.5 L 143.5 117 L 143.5 116 Z " /><path fill="rgb(0,0,0)" stroke="rgb(0,0,0)" stroke-width="1" opacity="0.792156862745098" d="M 157.5 116 L 168 116.5 L 157.5 117 L 157.5 116 Z " /><path fill="rgb(0,0,0)" stroke="rgb(0,0,0)" stroke-width="1" opacity="0.792156862745098" d="M 344.5 116 L 355 116.5 L 344.5 117 L 344.5 116 Z " /><path fill="rgb(0,0,0)" stroke="rgb(0,0,0)" stroke-width="1" opacity="0.792156862745098" d="M 361.5 116 L 369 116.5 L 361.5 117 L 361.5 116 Z " /><path fill="rgb(0,0,0)" stroke="rgb(0,0,0)" stroke-width="1" opacity="0.792156862745098" d="M 232.5 136 L 234.5 139 L 232.5 136 Z " /><path fill="rgb(0,0,0)" stroke="rgb(0,0,0)" stroke-width="1" opacity="0.792156862745098" d="M 276.5 140 L 277 251.5 L 276 251.5 L 276.5 140 Z " /><path fill="rgb(0,0,0)" stroke="rgb(0,0,0)" stroke-width="1" opacity="0.792156862745098" d="M 235.5 141 L 236 251.5 L 235 251.5 L 235.5 141 Z " /><path fill="rgb(0,0,0)" stroke="rgb(0,0,0)" stroke-width="1" opacity="0.792156862745098" d="M 10.5 155 L 11 157.5 L 10 157.5 L 10.5 155 Z " /><path fill="rgb(0,0,0)" stroke="rgb(0,0,0)" stroke-width="1" opacity="0.792156862745098" d="M 501.5 155 L 502 157.5 L 501 157.5 L 501.5 155 Z " /><path fill="rgb(0,0,0)" stroke="rgb(0,0,0)" stroke-width="1" opacity="0.792156862745098" d="M 10.5 234 L 11 236.5 L 10 236.5 L 10.5 234 Z " /><path fill="rgb(0,0,0)" stroke="rgb(0,0,0)" stroke-width="1" opacity="0.792156862745098" d="M 501.5 234 L 502 236.5 L 501 236.5 L 501.5 234 Z " /><path fill="rgb(0,0,0)" stroke="rgb(0,0,0)" stroke-width="1" opacity="0.792156862745098" d="M 16.5 249 L 18.5 252 L 16.5 249 Z " /><path fill="rgb(0,0,0)" stroke="rgb(0,0,0)" stroke-width="1" opacity="0.792156862745098" d="M 495.5 249 L 493.5 252 L 495.5 249 Z " /><path fill="rgb(0,0,0)" stroke="rgb(0,0,0)" stroke-width="1" opacity="0.792156862745098" d="M 234.5 254 L 233.5 256 L 234.5 254 Z " /><path fill="rgb(0,0,0)" stroke="rgb(0,0,0)" stroke-width="1" opacity="0.792156862745098" d="M 59.5 284 L 229 284.5 L 59.5 285 L 59.5 284 Z " /><path fill="rgb(0,0,0)" stroke="rgb(0,0,0)" stroke-width="1" opacity="0.792156862745098" d="M 284.5 284 L 453 284.5 L 284.5 285 L 284.5 284 Z " /><path fill="rgb(0,0,0)" stroke="rgb(0,0,0)" stroke-width="1" opacity="0.792156862745098" d="M 46.5 289 L 42.5 294 L 46.5 289 Z " /><path fill="rgb(0,0,0)" stroke="rgb(0,0,0)" stroke-width="1" opacity="0.792156862745098" d="M 465.5 289 L 469.5 294 L 465.5 289 Z " /><path fill="rgb(0,0,0)" stroke="rgb(0,0,0)" stroke-width="1" opacity="0.792156862745098" d="M 235.5 291 L 236 506.5 L 235 506.5 L 235.5 291 Z " /><path fill="rgb(0,0,0)" stroke="rgb(0,0,0)" stroke-width="1" opacity="0.792156862745098" d="M 276.5 291 L 277 507.5 L 276 507.5 L 276.5 291 Z " /><path fill="rgb(0,0,0)" stroke="rgb(0,0,0)" stroke-width="1" opacity="0.792156862745098" d="M 37.5 305 L 38 491.5 L 37 491.5 L 37.5 305 Z " /><path fill="rgb(0,0,0)" stroke="rgb(0,0,0)" stroke-width="1" opacity="0.792156862745098" d="M 474.5 305 L 475 491.5 L 474 491.5 L 474.5 305 Z " /><path fill="rgb(0,0,0)" stroke="rgb(0,0,0)" stroke-width="1" opacity="0.792156862745098" d="M 41.5 501 L 42.5 503 L 41.5 501 Z " /><path fill="rgb(0,0,0)" stroke="rgb(0,0,0)" stroke-width="1" opacity="0.792156862745098" d="M 470.5 501 L 469.5 503 L 470.5 501 Z " /><path fill="rgb(0,0,0)" stroke="rgb(0,0,0)" stroke-width="1" opacity="0.792156862745098" d="M 46.5 506 L 47.5 508 L 46.5 506 Z " /><path fill="rgb(0,0,0)" stroke="rgb(0,0,0)" stroke-width="1" opacity="0.792156862745098" d="M 465.5 506 L 464.5 508 L 465.5 506 Z " /><path fill="rgb(0,0,0)" stroke="rgb(0,0,0)" stroke-width="1" opacity="0.792156862745098" d="M 234.5 509 L 233.5 511 L 234.5 509 Z " /><path fill="rgb(0,0,0)" stroke="rgb(0,0,0)" stroke-width="1" opacity="0.792156862745098" d="M 277.5 509 L 278.5 511 L 277.5 509 Z " /><path fill="rgb(0,0,0)" stroke="rgb(0,0,0)" stroke-width="1" opacity="0.792156862745098" d="M 57.5 511 L 60 511.5 L 57.5 512 L 57.5 511 Z " /><path fill="rgb(0,0,0)" stroke="rgb(0,0,0)" stroke-width="1" opacity="0.792156862745098" d="M 452.5 511 L 455 511.5 L 452.5 512 L 452.5 511 Z " /><path fill="rgb(0,0,0)" stroke="rgb(0,0,0)" stroke-width="1" opacity="1" d="M 124.5 0 L 145.5 2 L 157.5 5 L 178.5 13 Q 210 27.5 234 49.5 Q 245.7 58.8 248 77.5 Q 245.4 91.4 235.5 98 L 218.5 107 L 196.5 113 L 175.5 115 L 174.5 116 L 157.5 116 L 152.5 117 L 151.5 116 L 135.5 116 L 134.5 115 L 122.5 114 L 105.5 109 Q 90.7 103.3 81 92.5 Q 74.5 85 71 74.5 L 69 64.5 L 69 53.5 L 72 38.5 L 77 26.5 L 91.5 10 L 105.5 3 L 113.5 1 L 123.5 1 L 124.5 0 Z M 121 38 L 115 40 L 110 45 L 107 54 Q 105 62 108 66 Q 112 71 120 74 L 143 79 L 168 79 L 169 78 L 190 76 L 199 73 Q 203 74 201 70 L 175 53 L 156 44 L 139 39 L 121 38 Z " /><path fill="rgb(0,0,0)" stroke="rgb(0,0,0)" stroke-width="1" opacity="1" d="M 385.5 0 L 407.5 3 Q 422.3 8.2 431 19.5 Q 438.9 29.6 442 44.5 L 443 49.5 L 443 68.5 Q 438.4 89.4 423.5 100 L 409.5 108 L 394.5 113 L 377.5 115 L 376.5 116 L 355.5 117 L 354.5 116 L 328.5 115 L 303.5 110 L 281.5 101 L 272 93.5 L 265 80.5 L 265 71.5 Q 270.5 54.5 283.5 45 Q 306.8 25.3 336.5 12 L 362.5 3 L 373.5 1 L 384.5 1 L 385.5 0 Z M 381 38 L 366 41 L 348 48 Q 327 57 311 72 L 319 75 L 336 78 L 345 78 L 346 79 L 370 79 Q 371 76 378 78 L 391 75 L 401 70 Q 405 67 406 62 Q 406 51 402 44 L 397 39 L 381 38 Z " /><path fill="rgb(0,0,0)" stroke="rgb(0,0,0)" stroke-width="1" opacity="1" d="M 30.5 135 L 229.5 135 L 235 139.5 L 235 253.5 L 232.5 256 L 230.5 257 L 29.5 257 Q 19.3 254.3 14 246.5 L 10 233.5 L 10 158.5 L 13 147.5 L 20.5 139 L 30.5 135 Z " /><path fill="rgb(0,0,0)" stroke="rgb(0,0,0)" stroke-width="1" opacity="1" d="M 281.5 135 L 481.5 135 Q 491.9 137.1 497 144.5 L 500 149.5 L 502 158.5 L 502 233.5 L 498 246.5 L 491.5 253 L 482.5 257 L 282.5 257 L 277 253.5 L 277 138.5 L 279.5 136 L 281.5 135 Z " /><path fill="rgb(0,0,0)" stroke="rgb(0,0,0)" stroke-width="1" opacity="1" d="M 55.5 285 L 230.5 285 L 234 287.5 L 235 289.5 L 235 508.5 L 230.5 512 L 60.5 512 L 51.5 510 L 43 503.5 L 38 493.5 L 38 302.5 Q 40.8 292.8 48.5 288 L 55.5 285 Z " /><path fill="rgb(0,0,0)" stroke="rgb(0,0,0)" stroke-width="1" opacity="1" d="M 281.5 285 L 456.5 285 Q 466.3 287.8 471 295.5 L 474 302.5 L 474 493.5 Q 471.8 501.3 466.5 506 L 460.5 510 L 451.5 512 L 281.5 512 L 277 508.5 L 277 289.5 L 279.5 286 L 281.5 285 Z " /><path fill="rgb(0,0,0)" stroke="rgb(0,0,0)" stroke-width="1" opacity="0.27058823529411763" d="M 114.5 0 L 119 0.5 L 114.5 1 L 114.5 0 Z " /><path fill="rgb(0,0,0)" stroke="rgb(0,0,0)" stroke-width="1" opacity="0.27058823529411763" d="M 134.5 0 L 138 0.5 L 134.5 1 L 134.5 0 Z " /><path fill="rgb(0,0,0)" stroke="rgb(0,0,0)" stroke-width="1" opacity="0.27058823529411763" d="M 375.5 0 L 379 0.5 L 375.5 1 L 375.5 0 Z " /><path fill="rgb(0,0,0)" stroke="rgb(0,0,0)" stroke-width="1" opacity="0.27058823529411763" d="M 394.5 0 L 398 0.5 L 394.5 1 L 394.5 0 Z " /><path fill="rgb(0,0,0)" stroke="rgb(0,0,0)" stroke-width="1" opacity="0.27058823529411763" d="M 368.5 1 L 371 1.5 L 368.5 2 L 368.5 1 Z " /><path fill="rgb(0,0,0)" stroke="rgb(0,0,0)" stroke-width="1" opacity="0.27058823529411763" d="M 423.5 11 L 430.5 19 L 423.5 11 Z " /><path fill="rgb(0,0,0)" stroke="rgb(0,0,0)" stroke-width="1" opacity="0.27058823529411763" d="M 81.5 19 L 80.5 21 L 81.5 19 Z " /><path fill="rgb(0,0,0)" stroke="rgb(0,0,0)" stroke-width="1" opacity="0.27058823529411763" d="M 432.5 21 L 433.5 23 L 432.5 21 Z " /><path fill="rgb(0,0,0)" stroke="rgb(0,0,0)" stroke-width="1" opacity="0.27058823529411763" d="M 434.5 24 L 435.5 26 L 434.5 24 Z " /><path fill="rgb(0,0,0)" stroke="rgb(0,0,0)" stroke-width="1" opacity="0.27058823529411763" d="M 300.5 31 L 299.5 33 L 300.5 31 Z " /><path fill="rgb(0,0,0)" stroke="rgb(0,0,0)" stroke-width="1" opacity="0.27058823529411763" d="M 213.5 32 L 214.5 34 L 213.5 32 Z " /><path fill="rgb(0,0,0)" stroke="rgb(0,0,0)" stroke-width="1" opacity="0.27058823529411763" d="M 217.5 35 L 218.5 37 L 217.5 35 Z " /><path fill="rgb(0,0,0)" stroke="rgb(0,0,0)" stroke-width="1" opacity="0.27058823529411763" d="M 293.5 36 L 292.5 38 L 293.5 36 Z " /><path fill="rgb(0,0,0)" stroke="rgb(0,0,0)" stroke-width="1" opacity="0.27058823529411763" d="M 124.5 38 L 128 38.5 L 124.5 39 L 124.5 38 Z " /><path fill="rgb(0,0,0)" stroke="rgb(0,0,0)" stroke-width="1" opacity="0.27058823529411763" d="M 385.5 38 L 388 38.5 L 385.5 39 L 385.5 38 Z " /><path fill="rgb(0,0,0)" stroke="rgb(0,0,0)" stroke-width="1" opacity="0.27058823529411763" d="M 134.5 39 L 137 39.5 L 134.5 40 L 134.5 39 Z " /><path fill="rgb(0,0,0)" stroke="rgb(0,0,0)" stroke-width="1" opacity="0.27058823529411763" d="M 289.5 39 L 287.5 42 L 289.5 39 Z " /><path fill="rgb(0,0,0)" stroke="rgb(0,0,0)" stroke-width="1" opacity="0.27058823529411763" d="M 113.5 41 L 111.5 44 L 113.5 41 Z " /><path fill="rgb(0,0,0)" stroke="rgb(0,0,0)" stroke-width="1" opacity="0.27058823529411763" d="M 225.5 41 L 227.5 44 L 225.5 41 Z " /><path fill="rgb(0,0,0)" stroke="rgb(0,0,0)" stroke-width="1" opacity="0.27058823529411763" d="M 283.5 44 L 273.5 55 L 283.5 44 Z " /><path fill="rgb(0,0,0)" stroke="rgb(0,0,0)" stroke-width="1" opacity="0.27058823529411763" d="M 69.5 47 L 70 49.5 L 69 49.5 L 69.5 47 Z " /><path fill="rgb(0,0,0)" stroke="rgb(0,0,0)" stroke-width="1" opacity="0.27058823529411763" d="M 232.5 47 L 233.5 49 L 232.5 47 Z " /><path fill="rgb(0,0,0)" stroke="rgb(0,0,0)" stroke-width="1" opacity="0.27058823529411763" d="M 443.5 50 L 444 53.5 L 443 53.5 L 443.5 50 Z " /><path fill="rgb(0,0,0)" stroke="rgb(0,0,0)" stroke-width="1" opacity="0.27058823529411763" d="M 107.5 56 L 108 62.5 L 107 62.5 L 107.5 56 Z " /><path fill="rgb(0,0,0)" stroke="rgb(0,0,0)" stroke-width="1" opacity="0.27058823529411763" d="M 68.5 57 L 69 59.5 L 68 59.5 L 68.5 57 Z " /><path fill="rgb(0,0,0)" stroke="rgb(0,0,0)" stroke-width="1" opacity="0.27058823529411763" d="M 271.5 57 L 270.5 59 L 271.5 57 Z " /><path fill="rgb(0,0,0)" stroke="rgb(0,0,0)" stroke-width="1" opacity="0.27058823529411763" d="M 242.5 59 L 243.5 61 L 242.5 59 Z " /><path fill="rgb(0,0,0)" stroke="rgb(0,0,0)" stroke-width="1" opacity="0.27058823529411763" d="M 187.5 61 L 188.5 63 L 187.5 61 Z " /><path fill="rgb(0,0,0)" stroke="rgb(0,0,0)" stroke-width="1" opacity="0.27058823529411763" d="M 191.5 64 L 192.5 66 L 191.5 64 Z " /><path fill="rgb(0,0,0)" stroke="rgb(0,0,0)" stroke-width="1" opacity="0.27058823529411763" d="M 443.5 64 L 444 66.5 L 443 66.5 L 443.5 64 Z " /><path fill="rgb(0,0,0)" stroke="rgb(0,0,0)" stroke-width="1" opacity="0.27058823529411763" d="M 319.5 65 L 318.5 67 L 319.5 65 Z " /><path fill="rgb(0,0,0)" stroke="rgb(0,0,0)" stroke-width="1" opacity="0.27058823529411763" d="M 109.5 66 L 112.5 70 L 109.5 66 Z " /><path fill="rgb(0,0,0)" stroke="rgb(0,0,0)" stroke-width="1" opacity="0.27058823529411763" d="M 315.5 68 L 314.5 70 L 315.5 68 Z " /><path fill="rgb(0,0,0)" stroke="rgb(0,0,0)" stroke-width="1" opacity="0.27058823529411763" d="M 198.5 69 Q 203 71 199.5 73 L 198.5 69 Z " /><path fill="rgb(0,0,0)" stroke="rgb(0,0,0)" stroke-width="1" opacity="0.27058823529411763" d="M 264.5 72 L 265 79.5 L 264 79.5 L 264.5 72 Z " /><path fill="rgb(0,0,0)" stroke="rgb(0,0,0)" stroke-width="1" opacity="0.27058823529411763" d="M 185.5 75 L 188 75.5 L 185.5 76 L 185.5 75 Z " /><path fill="rgb(0,0,0)" stroke="rgb(0,0,0)" stroke-width="1" opacity="0.27058823529411763" d="M 179.5 76 L 182 76.5 L 179.5 77 L 179.5 76 Z " /><path fill="rgb(0,0,0)" stroke="rgb(0,0,0)" stroke-width="1" opacity="0.27058823529411763" d="M 137.5 77 L 140 77.5 L 137.5 78 L 137.5 77 Z " /><path fill="rgb(0,0,0)" stroke="rgb(0,0,0)" stroke-width="1" opacity="0.27058823529411763" d="M 170.5 77 L 174 77.5 L 170.5 78 L 170.5 77 Z " /><path fill="rgb(0,0,0)" stroke="rgb(0,0,0)" stroke-width="1" opacity="0.27058823529411763" d="M 339.5 77 L 342 77.5 L 339.5 78 L 339.5 77 Z " /><path fill="rgb(0,0,0)" stroke="rgb(0,0,0)" stroke-width="1" opacity="0.27058823529411763" d="M 372.5 77 L 375 77.5 L 372.5 78 L 372.5 77 Z " /><path fill="rgb(0,0,0)" stroke="rgb(0,0,0)" stroke-width="1" opacity="0.27058823529411763" d="M 151.5 78 L 158 78.5 L 151.5 79 L 151.5 78 Z " /><path fill="rgb(0,0,0)" stroke="rgb(0,0,0)" stroke-width="1" opacity="0.27058823529411763" d="M 355.5 78 L 361 78.5 L 355.5 79 L 355.5 78 Z " /><path fill="rgb(0,0,0)" stroke="rgb(0,0,0)" stroke-width="1" opacity="0.27058823529411763" d="M 77.5 88 L 78.5 90 L 77.5 88 Z " /><path fill="rgb(0,0,0)" stroke="rgb(0,0,0)" stroke-width="1" opacity="0.27058823529411763" d="M 243.5 90 L 241.5 93 L 243.5 90 Z " /><path fill="rgb(0,0,0)" stroke="rgb(0,0,0)" stroke-width="1" opacity="0.27058823529411763" d="M 433.5 90 L 432.5 92 L 433.5 90 Z " /><path fill="rgb(0,0,0)" stroke="rgb(0,0,0)" stroke-width="1" opacity="0.27058823529411763" d="M 80.5 92 L 85.5 98 L 80.5 92 Z " /><path fill="rgb(0,0,0)" stroke="rgb(0,0,0)" stroke-width="1" opacity="0.27058823529411763" d="M 271.5 93 L 273.5 96 L 271.5 93 Z " /><path fill="rgb(0,0,0)" stroke="rgb(0,0,0)" stroke-width="1" opacity="0.27058823529411763" d="M 237.5 96 L 235.5 99 L 237.5 96 Z " /><path fill="rgb(0,0,0)" stroke="rgb(0,0,0)" stroke-width="1" opacity="0.27058823529411763" d="M 277.5 98 L 278.5 100 L 277.5 98 Z " /><path fill="rgb(0,0,0)" stroke="rgb(0,0,0)" stroke-width="1" opacity="0.27058823529411763" d="M 425.5 98 L 424.5 100 L 425.5 98 Z " /><path fill="rgb(0,0,0)" stroke="rgb(0,0,0)" stroke-width="1" opacity="0.27058823529411763" d="M 233.5 99 L 232.5 101 L 233.5 99 Z " /><path fill="rgb(0,0,0)" stroke="rgb(0,0,0)" stroke-width="1" opacity="0.27058823529411763" d="M 89.5 100 L 90.5 102 L 89.5 100 Z " /><path fill="rgb(0,0,0)" stroke="rgb(0,0,0)" stroke-width="1" opacity="0.27058823529411763" d="M 280.5 100 L 281.5 102 L 280.5 100 Z " /><path fill="rgb(0,0,0)" stroke="rgb(0,0,0)" stroke-width="1" opacity="0.27058823529411763" d="M 421.5 101 L 420.5 103 L 421.5 101 Z " /><path fill="rgb(0,0,0)" stroke="rgb(0,0,0)" stroke-width="1" opacity="0.27058823529411763" d="M 317.5 113 L 320 113.5 L 317.5 114 L 317.5 113 Z " /><path fill="rgb(0,0,0)" stroke="rgb(0,0,0)" stroke-width="1" opacity="0.27058823529411763" d="M 323.5 114 L 326 114.5 L 323.5 115 L 323.5 114 Z " /><path fill="rgb(0,0,0)" stroke="rgb(0,0,0)" stroke-width="1" opacity="0.27058823529411763" d="M 130.5 115 L 133 115.5 L 130.5 116 L 130.5 115 Z " /><path fill="rgb(0,0,0)" stroke="rgb(0,0,0)" stroke-width="1" opacity="0.27058823529411763" d="M 179.5 115 L 183 115.5 L 179.5 116 L 179.5 115 Z " /><path fill="rgb(0,0,0)" stroke="rgb(0,0,0)" stroke-width="1" opacity="0.27058823529411763" d="M 330.5 115 L 334 115.5 L 330.5 116 L 330.5 115 Z " /><path fill="rgb(0,0,0)" stroke="rgb(0,0,0)" stroke-width="1" opacity="0.27058823529411763" d="M 380.5 115 L 383 115.5 L 380.5 116 L 380.5 115 Z " /><path fill="rgb(0,0,0)" stroke="rgb(0,0,0)" stroke-width="1" opacity="0.27058823529411763" d="M 137.5 116 L 143 116.5 L 137.5 117 L 137.5 116 Z " /><path fill="rgb(0,0,0)" stroke="rgb(0,0,0)" stroke-width="1" opacity="0.27058823529411763" d="M 168.5 116 L 172 116.5 L 168.5 117 L 168.5 116 Z " /><path fill="rgb(0,0,0)" stroke="rgb(0,0,0)" stroke-width="1" opacity="0.27058823529411763" d="M 340.5 116 L 344 116.5 L 340.5 117 L 340.5 116 Z " /><path fill="rgb(0,0,0)" stroke="rgb(0,0,0)" stroke-width="1" opacity="0.27058823529411763" d="M 369.5 116 L 375 116.5 L 369.5 117 L 369.5 116 Z " /><path fill="rgb(0,0,0)" stroke="rgb(0,0,0)" stroke-width="1" opacity="0.27058823529411763" d="M 33.5 134 L 229 134.5 L 33.5 135 L 33.5 134 Z " /><path fill="rgb(0,0,0)" stroke="rgb(0,0,0)" stroke-width="1" opacity="0.27058823529411763" d="M 282.5 134 L 479 134.5 L 282.5 135 L 282.5 134 Z " /><path fill="rgb(0,0,0)" stroke="rgb(0,0,0)" stroke-width="1" opacity="0.27058823529411763" d="M 279.5 135 L 277.5 138 L 279.5 135 Z " /><path fill="rgb(0,0,0)" stroke="rgb(0,0,0)" stroke-width="1" opacity="0.27058823529411763" d="M 19.5 139 L 18.5 141 L 19.5 139 Z " /><path fill="rgb(0,0,0)" stroke="rgb(0,0,0)" stroke-width="1" opacity="0.27058823529411763" d="M 492.5 139 L 493.5 141 L 492.5 139 Z " /><path fill="rgb(0,0,0)" stroke="rgb(0,0,0)" stroke-width="1" opacity="0.27058823529411763" d="M 16.5 142 L 14.5 145 L 16.5 142 Z " /><path fill="rgb(0,0,0)" stroke="rgb(0,0,0)" stroke-width="1" opacity="0.27058823529411763" d="M 495.5 142 L 497.5 145 L 495.5 142 Z " /><path fill="rgb(0,0,0)" stroke="rgb(0,0,0)" stroke-width="1" opacity="0.27058823529411763" d="M 14.5 247 L 15.5 249 L 14.5 247 Z " /><path fill="rgb(0,0,0)" stroke="rgb(0,0,0)" stroke-width="1" opacity="0.27058823529411763" d="M 497.5 247 L 496.5 249 L 497.5 247 Z " /><path fill="rgb(0,0,0)" stroke="rgb(0,0,0)" stroke-width="1" opacity="0.27058823529411763" d="M 19.5 252 L 20.5 254 L 19.5 252 Z " /><path fill="rgb(0,0,0)" stroke="rgb(0,0,0)" stroke-width="1" opacity="0.27058823529411763" d="M 492.5 252 L 491.5 254 L 492.5 252 Z " /><path fill="rgb(0,0,0)" stroke="rgb(0,0,0)" stroke-width="1" opacity="0.27058823529411763" d="M 277.5 254 L 279.5 257 L 277.5 254 Z " /><path fill="rgb(0,0,0)" stroke="rgb(0,0,0)" stroke-width="1" opacity="0.27058823529411763" d="M 31.5 257 L 231 257.5 L 31.5 258 L 31.5 257 Z " /><path fill="rgb(0,0,0)" stroke="rgb(0,0,0)" stroke-width="1" opacity="0.27058823529411763" d="M 282.5 257 L 481 257.5 L 282.5 258 L 282.5 257 Z " /><path fill="rgb(0,0,0)" stroke="rgb(0,0,0)" stroke-width="1" opacity="0.27058823529411763" d="M 56.5 284 L 59 284.5 L 56.5 285 L 56.5 284 Z " /><path fill="rgb(0,0,0)" stroke="rgb(0,0,0)" stroke-width="1" opacity="0.27058823529411763" d="M 281.5 284 L 284 284.5 L 281.5 285 L 281.5 284 Z " /><path fill="rgb(0,0,0)" stroke="rgb(0,0,0)" stroke-width="1" opacity="0.27058823529411763" d="M 453.5 284 L 456 284.5 L 453.5 285 L 453.5 284 Z " /><path fill="rgb(0,0,0)" stroke="rgb(0,0,0)" stroke-width="1" opacity="0.27058823529411763" d="M 232.5 285 L 234.5 288 L 232.5 285 Z " /><path fill="rgb(0,0,0)" stroke="rgb(0,0,0)" stroke-width="1" opacity="0.27058823529411763" d="M 279.5 285 L 277.5 288 L 279.5 285 Z " /><path fill="rgb(0,0,0)" stroke="rgb(0,0,0)" stroke-width="1" opacity="0.27058823529411763" d="M 41.5 294 L 40.5 296 L 41.5 294 Z " /><path fill="rgb(0,0,0)" stroke="rgb(0,0,0)" stroke-width="1" opacity="0.27058823529411763" d="M 470.5 294 L 471.5 296 L 470.5 294 Z " /><path fill="rgb(0,0,0)" stroke="rgb(0,0,0)" stroke-width="1" opacity="0.27058823529411763" d="M 43.5 504 L 45.5 507 L 43.5 504 Z " /><path fill="rgb(0,0,0)" stroke="rgb(0,0,0)" stroke-width="1" opacity="0.27058823529411763" d="M 468.5 504 L 466.5 507 L 468.5 504 Z " /><path fill="rgb(0,0,0)" stroke="rgb(0,0,0)" stroke-width="1" opacity="0" d="M 0 0 L 114 0.5 Q 90.8 4.3 80 20.5 Q 73.8 28.3 71 39.5 L 68 59.5 L 69 60.5 L 69 69.5 L 72 79.5 Q 76.9 90.6 85.5 98 L 103.5 109 L 123.5 115 L 129.5 115 L 137.5 117 L 171.5 117 L 172.5 116 L 182.5 116 L 183.5 115 L 194.5 114 L 217.5 108 L 232.5 101 L 244 90.5 Q 249.8 83.8 248 69.5 L 244 60.5 L 232.5 47 Q 207.9 25.1 175.5 11 L 153.5 3 L 138 0.5 L 374.5 0 L 374.5 1 L 368.5 1 L 349.5 6 L 318.5 20 L 289.5 39 L 273 54.5 L 266 65.5 L 264 72.5 L 264 79.5 Q 266.5 90 273.5 96 L 289.5 106 L 317.5 114 L 329.5 115 L 330.5 116 L 339.5 116 L 340.5 117 L 374.5 117 L 397.5 113 L 415.5 106 Q 426.5 100 434 90.5 Q 445.8 77.3 444 50.5 L 441 37.5 L 436 25.5 L 423.5 11 Q 413.7 2.8 398 0.5 L 512 0 L 512 511.5 L 511.5 512 L 457.5 512 L 457.5 511 Q 465.1 509.6 469 504.5 L 475 493.5 L 475 303.5 Q 472.7 292.8 464.5 288 L 455.5 284 L 281.5 284 L 277 287.5 L 276 289.5 L 276 508.5 L 278.5 512 L 233 511.5 L 236 508.5 L 236 290.5 L 232.5 285 L 230.5 284 L 56.5 284 Q 45.6 287.1 40 295.5 L 37 303.5 L 37 493.5 Q 39.5 502 45.5 507 L 55 511.5 L 0 512 L 0 0 Z M 34 134 L 25 136 L 20 139 Q 12 144 10 154 L 10 239 L 14 248 Q 19 256 32 258 L 231 258 L 233 257 L 236 253 L 236 141 L 235 139 L 229 134 L 34 134 Z M 283 134 L 280 135 L 276 140 L 276 253 L 277 255 L 283 258 L 481 258 L 492 254 Q 499 249 502 239 L 502 154 L 498 145 L 490 137 L 479 134 L 283 134 Z " /><path fill="rgb(0,0,0)" stroke="rgb(0,0,0)" stroke-width="1" opacity="0" d="M 118.5 39 L 133.5 39 L 153.5 44 Q 180.4 54.1 200 71.5 L 190.5 75 L 185.5 75 L 178.5 77 L 170.5 77 L 169.5 78 L 140.5 78 L 121.5 74 Q 112.8 71.2 108 64.5 L 108 52.5 Q 109.5 44 115.5 40 L 118.5 39 Z " /><path fill="rgb(0,0,0)" stroke="rgb(0,0,0)" stroke-width="1" opacity="0" d="M 378.5 39 L 393.5 39 L 401 43.5 L 405 54.5 L 405 62.5 L 399.5 70 L 379.5 77 Q 373.3 75.2 371.5 78 L 342.5 78 L 341.5 77 L 333.5 77 L 317.5 74 L 312 71.5 Q 329.4 56.9 351.5 47 L 368.5 41 L 378.5 39 Z " /></svg>