<svg width="512" height="512" version="1.1" xmlns="http://www.w3.org/2000/svg" desc="Created with imagetracer.js version 1.2.6" ><path fill="rgb(252,189,59)" stroke="rgb(252,189,59)" stroke-width="1" opacity="0.9921568627450981" d="M 148.5 0 L 167.5 0 L 183.5 5 L 197.5 14 L 221 37.5 Q 235.4 52.6 239.5 78 L 246.5 75 L 259.5 74 L 273 78 L 275 65.5 L 283 48.5 Q 296.1 28.6 314.5 14 Q 323.8 6.3 336.5 2 L 344.5 0 L 363.5 0 L 378 8 L 385 20.5 L 387 31.5 L 387 43.5 L 382 64.5 L 370 87.5 L 369 102.5 L 377 122.5 L 378 140 L 341 140.5 L 371 170.5 L 371 175.5 L 367.5 179 L 355.5 180 L 347 186.5 L 344 192.5 L 344 198.5 L 340.5 203 L 337.5 204 L 334.5 203 L 305.5 174 L 305 255.5 L 305 257.5 L 305 502.5 L 303 507.5 L 299.5 511 L 297.5 512 L 215.5 512 L 209 507.5 L 207 502.5 L 207 257.5 L 206 256.5 L 207 255.5 L 207 174.5 L 177.5 203 L 173.5 204 L 169 200.5 L 168 192.5 Q 165.8 185.8 160.5 182 Q 155.3 177.7 144.5 179 L 141 175.5 L 141 170.5 L 171 140.5 L 134 140 L 134 127.5 Q 136.3 115.3 142 106.5 L 143 91.5 L 141 84.5 L 132 69.5 L 127 55.5 L 126 44.5 L 125 43.5 L 125 31.5 L 128 17.5 L 134 8 L 148.5 0 Z " /><path fill="rgb(0,0,0)" stroke="rgb(0,0,0)" stroke-width="1" opacity="0" d="M 0 0 L 148 0.5 L 139.5 4 L 134 8 L 127 20.5 L 125 31.5 L 125 43.5 L 130 64.5 L 142 87.5 L 143 102.5 L 135 122.5 L 134 139 L 32.5 139 L 19.5 142 L 7 151.5 Q 2 156.5 0.5 165 L 0 0 Z " /><path fill="rgb(0,0,0)" stroke="rgb(0,0,0)" stroke-width="1" opacity="0" d="M 168.5 0 L 344 0.5 Q 328.6 3 318.5 11 L 291 37.5 Q 276.6 52.6 272.5 78 L 265.5 75 L 253.5 74 Q 252 76.5 246.5 75 L 239.5 78 L 237 65.5 L 229 48.5 Q 215.9 28.6 197.5 14 L 183.5 5 L 168.5 1 L 168.5 0 Z " /><path fill="rgb(0,0,0)" stroke="rgb(0,0,0)" stroke-width="1" opacity="0" d="M 364.5 0 L 512 0 L 512 164.5 L 511 164.5 Q 508.9 152.6 500.5 147 L 492.5 142 L 479.5 139 L 378 139 L 377 122.5 L 369 102.5 L 369 91.5 L 371 84.5 L 380 69.5 L 385 55.5 L 386 44.5 L 387 43.5 L 387 31.5 L 384 17.5 L 378 8 L 372.5 4 L 364.5 1 L 364.5 0 Z " /><path fill="rgb(0,0,0)" stroke="rgb(0,0,0)" stroke-width="1" opacity="0" d="M 0.5 231 Q 2.9 242.1 10.5 248 L 23 255.5 L 23 485.5 Q 25 497.5 33.5 503 L 42.5 507 L 208.5 507 L 214 511.5 L 0 512 L 0.5 231 Z " /><path fill="rgb(0,0,0)" stroke="rgb(0,0,0)" stroke-width="1" opacity="0" d="M 511.5 231 L 512 512 L 298 511.5 L 303.5 507 L 469.5 507 Q 479.8 504.3 485 496.5 L 489 485.5 L 489 255.5 L 490.5 254 L 494.5 253 L 504 245.5 Q 509.6 240.1 511.5 231 Z " /><path fill="rgb(166,119,191)" stroke="rgb(166,119,191)" stroke-width="1" opacity="0.996078431372549" d="M 346 140 L 352 140.5 Q 349.3 142.8 349.5 148 L 345 142.5 L 346 140 Z " /><path fill="rgb(166,119,191)" stroke="rgb(166,119,191)" stroke-width="1" opacity="0.996078431372549" d="M 0 209 L 173.5 209 L 186 221.5 L 0 222 L 0 209 Z " /><path fill="rgb(166,119,191)" stroke="rgb(166,119,191)" stroke-width="1" opacity="0.996078431372549" d="M 411.5 209 L 511.5 209 L 512 209.5 L 512 222 L 423.5 222 L 411.5 209 Z " /><path fill="rgb(166,119,191)" stroke="rgb(166,119,191)" stroke-width="1" opacity="0.996078431372549" d="M 206.5 257 L 207 267.5 L 206 267.5 L 206.5 257 Z " /><path fill="rgb(166,119,191)" stroke="rgb(166,119,191)" stroke-width="1" opacity="0.996078431372549" d="M 27.5 258 L 28.5 260 L 27.5 258 Z " /><path fill="rgb(166,119,191)" stroke="rgb(166,119,191)" stroke-width="1" opacity="0.996078431372549" d="M 48.5 280 L 52.5 285 L 48.5 280 Z " /><path fill="rgb(166,119,191)" stroke="rgb(166,119,191)" stroke-width="1" opacity="0.996078431372549" d="M 75.5 308 L 81.5 315 L 75.5 308 Z " /><path fill="rgb(166,119,191)" stroke="rgb(166,119,191)" stroke-width="1" opacity="0.996078431372549" d="M 102.5 336 L 114.5 337 L 115.5 338 L 127.5 338 L 140.5 341 L 149 341.5 L 148.5 343 L 161.5 343 L 162.5 344 L 177 345.5 L 171 346.5 L 191 347.5 L 190.5 349 L 206 351 L 205.5 378 L 202 376.5 L 202.5 375 L 190 373.5 L 193 372.5 L 172 369.5 L 172.5 368 L 160 366.5 L 162 365.5 L 146 364.5 L 151 363.5 L 135 362.5 L 137 361.5 L 135.5 360 L 124.5 359 L 102.5 336 Z " /><path fill="rgb(166,119,191)" stroke="rgb(166,119,191)" stroke-width="1" opacity="0.996078431372549" d="M 369.5 401 L 372 401.5 L 369.5 402 L 369.5 401 Z " /><path fill="rgb(166,119,191)" stroke="rgb(166,119,191)" stroke-width="1" opacity="0.996078431372549" d="M 369.5 405 L 375 407.5 L 369.5 411 Q 367.3 410.3 368 406.5 L 369.5 405 Z " /><path fill="rgb(166,119,191)" stroke="rgb(166,119,191)" stroke-width="1" opacity="0.996078431372549" d="M 205.5 448 L 206 459 L 199.5 460 L 180.5 460 L 179.5 461 L 169.5 461 L 168.5 462 L 140.5 462 L 139.5 463 L 120.5 463 L 119.5 464 L 100.5 464 L 99.5 465 L 72.5 465 L 71.5 466 L 24 467 L 23.5 470 L 23 465.5 L 24 463 L 37.5 463 L 38.5 462 L 61.5 462 L 62.5 461 L 82.5 461 L 83.5 460 L 104.5 460 L 105.5 459 L 139.5 458 L 140.5 457 L 161.5 457 L 162.5 456 L 174.5 456 L 175.5 455 L 192.5 455 L 205.5 448 Z " /><path fill="rgb(166,119,191)" stroke="rgb(166,119,191)" stroke-width="1" opacity="0.996078431372549" d="M 206.5 484 L 207 495.5 L 206 495.5 L 206.5 484 Z " /><path fill="rgb(173,126,198)" stroke="rgb(173,126,198)" stroke-width="1" opacity="0.996078431372549" d="M 352.5 140 Q 356.9 138.5 356 141.5 L 354 144.5 L 354 146.5 L 353.5 152 Q 348.8 150.8 350 143.5 L 352.5 140 Z " /><path fill="rgb(173,126,198)" stroke="rgb(173,126,198)" stroke-width="1" opacity="0.996078431372549" d="M 206.5 174 L 207 184.5 L 206 184.5 L 206.5 174 Z " /><path fill="rgb(173,126,198)" stroke="rgb(173,126,198)" stroke-width="1" opacity="0.996078431372549" d="M 0 198 L 162.5 198 L 173 208.5 L 0 209 L 0 198 Z " /><path fill="rgb(173,126,198)" stroke="rgb(173,126,198)" stroke-width="1" opacity="0.996078431372549" d="M 400.5 198 L 511.5 198 L 512 198.5 L 512 209 L 410.5 209 L 400.5 198 Z " /><path fill="rgb(173,126,198)" stroke="rgb(173,126,198)" stroke-width="1" opacity="0.996078431372549" d="M 206.5 253 L 207 255.5 L 206 255.5 L 206.5 253 Z " /><path fill="rgb(173,126,198)" stroke="rgb(173,126,198)" stroke-width="1" opacity="0.996078431372549" d="M 25.5 256 L 26.5 258 L 25.5 256 Z " /><path fill="rgb(173,126,198)" stroke="rgb(173,126,198)" stroke-width="1" opacity="0.996078431372549" d="M 206.5 268 L 207 279.5 L 206 279.5 L 206.5 268 Z " /><path fill="rgb(173,126,198)" stroke="rgb(173,126,198)" stroke-width="1" opacity="0.996078431372549" d="M 72.5 305 L 74.5 308 L 72.5 305 Z " /><path fill="rgb(173,126,198)" stroke="rgb(173,126,198)" stroke-width="1" opacity="0.996078431372549" d="M 97.5 331 L 101.5 336 L 97.5 331 Z " /><path fill="rgb(173,126,198)" stroke="rgb(173,126,198)" stroke-width="1" opacity="0.996078431372549" d="M 125.5 359 L 135.5 360 L 137 361.5 L 135 362.5 L 151 363.5 L 146 364.5 L 162 365.5 L 160 366.5 L 173 368.5 L 172.5 370 L 193 372.5 L 190 373.5 L 203 375.5 L 202.5 377 L 206 378.5 L 206 403.5 L 202 404 Q 200.9 401.3 203.5 402 L 203.5 401 L 189 400.5 L 199 399.5 L 182 396.5 L 184 395.5 L 174 394.5 L 176 393.5 L 169 393 Q 170.3 389.3 164.5 391 L 164.5 390 L 168 388.5 L 154 387.5 L 156 386.5 L 150 386 Q 151.1 383.3 148.5 384 L 126 361.5 L 125.5 359 Z " /><path fill="rgb(173,126,198)" stroke="rgb(173,126,198)" stroke-width="1" opacity="0.996078431372549" d="M 204.5 414 L 206 414.5 L 206 447.5 L 192.5 455 L 175.5 455 L 174.5 456 L 162.5 456 L 161.5 457 L 140.5 457 L 139.5 458 L 122.5 458 L 121.5 459 L 105.5 459 L 104.5 460 L 83.5 460 L 82.5 461 L 62.5 461 L 61.5 462 L 38.5 462 L 37.5 463 L 24 463 L 23.5 465 L 23 461.5 L 24 459 L 60.5 458 L 61.5 457 L 80.5 457 L 81.5 456 L 100.5 456 L 101.5 455 L 120.5 455 L 204.5 414 Z " /><path fill="rgb(173,126,198)" stroke="rgb(173,126,198)" stroke-width="1" opacity="0.996078431372549" d="M 206.5 477 L 207 483.5 L 206 483.5 L 206.5 477 Z " /><path fill="rgb(143,94,170)" stroke="rgb(143,94,170)" stroke-width="1" opacity="0.9921568627450981" d="M 205.5 175 L 179.5 202 L 205.5 175 Z " /><path fill="rgb(143,94,170)" stroke="rgb(143,94,170)" stroke-width="1" opacity="0.9921568627450981" d="M 205.5 184 L 206 236 L 202 234.5 L 202.5 233 Q 199.9 233.7 201 231 L 199 231 L 199 228.5 L 196 223.5 L 195.5 221 L 194 221.5 L 196 218.5 L 194 217.5 L 194 215.5 L 193 212.5 L 194.5 210 L 193 209.5 L 195 209 L 196 205.5 Q 193.5 204 197 202.5 L 196.5 201 L 195 201.5 L 198 197.5 L 198 195.5 L 200.5 191 Q 201.8 193.3 203 190.5 L 203 188.5 L 205.5 184 Z " /><path fill="rgb(143,94,170)" stroke="rgb(143,94,170)" stroke-width="1" opacity="0.9921568627450981" d="M 305.5 208 L 306 255.5 L 305 255.5 L 305.5 208 Z " /><path fill="rgb(143,94,170)" stroke="rgb(143,94,170)" stroke-width="1" opacity="0.9921568627450981" d="M 413.5 214 L 439.5 238 L 508 238 L 507 241.5 L 497.5 251 L 489.5 255 L 489.5 253 L 417.5 253 Q 418.1 250.2 415 251 L 415 248 L 413.5 248 L 411.5 248 L 410 247.5 L 412 246.5 L 409.5 245 L 408 245.5 Q 411.8 243.8 408.5 242 L 407 241.5 L 409 240.5 L 405 237.5 L 406.5 238 Q 409.1 238.7 408 236 L 404 234.5 L 407 232.5 L 404 231.5 L 406 228.5 L 404.5 226 Q 406.8 225.3 406 227.5 L 407 227.5 L 408 225.5 L 405 224.5 L 406.5 221 L 407.5 223 L 409.5 219 L 411 219.5 L 410 217.5 L 412 217.5 L 411 215.5 L 413.5 214 Z " /><path fill="rgb(143,94,170)" stroke="rgb(143,94,170)" stroke-width="1" opacity="0.9921568627450981" d="M 193.5 228 L 205 238.5 L 205.5 237 L 206 238.5 L 206 240.5 L 206 252.5 L 205.5 253 L 21.5 253 L 19.5 253 Q 10.2 250.3 6 242.5 L 3 237.5 L 4.5 238 L 202 237.5 L 193.5 228 Z " /><path fill="rgb(143,94,170)" stroke="rgb(143,94,170)" stroke-width="1" opacity="0.9921568627450981" d="M 412.5 249 Q 414.8 248.3 414 250.5 L 412.5 249 Z " /><path fill="rgb(143,94,170)" stroke="rgb(143,94,170)" stroke-width="1" opacity="0.9921568627450981" d="M 305.5 262 L 306 280.5 L 305 280.5 L 305.5 262 Z " /><path fill="rgb(143,94,170)" stroke="rgb(143,94,170)" stroke-width="1" opacity="0.9921568627450981" d="M 32.5 263 L 34.5 266 L 32.5 263 Z " /><path fill="rgb(143,94,170)" stroke="rgb(143,94,170)" stroke-width="1" opacity="0.9921568627450981" d="M 58.5 290 L 68.5 300 L 108 300.5 L 106 301.5 L 126.5 302 L 127.5 303 L 137.5 303 L 145.5 305 L 162 305.5 L 160 306.5 L 192.5 307 Q 197 310.7 206 309 L 206 326 L 200.5 326 L 200.5 325 L 202 324.5 L 177 323 Q 178.4 319 171.5 321 L 170.5 320 L 143 318.5 L 147 317.5 L 120 317 L 119.5 315 L 97.5 315 L 97.5 314 L 99 313.5 L 80.5 313 L 58.5 290 Z " /><path fill="rgb(143,94,170)" stroke="rgb(143,94,170)" stroke-width="1" opacity="0.9921568627450981" d="M 488.5 308 L 489 394.5 L 488 396.5 L 489 400.5 L 489 402.5 L 488.5 456 L 487.5 451 L 480.5 455 L 469.5 455 L 468.5 456 L 457.5 456 L 456.5 457 L 445.5 457 L 444.5 458 L 396.5 460 L 395.5 461 L 385.5 461 L 384.5 462 L 368.5 462 L 354 455 L 350 438.5 L 349.5 431 L 348 431.5 L 344 406.5 L 347 394.5 L 347 392.5 L 348 390.5 L 347 388.5 L 348 385.5 Q 346.5 378.5 350 379.5 L 350 371.5 L 353 366.5 L 352.5 365 L 354 364.5 L 354 357.5 L 355 354 Q 358.3 355.3 357 350.5 L 359 345.5 Q 356.8 344.3 359.5 343 Q 362.1 343.8 361 340.5 L 363 336 L 366 334.5 L 365 332.5 L 366 330 Q 369.1 330.8 368.5 328 L 384.5 328 L 386.5 330 L 404 330.5 L 395 331.5 L 410 332.5 L 409.5 334 L 423 335.5 L 422.5 337 L 437.5 338 L 439.5 340 L 455 341.5 L 448 342.5 L 464 345.5 L 463.5 347 L 479 347.5 L 466 349.5 L 480.5 350 L 482 351.5 L 481.5 353 Q 486.3 351.7 487.5 354 L 488.5 308 Z M 370 354 L 368 356 L 368 360 L 366 360 L 366 363 L 366 365 L 365 365 L 365 367 L 361 377 L 361 384 L 360 383 L 358 391 L 358 395 L 357 399 L 357 401 L 355 402 L 357 403 L 355 406 L 355 411 L 359 427 Q 358 432 361 431 L 361 438 L 363 438 Q 362 445 366 450 L 366 453 Q 369 452 368 455 L 382 455 L 477 409 Q 479 410 478 408 L 474 405 L 477 403 L 467 401 L 474 400 L 466 399 L 468 398 L 467 397 L 469 396 L 462 395 L 464 394 L 464 393 Q 459 394 460 391 L 456 391 L 463 390 L 457 389 L 455 388 L 457 387 L 451 386 L 453 385 L 446 384 L 448 383 L 442 380 L 434 380 L 443 379 L 430 377 L 438 376 L 426 374 L 428 373 L 426 371 L 415 370 L 417 369 L 410 368 L 414 366 L 403 365 L 405 364 L 399 363 L 401 362 L 388 359 L 386 357 L 381 356 L 373 356 L 370 354 Z " /><path fill="rgb(143,94,170)" stroke="rgb(143,94,170)" stroke-width="1" opacity="0.9921568627450981" d="M 368.5 326 L 378 326.5 L 368.5 327 L 368.5 326 Z " /><path fill="rgb(143,94,170)" stroke="rgb(143,94,170)" stroke-width="1" opacity="0.9921568627450981" d="M 305.5 335 L 306 374.5 L 305 374.5 L 305.5 335 Z " /><path fill="rgb(143,94,170)" stroke="rgb(143,94,170)" stroke-width="1" opacity="0.9921568627450981" d="M 305.5 430 L 306 498.5 L 305 498.5 L 305.5 430 Z " /><path fill="rgb(143,94,170)" stroke="rgb(143,94,170)" stroke-width="1" opacity="0.9921568627450981" d="M 186.5 466 L 205.5 466 L 206 471 L 201.5 472 L 182.5 472 L 181.5 473 L 147.5 473 L 146.5 474 L 125.5 474 L 124.5 475 L 24 477 L 24.5 473 L 46.5 473 L 47.5 472 L 63.5 472 L 64.5 471 L 96.5 471 L 97.5 470 L 116.5 470 L 117.5 469 L 136.5 469 L 137.5 468 L 164.5 468 L 165.5 467 L 185.5 467 L 186.5 466 Z " /><path fill="rgb(143,94,170)" stroke="rgb(143,94,170)" stroke-width="1" opacity="0.9921568627450981" d="M 23.5 479 L 24 485.5 L 23 485.5 L 23.5 479 Z " /><path fill="rgb(94,53,119)" stroke="rgb(94,53,119)" stroke-width="1" opacity="0.996078431372549" d="M 306.5 176 L 330 199.5 L 329 200.5 L 326 205.5 L 326.5 207 L 325 206.5 L 326 208.5 L 324 208.5 L 320 221.5 L 321 222.5 L 319 224.5 L 319 228.5 L 318 230.5 L 319 232.5 L 317 235.5 L 319 236 Q 319.8 239.4 317 240.5 L 318 242.5 L 317.5 244 L 319 244.5 L 317 245 Q 315.5 248.7 318.5 248 L 318 249.5 L 319 252.5 L 319 254.5 L 319.5 256 L 344.5 256 L 344.5 257 L 340 257.5 L 343 258.5 L 338.5 260 L 337 259.5 L 337 262 L 335 262 Q 336.1 264.7 333.5 264 L 332 263.5 Q 332.5 267.5 329.5 268 L 327 268 L 327 272 L 325.5 272 Q 321.8 273.5 323 279 Q 320.3 277.9 321 280.5 L 318.5 287 L 317 286.5 L 316 300 L 314 300.5 L 316 301.5 L 314 302 L 312 319.5 L 309 331.5 L 309 333.5 L 309 353.5 L 308 354.5 L 308 370.5 L 307 372.5 L 307 374.5 L 306.5 406 L 306.5 176 Z " /><path fill="rgb(94,53,119)" stroke="rgb(94,53,119)" stroke-width="1" opacity="0.996078431372549" d="M 306.5 412 L 307 449.5 L 308 450.5 L 309 461.5 L 311.5 466 Q 313.8 465.3 313 467.5 L 314 471 L 316 471.5 L 314 472.5 L 316 473 L 318.5 477 L 323 479 L 324.5 482 L 327 482 L 327.5 484 L 331.5 484 L 333.5 486 L 340.5 487 L 343.5 489 L 374.5 493 L 375.5 492 L 456.5 491 L 457.5 490 L 479.5 490 Q 481 487.5 486.5 489 L 486 490.5 Q 484.6 498.6 478.5 502 L 470.5 506 L 343.5 506 L 342.5 507 L 304 507 L 306 501.5 L 306.5 412 Z " /><path fill="rgb(94,53,119)" stroke="rgb(94,53,119)" stroke-width="1" opacity="0.996078431372549" d="M 193.5 495 L 206 495 L 206 501.5 L 208 505.5 L 42.5 506 L 31 499.5 L 29 496.5 L 192.5 496 L 193.5 495 Z " /><path fill="rgb(134,89,158)" stroke="rgb(134,89,158)" stroke-width="1" opacity="0.996078431372549" d="M 205.5 176 L 206 183.5 L 202 189.5 Q 204.3 190.8 201.5 192 L 200 191.5 L 201 193.5 L 198 194.5 L 197 196.5 Q 199.5 198 196 199.5 L 197 202.5 L 195 206.5 Q 196.1 209.8 193.5 209 L 193.5 210 L 195 210.5 L 194 213.5 L 195 216.5 L 194.5 218 L 196 218.5 L 195 220.5 L 198 225.5 Q 195.5 227 199 228.5 L 199 231 L 201 231 Q 199.9 233.7 202.5 233 L 203.5 236 L 206 236.5 L 205 238.5 L 205.5 240 L 165 199.5 L 166.5 198 Q 168.8 197.3 168 199.5 L 170.5 203 L 176.5 204 L 205.5 176 Z " /><path fill="rgb(134,89,158)" stroke="rgb(134,89,158)" stroke-width="1" opacity="0.996078431372549" d="M 350.5 183 L 348.5 186 L 350.5 183 Z " /><path fill="rgb(134,89,158)" stroke="rgb(134,89,158)" stroke-width="1" opacity="0.996078431372549" d="M 393.5 196 L 394.5 198 L 395.5 196 L 414 213.5 L 411 215.5 L 412 217.5 L 410.5 220 L 409 219.5 L 408 222.5 L 408.5 224 L 406.5 221 L 406 223.5 Q 409.5 225 407 226.5 L 404 231.5 L 407 232.5 L 406.5 235 L 404.5 234 L 405.5 236 Q 408.8 234.9 408 237.5 L 408.5 239 L 406.5 238 L 407.5 240 L 409 240.5 L 407 241.5 L 410.5 244 L 412.5 243 L 412.5 244 L 410 245.5 L 411.5 246 Q 412.8 243.8 414 246.5 L 413.5 248 L 415 248 L 415 251 Q 418.1 250.3 417.5 253 L 489.5 253 L 489 254.5 L 488.5 289 L 487.5 254 L 481.5 256 L 368.5 256 L 366.5 256 L 365 255.5 L 365 253.5 L 366 251.5 L 364 247.5 L 363 241.5 L 363 239.5 L 363 231.5 L 366 223.5 L 366 221.5 L 368 211 L 370.5 212 L 372.5 209 Q 375.8 210.1 375 207.5 L 378 206.5 Q 377.2 203.9 380.5 205 L 390.5 198 Q 391.8 200.3 393 197.5 L 393.5 196 Z M 405 226 L 406 228 Q 407 225 405 226 Z M 413 249 L 414 251 Q 415 248 413 249 Z " /><path fill="rgb(134,89,158)" stroke="rgb(134,89,158)" stroke-width="1" opacity="0.996078431372549" d="M 342.5 201 L 341.5 203 L 342.5 201 Z " /><path fill="rgb(134,89,158)" stroke="rgb(134,89,158)" stroke-width="1" opacity="0.996078431372549" d="M 21.5 253 L 205.5 253 L 206 256 L 30.5 256 L 21.5 254 L 21.5 253 Z " /><path fill="rgb(134,89,158)" stroke="rgb(134,89,158)" stroke-width="1" opacity="0.996078431372549" d="M 305.5 258 L 306 261.5 L 305 261.5 L 305.5 258 Z " /><path fill="rgb(134,89,158)" stroke="rgb(134,89,158)" stroke-width="1" opacity="0.996078431372549" d="M 35.5 266 L 40.5 272 L 35.5 266 Z " /><path fill="rgb(134,89,158)" stroke="rgb(134,89,158)" stroke-width="1" opacity="0.996078431372549" d="M 52.5 283 L 132.5 283 L 133.5 284 L 144.5 284 L 145.5 285 L 172.5 285 L 182.5 287 L 200.5 287 L 206 288 L 206 309 L 196.5 309 L 192.5 307 L 160 306.5 L 162 305.5 L 145.5 305 L 144.5 304 L 127.5 303 L 126.5 302 L 106 301.5 L 108 300.5 L 68.5 300 L 52.5 283 Z " /><path fill="rgb(134,89,158)" stroke="rgb(134,89,158)" stroke-width="1" opacity="0.996078431372549" d="M 488.5 291 L 489 293.5 L 488 293.5 L 488.5 291 Z " /><path fill="rgb(134,89,158)" stroke="rgb(134,89,158)" stroke-width="1" opacity="0.996078431372549" d="M 488.5 297 L 489 299.5 L 488 299.5 L 488.5 297 Z " /><path fill="rgb(134,89,158)" stroke="rgb(134,89,158)" stroke-width="1" opacity="0.996078431372549" d="M 368 300 L 385 300.5 L 373 301.5 L 407.5 303 L 408.5 304 L 425 305.5 L 420 306.5 L 442 307 L 442.5 309 L 454.5 309 L 457.5 311 L 474 311.5 L 470 312.5 L 488 314 L 487.5 354 L 481 352.5 Q 483.3 351.3 480.5 350 L 466 349.5 L 479 347.5 L 463 346.5 L 463.5 345 L 448 342.5 L 455 341.5 L 444.5 341 L 439.5 340 L 437.5 338 L 422 336.5 L 422.5 335 L 409 333.5 L 409.5 332 L 395 331.5 L 404 330.5 L 386.5 330 L 384.5 328 L 368 328 L 368 330 Q 365.3 328.9 366 331.5 L 366 333.5 L 364.5 336 Q 362.3 335.3 363 337.5 L 361 343 L 358 344.5 L 359 346.5 L 357 354 Q 354 352.8 355 356.5 L 354 357.5 L 354 365 L 352 365.5 L 352 367.5 Q 348.5 371.7 350 380 Q 346 378.6 348 385.5 L 347 388.5 L 348 390.5 L 346 393.5 L 346 395.5 L 346 400.5 L 344 407.5 L 348.5 432 L 350 431.5 L 350 438.5 L 354 455 L 368.5 462 L 384.5 462 L 385.5 461 L 395.5 461 L 396.5 460 L 444.5 458 L 445.5 457 L 480.5 455 L 487.5 451 L 489 463 L 473.5 463 L 472.5 464 L 460.5 464 L 459.5 465 L 438.5 465 L 437.5 466 L 426.5 466 L 425.5 467 L 409.5 467 L 408.5 468 L 398.5 468 L 397.5 469 L 368.5 470 L 360.5 466 Q 359 468.5 357.5 465 L 350 463 Q 351.1 460.3 348.5 461 L 345 460 L 342.5 456 L 340 454.5 L 339 447.5 L 337 443.5 L 336 427.5 L 333 415.5 L 333 401.5 L 334 399.5 L 334 397.5 L 335 393.5 L 335 391.5 L 335 386.5 L 337 379.5 L 337 371.5 L 338 370.5 Q 335.5 369 339 367.5 L 338 365.5 L 340 356.5 L 343 352.5 L 343 350.5 L 346 336.5 L 348 334.5 L 348 330 Q 350.7 331.1 350 328.5 L 350.5 326 Q 352.8 326.8 352 324.5 L 355 318.5 L 354.5 317 Q 357.8 318.1 357 315.5 L 359 312.5 L 358.5 311 L 361 311 L 361 309 L 363 309 Q 361.9 306.3 364.5 307 Q 362.9 305.3 366 303.5 Q 365.3 300.9 368 302 L 368 300 Z M 369 326 L 369 327 L 378 327 L 369 326 Z " /><path fill="rgb(134,89,158)" stroke="rgb(134,89,158)" stroke-width="1" opacity="0.996078431372549" d="M 488.5 304 L 489 307.5 L 488 307.5 L 488.5 304 Z " /><path fill="rgb(134,89,158)" stroke="rgb(134,89,158)" stroke-width="1" opacity="0.996078431372549" d="M 202.5 471 L 206 471 L 206 478 L 181.5 478 L 180.5 479 L 163.5 479 L 162.5 480 L 83.5 481 L 82.5 482 L 27.5 482 L 24 483 L 24 477.5 L 24.5 477 L 65.5 477 L 66.5 476 L 124.5 475 L 125.5 474 L 146.5 474 L 147.5 473 L 181.5 473 L 182.5 472 L 201.5 472 L 202.5 471 Z " /><path fill="rgb(134,89,158)" stroke="rgb(134,89,158)" stroke-width="1" opacity="0.996078431372549" d="M 26.5 494 L 27.5 496 L 26.5 494 Z " /><path fill="rgb(134,89,158)" stroke="rgb(134,89,158)" stroke-width="1" opacity="0.996078431372549" d="M 28.5 497 L 32.5 502 L 28.5 497 Z " /><path fill="rgb(106,64,132)" stroke="rgb(106,64,132)" stroke-width="1" opacity="0.996078431372549" d="M 372.5 172 L 381.5 182 Q 376.5 185.8 369 186 Q 370.1 188.7 367.5 188 L 363 191.5 L 363.5 193 L 362 192.5 L 361 196 Q 358.3 194.9 359 197.5 L 357 201 Q 354.3 199.9 355 202.5 L 353 207 L 350 208.5 L 351 211 L 348 212.5 L 349 213.5 Q 345.9 215.3 347.5 217 L 346 217 L 346 222 L 344.5 222 L 345 223.5 Q 346.5 227.9 343.5 227 L 344 228.5 L 342 239.5 L 343 242.5 L 342 247.5 L 344 248.5 L 344 250.5 L 343 253.5 L 345 254.5 L 343.5 256 L 319 256 L 318 253.5 L 319 251.5 L 318 249.5 L 318.5 248 Q 315.5 248.7 317 245 L 319 244.5 L 317 243.5 L 318 241.5 Q 315.5 240 319 238.5 Q 320.1 235.2 317.5 236 L 318 234.5 L 319 231.5 L 319 229.5 L 320 227.5 L 319 224.5 L 321 220.5 L 324 208.5 L 330 199.5 L 306.5 175 L 335.5 204 L 339.5 204 L 343 201.5 L 345 191.5 L 352.5 182 L 361.5 179 L 368.5 179 L 371 176.5 L 372.5 172 Z " /><path fill="rgb(106,64,132)" stroke="rgb(106,64,132)" stroke-width="1" opacity="0.996078431372549" d="M 145.5 179 L 150 179.5 L 146.5 181 L 145.5 179 Z " /><path fill="rgb(106,64,132)" stroke="rgb(106,64,132)" stroke-width="1" opacity="0.996078431372549" d="M 25.5 255 L 27.5 256 L 206 256 L 206 265.5 L 205.5 266 L 35.5 266 L 25.5 255 Z " /><path fill="rgb(106,64,132)" stroke="rgb(106,64,132)" stroke-width="1" opacity="0.996078431372549" d="M 485.5 255 L 488 255.5 L 488 279 L 462.5 279 L 461.5 278 L 453.5 278 L 444.5 276 L 430.5 276 L 429.5 275 L 396.5 275 L 395.5 274 L 371.5 273 L 368 272 L 367.5 275 L 366.5 273 L 366 275 L 361 276.5 L 363 277.5 L 361 278 L 360.5 281 L 359.5 279 L 359 281 Q 356 280 357 283 L 354.5 283 L 353 286 L 350 287.5 L 349.5 290 L 348.5 288 L 347 290.5 L 347.5 292 L 346 292 L 346 294 Q 343.3 292.9 344 295.5 L 340 300.5 L 340.5 302 L 339 302.5 L 339 304.5 L 336 309.5 L 336.5 311 L 335 311.5 L 336 312.5 L 333 315.5 L 332 317.5 L 332 319.5 Q 333.9 324.9 330.5 324 L 330.5 325 L 332 325.5 L 330 326 Q 330.8 330.5 328 332.5 L 328 334.5 L 327 343.5 L 325 347.5 L 325 354.5 L 323 360.5 L 323 362.5 L 323 371.5 L 322 372.5 L 322 374.5 L 320 389.5 L 320 391.5 L 320 402.5 L 319 403.5 L 319 405.5 L 320 422.5 L 321 423.5 L 321 436.5 L 323 444.5 L 323 454.5 L 328 462 Q 330.7 460.9 330 463.5 L 336 466 L 337.5 469 L 340 469 Q 338.8 472 342.5 471 L 347.5 475 Q 352.5 474 353.5 477 L 357.5 477 L 368.5 481 L 375.5 481 L 376.5 480 L 401.5 480 L 402.5 479 L 421.5 479 L 422.5 478 L 432.5 478 L 433.5 477 L 455.5 477 L 456.5 476 L 488 475 L 489 480.5 L 488 483.5 L 488 485.5 Q 488.8 490.3 486.5 492 L 486 490.5 L 486.5 489 Q 481 487.5 479.5 490 L 457.5 490 L 456.5 491 L 404.5 491 L 403.5 492 L 375.5 492 Q 374.3 494.3 369.5 493 L 368.5 492 L 354.5 491 L 349.5 489 L 343.5 489 L 340.5 487 L 333.5 486 L 331.5 484 L 327 484 Q 328.3 481 324.5 482 L 323 479 L 316 474.5 Q 316.8 472.3 314.5 473 L 314.5 472 L 316 471.5 L 314 471 L 313 466 L 310 464.5 L 307 449.5 L 307 412.5 L 306 408.5 L 307 405.5 L 307 374.5 L 308 373.5 L 307 371.5 L 308 370.5 L 309 333.5 L 310 332.5 L 310 330.5 L 310 324.5 L 312 319.5 L 314 302 L 316 301.5 L 314 300.5 L 316 300 Q 314.4 291 317.5 286 L 319 286.5 L 321 279 Q 324.7 280.4 323 274.5 L 327 272 Q 324.9 266.8 329.5 268 L 332.5 263 L 335 264 Q 334 261 337 262 L 337 259.5 L 339.5 259 L 343 258.5 L 340 257.5 L 345.5 256 L 484.5 256 L 485.5 255 Z " /><path fill="rgb(106,64,132)" stroke="rgb(106,64,132)" stroke-width="1" opacity="0.996078431372549" d="M 189.5 486 L 206 486 L 206 495 L 193.5 495 L 192.5 496 L 28.5 496 L 25 489.5 L 90.5 489 L 91.5 488 L 132.5 488 L 133.5 487 L 188.5 487 L 189.5 486 Z " /><path fill="rgb(106,64,132)" stroke="rgb(106,64,132)" stroke-width="1" opacity="0.996078431372549" d="M 29.5 497 L 30.5 499 L 29.5 497 Z " /><path fill="rgb(106,64,132)" stroke="rgb(106,64,132)" stroke-width="1" opacity="0.996078431372549" d="M 483.5 497 L 479.5 502 L 483.5 497 Z " /><path fill="rgb(106,64,132)" stroke="rgb(106,64,132)" stroke-width="1" opacity="0.996078431372549" d="M 477.5 502 L 476.5 504 L 477.5 502 Z " /><path fill="rgb(106,64,132)" stroke="rgb(106,64,132)" stroke-width="1" opacity="0.996078431372549" d="M 48.5 506 L 209 506.5 L 48.5 507 L 48.5 506 Z " /><path fill="rgb(106,64,132)" stroke="rgb(106,64,132)" stroke-width="1" opacity="0.996078431372549" d="M 343.5 506 L 469 506.5 L 343.5 507 L 343.5 506 Z " /><path fill="rgb(121,78,146)" stroke="rgb(121,78,146)" stroke-width="1" opacity="0.996078431372549" d="M 150.5 179 L 159.5 182 L 165 187.5 L 168 198 L 164.5 199 L 147.5 181 L 150.5 179 Z " /><path fill="rgb(121,78,146)" stroke="rgb(121,78,146)" stroke-width="1" opacity="0.996078431372549" d="M 380.5 182 L 382.5 182 L 397 196.5 L 395 196.5 L 394.5 198 L 393.5 196 L 391.5 199 Q 390 196.5 388.5 200 L 380.5 205 L 378 205 L 377.5 207 Q 376.2 204.8 375 207.5 Q 375.8 210.1 372.5 209 L 372.5 211 L 371 210.5 L 370.5 212 L 368 211 L 368 215.5 L 366 217.5 L 365 222.5 L 365 224.5 L 363 231.5 L 363 239.5 L 363 241.5 Q 362.2 246.8 365 248.5 L 365 252.5 L 366 254.5 L 364.5 256 L 344.5 256 L 344.5 254 L 343 253.5 L 344 250.5 L 343.5 248 L 342 247.5 L 343 242.5 L 343 238.5 L 344 228.5 L 343.5 227 Q 346.5 227.9 345 223.5 L 344.5 222 L 346 222 L 346 217 L 347.5 217 L 349.5 211 Q 351.8 211.8 351 209.5 Q 348.7 208.3 351.5 207 Q 353.8 207.8 353 205.5 L 355 201 Q 357.7 202.1 357 199.5 L 359 196 Q 361.7 197.1 361 194.5 L 363.5 191 L 369 188 Q 367.8 185 371.5 186 L 378.5 184 L 380.5 182 Z " /><path fill="rgb(121,78,146)" stroke="rgb(121,78,146)" stroke-width="1" opacity="0.996078431372549" d="M 27.5 255 L 30 255.5 L 27.5 256 L 27.5 255 Z " /><path fill="rgb(121,78,146)" stroke="rgb(121,78,146)" stroke-width="1" opacity="0.996078431372549" d="M 482.5 255 L 485 255.5 L 482.5 256 L 482.5 255 Z " /><path fill="rgb(121,78,146)" stroke="rgb(121,78,146)" stroke-width="1" opacity="0.996078431372549" d="M 36.5 266 L 205.5 266 L 206 266.5 L 206 288 L 200.5 287 L 182.5 287 L 172.5 285 L 145.5 285 L 144.5 284 L 133.5 284 L 132.5 283 L 51.5 283 L 41 272.5 L 36.5 266 Z " /><path fill="rgb(121,78,146)" stroke="rgb(121,78,146)" stroke-width="1" opacity="0.996078431372549" d="M 368 272 L 371.5 273 L 395.5 274 L 396.5 275 L 429.5 275 L 430.5 276 L 444.5 276 L 445.5 277 L 461.5 278 L 462.5 279 L 488 279 L 488 313.5 L 487.5 314 L 480.5 314 L 479.5 313 L 470 312.5 L 474 311.5 L 457.5 311 L 454.5 309 L 442 309 L 441.5 307 L 420.5 307 L 420.5 306 L 425 305.5 L 415.5 305 L 407.5 303 L 373 301.5 L 385 300.5 L 368 300 L 368 302 Q 365.3 300.9 366 303.5 Q 362.9 305.3 364.5 307 Q 361.9 306.3 363 309 L 361 309 L 361 311 L 358.5 311 L 358 313.5 L 357 317 L 354 317.5 L 354 319.5 L 354 322.5 L 352 326 L 350 326.5 L 350 328.5 Q 350.7 331.1 348 330 L 348 334.5 L 346 336.5 L 342 351.5 L 342 353.5 L 340 356.5 L 338 365.5 L 339 367.5 L 337 371.5 L 337 379.5 L 334 392.5 L 335 394.5 L 333 398.5 L 334 400.5 L 333 401.5 L 333 415.5 L 336 427.5 L 337 443.5 Q 339.8 446.2 339 452.5 L 341.5 456 L 345 458.5 Q 344.2 461.1 347.5 460 L 350 461 Q 348.7 464.3 353.5 463 L 359.5 467 L 361.5 467 Q 366.7 471.3 377.5 470 L 378.5 469 L 397.5 469 L 398.5 468 L 408.5 468 L 409.5 467 L 425.5 467 L 426.5 466 L 437.5 466 L 438.5 465 L 459.5 465 L 460.5 464 L 472.5 464 L 473.5 463 L 489 463 L 488.5 480 L 488 475 L 456.5 476 L 455.5 477 L 433.5 477 L 432.5 478 L 422.5 478 L 421.5 479 L 368.5 481 L 357.5 477 L 353.5 477 L 351.5 475 L 347.5 475 L 342.5 471 L 340 471 Q 341.3 468 337.5 469 L 336 466 L 330 463.5 L 328 460.5 L 323 454.5 L 323 444.5 L 321 436.5 L 321 423.5 L 320 422.5 L 319 405.5 L 320 402.5 L 320 391.5 L 321 390.5 L 320 388.5 L 321 387.5 L 321 378.5 L 323 373.5 L 323 371.5 L 323 362.5 L 324 361.5 L 323 359.5 L 325 354.5 L 325 347.5 Q 328 344.5 327 337.5 L 329 333.5 L 329 331.5 L 330 326 L 332 325.5 L 330 324.5 L 332 324 L 333 318.5 L 333 316.5 L 336 312.5 L 335.5 311 L 337 310.5 L 337 308.5 L 340 303.5 L 339.5 302 L 341 301.5 L 340 300.5 L 343 297.5 L 344 294 L 346 294 Q 344.9 291.3 347.5 292 L 348 289.5 L 348.5 288 L 349.5 290 L 351.5 286 Q 353.8 286.8 353 284.5 L 357 283 L 357 281 Q 359.7 282.1 359 279.5 L 360 279.5 L 360.5 281 L 361 278 L 363 277.5 L 361 276.5 L 366 275 L 366.5 273 L 367.5 275 L 368 272 Z " /><path fill="rgb(121,78,146)" stroke="rgb(121,78,146)" stroke-width="1" opacity="0.996078431372549" d="M 181.5 478 L 205.5 478 L 206 478.5 L 206 486 L 189.5 486 L 188.5 487 L 91.5 488 L 90.5 489 L 25.5 489 Q 22.8 487.6 24 483 L 27.5 482 L 82.5 482 L 83.5 481 L 162.5 480 L 163.5 479 L 180.5 479 L 181.5 478 Z " /><path fill="rgb(121,78,146)" stroke="rgb(121,78,146)" stroke-width="1" opacity="0.996078431372549" d="M 488.5 481 L 489 483.5 L 488 483.5 L 488.5 481 Z " /><path fill="rgb(121,78,146)" stroke="rgb(121,78,146)" stroke-width="1" opacity="0.996078431372549" d="M 44.5 506 L 48 506.5 L 44.5 507 L 44.5 506 Z " /><path fill="rgb(153,106,180)" stroke="rgb(153,106,180)" stroke-width="1" opacity="0.996078431372549" d="M 342.5 140 Q 346.9 138.5 346 141.5 L 344.5 143 L 342.5 140 Z " /><path fill="rgb(153,106,180)" stroke="rgb(153,106,180)" stroke-width="1" opacity="0.996078431372549" d="M 371.5 170 L 423.5 222 L 512 222 Q 513 232.3 509 238 L 439.5 238 L 371.5 170 Z " /><path fill="rgb(153,106,180)" stroke="rgb(153,106,180)" stroke-width="1" opacity="0.996078431372549" d="M 305.5 174 L 306 201.5 L 305 201.5 L 305.5 174 Z " /><path fill="rgb(153,106,180)" stroke="rgb(153,106,180)" stroke-width="1" opacity="0.996078431372549" d="M 144.5 179 L 145.5 181 L 144.5 179 Z " /><path fill="rgb(153,106,180)" stroke="rgb(153,106,180)" stroke-width="1" opacity="0.996078431372549" d="M 147.5 182 L 202 237.5 L 4.5 238 L 1 233.5 L 0 222 L 186 221.5 L 147.5 182 Z " /><path fill="rgb(153,106,180)" stroke="rgb(153,106,180)" stroke-width="1" opacity="0.996078431372549" d="M 169.5 201 L 170.5 203 L 169.5 201 Z " /><path fill="rgb(153,106,180)" stroke="rgb(153,106,180)" stroke-width="1" opacity="0.996078431372549" d="M 305.5 203 L 306 205.5 L 305 205.5 L 305.5 203 Z " /><path fill="rgb(153,106,180)" stroke="rgb(153,106,180)" stroke-width="1" opacity="0.996078431372549" d="M 29.5 260 L 31.5 263 L 29.5 260 Z " /><path fill="rgb(153,106,180)" stroke="rgb(153,106,180)" stroke-width="1" opacity="0.996078431372549" d="M 305.5 281 L 306 334.5 L 305 334.5 L 305.5 281 Z " /><path fill="rgb(153,106,180)" stroke="rgb(153,106,180)" stroke-width="1" opacity="0.996078431372549" d="M 53.5 285 L 57.5 290 L 53.5 285 Z " /><path fill="rgb(153,106,180)" stroke="rgb(153,106,180)" stroke-width="1" opacity="0.996078431372549" d="M 81.5 313 L 99 313.5 L 97 314.5 L 120 315 L 120.5 317 L 146.5 317 L 146.5 318 L 143 318.5 L 177 321 L 177.5 323 L 187.5 323 L 188.5 324 L 202 324.5 L 200 325.5 L 206 326 L 206 350.5 L 202.5 351 L 201.5 350 L 192.5 350 L 190 348.5 L 190.5 347 L 171 346.5 L 177 345.5 L 162.5 344 L 161.5 343 L 148 342.5 L 148.5 341 L 140.5 341 L 127.5 338 L 115.5 338 L 114.5 337 L 102.5 336 L 82 315.5 L 81.5 313 Z " /><path fill="rgb(153,106,180)" stroke="rgb(153,106,180)" stroke-width="1" opacity="0.996078431372549" d="M 369.5 354 L 372.5 356 L 380.5 356 L 385.5 357 L 387.5 359 L 401 361.5 L 399 362.5 L 405 363.5 L 403 364.5 L 414 365.5 L 410 367.5 L 417 368.5 L 415 369.5 L 425.5 371 L 428 372.5 L 426 373.5 L 438 375.5 L 430 376.5 L 443 378.5 L 434 379.5 L 441.5 380 L 448 382.5 L 446 383.5 L 453 384.5 L 451 385.5 L 457 386.5 L 455 387.5 L 456.5 389 L 463 389.5 L 456 390.5 L 460 391 Q 458.7 394.3 463.5 393 L 463.5 394 L 462 394.5 L 469 395.5 L 467 396.5 L 467.5 398 L 466 398.5 L 474 399.5 L 467 400.5 L 477 402.5 L 474 404.5 L 478 407.5 Q 478.8 409.8 476.5 409 L 381.5 455 L 368 455 Q 369 452 366 453 L 366 449.5 Q 362.3 445.2 363 438 L 361 438 L 361 430.5 Q 358 431.5 359 426.5 L 355 410.5 L 355 405.5 L 357 402.5 L 355 401.5 L 357 400.5 L 357 398.5 L 358 394.5 L 358 390.5 L 359.5 383 L 361 383.5 L 361 376.5 L 365 366.5 L 364.5 365 L 366 364.5 L 366 362.5 L 366 360 L 368 359.5 L 368 355.5 L 369.5 354 Z M 370 401 L 370 402 L 372 402 L 370 401 Z M 370 405 L 368 407 Q 367 410 370 411 L 375 408 L 370 405 Z " /><path fill="rgb(153,106,180)" stroke="rgb(153,106,180)" stroke-width="1" opacity="0.996078431372549" d="M 305.5 377 L 306 429.5 L 305 429.5 L 305.5 377 Z " /><path fill="rgb(153,106,180)" stroke="rgb(153,106,180)" stroke-width="1" opacity="0.996078431372549" d="M 200.5 459 L 206 459 L 206 466 L 165.5 467 L 164.5 468 L 137.5 468 L 136.5 469 L 117.5 469 L 116.5 470 L 97.5 470 L 96.5 471 L 64.5 471 L 63.5 472 L 47.5 472 L 46.5 473 L 24 473 L 23.5 479 L 23 470.5 L 24 467 L 71.5 466 L 72.5 465 L 99.5 465 L 100.5 464 L 139.5 463 L 140.5 462 L 168.5 462 L 169.5 461 L 199.5 460 L 200.5 459 Z " /><path fill="rgb(153,106,180)" stroke="rgb(153,106,180)" stroke-width="1" opacity="0.996078431372549" d="M 206.5 496 L 207 498.5 L 206 498.5 L 206.5 496 Z " /><path fill="rgb(204,162,226)" stroke="rgb(204,162,226)" stroke-width="1" opacity="0.9803921568627451" d="M 32.5 139 L 133.5 139 L 134.5 140 L 171 140.5 L 141 170.5 L 141 175.5 L 141.5 177 L 140.5 176 L 0 176 Q -1.4 165.8 2 159.5 L 11.5 147 L 19.5 142 L 32.5 139 Z " /><path fill="rgb(204,162,226)" stroke="rgb(204,162,226)" stroke-width="1" opacity="0.9803921568627451" d="M 378.5 139 L 479.5 139 L 492.5 142 L 505 151.5 L 512 165.5 L 512 176 L 377.5 176 L 342 141.5 L 362 159.5 L 363 157.5 L 362 154.5 L 363 149.5 L 363 145.5 L 364 140 L 377.5 140 L 378.5 139 Z " /><path fill="rgb(204,162,226)" stroke="rgb(204,162,226)" stroke-width="1" opacity="0.9803921568627451" d="M 23.5 255 L 131 366.5 L 139 377 L 43.5 422 L 24 432.5 L 23.5 445 L 23.5 255 Z " /><path fill="rgb(204,162,226)" stroke="rgb(204,162,226)" stroke-width="1" opacity="0.9803921568627451" d="M 206.5 351 L 207 458.5 L 206 458.5 L 206.5 351 Z " /><path fill="rgb(183,137,206)" stroke="rgb(183,137,206)" stroke-width="1" opacity="0.996078431372549" d="M 356 140 L 363.5 140 L 364 141.5 L 362 146.5 L 363 149.5 L 362 156.5 L 362 158.5 L 363 160.5 L 354 152.5 Q 352.5 147 355 145.5 L 354 143.5 L 356 140 Z " /><path fill="rgb(183,137,206)" stroke="rgb(183,137,206)" stroke-width="1" opacity="0.996078431372549" d="M 0 176 L 140.5 176 L 143 177 L 143 178.5 L 162 197.5 L 0 198 L 0 176 Z " /><path fill="rgb(183,137,206)" stroke="rgb(183,137,206)" stroke-width="1" opacity="0.996078431372549" d="M 378.5 176 L 511.5 176 L 512 176.5 L 512 198 L 399.5 198 L 378.5 176 Z " /><path fill="rgb(183,137,206)" stroke="rgb(183,137,206)" stroke-width="1" opacity="0.996078431372549" d="M 206.5 185 L 207 252.5 L 206 252.5 L 206.5 185 Z " /><path fill="rgb(183,137,206)" stroke="rgb(183,137,206)" stroke-width="1" opacity="0.996078431372549" d="M 42.5 274 L 46.5 279 L 42.5 274 Z " /><path fill="rgb(183,137,206)" stroke="rgb(183,137,206)" stroke-width="1" opacity="0.996078431372549" d="M 206.5 280 L 207 350.5 L 206 350.5 L 206.5 280 Z " /><path fill="rgb(183,137,206)" stroke="rgb(183,137,206)" stroke-width="1" opacity="0.996078431372549" d="M 66.5 299 L 71.5 305 L 66.5 299 Z " /><path fill="rgb(183,137,206)" stroke="rgb(183,137,206)" stroke-width="1" opacity="0.996078431372549" d="M 89.5 323 L 96.5 331 L 89.5 323 Z " /><path fill="rgb(183,137,206)" stroke="rgb(183,137,206)" stroke-width="1" opacity="0.996078431372549" d="M 111.5 346 L 125.5 361 L 111.5 346 Z " /><path fill="rgb(183,137,206)" stroke="rgb(183,137,206)" stroke-width="1" opacity="0.996078431372549" d="M 131.5 367 L 148.5 384 L 150 384 Q 148.6 388 155.5 386 L 155.5 387 L 154 387.5 L 168 388.5 L 164 390.5 L 169 391 Q 167.9 394.5 175.5 393 L 175.5 394 L 174 394.5 L 184 395.5 L 182 396.5 L 199 399.5 L 189 400.5 L 204 401.5 L 202 402 Q 200.7 405.3 205.5 404 L 206 406.5 L 206 413.5 L 204.5 414 L 120.5 455 L 101.5 455 L 100.5 456 L 81.5 456 L 80.5 457 L 61.5 457 L 60.5 458 L 24 459 L 23.5 461 L 23 445.5 L 24 444.5 L 24 432.5 L 25.5 431 L 139 377 L 131.5 367 Z " /><path fill="rgb(183,137,206)" stroke="rgb(183,137,206)" stroke-width="1" opacity="0.996078431372549" d="M 206.5 459 L 207 476.5 L 206 476.5 L 206.5 459 Z " /></svg>