<svg width="512" height="512" version="1.1" xmlns="http://www.w3.org/2000/svg" desc="Created with imagetracer.js version 1.2.6" ><path fill="rgb(23,149,238)" stroke="rgb(23,149,238)" stroke-width="1" opacity="0.49411764705882355" d="M 233.5 0 L 244 0.5 L 233.5 1 L 233.5 0 Z " /><path fill="rgb(23,149,238)" stroke="rgb(23,149,238)" stroke-width="1" opacity="0.49411764705882355" d="M 268.5 0 L 279 0.5 L 268.5 1 L 268.5 0 Z " /><path fill="rgb(23,149,238)" stroke="rgb(23,149,238)" stroke-width="1" opacity="0.49411764705882355" d="M 224.5 1 L 230 1.5 L 224.5 2 L 224.5 1 Z " /><path fill="rgb(23,149,238)" stroke="rgb(23,149,238)" stroke-width="1" opacity="0.49411764705882355" d="M 282.5 1 L 288 1.5 L 282.5 2 L 282.5 1 Z " /><path fill="rgb(23,149,238)" stroke="rgb(23,149,238)" stroke-width="1" opacity="0.49411764705882355" d="M 216.5 2 L 222 2.5 L 216.5 3 L 216.5 2 Z " /><path fill="rgb(23,149,238)" stroke="rgb(23,149,238)" stroke-width="1" opacity="0.49411764705882355" d="M 290.5 2 L 296 2.5 L 290.5 3 L 290.5 2 Z " /><path fill="rgb(23,149,238)" stroke="rgb(23,149,238)" stroke-width="1" opacity="0.49411764705882355" d="M 211.5 3 L 215 3.5 L 211.5 4 L 211.5 3 Z " /><path fill="rgb(23,149,238)" stroke="rgb(23,149,238)" stroke-width="1" opacity="0.49411764705882355" d="M 297.5 3 L 302 3.5 L 297.5 4 L 297.5 3 Z " /><path fill="rgb(23,149,238)" stroke="rgb(23,149,238)" stroke-width="1" opacity="0.49411764705882355" d="M 205.5 4 L 209 4.5 L 205.5 5 L 205.5 4 Z " /><path fill="rgb(23,149,238)" stroke="rgb(23,149,238)" stroke-width="1" opacity="0.49411764705882355" d="M 303.5 4 L 307 4.5 L 303.5 5 L 303.5 4 Z " /><path fill="rgb(23,149,238)" stroke="rgb(23,149,238)" stroke-width="1" opacity="0.49411764705882355" d="M 200.5 5 L 204 5.5 L 200.5 6 L 200.5 5 Z " /><path fill="rgb(23,149,238)" stroke="rgb(23,149,238)" stroke-width="1" opacity="0.49411764705882355" d="M 308.5 5 L 312 5.5 L 308.5 6 L 308.5 5 Z " /><path fill="rgb(23,149,238)" stroke="rgb(23,149,238)" stroke-width="1" opacity="0.49411764705882355" d="M 196.5 6 L 199 6.5 L 196.5 7 L 196.5 6 Z " /><path fill="rgb(23,149,238)" stroke="rgb(23,149,238)" stroke-width="1" opacity="0.49411764705882355" d="M 313.5 6 L 316 6.5 L 313.5 7 L 313.5 6 Z " /><path fill="rgb(23,149,238)" stroke="rgb(23,149,238)" stroke-width="1" opacity="0.49411764705882355" d="M 192.5 7 L 195 7.5 L 192.5 8 L 192.5 7 Z " /><path fill="rgb(23,149,238)" stroke="rgb(23,149,238)" stroke-width="1" opacity="0.49411764705882355" d="M 317.5 7 L 320 7.5 L 317.5 8 L 317.5 7 Z " /><path fill="rgb(23,149,238)" stroke="rgb(23,149,238)" stroke-width="1" opacity="0.49411764705882355" d="M 188.5 8 L 191 8.5 L 185.5 10 L 185.5 9 L 188.5 8 Z " /><path fill="rgb(23,149,238)" stroke="rgb(23,149,238)" stroke-width="1" opacity="0.49411764705882355" d="M 321.5 8 L 327 9.5 L 324.5 10 L 321.5 9 L 321.5 8 Z " /><path fill="rgb(23,149,238)" stroke="rgb(23,149,238)" stroke-width="1" opacity="0.49411764705882355" d="M 181.5 10 L 184 10.5 L 175.5 13 L 175.5 12 L 181.5 10 Z " /><path fill="rgb(23,149,238)" stroke="rgb(23,149,238)" stroke-width="1" opacity="0.49411764705882355" d="M 328.5 10 L 334 11.5 L 331.5 12 L 328.5 11 L 328.5 10 Z " /><path fill="rgb(23,149,238)" stroke="rgb(23,149,238)" stroke-width="1" opacity="0.49411764705882355" d="M 172.5 13 L 174 13.5 L 164.5 17 L 164.5 16 L 172.5 13 Z " /><path fill="rgb(23,149,238)" stroke="rgb(23,149,238)" stroke-width="1" opacity="0.49411764705882355" d="M 341.5 14 L 348 16.5 L 346.5 17 L 341.5 15 L 341.5 14 Z " /><path fill="rgb(23,149,238)" stroke="rgb(23,149,238)" stroke-width="1" opacity="0.49411764705882355" d="M 161.5 17 L 163 17.5 L 159.5 19 L 159.5 18 L 161.5 17 Z " /><path fill="rgb(23,149,238)" stroke="rgb(23,149,238)" stroke-width="1" opacity="0.49411764705882355" d="M 349.5 17 L 353 18.5 L 351.5 19 L 349.5 17 Z " /><path fill="rgb(23,149,238)" stroke="rgb(23,149,238)" stroke-width="1" opacity="0.49411764705882355" d="M 156.5 19 L 158 19.5 L 152.5 22 L 152.5 21 L 156.5 19 Z " /><path fill="rgb(23,149,238)" stroke="rgb(23,149,238)" stroke-width="1" opacity="0.49411764705882355" d="M 354.5 19 L 360 21.5 L 358.5 22 L 354.5 20 L 354.5 19 Z " /><path fill="rgb(23,149,238)" stroke="rgb(23,149,238)" stroke-width="1" opacity="0.49411764705882355" d="M 149.5 22 L 151 22.5 Q 99.2 46.2 64 86.5 Q 38.9 114.4 22.5 151 L 22 149.5 Q 46.4 97.4 87.5 62 Q 114.7 38.2 149.5 22 Z " /><path fill="rgb(23,149,238)" stroke="rgb(23,149,238)" stroke-width="1" opacity="0.49411764705882355" d="M 361.5 22 Q 413.9 45.6 449 86.5 Q 474 114 490 150.5 L 489 150.5 Q 465.7 98.8 425.5 64 L 390.5 38 L 361.5 23 L 361.5 22 Z " /><path fill="rgb(23,149,238)" stroke="rgb(23,149,238)" stroke-width="1" opacity="0.49411764705882355" d="M 253.5 98 L 259 98.5 L 253.5 99 L 253.5 98 Z " /><path fill="rgb(23,149,238)" stroke="rgb(23,149,238)" stroke-width="1" opacity="0.49411764705882355" d="M 250.5 99 L 252 99.5 L 246.5 102 L 225 123.5 L 108 242.5 L 88 263.5 L 86.5 267 L 86 265.5 L 96 253.5 L 246.5 101 L 250.5 99 Z " /><path fill="rgb(23,149,238)" stroke="rgb(23,149,238)" stroke-width="1" opacity="0.49411764705882355" d="M 263.5 100 L 303 138.5 L 421 258.5 Q 427.5 263 427 274.5 L 426 274.5 Q 426.9 267.1 424 263.5 L 265.5 102 L 263.5 100 Z " /><path fill="rgb(23,149,238)" stroke="rgb(23,149,238)" stroke-width="1" opacity="0.49411764705882355" d="M 250.5 145 Q 260.2 143.3 264.5 147 L 322 204.5 L 400.5 285 L 408 287.5 L 404.5 288 L 400.5 286 L 369 254.5 L 264.5 148 Q 260.2 144.3 250.5 146 L 246.5 148 L 203 191.5 L 111.5 285 Q 107.3 289.3 97.5 288 L 95 286.5 L 96.5 286 L 97.5 287 L 105.5 287 L 111.5 284 L 131 264.5 L 246.5 147 L 250.5 145 Z " /><path fill="rgb(23,149,238)" stroke="rgb(23,149,238)" stroke-width="1" opacity="0.49411764705882355" d="M 21.5 152 L 22 153.5 L 19.5 158 L 19 156.5 L 21.5 152 Z " /><path fill="rgb(23,149,238)" stroke="rgb(23,149,238)" stroke-width="1" opacity="0.49411764705882355" d="M 490.5 152 L 493 157.5 L 492 157.5 L 490.5 152 Z " /><path fill="rgb(23,149,238)" stroke="rgb(23,149,238)" stroke-width="1" opacity="0.49411764705882355" d="M 18.5 159 L 19 160.5 L 17.5 163 L 17 161.5 L 18.5 159 Z " /><path fill="rgb(23,149,238)" stroke="rgb(23,149,238)" stroke-width="1" opacity="0.49411764705882355" d="M 493.5 159 L 495 162.5 L 494 162.5 L 493.5 159 Z " /><path fill="rgb(23,149,238)" stroke="rgb(23,149,238)" stroke-width="1" opacity="0.49411764705882355" d="M 16.5 164 L 17 165.5 L 13.5 174 L 13 172.5 L 16.5 164 Z " /><path fill="rgb(23,149,238)" stroke="rgb(23,149,238)" stroke-width="1" opacity="0.49411764705882355" d="M 495.5 164 L 499 173.5 L 498 173.5 L 495.5 164 Z " /><path fill="rgb(23,149,238)" stroke="rgb(23,149,238)" stroke-width="1" opacity="0.49411764705882355" d="M 253.5 170 L 260.5 171 L 274 184.5 L 378 290.5 L 378 407.5 L 373.5 413 L 372 412.5 L 376 409.5 L 377 407.5 L 377 290.5 L 258.5 171 Q 252.5 172.3 253.5 170 Z " /><path fill="rgb(23,149,238)" stroke="rgb(23,149,238)" stroke-width="1" opacity="0.49411764705882355" d="M 251.5 171 L 207 216.5 L 135 290.5 L 135 407.5 L 138.5 412 L 140 412.5 L 138.5 413 L 134 407.5 L 134 290.5 L 251.5 171 Z " /><path fill="rgb(23,149,238)" stroke="rgb(23,149,238)" stroke-width="1" opacity="0.49411764705882355" d="M 499.5 175 L 502 183.5 L 501 183.5 L 499.5 175 Z " /><path fill="rgb(23,149,238)" stroke="rgb(23,149,238)" stroke-width="1" opacity="0.49411764705882355" d="M 11.5 178 L 12 180.5 L 10.5 184 L 10 181.5 L 11.5 178 Z " /><path fill="rgb(23,149,238)" stroke="rgb(23,149,238)" stroke-width="1" opacity="0.49411764705882355" d="M 502.5 185 L 504 190.5 L 503 190.5 L 502.5 185 Z " /><path fill="rgb(23,149,238)" stroke="rgb(23,149,238)" stroke-width="1" opacity="0.49411764705882355" d="M 8.5 188 L 9 190.5 L 8 190.5 L 8.5 188 Z " /><path fill="rgb(23,149,238)" stroke="rgb(23,149,238)" stroke-width="1" opacity="0.49411764705882355" d="M 7.5 192 L 8 194.5 L 7 194.5 L 7.5 192 Z " /><path fill="rgb(23,149,238)" stroke="rgb(23,149,238)" stroke-width="1" opacity="0.49411764705882355" d="M 504.5 192 L 505 194.5 L 504 194.5 L 504.5 192 Z " /><path fill="rgb(23,149,238)" stroke="rgb(23,149,238)" stroke-width="1" opacity="0.49411764705882355" d="M 6.5 196 L 7 198.5 L 6 198.5 L 6.5 196 Z " /><path fill="rgb(23,149,238)" stroke="rgb(23,149,238)" stroke-width="1" opacity="0.49411764705882355" d="M 505.5 196 L 507 203.5 L 506 203.5 L 505.5 196 Z " /><path fill="rgb(23,149,238)" stroke="rgb(23,149,238)" stroke-width="1" opacity="0.49411764705882355" d="M 5.5 200 L 6 203.5 L 5 203.5 L 5.5 200 Z " /><path fill="rgb(23,149,238)" stroke="rgb(23,149,238)" stroke-width="1" opacity="0.49411764705882355" d="M 4.5 205 L 5 208.5 L 4 208.5 L 4.5 205 Z " /><path fill="rgb(23,149,238)" stroke="rgb(23,149,238)" stroke-width="1" opacity="0.49411764705882355" d="M 507.5 205 L 508 208.5 L 507 208.5 L 507.5 205 Z " /><path fill="rgb(23,149,238)" stroke="rgb(23,149,238)" stroke-width="1" opacity="0.49411764705882355" d="M 3.5 210 L 4 214.5 L 3 214.5 L 3.5 210 Z " /><path fill="rgb(23,149,238)" stroke="rgb(23,149,238)" stroke-width="1" opacity="0.49411764705882355" d="M 508.5 210 L 509 214.5 L 508 214.5 L 508.5 210 Z " /><path fill="rgb(23,149,238)" stroke="rgb(23,149,238)" stroke-width="1" opacity="0.49411764705882355" d="M 2.5 216 L 3 221.5 L 2 221.5 L 2.5 216 Z " /><path fill="rgb(23,149,238)" stroke="rgb(23,149,238)" stroke-width="1" opacity="0.49411764705882355" d="M 509.5 216 L 510 221.5 L 509 221.5 L 509.5 216 Z " /><path fill="rgb(23,149,238)" stroke="rgb(23,149,238)" stroke-width="1" opacity="0.49411764705882355" d="M 1.5 223 L 2 229.5 L 1 229.5 L 1.5 223 Z " /><path fill="rgb(23,149,238)" stroke="rgb(23,149,238)" stroke-width="1" opacity="0.49411764705882355" d="M 510.5 224 L 511 229.5 L 510 229.5 L 510.5 224 Z " /><path fill="rgb(23,149,238)" stroke="rgb(23,149,238)" stroke-width="1" opacity="0.49411764705882355" d="M 0.5 233 L 1 243.5 L 0 243.5 L 0.5 233 Z " /><path fill="rgb(23,149,238)" stroke="rgb(23,149,238)" stroke-width="1" opacity="0.49411764705882355" d="M 511.5 233 L 512 244.5 L 511 244.5 L 511.5 233 Z " /><path fill="rgb(23,149,238)" stroke="rgb(23,149,238)" stroke-width="1" opacity="0.49411764705882355" d="M 511.5 267 L 512 278.5 L 511 278.5 L 511.5 267 Z " /><path fill="rgb(23,149,238)" stroke="rgb(23,149,238)" stroke-width="1" opacity="0.49411764705882355" d="M 0.5 268 L 1 278.5 L 0 278.5 L 0.5 268 Z " /><path fill="rgb(23,149,238)" stroke="rgb(23,149,238)" stroke-width="1" opacity="0.49411764705882355" d="M 85.5 268 L 86 274.5 L 85 274.5 L 85.5 268 Z " /><path fill="rgb(23,149,238)" stroke="rgb(23,149,238)" stroke-width="1" opacity="0.49411764705882355" d="M 86.5 276 L 91.5 284 L 94 285.5 L 92.5 285 L 88 281.5 L 86.5 276 Z " /><path fill="rgb(23,149,238)" stroke="rgb(23,149,238)" stroke-width="1" opacity="0.49411764705882355" d="M 425.5 276 L 426 277.5 L 419.5 286 L 412.5 288 L 412.5 287 Q 420 286.5 423 281.5 L 425.5 276 Z " /><path fill="rgb(23,149,238)" stroke="rgb(23,149,238)" stroke-width="1" opacity="0.49411764705882355" d="M 1.5 282 L 2 287.5 L 1 287.5 L 1.5 282 Z " /><path fill="rgb(23,149,238)" stroke="rgb(23,149,238)" stroke-width="1" opacity="0.49411764705882355" d="M 510.5 282 L 511 287.5 L 510 287.5 L 510.5 282 Z " /><path fill="rgb(23,149,238)" stroke="rgb(23,149,238)" stroke-width="1" opacity="0.49411764705882355" d="M 2.5 290 L 3 295.5 L 2 295.5 L 2.5 290 Z " /><path fill="rgb(23,149,238)" stroke="rgb(23,149,238)" stroke-width="1" opacity="0.49411764705882355" d="M 509.5 290 L 510 295.5 L 509 295.5 L 509.5 290 Z " /><path fill="rgb(23,149,238)" stroke="rgb(23,149,238)" stroke-width="1" opacity="0.49411764705882355" d="M 3.5 297 L 4 301.5 L 3 301.5 L 3.5 297 Z " /><path fill="rgb(23,149,238)" stroke="rgb(23,149,238)" stroke-width="1" opacity="0.49411764705882355" d="M 508.5 297 L 509 301.5 L 508 301.5 L 508.5 297 Z " /><path fill="rgb(23,149,238)" stroke="rgb(23,149,238)" stroke-width="1" opacity="0.49411764705882355" d="M 4.5 303 L 5 306.5 L 4 306.5 L 4.5 303 Z " /><path fill="rgb(23,149,238)" stroke="rgb(23,149,238)" stroke-width="1" opacity="0.49411764705882355" d="M 507.5 303 L 508 306.5 L 507 306.5 L 507.5 303 Z " /><path fill="rgb(23,149,238)" stroke="rgb(23,149,238)" stroke-width="1" opacity="0.49411764705882355" d="M 5.5 308 L 6 311.5 L 5 311.5 L 5.5 308 Z " /><path fill="rgb(23,149,238)" stroke="rgb(23,149,238)" stroke-width="1" opacity="0.49411764705882355" d="M 506.5 308 L 507 311.5 L 505.5 316 L 505 312.5 L 506.5 308 Z " /><path fill="rgb(23,149,238)" stroke="rgb(23,149,238)" stroke-width="1" opacity="0.49411764705882355" d="M 6.5 313 L 7 315.5 L 6 315.5 L 6.5 313 Z " /><path fill="rgb(23,149,238)" stroke="rgb(23,149,238)" stroke-width="1" opacity="0.49411764705882355" d="M 7.5 317 L 8 319.5 L 7 319.5 L 7.5 317 Z " /><path fill="rgb(23,149,238)" stroke="rgb(23,149,238)" stroke-width="1" opacity="0.49411764705882355" d="M 504.5 317 L 505 319.5 L 504 319.5 L 504.5 317 Z " /><path fill="rgb(23,149,238)" stroke="rgb(23,149,238)" stroke-width="1" opacity="0.49411764705882355" d="M 8.5 321 L 10 326.5 L 9 326.5 L 8.5 321 Z " /><path fill="rgb(23,149,238)" stroke="rgb(23,149,238)" stroke-width="1" opacity="0.49411764705882355" d="M 503.5 321 L 504 323.5 L 502.5 327 L 502 324.5 L 503.5 321 Z " /><path fill="rgb(23,149,238)" stroke="rgb(23,149,238)" stroke-width="1" opacity="0.49411764705882355" d="M 10.5 328 L 13 336.5 L 12 336.5 L 10.5 328 Z " /><path fill="rgb(23,149,238)" stroke="rgb(23,149,238)" stroke-width="1" opacity="0.49411764705882355" d="M 501.5 328 L 502 330.5 L 495.5 348 L 495 346.5 L 501.5 328 Z " /><path fill="rgb(23,149,238)" stroke="rgb(23,149,238)" stroke-width="1" opacity="0.49411764705882355" d="M 230.5 334 L 281.5 334 L 286 337.5 L 287 340.5 L 286 340.5 L 283.5 336 L 281.5 335 L 230.5 335 L 227 337.5 L 225.5 341 L 225 339.5 L 228.5 335 L 230.5 334 Z " /><path fill="rgb(23,149,238)" stroke="rgb(23,149,238)" stroke-width="1" opacity="0.49411764705882355" d="M 13.5 338 L 17 347.5 L 16 347.5 L 13.5 338 Z " /><path fill="rgb(23,149,238)" stroke="rgb(23,149,238)" stroke-width="1" opacity="0.49411764705882355" d="M 17.5 349 L 19 352.5 L 18 352.5 L 17.5 349 Z " /><path fill="rgb(23,149,238)" stroke="rgb(23,149,238)" stroke-width="1" opacity="0.49411764705882355" d="M 494.5 349 L 495 350.5 L 493.5 353 L 493 351.5 L 494.5 349 Z " /><path fill="rgb(23,149,238)" stroke="rgb(23,149,238)" stroke-width="1" opacity="0.49411764705882355" d="M 19.5 354 L 22 359.5 L 21 359.5 L 19.5 354 Z " /><path fill="rgb(23,149,238)" stroke="rgb(23,149,238)" stroke-width="1" opacity="0.49411764705882355" d="M 492.5 354 L 493 355.5 L 490.5 360 L 490 358.5 L 492.5 354 Z " /><path fill="rgb(23,149,238)" stroke="rgb(23,149,238)" stroke-width="1" opacity="0.49411764705882355" d="M 22.5 361 Q 45.8 412.2 85.5 447 Q 113.7 472.8 151 489.5 L 149.5 490 Q 97.4 465.6 62 424.5 L 37 390.5 L 22 362.5 L 22.5 361 Z " /><path fill="rgb(23,149,238)" stroke="rgb(23,149,238)" stroke-width="1" opacity="0.49411764705882355" d="M 489.5 361 L 490 362.5 Q 465.9 413.9 425.5 449 Q 398 474 361.5 490 L 361.5 489 Q 413.2 465.7 448 425.5 Q 473.1 397.6 489.5 361 Z " /><path fill="rgb(23,149,238)" stroke="rgb(23,149,238)" stroke-width="1" opacity="0.49411764705882355" d="M 224.5 406 L 225 408.5 L 218.5 414 L 141.5 414 L 141.5 413 L 218.5 413 L 224 408.5 L 224.5 406 Z " /><path fill="rgb(23,149,238)" stroke="rgb(23,149,238)" stroke-width="1" opacity="0.49411764705882355" d="M 287.5 406 L 291.5 412 L 293.5 413 L 371 413.5 L 293.5 414 L 287 408.5 L 287.5 406 Z " /><path fill="rgb(23,149,238)" stroke="rgb(23,149,238)" stroke-width="1" opacity="0.49411764705882355" d="M 152.5 490 L 158 492.5 L 156.5 493 L 152.5 491 L 152.5 490 Z " /><path fill="rgb(23,149,238)" stroke="rgb(23,149,238)" stroke-width="1" opacity="0.49411764705882355" d="M 358.5 490 L 360 490.5 L 354.5 493 L 354.5 492 L 358.5 490 Z " /><path fill="rgb(23,149,238)" stroke="rgb(23,149,238)" stroke-width="1" opacity="0.49411764705882355" d="M 159.5 493 L 163 494.5 L 161.5 495 L 159.5 493 Z " /><path fill="rgb(23,149,238)" stroke="rgb(23,149,238)" stroke-width="1" opacity="0.49411764705882355" d="M 351.5 493 L 353 493.5 L 349.5 495 L 349.5 494 L 351.5 493 Z " /><path fill="rgb(23,149,238)" stroke="rgb(23,149,238)" stroke-width="1" opacity="0.49411764705882355" d="M 164.5 495 L 174 498.5 L 172.5 499 L 164.5 496 L 164.5 495 Z " /><path fill="rgb(23,149,238)" stroke="rgb(23,149,238)" stroke-width="1" opacity="0.49411764705882355" d="M 346.5 495 L 348 495.5 L 338.5 499 L 338.5 498 L 346.5 495 Z " /><path fill="rgb(23,149,238)" stroke="rgb(23,149,238)" stroke-width="1" opacity="0.49411764705882355" d="M 175.5 499 L 184 501.5 L 181.5 502 L 175.5 500 L 175.5 499 Z " /><path fill="rgb(23,149,238)" stroke="rgb(23,149,238)" stroke-width="1" opacity="0.49411764705882355" d="M 331.5 500 L 334 500.5 L 328.5 502 L 328.5 501 L 331.5 500 Z " /><path fill="rgb(23,149,238)" stroke="rgb(23,149,238)" stroke-width="1" opacity="0.49411764705882355" d="M 185.5 502 L 191 503.5 L 188.5 504 L 185.5 503 L 185.5 502 Z " /><path fill="rgb(23,149,238)" stroke="rgb(23,149,238)" stroke-width="1" opacity="0.49411764705882355" d="M 324.5 502 L 327 502.5 L 321.5 504 L 321.5 503 L 324.5 502 Z " /><path fill="rgb(23,149,238)" stroke="rgb(23,149,238)" stroke-width="1" opacity="0.49411764705882355" d="M 192.5 504 L 195 504.5 L 192.5 505 L 192.5 504 Z " /><path fill="rgb(23,149,238)" stroke="rgb(23,149,238)" stroke-width="1" opacity="0.49411764705882355" d="M 317.5 504 L 320 504.5 L 317.5 505 L 317.5 504 Z " /><path fill="rgb(23,149,238)" stroke="rgb(23,149,238)" stroke-width="1" opacity="0.49411764705882355" d="M 196.5 505 L 204 506.5 L 200.5 507 L 196.5 506 L 196.5 505 Z " /><path fill="rgb(23,149,238)" stroke="rgb(23,149,238)" stroke-width="1" opacity="0.49411764705882355" d="M 312.5 505 L 316 505.5 L 308.5 507 L 308.5 506 L 312.5 505 Z " /><path fill="rgb(23,149,238)" stroke="rgb(23,149,238)" stroke-width="1" opacity="0.49411764705882355" d="M 205.5 507 L 209 507.5 L 205.5 508 L 205.5 507 Z " /><path fill="rgb(23,149,238)" stroke="rgb(23,149,238)" stroke-width="1" opacity="0.49411764705882355" d="M 303.5 507 L 307 507.5 L 303.5 508 L 303.5 507 Z " /><path fill="rgb(23,149,238)" stroke="rgb(23,149,238)" stroke-width="1" opacity="0.49411764705882355" d="M 211.5 508 L 215 508.5 L 211.5 509 L 211.5 508 Z " /><path fill="rgb(23,149,238)" stroke="rgb(23,149,238)" stroke-width="1" opacity="0.49411764705882355" d="M 297.5 508 L 302 508.5 L 297.5 509 L 297.5 508 Z " /><path fill="rgb(23,149,238)" stroke="rgb(23,149,238)" stroke-width="1" opacity="0.49411764705882355" d="M 216.5 509 L 222 509.5 L 216.5 510 L 216.5 509 Z " /><path fill="rgb(23,149,238)" stroke="rgb(23,149,238)" stroke-width="1" opacity="0.49411764705882355" d="M 290.5 509 L 296 509.5 L 290.5 510 L 290.5 509 Z " /><path fill="rgb(23,149,238)" stroke="rgb(23,149,238)" stroke-width="1" opacity="0.49411764705882355" d="M 224.5 510 L 230 510.5 L 224.5 511 L 224.5 510 Z " /><path fill="rgb(23,149,238)" stroke="rgb(23,149,238)" stroke-width="1" opacity="0.49411764705882355" d="M 282.5 510 L 288 510.5 L 282.5 511 L 282.5 510 Z " /><path fill="rgb(23,149,238)" stroke="rgb(23,149,238)" stroke-width="1" opacity="0.49411764705882355" d="M 233.5 511 L 244 511.5 L 233.5 512 L 233.5 511 Z " /><path fill="rgb(23,149,238)" stroke="rgb(23,149,238)" stroke-width="1" opacity="0.49411764705882355" d="M 268.5 511 L 279 511.5 L 268.5 512 L 268.5 511 Z " /><path fill="rgb(23,143,235)" stroke="rgb(23,143,235)" stroke-width="1" opacity="0.996078431372549" d="M 244.5 0 L 254 0.5 L 244.5 1 L 244.5 0 Z " /><path fill="rgb(23,143,235)" stroke="rgb(23,143,235)" stroke-width="1" opacity="0.996078431372549" d="M 258.5 0 L 268 0.5 L 258.5 1 L 258.5 0 Z " /><path fill="rgb(23,143,235)" stroke="rgb(23,143,235)" stroke-width="1" opacity="0.996078431372549" d="M 230.5 1 L 233 1.5 L 230.5 2 L 230.5 1 Z " /><path fill="rgb(23,143,235)" stroke="rgb(23,143,235)" stroke-width="1" opacity="0.996078431372549" d="M 279.5 1 L 282 1.5 L 279.5 2 L 279.5 1 Z " /><path fill="rgb(23,143,235)" stroke="rgb(23,143,235)" stroke-width="1" opacity="0.996078431372549" d="M 121.5 38 L 120.5 40 L 121.5 38 Z " /><path fill="rgb(23,143,235)" stroke="rgb(23,143,235)" stroke-width="1" opacity="0.996078431372549" d="M 390.5 38 L 391.5 40 L 390.5 38 Z " /><path fill="rgb(23,143,235)" stroke="rgb(23,143,235)" stroke-width="1" opacity="0.996078431372549" d="M 118.5 40 L 117.5 42 L 118.5 40 Z " /><path fill="rgb(23,143,235)" stroke="rgb(23,143,235)" stroke-width="1" opacity="0.996078431372549" d="M 393.5 40 L 394.5 42 L 393.5 40 Z " /><path fill="rgb(23,143,235)" stroke="rgb(23,143,235)" stroke-width="1" opacity="0.996078431372549" d="M 112.5 44 L 111.5 46 L 112.5 44 Z " /><path fill="rgb(23,143,235)" stroke="rgb(23,143,235)" stroke-width="1" opacity="0.996078431372549" d="M 109.5 46 L 108.5 48 L 109.5 46 Z " /><path fill="rgb(23,143,235)" stroke="rgb(23,143,235)" stroke-width="1" opacity="0.996078431372549" d="M 402.5 46 L 403.5 48 L 402.5 46 Z " /><path fill="rgb(23,143,235)" stroke="rgb(23,143,235)" stroke-width="1" opacity="0.996078431372549" d="M 405.5 48 L 406.5 50 L 405.5 48 Z " /><path fill="rgb(23,143,235)" stroke="rgb(23,143,235)" stroke-width="1" opacity="0.996078431372549" d="M 102.5 51 L 100.5 54 L 102.5 51 Z " /><path fill="rgb(23,143,235)" stroke="rgb(23,143,235)" stroke-width="1" opacity="0.996078431372549" d="M 409.5 51 L 411.5 54 L 409.5 51 Z " /><path fill="rgb(23,143,235)" stroke="rgb(23,143,235)" stroke-width="1" opacity="0.996078431372549" d="M 413.5 54 L 415.5 57 L 413.5 54 Z " /><path fill="rgb(23,143,235)" stroke="rgb(23,143,235)" stroke-width="1" opacity="0.996078431372549" d="M 97.5 55 L 96.5 57 L 97.5 55 Z " /><path fill="rgb(23,143,235)" stroke="rgb(23,143,235)" stroke-width="1" opacity="0.996078431372549" d="M 93.5 58 L 89.5 63 L 93.5 58 Z " /><path fill="rgb(23,143,235)" stroke="rgb(23,143,235)" stroke-width="1" opacity="0.996078431372549" d="M 418.5 58 L 422.5 63 L 418.5 58 Z " /><path fill="rgb(23,143,235)" stroke="rgb(23,143,235)" stroke-width="1" opacity="0.996078431372549" d="M 86.5 64 L 80.5 71 L 86.5 64 Z " /><path fill="rgb(23,143,235)" stroke="rgb(23,143,235)" stroke-width="1" opacity="0.996078431372549" d="M 425.5 64 L 434.5 74 L 425.5 64 Z " /><path fill="rgb(23,143,235)" stroke="rgb(23,143,235)" stroke-width="1" opacity="0.996078431372549" d="M 438.5 77 L 447.5 87 L 438.5 77 Z " /><path fill="rgb(23,143,235)" stroke="rgb(23,143,235)" stroke-width="1" opacity="0.996078431372549" d="M 70.5 80 L 64.5 87 L 70.5 80 Z " /><path fill="rgb(23,143,235)" stroke="rgb(23,143,235)" stroke-width="1" opacity="0.996078431372549" d="M 62.5 89 L 58.5 94 L 62.5 89 Z " /><path fill="rgb(23,143,235)" stroke="rgb(23,143,235)" stroke-width="1" opacity="0.996078431372549" d="M 449.5 89 L 453.5 94 L 449.5 89 Z " /><path fill="rgb(23,143,235)" stroke="rgb(23,143,235)" stroke-width="1" opacity="0.996078431372549" d="M 56.5 96 L 54.5 99 L 56.5 96 Z " /><path fill="rgb(23,143,235)" stroke="rgb(23,143,235)" stroke-width="1" opacity="0.996078431372549" d="M 455.5 96 L 456.5 98 L 455.5 96 Z " /><path fill="rgb(23,143,235)" stroke="rgb(23,143,235)" stroke-width="1" opacity="0.996078431372549" d="M 53.5 100 L 51.5 103 L 53.5 100 Z " /><path fill="rgb(23,143,235)" stroke="rgb(23,143,235)" stroke-width="1" opacity="0.996078431372549" d="M 458.5 100 L 460.5 103 L 458.5 100 Z " /><path fill="rgb(23,143,235)" stroke="rgb(23,143,235)" stroke-width="1" opacity="0.996078431372549" d="M 245.5 101 L 232.5 115 L 245.5 101 Z " /><path fill="rgb(23,143,235)" stroke="rgb(23,143,235)" stroke-width="1" opacity="0.996078431372549" d="M 266.5 101 L 283.5 119 L 266.5 101 Z " /><path fill="rgb(23,143,235)" stroke="rgb(23,143,235)" stroke-width="1" opacity="0.996078431372549" d="M 49.5 105 L 48.5 107 L 49.5 105 Z " /><path fill="rgb(23,143,235)" stroke="rgb(23,143,235)" stroke-width="1" opacity="0.996078431372549" d="M 462.5 105 L 463.5 107 L 462.5 105 Z " /><path fill="rgb(23,143,235)" stroke="rgb(23,143,235)" stroke-width="1" opacity="0.996078431372549" d="M 47.5 108 L 46.5 110 L 47.5 108 Z " /><path fill="rgb(23,143,235)" stroke="rgb(23,143,235)" stroke-width="1" opacity="0.996078431372549" d="M 464.5 108 L 465.5 110 L 464.5 108 Z " /><path fill="rgb(23,143,235)" stroke="rgb(23,143,235)" stroke-width="1" opacity="0.996078431372549" d="M 466.5 111 L 467.5 113 L 466.5 111 Z " /><path fill="rgb(23,143,235)" stroke="rgb(23,143,235)" stroke-width="1" opacity="0.996078431372549" d="M 41.5 117 L 40.5 119 L 41.5 117 Z " /><path fill="rgb(23,143,235)" stroke="rgb(23,143,235)" stroke-width="1" opacity="0.996078431372549" d="M 39.5 120 L 38.5 122 L 39.5 120 Z " /><path fill="rgb(23,143,235)" stroke="rgb(23,143,235)" stroke-width="1" opacity="0.996078431372549" d="M 472.5 120 L 473.5 122 L 472.5 120 Z " /><path fill="rgb(23,143,235)" stroke="rgb(23,143,235)" stroke-width="1" opacity="0.996078431372549" d="M 213.5 134 L 173.5 175 L 213.5 134 Z " /><path fill="rgb(23,143,235)" stroke="rgb(23,143,235)" stroke-width="1" opacity="0.996078431372549" d="M 303.5 139 L 342.5 179 L 303.5 139 Z " /><path fill="rgb(23,143,235)" stroke="rgb(23,143,235)" stroke-width="1" opacity="0.996078431372549" d="M 246.5 148 L 245.5 150 L 246.5 148 Z " /><path fill="rgb(23,143,235)" stroke="rgb(23,143,235)" stroke-width="1" opacity="0.996078431372549" d="M 264.5 148 L 265.5 150 L 264.5 148 Z " /><path fill="rgb(23,143,235)" stroke="rgb(23,143,235)" stroke-width="1" opacity="0.996078431372549" d="M 242.5 152 L 203.5 192 L 242.5 152 Z " /><path fill="rgb(23,143,235)" stroke="rgb(23,143,235)" stroke-width="1" opacity="0.996078431372549" d="M 270.5 154 L 309.5 194 L 270.5 154 Z " /><path fill="rgb(23,143,235)" stroke="rgb(23,143,235)" stroke-width="1" opacity="0.996078431372549" d="M 250.5 171 L 214.5 208 L 250.5 171 Z " /><path fill="rgb(23,143,235)" stroke="rgb(23,143,235)" stroke-width="1" opacity="0.996078431372549" d="M 274.5 185 L 313.5 225 L 274.5 185 Z " /><path fill="rgb(23,143,235)" stroke="rgb(23,143,235)" stroke-width="1" opacity="0.996078431372549" d="M 154.5 194 L 114.5 235 L 154.5 194 Z " /><path fill="rgb(23,143,235)" stroke="rgb(23,143,235)" stroke-width="1" opacity="0.996078431372549" d="M 363.5 200 L 401.5 239 L 363.5 200 Z " /><path fill="rgb(23,143,235)" stroke="rgb(23,143,235)" stroke-width="1" opacity="0.996078431372549" d="M 182.5 213 L 144.5 252 L 182.5 213 Z " /><path fill="rgb(23,143,235)" stroke="rgb(23,143,235)" stroke-width="1" opacity="0.996078431372549" d="M 328.5 213 L 368.5 254 L 328.5 213 Z " /><path fill="rgb(23,143,235)" stroke="rgb(23,143,235)" stroke-width="1" opacity="0.996078431372549" d="M 195.5 227 L 155.5 268 L 195.5 227 Z " /><path fill="rgb(23,143,235)" stroke="rgb(23,143,235)" stroke-width="1" opacity="0.996078431372549" d="M 1.5 230 L 2 233.5 L 1 233.5 L 1.5 230 Z " /><path fill="rgb(23,143,235)" stroke="rgb(23,143,235)" stroke-width="1" opacity="0.996078431372549" d="M 510.5 230 L 511 233.5 L 510 233.5 L 510.5 230 Z " /><path fill="rgb(23,143,235)" stroke="rgb(23,143,235)" stroke-width="1" opacity="0.996078431372549" d="M 0.5 244 L 1 267.5 L 0 267.5 L 0.5 244 Z " /><path fill="rgb(23,143,235)" stroke="rgb(23,143,235)" stroke-width="1" opacity="0.996078431372549" d="M 511.5 245 L 512 266.5 L 511 266.5 L 511.5 245 Z " /><path fill="rgb(23,143,235)" stroke="rgb(23,143,235)" stroke-width="1" opacity="0.996078431372549" d="M 95.5 254 L 87.5 263 L 95.5 254 Z " /><path fill="rgb(23,143,235)" stroke="rgb(23,143,235)" stroke-width="1" opacity="0.996078431372549" d="M 421.5 259 L 424.5 263 L 421.5 259 Z " /><path fill="rgb(23,143,235)" stroke="rgb(23,143,235)" stroke-width="1" opacity="0.996078431372549" d="M 124.5 272 L 112.5 285 L 124.5 272 Z " /><path fill="rgb(23,143,235)" stroke="rgb(23,143,235)" stroke-width="1" opacity="0.996078431372549" d="M 387.5 273 L 398.5 285 L 387.5 273 Z " /><path fill="rgb(23,143,235)" stroke="rgb(23,143,235)" stroke-width="1" opacity="0.996078431372549" d="M 362.5 274 L 377.5 290 L 362.5 274 Z " /><path fill="rgb(23,143,235)" stroke="rgb(23,143,235)" stroke-width="1" opacity="0.996078431372549" d="M 1.5 278 L 2 281.5 L 1 281.5 L 1.5 278 Z " /><path fill="rgb(23,143,235)" stroke="rgb(23,143,235)" stroke-width="1" opacity="0.996078431372549" d="M 510.5 278 L 511 281.5 L 510 281.5 L 510.5 278 Z " /><path fill="rgb(23,143,235)" stroke="rgb(23,143,235)" stroke-width="1" opacity="0.996078431372549" d="M 422.5 283 L 421.5 285 L 422.5 283 Z " /><path fill="rgb(23,143,235)" stroke="rgb(23,143,235)" stroke-width="1" opacity="0.996078431372549" d="M 110.5 285 L 109.5 287 L 110.5 285 Z " /><path fill="rgb(23,143,235)" stroke="rgb(23,143,235)" stroke-width="1" opacity="0.996078431372549" d="M 135.5 288 L 134.5 290 L 135.5 288 Z " /><path fill="rgb(23,143,235)" stroke="rgb(23,143,235)" stroke-width="1" opacity="0.996078431372549" d="M 407.5 288 L 413 288.5 L 407.5 289 L 407.5 288 Z " /><path fill="rgb(23,143,235)" stroke="rgb(23,143,235)" stroke-width="1" opacity="0.996078431372549" d="M 228.5 336 L 227.5 338 L 228.5 336 Z " /><path fill="rgb(23,143,235)" stroke="rgb(23,143,235)" stroke-width="1" opacity="0.996078431372549" d="M 283.5 336 L 284.5 338 L 283.5 336 Z " /><path fill="rgb(23,143,235)" stroke="rgb(23,143,235)" stroke-width="1" opacity="0.996078431372549" d="M 225.5 341 L 226 406.5 L 225 406.5 L 225.5 341 Z " /><path fill="rgb(23,143,235)" stroke="rgb(23,143,235)" stroke-width="1" opacity="0.996078431372549" d="M 286.5 341 L 287 406.5 L 286 406.5 L 286.5 341 Z " /><path fill="rgb(23,143,235)" stroke="rgb(23,143,235)" stroke-width="1" opacity="0.996078431372549" d="M 31.5 378 L 32.5 380 L 31.5 378 Z " /><path fill="rgb(23,143,235)" stroke="rgb(23,143,235)" stroke-width="1" opacity="0.996078431372549" d="M 35.5 385 L 36.5 387 L 35.5 385 Z " /><path fill="rgb(23,143,235)" stroke="rgb(23,143,235)" stroke-width="1" opacity="0.996078431372549" d="M 476.5 385 L 475.5 387 L 476.5 385 Z " /><path fill="rgb(23,143,235)" stroke="rgb(23,143,235)" stroke-width="1" opacity="0.996078431372549" d="M 38.5 390 L 39.5 392 L 38.5 390 Z " /><path fill="rgb(23,143,235)" stroke="rgb(23,143,235)" stroke-width="1" opacity="0.996078431372549" d="M 473.5 390 L 472.5 392 L 473.5 390 Z " /><path fill="rgb(23,143,235)" stroke="rgb(23,143,235)" stroke-width="1" opacity="0.996078431372549" d="M 40.5 393 L 41.5 395 L 40.5 393 Z " /><path fill="rgb(23,143,235)" stroke="rgb(23,143,235)" stroke-width="1" opacity="0.996078431372549" d="M 471.5 393 L 470.5 395 L 471.5 393 Z " /><path fill="rgb(23,143,235)" stroke="rgb(23,143,235)" stroke-width="1" opacity="0.996078431372549" d="M 44.5 399 L 45.5 401 L 44.5 399 Z " /><path fill="rgb(23,143,235)" stroke="rgb(23,143,235)" stroke-width="1" opacity="0.996078431372549" d="M 467.5 399 L 466.5 401 L 467.5 399 Z " /><path fill="rgb(23,143,235)" stroke="rgb(23,143,235)" stroke-width="1" opacity="0.996078431372549" d="M 46.5 402 L 47.5 404 L 46.5 402 Z " /><path fill="rgb(23,143,235)" stroke="rgb(23,143,235)" stroke-width="1" opacity="0.996078431372549" d="M 465.5 402 L 464.5 404 L 465.5 402 Z " /><path fill="rgb(23,143,235)" stroke="rgb(23,143,235)" stroke-width="1" opacity="0.996078431372549" d="M 48.5 405 L 49.5 407 L 48.5 405 Z " /><path fill="rgb(23,143,235)" stroke="rgb(23,143,235)" stroke-width="1" opacity="0.996078431372549" d="M 51.5 409 L 53.5 412 L 51.5 409 Z " /><path fill="rgb(23,143,235)" stroke="rgb(23,143,235)" stroke-width="1" opacity="0.996078431372549" d="M 224.5 409 L 221.5 413 L 224.5 409 Z " /><path fill="rgb(23,143,235)" stroke="rgb(23,143,235)" stroke-width="1" opacity="0.996078431372549" d="M 287.5 409 L 290.5 413 L 287.5 409 Z " /><path fill="rgb(23,143,235)" stroke="rgb(23,143,235)" stroke-width="1" opacity="0.996078431372549" d="M 460.5 409 L 458.5 412 L 460.5 409 Z " /><path fill="rgb(23,143,235)" stroke="rgb(23,143,235)" stroke-width="1" opacity="0.996078431372549" d="M 135.5 410 L 137.5 413 L 135.5 410 Z " /><path fill="rgb(23,143,235)" stroke="rgb(23,143,235)" stroke-width="1" opacity="0.996078431372549" d="M 376.5 410 L 374.5 413 L 376.5 410 Z " /><path fill="rgb(23,143,235)" stroke="rgb(23,143,235)" stroke-width="1" opacity="0.996078431372549" d="M 55.5 414 L 56.5 416 L 55.5 414 Z " /><path fill="rgb(23,143,235)" stroke="rgb(23,143,235)" stroke-width="1" opacity="0.996078431372549" d="M 456.5 414 L 455.5 416 L 456.5 414 Z " /><path fill="rgb(23,143,235)" stroke="rgb(23,143,235)" stroke-width="1" opacity="0.996078431372549" d="M 58.5 418 L 62.5 423 L 58.5 418 Z " /><path fill="rgb(23,143,235)" stroke="rgb(23,143,235)" stroke-width="1" opacity="0.996078431372549" d="M 453.5 418 L 449.5 423 L 453.5 418 Z " /><path fill="rgb(23,143,235)" stroke="rgb(23,143,235)" stroke-width="1" opacity="0.996078431372549" d="M 64.5 425 L 73.5 435 L 64.5 425 Z " /><path fill="rgb(23,143,235)" stroke="rgb(23,143,235)" stroke-width="1" opacity="0.996078431372549" d="M 447.5 425 L 438.5 435 L 447.5 425 Z " /><path fill="rgb(23,143,235)" stroke="rgb(23,143,235)" stroke-width="1" opacity="0.996078431372549" d="M 77.5 438 L 85.5 447 L 77.5 438 Z " /><path fill="rgb(23,143,235)" stroke="rgb(23,143,235)" stroke-width="1" opacity="0.996078431372549" d="M 434.5 438 L 425.5 448 L 434.5 438 Z " /><path fill="rgb(23,143,235)" stroke="rgb(23,143,235)" stroke-width="1" opacity="0.996078431372549" d="M 89.5 449 L 93.5 454 L 89.5 449 Z " /><path fill="rgb(23,143,235)" stroke="rgb(23,143,235)" stroke-width="1" opacity="0.996078431372549" d="M 422.5 449 L 418.5 454 L 422.5 449 Z " /><path fill="rgb(23,143,235)" stroke="rgb(23,143,235)" stroke-width="1" opacity="0.996078431372549" d="M 96.5 455 L 97.5 457 L 96.5 455 Z " /><path fill="rgb(23,143,235)" stroke="rgb(23,143,235)" stroke-width="1" opacity="0.996078431372549" d="M 415.5 455 L 414.5 457 L 415.5 455 Z " /><path fill="rgb(23,143,235)" stroke="rgb(23,143,235)" stroke-width="1" opacity="0.996078431372549" d="M 100.5 458 L 102.5 461 L 100.5 458 Z " /><path fill="rgb(23,143,235)" stroke="rgb(23,143,235)" stroke-width="1" opacity="0.996078431372549" d="M 411.5 458 L 409.5 461 L 411.5 458 Z " /><path fill="rgb(23,143,235)" stroke="rgb(23,143,235)" stroke-width="1" opacity="0.996078431372549" d="M 407.5 461 L 405.5 464 L 407.5 461 Z " /><path fill="rgb(23,143,235)" stroke="rgb(23,143,235)" stroke-width="1" opacity="0.996078431372549" d="M 108.5 464 L 109.5 466 L 108.5 464 Z " /><path fill="rgb(23,143,235)" stroke="rgb(23,143,235)" stroke-width="1" opacity="0.996078431372549" d="M 403.5 464 L 402.5 466 L 403.5 464 Z " /><path fill="rgb(23,143,235)" stroke="rgb(23,143,235)" stroke-width="1" opacity="0.996078431372549" d="M 111.5 466 L 112.5 468 L 111.5 466 Z " /><path fill="rgb(23,143,235)" stroke="rgb(23,143,235)" stroke-width="1" opacity="0.996078431372549" d="M 400.5 466 L 399.5 468 L 400.5 466 Z " /><path fill="rgb(23,143,235)" stroke="rgb(23,143,235)" stroke-width="1" opacity="0.996078431372549" d="M 394.5 470 L 393.5 472 L 394.5 470 Z " /><path fill="rgb(23,143,235)" stroke="rgb(23,143,235)" stroke-width="1" opacity="0.996078431372549" d="M 120.5 472 L 121.5 474 L 120.5 472 Z " /><path fill="rgb(23,143,235)" stroke="rgb(23,143,235)" stroke-width="1" opacity="0.996078431372549" d="M 391.5 472 L 390.5 474 L 391.5 472 Z " /><path fill="rgb(23,143,235)" stroke="rgb(23,143,235)" stroke-width="1" opacity="0.996078431372549" d="M 125.5 475 L 126.5 477 L 125.5 475 Z " /><path fill="rgb(23,143,235)" stroke="rgb(23,143,235)" stroke-width="1" opacity="0.996078431372549" d="M 386.5 475 L 385.5 477 L 386.5 475 Z " /><path fill="rgb(23,143,235)" stroke="rgb(23,143,235)" stroke-width="1" opacity="0.996078431372549" d="M 230.5 510 L 234 510.5 L 230.5 511 L 230.5 510 Z " /><path fill="rgb(23,143,235)" stroke="rgb(23,143,235)" stroke-width="1" opacity="0.996078431372549" d="M 278.5 510 L 282 510.5 L 278.5 511 L 278.5 510 Z " /><path fill="rgb(23,143,235)" stroke="rgb(23,143,235)" stroke-width="1" opacity="0.996078431372549" d="M 244.5 511 L 254 511.5 L 244.5 512 L 244.5 511 Z " /><path fill="rgb(23,143,235)" stroke="rgb(23,143,235)" stroke-width="1" opacity="0.996078431372549" d="M 258.5 511 L 268 511.5 L 258.5 512 L 258.5 511 Z " /><path fill="rgb(0,0,0)" stroke="rgb(0,0,0)" stroke-width="1" opacity="0" d="M 0 0 L 233 0.5 L 205.5 4 L 181.5 10 Q 155.5 18 133.5 30 Q 92 53 62 87.5 Q 35.8 117.3 19 156.5 Q 10.4 176.9 5 200.5 L 1 223.5 L 0.5 233 L 0 0 Z " /><path fill="rgb(0,0,0)" stroke="rgb(0,0,0)" stroke-width="1" opacity="0" d="M 279.5 0 L 512 0 L 512 232.5 L 511 232.5 L 509 210.5 L 502 181.5 Q 494 155.5 482 133.5 Q 459 92 424.5 62 Q 397.3 38.2 362.5 22 L 323.5 8 L 295.5 2 L 279.5 1 L 279.5 0 Z " /><path fill="rgb(0,0,0)" stroke="rgb(0,0,0)" stroke-width="1" opacity="0" d="M 252.5 99 Q 261.7 97.8 265.5 102 L 291 127.5 L 424 263.5 Q 427 267.5 426 275.5 L 420.5 284 Q 416.5 288 408.5 288 L 400.5 285 L 381 265.5 L 264.5 147 Q 260.2 143.3 250.5 145 L 246.5 147 L 190 203.5 L 111.5 284 Q 107.3 288.3 97.5 287 L 89 281.5 L 86 275.5 L 86 267.5 L 88 263.5 L 108 242.5 L 246.5 102 L 252.5 99 Z " /><path fill="rgb(0,0,0)" stroke="rgb(0,0,0)" stroke-width="1" opacity="0" d="M 252.5 171 L 258.5 171 L 329 241.5 L 377 290.5 L 377 407.5 L 373.5 412 L 371.5 413 L 293.5 413 L 288 408.5 L 287 405.5 L 287 339.5 L 283.5 335 L 281.5 334 L 230.5 334 L 226 337.5 L 225 339.5 L 225 405.5 L 220.5 412 L 218.5 413 L 140.5 413 L 136 409.5 L 135 407.5 L 135 290.5 L 252.5 171 Z " /><path fill="rgb(0,0,0)" stroke="rgb(0,0,0)" stroke-width="1" opacity="0" d="M 0.5 279 L 3 301.5 L 10 330.5 Q 18 356.5 30 378.5 Q 52.6 419.4 86.5 449 Q 116.6 475.9 156.5 493 Q 176.9 501.6 200.5 507 L 233 511.5 L 0 512 L 0.5 279 Z " /><path fill="rgb(0,0,0)" stroke="rgb(0,0,0)" stroke-width="1" opacity="0" d="M 511.5 279 L 512 512 L 279 511.5 L 301.5 509 L 330.5 502 Q 356.5 494 378.5 482 Q 419.4 459.4 449 425.5 Q 475.9 395.4 493 355.5 Q 501.6 335.1 507 311.5 L 511.5 279 Z " /><path fill="rgb(23,143,235)" stroke="rgb(23,143,235)" stroke-width="1" opacity="1" d="M 254.5 0 L 258.5 1 L 278.5 1 L 279.5 2 L 300.5 4 L 326.5 10 L 352.5 19 Q 402.8 40.2 438 76.5 Q 475.4 113.6 496 167.5 L 506 201.5 L 510 224.5 L 510 233.5 L 511 234.5 L 511 277.5 L 510 278.5 L 510 287.5 L 509 288.5 L 508 300.5 L 502 326.5 L 490 359.5 Q 469.2 405.2 435.5 438 Q 401 472.5 352.5 493 L 326.5 502 L 300.5 508 L 288.5 509 L 287.5 510 L 278.5 510 L 277.5 511 L 258.5 511 L 254.5 512 L 253.5 511 L 224.5 510 L 201.5 506 L 185.5 502 L 152.5 490 Q 106.8 469.2 74 435.5 Q 36.7 398.3 16 344.5 L 6 310.5 L 2 287.5 L 2 278.5 L 1 277.5 L 1 234.5 L 2 233.5 L 2 224.5 L 3 223.5 L 4 211.5 L 10 185.5 L 22 152.5 Q 43.8 104.8 79.5 71 Q 114.7 36.7 164.5 17 Q 186.1 8.6 211.5 4 L 232.5 2 L 233.5 1 L 253.5 1 L 254.5 0 Z M 253 98 L 246 101 L 87 263 L 85 268 Q 84 277 87 281 L 97 288 Q 108 290 113 285 L 243 152 L 252 146 L 260 146 L 267 150 L 387 274 Q 394 285 408 289 Q 417 289 422 285 L 427 277 Q 428 267 425 263 L 284 119 L 267 101 Q 262 97 253 98 Z M 253 170 L 251 171 L 134 290 L 134 409 L 135 411 L 140 414 L 220 414 L 222 413 L 226 407 L 226 340 L 232 335 L 281 335 L 283 336 L 286 340 L 286 407 L 287 410 L 293 414 L 373 414 L 375 413 L 378 409 L 378 290 L 314 225 L 260 170 L 253 170 Z " /></svg>