<svg width="30" height="30" viewBox="0 0 30 30" fill="none" xmlns="http://www.w3.org/2000/svg">
<g clip-path="url(#clip0_140_1411)">
<path opacity="0.811765" d="M5.88867 3.75L6.15234 3.7793L5.88867 3.80859V3.75Z" fill="black" stroke="black"/>
<path opacity="0.811765" d="M23.877 3.75L24.1406 3.7793L23.877 3.80859V3.75Z" fill="black" stroke="black"/>
<path opacity="0.811765" d="M24.8145 3.98438L24.9609 4.07227L24.873 4.04297L24.8145 3.98438Z" fill="black" stroke="black"/>
<path opacity="0.811765" d="M4.83398 4.16016L4.7168 4.33594" stroke="black"/>
<path opacity="0.811765" d="M25.166 4.16016L25.2832 4.33594" stroke="black"/>
<path opacity="0.811765" d="M4.54102 4.39453L4.42383 4.57031" stroke="black"/>
<path opacity="0.811765" d="M25.459 4.39453L25.5762 4.57031" stroke="black"/>
<path opacity="0.811765" d="M4.30664 4.6875L4.18945 4.86328" stroke="black"/>
<path opacity="0.811765" d="M25.752 4.74609L25.8105 4.86328" stroke="black"/>
<path opacity="0.811765" d="M4.07227 5.03906L4.04297 5.12695L4.01367 5.21484L3.98438 5.12695L4.07227 5.03906Z" fill="black" stroke="black"/>
<path opacity="0.811765" d="M25.9277 5.03906L26.0156 5.18555H25.957L25.9277 5.03906Z" fill="black" stroke="black"/>
<path opacity="0.811765" d="M3.7793 5.85938L3.80859 6.12305H3.75L3.7793 5.85938Z" fill="black" stroke="black"/>
<path opacity="0.811765" d="M26.2207 5.85938L26.25 6.12305H26.1914L26.2207 5.85938Z" fill="black" stroke="black"/>
<path opacity="0.811765" d="M3.7793 20.0977L3.80859 20.3613H3.75L3.7793 20.0977Z" fill="black" stroke="black"/>
<path opacity="0.811765" d="M26.2207 20.0977L26.25 20.3613H26.1914L26.2207 20.0977Z" fill="black" stroke="black"/>
<path opacity="0.811765" d="M4.01367 21.0352L4.10156 21.1816L3.98438 21.123L4.01367 21.0352Z" fill="black" stroke="black"/>
<path opacity="0.811765" d="M25.9863 21.0352L26.0156 21.123L25.8984 21.1816L25.9863 21.0352Z" fill="black" stroke="black"/>
<path opacity="0.811765" d="M4.18945 21.3867L4.30664 21.5625" stroke="black"/>
<path opacity="0.811765" d="M25.8105 21.3867L25.752 21.5039" stroke="black"/>
<path opacity="0.811765" d="M4.42383 21.6797L4.54102 21.8555" stroke="black"/>
<path opacity="0.811765" d="M25.5762 21.6797L25.459 21.8555" stroke="black"/>
<path opacity="0.811765" d="M4.7168 21.9141L4.83398 22.0898" stroke="black"/>
<path opacity="0.811765" d="M25.2832 21.9141L25.166 22.0898" stroke="black"/>
<path opacity="0.811765" d="M24.9316 22.1484L24.873 22.2656L24.7852 22.2363L24.9316 22.1484Z" fill="black" stroke="black"/>
<path opacity="0.811765" d="M5.88867 22.4414L6.15234 22.4707L5.88867 22.5V22.4414Z" fill="black" stroke="black"/>
<path opacity="0.811765" d="M23.877 22.4414L24.1406 22.4707L23.877 22.5V22.4414Z" fill="black" stroke="black"/>
<path opacity="0.811765" d="M9.69727 22.5L9.75586 22.6172" stroke="black"/>
<path opacity="0.811765" d="M20.3613 22.5L20.3027 22.6172" stroke="black"/>
<path opacity="0.811765" d="M9.93164 22.6758L9.99023 22.793" stroke="black"/>
<path opacity="0.811765" d="M20.127 22.6758L20.0684 22.793" stroke="black"/>
<path opacity="0.811765" d="M10.166 22.8516L10.2246 22.9688" stroke="black"/>
<path opacity="0.811765" d="M19.8926 22.8516L19.834 22.9688" stroke="black"/>
<path opacity="0.811765" d="M10.4004 23.0273L10.459 23.1445" stroke="black"/>
<path opacity="0.811765" d="M19.6582 23.0273L19.5996 23.1445" stroke="black"/>
<path opacity="0.811765" d="M10.6348 23.2031L10.6934 23.3203" stroke="black"/>
<path opacity="0.811765" d="M19.4238 23.2031L19.3652 23.3203" stroke="black"/>
<path opacity="0.811765" d="M10.8691 23.3789L10.9863 23.5547" stroke="black"/>
<path opacity="0.811765" d="M19.1895 23.3789L19.1309 23.4961" stroke="black"/>
<path opacity="0.811765" d="M11.1035 23.5547L11.2207 23.7305" stroke="black"/>
<path opacity="0.811765" d="M18.9551 23.5547L18.8965 23.6719" stroke="black"/>
<path opacity="0.811765" d="M11.3379 23.7305L11.4551 23.9062" stroke="black"/>
<path opacity="0.811765" d="M18.7207 23.7305L18.6621 23.8477" stroke="black"/>
<path opacity="0.811765" d="M18.4863 23.9062L18.4277 24.0234" stroke="black"/>
<path opacity="0.811765" d="M11.6309 23.9648L11.6895 24.082" stroke="black"/>
<path opacity="0.811765" d="M18.3105 24.0234L18.1934 24.1992" stroke="black"/>
<path opacity="0.811765" d="M11.8652 24.1406L11.9238 24.2578" stroke="black"/>
<path opacity="0.811765" d="M18.0762 24.1992L17.959 24.375" stroke="black"/>
<path opacity="0.811765" d="M12.0996 24.3164L12.1582 24.4336" stroke="black"/>
<path opacity="0.811765" d="M17.8418 24.375L17.7246 24.5508" stroke="black"/>
<path opacity="0.811765" d="M12.334 24.4922L12.3926 24.6094" stroke="black"/>
<path opacity="0.811765" d="M17.6074 24.5508L17.4902 24.7266" stroke="black"/>
<path opacity="0.811765" d="M12.5684 24.668L12.6855 24.8438" stroke="black"/>
<path opacity="0.811765" d="M17.373 24.7266L17.2559 24.9023" stroke="black"/>
<path opacity="0.811765" d="M12.8027 24.8438L12.9199 25.0195" stroke="black"/>
<path opacity="0.811765" d="M17.1387 24.9023L17.0215 25.0781" stroke="black"/>
<path opacity="0.811765" d="M13.0371 25.0195L13.1543 25.1953" stroke="black"/>
<path opacity="0.811765" d="M16.9043 25.0781L16.7871 25.2539" stroke="black"/>
<path opacity="0.811765" d="M13.3301 25.2539L13.3887 25.3711" stroke="black"/>
<path opacity="0.811765" d="M16.6699 25.2539L16.5527 25.4297" stroke="black"/>
<path opacity="0.811765" d="M13.5645 25.4297L13.623 25.5469" stroke="black"/>
<path opacity="0.811765" d="M16.4355 25.4297L16.3184 25.6055" stroke="black"/>
<path opacity="0.811765" d="M13.7988 25.6055L13.8574 25.7227" stroke="black"/>
<path opacity="0.811765" d="M16.2012 25.6055L16.084 25.7812" stroke="black"/>
<path opacity="0.811765" d="M14.0332 25.7812L14.0918 25.8984" stroke="black"/>
<path opacity="0.811765" d="M15.9668 25.7812L15.8496 25.957" stroke="black"/>
<path opacity="0.811765" d="M14.2676 25.957L14.3262 26.0742" stroke="black"/>
<path opacity="0.811765" d="M15.7324 25.957L15.6738 26.0742" stroke="black"/>
<path opacity="0.811765" d="M14.7363 26.1914L14.9414 26.2207L14.7363 26.25V26.1914Z" fill="black" stroke="black"/>
<path opacity="0.811765" d="M15.0879 26.1914L15.293 26.2207L15.0879 26.25V26.1914Z" fill="black" stroke="black"/>
<path d="M6.18164 3.75H23.8184C23.8887 3.85938 24.0449 3.87891 24.2871 3.80859L25.1074 4.16016L25.7227 4.7168L26.0742 5.36133L26.25 6.18164V20.0684L26.0742 20.8887C25.918 21.3184 25.6738 21.6602 25.3418 21.9141L24.6387 22.3242L23.8184 22.5H20.3613L15.791 25.957L15.3809 26.1914L14.9707 26.25C14.9199 26.1641 14.8027 26.1445 14.6191 26.1914L14.209 25.957L9.69727 22.5H6.18164C6.11523 22.3945 5.95898 22.375 5.71289 22.4414C5.12695 22.2852 4.66797 22.002 4.33594 21.5918L3.92578 20.8887L3.75 20.0684V6.18164L3.92578 5.36133C4.08984 4.93945 4.33398 4.59766 4.6582 4.33594L5.36133 3.92578L6.18164 3.75ZM9.375 12.4805V15H9.43359H20.625V12.5391V12.4805H9.375Z" fill="black" stroke="black"/>
</g>
<defs>
<clipPath id="clip0_140_1411">
<rect width="30" height="30" fill="white"/>
</clipPath>
</defs>
</svg>
