<svg width="512" height="512" version="1.1" xmlns="http://www.w3.org/2000/svg" desc="Created with imagetracer.js version 1.2.6" ><path fill="rgb(0,0,0)" stroke="rgb(0,0,0)" stroke-width="1" opacity="0.796078431372549" d="M 138.5 0 L 146 0.5 L 138.5 1 L 138.5 0 Z " /><path fill="rgb(0,0,0)" stroke="rgb(0,0,0)" stroke-width="1" opacity="0.796078431372549" d="M 366.5 0 L 374 0.5 L 366.5 1 L 366.5 0 Z " /><path fill="rgb(0,0,0)" stroke="rgb(0,0,0)" stroke-width="1" opacity="0.796078431372549" d="M 129.5 1 L 132 1.5 L 129.5 2 L 129.5 1 Z " /><path fill="rgb(0,0,0)" stroke="rgb(0,0,0)" stroke-width="1" opacity="0.796078431372549" d="M 380.5 1 L 383 1.5 L 380.5 2 L 380.5 1 Z " /><path fill="rgb(0,0,0)" stroke="rgb(0,0,0)" stroke-width="1" opacity="0.796078431372549" d="M 69.5 23 L 68.5 25 L 69.5 23 Z " /><path fill="rgb(0,0,0)" stroke="rgb(0,0,0)" stroke-width="1" opacity="0.796078431372549" d="M 442.5 23 L 443.5 25 L 442.5 23 Z " /><path fill="rgb(0,0,0)" stroke="rgb(0,0,0)" stroke-width="1" opacity="0.796078431372549" d="M 66.5 25 L 65.5 27 L 66.5 25 Z " /><path fill="rgb(0,0,0)" stroke="rgb(0,0,0)" stroke-width="1" opacity="0.796078431372549" d="M 445.5 25 L 446.5 27 L 445.5 25 Z " /><path fill="rgb(0,0,0)" stroke="rgb(0,0,0)" stroke-width="1" opacity="0.796078431372549" d="M 448.5 27 L 449.5 29 L 448.5 27 Z " /><path fill="rgb(0,0,0)" stroke="rgb(0,0,0)" stroke-width="1" opacity="0.796078431372549" d="M 59.5 30 L 58.5 32 L 59.5 30 Z " /><path fill="rgb(0,0,0)" stroke="rgb(0,0,0)" stroke-width="1" opacity="0.796078431372549" d="M 452.5 30 L 453.5 32 L 452.5 30 Z " /><path fill="rgb(0,0,0)" stroke="rgb(0,0,0)" stroke-width="1" opacity="0.796078431372549" d="M 54.5 34 L 52.5 37 L 54.5 34 Z " /><path fill="rgb(0,0,0)" stroke="rgb(0,0,0)" stroke-width="1" opacity="0.796078431372549" d="M 457.5 34 L 459.5 37 L 457.5 34 Z " /><path fill="rgb(0,0,0)" stroke="rgb(0,0,0)" stroke-width="1" opacity="0.796078431372549" d="M 465.5 41 L 470.5 47 L 465.5 41 Z " /><path fill="rgb(0,0,0)" stroke="rgb(0,0,0)" stroke-width="1" opacity="0.796078431372549" d="M 45.5 42 L 41.5 47 L 45.5 42 Z " /><path fill="rgb(0,0,0)" stroke="rgb(0,0,0)" stroke-width="1" opacity="0.796078431372549" d="M 36.5 52 L 34.5 55 L 36.5 52 Z " /><path fill="rgb(0,0,0)" stroke="rgb(0,0,0)" stroke-width="1" opacity="0.796078431372549" d="M 475.5 52 L 477.5 55 L 475.5 52 Z " /><path fill="rgb(0,0,0)" stroke="rgb(0,0,0)" stroke-width="1" opacity="0.796078431372549" d="M 31.5 58 L 30.5 60 L 31.5 58 Z " /><path fill="rgb(0,0,0)" stroke="rgb(0,0,0)" stroke-width="1" opacity="0.796078431372549" d="M 480.5 58 L 481.5 60 L 480.5 58 Z " /><path fill="rgb(0,0,0)" stroke="rgb(0,0,0)" stroke-width="1" opacity="0.796078431372549" d="M 28.5 62 L 27.5 64 L 28.5 62 Z " /><path fill="rgb(0,0,0)" stroke="rgb(0,0,0)" stroke-width="1" opacity="0.796078431372549" d="M 26.5 65 L 25.5 67 L 26.5 65 Z " /><path fill="rgb(0,0,0)" stroke="rgb(0,0,0)" stroke-width="1" opacity="0.796078431372549" d="M 485.5 65 L 486.5 67 L 485.5 65 Z " /><path fill="rgb(0,0,0)" stroke="rgb(0,0,0)" stroke-width="1" opacity="0.796078431372549" d="M 24.5 68 L 23.5 70 L 24.5 68 Z " /><path fill="rgb(0,0,0)" stroke="rgb(0,0,0)" stroke-width="1" opacity="0.796078431372549" d="M 487.5 68 L 488.5 70 L 487.5 68 Z " /><path fill="rgb(0,0,0)" stroke="rgb(0,0,0)" stroke-width="1" opacity="0.796078431372549" d="M 218.5 98 L 219 104.5 L 218 104.5 L 218.5 98 Z " /><path fill="rgb(0,0,0)" stroke="rgb(0,0,0)" stroke-width="1" opacity="0.796078431372549" d="M 293.5 98 L 294 103.5 L 293 103.5 L 293.5 98 Z " /><path fill="rgb(0,0,0)" stroke="rgb(0,0,0)" stroke-width="1" opacity="0.796078431372549" d="M 292.5 115 L 293 121.5 L 292 121.5 L 292.5 115 Z " /><path fill="rgb(0,0,0)" stroke="rgb(0,0,0)" stroke-width="1" opacity="0.796078431372549" d="M 219.5 116 L 220 122.5 L 219 122.5 L 219.5 116 Z " /><path fill="rgb(0,0,0)" stroke="rgb(0,0,0)" stroke-width="1" opacity="0.796078431372549" d="M 1.5 129 L 2 131.5 L 1 131.5 L 1.5 129 Z " /><path fill="rgb(0,0,0)" stroke="rgb(0,0,0)" stroke-width="1" opacity="0.796078431372549" d="M 510.5 129 L 511 131.5 L 510 131.5 L 510.5 129 Z " /><path fill="rgb(0,0,0)" stroke="rgb(0,0,0)" stroke-width="1" opacity="0.796078431372549" d="M 291.5 132 L 292 138.5 L 291 138.5 L 291.5 132 Z " /><path fill="rgb(0,0,0)" stroke="rgb(0,0,0)" stroke-width="1" opacity="0.796078431372549" d="M 220.5 133 L 221 139.5 L 220 139.5 L 220.5 133 Z " /><path fill="rgb(0,0,0)" stroke="rgb(0,0,0)" stroke-width="1" opacity="0.796078431372549" d="M 0.5 138 L 1 145.5 L 0 145.5 L 0.5 138 Z " /><path fill="rgb(0,0,0)" stroke="rgb(0,0,0)" stroke-width="1" opacity="0.796078431372549" d="M 511.5 138 L 512 145.5 L 511 145.5 L 511.5 138 Z " /><path fill="rgb(0,0,0)" stroke="rgb(0,0,0)" stroke-width="1" opacity="0.796078431372549" d="M 290.5 150 L 291 156.5 L 290 156.5 L 290.5 150 Z " /><path fill="rgb(0,0,0)" stroke="rgb(0,0,0)" stroke-width="1" opacity="0.796078431372549" d="M 221.5 151 L 222 157.5 L 221 157.5 L 221.5 151 Z " /><path fill="rgb(0,0,0)" stroke="rgb(0,0,0)" stroke-width="1" opacity="0.796078431372549" d="M 289.5 167 L 290 173.5 L 289 173.5 L 289.5 167 Z " /><path fill="rgb(0,0,0)" stroke="rgb(0,0,0)" stroke-width="1" opacity="0.796078431372549" d="M 222.5 169 L 223 175.5 L 222 175.5 L 222.5 169 Z " /><path fill="rgb(0,0,0)" stroke="rgb(0,0,0)" stroke-width="1" opacity="0.796078431372549" d="M 288.5 185 L 289 190.5 L 288 190.5 L 288.5 185 Z " /><path fill="rgb(0,0,0)" stroke="rgb(0,0,0)" stroke-width="1" opacity="0.796078431372549" d="M 223.5 186 L 224 192.5 L 223 192.5 L 223.5 186 Z " /><path fill="rgb(0,0,0)" stroke="rgb(0,0,0)" stroke-width="1" opacity="0.796078431372549" d="M 287.5 202 L 288 208.5 L 287 208.5 L 287.5 202 Z " /><path fill="rgb(0,0,0)" stroke="rgb(0,0,0)" stroke-width="1" opacity="0.796078431372549" d="M 224.5 204 L 225 210.5 L 224 210.5 L 224.5 204 Z " /><path fill="rgb(0,0,0)" stroke="rgb(0,0,0)" stroke-width="1" opacity="0.796078431372549" d="M 286.5 219 L 287 225.5 L 286 225.5 L 286.5 219 Z " /><path fill="rgb(0,0,0)" stroke="rgb(0,0,0)" stroke-width="1" opacity="0.796078431372549" d="M 225.5 222 L 226 228.5 L 225 228.5 L 225.5 222 Z " /><path fill="rgb(0,0,0)" stroke="rgb(0,0,0)" stroke-width="1" opacity="0.796078431372549" d="M 285.5 237 L 286 243.5 L 285 243.5 L 285.5 237 Z " /><path fill="rgb(0,0,0)" stroke="rgb(0,0,0)" stroke-width="1" opacity="0.796078431372549" d="M 226.5 240 L 227 246.5 L 226 246.5 L 226.5 240 Z " /><path fill="rgb(0,0,0)" stroke="rgb(0,0,0)" stroke-width="1" opacity="0.796078431372549" d="M 284.5 254 L 285 260.5 L 284 260.5 L 284.5 254 Z " /><path fill="rgb(0,0,0)" stroke="rgb(0,0,0)" stroke-width="1" opacity="0.796078431372549" d="M 227.5 257 L 228 263.5 L 227 263.5 L 227.5 257 Z " /><path fill="rgb(0,0,0)" stroke="rgb(0,0,0)" stroke-width="1" opacity="0.796078431372549" d="M 283.5 272 L 284 278.5 L 283 278.5 L 283.5 272 Z " /><path fill="rgb(0,0,0)" stroke="rgb(0,0,0)" stroke-width="1" opacity="0.796078431372549" d="M 228.5 275 L 229 281.5 L 228 281.5 L 228.5 275 Z " /><path fill="rgb(0,0,0)" stroke="rgb(0,0,0)" stroke-width="1" opacity="0.796078431372549" d="M 282.5 289 L 283 295.5 L 282 295.5 L 282.5 289 Z " /><path fill="rgb(0,0,0)" stroke="rgb(0,0,0)" stroke-width="1" opacity="0.796078431372549" d="M 229.5 293 L 230 299.5 L 229 299.5 L 229.5 293 Z " /><path fill="rgb(0,0,0)" stroke="rgb(0,0,0)" stroke-width="1" opacity="0.796078431372549" d="M 281.5 307 L 282 312.5 L 281 312.5 L 281.5 307 Z " /><path fill="rgb(0,0,0)" stroke="rgb(0,0,0)" stroke-width="1" opacity="0.796078431372549" d="M 230.5 310 L 231 316.5 L 230 316.5 L 230.5 310 Z " /><path fill="rgb(0,0,0)" stroke="rgb(0,0,0)" stroke-width="1" opacity="0.796078431372549" d="M 280.5 324 L 281 325.5 L 279.5 327 L 231.5 327 L 231.5 326 L 279.5 326 L 280.5 324 Z " /><path fill="rgb(0,0,0)" stroke="rgb(0,0,0)" stroke-width="1" opacity="0.796078431372549" d="M 261.5 344 L 264 344.5 L 261.5 345 L 261.5 344 Z " /><path fill="rgb(0,0,0)" stroke="rgb(0,0,0)" stroke-width="1" opacity="0.796078431372549" d="M 277.5 350 L 278.5 352 L 277.5 350 Z " /><path fill="rgb(0,0,0)" stroke="rgb(0,0,0)" stroke-width="1" opacity="0.796078431372549" d="M 233.5 351 L 232.5 353 L 233.5 351 Z " /><path fill="rgb(0,0,0)" stroke="rgb(0,0,0)" stroke-width="1" opacity="0.796078431372549" d="M 226.5 358 L 225.5 360 L 226.5 358 Z " /><path fill="rgb(0,0,0)" stroke="rgb(0,0,0)" stroke-width="1" opacity="0.796078431372549" d="M 0.5 366 L 1 373.5 L 0 373.5 L 0.5 366 Z " /><path fill="rgb(0,0,0)" stroke="rgb(0,0,0)" stroke-width="1" opacity="0.796078431372549" d="M 511.5 366 L 512 373.5 L 511 373.5 L 511.5 366 Z " /><path fill="rgb(0,0,0)" stroke="rgb(0,0,0)" stroke-width="1" opacity="0.796078431372549" d="M 218.5 376 L 219 379.5 L 218 379.5 L 218.5 376 Z " /><path fill="rgb(0,0,0)" stroke="rgb(0,0,0)" stroke-width="1" opacity="0.796078431372549" d="M 293.5 376 L 294 379.5 L 293 379.5 L 293.5 376 Z " /><path fill="rgb(0,0,0)" stroke="rgb(0,0,0)" stroke-width="1" opacity="0.796078431372549" d="M 1.5 380 L 2 382.5 L 1 382.5 L 1.5 380 Z " /><path fill="rgb(0,0,0)" stroke="rgb(0,0,0)" stroke-width="1" opacity="0.796078431372549" d="M 510.5 380 L 511 382.5 L 510 382.5 L 510.5 380 Z " /><path fill="rgb(0,0,0)" stroke="rgb(0,0,0)" stroke-width="1" opacity="0.796078431372549" d="M 218.5 383 L 219 386.5 L 218 386.5 L 218.5 383 Z " /><path fill="rgb(0,0,0)" stroke="rgb(0,0,0)" stroke-width="1" opacity="0.796078431372549" d="M 293.5 383 L 294 386.5 L 293 386.5 L 293.5 383 Z " /><path fill="rgb(0,0,0)" stroke="rgb(0,0,0)" stroke-width="1" opacity="0.796078431372549" d="M 226.5 405 L 231.5 411 L 226.5 405 Z " /><path fill="rgb(0,0,0)" stroke="rgb(0,0,0)" stroke-width="1" opacity="0.796078431372549" d="M 285.5 405 L 279.5 412 L 285.5 405 Z " /><path fill="rgb(0,0,0)" stroke="rgb(0,0,0)" stroke-width="1" opacity="0.796078431372549" d="M 234.5 412 L 235.5 414 L 234.5 412 Z " /><path fill="rgb(0,0,0)" stroke="rgb(0,0,0)" stroke-width="1" opacity="0.796078431372549" d="M 252.5 419 L 260 419.5 L 252.5 420 L 252.5 419 Z " /><path fill="rgb(0,0,0)" stroke="rgb(0,0,0)" stroke-width="1" opacity="0.796078431372549" d="M 23.5 442 L 24.5 444 L 23.5 442 Z " /><path fill="rgb(0,0,0)" stroke="rgb(0,0,0)" stroke-width="1" opacity="0.796078431372549" d="M 488.5 442 L 487.5 444 L 488.5 442 Z " /><path fill="rgb(0,0,0)" stroke="rgb(0,0,0)" stroke-width="1" opacity="0.796078431372549" d="M 25.5 445 L 26.5 447 L 25.5 445 Z " /><path fill="rgb(0,0,0)" stroke="rgb(0,0,0)" stroke-width="1" opacity="0.796078431372549" d="M 486.5 445 L 485.5 447 L 486.5 445 Z " /><path fill="rgb(0,0,0)" stroke="rgb(0,0,0)" stroke-width="1" opacity="0.796078431372549" d="M 27.5 448 L 28.5 450 L 27.5 448 Z " /><path fill="rgb(0,0,0)" stroke="rgb(0,0,0)" stroke-width="1" opacity="0.796078431372549" d="M 30.5 452 L 31.5 454 L 30.5 452 Z " /><path fill="rgb(0,0,0)" stroke="rgb(0,0,0)" stroke-width="1" opacity="0.796078431372549" d="M 481.5 452 L 480.5 454 L 481.5 452 Z " /><path fill="rgb(0,0,0)" stroke="rgb(0,0,0)" stroke-width="1" opacity="0.796078431372549" d="M 34.5 457 L 36.5 460 L 34.5 457 Z " /><path fill="rgb(0,0,0)" stroke="rgb(0,0,0)" stroke-width="1" opacity="0.796078431372549" d="M 477.5 457 L 475.5 460 L 477.5 457 Z " /><path fill="rgb(0,0,0)" stroke="rgb(0,0,0)" stroke-width="1" opacity="0.796078431372549" d="M 41.5 465 L 45.5 470 L 41.5 465 Z " /><path fill="rgb(0,0,0)" stroke="rgb(0,0,0)" stroke-width="1" opacity="0.796078431372549" d="M 469.5 466 L 465.5 471 L 469.5 466 Z " /><path fill="rgb(0,0,0)" stroke="rgb(0,0,0)" stroke-width="1" opacity="0.796078431372549" d="M 52.5 475 L 54.5 478 L 52.5 475 Z " /><path fill="rgb(0,0,0)" stroke="rgb(0,0,0)" stroke-width="1" opacity="0.796078431372549" d="M 459.5 475 L 457.5 478 L 459.5 475 Z " /><path fill="rgb(0,0,0)" stroke="rgb(0,0,0)" stroke-width="1" opacity="0.796078431372549" d="M 58.5 480 L 59.5 482 L 58.5 480 Z " /><path fill="rgb(0,0,0)" stroke="rgb(0,0,0)" stroke-width="1" opacity="0.796078431372549" d="M 453.5 480 L 452.5 482 L 453.5 480 Z " /><path fill="rgb(0,0,0)" stroke="rgb(0,0,0)" stroke-width="1" opacity="0.796078431372549" d="M 449.5 483 L 448.5 485 L 449.5 483 Z " /><path fill="rgb(0,0,0)" stroke="rgb(0,0,0)" stroke-width="1" opacity="0.796078431372549" d="M 65.5 485 L 66.5 487 L 65.5 485 Z " /><path fill="rgb(0,0,0)" stroke="rgb(0,0,0)" stroke-width="1" opacity="0.796078431372549" d="M 446.5 485 L 445.5 487 L 446.5 485 Z " /><path fill="rgb(0,0,0)" stroke="rgb(0,0,0)" stroke-width="1" opacity="0.796078431372549" d="M 443.5 487 L 442.5 489 L 443.5 487 Z " /><path fill="rgb(0,0,0)" stroke="rgb(0,0,0)" stroke-width="1" opacity="0.796078431372549" d="M 129.5 510 L 132 510.5 L 129.5 511 L 129.5 510 Z " /><path fill="rgb(0,0,0)" stroke="rgb(0,0,0)" stroke-width="1" opacity="0.796078431372549" d="M 380.5 510 L 383 510.5 L 380.5 511 L 380.5 510 Z " /><path fill="rgb(0,0,0)" stroke="rgb(0,0,0)" stroke-width="1" opacity="0.796078431372549" d="M 138.5 511 L 146 511.5 L 138.5 512 L 138.5 511 Z " /><path fill="rgb(0,0,0)" stroke="rgb(0,0,0)" stroke-width="1" opacity="0.796078431372549" d="M 366.5 511 L 374 511.5 L 366.5 512 L 366.5 511 Z " /><path fill="rgb(0,0,0)" stroke="rgb(0,0,0)" stroke-width="1" opacity="1" d="M 146.5 0 L 365.5 0 L 366.5 1 L 386.5 2 Q 412.1 6.4 431.5 17 Q 456.9 30.6 475 51.5 Q 487.8 66.2 497 84.5 L 505 104.5 L 511 132.5 L 511 145.5 L 512 146.5 L 512 365.5 L 511 366.5 L 511 379.5 L 508 396.5 Q 504 413.5 497 427.5 Q 483 455.5 460.5 475 Q 445.8 487.8 427.5 497 L 407.5 505 L 379.5 511 L 366.5 511 L 365.5 512 L 146.5 512 L 145.5 511 L 132.5 511 L 115.5 508 L 98.5 503 L 84.5 497 Q 56.5 483 37 460.5 Q 24.2 445.8 15 427.5 L 7 407.5 L 1 379.5 L 1 366.5 L 0 365.5 L 0 146.5 L 1 145.5 L 1 132.5 L 4 115.5 L 9 98.5 L 15 84.5 Q 29 56.5 51.5 37 Q 71.4 19.4 98.5 9 L 125.5 2 L 145.5 1 L 146.5 0 Z M 218 89 L 220 140 L 221 141 L 221 158 L 222 159 L 222 176 L 223 177 L 223 193 L 224 194 L 224 211 L 225 212 L 225 229 L 226 230 L 226 247 L 227 248 L 227 264 L 228 265 L 228 282 L 229 283 L 229 300 L 230 301 L 230 317 L 231 318 L 231 327 L 232 327 L 280 327 L 281 326 L 281 314 L 282 313 L 284 262 L 285 261 L 285 245 L 286 244 L 286 227 L 287 226 L 287 210 L 288 209 L 288 192 L 289 191 L 289 175 L 290 174 L 290 158 L 291 157 L 293 105 L 294 104 L 294 90 L 294 89 L 218 89 Z M 250 344 Q 240 346 234 351 Q 221 359 218 377 L 219 392 L 226 406 Q 235 417 253 420 Q 270 420 280 412 Q 291 403 294 387 Q 295 368 287 360 Q 281 350 270 346 Q 262 342 250 344 Z " /><path fill="rgb(0,0,0)" stroke="rgb(0,0,0)" stroke-width="1" opacity="0.21568627450980393" d="M 134.5 0 L 138 0.5 L 134.5 1 L 134.5 0 Z " /><path fill="rgb(0,0,0)" stroke="rgb(0,0,0)" stroke-width="1" opacity="0.21568627450980393" d="M 374.5 0 L 378 0.5 L 374.5 1 L 374.5 0 Z " /><path fill="rgb(0,0,0)" stroke="rgb(0,0,0)" stroke-width="1" opacity="0.21568627450980393" d="M 126.5 1 L 129 1.5 L 126.5 2 L 126.5 1 Z " /><path fill="rgb(0,0,0)" stroke="rgb(0,0,0)" stroke-width="1" opacity="0.21568627450980393" d="M 383.5 1 L 386 1.5 L 383.5 2 L 383.5 1 Z " /><path fill="rgb(0,0,0)" stroke="rgb(0,0,0)" stroke-width="1" opacity="0.21568627450980393" d="M 64.5 26 L 63.5 28 L 64.5 26 Z " /><path fill="rgb(0,0,0)" stroke="rgb(0,0,0)" stroke-width="1" opacity="0.21568627450980393" d="M 61.5 28 L 60.5 30 L 61.5 28 Z " /><path fill="rgb(0,0,0)" stroke="rgb(0,0,0)" stroke-width="1" opacity="0.21568627450980393" d="M 450.5 28 L 451.5 30 L 450.5 28 Z " /><path fill="rgb(0,0,0)" stroke="rgb(0,0,0)" stroke-width="1" opacity="0.21568627450980393" d="M 57.5 31 L 55.5 34 L 57.5 31 Z " /><path fill="rgb(0,0,0)" stroke="rgb(0,0,0)" stroke-width="1" opacity="0.21568627450980393" d="M 454.5 31 L 456.5 34 L 454.5 31 Z " /><path fill="rgb(0,0,0)" stroke="rgb(0,0,0)" stroke-width="1" opacity="0.21568627450980393" d="M 51.5 36 L 46.5 42 L 51.5 36 Z " /><path fill="rgb(0,0,0)" stroke="rgb(0,0,0)" stroke-width="1" opacity="0.21568627450980393" d="M 460.5 36 L 464.5 41 L 460.5 36 Z " /><path fill="rgb(0,0,0)" stroke="rgb(0,0,0)" stroke-width="1" opacity="0.21568627450980393" d="M 40.5 47 L 36.5 52 L 40.5 47 Z " /><path fill="rgb(0,0,0)" stroke="rgb(0,0,0)" stroke-width="1" opacity="0.21568627450980393" d="M 471.5 47 L 475.5 52 L 471.5 47 Z " /><path fill="rgb(0,0,0)" stroke="rgb(0,0,0)" stroke-width="1" opacity="0.21568627450980393" d="M 33.5 55 L 31.5 58 L 33.5 55 Z " /><path fill="rgb(0,0,0)" stroke="rgb(0,0,0)" stroke-width="1" opacity="0.21568627450980393" d="M 478.5 55 L 480.5 58 L 478.5 55 Z " /><path fill="rgb(0,0,0)" stroke="rgb(0,0,0)" stroke-width="1" opacity="0.21568627450980393" d="M 29.5 60 L 28.5 62 L 29.5 60 Z " /><path fill="rgb(0,0,0)" stroke="rgb(0,0,0)" stroke-width="1" opacity="0.21568627450980393" d="M 482.5 60 L 483.5 62 L 482.5 60 Z " /><path fill="rgb(0,0,0)" stroke="rgb(0,0,0)" stroke-width="1" opacity="0.21568627450980393" d="M 484.5 63 L 485.5 65 L 484.5 63 Z " /><path fill="rgb(0,0,0)" stroke="rgb(0,0,0)" stroke-width="1" opacity="0.21568627450980393" d="M 218.5 91 L 219 97.5 L 218 97.5 L 218.5 91 Z " /><path fill="rgb(0,0,0)" stroke="rgb(0,0,0)" stroke-width="1" opacity="0.21568627450980393" d="M 293.5 91 L 294 97.5 L 293 97.5 L 293.5 91 Z " /><path fill="rgb(0,0,0)" stroke="rgb(0,0,0)" stroke-width="1" opacity="0.21568627450980393" d="M 292.5 108 L 293 114.5 L 292 114.5 L 292.5 108 Z " /><path fill="rgb(0,0,0)" stroke="rgb(0,0,0)" stroke-width="1" opacity="0.21568627450980393" d="M 219.5 109 L 220 115.5 L 219 115.5 L 219.5 109 Z " /><path fill="rgb(0,0,0)" stroke="rgb(0,0,0)" stroke-width="1" opacity="0.21568627450980393" d="M 291.5 125 L 292 131.5 L 291 131.5 L 291.5 125 Z " /><path fill="rgb(0,0,0)" stroke="rgb(0,0,0)" stroke-width="1" opacity="0.21568627450980393" d="M 1.5 126 L 2 128.5 L 1 128.5 L 1.5 126 Z " /><path fill="rgb(0,0,0)" stroke="rgb(0,0,0)" stroke-width="1" opacity="0.21568627450980393" d="M 220.5 126 L 221 132.5 L 220 132.5 L 220.5 126 Z " /><path fill="rgb(0,0,0)" stroke="rgb(0,0,0)" stroke-width="1" opacity="0.21568627450980393" d="M 510.5 126 L 511 128.5 L 510 128.5 L 510.5 126 Z " /><path fill="rgb(0,0,0)" stroke="rgb(0,0,0)" stroke-width="1" opacity="0.21568627450980393" d="M 0.5 134 L 1 137.5 L 0 137.5 L 0.5 134 Z " /><path fill="rgb(0,0,0)" stroke="rgb(0,0,0)" stroke-width="1" opacity="0.21568627450980393" d="M 511.5 134 L 512 137.5 L 511 137.5 L 511.5 134 Z " /><path fill="rgb(0,0,0)" stroke="rgb(0,0,0)" stroke-width="1" opacity="0.21568627450980393" d="M 290.5 143 L 291 149.5 L 290 149.5 L 290.5 143 Z " /><path fill="rgb(0,0,0)" stroke="rgb(0,0,0)" stroke-width="1" opacity="0.21568627450980393" d="M 221.5 144 L 222 150.5 L 221 150.5 L 221.5 144 Z " /><path fill="rgb(0,0,0)" stroke="rgb(0,0,0)" stroke-width="1" opacity="0.21568627450980393" d="M 289.5 160 L 290 166.5 L 289 166.5 L 289.5 160 Z " /><path fill="rgb(0,0,0)" stroke="rgb(0,0,0)" stroke-width="1" opacity="0.21568627450980393" d="M 222.5 162 L 223 168.5 L 222 168.5 L 222.5 162 Z " /><path fill="rgb(0,0,0)" stroke="rgb(0,0,0)" stroke-width="1" opacity="0.21568627450980393" d="M 288.5 178 L 289 184.5 L 288 184.5 L 288.5 178 Z " /><path fill="rgb(0,0,0)" stroke="rgb(0,0,0)" stroke-width="1" opacity="0.21568627450980393" d="M 223.5 179 L 224 185.5 L 223 185.5 L 223.5 179 Z " /><path fill="rgb(0,0,0)" stroke="rgb(0,0,0)" stroke-width="1" opacity="0.21568627450980393" d="M 287.5 195 L 288 201.5 L 287 201.5 L 287.5 195 Z " /><path fill="rgb(0,0,0)" stroke="rgb(0,0,0)" stroke-width="1" opacity="0.21568627450980393" d="M 224.5 197 L 225 203.5 L 224 203.5 L 224.5 197 Z " /><path fill="rgb(0,0,0)" stroke="rgb(0,0,0)" stroke-width="1" opacity="0.21568627450980393" d="M 286.5 213 L 287 218.5 L 286 218.5 L 286.5 213 Z " /><path fill="rgb(0,0,0)" stroke="rgb(0,0,0)" stroke-width="1" opacity="0.21568627450980393" d="M 225.5 215 L 226 221.5 L 225 221.5 L 225.5 215 Z " /><path fill="rgb(0,0,0)" stroke="rgb(0,0,0)" stroke-width="1" opacity="0.21568627450980393" d="M 285.5 230 L 286 236.5 L 285 236.5 L 285.5 230 Z " /><path fill="rgb(0,0,0)" stroke="rgb(0,0,0)" stroke-width="1" opacity="0.21568627450980393" d="M 226.5 233 L 227 239.5 L 226 239.5 L 226.5 233 Z " /><path fill="rgb(0,0,0)" stroke="rgb(0,0,0)" stroke-width="1" opacity="0.21568627450980393" d="M 284.5 247 L 285 253.5 L 284 253.5 L 284.5 247 Z " /><path fill="rgb(0,0,0)" stroke="rgb(0,0,0)" stroke-width="1" opacity="0.21568627450980393" d="M 227.5 250 L 228 256.5 L 227 256.5 L 227.5 250 Z " /><path fill="rgb(0,0,0)" stroke="rgb(0,0,0)" stroke-width="1" opacity="0.21568627450980393" d="M 283.5 265 L 284 271.5 L 283 271.5 L 283.5 265 Z " /><path fill="rgb(0,0,0)" stroke="rgb(0,0,0)" stroke-width="1" opacity="0.21568627450980393" d="M 228.5 268 L 229 274.5 L 228 274.5 L 228.5 268 Z " /><path fill="rgb(0,0,0)" stroke="rgb(0,0,0)" stroke-width="1" opacity="0.21568627450980393" d="M 282.5 282 L 283 288.5 L 282 288.5 L 282.5 282 Z " /><path fill="rgb(0,0,0)" stroke="rgb(0,0,0)" stroke-width="1" opacity="0.21568627450980393" d="M 229.5 286 L 230 292.5 L 229 292.5 L 229.5 286 Z " /><path fill="rgb(0,0,0)" stroke="rgb(0,0,0)" stroke-width="1" opacity="0.21568627450980393" d="M 281.5 300 L 282 306.5 L 281 306.5 L 281.5 300 Z " /><path fill="rgb(0,0,0)" stroke="rgb(0,0,0)" stroke-width="1" opacity="0.21568627450980393" d="M 230.5 303 L 231 309.5 L 230 309.5 L 230.5 303 Z " /><path fill="rgb(0,0,0)" stroke="rgb(0,0,0)" stroke-width="1" opacity="0.21568627450980393" d="M 280.5 317 L 281 323.5 L 280 323.5 L 280.5 317 Z " /><path fill="rgb(0,0,0)" stroke="rgb(0,0,0)" stroke-width="1" opacity="0.21568627450980393" d="M 231.5 321 L 232 325.5 L 231 325.5 L 231.5 321 Z " /><path fill="rgb(0,0,0)" stroke="rgb(0,0,0)" stroke-width="1" opacity="0.21568627450980393" d="M 251.5 344 L 261 344.5 L 251.5 345 L 251.5 344 Z " /><path fill="rgb(0,0,0)" stroke="rgb(0,0,0)" stroke-width="1" opacity="0.21568627450980393" d="M 235.5 350 L 234.5 352 L 235.5 350 Z " /><path fill="rgb(0,0,0)" stroke="rgb(0,0,0)" stroke-width="1" opacity="0.21568627450980393" d="M 279.5 352 L 285.5 359 L 279.5 352 Z " /><path fill="rgb(0,0,0)" stroke="rgb(0,0,0)" stroke-width="1" opacity="0.21568627450980393" d="M 231.5 353 L 227.5 358 L 231.5 353 Z " /><path fill="rgb(0,0,0)" stroke="rgb(0,0,0)" stroke-width="1" opacity="0.21568627450980393" d="M 0.5 374 L 1 377.5 L 0 377.5 L 0.5 374 Z " /><path fill="rgb(0,0,0)" stroke="rgb(0,0,0)" stroke-width="1" opacity="0.21568627450980393" d="M 511.5 374 L 512 377.5 L 511 377.5 L 511.5 374 Z " /><path fill="rgb(0,0,0)" stroke="rgb(0,0,0)" stroke-width="1" opacity="0.21568627450980393" d="M 218.5 380 L 219 382.5 L 218 382.5 L 218.5 380 Z " /><path fill="rgb(0,0,0)" stroke="rgb(0,0,0)" stroke-width="1" opacity="0.21568627450980393" d="M 293.5 380 L 294 382.5 L 293 382.5 L 293.5 380 Z " /><path fill="rgb(0,0,0)" stroke="rgb(0,0,0)" stroke-width="1" opacity="0.21568627450980393" d="M 1.5 383 L 2 385.5 L 1 385.5 L 1.5 383 Z " /><path fill="rgb(0,0,0)" stroke="rgb(0,0,0)" stroke-width="1" opacity="0.21568627450980393" d="M 510.5 383 L 511 385.5 L 510 385.5 L 510.5 383 Z " /><path fill="rgb(0,0,0)" stroke="rgb(0,0,0)" stroke-width="1" opacity="0.21568627450980393" d="M 223.5 400 L 224.5 402 L 223.5 400 Z " /><path fill="rgb(0,0,0)" stroke="rgb(0,0,0)" stroke-width="1" opacity="0.21568627450980393" d="M 225.5 403 L 226.5 405 L 225.5 403 Z " /><path fill="rgb(0,0,0)" stroke="rgb(0,0,0)" stroke-width="1" opacity="0.21568627450980393" d="M 286.5 403 L 285.5 405 L 286.5 403 Z " /><path fill="rgb(0,0,0)" stroke="rgb(0,0,0)" stroke-width="1" opacity="0.21568627450980393" d="M 232.5 410 L 233.5 412 L 232.5 410 Z " /><path fill="rgb(0,0,0)" stroke="rgb(0,0,0)" stroke-width="1" opacity="0.21568627450980393" d="M 278.5 411 L 277.5 413 L 278.5 411 Z " /><path fill="rgb(0,0,0)" stroke="rgb(0,0,0)" stroke-width="1" opacity="0.21568627450980393" d="M 248.5 418 L 251 418.5 L 248.5 419 L 248.5 418 Z " /><path fill="rgb(0,0,0)" stroke="rgb(0,0,0)" stroke-width="1" opacity="0.21568627450980393" d="M 261.5 418 L 264 418.5 L 261.5 419 L 261.5 418 Z " /><path fill="rgb(0,0,0)" stroke="rgb(0,0,0)" stroke-width="1" opacity="0.21568627450980393" d="M 485.5 447 L 484.5 449 L 485.5 447 Z " /><path fill="rgb(0,0,0)" stroke="rgb(0,0,0)" stroke-width="1" opacity="0.21568627450980393" d="M 28.5 450 L 29.5 452 L 28.5 450 Z " /><path fill="rgb(0,0,0)" stroke="rgb(0,0,0)" stroke-width="1" opacity="0.21568627450980393" d="M 483.5 450 L 482.5 452 L 483.5 450 Z " /><path fill="rgb(0,0,0)" stroke="rgb(0,0,0)" stroke-width="1" opacity="0.21568627450980393" d="M 31.5 454 L 33.5 457 L 31.5 454 Z " /><path fill="rgb(0,0,0)" stroke="rgb(0,0,0)" stroke-width="1" opacity="0.21568627450980393" d="M 480.5 454 L 478.5 457 L 480.5 454 Z " /><path fill="rgb(0,0,0)" stroke="rgb(0,0,0)" stroke-width="1" opacity="0.21568627450980393" d="M 36.5 460 L 40.5 465 L 36.5 460 Z " /><path fill="rgb(0,0,0)" stroke="rgb(0,0,0)" stroke-width="1" opacity="0.21568627450980393" d="M 475.5 460 L 470.5 466 L 475.5 460 Z " /><path fill="rgb(0,0,0)" stroke="rgb(0,0,0)" stroke-width="1" opacity="0.21568627450980393" d="M 46.5 470 L 51.5 476 L 46.5 470 Z " /><path fill="rgb(0,0,0)" stroke="rgb(0,0,0)" stroke-width="1" opacity="0.21568627450980393" d="M 464.5 471 L 460.5 476 L 464.5 471 Z " /><path fill="rgb(0,0,0)" stroke="rgb(0,0,0)" stroke-width="1" opacity="0.21568627450980393" d="M 55.5 478 L 57.5 481 L 55.5 478 Z " /><path fill="rgb(0,0,0)" stroke="rgb(0,0,0)" stroke-width="1" opacity="0.21568627450980393" d="M 456.5 478 L 454.5 481 L 456.5 478 Z " /><path fill="rgb(0,0,0)" stroke="rgb(0,0,0)" stroke-width="1" opacity="0.21568627450980393" d="M 60.5 482 L 61.5 484 L 60.5 482 Z " /><path fill="rgb(0,0,0)" stroke="rgb(0,0,0)" stroke-width="1" opacity="0.21568627450980393" d="M 451.5 482 L 450.5 484 L 451.5 482 Z " /><path fill="rgb(0,0,0)" stroke="rgb(0,0,0)" stroke-width="1" opacity="0.21568627450980393" d="M 63.5 484 L 64.5 486 L 63.5 484 Z " /><path fill="rgb(0,0,0)" stroke="rgb(0,0,0)" stroke-width="1" opacity="0.21568627450980393" d="M 69.5 488 L 70.5 490 L 69.5 488 Z " /><path fill="rgb(0,0,0)" stroke="rgb(0,0,0)" stroke-width="1" opacity="0.21568627450980393" d="M 126.5 510 L 129 510.5 L 126.5 511 L 126.5 510 Z " /><path fill="rgb(0,0,0)" stroke="rgb(0,0,0)" stroke-width="1" opacity="0.21568627450980393" d="M 383.5 510 L 386 510.5 L 383.5 511 L 383.5 510 Z " /><path fill="rgb(0,0,0)" stroke="rgb(0,0,0)" stroke-width="1" opacity="0.21568627450980393" d="M 134.5 511 L 138 511.5 L 134.5 512 L 134.5 511 Z " /><path fill="rgb(0,0,0)" stroke="rgb(0,0,0)" stroke-width="1" opacity="0.21568627450980393" d="M 374.5 511 L 378 511.5 L 374.5 512 L 374.5 511 Z " /><path fill="rgb(0,0,0)" stroke="rgb(0,0,0)" stroke-width="1" opacity="0" d="M 0 0 L 134 0.5 L 108.5 5 Q 90.3 10.3 75.5 19 Q 52.6 32.1 36 51.5 Q 20.9 68.9 11 91.5 L 3 116.5 L 0.5 134 L 0 0 Z " /><path fill="rgb(0,0,0)" stroke="rgb(0,0,0)" stroke-width="1" opacity="0" d="M 378.5 0 L 512 0 L 512 133.5 L 511 133.5 L 511 126.5 L 507 108.5 Q 501.7 90.3 493 75.5 Q 479.9 52.6 460.5 36 Q 443.1 20.9 420.5 11 L 395.5 3 L 385.5 1 L 378.5 1 L 378.5 0 Z " /><path fill="rgb(0,0,0)" stroke="rgb(0,0,0)" stroke-width="1" opacity="0" d="M 218 89 L 293.5 89 L 294 90.5 L 293 91.5 L 293 107.5 L 292 108.5 L 291 142.5 L 290 143.5 L 289 177.5 L 288 178.5 L 287 212.5 L 286 213.5 L 286 229.5 L 285 230.5 L 285 246.5 L 284 247.5 L 284 264.5 L 283 265.5 L 283 281.5 L 282 282.5 L 282 299.5 L 281 300.5 L 281 316.5 L 280 317.5 L 280 326 L 232.5 326 Q 231.5 326 232 321.5 L 231 320.5 L 228 250.5 L 227 249.5 L 227 233.5 L 226 232.5 L 226 215.5 L 225 214.5 L 224 179.5 L 223 178.5 L 221 126.5 L 220 125.5 L 220 109.5 L 219 108.5 L 219 91.5 L 218 89 Z " /><path fill="rgb(0,0,0)" stroke="rgb(0,0,0)" stroke-width="1" opacity="0" d="M 248.5 345 Q 262.5 343 270.5 347 Q 280.8 351.7 287 360.5 L 293 375.5 L 293 388.5 Q 289.6 403.1 279.5 411 Q 270.3 419.8 251.5 419 Q 235.5 416 227 405.5 L 220 392.5 Q 217.6 385.4 219 374.5 Q 222.5 359.6 233.5 352 L 248.5 345 Z " /><path fill="rgb(0,0,0)" stroke="rgb(0,0,0)" stroke-width="1" opacity="0" d="M 0.5 378 L 5 403.5 Q 10.3 421.7 19 436.5 Q 32.1 459.4 51.5 476 Q 68.9 491.1 91.5 501 L 116.5 509 L 134 511.5 L 0 512 L 0.5 378 Z " /><path fill="rgb(0,0,0)" stroke="rgb(0,0,0)" stroke-width="1" opacity="0" d="M 511.5 378 L 512 512 L 378 511.5 L 403.5 507 Q 421.7 501.7 436.5 493 Q 459.4 479.9 476 460.5 Q 491.1 443.1 501 420.5 L 509 395.5 L 511.5 378 Z " /></svg>