<svg width="512" height="512" version="1.1" xmlns="http://www.w3.org/2000/svg" desc="Created with imagetracer.js version 1.2.6" ><path fill="rgb(0,0,0)" stroke="rgb(0,0,0)" stroke-width="1" opacity="0.7843137254901961" d="M 223.5 0 L 241 0.5 L 223.5 1 L 223.5 0 Z " /><path fill="rgb(0,0,0)" stroke="rgb(0,0,0)" stroke-width="1" opacity="0.7843137254901961" d="M 271.5 0 L 289 0.5 L 271.5 1 L 271.5 0 Z " /><path fill="rgb(0,0,0)" stroke="rgb(0,0,0)" stroke-width="1" opacity="0.7843137254901961" d="M 198.5 1 L 206 1.5 L 198.5 2 L 198.5 1 Z " /><path fill="rgb(0,0,0)" stroke="rgb(0,0,0)" stroke-width="1" opacity="0.7843137254901961" d="M 306.5 1 L 314 1.5 L 306.5 2 L 306.5 1 Z " /><path fill="rgb(0,0,0)" stroke="rgb(0,0,0)" stroke-width="1" opacity="0.7843137254901961" d="M 181.5 2 L 187 2.5 L 181.5 3 L 181.5 2 Z " /><path fill="rgb(0,0,0)" stroke="rgb(0,0,0)" stroke-width="1" opacity="0.7843137254901961" d="M 325.5 2 L 331 2.5 L 325.5 3 L 325.5 2 Z " /><path fill="rgb(0,0,0)" stroke="rgb(0,0,0)" stroke-width="1" opacity="0.7843137254901961" d="M 167.5 3 L 172 3.5 L 167.5 4 L 167.5 3 Z " /><path fill="rgb(0,0,0)" stroke="rgb(0,0,0)" stroke-width="1" opacity="0.7843137254901961" d="M 341.5 3 L 346 3.5 L 341.5 4 L 341.5 3 Z " /><path fill="rgb(0,0,0)" stroke="rgb(0,0,0)" stroke-width="1" opacity="0.7843137254901961" d="M 155.5 4 L 159 4.5 L 155.5 5 L 155.5 4 Z " /><path fill="rgb(0,0,0)" stroke="rgb(0,0,0)" stroke-width="1" opacity="0.7843137254901961" d="M 353.5 4 L 357 4.5 L 353.5 5 L 353.5 4 Z " /><path fill="rgb(0,0,0)" stroke="rgb(0,0,0)" stroke-width="1" opacity="0.7843137254901961" d="M 144.5 5 L 148 5.5 L 144.5 6 L 144.5 5 Z " /><path fill="rgb(0,0,0)" stroke="rgb(0,0,0)" stroke-width="1" opacity="0.7843137254901961" d="M 364.5 5 L 368 5.5 L 364.5 6 L 364.5 5 Z " /><path fill="rgb(0,0,0)" stroke="rgb(0,0,0)" stroke-width="1" opacity="0.7843137254901961" d="M 433.5 28 L 434.5 30 L 433.5 28 Z " /><path fill="rgb(0,0,0)" stroke="rgb(0,0,0)" stroke-width="1" opacity="0.7843137254901961" d="M 75.5 30 L 74.5 32 L 75.5 30 Z " /><path fill="rgb(0,0,0)" stroke="rgb(0,0,0)" stroke-width="1" opacity="0.7843137254901961" d="M 436.5 30 L 437.5 32 L 436.5 30 Z " /><path fill="rgb(0,0,0)" stroke="rgb(0,0,0)" stroke-width="1" opacity="0.7843137254901961" d="M 439.5 32 L 440.5 34 L 439.5 32 Z " /><path fill="rgb(0,0,0)" stroke="rgb(0,0,0)" stroke-width="1" opacity="0.7843137254901961" d="M 68.5 35 L 67.5 37 L 68.5 35 Z " /><path fill="rgb(0,0,0)" stroke="rgb(0,0,0)" stroke-width="1" opacity="0.7843137254901961" d="M 443.5 35 L 444.5 37 L 443.5 35 Z " /><path fill="rgb(0,0,0)" stroke="rgb(0,0,0)" stroke-width="1" opacity="0.7843137254901961" d="M 64.5 38 L 62.5 41 L 64.5 38 Z " /><path fill="rgb(0,0,0)" stroke="rgb(0,0,0)" stroke-width="1" opacity="0.7843137254901961" d="M 447.5 38 L 449.5 41 L 447.5 38 Z " /><path fill="rgb(0,0,0)" stroke="rgb(0,0,0)" stroke-width="1" opacity="0.7843137254901961" d="M 58.5 43 L 44.5 58 L 58.5 43 Z " /><path fill="rgb(0,0,0)" stroke="rgb(0,0,0)" stroke-width="1" opacity="0.7843137254901961" d="M 453.5 43 L 467.5 58 L 453.5 43 Z " /><path fill="rgb(0,0,0)" stroke="rgb(0,0,0)" stroke-width="1" opacity="0.7843137254901961" d="M 40.5 62 L 39.5 64 L 40.5 62 Z " /><path fill="rgb(0,0,0)" stroke="rgb(0,0,0)" stroke-width="1" opacity="0.7843137254901961" d="M 471.5 62 L 472.5 64 L 471.5 62 Z " /><path fill="rgb(0,0,0)" stroke="rgb(0,0,0)" stroke-width="1" opacity="0.7843137254901961" d="M 37.5 66 L 36.5 68 L 37.5 66 Z " /><path fill="rgb(0,0,0)" stroke="rgb(0,0,0)" stroke-width="1" opacity="0.7843137254901961" d="M 474.5 66 L 475.5 68 L 474.5 66 Z " /><path fill="rgb(0,0,0)" stroke="rgb(0,0,0)" stroke-width="1" opacity="0.7843137254901961" d="M 34.5 70 L 33.5 72 L 34.5 70 Z " /><path fill="rgb(0,0,0)" stroke="rgb(0,0,0)" stroke-width="1" opacity="0.7843137254901961" d="M 477.5 70 L 478.5 72 L 477.5 70 Z " /><path fill="rgb(0,0,0)" stroke="rgb(0,0,0)" stroke-width="1" opacity="0.7843137254901961" d="M 32.5 73 L 31.5 75 L 32.5 73 Z " /><path fill="rgb(0,0,0)" stroke="rgb(0,0,0)" stroke-width="1" opacity="0.7843137254901961" d="M 251.5 88 L 261 88.5 L 251.5 89 L 251.5 88 Z " /><path fill="rgb(0,0,0)" stroke="rgb(0,0,0)" stroke-width="1" opacity="0.7843137254901961" d="M 238.5 94 L 234.5 99 L 238.5 94 Z " /><path fill="rgb(0,0,0)" stroke="rgb(0,0,0)" stroke-width="1" opacity="0.7843137254901961" d="M 273.5 94 L 277.5 99 L 273.5 94 Z " /><path fill="rgb(0,0,0)" stroke="rgb(0,0,0)" stroke-width="1" opacity="0.7843137254901961" d="M 505.5 138 L 506 140.5 L 505 140.5 L 505.5 138 Z " /><path fill="rgb(0,0,0)" stroke="rgb(0,0,0)" stroke-width="1" opacity="0.7843137254901961" d="M 5.5 145 L 6 148.5 L 5 148.5 L 5.5 145 Z " /><path fill="rgb(0,0,0)" stroke="rgb(0,0,0)" stroke-width="1" opacity="0.7843137254901961" d="M 506.5 145 L 507 148.5 L 506 148.5 L 506.5 145 Z " /><path fill="rgb(0,0,0)" stroke="rgb(0,0,0)" stroke-width="1" opacity="0.7843137254901961" d="M 4.5 156 L 5 159.5 L 4 159.5 L 4.5 156 Z " /><path fill="rgb(0,0,0)" stroke="rgb(0,0,0)" stroke-width="1" opacity="0.7843137254901961" d="M 507.5 156 L 508 159.5 L 507 159.5 L 507.5 156 Z " /><path fill="rgb(0,0,0)" stroke="rgb(0,0,0)" stroke-width="1" opacity="0.7843137254901961" d="M 3.5 167 L 4 171.5 L 3 171.5 L 3.5 167 Z " /><path fill="rgb(0,0,0)" stroke="rgb(0,0,0)" stroke-width="1" opacity="0.7843137254901961" d="M 508.5 168 L 509 172.5 L 508 172.5 L 508.5 168 Z " /><path fill="rgb(0,0,0)" stroke="rgb(0,0,0)" stroke-width="1" opacity="0.7843137254901961" d="M 2.5 181 L 3 186.5 L 2 186.5 L 2.5 181 Z " /><path fill="rgb(0,0,0)" stroke="rgb(0,0,0)" stroke-width="1" opacity="0.7843137254901961" d="M 509.5 181 L 510 186.5 L 509 186.5 L 509.5 181 Z " /><path fill="rgb(0,0,0)" stroke="rgb(0,0,0)" stroke-width="1" opacity="0.7843137254901961" d="M 1.5 198 L 2 205.5 L 1 205.5 L 1.5 198 Z " /><path fill="rgb(0,0,0)" stroke="rgb(0,0,0)" stroke-width="1" opacity="0.7843137254901961" d="M 510.5 198 L 511 206.5 L 510 206.5 L 510.5 198 Z " /><path fill="rgb(0,0,0)" stroke="rgb(0,0,0)" stroke-width="1" opacity="0.7843137254901961" d="M 0.5 223 L 1 239.5 L 0 239.5 L 0.5 223 Z " /><path fill="rgb(0,0,0)" stroke="rgb(0,0,0)" stroke-width="1" opacity="0.7843137254901961" d="M 511.5 223 L 512 240.5 L 511 240.5 L 511.5 223 Z " /><path fill="rgb(0,0,0)" stroke="rgb(0,0,0)" stroke-width="1" opacity="0.7843137254901961" d="M 0.5 271 L 1 288.5 L 0 288.5 L 0.5 271 Z " /><path fill="rgb(0,0,0)" stroke="rgb(0,0,0)" stroke-width="1" opacity="0.7843137254901961" d="M 511.5 271 L 512 288.5 L 511 288.5 L 511.5 271 Z " /><path fill="rgb(0,0,0)" stroke="rgb(0,0,0)" stroke-width="1" opacity="0.7843137254901961" d="M 510.5 305 L 511 313.5 L 510 313.5 L 510.5 305 Z " /><path fill="rgb(0,0,0)" stroke="rgb(0,0,0)" stroke-width="1" opacity="0.7843137254901961" d="M 1.5 306 L 2 313.5 L 1 313.5 L 1.5 306 Z " /><path fill="rgb(0,0,0)" stroke="rgb(0,0,0)" stroke-width="1" opacity="0.7843137254901961" d="M 509.5 324 L 510 330.5 L 509 330.5 L 509.5 324 Z " /><path fill="rgb(0,0,0)" stroke="rgb(0,0,0)" stroke-width="1" opacity="0.7843137254901961" d="M 2.5 325 L 3 330.5 L 2 330.5 L 2.5 325 Z " /><path fill="rgb(0,0,0)" stroke="rgb(0,0,0)" stroke-width="1" opacity="0.7843137254901961" d="M 204.5 330 L 308 330.5 L 204.5 331 L 204.5 330 Z " /><path fill="rgb(0,0,0)" stroke="rgb(0,0,0)" stroke-width="1" opacity="0.7843137254901961" d="M 3.5 339 L 4 344.5 L 3 344.5 L 3.5 339 Z " /><path fill="rgb(0,0,0)" stroke="rgb(0,0,0)" stroke-width="1" opacity="0.7843137254901961" d="M 508.5 339 L 509 343.5 L 508 343.5 L 508.5 339 Z " /><path fill="rgb(0,0,0)" stroke="rgb(0,0,0)" stroke-width="1" opacity="0.7843137254901961" d="M 4.5 352 L 5 355.5 L 4 355.5 L 4.5 352 Z " /><path fill="rgb(0,0,0)" stroke="rgb(0,0,0)" stroke-width="1" opacity="0.7843137254901961" d="M 507.5 352 L 508 355.5 L 507 355.5 L 507.5 352 Z " /><path fill="rgb(0,0,0)" stroke="rgb(0,0,0)" stroke-width="1" opacity="0.7843137254901961" d="M 5.5 363 L 6 366.5 L 5 366.5 L 5.5 363 Z " /><path fill="rgb(0,0,0)" stroke="rgb(0,0,0)" stroke-width="1" opacity="0.7843137254901961" d="M 506.5 363 L 507 365.5 L 506 365.5 L 506.5 363 Z " /><path fill="rgb(0,0,0)" stroke="rgb(0,0,0)" stroke-width="1" opacity="0.7843137254901961" d="M 505.5 371 L 506 373.5 L 505 373.5 L 505.5 371 Z " /><path fill="rgb(0,0,0)" stroke="rgb(0,0,0)" stroke-width="1" opacity="0.7843137254901961" d="M 389.5 390 L 390 392.5 L 389 392.5 L 389.5 390 Z " /><path fill="rgb(0,0,0)" stroke="rgb(0,0,0)" stroke-width="1" opacity="0.7843137254901961" d="M 389.5 399 L 390 401.5 L 389 401.5 L 389.5 399 Z " /><path fill="rgb(0,0,0)" stroke="rgb(0,0,0)" stroke-width="1" opacity="0.7843137254901961" d="M 173.5 410 L 172.5 412 L 173.5 410 Z " /><path fill="rgb(0,0,0)" stroke="rgb(0,0,0)" stroke-width="1" opacity="0.7843137254901961" d="M 338.5 410 L 339.5 412 L 338.5 410 Z " /><path fill="rgb(0,0,0)" stroke="rgb(0,0,0)" stroke-width="1" opacity="0.7843137254901961" d="M 127.5 412 L 128.5 414 L 127.5 412 Z " /><path fill="rgb(0,0,0)" stroke="rgb(0,0,0)" stroke-width="1" opacity="0.7843137254901961" d="M 384.5 412 L 383.5 414 L 384.5 412 Z " /><path fill="rgb(0,0,0)" stroke="rgb(0,0,0)" stroke-width="1" opacity="0.7843137254901961" d="M 170.5 414 L 168.5 417 L 170.5 414 Z " /><path fill="rgb(0,0,0)" stroke="rgb(0,0,0)" stroke-width="1" opacity="0.7843137254901961" d="M 341.5 414 L 343.5 417 L 341.5 414 Z " /><path fill="rgb(0,0,0)" stroke="rgb(0,0,0)" stroke-width="1" opacity="0.7843137254901961" d="M 132.5 417 L 133.5 419 L 132.5 417 Z " /><path fill="rgb(0,0,0)" stroke="rgb(0,0,0)" stroke-width="1" opacity="0.7843137254901961" d="M 379.5 417 L 378.5 419 L 379.5 417 Z " /><path fill="rgb(0,0,0)" stroke="rgb(0,0,0)" stroke-width="1" opacity="0.7843137254901961" d="M 145.5 423 L 154 423.5 L 145.5 424 L 145.5 423 Z " /><path fill="rgb(0,0,0)" stroke="rgb(0,0,0)" stroke-width="1" opacity="0.7843137254901961" d="M 358.5 423 L 367 423.5 L 358.5 424 L 358.5 423 Z " /><path fill="rgb(0,0,0)" stroke="rgb(0,0,0)" stroke-width="1" opacity="0.7843137254901961" d="M 29.5 434 L 30.5 436 L 29.5 434 Z " /><path fill="rgb(0,0,0)" stroke="rgb(0,0,0)" stroke-width="1" opacity="0.7843137254901961" d="M 482.5 434 L 481.5 436 L 482.5 434 Z " /><path fill="rgb(0,0,0)" stroke="rgb(0,0,0)" stroke-width="1" opacity="0.7843137254901961" d="M 31.5 437 L 32.5 439 L 31.5 437 Z " /><path fill="rgb(0,0,0)" stroke="rgb(0,0,0)" stroke-width="1" opacity="0.7843137254901961" d="M 480.5 437 L 479.5 439 L 480.5 437 Z " /><path fill="rgb(0,0,0)" stroke="rgb(0,0,0)" stroke-width="1" opacity="0.7843137254901961" d="M 33.5 440 L 34.5 442 L 33.5 440 Z " /><path fill="rgb(0,0,0)" stroke="rgb(0,0,0)" stroke-width="1" opacity="0.7843137254901961" d="M 478.5 440 L 477.5 442 L 478.5 440 Z " /><path fill="rgb(0,0,0)" stroke="rgb(0,0,0)" stroke-width="1" opacity="0.7843137254901961" d="M 36.5 444 L 37.5 446 L 36.5 444 Z " /><path fill="rgb(0,0,0)" stroke="rgb(0,0,0)" stroke-width="1" opacity="0.7843137254901961" d="M 475.5 444 L 474.5 446 L 475.5 444 Z " /><path fill="rgb(0,0,0)" stroke="rgb(0,0,0)" stroke-width="1" opacity="0.7843137254901961" d="M 39.5 448 L 41.5 451 L 39.5 448 Z " /><path fill="rgb(0,0,0)" stroke="rgb(0,0,0)" stroke-width="1" opacity="0.7843137254901961" d="M 472.5 448 L 470.5 451 L 472.5 448 Z " /><path fill="rgb(0,0,0)" stroke="rgb(0,0,0)" stroke-width="1" opacity="0.7843137254901961" d="M 44.5 454 L 58.5 469 L 44.5 454 Z " /><path fill="rgb(0,0,0)" stroke="rgb(0,0,0)" stroke-width="1" opacity="0.7843137254901961" d="M 467.5 454 L 453.5 469 L 467.5 454 Z " /><path fill="rgb(0,0,0)" stroke="rgb(0,0,0)" stroke-width="1" opacity="0.7843137254901961" d="M 62.5 471 L 64.5 474 L 62.5 471 Z " /><path fill="rgb(0,0,0)" stroke="rgb(0,0,0)" stroke-width="1" opacity="0.7843137254901961" d="M 449.5 471 L 447.5 474 L 449.5 471 Z " /><path fill="rgb(0,0,0)" stroke="rgb(0,0,0)" stroke-width="1" opacity="0.7843137254901961" d="M 67.5 475 L 68.5 477 L 67.5 475 Z " /><path fill="rgb(0,0,0)" stroke="rgb(0,0,0)" stroke-width="1" opacity="0.7843137254901961" d="M 444.5 475 L 443.5 477 L 444.5 475 Z " /><path fill="rgb(0,0,0)" stroke="rgb(0,0,0)" stroke-width="1" opacity="0.7843137254901961" d="M 440.5 478 L 439.5 480 L 440.5 478 Z " /><path fill="rgb(0,0,0)" stroke="rgb(0,0,0)" stroke-width="1" opacity="0.7843137254901961" d="M 74.5 480 L 75.5 482 L 74.5 480 Z " /><path fill="rgb(0,0,0)" stroke="rgb(0,0,0)" stroke-width="1" opacity="0.7843137254901961" d="M 437.5 480 L 436.5 482 L 437.5 480 Z " /><path fill="rgb(0,0,0)" stroke="rgb(0,0,0)" stroke-width="1" opacity="0.7843137254901961" d="M 434.5 482 L 433.5 484 L 434.5 482 Z " /><path fill="rgb(0,0,0)" stroke="rgb(0,0,0)" stroke-width="1" opacity="0.7843137254901961" d="M 429.5 485 L 428.5 487 L 429.5 485 Z " /><path fill="rgb(0,0,0)" stroke="rgb(0,0,0)" stroke-width="1" opacity="0.7843137254901961" d="M 137.5 505 L 140 505.5 L 137.5 506 L 137.5 505 Z " /><path fill="rgb(0,0,0)" stroke="rgb(0,0,0)" stroke-width="1" opacity="0.7843137254901961" d="M 372.5 505 L 375 505.5 L 372.5 506 L 372.5 505 Z " /><path fill="rgb(0,0,0)" stroke="rgb(0,0,0)" stroke-width="1" opacity="0.7843137254901961" d="M 144.5 506 L 148 506.5 L 144.5 507 L 144.5 506 Z " /><path fill="rgb(0,0,0)" stroke="rgb(0,0,0)" stroke-width="1" opacity="0.7843137254901961" d="M 364.5 506 L 367 506.5 L 364.5 507 L 364.5 506 Z " /><path fill="rgb(0,0,0)" stroke="rgb(0,0,0)" stroke-width="1" opacity="0.7843137254901961" d="M 155.5 507 L 159 507.5 L 155.5 508 L 155.5 507 Z " /><path fill="rgb(0,0,0)" stroke="rgb(0,0,0)" stroke-width="1" opacity="0.7843137254901961" d="M 353.5 507 L 357 507.5 L 353.5 508 L 353.5 507 Z " /><path fill="rgb(0,0,0)" stroke="rgb(0,0,0)" stroke-width="1" opacity="0.7843137254901961" d="M 167.5 508 L 172 508.5 L 167.5 509 L 167.5 508 Z " /><path fill="rgb(0,0,0)" stroke="rgb(0,0,0)" stroke-width="1" opacity="0.7843137254901961" d="M 341.5 508 L 346 508.5 L 341.5 509 L 341.5 508 Z " /><path fill="rgb(0,0,0)" stroke="rgb(0,0,0)" stroke-width="1" opacity="0.7843137254901961" d="M 181.5 509 L 187 509.5 L 181.5 510 L 181.5 509 Z " /><path fill="rgb(0,0,0)" stroke="rgb(0,0,0)" stroke-width="1" opacity="0.7843137254901961" d="M 325.5 509 L 331 509.5 L 325.5 510 L 325.5 509 Z " /><path fill="rgb(0,0,0)" stroke="rgb(0,0,0)" stroke-width="1" opacity="0.7843137254901961" d="M 198.5 510 L 206 510.5 L 198.5 511 L 198.5 510 Z " /><path fill="rgb(0,0,0)" stroke="rgb(0,0,0)" stroke-width="1" opacity="0.7843137254901961" d="M 306.5 510 L 314 510.5 L 306.5 511 L 306.5 510 Z " /><path fill="rgb(0,0,0)" stroke="rgb(0,0,0)" stroke-width="1" opacity="0.7843137254901961" d="M 223.5 511 L 242 511.5 L 223.5 512 L 223.5 511 Z " /><path fill="rgb(0,0,0)" stroke="rgb(0,0,0)" stroke-width="1" opacity="0.7843137254901961" d="M 270.5 511 L 289 511.5 L 270.5 512 L 270.5 511 Z " /><path fill="rgb(0,0,0)" stroke="rgb(0,0,0)" stroke-width="1" opacity="1" d="M 241.5 0 L 305.5 1 L 306.5 2 L 340.5 3 L 341.5 4 L 372.5 6 L 391.5 10 Q 412.5 16 429.5 26 Q 453.5 40.5 471 61.5 Q 483.9 77.1 493 96.5 L 500 114.5 L 505 134.5 L 506 148.5 L 507 149.5 L 507 159.5 L 508 160.5 L 509 186.5 L 510 187.5 L 512 270.5 L 511 271.5 L 511 304.5 L 510 305.5 L 510 323.5 L 509 324.5 L 508 351.5 L 507 352.5 L 507 362.5 L 506 363.5 L 505 377.5 L 502 390.5 Q 486.9 441.4 450.5 471 Q 422.4 495.9 378.5 505 L 364.5 506 L 363.5 507 L 353.5 507 L 352.5 508 L 341.5 508 L 340.5 509 L 306.5 510 L 305.5 511 L 242.5 512 L 241.5 511 L 206.5 511 L 205.5 510 L 187.5 510 L 186.5 509 L 159.5 508 L 158.5 507 L 148.5 507 L 147.5 506 L 133.5 505 L 120.5 502 Q 70.7 487.3 42 451.5 Q 28.5 435.5 19 415.5 L 12 397.5 L 7 377.5 L 6 363.5 L 5 362.5 L 5 352.5 L 4 351.5 L 3 325.5 L 2 324.5 L 2 306.5 L 1 305.5 L 0 240.5 L 1 239.5 L 1 206.5 L 2 205.5 L 2 187.5 L 3 186.5 L 3 172.5 L 4 171.5 L 5 149.5 L 6 148.5 L 7 134.5 L 12 114.5 Q 27.6 68.6 61.5 41 Q 88.1 17.6 128.5 8 L 139.5 6 L 147.5 6 L 148.5 5 L 171.5 4 L 172.5 3 L 205.5 2 L 206.5 1 L 240.5 1 L 241.5 0 Z M 252 88 L 239 94 Q 232 99 229 108 L 122 391 L 122 402 L 127 413 Q 133 421 146 424 Q 161 425 169 417 L 176 407 L 204 333 L 205 331 L 308 331 L 336 407 L 341 415 Q 347 422 359 424 Q 372 425 379 419 Q 387 413 390 402 L 390 391 L 387 382 L 283 108 L 278 99 Q 273 92 265 89 L 252 88 Z " /><path fill="rgb(0,0,0)" stroke="rgb(0,0,0)" stroke-width="1" opacity="1" d="M 255 196 Q 258 194.8 257 198.5 L 286 275 L 226.5 275 L 226 272.5 L 255 196 Z " /><path fill="rgb(0,0,0)" stroke="rgb(0,0,0)" stroke-width="1" opacity="0.20784313725490197" d="M 211.5 0 L 223 0.5 L 211.5 1 L 211.5 0 Z " /><path fill="rgb(0,0,0)" stroke="rgb(0,0,0)" stroke-width="1" opacity="0.20784313725490197" d="M 289.5 0 L 301 0.5 L 289.5 1 L 289.5 0 Z " /><path fill="rgb(0,0,0)" stroke="rgb(0,0,0)" stroke-width="1" opacity="0.20784313725490197" d="M 190.5 1 L 198 1.5 L 190.5 2 L 190.5 1 Z " /><path fill="rgb(0,0,0)" stroke="rgb(0,0,0)" stroke-width="1" opacity="0.20784313725490197" d="M 314.5 1 L 322 1.5 L 314.5 2 L 314.5 1 Z " /><path fill="rgb(0,0,0)" stroke="rgb(0,0,0)" stroke-width="1" opacity="0.20784313725490197" d="M 175.5 2 L 181 2.5 L 175.5 3 L 175.5 2 Z " /><path fill="rgb(0,0,0)" stroke="rgb(0,0,0)" stroke-width="1" opacity="0.20784313725490197" d="M 331.5 2 L 337 2.5 L 331.5 3 L 331.5 2 Z " /><path fill="rgb(0,0,0)" stroke="rgb(0,0,0)" stroke-width="1" opacity="0.20784313725490197" d="M 163.5 3 L 167 3.5 L 163.5 4 L 163.5 3 Z " /><path fill="rgb(0,0,0)" stroke="rgb(0,0,0)" stroke-width="1" opacity="0.20784313725490197" d="M 346.5 3 L 350 3.5 L 346.5 4 L 346.5 3 Z " /><path fill="rgb(0,0,0)" stroke="rgb(0,0,0)" stroke-width="1" opacity="0.20784313725490197" d="M 151.5 4 L 155 4.5 L 151.5 5 L 151.5 4 Z " /><path fill="rgb(0,0,0)" stroke="rgb(0,0,0)" stroke-width="1" opacity="0.20784313725490197" d="M 357.5 4 L 361 4.5 L 357.5 5 L 357.5 4 Z " /><path fill="rgb(0,0,0)" stroke="rgb(0,0,0)" stroke-width="1" opacity="0.20784313725490197" d="M 141.5 5 L 144 5.5 L 141.5 6 L 141.5 5 Z " /><path fill="rgb(0,0,0)" stroke="rgb(0,0,0)" stroke-width="1" opacity="0.20784313725490197" d="M 368.5 5 L 371 5.5 L 368.5 6 L 368.5 5 Z " /><path fill="rgb(0,0,0)" stroke="rgb(0,0,0)" stroke-width="1" opacity="0.20784313725490197" d="M 79.5 27 L 78.5 29 L 79.5 27 Z " /><path fill="rgb(0,0,0)" stroke="rgb(0,0,0)" stroke-width="1" opacity="0.20784313725490197" d="M 73.5 31 L 72.5 33 L 73.5 31 Z " /><path fill="rgb(0,0,0)" stroke="rgb(0,0,0)" stroke-width="1" opacity="0.20784313725490197" d="M 70.5 33 L 69.5 35 L 70.5 33 Z " /><path fill="rgb(0,0,0)" stroke="rgb(0,0,0)" stroke-width="1" opacity="0.20784313725490197" d="M 441.5 33 L 442.5 35 L 441.5 33 Z " /><path fill="rgb(0,0,0)" stroke="rgb(0,0,0)" stroke-width="1" opacity="0.20784313725490197" d="M 66.5 36 L 65.5 38 L 66.5 36 Z " /><path fill="rgb(0,0,0)" stroke="rgb(0,0,0)" stroke-width="1" opacity="0.20784313725490197" d="M 445.5 36 L 446.5 38 L 445.5 36 Z " /><path fill="rgb(0,0,0)" stroke="rgb(0,0,0)" stroke-width="1" opacity="0.20784313725490197" d="M 61.5 40 L 59.5 43 L 61.5 40 Z " /><path fill="rgb(0,0,0)" stroke="rgb(0,0,0)" stroke-width="1" opacity="0.20784313725490197" d="M 450.5 40 L 452.5 43 L 450.5 40 Z " /><path fill="rgb(0,0,0)" stroke="rgb(0,0,0)" stroke-width="1" opacity="0.20784313725490197" d="M 51.5 49 L 49.5 52 L 51.5 49 Z " /><path fill="rgb(0,0,0)" stroke="rgb(0,0,0)" stroke-width="1" opacity="0.20784313725490197" d="M 460.5 49 L 462.5 52 L 460.5 49 Z " /><path fill="rgb(0,0,0)" stroke="rgb(0,0,0)" stroke-width="1" opacity="0.20784313725490197" d="M 43.5 58 L 41.5 61 L 43.5 58 Z " /><path fill="rgb(0,0,0)" stroke="rgb(0,0,0)" stroke-width="1" opacity="0.20784313725490197" d="M 468.5 58 L 470.5 61 L 468.5 58 Z " /><path fill="rgb(0,0,0)" stroke="rgb(0,0,0)" stroke-width="1" opacity="0.20784313725490197" d="M 38.5 64 L 37.5 66 L 38.5 64 Z " /><path fill="rgb(0,0,0)" stroke="rgb(0,0,0)" stroke-width="1" opacity="0.20784313725490197" d="M 473.5 64 L 474.5 66 L 473.5 64 Z " /><path fill="rgb(0,0,0)" stroke="rgb(0,0,0)" stroke-width="1" opacity="0.20784313725490197" d="M 35.5 68 L 34.5 70 L 35.5 68 Z " /><path fill="rgb(0,0,0)" stroke="rgb(0,0,0)" stroke-width="1" opacity="0.20784313725490197" d="M 476.5 68 L 477.5 70 L 476.5 68 Z " /><path fill="rgb(0,0,0)" stroke="rgb(0,0,0)" stroke-width="1" opacity="0.20784313725490197" d="M 5.5 142 L 6 144.5 L 5 144.5 L 5.5 142 Z " /><path fill="rgb(0,0,0)" stroke="rgb(0,0,0)" stroke-width="1" opacity="0.20784313725490197" d="M 506.5 142 L 507 144.5 L 506 144.5 L 506.5 142 Z " /><path fill="rgb(0,0,0)" stroke="rgb(0,0,0)" stroke-width="1" opacity="0.20784313725490197" d="M 4.5 151 L 5 155.5 L 4 155.5 L 4.5 151 Z " /><path fill="rgb(0,0,0)" stroke="rgb(0,0,0)" stroke-width="1" opacity="0.20784313725490197" d="M 507.5 151 L 508 155.5 L 507 155.5 L 507.5 151 Z " /><path fill="rgb(0,0,0)" stroke="rgb(0,0,0)" stroke-width="1" opacity="0.20784313725490197" d="M 3.5 162 L 4 166.5 L 3 166.5 L 3.5 162 Z " /><path fill="rgb(0,0,0)" stroke="rgb(0,0,0)" stroke-width="1" opacity="0.20784313725490197" d="M 508.5 163 L 509 167.5 L 508 167.5 L 508.5 163 Z " /><path fill="rgb(0,0,0)" stroke="rgb(0,0,0)" stroke-width="1" opacity="0.20784313725490197" d="M 2.5 175 L 3 180.5 L 2 180.5 L 2.5 175 Z " /><path fill="rgb(0,0,0)" stroke="rgb(0,0,0)" stroke-width="1" opacity="0.20784313725490197" d="M 509.5 175 L 510 180.5 L 509 180.5 L 509.5 175 Z " /><path fill="rgb(0,0,0)" stroke="rgb(0,0,0)" stroke-width="1" opacity="0.20784313725490197" d="M 1.5 191 L 2 197.5 L 1 197.5 L 1.5 191 Z " /><path fill="rgb(0,0,0)" stroke="rgb(0,0,0)" stroke-width="1" opacity="0.20784313725490197" d="M 510.5 191 L 511 197.5 L 510 197.5 L 510.5 191 Z " /><path fill="rgb(0,0,0)" stroke="rgb(0,0,0)" stroke-width="1" opacity="0.20784313725490197" d="M 0.5 211 L 1 222.5 L 0 222.5 L 0.5 211 Z " /><path fill="rgb(0,0,0)" stroke="rgb(0,0,0)" stroke-width="1" opacity="0.20784313725490197" d="M 511.5 212 L 512 222.5 L 511 222.5 L 511.5 212 Z " /><path fill="rgb(0,0,0)" stroke="rgb(0,0,0)" stroke-width="1" opacity="0.20784313725490197" d="M 225.5 275 L 287 275.5 L 225.5 276 L 225.5 275 Z " /><path fill="rgb(0,0,0)" stroke="rgb(0,0,0)" stroke-width="1" opacity="0.20784313725490197" d="M 0.5 289 L 1 300.5 L 0 300.5 L 0.5 289 Z " /><path fill="rgb(0,0,0)" stroke="rgb(0,0,0)" stroke-width="1" opacity="0.20784313725490197" d="M 511.5 289 L 512 299.5 L 511 299.5 L 511.5 289 Z " /><path fill="rgb(0,0,0)" stroke="rgb(0,0,0)" stroke-width="1" opacity="0.20784313725490197" d="M 1.5 314 L 2 320.5 L 1 320.5 L 1.5 314 Z " /><path fill="rgb(0,0,0)" stroke="rgb(0,0,0)" stroke-width="1" opacity="0.20784313725490197" d="M 510.5 314 L 511 320.5 L 510 320.5 L 510.5 314 Z " /><path fill="rgb(0,0,0)" stroke="rgb(0,0,0)" stroke-width="1" opacity="0.20784313725490197" d="M 2.5 331 L 3 336.5 L 2 336.5 L 2.5 331 Z " /><path fill="rgb(0,0,0)" stroke="rgb(0,0,0)" stroke-width="1" opacity="0.20784313725490197" d="M 509.5 331 L 510 335.5 L 509 335.5 L 509.5 331 Z " /><path fill="rgb(0,0,0)" stroke="rgb(0,0,0)" stroke-width="1" opacity="0.20784313725490197" d="M 508.5 344 L 509 348.5 L 508 348.5 L 508.5 344 Z " /><path fill="rgb(0,0,0)" stroke="rgb(0,0,0)" stroke-width="1" opacity="0.20784313725490197" d="M 3.5 345 L 4 349.5 L 3 349.5 L 3.5 345 Z " /><path fill="rgb(0,0,0)" stroke="rgb(0,0,0)" stroke-width="1" opacity="0.20784313725490197" d="M 4.5 356 L 5 360.5 L 4 360.5 L 4.5 356 Z " /><path fill="rgb(0,0,0)" stroke="rgb(0,0,0)" stroke-width="1" opacity="0.20784313725490197" d="M 507.5 356 L 508 359.5 L 507 359.5 L 507.5 356 Z " /><path fill="rgb(0,0,0)" stroke="rgb(0,0,0)" stroke-width="1" opacity="0.20784313725490197" d="M 506.5 366 L 507 369.5 L 506 369.5 L 506.5 366 Z " /><path fill="rgb(0,0,0)" stroke="rgb(0,0,0)" stroke-width="1" opacity="0.20784313725490197" d="M 5.5 367 L 6 369.5 L 5 369.5 L 5.5 367 Z " /><path fill="rgb(0,0,0)" stroke="rgb(0,0,0)" stroke-width="1" opacity="0.20784313725490197" d="M 122.5 392 L 123 399.5 L 122 399.5 L 122.5 392 Z " /><path fill="rgb(0,0,0)" stroke="rgb(0,0,0)" stroke-width="1" opacity="0.20784313725490197" d="M 389.5 393 L 390 398.5 L 389 398.5 L 389.5 393 Z " /><path fill="rgb(0,0,0)" stroke="rgb(0,0,0)" stroke-width="1" opacity="0.20784313725490197" d="M 126.5 410 L 127.5 412 L 126.5 410 Z " /><path fill="rgb(0,0,0)" stroke="rgb(0,0,0)" stroke-width="1" opacity="0.20784313725490197" d="M 385.5 410 L 384.5 412 L 385.5 410 Z " /><path fill="rgb(0,0,0)" stroke="rgb(0,0,0)" stroke-width="1" opacity="0.20784313725490197" d="M 171.5 412 L 170.5 414 L 171.5 412 Z " /><path fill="rgb(0,0,0)" stroke="rgb(0,0,0)" stroke-width="1" opacity="0.20784313725490197" d="M 340.5 412 L 341.5 414 L 340.5 412 Z " /><path fill="rgb(0,0,0)" stroke="rgb(0,0,0)" stroke-width="1" opacity="0.20784313725490197" d="M 129.5 414 L 131.5 417 L 129.5 414 Z " /><path fill="rgb(0,0,0)" stroke="rgb(0,0,0)" stroke-width="1" opacity="0.20784313725490197" d="M 382.5 414 L 380.5 417 L 382.5 414 Z " /><path fill="rgb(0,0,0)" stroke="rgb(0,0,0)" stroke-width="1" opacity="0.20784313725490197" d="M 167.5 416 L 165.5 419 L 167.5 416 Z " /><path fill="rgb(0,0,0)" stroke="rgb(0,0,0)" stroke-width="1" opacity="0.20784313725490197" d="M 344.5 416 L 346.5 419 L 344.5 416 Z " /><path fill="rgb(0,0,0)" stroke="rgb(0,0,0)" stroke-width="1" opacity="0.20784313725490197" d="M 34.5 442 L 35.5 444 L 34.5 442 Z " /><path fill="rgb(0,0,0)" stroke="rgb(0,0,0)" stroke-width="1" opacity="0.20784313725490197" d="M 477.5 442 L 476.5 444 L 477.5 442 Z " /><path fill="rgb(0,0,0)" stroke="rgb(0,0,0)" stroke-width="1" opacity="0.20784313725490197" d="M 37.5 446 L 38.5 448 L 37.5 446 Z " /><path fill="rgb(0,0,0)" stroke="rgb(0,0,0)" stroke-width="1" opacity="0.20784313725490197" d="M 474.5 446 L 473.5 448 L 474.5 446 Z " /><path fill="rgb(0,0,0)" stroke="rgb(0,0,0)" stroke-width="1" opacity="0.20784313725490197" d="M 41.5 451 L 43.5 454 L 41.5 451 Z " /><path fill="rgb(0,0,0)" stroke="rgb(0,0,0)" stroke-width="1" opacity="0.20784313725490197" d="M 470.5 451 L 468.5 454 L 470.5 451 Z " /><path fill="rgb(0,0,0)" stroke="rgb(0,0,0)" stroke-width="1" opacity="0.20784313725490197" d="M 49.5 460 L 50.5 462 L 49.5 460 Z " /><path fill="rgb(0,0,0)" stroke="rgb(0,0,0)" stroke-width="1" opacity="0.20784313725490197" d="M 461.5 461 L 460.5 463 L 461.5 461 Z " /><path fill="rgb(0,0,0)" stroke="rgb(0,0,0)" stroke-width="1" opacity="0.20784313725490197" d="M 59.5 469 L 61.5 472 L 59.5 469 Z " /><path fill="rgb(0,0,0)" stroke="rgb(0,0,0)" stroke-width="1" opacity="0.20784313725490197" d="M 452.5 469 L 450.5 472 L 452.5 469 Z " /><path fill="rgb(0,0,0)" stroke="rgb(0,0,0)" stroke-width="1" opacity="0.20784313725490197" d="M 65.5 474 L 66.5 476 L 65.5 474 Z " /><path fill="rgb(0,0,0)" stroke="rgb(0,0,0)" stroke-width="1" opacity="0.20784313725490197" d="M 446.5 474 L 445.5 476 L 446.5 474 Z " /><path fill="rgb(0,0,0)" stroke="rgb(0,0,0)" stroke-width="1" opacity="0.20784313725490197" d="M 69.5 477 L 70.5 479 L 69.5 477 Z " /><path fill="rgb(0,0,0)" stroke="rgb(0,0,0)" stroke-width="1" opacity="0.20784313725490197" d="M 442.5 477 L 441.5 479 L 442.5 477 Z " /><path fill="rgb(0,0,0)" stroke="rgb(0,0,0)" stroke-width="1" opacity="0.20784313725490197" d="M 72.5 479 L 73.5 481 L 72.5 479 Z " /><path fill="rgb(0,0,0)" stroke="rgb(0,0,0)" stroke-width="1" opacity="0.20784313725490197" d="M 78.5 483 L 79.5 485 L 78.5 483 Z " /><path fill="rgb(0,0,0)" stroke="rgb(0,0,0)" stroke-width="1" opacity="0.20784313725490197" d="M 83.5 486 L 84.5 488 L 83.5 486 Z " /><path fill="rgb(0,0,0)" stroke="rgb(0,0,0)" stroke-width="1" opacity="0.20784313725490197" d="M 141.5 506 L 144 506.5 L 141.5 507 L 141.5 506 Z " /><path fill="rgb(0,0,0)" stroke="rgb(0,0,0)" stroke-width="1" opacity="0.20784313725490197" d="M 367.5 506 L 371 506.5 L 367.5 507 L 367.5 506 Z " /><path fill="rgb(0,0,0)" stroke="rgb(0,0,0)" stroke-width="1" opacity="0.20784313725490197" d="M 151.5 507 L 155 507.5 L 151.5 508 L 151.5 507 Z " /><path fill="rgb(0,0,0)" stroke="rgb(0,0,0)" stroke-width="1" opacity="0.20784313725490197" d="M 357.5 507 L 361 507.5 L 357.5 508 L 357.5 507 Z " /><path fill="rgb(0,0,0)" stroke="rgb(0,0,0)" stroke-width="1" opacity="0.20784313725490197" d="M 163.5 508 L 167 508.5 L 163.5 509 L 163.5 508 Z " /><path fill="rgb(0,0,0)" stroke="rgb(0,0,0)" stroke-width="1" opacity="0.20784313725490197" d="M 346.5 508 L 350 508.5 L 346.5 509 L 346.5 508 Z " /><path fill="rgb(0,0,0)" stroke="rgb(0,0,0)" stroke-width="1" opacity="0.20784313725490197" d="M 175.5 509 L 181 509.5 L 175.5 510 L 175.5 509 Z " /><path fill="rgb(0,0,0)" stroke="rgb(0,0,0)" stroke-width="1" opacity="0.20784313725490197" d="M 331.5 509 L 337 509.5 L 331.5 510 L 331.5 509 Z " /><path fill="rgb(0,0,0)" stroke="rgb(0,0,0)" stroke-width="1" opacity="0.20784313725490197" d="M 191.5 510 L 198 510.5 L 191.5 511 L 191.5 510 Z " /><path fill="rgb(0,0,0)" stroke="rgb(0,0,0)" stroke-width="1" opacity="0.20784313725490197" d="M 314.5 510 L 321 510.5 L 314.5 511 L 314.5 510 Z " /><path fill="rgb(0,0,0)" stroke="rgb(0,0,0)" stroke-width="1" opacity="0.20784313725490197" d="M 211.5 511 L 223 511.5 L 211.5 512 L 211.5 511 Z " /><path fill="rgb(0,0,0)" stroke="rgb(0,0,0)" stroke-width="1" opacity="0.20784313725490197" d="M 289.5 511 L 301 511.5 L 289.5 512 L 289.5 511 Z " /><path fill="rgb(0,0,0)" stroke="rgb(0,0,0)" stroke-width="1" opacity="0" d="M 0 0 L 211 0.5 L 190.5 1 L 189.5 2 L 175.5 2 L 174.5 3 L 141.5 5 L 117.5 10 Q 75.8 23.3 49 51.5 Q 22.7 78.2 10 118.5 L 4 151.5 L 0.5 211 L 0 0 Z " /><path fill="rgb(0,0,0)" stroke="rgb(0,0,0)" stroke-width="1" opacity="0" d="M 301.5 0 L 512 0 L 512 211.5 L 511 211.5 L 511 191.5 L 510 190.5 L 510 175.5 L 509 174.5 L 508 151.5 L 502 118.5 Q 488.7 76.3 460.5 49 Q 434.5 22.5 394.5 10 L 370.5 5 L 337.5 3 L 336.5 2 L 322.5 2 L 321.5 1 L 301.5 1 L 301.5 0 Z " /><path fill="rgb(0,0,0)" stroke="rgb(0,0,0)" stroke-width="1" opacity="0" d="M 250.5 89 Q 270.8 87.8 278 99.5 L 283 109.5 L 375 354.5 L 387 383.5 Q 390.6 390.4 389 402.5 Q 385.9 412.4 378.5 418 L 367.5 423 L 357.5 423 Q 347.8 420.7 342 414.5 L 336 404.5 L 310 333.5 L 307.5 330 L 204.5 330 L 203 331.5 L 176 404.5 L 168.5 416 Q 161.3 424.3 144.5 423 Q 133.6 420.4 128 412.5 Q 120.8 405.7 123 389.5 L 229 109.5 Q 232.1 99.6 239.5 94 L 250.5 89 Z M 255 194 L 225 274 L 226 276 L 287 276 L 257 196 Q 258 193 255 194 Z " /><path fill="rgb(0,0,0)" stroke="rgb(0,0,0)" stroke-width="1" opacity="0" d="M 511.5 300 L 512 512 L 301 511.5 L 336.5 510 L 337.5 509 L 370.5 507 L 394.5 502 Q 435.6 489.1 462 461.5 Q 488 435.5 501 396.5 L 507 369.5 L 509 336.5 L 510 335.5 L 510 321.5 L 511 320.5 L 511.5 300 Z " /><path fill="rgb(0,0,0)" stroke="rgb(0,0,0)" stroke-width="1" opacity="0" d="M 0.5 301 L 4 360.5 L 10 393.5 Q 23 435 50.5 462 Q 76.8 489.2 117.5 502 L 141.5 507 L 174.5 509 L 175.5 510 L 211 511.5 L 0 512 L 0.5 301 Z " /></svg>