<svg enable-background="new 0 0 162.9 162.9" viewBox="0 0 162.9 162.9" xmlns="http://www.w3.org/2000/svg" xmlns:xlink="http://www.w3.org/1999/xlink"><linearGradient id="a" gradientUnits="userSpaceOnUse" x1="50.5944" x2="112.2856" y1="91.927" y2="91.927"><stop offset=".07541899" stop-color="#ffde00"/><stop offset=".3201" stop-color="#ffd800"/><stop offset=".6463" stop-color="#ffc700"/><stop offset="1" stop-color="#ffad00"/></linearGradient><image height="620" opacity=".5" overflow="visible" transform="matrix(.24 0 0 .24 21.5769 18.4569)" width="510" xlink:href="D6232329.png"/><path d="m90.1 91.9h-17.3c-6.6 0-12.3-4.8-13.3-11.4l-4.5-27.8c-1.3-8 4.9-15.3 13-15.3h26.9c8.1 0 14.3 7.3 13 15.3l-4.5 27.8c-1 6.6-6.6 11.4-13.3 11.4z" fill="#42c830"/><path d="m105.6 70.2-17.4-10c-4.2-2.4-9.3-2.4-13.5 0l-17.4 10c-4.2 2.4-6.7 6.9-6.7 11.7v20.1c0 4.8 2.6 9.3 6.7 11.7l17.4 10c4.2 2.4 9.3 2.4 13.5 0l17.4-10c4.2-2.4 6.7-6.9 6.7-11.7v-20.1c0-4.8-2.6-9.3-6.7-11.7z" fill="url(#a)"/><path d="m93.7 85.3-13.1 13.1-7.8-7.8" style="fill:none;stroke:#fe8721;stroke-width:5.282;stroke-linecap:round;stroke-linejoin:round;stroke-miterlimit:10"/></svg>