<svg width="512" height="512" version="1.1" xmlns="http://www.w3.org/2000/svg" desc="Created with imagetracer.js version 1.2.6" ><path fill="rgb(0,0,0)" stroke="rgb(0,0,0)" stroke-width="1" opacity="0.9921568627450981" d="M 0 0 L 23.5 0 L 24.5 1 L 54.5 2 L 55.5 3 L 80.5 5 L 105.5 10 L 110.5 10 L 159.5 22 L 210.5 40 Q 310.6 82.4 379 156.5 Q 442.9 224.1 479 319.5 L 492 359.5 L 504 412.5 L 505 424.5 L 507 431.5 L 507 438.5 L 508 439.5 L 509 456.5 L 510 457.5 L 511 487.5 L 512 488.5 L 512 512 L 471 512 L 471 487.5 L 470 486.5 L 470 470.5 L 469 469.5 L 469 458.5 L 468 457.5 L 467 440.5 L 459 394.5 L 450 359.5 L 432 309.5 Q 396.9 228.6 338.5 171 Q 274.8 107.2 182.5 72 L 138.5 58 L 97.5 49 L 72.5 46 L 71.5 45 L 64.5 45 L 63.5 44 L 54.5 44 L 53.5 43 L 25.5 42 L 24.5 41 L 0 41 L 0 0 Z " /><path fill="rgb(0,0,0)" stroke="rgb(0,0,0)" stroke-width="1" opacity="0" d="M 24.5 0 L 512 0 L 512 487.5 L 511 487.5 L 511 470.5 L 510 469.5 L 510 457.5 L 509 456.5 L 508 439.5 L 499 387.5 L 486 339.5 L 469 294.5 Q 426.7 198.3 354.5 132 Q 293.5 75 210.5 40 L 169.5 25 L 115.5 11 L 87.5 6 L 73.5 5 L 72.5 4 L 64.5 4 L 54.5 2 L 42.5 2 L 41.5 1 L 24.5 1 L 24.5 0 Z " /><path fill="rgb(0,0,0)" stroke="rgb(0,0,0)" stroke-width="1" opacity="0" d="M 0 41 L 24.5 41 L 25.5 42 L 53.5 43 L 54.5 44 L 63.5 44 L 64.5 45 L 71.5 45 L 72.5 46 L 97.5 49 L 138.5 58 L 182.5 72 Q 276.6 107.9 341 173.5 Q 404.8 237.2 440 329.5 L 455 377.5 L 463 414.5 L 466 439.5 L 467 440.5 L 467 447.5 L 468 448.5 L 468 457.5 L 469 458.5 L 470 486.5 L 471 487.5 L 471 512 L 0 512 L 0 41 Z " /></svg>