<svg width="22" height="22" viewBox="0 0 22 22" fill="none" xmlns="http://www.w3.org/2000/svg">
<g clip-path="url(#clip0_136_1011)">
<path opacity="0.8" d="M10.4199 0L10.8281 0.0214844L10.4199 0.0429688V0Z" fill="black" stroke="black"/>
<path opacity="0.8" d="M11.1934 0L11.6016 0.0214844L11.1934 0.0429688V0Z" fill="black" stroke="black"/>
<path opacity="0.8" d="M9.99023 0.0429688L10.1406 0.0644531L9.99023 0.0859375V0.0429688Z" fill="black" stroke="black"/>
<path opacity="0.8" d="M11.9238 0.0429688L12.0742 0.0644531L11.9238 0.0859375V0.0429688Z" fill="black" stroke="black"/>
<path opacity="0.8" d="M9.68945 0.0859375L9.79688 0.107422L9.68945 0.128906V0.0859375Z" fill="black" stroke="black"/>
<path opacity="0.8" d="M12.2246 0.0859375L12.332 0.107422L12.2246 0.128906V0.0859375Z" fill="black" stroke="black"/>
<path opacity="0.8" d="M9.43164 0.128906L9.53906 0.150391L9.43164 0.171875V0.128906Z" fill="black" stroke="black"/>
<path opacity="0.8" d="M12.4824 0.128906L12.5898 0.150391L12.4824 0.171875V0.128906Z" fill="black" stroke="black"/>
<path opacity="0.8" d="M6.89648 1.07422L6.85352 1.16016" stroke="black"/>
<path opacity="0.8" d="M15.1035 1.07422L15.1465 1.16016" stroke="black"/>
<path opacity="0.8" d="M6.68164 1.20312L6.63867 1.28906" stroke="black"/>
<path opacity="0.8" d="M15.3184 1.20312L15.3613 1.28906" stroke="black"/>
<path opacity="0.8" d="M6.55273 1.28906L6.50977 1.375" stroke="black"/>
<path opacity="0.8" d="M15.4473 1.28906L15.4902 1.375" stroke="black"/>
<path opacity="0.8" d="M6.42383 1.375L6.38086 1.46094" stroke="black"/>
<path opacity="0.8" d="M6.29492 1.46094L6.25195 1.54688" stroke="black"/>
<path opacity="0.8" d="M15.7051 1.46094L15.748 1.54688" stroke="black"/>
<path opacity="0.8" d="M6.16602 1.54688L6.12305 1.63281" stroke="black"/>
<path opacity="0.8" d="M15.834 1.54688L15.877 1.63281" stroke="black"/>
<path opacity="0.8" d="M5.99414 1.67578L5.9082 1.80469" stroke="black"/>
<path opacity="0.8" d="M16.0059 1.67578L16.0918 1.80469" stroke="black"/>
<path opacity="0.8" d="M5.7793 1.84766L5.65039 2.01953" stroke="black"/>
<path opacity="0.8" d="M16.2207 1.84766L16.3496 2.01953" stroke="black"/>
<path opacity="0.8" d="M16.4785 2.0625L17.123 2.75" stroke="black"/>
<path opacity="0.8" d="M5.47852 2.10547L4.87695 2.75" stroke="black"/>
<path opacity="0.8" d="M4.74805 2.87891L4.61914 3.05078" stroke="black"/>
<path opacity="0.8" d="M17.252 2.87891L17.3809 3.05078" stroke="black"/>
<path opacity="0.8" d="M4.5332 3.13672L4.44727 3.26562" stroke="black"/>
<path opacity="0.8" d="M17.4668 3.13672L17.5527 3.26562" stroke="black"/>
<path opacity="0.8" d="M4.36133 3.35156L4.31836 3.4375" stroke="black"/>
<path opacity="0.8" d="M17.6387 3.35156L17.6816 3.4375" stroke="black"/>
<path opacity="0.8" d="M4.27539 3.48047L4.23242 3.56641" stroke="black"/>
<path opacity="0.8" d="M17.7246 3.48047L17.7676 3.56641" stroke="black"/>
<path opacity="0.8" d="M17.8105 3.60938L17.8535 3.69531" stroke="black"/>
<path opacity="0.8" d="M4.10352 3.73828L4.06055 3.82422" stroke="black"/>
<path opacity="0.8" d="M17.8965 3.73828L17.9395 3.82422" stroke="black"/>
<path opacity="0.8" d="M4.01758 3.86719L3.97461 3.95312" stroke="black"/>
<path opacity="0.8" d="M17.9824 3.86719L18.0254 3.95312" stroke="black"/>
<path opacity="0.8" d="M3.88867 4.08203L3.8457 4.16797" stroke="black"/>
<path opacity="0.8" d="M18.1113 4.08203L18.1543 4.16797" stroke="black"/>
<path opacity="0.8" d="M10.5059 4.46875L10.6562 4.49023L10.5059 4.51172V4.46875Z" fill="black" stroke="black"/>
<path opacity="0.8" d="M11.3652 4.46875L11.5156 4.49023L11.3652 4.51172V4.46875Z" fill="black" stroke="black"/>
<path opacity="0.8" d="M10.248 4.51172L10.3555 4.5332L10.248 4.55469V4.51172Z" fill="black" stroke="black"/>
<path opacity="0.8" d="M9.25977 4.85547L9.32422 4.87695L9.2168 4.94141L9.25977 4.85547Z" fill="black" stroke="black"/>
<path opacity="0.8" d="M12.7402 4.85547L12.7832 4.94141" stroke="black"/>
<path opacity="0.8" d="M8.95898 5.02734L8.91602 5.11328" stroke="black"/>
<path opacity="0.8" d="M13.1699 5.11328L13.2559 5.24219" stroke="black"/>
<path opacity="0.8" d="M8.6582 5.24219L8.57227 5.37109" stroke="black"/>
<path opacity="0.8" d="M13.3418 5.24219L13.4707 5.41406" stroke="black"/>
<path opacity="0.8" d="M13.8574 5.75781L13.9863 5.92969" stroke="black"/>
<path opacity="0.8" d="M8.09961 5.80078L8.01367 5.92969" stroke="black"/>
<path opacity="0.8" d="M14.0293 5.97266L14.0723 6.05859" stroke="black"/>
<path opacity="0.8" d="M7.8418 6.14453L7.79883 6.23047" stroke="black"/>
<path opacity="0.8" d="M2.94336 6.44531L2.96484 6.55273H2.92188L2.94336 6.44531Z" fill="black" stroke="black"/>
<path opacity="0.8" d="M7.66992 6.44531L7.64844 6.50977L7.58398 6.66016L7.5625 6.5957L7.66992 6.44531Z" fill="black" stroke="black"/>
<path opacity="0.8" d="M14.3301 6.44531L14.4375 6.63867H14.3945L14.3301 6.44531Z" fill="black" stroke="black"/>
<path opacity="0.8" d="M2.90039 6.66016L2.92188 6.76758H2.87891L2.90039 6.66016Z" fill="black" stroke="black"/>
<path opacity="0.8" d="M19.0996 6.66016L19.1211 6.76758H19.0781L19.0996 6.66016Z" fill="black" stroke="black"/>
<path opacity="0.8" d="M2.85742 6.91797L2.87891 7.02539H2.83594L2.85742 6.91797Z" fill="black" stroke="black"/>
<path opacity="0.8" d="M19.1426 6.91797L19.1641 7.02539H19.1211L19.1426 6.91797Z" fill="black" stroke="black"/>
<path opacity="0.8" d="M2.81445 7.21875L2.83594 7.36914H2.79297L2.81445 7.21875Z" fill="black" stroke="black"/>
<path opacity="0.8" d="M19.1855 7.21875L19.207 7.36914H19.1641L19.1855 7.21875Z" fill="black" stroke="black"/>
<path opacity="0.8" d="M7.2832 7.47656L7.30469 7.58398H7.26172L7.2832 7.47656Z" fill="black" stroke="black"/>
<path opacity="0.8" d="M14.7168 7.47656L14.7383 7.58398H14.6953L14.7168 7.47656Z" fill="black" stroke="black"/>
<path opacity="0.8" d="M2.77148 7.64844L2.79297 8.05664H2.75L2.77148 7.64844Z" fill="black" stroke="black"/>
<path opacity="0.8" d="M19.2285 7.64844L19.25 8.05664H19.207L19.2285 7.64844Z" fill="black" stroke="black"/>
<path opacity="0.8" d="M7.24023 7.73438L7.26172 7.88477H7.21875L7.24023 7.73438Z" fill="black" stroke="black"/>
<path opacity="0.8" d="M14.7598 7.73438L14.7812 7.88477H14.7383L14.7598 7.73438Z" fill="black" stroke="black"/>
<path opacity="0.8" d="M2.77148 8.46484L2.79297 8.83008H2.75L2.77148 8.46484Z" fill="black" stroke="black"/>
<path opacity="0.8" d="M19.2285 8.46484L19.25 8.83008H19.207L19.2285 8.46484Z" fill="black" stroke="black"/>
<path opacity="0.8" d="M7.24023 8.59375L7.26172 8.74414H7.21875L7.24023 8.59375Z" fill="black" stroke="black"/>
<path opacity="0.8" d="M14.7598 8.59375L14.7812 8.74414H14.7383L14.7598 8.59375Z" fill="black" stroke="black"/>
<path opacity="0.8" d="M14.7168 8.89453L14.7383 9.00195H14.6953L14.7168 8.89453Z" fill="black" stroke="black"/>
<path opacity="0.8" d="M2.81445 9.06641L2.83594 9.2168H2.79297L2.81445 9.06641Z" fill="black" stroke="black"/>
<path opacity="0.8" d="M19.1855 9.06641L19.207 9.2168H19.1641L19.1855 9.06641Z" fill="black" stroke="black"/>
<path opacity="0.8" d="M2.85742 9.41016L2.87891 9.51758H2.83594L2.85742 9.41016Z" fill="black" stroke="black"/>
<path opacity="0.8" d="M19.1426 9.41016L19.1641 9.51758H19.1211L19.1426 9.41016Z" fill="black" stroke="black"/>
<path opacity="0.8" d="M14.416 9.83984L14.4375 9.9043L14.3301 10.0547L14.3516 9.99023L14.416 9.83984Z" fill="black" stroke="black"/>
<path opacity="0.8" d="M7.62695 9.96875L7.66992 10.0547" stroke="black"/>
<path opacity="0.8" d="M2.98633 10.0547L3.00781 10.1621H2.96484L2.98633 10.0547Z" fill="black" stroke="black"/>
<path opacity="0.8" d="M19.0137 10.0547L19.0352 10.1621H18.9922L19.0137 10.0547Z" fill="black" stroke="black"/>
<path opacity="0.8" d="M14.2012 10.2695L14.1582 10.3555" stroke="black"/>
<path opacity="0.8" d="M7.88477 10.3984L7.9707 10.5273" stroke="black"/>
<path opacity="0.8" d="M14.0723 10.4414L14.0293 10.5273" stroke="black"/>
<path opacity="0.8" d="M8.01367 10.5703L8.14258 10.7422" stroke="black"/>
<path opacity="0.8" d="M13.9863 10.5703L13.8574 10.7422" stroke="black"/>
<path opacity="0.8" d="M8.5293 11.0859L8.6582 11.2578" stroke="black"/>
<path opacity="0.8" d="M13.4707 11.0859L13.3418 11.2578" stroke="black"/>
<path opacity="0.8" d="M8.74414 11.2578L8.78711 11.3438" stroke="black"/>
<path opacity="0.8" d="M13.2559 11.2578L13.2129 11.3438" stroke="black"/>
<path opacity="0.8" d="M13.084 11.3867L13.041 11.4727" stroke="black"/>
<path opacity="0.8" d="M9.00195 11.4297L9.04492 11.5156" stroke="black"/>
<path opacity="0.8" d="M12.7832 11.5586L12.7402 11.6445" stroke="black"/>
<path opacity="0.8" d="M9.30273 11.6016L9.41016 11.666L9.3457 11.6875L9.30273 11.6016Z" fill="black" stroke="black"/>
<path opacity="0.8" d="M10.248 11.9453L10.3555 11.9668L10.248 11.9883V11.9453Z" fill="black" stroke="black"/>
<path opacity="0.8" d="M11.666 11.9453L11.7734 11.9668L11.666 11.9883V11.9453Z" fill="black" stroke="black"/>
<path opacity="0.8" d="M10.5059 11.9883L10.6562 12.0098L10.5059 12.0312V11.9883Z" fill="black" stroke="black"/>
<path opacity="0.8" d="M11.3652 11.9883L11.5156 12.0098L11.3652 12.0312V11.9883Z" fill="black" stroke="black"/>
<path opacity="0.8" d="M4.36133 13.6211L4.4043 13.707" stroke="black"/>
<path opacity="0.8" d="M17.6387 13.6211L17.5957 13.707" stroke="black"/>
<path opacity="0.8" d="M4.61914 14.0938L4.66211 14.1797" stroke="black"/>
<path opacity="0.8" d="M17.3809 14.0938L17.3379 14.1797" stroke="black"/>
<path opacity="0.8" d="M4.79102 14.3945L4.83398 14.4805" stroke="black"/>
<path opacity="0.8" d="M17.209 14.3945L17.166 14.4805" stroke="black"/>
<path opacity="0.8" d="M4.91992 14.6094L4.96289 14.6953" stroke="black"/>
<path opacity="0.8" d="M17.0801 14.6094L17.0371 14.6953" stroke="black"/>
<path opacity="0.8" d="M5.04883 14.8242L5.0918 14.9102" stroke="black"/>
<path opacity="0.8" d="M16.9512 14.8242L16.9082 14.9102" stroke="black"/>
<path opacity="0.8" d="M5.17773 15.0391L5.2207 15.125" stroke="black"/>
<path opacity="0.8" d="M16.8223 15.0391L16.7793 15.125" stroke="black"/>
<path opacity="0.8" d="M5.26367 15.168L5.30664 15.2539" stroke="black"/>
<path opacity="0.8" d="M16.7363 15.168L16.6934 15.2539" stroke="black"/>
<path opacity="0.8" d="M5.34961 15.2969L5.39258 15.3828" stroke="black"/>
<path opacity="0.8" d="M16.6504 15.2969L16.6074 15.3828" stroke="black"/>
<path opacity="0.8" d="M5.56445 15.6406L5.60742 15.7266" stroke="black"/>
<path opacity="0.8" d="M16.4355 15.6406L16.3926 15.7266" stroke="black"/>
<path opacity="0.8" d="M5.65039 15.7695L5.69336 15.8555" stroke="black"/>
<path opacity="0.8" d="M16.3496 15.7695L16.3066 15.8555" stroke="black"/>
<path opacity="0.8" d="M5.73633 15.8984L5.7793 15.9844" stroke="black"/>
<path opacity="0.8" d="M5.95117 16.1992L5.99414 16.2852" stroke="black"/>
<path opacity="0.8" d="M16.0488 16.1992L16.0059 16.2852" stroke="black"/>
<path opacity="0.8" d="M6.03711 16.3281L6.08008 16.4141" stroke="black"/>
<path opacity="0.8" d="M15.9629 16.3281L15.9199 16.4141" stroke="black"/>
<path opacity="0.8" d="M6.12305 16.457L6.16602 16.543" stroke="black"/>
<path opacity="0.8" d="M15.877 16.457L15.834 16.543" stroke="black"/>
<path opacity="0.8" d="M6.25195 16.6289L6.29492 16.7148" stroke="black"/>
<path opacity="0.8" d="M15.748 16.6289L15.7051 16.7148" stroke="black"/>
<path opacity="0.8" d="M6.33789 16.7578L6.42383 16.8867" stroke="black"/>
<path opacity="0.8" d="M15.6621 16.7578L15.5762 16.8867" stroke="black"/>
<path opacity="0.8" d="M6.4668 16.9297L6.50977 17.0156" stroke="black"/>
<path opacity="0.8" d="M15.5332 16.9297L15.4902 17.0156" stroke="black"/>
<path opacity="0.8" d="M6.5957 17.1016L6.63867 17.1875" stroke="black"/>
<path opacity="0.8" d="M15.4043 17.1016L15.3613 17.1875" stroke="black"/>
<path opacity="0.8" d="M6.72461 17.2734L6.76758 17.3594" stroke="black"/>
<path opacity="0.8" d="M15.2754 17.2734L15.2324 17.3594" stroke="black"/>
<path opacity="0.8" d="M6.85352 17.4453L6.89648 17.5312" stroke="black"/>
<path opacity="0.8" d="M15.1465 17.4453L15.1035 17.5312" stroke="black"/>
<path opacity="0.8" d="M6.98242 17.6172L7.06836 17.7461" stroke="black"/>
<path opacity="0.8" d="M15.0176 17.6172L14.9316 17.7461" stroke="black"/>
<path opacity="0.8" d="M7.11133 17.7891L7.19727 17.918" stroke="black"/>
<path opacity="0.8" d="M14.8457 17.832L14.8027 17.918" stroke="black"/>
<path opacity="0.8" d="M7.2832 18.0039L7.36914 18.1328" stroke="black"/>
<path opacity="0.8" d="M14.7168 18.0039L14.6309 18.1328" stroke="black"/>
<path opacity="0.8" d="M7.45508 18.2188L7.54102 18.3477" stroke="black"/>
<path opacity="0.8" d="M14.5449 18.2188L14.459 18.3477" stroke="black"/>
<path opacity="0.8" d="M7.62695 18.4336L7.71289 18.5625" stroke="black"/>
<path opacity="0.8" d="M14.373 18.4336L14.2871 18.5625" stroke="black"/>
<path opacity="0.8" d="M7.8418 18.6914L7.92773 18.8203" stroke="black"/>
<path opacity="0.8" d="M14.1582 18.6914L14.0723 18.8203" stroke="black"/>
<path opacity="0.8" d="M13.9863 18.9062L13.8574 19.0781" stroke="black"/>
<path opacity="0.8" d="M8.05664 18.9492L8.14258 19.0781" stroke="black"/>
<path opacity="0.8" d="M8.27148 19.207L8.40039 19.3789" stroke="black"/>
<path opacity="0.8" d="M13.7285 19.207L13.5996 19.3789" stroke="black"/>
<path opacity="0.8" d="M8.5293 19.5078L8.70117 19.7227" stroke="black"/>
<path opacity="0.8" d="M13.4707 19.5078L13.2988 19.7227" stroke="black"/>
<path opacity="0.8" d="M8.83008 19.8516L9.08789 20.1523" stroke="black"/>
<path opacity="0.8" d="M13.1699 19.8516L12.9121 20.1523" stroke="black"/>
<path opacity="0.8" d="M9.2168 20.2812L9.51758 20.625" stroke="black"/>
<path opacity="0.8" d="M12.7832 20.2812L12.4395 20.668" stroke="black"/>
<path opacity="0.8" d="M9.77539 20.8828L10.8066 21.957" stroke="black"/>
<path opacity="0.8" d="M12.2246 20.8828L11.1934 21.957" stroke="black"/>
<path d="M10.8496 0L11.8809 0.0429688L11.9238 0.0859375L12.6973 0.171875L14.2012 0.644531C15.4158 1.17734 16.4255 1.91497 17.2305 2.85742C17.8635 3.5707 18.3648 4.41576 18.7344 5.39258L19.1211 6.81055L19.1641 7.36914L19.207 7.41211L19.25 8.44336L19.207 8.48633V9.04492L19.1641 9.08789L19.0781 9.86133L18.5625 11.623C18.1844 12.6056 17.7404 13.5223 17.2305 14.373C15.5089 17.2061 13.4822 19.7341 11.1504 21.957L10.9785 22L10.8496 21.957L9.53906 20.6465C8.47344 19.5064 7.47083 18.3033 6.53125 17.0371C5.72917 15.9629 4.9987 14.8171 4.33984 13.5996L3.69531 12.2676L3.13672 10.7207L2.83594 9.38867L2.75 8.09961L2.79297 8.05664V7.41211L2.83594 7.36914V7.06836L2.96484 6.38086L3.39453 5.04883C3.92734 3.83424 4.66497 2.82448 5.60742 2.01953C6.24336 1.46667 6.97383 1.00833 7.79883 0.644531L9.13086 0.214844L9.81836 0.0859375H10.1191L10.1621 0.0429688H10.8066L10.8496 0ZM10.5273 4.46875L9.66797 4.68359L8.67969 5.24219C7.90625 5.8151 7.41927 6.66016 7.21875 7.77734V8.76562L7.34766 9.36719C7.49089 9.82552 7.70573 10.2409 7.99219 10.6133C8.5651 11.3581 9.41016 11.8307 10.5273 12.0312H11.5156L12.1172 11.9023C12.5755 11.7591 12.9909 11.5443 13.3633 11.2578C14.1081 10.6849 14.5807 9.85417 14.7812 8.76562V7.77734L14.6523 7.17578C14.5091 6.6888 14.2943 6.27344 14.0078 5.92969C13.6068 5.35677 13.0625 4.94141 12.375 4.68359L11.5156 4.46875H10.5273Z" fill="black" stroke="black"/>
</g>
<defs>
<clipPath id="clip0_136_1011">
<rect width="22" height="22" fill="white"/>
</clipPath>
</defs>
</svg>
