<svg width="20" height="20" viewBox="0 0 20 20" fill="none" xmlns="http://www.w3.org/2000/svg">
<g clip-path="url(#clip0_152_2)">
<path opacity="0.780392" d="M9.55078 0.585938L9.92188 0.605469L9.55078 0.625V0.585938Z" fill="black" stroke="black"/>
<path opacity="0.780392" d="M10.0977 0.585938L10.4688 0.605469L10.0977 0.625V0.585938Z" fill="black" stroke="black"/>
<path opacity="0.780392" d="M9.19922 0.625L9.33594 0.644531L9.19922 0.664062V0.625Z" fill="black" stroke="black"/>
<path opacity="0.780392" d="M10.6836 0.625L10.8203 0.644531L10.6836 0.664062V0.625Z" fill="black" stroke="black"/>
<path opacity="0.780392" d="M12.3633 1.13281L12.4609 1.19141L12.4023 1.17188L12.3633 1.13281Z" fill="black" stroke="black"/>
<path opacity="0.780392" d="M7.24609 1.32812L7.20703 1.40625" stroke="black"/>
<path opacity="0.780392" d="M12.7539 1.32812L12.793 1.40625" stroke="black"/>
<path opacity="0.780392" d="M7.12891 1.40625L7.08984 1.48438" stroke="black"/>
<path opacity="0.780392" d="M12.8711 1.40625L12.9102 1.48438" stroke="black"/>
<path opacity="0.780392" d="M7.01172 1.48438L6.97266 1.5625" stroke="black"/>
<path opacity="0.780392" d="M12.9883 1.48438L13.0273 1.5625" stroke="black"/>
<path opacity="0.780392" d="M6.89453 1.5625L6.81641 1.67969" stroke="black"/>
<path opacity="0.780392" d="M13.1055 1.5625L13.1445 1.64062" stroke="black"/>
<path opacity="0.780392" d="M6.73828 1.67969L6.66016 1.79688" stroke="black"/>
<path opacity="0.780392" d="M13.2617 1.67969L13.3398 1.79688" stroke="black"/>
<path opacity="0.780392" d="M9.55078 1.75781L9.72656 1.77734L9.55078 1.79688V1.75781Z" fill="black" stroke="black"/>
<path opacity="0.780392" d="M10.293 1.75781L10.4688 1.77734L10.293 1.79688V1.75781Z" fill="black" stroke="black"/>
<path opacity="0.780392" d="M9.27734 1.79688L9.375 1.81641L9.27734 1.83594V1.79688Z" fill="black" stroke="black"/>
<path opacity="0.780392" d="M10.6445 1.79688L10.7422 1.81641L10.6445 1.83594V1.79688Z" fill="black" stroke="black"/>
<path opacity="0.780392" d="M6.50391 1.875L5.99609 2.42188" stroke="black"/>
<path opacity="0.780392" d="M13.4961 1.875L14.0039 2.42188" stroke="black"/>
<path opacity="0.780392" d="M8.02734 2.22656L7.98828 2.30469" stroke="black"/>
<path opacity="0.780392" d="M12.0508 2.26562L12.0898 2.34375" stroke="black"/>
<path opacity="0.780392" d="M5.91797 2.5L5.83984 2.61719" stroke="black"/>
<path opacity="0.780392" d="M7.59766 2.5L7.55859 2.57812" stroke="black"/>
<path opacity="0.780392" d="M12.4023 2.5L12.4414 2.57812" stroke="black"/>
<path opacity="0.780392" d="M14.082 2.5L14.1602 2.61719" stroke="black"/>
<path opacity="0.780392" d="M7.48047 2.57812L7.40234 2.69531" stroke="black"/>
<path opacity="0.780392" d="M12.5195 2.57812L12.5977 2.69531" stroke="black"/>
<path opacity="0.780392" d="M5.76172 2.69531L5.72266 2.77344" stroke="black"/>
<path opacity="0.780392" d="M14.2383 2.69531L14.2773 2.77344" stroke="black"/>
<path opacity="0.780392" d="M12.7148 2.73438L13.1055 3.16406" stroke="black"/>
<path opacity="0.780392" d="M7.24609 2.77344L6.89453 3.16406" stroke="black"/>
<path opacity="0.780392" d="M5.64453 2.85156L5.60547 2.92969" stroke="black"/>
<path opacity="0.780392" d="M14.3555 2.85156L14.3945 2.92969" stroke="black"/>
<path opacity="0.780392" d="M5.44922 3.16406L5.41016 3.24219" stroke="black"/>
<path opacity="0.780392" d="M6.77734 3.28125L6.73828 3.35938" stroke="black"/>
<path opacity="0.780392" d="M13.2227 3.28125L13.2617 3.35938" stroke="black"/>
<path opacity="0.780392" d="M6.66016 3.4375L6.62109 3.51562" stroke="black"/>
<path opacity="0.780392" d="M13.3398 3.4375L13.3789 3.51562" stroke="black"/>
<path opacity="0.780392" d="M6.58203 3.55469L6.54297 3.63281" stroke="black"/>
<path opacity="0.780392" d="M13.418 3.55469L13.457 3.63281" stroke="black"/>
<path opacity="0.780392" d="M6.50391 3.67188L6.46484 3.75" stroke="black"/>
<path opacity="0.780392" d="M13.4961 3.67188L13.5352 3.75" stroke="black"/>
<path opacity="0.780392" d="M4.82422 4.72656L4.84375 4.82422H4.80469L4.82422 4.72656Z" fill="black" stroke="black"/>
<path opacity="0.780392" d="M15.1758 4.72656L15.1953 4.82422H15.1562L15.1758 4.72656Z" fill="black" stroke="black"/>
<path opacity="0.780392" d="M4.78516 4.92188L4.80469 5.01953H4.76562L4.78516 4.92188Z" fill="black" stroke="black"/>
<path opacity="0.780392" d="M5.95703 5L5.97656 5.09766H5.9375L5.95703 5Z" fill="black" stroke="black"/>
<path opacity="0.780392" d="M14.043 5L14.0625 5.09766H14.0234L14.043 5Z" fill="black" stroke="black"/>
<path opacity="0.780392" d="M4.74609 5.19531L4.76562 5.33203H4.72656L4.74609 5.19531Z" fill="black" stroke="black"/>
<path opacity="0.780392" d="M15.2539 5.19531L15.2734 5.33203H15.2344L15.2539 5.19531Z" fill="black" stroke="black"/>
<path opacity="0.780392" d="M5.91797 5.23438L5.9375 5.37109H5.89844L5.91797 5.23438Z" fill="black" stroke="black"/>
<path opacity="0.780392" d="M14.082 5.23438L14.1016 5.37109H14.0625L14.082 5.23438Z" fill="black" stroke="black"/>
<path opacity="0.780392" d="M5.87891 5.58594L5.89844 8.22266H5.85938L5.87891 5.58594Z" fill="black" stroke="black"/>
<path opacity="0.780392" d="M14.1211 5.58594L14.1406 8.22266H14.1016L14.1211 5.58594Z" fill="black" stroke="black"/>
<path opacity="0.780392" d="M4.70703 5.66406L4.72656 8.22266H4.6875L4.70703 5.66406Z" fill="black" stroke="black"/>
<path opacity="0.780392" d="M15.293 5.66406L15.3125 8.22266H15.2734L15.293 5.66406Z" fill="black" stroke="black"/>
<path opacity="0.780392" d="M4.39453 8.24219L4.49219 8.26172L4.39453 8.28125V8.24219Z" fill="black" stroke="black"/>
<path opacity="0.780392" d="M15.5273 8.24219L15.625 8.26172L15.5273 8.28125V8.24219Z" fill="black" stroke="black"/>
<path opacity="0.780392" d="M3.65234 8.55469L3.61328 8.63281" stroke="black"/>
<path opacity="0.780392" d="M16.3477 8.55469L16.3867 8.63281" stroke="black"/>
<path opacity="0.780392" d="M3.30078 8.90625L3.26172 8.98438" stroke="black"/>
<path opacity="0.780392" d="M16.6992 8.90625L16.7383 8.98438" stroke="black"/>
<path opacity="0.780392" d="M3.22266 9.02344L3.18359 9.10156" stroke="black"/>
<path opacity="0.780392" d="M15.7617 9.60938L15.8008 9.6875" stroke="black"/>
<path opacity="0.780392" d="M2.94922 9.80469L2.96875 17.832H2.92969L2.94922 9.80469Z" fill="black" stroke="black"/>
<path opacity="0.780392" d="M17.0508 9.80469L17.0703 17.832H17.0312L17.0508 9.80469Z" fill="black" stroke="black"/>
<path opacity="0.780392" d="M4.12109 9.84375L4.14062 17.793H4.10156L4.12109 9.84375Z" fill="black" stroke="black"/>
<path opacity="0.780392" d="M15.8789 9.84375L15.8984 17.793H15.8594L15.8789 9.84375Z" fill="black" stroke="black"/>
<path opacity="0.780392" d="M9.74609 11.1719L10.2734 11.1914L9.74609 11.2109V11.1719Z" fill="black" stroke="black"/>
<path opacity="0.780392" d="M8.96484 11.4844L8.92578 11.5625" stroke="black"/>
<path opacity="0.780392" d="M11.0352 11.4844L11.0742 11.5625" stroke="black"/>
<path opacity="0.780392" d="M8.80859 11.6016L8.69141 11.7578" stroke="black"/>
<path opacity="0.780392" d="M11.1914 11.6016L11.3086 11.7578" stroke="black"/>
<path opacity="0.780392" d="M8.57422 11.875L8.53516 11.9531" stroke="black"/>
<path opacity="0.780392" d="M11.4258 11.875L11.4648 11.9531" stroke="black"/>
<path opacity="0.780392" d="M9.82422 12.3438L9.92188 12.3633L9.82422 12.3828V12.3438Z" fill="black" stroke="black"/>
<path opacity="0.780392" d="M10.0977 12.3438L10.1953 12.3633L10.0977 12.3828V12.3438Z" fill="black" stroke="black"/>
<path opacity="0.780392" d="M9.58984 12.4609L9.55078 12.5391" stroke="black"/>
<path opacity="0.780392" d="M10.4883 12.5781L10.5273 12.6562" stroke="black"/>
<path opacity="0.780392" d="M8.26172 12.6172L8.28125 12.7148H8.24219L8.26172 12.6172Z" fill="black" stroke="black"/>
<path opacity="0.780392" d="M11.7383 12.6172L11.7578 12.7148H11.7188L11.7383 12.6172Z" fill="black" stroke="black"/>
<path opacity="0.780392" d="M8.26172 13.125L8.28125 13.2617H8.24219L8.26172 13.125Z" fill="black" stroke="black"/>
<path opacity="0.780392" d="M11.7383 13.125L11.7578 13.2617H11.7188L11.7383 13.125Z" fill="black" stroke="black"/>
<path opacity="0.780392" d="M9.51172 13.2812L9.62891 13.4375" stroke="black"/>
<path opacity="0.780392" d="M10.4883 13.2812L10.3711 13.4375" stroke="black"/>
<path opacity="0.780392" d="M9.70703 13.4375L9.80469 13.4961L9.74609 13.5156L9.70703 13.4375Z" fill="black" stroke="black"/>
<path opacity="0.780392" d="M10.293 13.4375L10.2539 13.5156L10.1953 13.4961L10.293 13.4375Z" fill="black" stroke="black"/>
<path opacity="0.780392" d="M9.90234 13.5156L10.1172 13.5352L9.90234 13.5547V13.5156Z" fill="black" stroke="black"/>
<path opacity="0.780392" d="M8.41797 13.7109L8.45703 13.7891" stroke="black"/>
<path opacity="0.780392" d="M8.53516 13.9062L8.57422 13.9844" stroke="black"/>
<path opacity="0.780392" d="M11.4648 13.9062L11.4258 13.9844" stroke="black"/>
<path opacity="0.780392" d="M8.65234 14.0625L8.80859 14.2578" stroke="black"/>
<path opacity="0.780392" d="M11.3477 14.0625L11.1914 14.2578" stroke="black"/>
<path opacity="0.780392" d="M8.92578 14.2969L8.96484 14.375" stroke="black"/>
<path opacity="0.780392" d="M11.0352 14.3359L10.9961 14.4141" stroke="black"/>
<path opacity="0.780392" d="M9.51172 16.2109L9.62891 16.3672" stroke="black"/>
<path opacity="0.780392" d="M10.4883 16.2109L10.3711 16.3672" stroke="black"/>
<path opacity="0.780392" d="M9.70703 16.3672L9.80469 16.4258L9.74609 16.4453L9.70703 16.3672Z" fill="black" stroke="black"/>
<path opacity="0.780392" d="M9.90234 16.4453L10.1172 16.4648L9.90234 16.4844V16.4453Z" fill="black" stroke="black"/>
<path opacity="0.780392" d="M4.19922 17.9688L4.35547 18.1641" stroke="black"/>
<path opacity="0.780392" d="M15.8008 17.9688L15.6445 18.1641" stroke="black"/>
<path opacity="0.780392" d="M3.14453 18.4375L3.20312 18.5352L3.125 18.4961L3.14453 18.4375Z" fill="black" stroke="black"/>
<path opacity="0.780392" d="M16.8555 18.4375L16.875 18.4961L16.7969 18.5352L16.8555 18.4375Z" fill="black" stroke="black"/>
<path opacity="0.780392" d="M3.30078 18.7109L3.37891 18.8281" stroke="black"/>
<path opacity="0.780392" d="M16.6992 18.7109L16.6211 18.8281" stroke="black"/>
<path opacity="0.780392" d="M3.53516 18.9453L3.61328 19.0625" stroke="black"/>
<path opacity="0.780392" d="M16.4648 18.9453L16.3867 19.0625" stroke="black"/>
<path opacity="0.780392" d="M3.80859 19.1406L3.84766 19.2188" stroke="black"/>
<path opacity="0.780392" d="M4.47266 19.375L4.64844 19.3945L4.47266 19.4141V19.375Z" fill="black" stroke="black"/>
<path opacity="0.780392" d="M15.3711 19.375L15.5469 19.3945L15.3711 19.4141V19.375Z" fill="black" stroke="black"/>
<path opacity="0.996078" d="M9.94141 0.585938L10.0781 0.605469L9.94141 0.625V0.585938Z" fill="black" stroke="black"/>
<path opacity="0.996078" d="M13.1836 1.64062L13.2227 1.71875" stroke="black"/>
<path opacity="0.996078" d="M6.62109 1.79688L6.54297 1.91406" stroke="black"/>
<path opacity="0.996078" d="M13.3789 1.79688L13.457 1.91406" stroke="black"/>
<path opacity="0.996078" d="M5.99609 2.42188L5.95703 2.5" stroke="black"/>
<path opacity="0.996078" d="M7.67578 2.42188L7.63672 2.5" stroke="black"/>
<path opacity="0.996078" d="M12.3242 2.42188L12.3633 2.5" stroke="black"/>
<path opacity="0.996078" d="M14.0039 2.42188L14.043 2.5" stroke="black"/>
<path opacity="0.996078" d="M5.83984 2.61719L5.80078 2.69531" stroke="black"/>
<path opacity="0.996078" d="M14.1602 2.61719L14.1992 2.69531" stroke="black"/>
<path opacity="0.996078" d="M7.36328 2.65625L7.28516 2.77344" stroke="black"/>
<path opacity="0.996078" d="M12.6367 2.65625L12.6758 2.73438" stroke="black"/>
<path opacity="0.996078" d="M5.72266 2.77344L5.68359 2.85156" stroke="black"/>
<path opacity="0.996078" d="M14.2773 2.77344L14.3164 2.85156" stroke="black"/>
<path opacity="0.996078" d="M6.85547 3.16406L6.81641 3.24219" stroke="black"/>
<path opacity="0.996078" d="M13.1445 3.16406L13.1836 3.24219" stroke="black"/>
<path opacity="0.996078" d="M6.69922 3.35938L6.66016 3.4375" stroke="black"/>
<path opacity="0.996078" d="M13.3008 3.35938L13.3398 3.4375" stroke="black"/>
<path opacity="0.996078" d="M3.57422 8.63281L3.33984 8.90625" stroke="black"/>
<path opacity="0.996078" d="M16.4258 8.63281L16.6602 8.90625" stroke="black"/>
<path opacity="0.996078" d="M4.70703 9.375L15.3125 9.39453L4.70703 9.41406V9.375Z" fill="black" stroke="black"/>
<path opacity="0.996078" d="M4.31641 9.49219L4.23828 9.60938" stroke="black"/>
<path opacity="0.996078" d="M15.6836 9.49219L15.7617 9.60938" stroke="black"/>
<path opacity="0.996078" d="M8.88672 11.5625L8.84766 11.6406" stroke="black"/>
<path opacity="0.996078" d="M11.1133 11.5625L11.1523 11.6406" stroke="black"/>
<path opacity="0.996078" d="M8.69141 11.7578L8.61328 11.875" stroke="black"/>
<path opacity="0.996078" d="M11.3086 11.7578L11.3867 11.875" stroke="black"/>
<path opacity="0.996078" d="M10.3711 12.4219L10.4883 12.5781" stroke="black"/>
<path opacity="0.996078" d="M8.61328 13.9844L8.65234 14.0625" stroke="black"/>
<path opacity="0.996078" d="M11.3867 13.9844L11.3477 14.0625" stroke="black"/>
<path opacity="0.996078" d="M11.1133 14.2578L11.0742 14.3359" stroke="black"/>
<path opacity="0.996078" d="M3.26172 18.6328L3.30078 18.7109" stroke="black"/>
<path opacity="0.996078" d="M16.7383 18.6328L16.6992 18.7109" stroke="black"/>
<path opacity="0.996078" d="M3.41797 18.8281L3.49609 18.9453" stroke="black"/>
<path opacity="0.996078" d="M16.582 18.8281L16.5039 18.9453" stroke="black"/>
<path opacity="0.996078" d="M4.66797 19.375L15.3516 19.3945L4.66797 19.4141V19.375Z" fill="black" stroke="black"/>
<path d="M9.39453 0.625H10.6055L11.7773 0.898438C12.6758 1.23698 13.4115 1.73828 13.9844 2.40234C14.5286 3.01693 14.9193 3.78516 15.1562 4.70703L15.2344 5.09766V5.41016L15.2734 5.44922V8.24219L15.6836 8.28125L16.1133 8.4375C16.3633 8.5651 16.5651 8.74089 16.7188 8.96484C16.8672 9.16797 16.9714 9.41536 17.0312 9.70703V17.9102C16.9349 18.4258 16.707 18.8099 16.3477 19.0625C16.1576 19.2109 15.9232 19.3151 15.6445 19.375H4.35547C3.90234 19.2682 3.55729 19.0534 3.32031 18.7305C3.14063 18.5195 3.02344 18.2461 2.96875 17.9102V9.70703C3.08073 9.19401 3.32161 8.8099 3.69141 8.55469L4.31641 8.28125L4.72656 8.24219V5.44922L4.92188 4.39453C5.24219 3.36068 5.76953 2.53385 6.50391 1.91406C6.89193 1.57292 7.33464 1.28646 7.83203 1.05469L8.45703 0.820312L9.39453 0.625ZM9.53125 1.75781L8.90625 1.875L8.4375 2.03125C8.02083 2.1875 7.66927 2.39583 7.38281 2.65625C6.96615 2.99479 6.6276 3.39844 6.36719 3.86719L6.05469 4.57031L5.85938 5.54688V8.24219H5.89844H14.1406V5.54688C14.0625 5.49479 14.0495 5.39062 14.1016 5.23438L13.8281 4.25781C13.6719 3.86719 13.4635 3.52865 13.2031 3.24219C12.7865 2.72135 12.2526 2.31771 11.6016 2.03125L10.9766 1.83594L10.5469 1.79688L10.5078 1.75781H9.53125ZM4.72656 9.375L4.33594 9.49219L4.10156 9.84375V17.8516L4.17969 18.0078C4.23177 18.138 4.34896 18.2161 4.53125 18.2422H15.5078L15.625 18.2031L15.8984 17.8516V9.84375L15.7812 9.60938L15.5469 9.41406C15.4167 9.4401 15.3385 9.42708 15.3125 9.375H4.72656Z" fill="black" stroke="black"/>
<path d="M9.66797 11.2112C9.9987 11.1669 10.2721 11.18 10.4883 11.2503C10.819 11.3492 11.0859 11.512 11.2891 11.7385C11.4609 11.9182 11.5911 12.1396 11.6797 12.4026L11.7578 13.0667L11.6797 13.4573L11.5234 13.8089L11.1523 14.2581L10.5859 14.5901V15.8792L10.4688 16.2307L10.332 16.3675C10.2279 16.4456 10.0716 16.4716 9.86328 16.4456C9.71484 16.4143 9.60417 16.3427 9.53125 16.2307L9.41406 15.8792V14.5901L9.35547 14.5315C9.06641 14.443 8.83854 14.2932 8.67188 14.0823C8.39063 13.8037 8.2474 13.387 8.24219 12.8323L8.39844 12.2073L8.80859 11.6409C9.02474 11.4273 9.3112 11.2841 9.66797 11.2112ZM9.84375 12.344L9.64844 12.4221L9.49219 12.5784L9.375 12.93L9.41406 13.2034L9.53125 13.3987L9.88281 13.555H10.1562L10.4688 13.3987L10.5859 13.2034C10.5599 13.0732 10.5729 12.9951 10.625 12.969L10.5078 12.5784C10.4036 12.3701 10.1823 12.2919 9.84375 12.344Z" fill="black" stroke="black"/>
</g>
<defs>
<clipPath id="clip0_152_2">
<rect width="20" height="20" fill="white"/>
</clipPath>
</defs>
</svg>
