<svg width="26" height="25" viewBox="0 0 26 25" fill="none" xmlns="http://www.w3.org/2000/svg">
<path d="M7.54187 12.9373C8.4377 12.9241 9.15378 12.1467 9.14127 11.2009C9.12876 10.255 8.3924 9.49901 7.49657 9.51222C6.60073 9.52543 5.88465 10.3029 5.89716 11.2487C5.90967 12.1945 6.64603 12.9505 7.54187 12.9373Z" fill="#0045A8"/>
<path d="M12.9997 12.9401C13.8956 12.9401 14.6219 12.1733 14.6219 11.2274C14.6219 10.2815 13.8956 9.51465 12.9997 9.51465C12.1037 9.51465 11.3774 10.2815 11.3774 11.2274C11.3774 12.1733 12.1037 12.9401 12.9997 12.9401Z" fill="#0045A8"/>
<path d="M20.1016 11.2611C20.1202 10.3154 19.4092 9.53286 18.5135 9.51322C17.6177 9.49357 16.8765 10.2443 16.8579 11.19C16.8393 12.1357 17.5504 12.9183 18.4461 12.9379C19.3418 12.9576 20.083 12.2068 20.1016 11.2611Z" fill="#0045A8"/>
<path d="M8.0786 15.5406C6.19883 16.4167 3.81484 17.3032 1.90962 16.0302C0.640508 15.1426 0.164852 13.4737 0.0365914 11.96C-0.170599 9.65079 0.512248 7.28566 1.82705 5.43369C6.32449 -0.815753 15.6844 -1.65292 21.5901 2.81089C27.0353 6.85968 27.5852 14.4167 22.4153 19.0033C19.0701 22.0088 14.3805 22.9951 10.1271 22.1327L10.4574 22.0389C9.9537 22.4485 9.45208 22.7878 8.92242 23.1124C7.86622 23.7495 6.74459 24.2736 5.56531 24.5965C4.78588 24.8317 3.9405 24.9095 3.13562 25L3.55624 24.5038C4.5169 23.2834 5.67903 21.6436 5.43705 19.9688L5.48119 20.0307C4.76667 19.5466 4.0994 18.989 3.49912 18.364C4.15184 18.9485 4.86273 19.4518 5.61153 19.8756C5.85195 20.7802 5.59958 21.7297 5.25478 22.5592C4.90947 23.3854 4.45614 24.1327 3.9244 24.8432L3.71462 24.4172C6.05603 24.0504 8.27229 22.8459 10.0768 21.2588C14.1375 21.9556 18.5446 20.9655 21.6592 18.0839C24.7639 15.2593 25.7947 10.6607 23.541 6.91395C19.8355 0.831722 11.2576 -0.279022 5.5705 3.2451C2.67451 4.99783 0.464994 8.29388 0.676858 11.9172C0.854969 16.9386 4.45978 16.9825 8.07912 15.5411L8.0786 15.5406Z" fill="#3869E1"/>
</svg>
