<svg width="30" height="30" viewBox="0 0 30 30" fill="none" xmlns="http://www.w3.org/2000/svg">
<g clip-path="url(#clip0_128_55)">
<path opacity="0.792157" d="M4.01367 5.625L4.27734 5.6543L4.01367 5.68359V5.625Z" fill="black" stroke="black"/>
<path opacity="0.792157" d="M25.752 5.625L25.957 5.6543L25.752 5.68359V5.625Z" fill="black" stroke="black"/>
<path opacity="0.792157" d="M3.25195 5.97656L3.13477 6.15234" stroke="black"/>
<path opacity="0.792157" d="M26.748 5.97656L26.8652 6.15234" stroke="black"/>
<path opacity="0.792157" d="M3.01758 6.21094L2.8418 6.44531" stroke="black"/>
<path opacity="0.792157" d="M26.9824 6.21094L27.1582 6.44531" stroke="black"/>
<path opacity="0.792157" d="M2.54883 7.03125L2.57812 7.17773H2.51953L2.54883 7.03125Z" fill="black" stroke="black"/>
<path opacity="0.792157" d="M27.4512 7.03125L27.4805 7.17773H27.4219L27.4512 7.03125Z" fill="black" stroke="black"/>
<path opacity="0.792157" d="M2.54883 7.79297L2.57812 7.93945H2.51953L2.54883 7.79297Z" fill="black" stroke="black"/>
<path opacity="0.792157" d="M27.4512 7.79297L27.4805 7.93945H27.4219L27.4512 7.79297Z" fill="black" stroke="black"/>
<path opacity="0.792157" d="M2.8418 8.55469L3.01758 8.78906" stroke="black"/>
<path opacity="0.792157" d="M27.1582 8.55469L26.9824 8.78906" stroke="black"/>
<path opacity="0.792157" d="M3.13477 8.84766L3.25195 9.02344" stroke="black"/>
<path opacity="0.792157" d="M26.8652 8.84766L26.748 9.02344" stroke="black"/>
<path opacity="0.792157" d="M4.07227 9.31641L4.27734 9.3457L4.07227 9.375V9.31641Z" fill="black" stroke="black"/>
<path opacity="0.792157" d="M25.752 9.31641L25.957 9.3457L25.752 9.375V9.31641Z" fill="black" stroke="black"/>
<path opacity="0.792157" d="M4.01367 13.125L4.27734 13.1543L4.01367 13.1836V13.125Z" fill="black" stroke="black"/>
<path opacity="0.792157" d="M25.752 13.125L25.957 13.1543L25.752 13.1836V13.125Z" fill="black" stroke="black"/>
<path opacity="0.792157" d="M3.25195 13.4766L3.13477 13.6523" stroke="black"/>
<path opacity="0.792157" d="M26.748 13.4766L26.8652 13.6523" stroke="black"/>
<path opacity="0.792157" d="M3.01758 13.7109L2.8418 13.9453" stroke="black"/>
<path opacity="0.792157" d="M26.9824 13.7109L27.1582 13.9453" stroke="black"/>
<path opacity="0.792157" d="M2.54883 14.5312L2.57812 14.6777H2.51953L2.54883 14.5312Z" fill="black" stroke="black"/>
<path opacity="0.792157" d="M27.4512 14.5312L27.4805 14.6777H27.4219L27.4512 14.5312Z" fill="black" stroke="black"/>
<path opacity="0.792157" d="M2.54883 15.293L2.57812 15.4395H2.51953L2.54883 15.293Z" fill="black" stroke="black"/>
<path opacity="0.792157" d="M27.4512 15.293L27.4805 15.4395H27.4219L27.4512 15.293Z" fill="black" stroke="black"/>
<path opacity="0.792157" d="M2.8418 16.0547L3.01758 16.2891" stroke="black"/>
<path opacity="0.792157" d="M27.1582 16.0547L26.9824 16.2891" stroke="black"/>
<path opacity="0.792157" d="M3.13477 16.3477L3.25195 16.5234" stroke="black"/>
<path opacity="0.792157" d="M26.8652 16.3477L26.748 16.5234" stroke="black"/>
<path opacity="0.792157" d="M4.07227 16.8164L4.27734 16.8457L4.07227 16.875V16.8164Z" fill="black" stroke="black"/>
<path opacity="0.792157" d="M25.752 16.8164L25.957 16.8457L25.752 16.875V16.8164Z" fill="black" stroke="black"/>
<path opacity="0.792157" d="M4.01367 20.625L4.27734 20.6543L4.01367 20.6836V20.625Z" fill="black" stroke="black"/>
<path opacity="0.792157" d="M25.752 20.625L25.957 20.6543L25.752 20.6836V20.625Z" fill="black" stroke="black"/>
<path opacity="0.792157" d="M3.25195 20.9766L3.13477 21.1523" stroke="black"/>
<path opacity="0.792157" d="M26.748 20.9766L26.8652 21.1523" stroke="black"/>
<path opacity="0.792157" d="M3.01758 21.2109L2.8418 21.4453" stroke="black"/>
<path opacity="0.792157" d="M26.9824 21.2109L27.1582 21.4453" stroke="black"/>
<path opacity="0.792157" d="M2.54883 22.0312L2.57812 22.1777H2.51953L2.54883 22.0312Z" fill="black" stroke="black"/>
<path opacity="0.792157" d="M27.4512 22.0312L27.4805 22.1777H27.4219L27.4512 22.0312Z" fill="black" stroke="black"/>
<path opacity="0.792157" d="M2.54883 22.793L2.57812 22.9395H2.51953L2.54883 22.793Z" fill="black" stroke="black"/>
<path opacity="0.792157" d="M27.4512 22.793L27.4805 22.9395H27.4219L27.4512 22.793Z" fill="black" stroke="black"/>
<path opacity="0.792157" d="M2.8418 23.5547L3.01758 23.7891" stroke="black"/>
<path opacity="0.792157" d="M27.1582 23.5547L26.9824 23.7891" stroke="black"/>
<path opacity="0.792157" d="M3.13477 23.8477L3.25195 24.0234" stroke="black"/>
<path opacity="0.792157" d="M26.8652 23.8477L26.748 24.0234" stroke="black"/>
<path opacity="0.792157" d="M4.07227 24.3164L4.27734 24.3457L4.07227 24.375V24.3164Z" fill="black" stroke="black"/>
<path opacity="0.792157" d="M25.752 24.3164L25.957 24.3457L25.752 24.375V24.3164Z" fill="black" stroke="black"/>
<path d="M4.30664 5.625H25.6934L26.2793 5.74219L26.9531 6.15234L27.3633 6.82617L27.4805 7.23633V7.76367L27.3633 8.17383L26.9531 8.84766L26.2793 9.25781L25.6934 9.375H4.30664L3.7207 9.25781L3.04688 8.84766L2.63672 8.17383L2.51953 7.76367V7.23633L2.63672 6.82617L3.04688 6.15234L3.7207 5.74219L4.30664 5.625Z" fill="black" stroke="black"/>
<path d="M4.30664 13.125H25.6934L26.2793 13.2422L26.9531 13.6523L27.3633 14.3262L27.4805 14.7363V15.2637L27.3633 15.6738L26.9531 16.3477L26.2793 16.7578L25.6934 16.875H4.30664L3.7207 16.7578L3.04688 16.3477L2.63672 15.6738L2.51953 15.2637V14.7363L2.63672 14.3262L3.04688 13.6523L3.7207 13.2422L4.30664 13.125Z" fill="black" stroke="black"/>
<path d="M4.30664 20.625H25.6934L26.2793 20.7422L26.9531 21.1523L27.3633 21.8262L27.4805 22.2363V22.7637L27.3633 23.1738L26.9531 23.8477L26.2793 24.2578L25.6934 24.375H4.30664L3.7207 24.2578L3.04688 23.8477L2.63672 23.1738L2.51953 22.7637V22.2363L2.63672 21.8262L3.04688 21.1523L3.7207 20.7422L4.30664 20.625Z" fill="black" stroke="black"/>
</g>
<defs>
<clipPath id="clip0_128_55">
<rect width="30" height="30" fill="white"/>
</clipPath>
</defs>
</svg>
