<svg width="512" height="512" version="1.1" xmlns="http://www.w3.org/2000/svg" desc="Created with imagetracer.js version 1.2.6" ><path fill="rgb(0,0,0)" stroke="rgb(0,0,0)" stroke-width="1" opacity="0.796078431372549" d="M 247.5 32 L 252 32.5 L 247.5 33 L 247.5 32 Z " /><path fill="rgb(0,0,0)" stroke="rgb(0,0,0)" stroke-width="1" opacity="0.796078431372549" d="M 260.5 32 L 265 32.5 L 260.5 33 L 260.5 32 Z " /><path fill="rgb(0,0,0)" stroke="rgb(0,0,0)" stroke-width="1" opacity="0.796078431372549" d="M 222.5 41 L 221.5 43 L 222.5 41 Z " /><path fill="rgb(0,0,0)" stroke="rgb(0,0,0)" stroke-width="1" opacity="0.796078431372549" d="M 289.5 41 L 290.5 43 L 289.5 41 Z " /><path fill="rgb(0,0,0)" stroke="rgb(0,0,0)" stroke-width="1" opacity="0.796078431372549" d="M 219.5 43 L 218.5 45 L 219.5 43 Z " /><path fill="rgb(0,0,0)" stroke="rgb(0,0,0)" stroke-width="1" opacity="0.796078431372549" d="M 292.5 43 L 293.5 45 L 292.5 43 Z " /><path fill="rgb(0,0,0)" stroke="rgb(0,0,0)" stroke-width="1" opacity="0.796078431372549" d="M 215.5 46 L 206.5 56 L 215.5 46 Z " /><path fill="rgb(0,0,0)" stroke="rgb(0,0,0)" stroke-width="1" opacity="0.796078431372549" d="M 296.5 46 L 305.5 56 L 296.5 46 Z " /><path fill="rgb(0,0,0)" stroke="rgb(0,0,0)" stroke-width="1" opacity="0.796078431372549" d="M 204.5 58 L 203.5 60 L 204.5 58 Z " /><path fill="rgb(0,0,0)" stroke="rgb(0,0,0)" stroke-width="1" opacity="0.796078431372549" d="M 307.5 58 L 308.5 60 L 307.5 58 Z " /><path fill="rgb(0,0,0)" stroke="rgb(0,0,0)" stroke-width="1" opacity="0.796078431372549" d="M 202.5 61 L 201.5 63 L 202.5 61 Z " /><path fill="rgb(0,0,0)" stroke="rgb(0,0,0)" stroke-width="1" opacity="0.796078431372549" d="M 309.5 61 L 310.5 63 L 309.5 61 Z " /><path fill="rgb(0,0,0)" stroke="rgb(0,0,0)" stroke-width="1" opacity="0.796078431372549" d="M 192.5 87 L 193 91.5 L 192 91.5 L 192.5 87 Z " /><path fill="rgb(0,0,0)" stroke="rgb(0,0,0)" stroke-width="1" opacity="0.796078431372549" d="M 319.5 87 L 320 92.5 L 319 92.5 L 319.5 87 Z " /><path fill="rgb(0,0,0)" stroke="rgb(0,0,0)" stroke-width="1" opacity="0.796078431372549" d="M 135.5 210 L 134.5 212 L 135.5 210 Z " /><path fill="rgb(0,0,0)" stroke="rgb(0,0,0)" stroke-width="1" opacity="0.796078431372549" d="M 152.5 210 L 157.5 216 L 152.5 210 Z " /><path fill="rgb(0,0,0)" stroke="rgb(0,0,0)" stroke-width="1" opacity="0.796078431372549" d="M 359.5 210 L 358.5 212 L 359.5 210 Z " /><path fill="rgb(0,0,0)" stroke="rgb(0,0,0)" stroke-width="1" opacity="0.796078431372549" d="M 376.5 210 L 381.5 216 L 376.5 210 Z " /><path fill="rgb(0,0,0)" stroke="rgb(0,0,0)" stroke-width="1" opacity="0.796078431372549" d="M 131.5 214 L 130.5 216 L 131.5 214 Z " /><path fill="rgb(0,0,0)" stroke="rgb(0,0,0)" stroke-width="1" opacity="0.796078431372549" d="M 355.5 214 L 354.5 216 L 355.5 214 Z " /><path fill="rgb(0,0,0)" stroke="rgb(0,0,0)" stroke-width="1" opacity="0.796078431372549" d="M 192.5 259 L 193 264.5 L 192 264.5 L 192.5 259 Z " /><path fill="rgb(0,0,0)" stroke="rgb(0,0,0)" stroke-width="1" opacity="0.796078431372549" d="M 319.5 259 L 320 264.5 L 319 264.5 L 319.5 259 Z " /><path fill="rgb(0,0,0)" stroke="rgb(0,0,0)" stroke-width="1" opacity="0.796078431372549" d="M 128.5 276 L 129 282.5 L 128 282.5 L 128.5 276 Z " /><path fill="rgb(0,0,0)" stroke="rgb(0,0,0)" stroke-width="1" opacity="0.796078431372549" d="M 383.5 276 L 384 282.5 L 383 282.5 L 383.5 276 Z " /><path fill="rgb(0,0,0)" stroke="rgb(0,0,0)" stroke-width="1" opacity="0.796078431372549" d="M 160.5 279 L 161 282.5 L 160 282.5 L 160.5 279 Z " /><path fill="rgb(0,0,0)" stroke="rgb(0,0,0)" stroke-width="1" opacity="0.796078431372549" d="M 351.5 279 L 352 282.5 L 351 282.5 L 351.5 279 Z " /><path fill="rgb(0,0,0)" stroke="rgb(0,0,0)" stroke-width="1" opacity="0.796078431372549" d="M 350.5 285 L 351 287.5 L 350 287.5 L 350.5 285 Z " /><path fill="rgb(0,0,0)" stroke="rgb(0,0,0)" stroke-width="1" opacity="0.796078431372549" d="M 382.5 286 L 383 288.5 L 382 288.5 L 382.5 286 Z " /><path fill="rgb(0,0,0)" stroke="rgb(0,0,0)" stroke-width="1" opacity="0.796078431372549" d="M 129.5 287 L 130 289.5 L 129 289.5 L 129.5 287 Z " /><path fill="rgb(0,0,0)" stroke="rgb(0,0,0)" stroke-width="1" opacity="0.796078431372549" d="M 201.5 289 L 202.5 291 L 201.5 289 Z " /><path fill="rgb(0,0,0)" stroke="rgb(0,0,0)" stroke-width="1" opacity="0.796078431372549" d="M 310.5 289 L 309.5 291 L 310.5 289 Z " /><path fill="rgb(0,0,0)" stroke="rgb(0,0,0)" stroke-width="1" opacity="0.796078431372549" d="M 203.5 292 L 204.5 294 L 203.5 292 Z " /><path fill="rgb(0,0,0)" stroke="rgb(0,0,0)" stroke-width="1" opacity="0.796078431372549" d="M 308.5 292 L 307.5 294 L 308.5 292 Z " /><path fill="rgb(0,0,0)" stroke="rgb(0,0,0)" stroke-width="1" opacity="0.796078431372549" d="M 206.5 296 L 215.5 306 L 206.5 296 Z " /><path fill="rgb(0,0,0)" stroke="rgb(0,0,0)" stroke-width="1" opacity="0.796078431372549" d="M 305.5 296 L 296.5 306 L 305.5 296 Z " /><path fill="rgb(0,0,0)" stroke="rgb(0,0,0)" stroke-width="1" opacity="0.796078431372549" d="M 343.5 305 L 342.5 307 L 343.5 305 Z " /><path fill="rgb(0,0,0)" stroke="rgb(0,0,0)" stroke-width="1" opacity="0.796078431372549" d="M 218.5 307 L 219.5 309 L 218.5 307 Z " /><path fill="rgb(0,0,0)" stroke="rgb(0,0,0)" stroke-width="1" opacity="0.796078431372549" d="M 293.5 307 L 292.5 309 L 293.5 307 Z " /><path fill="rgb(0,0,0)" stroke="rgb(0,0,0)" stroke-width="1" opacity="0.796078431372549" d="M 221.5 309 L 222.5 311 L 221.5 309 Z " /><path fill="rgb(0,0,0)" stroke="rgb(0,0,0)" stroke-width="1" opacity="0.796078431372549" d="M 290.5 309 L 289.5 311 L 290.5 309 Z " /><path fill="rgb(0,0,0)" stroke="rgb(0,0,0)" stroke-width="1" opacity="0.796078431372549" d="M 171.5 310 L 172.5 312 L 171.5 310 Z " /><path fill="rgb(0,0,0)" stroke="rgb(0,0,0)" stroke-width="1" opacity="0.796078431372549" d="M 340.5 310 L 339.5 312 L 340.5 310 Z " /><path fill="rgb(0,0,0)" stroke="rgb(0,0,0)" stroke-width="1" opacity="0.796078431372549" d="M 173.5 313 L 175.5 316 L 173.5 313 Z " /><path fill="rgb(0,0,0)" stroke="rgb(0,0,0)" stroke-width="1" opacity="0.796078431372549" d="M 338.5 313 L 336.5 316 L 338.5 313 Z " /><path fill="rgb(0,0,0)" stroke="rgb(0,0,0)" stroke-width="1" opacity="0.796078431372549" d="M 138.5 315 L 140 317.5 L 138 316.5 L 138.5 315 Z " /><path fill="rgb(0,0,0)" stroke="rgb(0,0,0)" stroke-width="1" opacity="0.796078431372549" d="M 373.5 315 L 374 316.5 L 372 317.5 L 373.5 315 Z " /><path fill="rgb(0,0,0)" stroke="rgb(0,0,0)" stroke-width="1" opacity="0.796078431372549" d="M 177.5 318 L 187.5 329 L 177.5 318 Z " /><path fill="rgb(0,0,0)" stroke="rgb(0,0,0)" stroke-width="1" opacity="0.796078431372549" d="M 334.5 318 L 324.5 329 L 334.5 318 Z " /><path fill="rgb(0,0,0)" stroke="rgb(0,0,0)" stroke-width="1" opacity="0.796078431372549" d="M 247.5 319 L 253 319.5 L 247.5 320 L 247.5 319 Z " /><path fill="rgb(0,0,0)" stroke="rgb(0,0,0)" stroke-width="1" opacity="0.796078431372549" d="M 259.5 319 L 265 319.5 L 259.5 320 L 259.5 319 Z " /><path fill="rgb(0,0,0)" stroke="rgb(0,0,0)" stroke-width="1" opacity="0.796078431372549" d="M 145.5 328 L 146.5 330 L 145.5 328 Z " /><path fill="rgb(0,0,0)" stroke="rgb(0,0,0)" stroke-width="1" opacity="0.796078431372549" d="M 366.5 328 L 365.5 330 L 366.5 328 Z " /><path fill="rgb(0,0,0)" stroke="rgb(0,0,0)" stroke-width="1" opacity="0.796078431372549" d="M 190.5 330 L 191.5 332 L 190.5 330 Z " /><path fill="rgb(0,0,0)" stroke="rgb(0,0,0)" stroke-width="1" opacity="0.796078431372549" d="M 321.5 330 L 320.5 332 L 321.5 330 Z " /><path fill="rgb(0,0,0)" stroke="rgb(0,0,0)" stroke-width="1" opacity="0.796078431372549" d="M 148.5 332 L 149.5 334 L 148.5 332 Z " /><path fill="rgb(0,0,0)" stroke="rgb(0,0,0)" stroke-width="1" opacity="0.796078431372549" d="M 363.5 332 L 362.5 334 L 363.5 332 Z " /><path fill="rgb(0,0,0)" stroke="rgb(0,0,0)" stroke-width="1" opacity="0.796078431372549" d="M 194.5 333 L 195.5 335 L 194.5 333 Z " /><path fill="rgb(0,0,0)" stroke="rgb(0,0,0)" stroke-width="1" opacity="0.796078431372549" d="M 317.5 333 L 316.5 335 L 317.5 333 Z " /><path fill="rgb(0,0,0)" stroke="rgb(0,0,0)" stroke-width="1" opacity="0.796078431372549" d="M 151.5 336 L 154.5 340 L 151.5 336 Z " /><path fill="rgb(0,0,0)" stroke="rgb(0,0,0)" stroke-width="1" opacity="0.796078431372549" d="M 360.5 336 L 357.5 340 L 360.5 336 Z " /><path fill="rgb(0,0,0)" stroke="rgb(0,0,0)" stroke-width="1" opacity="0.796078431372549" d="M 159.5 345 L 160.5 347 L 159.5 345 Z " /><path fill="rgb(0,0,0)" stroke="rgb(0,0,0)" stroke-width="1" opacity="0.796078431372549" d="M 352.5 345 L 351.5 347 L 352.5 345 Z " /><path fill="rgb(0,0,0)" stroke="rgb(0,0,0)" stroke-width="1" opacity="0.796078431372549" d="M 230.5 349 L 233 349.5 L 230.5 350 L 230.5 349 Z " /><path fill="rgb(0,0,0)" stroke="rgb(0,0,0)" stroke-width="1" opacity="0.796078431372549" d="M 279.5 349 L 282 349.5 L 279.5 350 L 279.5 349 Z " /><path fill="rgb(0,0,0)" stroke="rgb(0,0,0)" stroke-width="1" opacity="0.796078431372549" d="M 235.5 350 L 238 350.5 L 235.5 351 L 235.5 350 Z " /><path fill="rgb(0,0,0)" stroke="rgb(0,0,0)" stroke-width="1" opacity="0.796078431372549" d="M 274.5 350 L 277 350.5 L 274.5 351 L 274.5 350 Z " /><path fill="rgb(0,0,0)" stroke="rgb(0,0,0)" stroke-width="1" opacity="0.796078431372549" d="M 166.5 351 L 168.5 354 L 166.5 351 Z " /><path fill="rgb(0,0,0)" stroke="rgb(0,0,0)" stroke-width="1" opacity="0.796078431372549" d="M 242.5 351 L 247 351.5 L 242.5 352 L 242.5 351 Z " /><path fill="rgb(0,0,0)" stroke="rgb(0,0,0)" stroke-width="1" opacity="0.796078431372549" d="M 265.5 351 L 270 351.5 L 265.5 352 L 265.5 351 Z " /><path fill="rgb(0,0,0)" stroke="rgb(0,0,0)" stroke-width="1" opacity="0.796078431372549" d="M 345.5 351 L 343.5 354 L 345.5 351 Z " /><path fill="rgb(0,0,0)" stroke="rgb(0,0,0)" stroke-width="1" opacity="0.796078431372549" d="M 171.5 355 L 173.5 358 L 171.5 355 Z " /><path fill="rgb(0,0,0)" stroke="rgb(0,0,0)" stroke-width="1" opacity="0.796078431372549" d="M 340.5 355 L 338.5 358 L 340.5 355 Z " /><path fill="rgb(0,0,0)" stroke="rgb(0,0,0)" stroke-width="1" opacity="0.796078431372549" d="M 175.5 358 L 176.5 360 L 175.5 358 Z " /><path fill="rgb(0,0,0)" stroke="rgb(0,0,0)" stroke-width="1" opacity="0.796078431372549" d="M 336.5 358 L 335.5 360 L 336.5 358 Z " /><path fill="rgb(0,0,0)" stroke="rgb(0,0,0)" stroke-width="1" opacity="0.796078431372549" d="M 178.5 360 L 179.5 362 L 178.5 360 Z " /><path fill="rgb(0,0,0)" stroke="rgb(0,0,0)" stroke-width="1" opacity="0.796078431372549" d="M 181.5 362 L 182.5 364 L 181.5 362 Z " /><path fill="rgb(0,0,0)" stroke="rgb(0,0,0)" stroke-width="1" opacity="0.796078431372549" d="M 330.5 362 L 329.5 364 L 330.5 362 Z " /><path fill="rgb(0,0,0)" stroke="rgb(0,0,0)" stroke-width="1" opacity="0.796078431372549" d="M 186.5 365 L 187.5 367 L 186.5 365 Z " /><path fill="rgb(0,0,0)" stroke="rgb(0,0,0)" stroke-width="1" opacity="0.796078431372549" d="M 325.5 365 L 324.5 367 L 325.5 365 Z " /><path fill="rgb(0,0,0)" stroke="rgb(0,0,0)" stroke-width="1" opacity="0.796078431372549" d="M 224.5 380 L 227 380.5 L 224.5 381 L 224.5 380 Z " /><path fill="rgb(0,0,0)" stroke="rgb(0,0,0)" stroke-width="1" opacity="0.796078431372549" d="M 285.5 380 L 288 380.5 L 285.5 381 L 285.5 380 Z " /><path fill="rgb(0,0,0)" stroke="rgb(0,0,0)" stroke-width="1" opacity="0.796078431372549" d="M 229.5 381 L 232 381.5 L 229.5 382 L 229.5 381 Z " /><path fill="rgb(0,0,0)" stroke="rgb(0,0,0)" stroke-width="1" opacity="0.796078431372549" d="M 280.5 381 L 283 381.5 L 280.5 382 L 280.5 381 Z " /><path fill="rgb(0,0,0)" stroke="rgb(0,0,0)" stroke-width="1" opacity="0.796078431372549" d="M 235.5 382 L 239 382.5 L 235.5 383 L 235.5 382 Z " /><path fill="rgb(0,0,0)" stroke="rgb(0,0,0)" stroke-width="1" opacity="0.796078431372549" d="M 273.5 382 L 277 382.5 L 273.5 383 L 273.5 382 Z " /><path fill="rgb(0,0,0)" stroke="rgb(0,0,0)" stroke-width="1" opacity="0.796078431372549" d="M 167.5 450 L 166.5 452 L 167.5 450 Z " /><path fill="rgb(0,0,0)" stroke="rgb(0,0,0)" stroke-width="1" opacity="0.796078431372549" d="M 344.5 450 L 349.5 456 L 344.5 450 Z " /><path fill="rgb(0,0,0)" stroke="rgb(0,0,0)" stroke-width="1" opacity="0.796078431372549" d="M 163.5 454 L 162.5 456 L 163.5 454 Z " /><path fill="rgb(0,0,0)" stroke="rgb(0,0,0)" stroke-width="1" opacity="0.796078431372549" d="M 162.5 472 L 167.5 478 L 162.5 472 Z " /><path fill="rgb(0,0,0)" stroke="rgb(0,0,0)" stroke-width="1" opacity="0.796078431372549" d="M 349.5 472 L 344.5 478 L 349.5 472 Z " /><path fill="rgb(0,0,0)" stroke="rgb(0,0,0)" stroke-width="1" opacity="0" d="M 0 0 L 512 0 L 512 512 L 0 512 L 0 0 Z M 248 32 Q 228 35 216 46 Q 197 60 192 88 L 192 265 Q 195 284 206 297 Q 220 315 248 320 L 265 320 L 274 318 Q 287 314 297 306 Q 315 292 320 265 L 320 88 Q 317 68 306 56 Q 296 43 280 36 L 265 32 L 248 32 Z M 141 208 L 136 210 Q 130 213 128 221 L 128 283 Q 131 284 129 290 L 133 305 L 138 317 Q 146 333 159 346 Q 187 375 236 383 Q 240 382 240 384 L 240 448 L 173 448 L 168 450 Q 162 453 160 461 Q 159 469 162 473 Q 165 478 173 480 L 340 480 L 345 478 Q 350 475 352 468 Q 353 460 350 456 Q 347 450 340 448 L 272 448 L 272 383 Q 295 381 313 373 Q 335 363 352 347 Q 365 334 374 317 L 380 302 L 384 283 L 384 221 L 382 216 Q 379 210 372 208 Q 364 207 360 210 Q 354 213 352 221 L 352 279 L 350 290 Q 345 305 336 317 Q 321 334 299 344 L 284 349 L 274 351 L 266 351 L 265 352 L 239 351 L 222 347 Q 203 341 190 330 Q 170 315 162 290 L 160 279 L 160 221 L 158 216 Q 154 207 141 208 Z " /><path fill="rgb(0,0,0)" stroke="rgb(0,0,0)" stroke-width="1" opacity="1" d="M 252.5 32 L 267.5 33 L 278.5 36 Q 296.3 43.3 307 57.5 L 316 73.5 L 320 93.5 L 320 258.5 L 317 275.5 L 311 288.5 Q 304.5 299.5 294.5 307 L 275.5 317 L 267.5 319 L 253.5 320 L 236.5 317 L 223.5 311 Q 212.5 304.5 205 294.5 L 196 278.5 L 192 258.5 L 192 92.5 L 195 76.5 L 201 63.5 Q 207.5 52.5 217.5 45 L 233.5 36 L 252.5 32 Z " /><path fill="rgb(0,0,0)" stroke="rgb(0,0,0)" stroke-width="1" opacity="1" d="M 142.5 208 Q 154.1 208.4 158 216.5 L 160 222.5 L 160 282.5 L 162 291.5 Q 170 315 187.5 329 Q 203.7 342.3 226.5 349 L 242.5 352 L 269.5 352 L 285.5 349 Q 300 345 311.5 338 Q 325.2 330.2 335 318.5 Q 346 306 351 287.5 L 352 282.5 L 352 222.5 Q 353.3 215.8 357.5 212 Q 361.5 208 369.5 208 Q 378.4 209.6 382 216.5 L 384 222.5 L 384 275.5 L 383 276.5 L 382 291.5 L 377 308.5 Q 366.2 334.2 346.5 351 Q 332.2 363.7 313.5 372 L 293.5 379 L 279.5 382 L 273.5 382 L 272 383.5 L 272 448 L 337.5 448 Q 346.4 449.6 350 456.5 L 352 465.5 Q 350.4 474.4 343.5 478 L 337.5 480 L 174.5 480 Q 165.6 478.4 162 471.5 L 160 462.5 Q 161.3 455.8 165.5 452 L 174.5 448 L 240 448 L 240 383.5 L 238.5 382 L 232.5 382 L 218.5 379 L 196.5 371 Q 172.1 359.4 155 340.5 Q 137.1 321.4 130 291.5 L 129 276.5 L 128 275.5 L 128 222.5 Q 129.3 215.8 133.5 212 L 142.5 208 Z " /></svg>