<svg width="23" height="23" viewBox="0 0 23 23" fill="none" xmlns="http://www.w3.org/2000/svg">
<rect width="23" height="23" fill="#FF1E1E" fill-opacity="0.9"/>
<path d="M4.94344 11.012C4.87302 12.3499 4.95397 13.774 3.75871 14.6704C3.20241 15.0876 2.875 15.7424 2.875 16.4378C2.875 17.3944 3.62423 18.2082 4.6 18.2082H18.4C19.3758 18.2082 20.125 17.3944 20.125 16.4378C20.125 15.7424 19.7976 15.0876 19.2413 14.6704C18.046 13.774 18.127 12.3499 18.0565 11.012C17.873 7.52489 14.992 4.7915 11.5 4.7915C8.008 4.7915 5.12697 7.52488 4.94344 11.012Z" stroke="white" stroke-width="1.5" stroke-linecap="round" stroke-linejoin="round"/>
<path d="M10.0625 2.99463C10.0625 3.78854 10.7061 4.7915 11.5 4.7915C12.2939 4.7915 12.9375 3.78854 12.9375 2.99463C12.9375 2.20072 12.2939 1.9165 11.5 1.9165C10.7061 1.9165 10.0625 2.20072 10.0625 2.99463Z" stroke="white" stroke-width="1.5"/>
<path d="M14.375 18.2085C14.375 19.7964 13.0879 21.0835 11.5 21.0835C9.91214 21.0835 8.625 19.7964 8.625 18.2085" stroke="white" stroke-width="1.5" stroke-linecap="round" stroke-linejoin="round"/>
</svg>
