<svg width="13" height="13" viewBox="0 0 13 13" fill="none" xmlns="http://www.w3.org/2000/svg">
<g clip-path="url(#clip0_147_2382)">
<path opacity="0.811765" d="M2.57715 1.16797L2.69141 1.18066L2.57715 1.19336V1.16797Z" fill="black" stroke="black"/>
<path opacity="0.811765" d="M2.93262 1.16797L3.04688 1.18066L2.93262 1.19336V1.16797Z" fill="black" stroke="black"/>
<path opacity="0.811765" d="M2.4248 1.19336L2.48828 1.20605L2.4248 1.21875V1.19336Z" fill="black" stroke="black"/>
<path opacity="0.811765" d="M3.13574 1.19336L3.19922 1.20605L3.13574 1.21875V1.19336Z" fill="black" stroke="black"/>
<path opacity="0.811765" d="M1.91699 1.39648L1.8916 1.44727" stroke="black"/>
<path opacity="0.811765" d="M1.84082 1.44727L1.76465 1.54883" stroke="black"/>
<path opacity="0.811765" d="M1.58691 1.70117L1.53613 1.77734" stroke="black"/>
<path opacity="0.811765" d="M1.48535 1.82812L1.45996 1.87891" stroke="black"/>
<path opacity="0.811765" d="M1.43457 1.9043L1.40918 1.95508" stroke="black"/>
<path opacity="0.811765" d="M4.81152 1.95508L4.875 1.99316L4.83691 2.00586L4.81152 1.95508Z" fill="black" stroke="black"/>
<path opacity="0.811765" d="M4.91309 2.00586L5.05273 2.09473L5.01465 2.08203C4.94694 2.07357 4.91309 2.04818 4.91309 2.00586Z" fill="black" stroke="black"/>
<path opacity="0.811765" d="M2.80566 2.23438L2.86914 2.24707L2.80566 2.25977V2.23438Z" fill="black" stroke="black"/>
<path opacity="0.811765" d="M2.4502 2.31055L2.4248 2.36133" stroke="black"/>
<path opacity="0.811765" d="M2.37402 2.41211L2.34863 2.46289" stroke="black"/>
<path opacity="0.811765" d="M1.15527 2.66602L1.16797 2.80566H1.14258L1.15527 2.66602Z" fill="black" stroke="black"/>
<path opacity="0.811765" d="M2.22168 2.79297L2.23438 10.2451H2.20898L2.22168 2.79297Z" fill="black" stroke="black"/>
<path opacity="0.811765" d="M1.15527 2.94531L1.16797 10.1182H1.14258L1.15527 2.94531Z" fill="black" stroke="black"/>
<path opacity="0.811765" d="M6.7666 2.94531L6.83008 2.9834L6.79199 2.99609L6.7666 2.94531Z" fill="black" stroke="black"/>
<path opacity="0.811765" d="M6.86816 2.99609L6.89355 3.04688" stroke="black"/>
<path opacity="0.811765" d="M6.94434 3.04688L7.00781 3.08496L6.96973 3.07227L6.94434 3.04688Z" fill="black" stroke="black"/>
<path opacity="0.811765" d="M5.4209 3.47852L5.56055 3.56738L5.52246 3.55469C5.45475 3.54622 5.4209 3.52083 5.4209 3.47852Z" fill="black" stroke="black"/>
<path opacity="0.811765" d="M8.77246 3.96094L8.91211 4.0498L8.87402 4.03711C8.80632 4.02865 8.77246 4.00326 8.77246 3.96094Z" fill="black" stroke="black"/>
<path opacity="0.811765" d="M7.78223 4.67188L7.87109 4.73535L7.83301 4.72266L7.78223 4.67188Z" fill="black" stroke="black"/>
<path opacity="0.811765" d="M10.626 4.90039L10.7148 4.96387L10.6768 4.95117L10.626 4.90039Z" fill="black" stroke="black"/>
<path opacity="0.811765" d="M10.8545 5.02734L10.8799 5.07812" stroke="black"/>
<path opacity="0.811765" d="M10.9814 5.10352L11.0068 5.1543" stroke="black"/>
<path opacity="0.811765" d="M11.083 5.17969L11.1084 5.23047" stroke="black"/>
<path opacity="0.811765" d="M11.1846 5.25586L11.2607 5.35742" stroke="black"/>
<path opacity="0.811765" d="M11.4131 5.48438L11.4893 5.58594" stroke="black"/>
<path opacity="0.811765" d="M11.54 5.63672L11.5654 5.6875" stroke="black"/>
<path opacity="0.811765" d="M11.5908 5.71289L11.6162 5.76367" stroke="black"/>
<path opacity="0.811765" d="M9.94043 5.76367L10.0039 5.80176L9.96582 5.81445L9.94043 5.76367Z" fill="black" stroke="black"/>
<path opacity="0.811765" d="M10.1436 5.86523L10.1689 5.91602" stroke="black"/>
<path opacity="0.811765" d="M10.3213 5.9668L10.3467 6.01758" stroke="black"/>
<path opacity="0.811765" d="M10.4736 6.06836L10.5244 6.14453" stroke="black"/>
<path opacity="0.811765" d="M10.6514 6.24609L10.7021 6.32227" stroke="black"/>
<path opacity="0.811765" d="M11.8447 6.37305L11.8574 6.69043H11.832L11.8447 6.37305Z" fill="black" stroke="black"/>
<path opacity="0.811765" d="M10.7021 6.70312L10.6768 6.75391" stroke="black"/>
<path opacity="0.811765" d="M11.8193 6.7793L11.832 6.84277H11.8066L11.8193 6.7793Z" fill="black" stroke="black"/>
<path opacity="0.811765" d="M10.626 6.80469L10.5752 6.88086" stroke="black"/>
<path opacity="0.811765" d="M10.4736 6.93164L10.4482 6.98242" stroke="black"/>
<path opacity="0.811765" d="M10.1943 7.10938L10.1689 7.16016L10.1309 7.14746L10.1943 7.10938Z" fill="black" stroke="black"/>
<path opacity="0.811765" d="M10.0928 7.16016L10.0674 7.21094" stroke="black"/>
<path opacity="0.811765" d="M11.6416 7.26172L11.6162 7.3125" stroke="black"/>
<path opacity="0.811765" d="M11.5908 7.33789L11.5654 7.38867" stroke="black"/>
<path opacity="0.811765" d="M11.54 7.41406L11.4893 7.49023" stroke="black"/>
<path opacity="0.811765" d="M11.4131 7.56641L11.3369 7.66797" stroke="black"/>
<path opacity="0.811765" d="M11.21 7.74414L11.1592 7.82031" stroke="black"/>
<path opacity="0.811765" d="M11.083 7.8457L11.0576 7.89648" stroke="black"/>
<path opacity="0.811765" d="M11.0068 7.89648L10.9814 7.94727" stroke="black"/>
<path opacity="0.811765" d="M10.9307 7.94727L10.9053 7.99805" stroke="black"/>
<path opacity="0.811765" d="M10.8037 8.02344L10.7783 8.07422" stroke="black"/>
<path opacity="0.811765" d="M8.34082 8.04883L8.31543 8.09961" stroke="black"/>
<path opacity="0.811765" d="M10.1182 8.37891L10.0928 8.42969L9.94043 8.50586L9.96582 8.45508L10.1182 8.37891Z" fill="black" stroke="black"/>
<path opacity="0.811765" d="M6.53809 8.96289L6.5127 9.01367L6.46191 9.03906L6.4873 8.98828L6.53809 8.96289Z" fill="black" stroke="black"/>
<path opacity="0.811765" d="M7.60449 9.64844L7.5791 9.69922L7.42676 9.77539L7.45215 9.72461L7.60449 9.64844Z" fill="black" stroke="black"/>
<path opacity="0.811765" d="M4.73535 9.87695L4.70996 9.92773L4.65918 9.95312L4.68457 9.90234L4.73535 9.87695Z" fill="black" stroke="black"/>
<path opacity="0.811765" d="M1.15527 10.2324L1.16797 10.3975H1.14258L1.15527 10.2324Z" fill="black" stroke="black"/>
<path opacity="0.811765" d="M1.18066 10.4863L1.19336 10.5498H1.16797L1.18066 10.4863Z" fill="black" stroke="black"/>
<path opacity="0.811765" d="M2.39941 10.6387L2.47559 10.7402" stroke="black"/>
<path opacity="0.811765" d="M3.18652 10.6641L3.16113 10.7148" stroke="black"/>
<path opacity="0.811765" d="M5.09082 10.918L5.06543 10.9688L5.02734 10.9561L5.09082 10.918Z" fill="black" stroke="black"/>
<path opacity="0.811765" d="M4.98926 10.9688L4.96387 11.0195L4.91309 11.0449L4.93848 10.9941L4.98926 10.9688Z" fill="black" stroke="black"/>
<path opacity="0.811765" d="M4.78613 11.0703L4.82422 11.083L4.76074 11.1211L4.78613 11.0703Z" fill="black" stroke="black"/>
<path opacity="0.811765" d="M1.45996 11.1973L1.48535 11.248" stroke="black"/>
<path opacity="0.811765" d="M1.53613 11.2988L1.6123 11.4004" stroke="black"/>
<path opacity="0.811765" d="M1.73926 11.502L1.81543 11.6035" stroke="black"/>
<path opacity="0.811765" d="M1.8916 11.6289L1.91699 11.6797" stroke="black"/>
<path opacity="0.811765" d="M2.4248 11.8574L2.51367 11.8701L2.4248 11.8828V11.8574Z" fill="black" stroke="black"/>
<path opacity="0.811765" d="M2.95801 11.8574L3.02148 11.8701L2.95801 11.8828V11.8574Z" fill="black" stroke="black"/>
<path opacity="0.811765" d="M2.67871 11.8828L2.76758 11.8955L2.67871 11.9082V11.8828Z" fill="black" stroke="black"/>
<path d="M2.7041 1.16797L3.11035 1.19336L3.46582 1.29492L10.6006 4.90039C10.9104 5.04935 11.177 5.23978 11.4004 5.47168C11.5477 5.6291 11.6661 5.8153 11.7559 6.03027L11.832 6.30957V6.7666C11.7322 7.19147 11.5333 7.51732 11.2354 7.74414L10.7529 8.07422L3.56738 11.7051L3.08496 11.8574L2.52637 11.8828C2.13535 11.8168 1.8349 11.6602 1.625 11.4131C1.47773 11.2557 1.35924 11.0695 1.26953 10.8545L1.16797 10.4736L1.14258 10.1436L1.16797 10.1182V2.95801L1.14258 2.83105L1.16797 2.80566V2.57715L1.26953 2.22168C1.38294 1.95423 1.53952 1.72995 1.73926 1.54883L2.14551 1.29492L2.37402 1.21875L2.67871 1.19336L2.7041 1.16797ZM2.61523 2.23438L2.46289 2.31055L2.25977 2.61523L2.20898 2.81836V10.2578C2.24284 10.4102 2.30208 10.5456 2.38672 10.6641L2.53906 10.7656L2.76758 10.8164L2.9707 10.791L3.17383 10.7148L10.1816 7.16016L10.5879 6.88086L10.7656 6.62695C10.7826 6.47461 10.7656 6.37305 10.7148 6.32227C10.5625 6.11914 10.3763 5.9668 10.1562 5.86523L5.53516 3.5293L3.04688 2.28516L2.86914 2.23438H2.61523Z" fill="black" stroke="black"/>
</g>
<defs>
<clipPath id="clip0_147_2382">
<rect width="13" height="13" fill="white"/>
</clipPath>
</defs>
</svg>
