<svg width="512" height="512" version="1.1" xmlns="http://www.w3.org/2000/svg" desc="Created with imagetracer.js version 1.2.6" ><path fill="rgb(0,0,0)" stroke="rgb(0,0,0)" stroke-width="1" opacity="0" d="M 0 0 L 512 0 L 512 512 L 0 512 L 0 0 Z M 239 24 L 238 25 L 228 25 L 220 27 L 214 27 L 200 30 L 164 42 Q 129 57 103 80 Q 63 113 41 164 L 33 185 L 27 207 L 24 224 L 24 231 L 23 232 L 23 243 L 22 244 L 22 269 L 23 270 L 24 289 L 28 310 L 35 334 Q 51 376 78 408 Q 106 440 145 461 Q 165 472 189 479 L 209 484 L 227 486 L 228 487 L 238 487 L 239 488 L 270 488 L 271 487 L 289 486 L 305 483 L 330 476 Q 377 459 411 428 Q 447 395 468 348 L 481 308 L 485 285 L 485 276 L 486 275 L 486 237 L 485 236 L 485 228 L 484 227 L 482 209 L 476 186 Q 460 137 429 103 Q 395 63 344 41 L 318 32 L 289 26 L 272 25 L 271 24 L 239 24 Z " /><path fill="rgb(0,0,0)" stroke="rgb(0,0,0)" stroke-width="1" opacity="0" d="M 254.5 74 L 268.5 75 L 286.5 80 Q 307.6 88.9 321 105.5 Q 330.7 117.3 336 133.5 L 339 146.5 L 339 170.5 Q 336 188.5 328 201.5 L 321 211.5 L 296 237.5 L 280 263.5 L 271 289.5 L 269 307.5 L 268 308.5 L 268 328.5 L 263.5 336 Q 260.2 339.2 252.5 338 L 246 333.5 L 244 328.5 L 244 309.5 L 245 308.5 L 245 299.5 L 248 283.5 L 257 256.5 Q 264.5 239.5 275 225.5 L 304 194.5 L 308 188.5 L 315 169.5 L 316 155.5 Q 313.3 153.8 315 147.5 L 311 134.5 Q 305.8 123.2 297.5 115 Q 289.3 106.7 277.5 102 L 267.5 99 L 250.5 98 L 229.5 104 Q 218.6 109.6 211 118.5 L 200 136.5 Q 195.7 147.2 196 162.5 L 190.5 169 L 181.5 170 L 174 164.5 L 173 162.5 L 173 146.5 Q 179.8 110.3 204.5 92 Q 215.5 83 230.5 78 L 243.5 75 L 253.5 75 L 254.5 74 Z " /><path fill="rgb(0,0,0)" stroke="rgb(0,0,0)" stroke-width="1" opacity="0" d="M 253.5 382 Q 265.8 381.7 271 388.5 L 276 398.5 L 276 406.5 Q 273.5 415.5 266.5 420 L 262.5 422 L 254.5 423 L 249.5 422 L 241 416.5 Q 234.2 411.3 236 397.5 Q 238.1 390.1 243.5 386 L 253.5 382 Z M 255 399 Q 251 399 252 404 Q 253 407 258 406 Q 261 406 260 402 Q 259 398 255 399 Z " /><path fill="rgb(0,0,0)" stroke="rgb(0,0,0)" stroke-width="1" opacity="0.796078431372549" d="M 238.5 24 L 247 24.5 L 238.5 25 L 238.5 24 Z " /><path fill="rgb(0,0,0)" stroke="rgb(0,0,0)" stroke-width="1" opacity="0.796078431372549" d="M 262.5 24 L 271 24.5 L 262.5 25 L 262.5 24 Z " /><path fill="rgb(0,0,0)" stroke="rgb(0,0,0)" stroke-width="1" opacity="0.796078431372549" d="M 227.5 25 L 232 25.5 L 227.5 26 L 227.5 25 Z " /><path fill="rgb(0,0,0)" stroke="rgb(0,0,0)" stroke-width="1" opacity="0.796078431372549" d="M 277.5 25 L 282 25.5 L 277.5 26 L 277.5 25 Z " /><path fill="rgb(0,0,0)" stroke="rgb(0,0,0)" stroke-width="1" opacity="0.796078431372549" d="M 220.5 26 L 223 26.5 L 220.5 27 L 220.5 26 Z " /><path fill="rgb(0,0,0)" stroke="rgb(0,0,0)" stroke-width="1" opacity="0.796078431372549" d="M 286.5 26 L 289 26.5 L 286.5 27 L 286.5 26 Z " /><path fill="rgb(0,0,0)" stroke="rgb(0,0,0)" stroke-width="1" opacity="0.796078431372549" d="M 213.5 27 L 217 27.5 L 213.5 28 L 213.5 27 Z " /><path fill="rgb(0,0,0)" stroke="rgb(0,0,0)" stroke-width="1" opacity="0.796078431372549" d="M 208.5 28 L 211 28.5 L 208.5 29 L 208.5 28 Z " /><path fill="rgb(0,0,0)" stroke="rgb(0,0,0)" stroke-width="1" opacity="0.796078431372549" d="M 298.5 28 L 301 28.5 L 298.5 29 L 298.5 28 Z " /><path fill="rgb(0,0,0)" stroke="rgb(0,0,0)" stroke-width="1" opacity="0.796078431372549" d="M 199.5 30 L 202 30.5 L 199.5 31 L 199.5 30 Z " /><path fill="rgb(0,0,0)" stroke="rgb(0,0,0)" stroke-width="1" opacity="0.796078431372549" d="M 156.5 45 L 158 45.5 L 154.5 47 L 154.5 46 L 156.5 45 Z " /><path fill="rgb(0,0,0)" stroke="rgb(0,0,0)" stroke-width="1" opacity="0.796078431372549" d="M 146.5 50 L 145.5 52 L 146.5 50 Z " /><path fill="rgb(0,0,0)" stroke="rgb(0,0,0)" stroke-width="1" opacity="0.796078431372549" d="M 362.5 50 L 366 52.5 L 364.5 52 L 362.5 50 Z " /><path fill="rgb(0,0,0)" stroke="rgb(0,0,0)" stroke-width="1" opacity="0.796078431372549" d="M 137.5 55 L 136.5 57 L 137.5 55 Z " /><path fill="rgb(0,0,0)" stroke="rgb(0,0,0)" stroke-width="1" opacity="0.796078431372549" d="M 371.5 55 L 372.5 57 L 371.5 55 Z " /><path fill="rgb(0,0,0)" stroke="rgb(0,0,0)" stroke-width="1" opacity="0.796078431372549" d="M 132.5 58 L 131.5 60 L 132.5 58 Z " /><path fill="rgb(0,0,0)" stroke="rgb(0,0,0)" stroke-width="1" opacity="0.796078431372549" d="M 376.5 58 L 377.5 60 L 376.5 58 Z " /><path fill="rgb(0,0,0)" stroke="rgb(0,0,0)" stroke-width="1" opacity="0.796078431372549" d="M 129.5 60 L 128.5 62 L 129.5 60 Z " /><path fill="rgb(0,0,0)" stroke="rgb(0,0,0)" stroke-width="1" opacity="0.796078431372549" d="M 379.5 60 L 380.5 62 L 379.5 60 Z " /><path fill="rgb(0,0,0)" stroke="rgb(0,0,0)" stroke-width="1" opacity="0.796078431372549" d="M 126.5 62 L 125.5 64 L 126.5 62 Z " /><path fill="rgb(0,0,0)" stroke="rgb(0,0,0)" stroke-width="1" opacity="0.796078431372549" d="M 123.5 64 L 122.5 66 L 123.5 64 Z " /><path fill="rgb(0,0,0)" stroke="rgb(0,0,0)" stroke-width="1" opacity="0.796078431372549" d="M 385.5 64 L 386.5 66 L 385.5 64 Z " /><path fill="rgb(0,0,0)" stroke="rgb(0,0,0)" stroke-width="1" opacity="0.796078431372549" d="M 120.5 66 L 119.5 68 L 120.5 66 Z " /><path fill="rgb(0,0,0)" stroke="rgb(0,0,0)" stroke-width="1" opacity="0.796078431372549" d="M 388.5 66 L 389.5 68 L 388.5 66 Z " /><path fill="rgb(0,0,0)" stroke="rgb(0,0,0)" stroke-width="1" opacity="0.796078431372549" d="M 116.5 69 L 115.5 71 L 116.5 69 Z " /><path fill="rgb(0,0,0)" stroke="rgb(0,0,0)" stroke-width="1" opacity="0.796078431372549" d="M 392.5 69 L 393.5 71 L 392.5 69 Z " /><path fill="rgb(0,0,0)" stroke="rgb(0,0,0)" stroke-width="1" opacity="0.796078431372549" d="M 113.5 71 L 111.5 74 L 113.5 71 Z " /><path fill="rgb(0,0,0)" stroke="rgb(0,0,0)" stroke-width="1" opacity="0.796078431372549" d="M 396.5 72 L 398.5 75 L 396.5 72 Z " /><path fill="rgb(0,0,0)" stroke="rgb(0,0,0)" stroke-width="1" opacity="0.796078431372549" d="M 246.5 74 L 254 74.5 L 246.5 75 L 246.5 74 Z " /><path fill="rgb(0,0,0)" stroke="rgb(0,0,0)" stroke-width="1" opacity="0.796078431372549" d="M 259.5 74 L 265 74.5 L 259.5 75 L 259.5 74 Z " /><path fill="rgb(0,0,0)" stroke="rgb(0,0,0)" stroke-width="1" opacity="0.796078431372549" d="M 108.5 75 L 106.5 78 L 108.5 75 Z " /><path fill="rgb(0,0,0)" stroke="rgb(0,0,0)" stroke-width="1" opacity="0.796078431372549" d="M 240.5 75 L 243 75.5 L 240.5 76 L 240.5 75 Z " /><path fill="rgb(0,0,0)" stroke="rgb(0,0,0)" stroke-width="1" opacity="0.796078431372549" d="M 269.5 75 L 272 75.5 L 269.5 76 L 269.5 75 Z " /><path fill="rgb(0,0,0)" stroke="rgb(0,0,0)" stroke-width="1" opacity="0.796078431372549" d="M 401.5 76 L 403.5 79 L 401.5 76 Z " /><path fill="rgb(0,0,0)" stroke="rgb(0,0,0)" stroke-width="1" opacity="0.796078431372549" d="M 102.5 80 L 97.5 86 L 102.5 80 Z " /><path fill="rgb(0,0,0)" stroke="rgb(0,0,0)" stroke-width="1" opacity="0.796078431372549" d="M 407.5 81 L 414.5 89 L 407.5 81 Z " /><path fill="rgb(0,0,0)" stroke="rgb(0,0,0)" stroke-width="1" opacity="0.796078431372549" d="M 215.5 84 L 214.5 86 L 215.5 84 Z " /><path fill="rgb(0,0,0)" stroke="rgb(0,0,0)" stroke-width="1" opacity="0.796078431372549" d="M 299.5 86 L 300.5 88 L 299.5 86 Z " /><path fill="rgb(0,0,0)" stroke="rgb(0,0,0)" stroke-width="1" opacity="0.796078431372549" d="M 210.5 87 L 209.5 89 L 210.5 87 Z " /><path fill="rgb(0,0,0)" stroke="rgb(0,0,0)" stroke-width="1" opacity="0.796078431372549" d="M 302.5 88 L 303.5 90 L 302.5 88 Z " /><path fill="rgb(0,0,0)" stroke="rgb(0,0,0)" stroke-width="1" opacity="0.796078431372549" d="M 207.5 89 L 205.5 92 L 207.5 89 Z " /><path fill="rgb(0,0,0)" stroke="rgb(0,0,0)" stroke-width="1" opacity="0.796078431372549" d="M 305.5 90 L 307.5 93 L 305.5 90 Z " /><path fill="rgb(0,0,0)" stroke="rgb(0,0,0)" stroke-width="1" opacity="0.796078431372549" d="M 202.5 93 L 191.5 105 L 202.5 93 Z " /><path fill="rgb(0,0,0)" stroke="rgb(0,0,0)" stroke-width="1" opacity="0.796078431372549" d="M 310.5 94 L 319.5 104 L 310.5 94 Z " /><path fill="rgb(0,0,0)" stroke="rgb(0,0,0)" stroke-width="1" opacity="0.796078431372549" d="M 422.5 96 L 428.5 103 L 422.5 96 Z " /><path fill="rgb(0,0,0)" stroke="rgb(0,0,0)" stroke-width="1" opacity="0.796078431372549" d="M 250.5 98 L 261 98.5 L 250.5 99 L 250.5 98 Z " /><path fill="rgb(0,0,0)" stroke="rgb(0,0,0)" stroke-width="1" opacity="0.796078431372549" d="M 83.5 99 L 78.5 105 L 83.5 99 Z " /><path fill="rgb(0,0,0)" stroke="rgb(0,0,0)" stroke-width="1" opacity="0.796078431372549" d="M 265.5 99 L 268 99.5 L 265.5 100 L 265.5 99 Z " /><path fill="rgb(0,0,0)" stroke="rgb(0,0,0)" stroke-width="1" opacity="0.796078431372549" d="M 229.5 104 L 231 104.5 L 228.5 106 L 229.5 104 Z " /><path fill="rgb(0,0,0)" stroke="rgb(0,0,0)" stroke-width="1" opacity="0.796078431372549" d="M 321.5 106 L 323.5 109 L 321.5 106 Z " /><path fill="rgb(0,0,0)" stroke="rgb(0,0,0)" stroke-width="1" opacity="0.796078431372549" d="M 431.5 106 L 434.5 110 L 431.5 106 Z " /><path fill="rgb(0,0,0)" stroke="rgb(0,0,0)" stroke-width="1" opacity="0.796078431372549" d="M 189.5 107 L 188.5 109 L 189.5 107 Z " /><path fill="rgb(0,0,0)" stroke="rgb(0,0,0)" stroke-width="1" opacity="0.796078431372549" d="M 224.5 107 L 223.5 109 L 224.5 107 Z " /><path fill="rgb(0,0,0)" stroke="rgb(0,0,0)" stroke-width="1" opacity="0.796078431372549" d="M 75.5 108 L 73.5 111 L 75.5 108 Z " /><path fill="rgb(0,0,0)" stroke="rgb(0,0,0)" stroke-width="1" opacity="0.796078431372549" d="M 221.5 109 L 220.5 111 L 221.5 109 Z " /><path fill="rgb(0,0,0)" stroke="rgb(0,0,0)" stroke-width="1" opacity="0.796078431372549" d="M 290.5 109 L 292.5 112 L 290.5 109 Z " /><path fill="rgb(0,0,0)" stroke="rgb(0,0,0)" stroke-width="1" opacity="0.796078431372549" d="M 324.5 110 L 325.5 112 L 324.5 110 Z " /><path fill="rgb(0,0,0)" stroke="rgb(0,0,0)" stroke-width="1" opacity="0.796078431372549" d="M 217.5 112 L 211.5 119 L 217.5 112 Z " /><path fill="rgb(0,0,0)" stroke="rgb(0,0,0)" stroke-width="1" opacity="0.796078431372549" d="M 436.5 112 L 437.5 114 L 436.5 112 Z " /><path fill="rgb(0,0,0)" stroke="rgb(0,0,0)" stroke-width="1" opacity="0.796078431372549" d="M 71.5 113 L 70.5 115 L 71.5 113 Z " /><path fill="rgb(0,0,0)" stroke="rgb(0,0,0)" stroke-width="1" opacity="0.796078431372549" d="M 326.5 113 L 327.5 115 L 326.5 113 Z " /><path fill="rgb(0,0,0)" stroke="rgb(0,0,0)" stroke-width="1" opacity="0.796078431372549" d="M 297.5 115 L 298.5 117 L 297.5 115 Z " /><path fill="rgb(0,0,0)" stroke="rgb(0,0,0)" stroke-width="1" opacity="0.796078431372549" d="M 439.5 116 L 441.5 119 L 439.5 116 Z " /><path fill="rgb(0,0,0)" stroke="rgb(0,0,0)" stroke-width="1" opacity="0.796078431372549" d="M 68.5 117 L 67.5 119 L 68.5 117 Z " /><path fill="rgb(0,0,0)" stroke="rgb(0,0,0)" stroke-width="1" opacity="0.796078431372549" d="M 182.5 118 L 182 119.5 L 180.5 123 L 180 121.5 L 182.5 118 Z " /><path fill="rgb(0,0,0)" stroke="rgb(0,0,0)" stroke-width="1" opacity="0.796078431372549" d="M 301.5 120 L 303.5 123 L 301.5 120 Z " /><path fill="rgb(0,0,0)" stroke="rgb(0,0,0)" stroke-width="1" opacity="0.796078431372549" d="M 442.5 120 L 443.5 122 L 442.5 120 Z " /><path fill="rgb(0,0,0)" stroke="rgb(0,0,0)" stroke-width="1" opacity="0.796078431372549" d="M 65.5 121 L 64.5 123 L 65.5 121 Z " /><path fill="rgb(0,0,0)" stroke="rgb(0,0,0)" stroke-width="1" opacity="0.796078431372549" d="M 208.5 122 L 207.5 124 L 208.5 122 Z " /><path fill="rgb(0,0,0)" stroke="rgb(0,0,0)" stroke-width="1" opacity="0.796078431372549" d="M 444.5 123 L 445.5 125 L 444.5 123 Z " /><path fill="rgb(0,0,0)" stroke="rgb(0,0,0)" stroke-width="1" opacity="0.796078431372549" d="M 63.5 124 L 62.5 126 L 63.5 124 Z " /><path fill="rgb(0,0,0)" stroke="rgb(0,0,0)" stroke-width="1" opacity="0.796078431372549" d="M 206.5 125 L 205.5 127 L 206.5 125 Z " /><path fill="rgb(0,0,0)" stroke="rgb(0,0,0)" stroke-width="1" opacity="0.796078431372549" d="M 61.5 127 L 60.5 129 L 61.5 127 Z " /><path fill="rgb(0,0,0)" stroke="rgb(0,0,0)" stroke-width="1" opacity="0.796078431372549" d="M 306.5 127 L 307.5 129 L 306.5 127 Z " /><path fill="rgb(0,0,0)" stroke="rgb(0,0,0)" stroke-width="1" opacity="0.796078431372549" d="M 59.5 130 L 58.5 132 L 59.5 130 Z " /><path fill="rgb(0,0,0)" stroke="rgb(0,0,0)" stroke-width="1" opacity="0.796078431372549" d="M 450.5 132 L 451.5 134 L 450.5 132 Z " /><path fill="rgb(0,0,0)" stroke="rgb(0,0,0)" stroke-width="1" opacity="0.796078431372549" d="M 57.5 133 L 56.5 135 L 57.5 133 Z " /><path fill="rgb(0,0,0)" stroke="rgb(0,0,0)" stroke-width="1" opacity="0.796078431372549" d="M 173.5 143 L 174 145.5 L 173 145.5 L 173.5 143 Z " /><path fill="rgb(0,0,0)" stroke="rgb(0,0,0)" stroke-width="1" opacity="0.796078431372549" d="M 338.5 143 L 339 145.5 L 338 145.5 L 338.5 143 Z " /><path fill="rgb(0,0,0)" stroke="rgb(0,0,0)" stroke-width="1" opacity="0.796078431372549" d="M 314.5 147 L 315 149.5 L 314 149.5 L 314.5 147 Z " /><path fill="rgb(0,0,0)" stroke="rgb(0,0,0)" stroke-width="1" opacity="0.796078431372549" d="M 172.5 150 L 173 160.5 L 172 160.5 L 172.5 150 Z " /><path fill="rgb(0,0,0)" stroke="rgb(0,0,0)" stroke-width="1" opacity="0.796078431372549" d="M 339.5 150 L 340 166.5 L 339 166.5 L 339.5 150 Z " /><path fill="rgb(0,0,0)" stroke="rgb(0,0,0)" stroke-width="1" opacity="0.796078431372549" d="M 196.5 154 L 197 160.5 L 196 160.5 L 196.5 154 Z " /><path fill="rgb(0,0,0)" stroke="rgb(0,0,0)" stroke-width="1" opacity="0.796078431372549" d="M 315.5 155 L 316 160.5 L 315 160.5 L 315.5 155 Z " /><path fill="rgb(0,0,0)" stroke="rgb(0,0,0)" stroke-width="1" opacity="0.796078431372549" d="M 174.5 165 L 177.5 169 L 174.5 165 Z " /><path fill="rgb(0,0,0)" stroke="rgb(0,0,0)" stroke-width="1" opacity="0.796078431372549" d="M 194.5 165 L 191.5 169 L 194.5 165 Z " /><path fill="rgb(0,0,0)" stroke="rgb(0,0,0)" stroke-width="1" opacity="0.796078431372549" d="M 314.5 167 L 315 169.5 L 314 169.5 L 314.5 167 Z " /><path fill="rgb(0,0,0)" stroke="rgb(0,0,0)" stroke-width="1" opacity="0.796078431372549" d="M 182.5 170 L 187 170.5 L 182.5 171 L 182.5 170 Z " /><path fill="rgb(0,0,0)" stroke="rgb(0,0,0)" stroke-width="1" opacity="0.796078431372549" d="M 338.5 171 L 339 173.5 L 338 173.5 L 338.5 171 Z " /><path fill="rgb(0,0,0)" stroke="rgb(0,0,0)" stroke-width="1" opacity="0.796078431372549" d="M 307.5 188 L 306.5 190 L 307.5 188 Z " /><path fill="rgb(0,0,0)" stroke="rgb(0,0,0)" stroke-width="1" opacity="0.796078431372549" d="M 305.5 191 L 304.5 193 L 305.5 191 Z " /><path fill="rgb(0,0,0)" stroke="rgb(0,0,0)" stroke-width="1" opacity="0.796078431372549" d="M 303.5 194 L 301.5 197 L 303.5 194 Z " /><path fill="rgb(0,0,0)" stroke="rgb(0,0,0)" stroke-width="1" opacity="0.796078431372549" d="M 479.5 199 L 480 201.5 L 479 201.5 L 479.5 199 Z " /><path fill="rgb(0,0,0)" stroke="rgb(0,0,0)" stroke-width="1" opacity="0.796078431372549" d="M 325.5 205 L 324.5 207 L 325.5 205 Z " /><path fill="rgb(0,0,0)" stroke="rgb(0,0,0)" stroke-width="1" opacity="0.796078431372549" d="M 27.5 206 L 28 208.5 L 27 208.5 L 27.5 206 Z " /><path fill="rgb(0,0,0)" stroke="rgb(0,0,0)" stroke-width="1" opacity="0.796078431372549" d="M 290.5 207 L 289.5 209 L 290.5 207 Z " /><path fill="rgb(0,0,0)" stroke="rgb(0,0,0)" stroke-width="1" opacity="0.796078431372549" d="M 481.5 208 L 482 210.5 L 481 210.5 L 481.5 208 Z " /><path fill="rgb(0,0,0)" stroke="rgb(0,0,0)" stroke-width="1" opacity="0.796078431372549" d="M 322.5 209 L 321.5 211 L 322.5 209 Z " /><path fill="rgb(0,0,0)" stroke="rgb(0,0,0)" stroke-width="1" opacity="0.796078431372549" d="M 26.5 211 L 27 213.5 L 26 213.5 L 26.5 211 Z " /><path fill="rgb(0,0,0)" stroke="rgb(0,0,0)" stroke-width="1" opacity="0.796078431372549" d="M 318.5 214 L 300.5 233 L 318.5 214 Z " /><path fill="rgb(0,0,0)" stroke="rgb(0,0,0)" stroke-width="1" opacity="0.796078431372549" d="M 283.5 215 L 280.5 219 L 283.5 215 Z " /><path fill="rgb(0,0,0)" stroke="rgb(0,0,0)" stroke-width="1" opacity="0.796078431372549" d="M 25.5 217 L 26 219.5 L 25 219.5 L 25.5 217 Z " /><path fill="rgb(0,0,0)" stroke="rgb(0,0,0)" stroke-width="1" opacity="0.796078431372549" d="M 483.5 219 L 484 222.5 L 483 222.5 L 483.5 219 Z " /><path fill="rgb(0,0,0)" stroke="rgb(0,0,0)" stroke-width="1" opacity="0.796078431372549" d="M 278.5 221 L 276.5 224 L 278.5 221 Z " /><path fill="rgb(0,0,0)" stroke="rgb(0,0,0)" stroke-width="1" opacity="0.796078431372549" d="M 24.5 223 L 25 226.5 L 24 226.5 L 24.5 223 Z " /><path fill="rgb(0,0,0)" stroke="rgb(0,0,0)" stroke-width="1" opacity="0.796078431372549" d="M 274.5 226 L 273.5 228 L 274.5 226 Z " /><path fill="rgb(0,0,0)" stroke="rgb(0,0,0)" stroke-width="1" opacity="0.796078431372549" d="M 484.5 227 L 485 230.5 L 484 230.5 L 484.5 227 Z " /><path fill="rgb(0,0,0)" stroke="rgb(0,0,0)" stroke-width="1" opacity="0.796078431372549" d="M 272.5 229 L 271.5 231 L 272.5 229 Z " /><path fill="rgb(0,0,0)" stroke="rgb(0,0,0)" stroke-width="1" opacity="0.796078431372549" d="M 23.5 231 L 24 235.5 L 23 235.5 L 23.5 231 Z " /><path fill="rgb(0,0,0)" stroke="rgb(0,0,0)" stroke-width="1" opacity="0.796078431372549" d="M 270.5 232 L 269.5 234 L 270.5 232 Z " /><path fill="rgb(0,0,0)" stroke="rgb(0,0,0)" stroke-width="1" opacity="0.796078431372549" d="M 268.5 235 L 267.5 237 L 268.5 235 Z " /><path fill="rgb(0,0,0)" stroke="rgb(0,0,0)" stroke-width="1" opacity="0.796078431372549" d="M 297.5 236 L 296.5 238 L 297.5 236 Z " /><path fill="rgb(0,0,0)" stroke="rgb(0,0,0)" stroke-width="1" opacity="0.796078431372549" d="M 485.5 236 L 486 242.5 L 485 242.5 L 485.5 236 Z " /><path fill="rgb(0,0,0)" stroke="rgb(0,0,0)" stroke-width="1" opacity="0.796078431372549" d="M 265.5 240 L 264.5 242 L 265.5 240 Z " /><path fill="rgb(0,0,0)" stroke="rgb(0,0,0)" stroke-width="1" opacity="0.796078431372549" d="M 294.5 240 L 293.5 242 L 294.5 240 Z " /><path fill="rgb(0,0,0)" stroke="rgb(0,0,0)" stroke-width="1" opacity="0.796078431372549" d="M 22.5 243 L 23 268.5 L 22 268.5 L 22.5 243 Z " /><path fill="rgb(0,0,0)" stroke="rgb(0,0,0)" stroke-width="1" opacity="0.796078431372549" d="M 292.5 243 L 291.5 245 L 292.5 243 Z " /><path fill="rgb(0,0,0)" stroke="rgb(0,0,0)" stroke-width="1" opacity="0.796078431372549" d="M 288.5 249 L 287.5 251 L 288.5 249 Z " /><path fill="rgb(0,0,0)" stroke="rgb(0,0,0)" stroke-width="1" opacity="0.796078431372549" d="M 284.5 256 L 283.5 258 L 284.5 256 Z " /><path fill="rgb(0,0,0)" stroke="rgb(0,0,0)" stroke-width="1" opacity="0.796078431372549" d="M 485.5 268 L 486 274.5 L 485 274.5 L 485.5 268 Z " /><path fill="rgb(0,0,0)" stroke="rgb(0,0,0)" stroke-width="1" opacity="0.796078431372549" d="M 23.5 276 L 24 280.5 L 23 280.5 L 23.5 276 Z " /><path fill="rgb(0,0,0)" stroke="rgb(0,0,0)" stroke-width="1" opacity="0.796078431372549" d="M 484.5 281 L 485 284.5 L 484 284.5 L 484.5 281 Z " /><path fill="rgb(0,0,0)" stroke="rgb(0,0,0)" stroke-width="1" opacity="0.796078431372549" d="M 24.5 285 L 25 288.5 L 24 288.5 L 24.5 285 Z " /><path fill="rgb(0,0,0)" stroke="rgb(0,0,0)" stroke-width="1" opacity="0.796078431372549" d="M 247.5 285 L 248 287.5 L 247 287.5 L 247.5 285 Z " /><path fill="rgb(0,0,0)" stroke="rgb(0,0,0)" stroke-width="1" opacity="0.796078431372549" d="M 271.5 289 L 272 291.5 L 271 291.5 L 271.5 289 Z " /><path fill="rgb(0,0,0)" stroke="rgb(0,0,0)" stroke-width="1" opacity="0.796078431372549" d="M 483.5 289 L 484 291.5 L 483 291.5 L 483.5 289 Z " /><path fill="rgb(0,0,0)" stroke="rgb(0,0,0)" stroke-width="1" opacity="0.796078431372549" d="M 246.5 290 L 247 292.5 L 246 292.5 L 246.5 290 Z " /><path fill="rgb(0,0,0)" stroke="rgb(0,0,0)" stroke-width="1" opacity="0.796078431372549" d="M 25.5 292 L 26 294.5 L 25 294.5 L 25.5 292 Z " /><path fill="rgb(0,0,0)" stroke="rgb(0,0,0)" stroke-width="1" opacity="0.796078431372549" d="M 270.5 294 L 271 296.5 L 270 296.5 L 270.5 294 Z " /><path fill="rgb(0,0,0)" stroke="rgb(0,0,0)" stroke-width="1" opacity="0.796078431372549" d="M 482.5 295 L 483 297.5 L 482 297.5 L 482.5 295 Z " /><path fill="rgb(0,0,0)" stroke="rgb(0,0,0)" stroke-width="1" opacity="0.796078431372549" d="M 245.5 296 L 246 298.5 L 245 298.5 L 245.5 296 Z " /><path fill="rgb(0,0,0)" stroke="rgb(0,0,0)" stroke-width="1" opacity="0.796078431372549" d="M 26.5 298 L 27 300.5 L 26 300.5 L 26.5 298 Z " /><path fill="rgb(0,0,0)" stroke="rgb(0,0,0)" stroke-width="1" opacity="0.796078431372549" d="M 269.5 300 L 270 302.5 L 269 302.5 L 269.5 300 Z " /><path fill="rgb(0,0,0)" stroke="rgb(0,0,0)" stroke-width="1" opacity="0.796078431372549" d="M 244.5 303 L 245 308.5 L 244 308.5 L 244.5 303 Z " /><path fill="rgb(0,0,0)" stroke="rgb(0,0,0)" stroke-width="1" opacity="0.796078431372549" d="M 480.5 305 L 481 307.5 L 480 307.5 L 480.5 305 Z " /><path fill="rgb(0,0,0)" stroke="rgb(0,0,0)" stroke-width="1" opacity="0.796078431372549" d="M 268.5 308 L 269 315.5 L 268 315.5 L 268.5 308 Z " /><path fill="rgb(0,0,0)" stroke="rgb(0,0,0)" stroke-width="1" opacity="0.796078431372549" d="M 253.5 338 L 259 338.5 L 253.5 339 L 253.5 338 Z " /><path fill="rgb(0,0,0)" stroke="rgb(0,0,0)" stroke-width="1" opacity="0.796078431372549" d="M 455.5 371 L 454.5 373 L 455.5 371 Z " /><path fill="rgb(0,0,0)" stroke="rgb(0,0,0)" stroke-width="1" opacity="0.796078431372549" d="M 452.5 376 L 451.5 378 L 452.5 376 Z " /><path fill="rgb(0,0,0)" stroke="rgb(0,0,0)" stroke-width="1" opacity="0.796078431372549" d="M 58.5 380 L 59.5 382 L 58.5 380 Z " /><path fill="rgb(0,0,0)" stroke="rgb(0,0,0)" stroke-width="1" opacity="0.796078431372549" d="M 250.5 382 L 253 382.5 L 250.5 383 L 250.5 382 Z " /><path fill="rgb(0,0,0)" stroke="rgb(0,0,0)" stroke-width="1" opacity="0.796078431372549" d="M 259.5 382 L 262 382.5 L 259.5 383 L 259.5 382 Z " /><path fill="rgb(0,0,0)" stroke="rgb(0,0,0)" stroke-width="1" opacity="0.796078431372549" d="M 60.5 383 L 61.5 385 L 60.5 383 Z " /><path fill="rgb(0,0,0)" stroke="rgb(0,0,0)" stroke-width="1" opacity="0.796078431372549" d="M 267.5 385 L 268.5 387 L 267.5 385 Z " /><path fill="rgb(0,0,0)" stroke="rgb(0,0,0)" stroke-width="1" opacity="0.796078431372549" d="M 62.5 386 L 63.5 388 L 62.5 386 Z " /><path fill="rgb(0,0,0)" stroke="rgb(0,0,0)" stroke-width="1" opacity="0.796078431372549" d="M 444.5 388 L 443.5 390 L 444.5 388 Z " /><path fill="rgb(0,0,0)" stroke="rgb(0,0,0)" stroke-width="1" opacity="0.796078431372549" d="M 64.5 389 L 65.5 391 L 64.5 389 Z " /><path fill="rgb(0,0,0)" stroke="rgb(0,0,0)" stroke-width="1" opacity="0.796078431372549" d="M 271.5 389 L 272.5 391 L 271.5 389 Z " /><path fill="rgb(0,0,0)" stroke="rgb(0,0,0)" stroke-width="1" opacity="0.796078431372549" d="M 239.5 390 L 238.5 392 L 239.5 390 Z " /><path fill="rgb(0,0,0)" stroke="rgb(0,0,0)" stroke-width="1" opacity="0.796078431372549" d="M 442.5 391 L 441.5 393 L 442.5 391 Z " /><path fill="rgb(0,0,0)" stroke="rgb(0,0,0)" stroke-width="1" opacity="0.796078431372549" d="M 273.5 392 L 275 394.5 L 274 394.5 L 273.5 392 Z " /><path fill="rgb(0,0,0)" stroke="rgb(0,0,0)" stroke-width="1" opacity="0.796078431372549" d="M 67.5 393 L 68.5 395 L 67.5 393 Z " /><path fill="rgb(0,0,0)" stroke="rgb(0,0,0)" stroke-width="1" opacity="0.796078431372549" d="M 439.5 395 L 438.5 397 L 439.5 395 Z " /><path fill="rgb(0,0,0)" stroke="rgb(0,0,0)" stroke-width="1" opacity="0.796078431372549" d="M 70.5 397 L 71.5 399 L 70.5 397 Z " /><path fill="rgb(0,0,0)" stroke="rgb(0,0,0)" stroke-width="1" opacity="0.796078431372549" d="M 235.5 399 L 236 405.5 L 235 405.5 L 235.5 399 Z " /><path fill="rgb(0,0,0)" stroke="rgb(0,0,0)" stroke-width="1" opacity="0.796078431372549" d="M 436.5 399 L 434.5 402 L 436.5 399 Z " /><path fill="rgb(0,0,0)" stroke="rgb(0,0,0)" stroke-width="1" opacity="0.796078431372549" d="M 73.5 401 L 76.5 405 L 73.5 401 Z " /><path fill="rgb(0,0,0)" stroke="rgb(0,0,0)" stroke-width="1" opacity="0.796078431372549" d="M 252.5 401 L 253 403.5 L 252 403.5 L 252.5 401 Z " /><path fill="rgb(0,0,0)" stroke="rgb(0,0,0)" stroke-width="1" opacity="0.796078431372549" d="M 259.5 401 L 260 403.5 L 259 403.5 L 259.5 401 Z " /><path fill="rgb(0,0,0)" stroke="rgb(0,0,0)" stroke-width="1" opacity="0.796078431372549" d="M 276.5 401 L 277 404.5 L 276 404.5 L 276.5 401 Z " /><path fill="rgb(0,0,0)" stroke="rgb(0,0,0)" stroke-width="1" opacity="0.796078431372549" d="M 432.5 404 L 428.5 409 L 432.5 404 Z " /><path fill="rgb(0,0,0)" stroke="rgb(0,0,0)" stroke-width="1" opacity="0.796078431372549" d="M 78.5 407 L 83.5 413 L 78.5 407 Z " /><path fill="rgb(0,0,0)" stroke="rgb(0,0,0)" stroke-width="1" opacity="0.796078431372549" d="M 274.5 410 L 275 411.5 L 273 412.5 L 274.5 410 Z " /><path fill="rgb(0,0,0)" stroke="rgb(0,0,0)" stroke-width="1" opacity="0.796078431372549" d="M 425.5 412 L 410.5 428 L 425.5 412 Z " /><path fill="rgb(0,0,0)" stroke="rgb(0,0,0)" stroke-width="1" opacity="0.796078431372549" d="M 238.5 413 L 240.5 416 L 238.5 413 Z " /><path fill="rgb(0,0,0)" stroke="rgb(0,0,0)" stroke-width="1" opacity="0.796078431372549" d="M 272.5 414 L 267.5 420 L 272.5 414 Z " /><path fill="rgb(0,0,0)" stroke="rgb(0,0,0)" stroke-width="1" opacity="0.796078431372549" d="M 243.5 418 L 244.5 420 L 243.5 418 Z " /><path fill="rgb(0,0,0)" stroke="rgb(0,0,0)" stroke-width="1" opacity="0.796078431372549" d="M 251.5 422 L 254 422.5 L 251.5 423 L 251.5 422 Z " /><path fill="rgb(0,0,0)" stroke="rgb(0,0,0)" stroke-width="1" opacity="0.796078431372549" d="M 258.5 422 L 261 422.5 L 258.5 423 L 258.5 422 Z " /><path fill="rgb(0,0,0)" stroke="rgb(0,0,0)" stroke-width="1" opacity="0.796078431372549" d="M 97.5 426 L 102.5 432 L 97.5 426 Z " /><path fill="rgb(0,0,0)" stroke="rgb(0,0,0)" stroke-width="1" opacity="0.796078431372549" d="M 406.5 430 L 402.5 435 L 406.5 430 Z " /><path fill="rgb(0,0,0)" stroke="rgb(0,0,0)" stroke-width="1" opacity="0.796078431372549" d="M 105.5 433 L 108.5 437 L 105.5 433 Z " /><path fill="rgb(0,0,0)" stroke="rgb(0,0,0)" stroke-width="1" opacity="0.796078431372549" d="M 399.5 436 L 397.5 439 L 399.5 436 Z " /><path fill="rgb(0,0,0)" stroke="rgb(0,0,0)" stroke-width="1" opacity="0.796078431372549" d="M 111.5 438 L 112.5 440 L 111.5 438 Z " /><path fill="rgb(0,0,0)" stroke="rgb(0,0,0)" stroke-width="1" opacity="0.796078431372549" d="M 394.5 440 L 393.5 442 L 394.5 440 Z " /><path fill="rgb(0,0,0)" stroke="rgb(0,0,0)" stroke-width="1" opacity="0.796078431372549" d="M 115.5 441 L 116.5 443 L 115.5 441 Z " /><path fill="rgb(0,0,0)" stroke="rgb(0,0,0)" stroke-width="1" opacity="0.796078431372549" d="M 391.5 442 L 389.5 445 L 391.5 442 Z " /><path fill="rgb(0,0,0)" stroke="rgb(0,0,0)" stroke-width="1" opacity="0.796078431372549" d="M 119.5 444 L 120.5 446 L 119.5 444 Z " /><path fill="rgb(0,0,0)" stroke="rgb(0,0,0)" stroke-width="1" opacity="0.796078431372549" d="M 387.5 445 L 386.5 447 L 387.5 445 Z " /><path fill="rgb(0,0,0)" stroke="rgb(0,0,0)" stroke-width="1" opacity="0.796078431372549" d="M 122.5 446 L 123.5 448 L 122.5 446 Z " /><path fill="rgb(0,0,0)" stroke="rgb(0,0,0)" stroke-width="1" opacity="0.796078431372549" d="M 384.5 447 L 383.5 449 L 384.5 447 Z " /><path fill="rgb(0,0,0)" stroke="rgb(0,0,0)" stroke-width="1" opacity="0.796078431372549" d="M 125.5 448 L 126.5 450 L 125.5 448 Z " /><path fill="rgb(0,0,0)" stroke="rgb(0,0,0)" stroke-width="1" opacity="0.796078431372549" d="M 128.5 450 L 129.5 452 L 128.5 450 Z " /><path fill="rgb(0,0,0)" stroke="rgb(0,0,0)" stroke-width="1" opacity="0.796078431372549" d="M 378.5 451 L 377.5 453 L 378.5 451 Z " /><path fill="rgb(0,0,0)" stroke="rgb(0,0,0)" stroke-width="1" opacity="0.796078431372549" d="M 131.5 452 L 132.5 454 L 131.5 452 Z " /><path fill="rgb(0,0,0)" stroke="rgb(0,0,0)" stroke-width="1" opacity="0.796078431372549" d="M 136.5 455 L 137.5 457 L 136.5 455 Z " /><path fill="rgb(0,0,0)" stroke="rgb(0,0,0)" stroke-width="1" opacity="0.796078431372549" d="M 368.5 457 L 367.5 459 L 368.5 457 Z " /><path fill="rgb(0,0,0)" stroke="rgb(0,0,0)" stroke-width="1" opacity="0.796078431372549" d="M 143.5 459 L 149 462.5 L 147.5 462 Q 143.5 461.5 143.5 459 Z " /><path fill="rgb(0,0,0)" stroke="rgb(0,0,0)" stroke-width="1" opacity="0.796078431372549" d="M 199.5 481 L 202 481.5 L 199.5 482 L 199.5 481 Z " /><path fill="rgb(0,0,0)" stroke="rgb(0,0,0)" stroke-width="1" opacity="0.796078431372549" d="M 208.5 483 L 211 483.5 L 208.5 484 L 208.5 483 Z " /><path fill="rgb(0,0,0)" stroke="rgb(0,0,0)" stroke-width="1" opacity="0.796078431372549" d="M 297.5 483 L 300 483.5 L 297.5 484 L 297.5 483 Z " /><path fill="rgb(0,0,0)" stroke="rgb(0,0,0)" stroke-width="1" opacity="0.796078431372549" d="M 214.5 484 L 217 484.5 L 214.5 485 L 214.5 484 Z " /><path fill="rgb(0,0,0)" stroke="rgb(0,0,0)" stroke-width="1" opacity="0.796078431372549" d="M 292.5 484 L 295 484.5 L 292.5 485 L 292.5 484 Z " /><path fill="rgb(0,0,0)" stroke="rgb(0,0,0)" stroke-width="1" opacity="0.796078431372549" d="M 220.5 485 L 224 485.5 L 220.5 486 L 220.5 485 Z " /><path fill="rgb(0,0,0)" stroke="rgb(0,0,0)" stroke-width="1" opacity="0.796078431372549" d="M 286.5 485 L 289 485.5 L 286.5 486 L 286.5 485 Z " /><path fill="rgb(0,0,0)" stroke="rgb(0,0,0)" stroke-width="1" opacity="0.796078431372549" d="M 227.5 486 L 232 486.5 L 227.5 487 L 227.5 486 Z " /><path fill="rgb(0,0,0)" stroke="rgb(0,0,0)" stroke-width="1" opacity="0.796078431372549" d="M 277.5 486 L 281 486.5 L 277.5 487 L 277.5 486 Z " /><path fill="rgb(0,0,0)" stroke="rgb(0,0,0)" stroke-width="1" opacity="0.796078431372549" d="M 238.5 487 L 249 487.5 L 238.5 488 L 238.5 487 Z " /><path fill="rgb(0,0,0)" stroke="rgb(0,0,0)" stroke-width="1" opacity="0.796078431372549" d="M 260.5 487 L 270 487.5 L 260.5 488 L 260.5 487 Z " /><path fill="rgb(0,0,0)" stroke="rgb(0,0,0)" stroke-width="1" opacity="1" d="M 247.5 24 L 261.5 24 L 262.5 25 L 276.5 25 L 277.5 26 L 292.5 27 L 322.5 34 L 344.5 42 Q 390.3 61.7 422 95.5 Q 454.1 128.4 472 175.5 L 479 197.5 L 483 216.5 L 484 230.5 L 485 231.5 L 485 242.5 L 486 243.5 L 486 267.5 L 485 268.5 L 484 288.5 L 480 309.5 L 475 327.5 L 467 348.5 Q 445.2 397.2 407.5 430 Q 376.5 458 333.5 474 L 318.5 479 L 291.5 485 L 277.5 486 L 276.5 487 L 249.5 488 L 248.5 487 L 232.5 487 L 231.5 486 L 224.5 486 L 223.5 485 L 206.5 483 L 180.5 476 L 153.5 465 Q 113 445 84 413.5 Q 54.2 381.8 37 337.5 L 28 307.5 L 24 284.5 L 24 276.5 L 23 275.5 L 23 236.5 L 24 235.5 L 24 227.5 L 28 204.5 L 41 164.5 Q 61.6 118.1 96.5 86 Q 125.4 58.9 164.5 42 L 183.5 35 L 206.5 29 L 223.5 26 L 246.5 25 L 247.5 24 Z M 247 74 L 233 77 L 222 81 L 203 93 Q 189 104 181 120 L 175 135 L 172 151 Q 171 160 174 166 Q 177 170 183 171 Q 189 172 192 169 Q 196 166 197 161 L 197 150 L 201 136 L 209 122 Q 222 104 247 99 L 265 99 L 270 100 Q 284 104 294 112 Q 310 125 315 151 L 315 167 L 313 176 Q 309 189 301 198 L 291 207 Q 270 227 257 256 L 249 278 L 244 304 L 244 331 L 245 333 L 254 339 Q 260 340 263 337 L 268 331 L 268 317 L 269 316 L 270 298 Q 273 279 280 265 Q 287 248 298 236 Q 314 222 326 206 L 334 191 L 340 167 L 340 151 L 337 136 Q 331 117 320 104 Q 307 87 286 79 L 265 74 L 247 74 Z M 251 382 L 245 385 Q 237 390 235 400 L 235 406 L 238 414 Q 242 421 252 423 Q 262 424 268 420 Q 275 415 277 405 Q 277 396 273 391 Q 269 385 262 382 L 251 382 Z " /><path fill="rgb(0,0,0)" stroke="rgb(0,0,0)" stroke-width="1" opacity="1" d="M 254.5 399 Q 258.3 398.3 259 400.5 Q 260.9 405.9 257.5 405 L 255.5 406 L 253 405 Q 251.8 400.4 254.5 399 Z " /></svg>