<svg width="35" height="35" viewBox="0 0 35 35" fill="none" xmlns="http://www.w3.org/2000/svg">
<g clip-path="url(#clip0_131_410)">
<path opacity="0.8" d="M16.3721 0L17.2266 0.0341797L16.3721 0.0683594V0Z" fill="black" stroke="black"/>
<path opacity="0.8" d="M17.8076 0L18.5938 0.0341797L17.8076 0.0683594V0Z" fill="black" stroke="black"/>
<path opacity="0.8" d="M15.6201 0.0683594L15.9277 0.102539L15.6201 0.136719V0.0683594Z" fill="black" stroke="black"/>
<path opacity="0.8" d="M19.1064 0.0683594L19.4141 0.102539L19.1064 0.136719V0.0683594Z" fill="black" stroke="black"/>
<path opacity="0.8" d="M15.0732 0.136719L15.3125 0.170898L15.0732 0.205078V0.136719Z" fill="black" stroke="black"/>
<path opacity="0.8" d="M19.7217 0.136719L19.9609 0.170898L19.7217 0.205078V0.136719Z" fill="black" stroke="black"/>
<path opacity="0.8" d="M14.5947 0.205078L14.7656 0.239258L14.5947 0.273438V0.205078Z" fill="black" stroke="black"/>
<path opacity="0.8" d="M20.2002 0.205078L20.3711 0.239258L20.2002 0.273438V0.205078Z" fill="black" stroke="black"/>
<path opacity="0.8" d="M14.2529 0.273438L14.4238 0.307617L14.2529 0.341797V0.273438Z" fill="black" stroke="black"/>
<path opacity="0.8" d="M20.6104 0.273438L20.7812 0.307617L20.6104 0.341797V0.273438Z" fill="black" stroke="black"/>
<path opacity="0.8" d="M13.5693 0.410156L13.7402 0.444336L13.5693 0.478516V0.410156Z" fill="black" stroke="black"/>
<path opacity="0.8" d="M21.5674 0.478516L21.7383 0.512695L21.5674 0.546875V0.478516Z" fill="black" stroke="black"/>
<path opacity="0.8" d="M9.60449 1.8457L9.53613 1.98242L9.39941 2.05078L9.46777 1.91406L9.60449 1.8457Z" fill="black" stroke="black"/>
<path opacity="0.8" d="M26.0107 2.1875L26.0791 2.32422" stroke="black"/>
<path opacity="0.8" d="M26.4893 2.46094L26.5576 2.59766" stroke="black"/>
<path opacity="0.8" d="M8.37402 2.5293L8.30566 2.66602" stroke="black"/>
<path opacity="0.8" d="M8.16895 2.66602L8.10059 2.80273" stroke="black"/>
<path opacity="0.8" d="M27.0361 2.80273L27.1045 2.93945" stroke="black"/>
<path opacity="0.8" d="M27.2412 2.93945L27.3096 3.07617" stroke="black"/>
<path opacity="0.8" d="M7.55371 3.07617L7.48535 3.21289" stroke="black"/>
<path opacity="0.8" d="M27.5146 3.14453L27.583 3.28125" stroke="black"/>
<path opacity="0.8" d="M7.34863 3.21289L7.28027 3.34961" stroke="black"/>
<path opacity="0.8" d="M27.7197 3.28125L27.7881 3.41797" stroke="black"/>
<path opacity="0.8" d="M7.0752 3.41797L7.00684 3.55469" stroke="black"/>
<path opacity="0.8" d="M27.9248 3.41797L28.0615 3.62305" stroke="black"/>
<path opacity="0.8" d="M6.80176 3.62305L6.66504 3.82812" stroke="black"/>
<path opacity="0.8" d="M28.2666 3.69141L28.4033 3.89648" stroke="black"/>
<path opacity="0.8" d="M6.45996 3.89648L6.32324 4.10156" stroke="black"/>
<path opacity="0.8" d="M28.6084 3.96484L28.8135 4.23828" stroke="black"/>
<path opacity="0.8" d="M6.0498 4.23828L5.84473 4.51172" stroke="black"/>
<path opacity="0.8" d="M29.0869 4.375L29.4971 4.85352" stroke="black"/>
<path opacity="0.8" d="M5.29785 4.92188L4.8877 5.40039" stroke="black"/>
<path opacity="0.8" d="M30.1807 5.46875L30.5908 5.94727" stroke="black"/>
<path opacity="0.8" d="M4.47754 5.81055L4.27246 6.08398" stroke="black"/>
<path opacity="0.8" d="M30.7959 6.15234L31.001 6.42578" stroke="black"/>
<path opacity="0.8" d="M4.06738 6.28906L3.93066 6.49414" stroke="black"/>
<path opacity="0.8" d="M17.6025 6.49414L17.9785 6.52832L17.6025 6.5625V6.49414Z" fill="black" stroke="black"/>
<path opacity="0.8" d="M31.1377 6.5625L31.2744 6.76758" stroke="black"/>
<path opacity="0.8" d="M3.79395 6.63086L3.65723 6.83594" stroke="black"/>
<path opacity="0.8" d="M17.3291 6.63086L17.124 6.9043" stroke="black"/>
<path opacity="0.8" d="M18.2178 6.63086L18.2861 6.76758" stroke="black"/>
<path opacity="0.8" d="M31.4111 6.9043L31.4795 7.04102" stroke="black"/>
<path opacity="0.8" d="M3.52051 6.97266L3.45215 7.10938" stroke="black"/>
<path opacity="0.8" d="M18.4912 7.10938L18.5254 7.69043H18.457L18.4912 7.10938Z" fill="black" stroke="black"/>
<path opacity="0.8" d="M31.6162 7.17773L31.6846 7.31445" stroke="black"/>
<path opacity="0.8" d="M3.31543 7.24609L3.24707 7.38281" stroke="black"/>
<path opacity="0.8" d="M16.8506 7.38281L16.7822 7.51953" stroke="black"/>
<path opacity="0.8" d="M31.7529 7.38281L31.8213 7.51953" stroke="black"/>
<path opacity="0.8" d="M3.17871 7.45117L3.11035 7.58789" stroke="black"/>
<path opacity="0.8" d="M31.958 7.65625L32.0264 7.79297" stroke="black"/>
<path opacity="0.8" d="M32.0947 7.86133L32.1631 7.99805" stroke="black"/>
<path opacity="0.8" d="M16.5088 7.99805L16.4404 8.13477" stroke="black"/>
<path opacity="0.8" d="M2.76855 8.06641L2.7002 8.20312" stroke="black"/>
<path opacity="0.8" d="M2.63184 8.27148L2.56348 8.4082" stroke="black"/>
<path opacity="0.8" d="M32.4365 8.4082L32.5049 8.54492" stroke="black"/>
<path opacity="0.8" d="M18.4229 8.47656L18.457 9.19434H18.3887L18.4229 8.47656Z" fill="black" stroke="black"/>
<path opacity="0.8" d="M16.0986 8.75L16.0303 8.88672" stroke="black"/>
<path opacity="0.8" d="M32.71 8.88672L32.7783 9.02344" stroke="black"/>
<path opacity="0.8" d="M2.08496 9.22852L2.05078 9.33105L1.94824 9.50195L1.98242 9.39941L2.08496 9.22852Z" fill="black" stroke="black"/>
<path opacity="0.8" d="M15.6885 9.50195L15.6201 9.63867" stroke="black"/>
<path opacity="0.8" d="M18.3545 9.98047L18.3887 10.6982H18.3203L18.3545 9.98047Z" fill="black" stroke="black"/>
<path opacity="0.8" d="M15.3467 10.1172L15.2783 10.2539" stroke="black"/>
<path opacity="0.8" d="M14.9365 10.8691L14.8682 11.0059" stroke="black"/>
<path opacity="0.8" d="M18.2861 11.4844L18.3203 12.2021H18.252L18.2861 11.4844Z" fill="black" stroke="black"/>
<path opacity="0.8" d="M14.5264 11.6211L14.458 11.7578" stroke="black"/>
<path opacity="0.8" d="M14.1846 12.2363L14.1162 12.373" stroke="black"/>
<path opacity="0.8" d="M13.7744 12.9883L13.7061 13.125" stroke="black"/>
<path opacity="0.8" d="M18.2178 12.9883L18.252 13.7061H18.1836L18.2178 12.9883Z" fill="black" stroke="black"/>
<path opacity="0.8" d="M34.4873 13.2617L34.5215 13.4326H34.4531L34.4873 13.2617Z" fill="black" stroke="black"/>
<path opacity="0.8" d="M0.444336 13.5352L0.478516 13.7061H0.410156L0.444336 13.5352Z" fill="black" stroke="black"/>
<path opacity="0.8" d="M13.4326 13.6035L13.3643 13.7402" stroke="black"/>
<path opacity="0.8" d="M0.307617 14.2188L0.341797 14.3896H0.273438L0.307617 14.2188Z" fill="black" stroke="black"/>
<path opacity="0.8" d="M34.6924 14.2188L34.7266 14.3896H34.6582L34.6924 14.2188Z" fill="black" stroke="black"/>
<path opacity="0.8" d="M13.0225 14.3555L12.9541 14.4922" stroke="black"/>
<path opacity="0.8" d="M0.239258 14.5605L0.273438 14.7314H0.205078L0.239258 14.5605Z" fill="black" stroke="black"/>
<path opacity="0.8" d="M24.4385 14.6973L24.6436 14.9707" stroke="black"/>
<path opacity="0.8" d="M0.170898 15.0391L0.205078 15.2783H0.136719L0.170898 15.0391Z" fill="black" stroke="black"/>
<path opacity="0.8" d="M34.8291 15.0391L34.8633 15.2783H34.7949L34.8291 15.0391Z" fill="black" stroke="black"/>
<path opacity="0.8" d="M12.6123 15.1074L12.5439 15.2441" stroke="black"/>
<path opacity="0.8" d="M24.7803 15.1758L24.8145 15.5518H24.7461L24.7803 15.1758Z" fill="black" stroke="black"/>
<path opacity="0.8" d="M0.102539 15.5859L0.136719 15.8936H0.0683594L0.102539 15.5859Z" fill="black" stroke="black"/>
<path opacity="0.8" d="M34.8975 15.5859L34.9316 15.8936H34.8633L34.8975 15.5859Z" fill="black" stroke="black"/>
<path opacity="0.8" d="M12.2705 15.7227L12.2021 15.8594" stroke="black"/>
<path opacity="0.8" d="M24.5752 15.9277L24.5068 16.0645" stroke="black"/>
<path opacity="0.8" d="M0.0341797 16.3379L0.0683594 17.1924H0L0.0341797 16.3379Z" fill="black" stroke="black"/>
<path opacity="0.8" d="M34.9658 16.4062L35 17.1924H34.9316L34.9658 16.4062Z" fill="black" stroke="black"/>
<path opacity="0.8" d="M11.8604 16.4746L11.792 16.6113" stroke="black"/>
<path opacity="0.8" d="M24.165 16.6797L24.0967 16.8164" stroke="black"/>
<path opacity="0.8" d="M11.4502 17.2266L11.3818 17.3633" stroke="black"/>
<path opacity="0.8" d="M23.8232 17.2949L23.7549 17.4316" stroke="black"/>
<path opacity="0.8" d="M0.0341797 17.7734L0.0683594 18.6279H0L0.0341797 17.7734Z" fill="black" stroke="black"/>
<path opacity="0.8" d="M34.9658 17.7734L35 18.6279H34.9316L34.9658 17.7734Z" fill="black" stroke="black"/>
<path opacity="0.8" d="M11.1084 17.8418L11.04 17.9785" stroke="black"/>
<path opacity="0.8" d="M23.4814 17.9102L23.4131 18.0469" stroke="black"/>
<path opacity="0.8" d="M23.1396 18.5254L23.0713 18.6621" stroke="black"/>
<path opacity="0.8" d="M10.6982 18.5938L10.6299 18.7305" stroke="black"/>
<path opacity="0.8" d="M0.102539 19.0723L0.136719 19.3799H0.0683594L0.102539 19.0723Z" fill="black" stroke="black"/>
<path opacity="0.8" d="M34.8975 19.0723L34.9316 19.3799H34.8633L34.8975 19.0723Z" fill="black" stroke="black"/>
<path opacity="0.8" d="M22.7295 19.2773L22.6611 19.4141" stroke="black"/>
<path opacity="0.8" d="M10.2197 19.4824L10.2539 19.8584H10.1855L10.2197 19.4824Z" fill="black" stroke="black"/>
<path opacity="0.8" d="M0.170898 19.6875L0.205078 19.9268H0.136719L0.170898 19.6875Z" fill="black" stroke="black"/>
<path opacity="0.8" d="M34.8291 19.6875L34.8633 19.9268H34.7949L34.8291 19.6875Z" fill="black" stroke="black"/>
<path opacity="0.8" d="M22.3877 19.8926L22.3193 20.0293" stroke="black"/>
<path opacity="0.8" d="M10.3564 20.0977L10.4248 20.2344" stroke="black"/>
<path opacity="0.8" d="M0.239258 20.2344L0.273438 20.4053H0.205078L0.239258 20.2344Z" fill="black" stroke="black"/>
<path opacity="0.8" d="M34.7607 20.2344L34.7949 20.4053H34.7266L34.7607 20.2344Z" fill="black" stroke="black"/>
<path opacity="0.8" d="M10.9033 20.3711L16.8164 20.4053L10.9033 20.4395V20.3711Z" fill="black" stroke="black"/>
<path opacity="0.8" d="M22.0459 20.5078L21.9775 20.6445" stroke="black"/>
<path opacity="0.8" d="M0.307617 20.5762L0.341797 20.7471H0.273438L0.307617 20.5762Z" fill="black" stroke="black"/>
<path opacity="0.8" d="M34.6924 20.5762L34.7266 20.7471H34.6582L34.6924 20.5762Z" fill="black" stroke="black"/>
<path opacity="0.8" d="M16.7822 20.918L16.8164 21.6357H16.748L16.7822 20.918Z" fill="black" stroke="black"/>
<path opacity="0.8" d="M21.7041 21.123L21.6357 21.2598" stroke="black"/>
<path opacity="0.8" d="M0.444336 21.2598L0.478516 21.4307H0.410156L0.444336 21.2598Z" fill="black" stroke="black"/>
<path opacity="0.8" d="M34.5557 21.2598L34.5898 21.4307H34.5215L34.5557 21.2598Z" fill="black" stroke="black"/>
<path opacity="0.8" d="M16.7139 22.3535L16.748 23.0713H16.6797L16.7139 22.3535Z" fill="black" stroke="black"/>
<path opacity="0.8" d="M20.9521 22.4902L20.8838 22.627" stroke="black"/>
<path opacity="0.8" d="M20.6104 23.1055L20.542 23.2422" stroke="black"/>
<path opacity="0.8" d="M20.2686 23.7207L20.2002 23.8574" stroke="black"/>
<path opacity="0.8" d="M16.6455 23.7891L16.6797 24.5068H16.6113L16.6455 23.7891Z" fill="black" stroke="black"/>
<path opacity="0.8" d="M19.9268 24.3359L19.8584 24.4727" stroke="black"/>
<path opacity="0.8" d="M19.5166 25.0879L19.4482 25.2246" stroke="black"/>
<path opacity="0.8" d="M16.5771 25.293L16.6113 25.9424H16.543L16.5771 25.293Z" fill="black" stroke="black"/>
<path opacity="0.8" d="M1.87988 25.3613L2.05078 25.6006L1.91406 25.5322L1.87988 25.3613Z" fill="black" stroke="black"/>
<path opacity="0.8" d="M33.1201 25.3613L33.0859 25.4639L32.9834 25.6348L33.0176 25.5322L33.1201 25.3613Z" fill="black" stroke="black"/>
<path opacity="0.8" d="M19.1748 25.7031L19.1064 25.8398" stroke="black"/>
<path opacity="0.8" d="M18.833 26.3184L18.7646 26.4551" stroke="black"/>
<path opacity="0.8" d="M2.56348 26.5918L2.63184 26.7285" stroke="black"/>
<path opacity="0.8" d="M32.4365 26.5918L32.3682 26.7285" stroke="black"/>
<path opacity="0.8" d="M16.5088 26.7285L16.543 27.3779H16.4746L16.5088 26.7285Z" fill="black" stroke="black"/>
<path opacity="0.8" d="M2.7002 26.7969L2.76855 26.9336" stroke="black"/>
<path opacity="0.8" d="M32.2998 26.7969L32.2314 26.9336" stroke="black"/>
<path opacity="0.8" d="M18.4912 26.9336L18.4229 27.0703" stroke="black"/>
<path opacity="0.8" d="M32.1631 27.002L32.0947 27.1387" stroke="black"/>
<path opacity="0.8" d="M3.11035 27.4121L3.17871 27.5488" stroke="black"/>
<path opacity="0.8" d="M31.8896 27.4121L31.8213 27.5488" stroke="black"/>
<path opacity="0.8" d="M3.24707 27.6172L3.31543 27.7539" stroke="black"/>
<path opacity="0.8" d="M31.7529 27.6172L31.6846 27.7539" stroke="black"/>
<path opacity="0.8" d="M18.0811 27.6855L18.0127 27.8223" stroke="black"/>
<path opacity="0.8" d="M16.5088 27.8223L16.543 27.9932H16.4746L16.5088 27.8223Z" fill="black" stroke="black"/>
<path opacity="0.8" d="M3.45215 27.8906L3.52051 28.0273" stroke="black"/>
<path opacity="0.8" d="M31.5479 27.8906L31.4795 28.0273" stroke="black"/>
<path opacity="0.8" d="M3.65723 28.1641L3.79395 28.3691" stroke="black"/>
<path opacity="0.8" d="M31.3428 28.1641L31.2061 28.3691" stroke="black"/>
<path opacity="0.8" d="M16.9873 28.4375L17.3633 28.4717L16.9873 28.5059V28.4375Z" fill="black" stroke="black"/>
<path opacity="0.8" d="M3.93066 28.5059L4.06738 28.7109" stroke="black"/>
<path opacity="0.8" d="M31.0693 28.5059L30.9326 28.7109" stroke="black"/>
<path opacity="0.8" d="M4.27246 28.916L4.47754 29.1895" stroke="black"/>
<path opacity="0.8" d="M30.7275 28.916L30.5225 29.1895" stroke="black"/>
<path opacity="0.8" d="M4.95605 29.668L5.36621 30.1465" stroke="black"/>
<path opacity="0.8" d="M30.0439 29.668L29.7021 30.0781" stroke="black"/>
<path opacity="0.8" d="M5.84473 30.4883L6.0498 30.7617" stroke="black"/>
<path opacity="0.8" d="M29.1553 30.4883L28.9502 30.7617" stroke="black"/>
<path opacity="0.8" d="M6.32324 30.8984L6.45996 31.1035" stroke="black"/>
<path opacity="0.8" d="M28.6768 30.8984L28.54 31.1035" stroke="black"/>
<path opacity="0.8" d="M6.66504 31.1719L6.80176 31.377" stroke="black"/>
<path opacity="0.8" d="M28.335 31.1719L28.1982 31.377" stroke="black"/>
<path opacity="0.8" d="M7.00684 31.4453L7.0752 31.582" stroke="black"/>
<path opacity="0.8" d="M27.9932 31.4453L27.9248 31.582" stroke="black"/>
<path opacity="0.8" d="M7.28027 31.6504L7.34863 31.7871" stroke="black"/>
<path opacity="0.8" d="M27.7197 31.6504L27.6514 31.7871" stroke="black"/>
<path opacity="0.8" d="M7.48535 31.7871L7.55371 31.9238" stroke="black"/>
<path opacity="0.8" d="M27.5146 31.7871L27.4463 31.9238" stroke="black"/>
<path opacity="0.8" d="M27.1045 32.0605L27.0361 32.1973" stroke="black"/>
<path opacity="0.8" d="M8.10059 32.1973L8.16895 32.334" stroke="black"/>
<path opacity="0.8" d="M26.8994 32.1973L26.8311 32.334" stroke="black"/>
<path opacity="0.8" d="M8.30566 32.334L8.37402 32.4707" stroke="black"/>
<path opacity="0.8" d="M26.6943 32.334L26.626 32.4707" stroke="black"/>
<path opacity="0.8" d="M9.2627 32.8809L9.50195 33.0518L9.39941 33.0176L9.2627 32.8809Z" fill="black" stroke="black"/>
<path opacity="0.8" d="M25.6006 32.9492L25.5322 33.0859L25.3955 33.1543L25.4639 33.0176L25.6006 32.9492Z" fill="black" stroke="black"/>
<path opacity="0.8" d="M13.5693 34.5215L13.7402 34.5557L13.5693 34.5898V34.5215Z" fill="black" stroke="black"/>
<path opacity="0.8" d="M21.2939 34.5215L21.4648 34.5557L21.2939 34.5898V34.5215Z" fill="black" stroke="black"/>
<path opacity="0.8" d="M14.2529 34.6582L14.4238 34.6924L14.2529 34.7266V34.6582Z" fill="black" stroke="black"/>
<path opacity="0.8" d="M20.6104 34.6582L20.7812 34.6924L20.6104 34.7266V34.6582Z" fill="black" stroke="black"/>
<path opacity="0.8" d="M14.5947 34.7266L14.7656 34.7607L14.5947 34.7949V34.7266Z" fill="black" stroke="black"/>
<path opacity="0.8" d="M20.2686 34.7266L20.4395 34.7607L20.2686 34.7949V34.7266Z" fill="black" stroke="black"/>
<path opacity="0.8" d="M15.0732 34.7949L15.3125 34.8291L15.0732 34.8633V34.7949Z" fill="black" stroke="black"/>
<path opacity="0.8" d="M19.7217 34.7949L19.9609 34.8291L19.7217 34.8633V34.7949Z" fill="black" stroke="black"/>
<path opacity="0.8" d="M15.6201 34.8633L15.9277 34.8975L15.6201 34.9316V34.8633Z" fill="black" stroke="black"/>
<path opacity="0.8" d="M19.1064 34.8633L19.4141 34.8975L19.1064 34.9316V34.8633Z" fill="black" stroke="black"/>
<path opacity="0.8" d="M16.3721 34.9316L17.2266 34.9658L16.3721 35V34.9316Z" fill="black" stroke="black"/>
<path opacity="0.8" d="M17.8076 34.9316L18.6621 34.9658L17.8076 35V34.9316Z" fill="black" stroke="black"/>
<path d="M17.2607 0L19.0381 0.0683594L19.1064 0.136719H19.6533L19.7217 0.205078L20.9521 0.341797L22.3193 0.683594L24.0967 1.29883C26.4801 2.31055 28.4967 3.68913 30.1465 5.43457C31.7096 7.03874 32.9401 8.97559 33.8379 11.2451L34.4531 13.1592L34.7949 14.7998L34.8633 15.8936L34.9316 15.9619L35 17.7393L34.9316 17.8076V19.0381L34.8633 19.1064V19.6533L34.7949 19.7217L34.6582 20.9521L34.248 22.5928L33.6328 24.3018C32.5618 26.7627 31.0921 28.8249 29.2236 30.4883C27.6058 31.9694 25.6689 33.1315 23.4131 33.9746L22.1143 34.3848L20.2002 34.7949L19.1064 34.8633L19.0381 34.9316L17.2607 35L17.1924 34.9316H15.9619L15.8936 34.8633H15.3467L15.2783 34.7949L14.0479 34.6582L12.4072 34.248L10.6982 33.6328C8.2373 32.5618 6.17513 31.0921 4.51172 29.2236C3.0306 27.6058 1.86849 25.6689 1.02539 23.4131L0.615234 22.1143L0.205078 20.2002L0.136719 19.1064L0.0683594 19.0381L0 17.2607L0.0683594 17.1924V15.9619L0.136719 15.8936V15.3467L0.205078 15.2783L0.341797 14.0479L0.751953 12.4072L1.36719 10.6982C2.43815 8.2373 3.90788 6.17513 5.77637 4.51172C7.18457 3.23112 8.8252 2.18294 10.6982 1.36719L12.4072 0.751953L14.0479 0.341797L15.2783 0.205078L15.3467 0.136719H15.8936L15.9619 0.0683594H17.1924L17.2607 0ZM17.6367 6.49414L17.3633 6.63086L17.0898 6.9043L16.4062 8.13477L10.1855 19.5508C10.14 19.8242 10.1855 20.0293 10.3223 20.166L10.6641 20.3711L10.9375 20.4395H16.8164V20.918L16.748 20.9863V22.3535L16.6797 22.4219V23.7891L16.6113 23.8574L16.543 26.7285L16.4746 26.7969V28.0273L16.543 28.1641L17.0215 28.5059H17.3633L17.7734 28.3008L24.8145 15.5859C24.86 15.2669 24.8145 15.0618 24.6777 14.9707L24.3359 14.6289H18.1836V13.8086L18.252 13.7402V12.3047L18.3203 12.2363V10.8008L18.3887 10.7324V9.29688L18.457 9.22852V7.79297L18.5254 7.72461C18.571 7.26888 18.5026 6.94987 18.3203 6.76758C18.1836 6.53971 17.9557 6.44857 17.6367 6.49414Z" fill="black" stroke="black"/>
</g>
<defs>
<clipPath id="clip0_131_410">
<rect width="35" height="35" fill="white"/>
</clipPath>
</defs>
</svg>
