<svg width="28" height="28" viewBox="0 0 28 28" fill="none" xmlns="http://www.w3.org/2000/svg">
<g clip-path="url(#clip0_151_2476)">
<path opacity="0.815686" d="M4.78516 0.984375L4.73047 1.09375" stroke="black"/>
<path opacity="0.815686" d="M23.2148 0.984375L23.4883 1.3125" stroke="black"/>
<path opacity="0.815686" d="M4.56641 1.20312L4.51172 1.3125" stroke="black"/>
<path opacity="0.815686" d="M13.8086 18.375L13.9453 18.4023L13.8086 18.4297V18.375Z" fill="black" stroke="black"/>
<path opacity="0.815686" d="M14.082 18.375L14.2188 18.4023L14.082 18.4297V18.375Z" fill="black" stroke="black"/>
<path opacity="0.815686" d="M14.4648 18.4844L14.5195 18.5938" stroke="black"/>
<path opacity="0.815686" d="M13.4805 18.5391L13.4258 18.6484" stroke="black"/>
<path opacity="0.815686" d="M14.6836 18.6484L14.793 18.8125" stroke="black"/>
<path opacity="0.815686" d="M13.2617 18.7031L13.1523 18.8672" stroke="black"/>
<path opacity="0.815686" d="M14.957 18.8672L15.0664 19.0312" stroke="black"/>
<path opacity="0.815686" d="M12.9883 18.9219L12.8789 19.0859" stroke="black"/>
<path opacity="0.815686" d="M15.2305 19.0859L15.3398 19.25" stroke="black"/>
<path opacity="0.815686" d="M12.7148 19.1406L12.6055 19.3047" stroke="black"/>
<path opacity="0.815686" d="M15.5039 19.3047L15.6133 19.4688" stroke="black"/>
<path opacity="0.815686" d="M12.4414 19.3594L12.332 19.5234" stroke="black"/>
<path opacity="0.815686" d="M15.7773 19.5234L15.8867 19.6875" stroke="black"/>
<path opacity="0.815686" d="M12.168 19.5781L12.1133 19.6875" stroke="black"/>
<path opacity="0.815686" d="M16.0508 19.7422L16.1602 19.9062" stroke="black"/>
<path opacity="0.815686" d="M11.8945 19.7969L11.8398 19.9062" stroke="black"/>
<path opacity="0.815686" d="M16.3242 19.9609L16.4336 20.125" stroke="black"/>
<path opacity="0.815686" d="M11.6211 20.0156L11.5664 20.125" stroke="black"/>
<path opacity="0.815686" d="M16.5977 20.1797L16.707 20.3438" stroke="black"/>
<path opacity="0.815686" d="M11.3477 20.2344L11.293 20.3438" stroke="black"/>
<path opacity="0.815686" d="M13.9727 20.3438L14.1641 20.4805L14.0273 20.3984L13.8633 20.5078L13.9727 20.3438Z" fill="black" stroke="black"/>
<path opacity="0.815686" d="M16.8711 20.3984L16.9805 20.5625" stroke="black"/>
<path opacity="0.815686" d="M11.0742 20.4531L11.0195 20.5625" stroke="black"/>
<path opacity="0.815686" d="M13.6992 20.5625L13.5898 20.7266" stroke="black"/>
<path opacity="0.815686" d="M14.3008 20.5625L14.4102 20.7266" stroke="black"/>
<path opacity="0.815686" d="M17.1445 20.6172L17.2539 20.7812" stroke="black"/>
<path opacity="0.815686" d="M10.8008 20.6719L10.7461 20.7812" stroke="black"/>
<path opacity="0.815686" d="M13.4258 20.7812L13.3164 20.9453" stroke="black"/>
<path opacity="0.815686" d="M14.5742 20.7812L14.6836 20.9453" stroke="black"/>
<path opacity="0.815686" d="M17.418 20.8359L17.5273 21" stroke="black"/>
<path opacity="0.815686" d="M10.5273 20.8906L10.4727 21" stroke="black"/>
<path opacity="0.815686" d="M13.1523 21L13.043 21.1641" stroke="black"/>
<path opacity="0.815686" d="M14.8477 21L14.957 21.1641" stroke="black"/>
<path opacity="0.815686" d="M17.6914 21.0547L17.8008 21.2188" stroke="black"/>
<path opacity="0.815686" d="M10.2539 21.1094L10.1992 21.2188" stroke="black"/>
<path opacity="0.815686" d="M12.8789 21.2188L12.7695 21.3828" stroke="black"/>
<path opacity="0.815686" d="M15.1211 21.2188L15.2305 21.3828" stroke="black"/>
<path opacity="0.815686" d="M17.9648 21.2734L18.0742 21.4375" stroke="black"/>
<path opacity="0.815686" d="M9.98047 21.3281L9.92578 21.4375" stroke="black"/>
<path opacity="0.815686" d="M12.6055 21.4375L12.4961 21.6016" stroke="black"/>
<path opacity="0.815686" d="M15.3945 21.4375L15.5039 21.6016" stroke="black"/>
<path opacity="0.815686" d="M18.2383 21.4922L18.3477 21.6562" stroke="black"/>
<path opacity="0.815686" d="M9.70703 21.5469L9.65234 21.6562" stroke="black"/>
<path opacity="0.815686" d="M12.332 21.6562L12.2227 21.8203" stroke="black"/>
<path opacity="0.815686" d="M15.668 21.6562L15.7227 21.7656" stroke="black"/>
<path opacity="0.815686" d="M18.5117 21.7109L18.6211 21.875" stroke="black"/>
<path opacity="0.815686" d="M9.43359 21.7656L9.37891 21.875" stroke="black"/>
<path opacity="0.815686" d="M12.0586 21.875L11.9492 22.0391" stroke="black"/>
<path opacity="0.815686" d="M15.9414 21.875L15.9961 21.9844" stroke="black"/>
<path opacity="0.815686" d="M18.7852 21.9297L18.8945 22.0938" stroke="black"/>
<path opacity="0.815686" d="M9.16016 21.9844L9.10547 22.0938" stroke="black"/>
<path opacity="0.815686" d="M11.7852 22.0938L11.6758 22.2578" stroke="black"/>
<path opacity="0.815686" d="M16.2148 22.0938L16.2695 22.2031" stroke="black"/>
<path opacity="0.815686" d="M19.0586 22.1484L19.168 22.3125" stroke="black"/>
<path opacity="0.815686" d="M8.88672 22.2031L8.83203 22.3125" stroke="black"/>
<path opacity="0.815686" d="M11.5117 22.3125L11.4023 22.4766" stroke="black"/>
<path opacity="0.815686" d="M16.4883 22.3125L16.543 22.4219" stroke="black"/>
<path opacity="0.815686" d="M19.332 22.3672L19.4414 22.5312" stroke="black"/>
<path opacity="0.815686" d="M8.61328 22.4219L8.55859 22.5312" stroke="black"/>
<path opacity="0.815686" d="M11.2383 22.5312L11.1289 22.6953" stroke="black"/>
<path opacity="0.815686" d="M16.7617 22.5312L16.8164 22.6406" stroke="black"/>
<path opacity="0.815686" d="M19.6055 22.5859L19.7148 22.75" stroke="black"/>
<path opacity="0.815686" d="M8.33984 22.6406L8.28516 22.75" stroke="black"/>
<path opacity="0.815686" d="M10.9648 22.75L10.8555 22.9141" stroke="black"/>
<path opacity="0.815686" d="M17.0352 22.75L17.0898 22.8594" stroke="black"/>
<path opacity="0.815686" d="M19.8789 22.8047L19.9883 22.9688" stroke="black"/>
<path opacity="0.815686" d="M8.06641 22.8594L8.01172 22.9688" stroke="black"/>
<path opacity="0.815686" d="M10.6914 22.9688L10.582 23.1328" stroke="black"/>
<path opacity="0.815686" d="M17.3086 22.9688L17.3633 23.0781" stroke="black"/>
<path opacity="0.815686" d="M7.84766 23.0234L7.73828 23.1875" stroke="black"/>
<path opacity="0.815686" d="M20.1523 23.0234L20.2617 23.1875" stroke="black"/>
<path opacity="0.815686" d="M10.418 23.1875L10.3086 23.3516" stroke="black"/>
<path opacity="0.815686" d="M17.582 23.1875L17.6367 23.2969" stroke="black"/>
<path opacity="0.815686" d="M7.57422 23.2422L7.46484 23.4062" stroke="black"/>
<path opacity="0.815686" d="M20.4258 23.2422L20.5352 23.4062" stroke="black"/>
<path opacity="0.815686" d="M10.1445 23.4062L10.0352 23.5703" stroke="black"/>
<path opacity="0.815686" d="M17.8555 23.4062L17.9102 23.5156" stroke="black"/>
<path opacity="0.815686" d="M7.30078 23.4609L7.19141 23.625" stroke="black"/>
<path opacity="0.815686" d="M20.6992 23.4609L20.8086 23.625" stroke="black"/>
<path opacity="0.815686" d="M9.87109 23.625L9.76172 23.7891" stroke="black"/>
<path opacity="0.815686" d="M18.1289 23.625L18.1836 23.7344" stroke="black"/>
<path opacity="0.815686" d="M7.02734 23.6797L6.91797 23.8438" stroke="black"/>
<path opacity="0.815686" d="M20.9727 23.6797L21.082 23.8438" stroke="black"/>
<path opacity="0.815686" d="M9.59766 23.8438L9.48828 24.0078" stroke="black"/>
<path opacity="0.815686" d="M18.4023 23.8438L18.457 23.9531" stroke="black"/>
<path opacity="0.815686" d="M6.75391 23.8984L6.64453 24.0625" stroke="black"/>
<path opacity="0.815686" d="M21.2461 23.8984L21.3555 24.0625" stroke="black"/>
<path opacity="0.815686" d="M9.32422 24.0625L9.21484 24.2266" stroke="black"/>
<path opacity="0.815686" d="M18.6758 24.0625L18.7305 24.1719" stroke="black"/>
<path opacity="0.815686" d="M6.48047 24.1172L6.37109 24.2812" stroke="black"/>
<path opacity="0.815686" d="M21.5195 24.1172L21.6289 24.2812" stroke="black"/>
<path opacity="0.815686" d="M9.05078 24.2812L8.94141 24.4453" stroke="black"/>
<path opacity="0.815686" d="M18.9492 24.2812L19.0586 24.4453" stroke="black"/>
<path opacity="0.815686" d="M6.20703 24.3359L6.15234 24.4453" stroke="black"/>
<path opacity="0.815686" d="M21.793 24.3359L21.8477 24.4453" stroke="black"/>
<path opacity="0.815686" d="M8.77734 24.5L8.66797 24.6641" stroke="black"/>
<path opacity="0.815686" d="M19.2227 24.5L19.2773 24.6094" stroke="black"/>
<path opacity="0.815686" d="M8.50391 24.7188L8.39453 24.8828" stroke="black"/>
<path opacity="0.815686" d="M19.4961 24.7188L19.5508 24.8281" stroke="black"/>
<path opacity="0.815686" d="M8.23047 24.9375L8.12109 25.1016" stroke="black"/>
<path opacity="0.815686" d="M19.7695 24.9375L19.8242 25.0469" stroke="black"/>
<path opacity="0.815686" d="M7.95703 25.1562L7.84766 25.3203" stroke="black"/>
<path opacity="0.815686" d="M20.043 25.1562L20.0977 25.2656" stroke="black"/>
<path opacity="0.815686" d="M20.2617 25.3203L20.3711 25.4844" stroke="black"/>
<path opacity="0.815686" d="M7.68359 25.375L7.57422 25.5391" stroke="black"/>
<path opacity="0.815686" d="M20.5352 25.5391L20.6445 25.7031" stroke="black"/>
<path opacity="0.815686" d="M7.41016 25.5938L7.30078 25.7578" stroke="black"/>
<path opacity="0.815686" d="M20.8086 25.7578L20.918 25.9219" stroke="black"/>
<path opacity="0.815686" d="M7.13672 25.8125L7.02734 25.9766" stroke="black"/>
<path opacity="0.815686" d="M21.082 25.9766L21.1914 26.1406" stroke="black"/>
<path opacity="0.815686" d="M6.86328 26.0312L6.75391 26.1953" stroke="black"/>
<path opacity="0.815686" d="M21.3555 26.1953L21.5195 26.4141" stroke="black"/>
<path opacity="0.815686" d="M6.58984 26.25L6.48047 26.4141" stroke="black"/>
<path opacity="0.815686" d="M4.40234 26.3047L4.42969 26.4414H4.375L4.40234 26.3047Z" fill="black" stroke="black"/>
<path opacity="0.815686" d="M23.5977 26.3047L23.625 26.4414H23.5703L23.5977 26.3047Z" fill="black" stroke="black"/>
<path opacity="0.815686" d="M21.6289 26.4141L21.793 26.6328" stroke="black"/>
<path opacity="0.815686" d="M6.31641 26.4688L6.20703 26.6328" stroke="black"/>
<path opacity="0.815686" d="M21.9023 26.6328L22.0664 26.8516" stroke="black"/>
<path opacity="0.815686" d="M4.51172 26.6875L4.56641 26.7969" stroke="black"/>
<path opacity="0.815686" d="M6.04297 26.6875L5.93359 26.8516" stroke="black"/>
<path opacity="0.815686" d="M23.4883 26.6875L23.2148 27.0156" stroke="black"/>
<path opacity="0.815686" d="M4.73047 26.9062L4.78516 27.0156" stroke="black"/>
<path opacity="0.815686" d="M5.76953 26.9062L5.71484 27.0156" stroke="black"/>
<path opacity="0.815686" d="M22.2305 26.9062L22.2852 27.0156" stroke="black"/>
<path opacity="0.815686" d="M22.5586 27.0703L22.6953 27.0977L22.5586 27.125V27.0703Z" fill="black" stroke="black"/>
<path d="M5.16797 0.875H22.832C23.1565 0.933333 23.3844 1.08828 23.5156 1.33984L23.625 1.66797V26.2773L23.5156 26.6602L23.1602 27.0156L22.7227 27.125L22.4492 27.0703L22.1758 26.9062L13.9727 20.3438L5.82422 26.9062C5.67839 27.0521 5.45964 27.125 5.16797 27.125C4.9237 27.0812 4.73229 26.981 4.59375 26.8242L4.42969 26.5508L4.375 26.2773V1.66797C4.4224 1.4237 4.52266 1.23229 4.67578 1.09375L5.16797 0.875ZM6.125 2.625L6.17969 24.4453L13.3984 18.6484L13.7266 18.4297L14 18.375L14.3281 18.4297L14.6016 18.5938L21.7109 24.2812L21.875 24.4453V2.625H6.125Z" fill="black" stroke="black"/>
</g>
<defs>
<clipPath id="clip0_151_2476">
<rect width="28" height="28" fill="white"/>
</clipPath>
</defs>
</svg>
