<svg width="512" height="512" version="1.1" xmlns="http://www.w3.org/2000/svg" desc="Created with imagetracer.js version 1.2.6" ><path fill="rgb(0,0,0)" stroke="rgb(0,0,0)" stroke-width="1" opacity="0" d="M 0 0 L 512 0 L 512 512 L 0 512 L 0 0 Z M 59 27 Q 49 29 43 34 Q 31 42 27 59 L 27 75 L 67 234 L 69 235 Q 74 234 76 236 L 87 236 L 98 238 L 141 241 L 152 243 L 195 246 L 206 248 L 217 248 L 228 250 L 270 253 L 271 254 L 282 254 L 283 255 L 292 255 L 292 257 L 69 277 L 66 282 L 27 438 L 27 454 Q 29 463 34 470 Q 42 481 59 485 Q 72 487 81 483 L 470 288 Q 481 280 485 265 L 485 248 L 478 233 L 467 222 L 81 29 Q 72 25 59 27 Z " /><path fill="rgb(0,0,0)" stroke="rgb(0,0,0)" stroke-width="1" opacity="0.7686274509803922" d="M 45.5 32 L 44.5 34 L 45.5 32 Z " /><path fill="rgb(0,0,0)" stroke="rgb(0,0,0)" stroke-width="1" opacity="0.7686274509803922" d="M 42.5 34 L 40.5 37 L 42.5 34 Z " /><path fill="rgb(0,0,0)" stroke="rgb(0,0,0)" stroke-width="1" opacity="0.7686274509803922" d="M 36.5 40 L 34.5 43 L 36.5 40 Z " /><path fill="rgb(0,0,0)" stroke="rgb(0,0,0)" stroke-width="1" opacity="0.7686274509803922" d="M 33.5 44 L 32.5 46 L 33.5 44 Z " /><path fill="rgb(0,0,0)" stroke="rgb(0,0,0)" stroke-width="1" opacity="0.7686274509803922" d="M 27.5 72 L 28 74.5 L 27 74.5 L 27.5 72 Z " /><path fill="rgb(0,0,0)" stroke="rgb(0,0,0)" stroke-width="1" opacity="0.7686274509803922" d="M 466.5 222 L 467.5 224 L 466.5 222 Z " /><path fill="rgb(0,0,0)" stroke="rgb(0,0,0)" stroke-width="1" opacity="0.7686274509803922" d="M 469.5 224 L 471.5 227 L 469.5 224 Z " /><path fill="rgb(0,0,0)" stroke="rgb(0,0,0)" stroke-width="1" opacity="0.7686274509803922" d="M 475.5 230 L 477.5 233 L 475.5 230 Z " /><path fill="rgb(0,0,0)" stroke="rgb(0,0,0)" stroke-width="1" opacity="0.7686274509803922" d="M 67.5 233 L 70 234.5 L 68.5 235 L 67.5 233 Z " /><path fill="rgb(0,0,0)" stroke="rgb(0,0,0)" stroke-width="1" opacity="0.7686274509803922" d="M 478.5 234 L 479.5 236 L 478.5 234 Z " /><path fill="rgb(0,0,0)" stroke="rgb(0,0,0)" stroke-width="1" opacity="0.7686274509803922" d="M 75.5 235 L 81 235.5 L 75.5 236 L 75.5 235 Z " /><path fill="rgb(0,0,0)" stroke="rgb(0,0,0)" stroke-width="1" opacity="0.7686274509803922" d="M 87.5 236 L 92 236.5 L 87.5 237 L 87.5 236 Z " /><path fill="rgb(0,0,0)" stroke="rgb(0,0,0)" stroke-width="1" opacity="0.7686274509803922" d="M 97.5 237 L 102 237.5 L 97.5 238 L 97.5 237 Z " /><path fill="rgb(0,0,0)" stroke="rgb(0,0,0)" stroke-width="1" opacity="0.7686274509803922" d="M 108.5 238 L 114 238.5 L 108.5 239 L 108.5 238 Z " /><path fill="rgb(0,0,0)" stroke="rgb(0,0,0)" stroke-width="1" opacity="0.7686274509803922" d="M 119.5 239 L 124 239.5 L 119.5 240 L 119.5 239 Z " /><path fill="rgb(0,0,0)" stroke="rgb(0,0,0)" stroke-width="1" opacity="0.7686274509803922" d="M 130.5 240 L 135 240.5 L 130.5 241 L 130.5 240 Z " /><path fill="rgb(0,0,0)" stroke="rgb(0,0,0)" stroke-width="1" opacity="0.7686274509803922" d="M 141.5 241 L 146 241.5 L 141.5 242 L 141.5 241 Z " /><path fill="rgb(0,0,0)" stroke="rgb(0,0,0)" stroke-width="1" opacity="0.7686274509803922" d="M 151.5 242 L 157 242.5 L 151.5 243 L 151.5 242 Z " /><path fill="rgb(0,0,0)" stroke="rgb(0,0,0)" stroke-width="1" opacity="0.7686274509803922" d="M 162.5 243 L 168 243.5 L 162.5 244 L 162.5 243 Z " /><path fill="rgb(0,0,0)" stroke="rgb(0,0,0)" stroke-width="1" opacity="0.7686274509803922" d="M 173.5 244 L 179 244.5 L 173.5 245 L 173.5 244 Z " /><path fill="rgb(0,0,0)" stroke="rgb(0,0,0)" stroke-width="1" opacity="0.7686274509803922" d="M 184.5 245 L 189 245.5 L 184.5 246 L 184.5 245 Z " /><path fill="rgb(0,0,0)" stroke="rgb(0,0,0)" stroke-width="1" opacity="0.7686274509803922" d="M 195.5 246 L 200 246.5 L 195.5 247 L 195.5 246 Z " /><path fill="rgb(0,0,0)" stroke="rgb(0,0,0)" stroke-width="1" opacity="0.7686274509803922" d="M 205.5 247 L 211 247.5 L 205.5 248 L 205.5 247 Z " /><path fill="rgb(0,0,0)" stroke="rgb(0,0,0)" stroke-width="1" opacity="0.7686274509803922" d="M 484.5 247 L 485 249.5 L 484 249.5 L 484.5 247 Z " /><path fill="rgb(0,0,0)" stroke="rgb(0,0,0)" stroke-width="1" opacity="0.7686274509803922" d="M 217.5 248 L 222 248.5 L 217.5 249 L 217.5 248 Z " /><path fill="rgb(0,0,0)" stroke="rgb(0,0,0)" stroke-width="1" opacity="0.7686274509803922" d="M 227.5 249 L 233 249.5 L 227.5 250 L 227.5 249 Z " /><path fill="rgb(0,0,0)" stroke="rgb(0,0,0)" stroke-width="1" opacity="0.7686274509803922" d="M 238.5 250 L 243 250.5 L 238.5 251 L 238.5 250 Z " /><path fill="rgb(0,0,0)" stroke="rgb(0,0,0)" stroke-width="1" opacity="0.7686274509803922" d="M 249.5 251 L 254 251.5 L 249.5 252 L 249.5 251 Z " /><path fill="rgb(0,0,0)" stroke="rgb(0,0,0)" stroke-width="1" opacity="0.7686274509803922" d="M 260.5 252 L 265 252.5 L 260.5 253 L 260.5 252 Z " /><path fill="rgb(0,0,0)" stroke="rgb(0,0,0)" stroke-width="1" opacity="0.7686274509803922" d="M 270.5 253 L 276 253.5 L 270.5 254 L 270.5 253 Z " /><path fill="rgb(0,0,0)" stroke="rgb(0,0,0)" stroke-width="1" opacity="0.7686274509803922" d="M 282.5 254 L 287 254.5 L 282.5 255 L 282.5 254 Z " /><path fill="rgb(0,0,0)" stroke="rgb(0,0,0)" stroke-width="1" opacity="0.7686274509803922" d="M 292 255 L 298 255 L 298 257 L 292 257 L 292 255 Z " /><path fill="rgb(0,0,0)" stroke="rgb(0,0,0)" stroke-width="1" opacity="0.7686274509803922" d="M 282.5 257 L 287 257.5 L 282.5 258 L 282.5 257 Z " /><path fill="rgb(0,0,0)" stroke="rgb(0,0,0)" stroke-width="1" opacity="0.7686274509803922" d="M 270.5 258 L 276 258.5 L 270.5 259 L 270.5 258 Z " /><path fill="rgb(0,0,0)" stroke="rgb(0,0,0)" stroke-width="1" opacity="0.7686274509803922" d="M 260.5 259 L 265 259.5 L 260.5 260 L 260.5 259 Z " /><path fill="rgb(0,0,0)" stroke="rgb(0,0,0)" stroke-width="1" opacity="0.7686274509803922" d="M 249.5 260 L 254 260.5 L 249.5 261 L 249.5 260 Z " /><path fill="rgb(0,0,0)" stroke="rgb(0,0,0)" stroke-width="1" opacity="0.7686274509803922" d="M 238.5 261 L 243 261.5 L 238.5 262 L 238.5 261 Z " /><path fill="rgb(0,0,0)" stroke="rgb(0,0,0)" stroke-width="1" opacity="0.7686274509803922" d="M 227.5 262 L 233 262.5 L 227.5 263 L 227.5 262 Z " /><path fill="rgb(0,0,0)" stroke="rgb(0,0,0)" stroke-width="1" opacity="0.7686274509803922" d="M 484.5 262 L 485 264.5 L 484 264.5 L 484.5 262 Z " /><path fill="rgb(0,0,0)" stroke="rgb(0,0,0)" stroke-width="1" opacity="0.7686274509803922" d="M 217.5 263 L 222 263.5 L 217.5 264 L 217.5 263 Z " /><path fill="rgb(0,0,0)" stroke="rgb(0,0,0)" stroke-width="1" opacity="0.7686274509803922" d="M 205.5 264 L 211 264.5 L 205.5 265 L 205.5 264 Z " /><path fill="rgb(0,0,0)" stroke="rgb(0,0,0)" stroke-width="1" opacity="0.7686274509803922" d="M 195.5 265 L 200 265.5 L 195.5 266 L 195.5 265 Z " /><path fill="rgb(0,0,0)" stroke="rgb(0,0,0)" stroke-width="1" opacity="0.7686274509803922" d="M 184.5 266 L 189 266.5 L 184.5 267 L 184.5 266 Z " /><path fill="rgb(0,0,0)" stroke="rgb(0,0,0)" stroke-width="1" opacity="0.7686274509803922" d="M 173.5 267 L 179 267.5 L 173.5 268 L 173.5 267 Z " /><path fill="rgb(0,0,0)" stroke="rgb(0,0,0)" stroke-width="1" opacity="0.7686274509803922" d="M 162.5 268 L 168 268.5 L 162.5 269 L 162.5 268 Z " /><path fill="rgb(0,0,0)" stroke="rgb(0,0,0)" stroke-width="1" opacity="0.7686274509803922" d="M 151.5 269 L 157 269.5 L 151.5 270 L 151.5 269 Z " /><path fill="rgb(0,0,0)" stroke="rgb(0,0,0)" stroke-width="1" opacity="0.7686274509803922" d="M 141.5 270 L 146 270.5 L 141.5 271 L 141.5 270 Z " /><path fill="rgb(0,0,0)" stroke="rgb(0,0,0)" stroke-width="1" opacity="0.7686274509803922" d="M 130.5 271 L 135 271.5 L 130.5 272 L 130.5 271 Z " /><path fill="rgb(0,0,0)" stroke="rgb(0,0,0)" stroke-width="1" opacity="0.7686274509803922" d="M 119.5 272 L 124 272.5 L 119.5 273 L 119.5 272 Z " /><path fill="rgb(0,0,0)" stroke="rgb(0,0,0)" stroke-width="1" opacity="0.7686274509803922" d="M 108.5 273 L 114 273.5 L 108.5 274 L 108.5 273 Z " /><path fill="rgb(0,0,0)" stroke="rgb(0,0,0)" stroke-width="1" opacity="0.7686274509803922" d="M 97.5 274 L 102 274.5 L 97.5 275 L 97.5 274 Z " /><path fill="rgb(0,0,0)" stroke="rgb(0,0,0)" stroke-width="1" opacity="0.7686274509803922" d="M 87.5 275 L 92 275.5 L 87.5 276 L 87.5 275 Z " /><path fill="rgb(0,0,0)" stroke="rgb(0,0,0)" stroke-width="1" opacity="0.7686274509803922" d="M 75.5 276 L 81 276.5 L 75.5 277 L 75.5 276 Z " /><path fill="rgb(0,0,0)" stroke="rgb(0,0,0)" stroke-width="1" opacity="0.7686274509803922" d="M 479.5 276 L 478.5 278 L 479.5 276 Z " /><path fill="rgb(0,0,0)" stroke="rgb(0,0,0)" stroke-width="1" opacity="0.7686274509803922" d="M 68.5 277 L 70 277.5 L 67.5 279 L 68.5 277 Z " /><path fill="rgb(0,0,0)" stroke="rgb(0,0,0)" stroke-width="1" opacity="0.7686274509803922" d="M 477.5 279 L 475.5 282 L 477.5 279 Z " /><path fill="rgb(0,0,0)" stroke="rgb(0,0,0)" stroke-width="1" opacity="0.7686274509803922" d="M 471.5 285 L 469.5 288 L 471.5 285 Z " /><path fill="rgb(0,0,0)" stroke="rgb(0,0,0)" stroke-width="1" opacity="0.7686274509803922" d="M 467.5 288 L 466.5 290 L 467.5 288 Z " /><path fill="rgb(0,0,0)" stroke="rgb(0,0,0)" stroke-width="1" opacity="0.7686274509803922" d="M 27.5 437 L 28 439.5 L 27 439.5 L 27.5 437 Z " /><path fill="rgb(0,0,0)" stroke="rgb(0,0,0)" stroke-width="1" opacity="0.7686274509803922" d="M 32.5 466 L 33.5 468 L 32.5 466 Z " /><path fill="rgb(0,0,0)" stroke="rgb(0,0,0)" stroke-width="1" opacity="0.7686274509803922" d="M 34.5 469 L 36.5 472 L 34.5 469 Z " /><path fill="rgb(0,0,0)" stroke="rgb(0,0,0)" stroke-width="1" opacity="0.7686274509803922" d="M 40.5 475 L 42.5 478 L 40.5 475 Z " /><path fill="rgb(0,0,0)" stroke="rgb(0,0,0)" stroke-width="1" opacity="0.7686274509803922" d="M 44.5 478 L 45.5 480 L 44.5 478 Z " /><path fill="rgb(0,0,0)" stroke="rgb(0,0,0)" stroke-width="1" opacity="1" d="M 60.5 27 L 71.5 27 L 79.5 29 L 465.5 222 L 475 229.5 L 484 245.5 L 485 261.5 Q 482 276.5 472.5 285 L 465.5 290 L 79.5 483 L 71.5 485 L 60.5 485 Q 45.5 482 37 472.5 L 29 459.5 L 27 451.5 L 27 440.5 L 67 279.5 L 68.5 278 L 70.5 277 L 101.5 275 L 102.5 274 L 113.5 274 L 124.5 272 L 134.5 272 L 135.5 271 L 145.5 271 L 146.5 270 L 156.5 270 L 157.5 269 L 178.5 268 L 189.5 266 L 199.5 266 L 200.5 265 L 210.5 265 L 211.5 264 L 221.5 264 L 222.5 263 L 232.5 263 L 243.5 261 L 253.5 261 L 254.5 260 L 298 257 L 297.5 255 L 287.5 255 L 286.5 254 L 243.5 251 L 242.5 250 L 189.5 246 L 178.5 244 L 124.5 240 L 113.5 238 L 102.5 238 L 91.5 236 L 70.5 235 L 67 232.5 L 28 76.5 L 27 60.5 Q 30 45.5 39.5 37 L 52.5 29 L 60.5 27 Z " /></svg>