<svg width="512" height="512" version="1.1" xmlns="http://www.w3.org/2000/svg" desc="Created with imagetracer.js version 1.2.6" ><path fill="rgb(0,0,0)" stroke="rgb(0,0,0)" stroke-width="1" opacity="0.9764705882352941" d="M 193.5 89 L 190.5 93 L 193.5 89 Z " /><path fill="rgb(0,0,0)" stroke="rgb(0,0,0)" stroke-width="1" opacity="0.9764705882352941" d="M 318.5 89 L 321.5 93 L 318.5 89 Z " /><path fill="rgb(0,0,0)" stroke="rgb(0,0,0)" stroke-width="1" opacity="0.9764705882352941" d="M 215.5 111 L 213.5 114 L 215.5 111 Z " /><path fill="rgb(0,0,0)" stroke="rgb(0,0,0)" stroke-width="1" opacity="0.9764705882352941" d="M 296.5 111 L 299.5 115 L 296.5 111 Z " /><path fill="rgb(0,0,0)" stroke="rgb(0,0,0)" stroke-width="1" opacity="0.9764705882352941" d="M 86.5 140 L 85.5 142 L 86.5 140 Z " /><path fill="rgb(0,0,0)" stroke="rgb(0,0,0)" stroke-width="1" opacity="0.9764705882352941" d="M 425.5 140 L 426.5 142 L 425.5 140 Z " /><path fill="rgb(0,0,0)" stroke="rgb(0,0,0)" stroke-width="1" opacity="0.9764705882352941" d="M 320.5 178 L 321.5 180 L 320.5 178 Z " /><path fill="rgb(0,0,0)" stroke="rgb(0,0,0)" stroke-width="1" opacity="0.9764705882352941" d="M 74.5 182 L 75.5 184 L 74.5 182 Z " /><path fill="rgb(0,0,0)" stroke="rgb(0,0,0)" stroke-width="1" opacity="0.9764705882352941" d="M 436.5 183 L 433.5 187 L 436.5 183 Z " /><path fill="rgb(0,0,0)" stroke="rgb(0,0,0)" stroke-width="1" opacity="0.9764705882352941" d="M 332.5 190 L 333.5 192 L 332.5 190 Z " /><path fill="rgb(0,0,0)" stroke="rgb(0,0,0)" stroke-width="1" opacity="0.9764705882352941" d="M 96.5 198 L 98.5 201 L 96.5 198 Z " /><path fill="rgb(0,0,0)" stroke="rgb(0,0,0)" stroke-width="1" opacity="0.9764705882352941" d="M 415.5 198 L 412.5 202 L 415.5 198 Z " /><path fill="rgb(0,0,0)" stroke="rgb(0,0,0)" stroke-width="1" opacity="0.9764705882352941" d="M 213.5 200 L 212.5 202 L 213.5 200 Z " /><path fill="rgb(0,0,0)" stroke="rgb(0,0,0)" stroke-width="1" opacity="0.9764705882352941" d="M 459.5 204 L 455.5 209 L 459.5 204 Z " /><path fill="rgb(0,0,0)" stroke="rgb(0,0,0)" stroke-width="1" opacity="0.9764705882352941" d="M 53.5 205 L 56.5 209 L 53.5 205 Z " /><path fill="rgb(0,0,0)" stroke="rgb(0,0,0)" stroke-width="1" opacity="0.9764705882352941" d="M 310.5 212 L 311.5 214 L 310.5 212 Z " /><path fill="rgb(0,0,0)" stroke="rgb(0,0,0)" stroke-width="1" opacity="0.9764705882352941" d="M 437.5 220 L 435.5 223 L 437.5 220 Z " /><path fill="rgb(0,0,0)" stroke="rgb(0,0,0)" stroke-width="1" opacity="0.9764705882352941" d="M 80.5 252 L 81 255.5 L 80 255.5 L 80.5 252 Z " /><path fill="rgb(0,0,0)" stroke="rgb(0,0,0)" stroke-width="1" opacity="0.9764705882352941" d="M 431.5 252 L 432 258.5 L 431 258.5 L 431.5 252 Z " /><path fill="rgb(0,0,0)" stroke="rgb(0,0,0)" stroke-width="1" opacity="0.9764705882352941" d="M 80.5 257 L 81 259.5 L 80 259.5 L 80.5 257 Z " /><path fill="rgb(0,0,0)" stroke="rgb(0,0,0)" stroke-width="1" opacity="0.9764705882352941" d="M 76.5 289 L 74.5 292 L 76.5 289 Z " /><path fill="rgb(0,0,0)" stroke="rgb(0,0,0)" stroke-width="1" opacity="0.9764705882352941" d="M 436.5 290 L 437.5 292 L 436.5 290 Z " /><path fill="rgb(0,0,0)" stroke="rgb(0,0,0)" stroke-width="1" opacity="0.9764705882352941" d="M 200.5 298 L 201.5 300 L 200.5 298 Z " /><path fill="rgb(0,0,0)" stroke="rgb(0,0,0)" stroke-width="1" opacity="0.9764705882352941" d="M 311.5 298 L 310.5 300 L 311.5 298 Z " /><path fill="rgb(0,0,0)" stroke="rgb(0,0,0)" stroke-width="1" opacity="0.9764705882352941" d="M 56.5 303 L 52.5 308 L 56.5 303 Z " /><path fill="rgb(0,0,0)" stroke="rgb(0,0,0)" stroke-width="1" opacity="0.9764705882352941" d="M 455.5 303 L 458.5 307 L 455.5 303 Z " /><path fill="rgb(0,0,0)" stroke="rgb(0,0,0)" stroke-width="1" opacity="0.9764705882352941" d="M 99.5 310 L 96.5 314 L 99.5 310 Z " /><path fill="rgb(0,0,0)" stroke="rgb(0,0,0)" stroke-width="1" opacity="0.9764705882352941" d="M 212.5 310 L 213.5 312 L 212.5 310 Z " /><path fill="rgb(0,0,0)" stroke="rgb(0,0,0)" stroke-width="1" opacity="0.9764705882352941" d="M 412.5 310 L 415.5 314 L 412.5 310 Z " /><path fill="rgb(0,0,0)" stroke="rgb(0,0,0)" stroke-width="1" opacity="0.9764705882352941" d="M 178.5 320 L 179.5 322 L 178.5 320 Z " /><path fill="rgb(0,0,0)" stroke="rgb(0,0,0)" stroke-width="1" opacity="0.9764705882352941" d="M 333.5 320 L 332.5 322 L 333.5 320 Z " /><path fill="rgb(0,0,0)" stroke="rgb(0,0,0)" stroke-width="1" opacity="0.9764705882352941" d="M 78.5 325 L 77.5 327 L 78.5 325 Z " /><path fill="rgb(0,0,0)" stroke="rgb(0,0,0)" stroke-width="1" opacity="0.9764705882352941" d="M 433.5 325 L 436.5 329 L 433.5 325 Z " /><path fill="rgb(0,0,0)" stroke="rgb(0,0,0)" stroke-width="1" opacity="0.9764705882352941" d="M 190.5 332 L 191.5 334 L 190.5 332 Z " /><path fill="rgb(0,0,0)" stroke="rgb(0,0,0)" stroke-width="1" opacity="0.9764705882352941" d="M 321.5 332 L 320.5 334 L 321.5 332 Z " /><path fill="rgb(0,0,0)" stroke="rgb(0,0,0)" stroke-width="1" opacity="0.9764705882352941" d="M 443.5 396 L 442.5 398 L 443.5 396 Z " /><path fill="rgb(0,0,0)" stroke="rgb(0,0,0)" stroke-width="1" opacity="0.9764705882352941" d="M 213.5 398 L 214.5 400 L 213.5 398 Z " /><path fill="rgb(0,0,0)" stroke="rgb(0,0,0)" stroke-width="1" opacity="0.9764705882352941" d="M 298.5 398 L 296.5 401 L 298.5 398 Z " /><path fill="rgb(0,0,0)" stroke="rgb(0,0,0)" stroke-width="1" opacity="0.9764705882352941" d="M 190.5 419 L 193.5 423 L 190.5 419 Z " /><path fill="rgb(0,0,0)" stroke="rgb(0,0,0)" stroke-width="1" opacity="0.9764705882352941" d="M 321.5 419 L 318.5 423 L 321.5 419 Z " /><path fill="rgb(0,0,0)" stroke="rgb(0,0,0)" stroke-width="1" opacity="0.9764705882352941" d="M 303.5 465 L 302.5 467 L 303.5 465 Z " /><path fill="rgb(0,0,0)" stroke="rgb(0,0,0)" stroke-width="1" opacity="0" d="M 0 0 L 512 0 L 512 512 L 0 512 L 0 0 Z M 247 26 L 229 30 L 216 38 Q 205 46 200 60 L 197 72 L 197 82 L 193 90 L 188 94 L 176 99 L 153 114 L 146 117 L 135 116 L 121 108 L 107 104 L 93 104 L 84 106 L 69 114 Q 47 133 39 166 Q 38 189 49 202 L 61 213 L 75 221 Q 80 225 81 233 L 81 241 L 80 242 L 80 272 L 81 273 L 81 280 L 76 290 L 56 303 L 46 315 L 40 330 Q 41 334 39 336 L 39 348 L 43 362 L 59 389 Q 70 404 92 408 L 108 408 L 116 406 L 138 395 L 149 396 L 167 408 L 192 421 L 197 431 L 197 441 L 200 453 L 208 467 L 223 479 L 235 484 L 246 485 L 247 486 L 274 485 Q 288 482 297 474 Q 307 466 312 453 L 315 441 L 315 431 L 320 421 L 339 412 L 367 395 L 378 396 Q 389 405 406 408 L 425 407 Q 436 404 444 398 Q 464 378 473 347 L 473 337 L 471 327 L 463 311 L 452 299 L 438 291 Q 432 287 431 280 L 431 272 L 432 271 L 432 241 L 431 240 L 431 233 L 436 223 L 457 209 L 466 198 L 472 183 Q 471 178 473 177 L 473 166 L 469 151 L 453 124 Q 442 108 421 104 L 405 104 L 397 106 L 375 117 L 364 116 L 346 104 L 320 91 L 315 82 L 315 72 L 312 60 L 304 46 Q 296 36 284 30 L 266 26 L 247 26 Z " /><path fill="rgb(0,0,0)" stroke="rgb(0,0,0)" stroke-width="1" opacity="0" d="M 244.5 59 L 267.5 59 Q 275.2 60.9 279 66.5 L 282 72.5 L 283 87.5 L 285 94.5 Q 289.8 106.7 298.5 115 L 306.5 121 L 327.5 131 L 350.5 146 L 360.5 149 L 374.5 150 L 390.5 146 L 406.5 137 L 414.5 136 Q 424.5 138 429 145.5 L 439 163.5 L 440 175.5 L 434.5 185 Q 418.3 192.3 408 205.5 Q 401.7 214.2 399 226.5 L 399 247.5 L 400 248.5 L 400 263.5 L 399 264.5 L 399 285.5 Q 403.9 307.1 419.5 318 L 436 328.5 Q 441.5 333.5 440 345.5 L 430 364.5 L 422.5 373 Q 418.2 376.2 410.5 376 L 390.5 366 L 380.5 363 L 368.5 362 L 367.5 363 L 356.5 364 L 346.5 368 Q 327.5 383 303.5 393 L 292 404.5 L 284 420.5 L 281 442.5 L 274.5 450 L 267.5 453 L 244.5 453 Q 236.1 450.9 232 444.5 L 230 439.5 L 230 432.5 L 227 417.5 Q 221 402 208.5 393 L 184.5 381 Q 173.1 371.4 158.5 365 L 138.5 362 L 121.5 366 L 105.5 375 L 97.5 376 Q 88.3 374.3 84 367.5 L 73 348.5 Q 70.8 343.7 72 335.5 L 77.5 327 Q 93.7 319.7 104 306.5 Q 110.3 297.8 113 285.5 L 113 264.5 L 112 263.5 L 112 248.5 L 113 247.5 L 113 227.5 Q 108.3 205.2 92.5 194 L 81.5 188 L 75 182.5 Q 70.2 177.3 72 165.5 L 83 145.5 L 89.5 139 Q 93.8 135.8 101.5 136 L 121.5 146 L 131.5 149 L 143.5 150 L 144.5 149 L 155.5 148 L 165.5 144 Q 184.5 129 208.5 119 L 220 107.5 L 228 91.5 L 231 69.5 L 237.5 62 L 244.5 59 Z M 253 154 L 252 155 L 242 155 L 222 160 Q 204 167 191 178 Q 172 193 162 217 L 157 232 L 155 242 L 155 253 L 154 254 L 155 271 L 159 288 Q 166 307 178 322 Q 193 340 217 350 L 232 355 L 242 357 L 253 357 L 254 358 L 271 357 L 291 352 Q 308 345 322 334 Q 340 319 350 296 L 355 281 L 357 271 L 357 260 L 358 259 L 357 242 L 353 225 Q 346 205 334 191 Q 319 172 296 162 L 271 155 L 253 154 Z " /><path fill="rgb(0,0,0)" stroke="rgb(0,0,0)" stroke-width="1" opacity="0" d="M 247.5 187 L 264.5 187 L 280.5 191 Q 298.7 198.3 310 212.5 Q 318.6 222.9 323 237.5 L 325 247.5 L 325 263.5 Q 319.9 294.4 299.5 310 Q 289.1 318.6 274.5 323 L 264.5 325 L 247.5 325 Q 217.4 319.6 202 299.5 Q 193.4 289.1 189 274.5 L 187 264.5 L 187 247.5 Q 192.4 217.4 212.5 202 L 231.5 191 L 247.5 187 Z " /><path fill="rgb(0,0,0)" stroke="rgb(0,0,0)" stroke-width="1" opacity="0.8352941176470589" d="M 218.5 36 L 217.5 38 L 218.5 36 Z " /><path fill="rgb(0,0,0)" stroke="rgb(0,0,0)" stroke-width="1" opacity="0.8352941176470589" d="M 293.5 36 L 294.5 38 L 293.5 36 Z " /><path fill="rgb(0,0,0)" stroke="rgb(0,0,0)" stroke-width="1" opacity="0.8352941176470589" d="M 245.5 58 L 267 58.5 L 245.5 59 L 245.5 58 Z " /><path fill="rgb(0,0,0)" stroke="rgb(0,0,0)" stroke-width="1" opacity="0.8352941176470589" d="M 233.5 65 L 232.5 67 L 233.5 65 Z " /><path fill="rgb(0,0,0)" stroke="rgb(0,0,0)" stroke-width="1" opacity="0.8352941176470589" d="M 278.5 65 L 279.5 67 L 278.5 65 Z " /><path fill="rgb(0,0,0)" stroke="rgb(0,0,0)" stroke-width="1" opacity="0.8352941176470589" d="M 197.5 77 L 198 79.5 L 197 79.5 L 197.5 77 Z " /><path fill="rgb(0,0,0)" stroke="rgb(0,0,0)" stroke-width="1" opacity="0.8352941176470589" d="M 314.5 77 L 315 79.5 L 314 79.5 L 314.5 77 Z " /><path fill="rgb(0,0,0)" stroke="rgb(0,0,0)" stroke-width="1" opacity="0.8352941176470589" d="M 95.5 104 L 104 104.5 L 95.5 105 L 95.5 104 Z " /><path fill="rgb(0,0,0)" stroke="rgb(0,0,0)" stroke-width="1" opacity="0.8352941176470589" d="M 408.5 104 L 411 104.5 L 408.5 105 L 408.5 104 Z " /><path fill="rgb(0,0,0)" stroke="rgb(0,0,0)" stroke-width="1" opacity="0.8352941176470589" d="M 412.5 104 L 417 104.5 L 412.5 105 L 412.5 104 Z " /><path fill="rgb(0,0,0)" stroke="rgb(0,0,0)" stroke-width="1" opacity="0.8352941176470589" d="M 160.5 108 L 159.5 110 L 160.5 108 Z " /><path fill="rgb(0,0,0)" stroke="rgb(0,0,0)" stroke-width="1" opacity="0.8352941176470589" d="M 217.5 109 L 216.5 111 L 217.5 109 Z " /><path fill="rgb(0,0,0)" stroke="rgb(0,0,0)" stroke-width="1" opacity="0.8352941176470589" d="M 294.5 109 L 295.5 111 L 294.5 109 Z " /><path fill="rgb(0,0,0)" stroke="rgb(0,0,0)" stroke-width="1" opacity="0.8352941176470589" d="M 212.5 114 L 210.5 117 L 212.5 114 Z " /><path fill="rgb(0,0,0)" stroke="rgb(0,0,0)" stroke-width="1" opacity="0.8352941176470589" d="M 300.5 115 L 301.5 117 L 300.5 115 Z " /><path fill="rgb(0,0,0)" stroke="rgb(0,0,0)" stroke-width="1" opacity="0.8352941176470589" d="M 66.5 116 L 61.5 122 L 66.5 116 Z " /><path fill="rgb(0,0,0)" stroke="rgb(0,0,0)" stroke-width="1" opacity="0.8352941176470589" d="M 445.5 116 L 450.5 122 L 445.5 116 Z " /><path fill="rgb(0,0,0)" stroke="rgb(0,0,0)" stroke-width="1" opacity="0.8352941176470589" d="M 368.5 117 L 374 117.5 L 368.5 118 L 368.5 117 Z " /><path fill="rgb(0,0,0)" stroke="rgb(0,0,0)" stroke-width="1" opacity="0.8352941176470589" d="M 314.5 173 L 315.5 175 L 314.5 173 Z " /><path fill="rgb(0,0,0)" stroke="rgb(0,0,0)" stroke-width="1" opacity="0.8352941176470589" d="M 193.5 176 L 192.5 178 L 193.5 176 Z " /><path fill="rgb(0,0,0)" stroke="rgb(0,0,0)" stroke-width="1" opacity="0.8352941176470589" d="M 318.5 176 L 319.5 178 L 318.5 176 Z " /><path fill="rgb(0,0,0)" stroke="rgb(0,0,0)" stroke-width="1" opacity="0.8352941176470589" d="M 325.5 182 L 329.5 187 L 325.5 182 Z " /><path fill="rgb(0,0,0)" stroke="rgb(0,0,0)" stroke-width="1" opacity="0.8352941176470589" d="M 185.5 183 L 183.5 186 L 185.5 183 Z " /><path fill="rgb(0,0,0)" stroke="rgb(0,0,0)" stroke-width="1" opacity="0.8352941176470589" d="M 76.5 184 L 77.5 186 L 76.5 184 Z " /><path fill="rgb(0,0,0)" stroke="rgb(0,0,0)" stroke-width="1" opacity="0.8352941176470589" d="M 250.5 186 L 262 186.5 L 250.5 187 L 250.5 186 Z " /><path fill="rgb(0,0,0)" stroke="rgb(0,0,0)" stroke-width="1" opacity="0.8352941176470589" d="M 177.5 192 L 176.5 194 L 177.5 192 Z " /><path fill="rgb(0,0,0)" stroke="rgb(0,0,0)" stroke-width="1" opacity="0.8352941176470589" d="M 334.5 192 L 335.5 194 L 334.5 192 Z " /><path fill="rgb(0,0,0)" stroke="rgb(0,0,0)" stroke-width="1" opacity="0.8352941176470589" d="M 418.5 195 L 416.5 198 L 418.5 195 Z " /><path fill="rgb(0,0,0)" stroke="rgb(0,0,0)" stroke-width="1" opacity="0.8352941176470589" d="M 94.5 196 L 95.5 198 L 94.5 196 Z " /><path fill="rgb(0,0,0)" stroke="rgb(0,0,0)" stroke-width="1" opacity="0.8352941176470589" d="M 337.5 196 L 338.5 198 L 337.5 196 Z " /><path fill="rgb(0,0,0)" stroke="rgb(0,0,0)" stroke-width="1" opacity="0.8352941176470589" d="M 99.5 201 L 101.5 204 L 99.5 201 Z " /><path fill="rgb(0,0,0)" stroke="rgb(0,0,0)" stroke-width="1" opacity="0.8352941176470589" d="M 50.5 202 L 52.5 205 L 50.5 202 Z " /><path fill="rgb(0,0,0)" stroke="rgb(0,0,0)" stroke-width="1" opacity="0.8352941176470589" d="M 211.5 202 L 210.5 204 L 211.5 202 Z " /><path fill="rgb(0,0,0)" stroke="rgb(0,0,0)" stroke-width="1" opacity="0.8352941176470589" d="M 300.5 202 L 301.5 204 L 300.5 202 Z " /><path fill="rgb(0,0,0)" stroke="rgb(0,0,0)" stroke-width="1" opacity="0.8352941176470589" d="M 411.5 202 L 410.5 204 L 411.5 202 Z " /><path fill="rgb(0,0,0)" stroke="rgb(0,0,0)" stroke-width="1" opacity="0.8352941176470589" d="M 461.5 202 L 460.5 204 L 461.5 202 Z " /><path fill="rgb(0,0,0)" stroke="rgb(0,0,0)" stroke-width="1" opacity="0.8352941176470589" d="M 57.5 209 L 58.5 211 L 57.5 209 Z " /><path fill="rgb(0,0,0)" stroke="rgb(0,0,0)" stroke-width="1" opacity="0.8352941176470589" d="M 454.5 209 L 453.5 211 L 454.5 209 Z " /><path fill="rgb(0,0,0)" stroke="rgb(0,0,0)" stroke-width="1" opacity="0.8352941176470589" d="M 203.5 210 L 202.5 212 L 203.5 210 Z " /><path fill="rgb(0,0,0)" stroke="rgb(0,0,0)" stroke-width="1" opacity="0.8352941176470589" d="M 308.5 210 L 309.5 212 L 308.5 210 Z " /><path fill="rgb(0,0,0)" stroke="rgb(0,0,0)" stroke-width="1" opacity="0.8352941176470589" d="M 75.5 221 L 76.5 223 L 75.5 221 Z " /><path fill="rgb(0,0,0)" stroke="rgb(0,0,0)" stroke-width="1" opacity="0.8352941176470589" d="M 112.5 229 L 113 231.5 L 112 231.5 L 112.5 229 Z " /><path fill="rgb(0,0,0)" stroke="rgb(0,0,0)" stroke-width="1" opacity="0.8352941176470589" d="M 112.5 239 L 113 241.5 L 112 241.5 L 112.5 239 Z " /><path fill="rgb(0,0,0)" stroke="rgb(0,0,0)" stroke-width="1" opacity="0.8352941176470589" d="M 399.5 240 L 400 242.5 L 399 242.5 L 399.5 240 Z " /><path fill="rgb(0,0,0)" stroke="rgb(0,0,0)" stroke-width="1" opacity="0.8352941176470589" d="M 155.5 244 L 156 246.5 L 155 246.5 L 155.5 244 Z " /><path fill="rgb(0,0,0)" stroke="rgb(0,0,0)" stroke-width="1" opacity="0.8352941176470589" d="M 431.5 245 L 432 251.5 L 431 251.5 L 431.5 245 Z " /><path fill="rgb(0,0,0)" stroke="rgb(0,0,0)" stroke-width="1" opacity="0.8352941176470589" d="M 80.5 246 L 81 251.5 L 80 251.5 L 80.5 246 Z " /><path fill="rgb(0,0,0)" stroke="rgb(0,0,0)" stroke-width="1" opacity="0.8352941176470589" d="M 186.5 251 L 187 260.5 L 186 260.5 L 186.5 251 Z " /><path fill="rgb(0,0,0)" stroke="rgb(0,0,0)" stroke-width="1" opacity="0.8352941176470589" d="M 325.5 251 L 326 261.5 L 325 261.5 L 325.5 251 Z " /><path fill="rgb(0,0,0)" stroke="rgb(0,0,0)" stroke-width="1" opacity="0.8352941176470589" d="M 431.5 259 L 432 265.5 L 431 265.5 L 431.5 259 Z " /><path fill="rgb(0,0,0)" stroke="rgb(0,0,0)" stroke-width="1" opacity="0.8352941176470589" d="M 80.5 260 L 81 266.5 L 80 266.5 L 80.5 260 Z " /><path fill="rgb(0,0,0)" stroke="rgb(0,0,0)" stroke-width="1" opacity="0.8352941176470589" d="M 112.5 269 L 113 271.5 L 112 271.5 L 112.5 269 Z " /><path fill="rgb(0,0,0)" stroke="rgb(0,0,0)" stroke-width="1" opacity="0.8352941176470589" d="M 399.5 269 L 400 271.5 L 399 271.5 L 399.5 269 Z " /><path fill="rgb(0,0,0)" stroke="rgb(0,0,0)" stroke-width="1" opacity="0.8352941176470589" d="M 112.5 280 L 113 282.5 L 112 282.5 L 112.5 280 Z " /><path fill="rgb(0,0,0)" stroke="rgb(0,0,0)" stroke-width="1" opacity="0.8352941176470589" d="M 202.5 300 L 203.5 302 L 202.5 300 Z " /><path fill="rgb(0,0,0)" stroke="rgb(0,0,0)" stroke-width="1" opacity="0.8352941176470589" d="M 309.5 300 L 308.5 302 L 309.5 300 Z " /><path fill="rgb(0,0,0)" stroke="rgb(0,0,0)" stroke-width="1" opacity="0.8352941176470589" d="M 58.5 301 L 57.5 303 L 58.5 301 Z " /><path fill="rgb(0,0,0)" stroke="rgb(0,0,0)" stroke-width="1" opacity="0.8352941176470589" d="M 453.5 301 L 454.5 303 L 453.5 301 Z " /><path fill="rgb(0,0,0)" stroke="rgb(0,0,0)" stroke-width="1" opacity="0.8352941176470589" d="M 459.5 307 L 461.5 310 L 459.5 307 Z " /><path fill="rgb(0,0,0)" stroke="rgb(0,0,0)" stroke-width="1" opacity="0.8352941176470589" d="M 51.5 308 L 50.5 310 L 51.5 308 Z " /><path fill="rgb(0,0,0)" stroke="rgb(0,0,0)" stroke-width="1" opacity="0.8352941176470589" d="M 101.5 308 L 100.5 310 L 101.5 308 Z " /><path fill="rgb(0,0,0)" stroke="rgb(0,0,0)" stroke-width="1" opacity="0.8352941176470589" d="M 210.5 308 L 211.5 310 L 210.5 308 Z " /><path fill="rgb(0,0,0)" stroke="rgb(0,0,0)" stroke-width="1" opacity="0.8352941176470589" d="M 301.5 308 L 300.5 310 L 301.5 308 Z " /><path fill="rgb(0,0,0)" stroke="rgb(0,0,0)" stroke-width="1" opacity="0.8352941176470589" d="M 410.5 308 L 411.5 310 L 410.5 308 Z " /><path fill="rgb(0,0,0)" stroke="rgb(0,0,0)" stroke-width="1" opacity="0.8352941176470589" d="M 95.5 314 L 94.5 316 L 95.5 314 Z " /><path fill="rgb(0,0,0)" stroke="rgb(0,0,0)" stroke-width="1" opacity="0.8352941176470589" d="M 173.5 314 L 174.5 316 L 173.5 314 Z " /><path fill="rgb(0,0,0)" stroke="rgb(0,0,0)" stroke-width="1" opacity="0.8352941176470589" d="M 416.5 314 L 418.5 317 L 416.5 314 Z " /><path fill="rgb(0,0,0)" stroke="rgb(0,0,0)" stroke-width="1" opacity="0.8352941176470589" d="M 176.5 318 L 177.5 320 L 176.5 318 Z " /><path fill="rgb(0,0,0)" stroke="rgb(0,0,0)" stroke-width="1" opacity="0.8352941176470589" d="M 182.5 325 L 185.5 329 L 182.5 325 Z " /><path fill="rgb(0,0,0)" stroke="rgb(0,0,0)" stroke-width="1" opacity="0.8352941176470589" d="M 251.5 325 L 261 325.5 L 251.5 326 L 251.5 325 Z " /><path fill="rgb(0,0,0)" stroke="rgb(0,0,0)" stroke-width="1" opacity="0.8352941176470589" d="M 328.5 326 L 326.5 329 L 328.5 326 Z " /><path fill="rgb(0,0,0)" stroke="rgb(0,0,0)" stroke-width="1" opacity="0.8352941176470589" d="M 192.5 334 L 193.5 336 L 192.5 334 Z " /><path fill="rgb(0,0,0)" stroke="rgb(0,0,0)" stroke-width="1" opacity="0.8352941176470589" d="M 315.5 337 L 314.5 339 L 315.5 337 Z " /><path fill="rgb(0,0,0)" stroke="rgb(0,0,0)" stroke-width="1" opacity="0.8352941176470589" d="M 61.5 390 L 66.5 396 L 61.5 390 Z " /><path fill="rgb(0,0,0)" stroke="rgb(0,0,0)" stroke-width="1" opacity="0.8352941176470589" d="M 450.5 390 L 446.5 395 L 450.5 390 Z " /><path fill="rgb(0,0,0)" stroke="rgb(0,0,0)" stroke-width="1" opacity="0.8352941176470589" d="M 138.5 394 L 144 394.5 L 138.5 395 L 138.5 394 Z " /><path fill="rgb(0,0,0)" stroke="rgb(0,0,0)" stroke-width="1" opacity="0.8352941176470589" d="M 368.5 394 L 374 394.5 L 368.5 395 L 368.5 394 Z " /><path fill="rgb(0,0,0)" stroke="rgb(0,0,0)" stroke-width="1" opacity="0.8352941176470589" d="M 210.5 395 L 212.5 398 L 210.5 395 Z " /><path fill="rgb(0,0,0)" stroke="rgb(0,0,0)" stroke-width="1" opacity="0.8352941176470589" d="M 301.5 395 L 299.5 398 L 301.5 395 Z " /><path fill="rgb(0,0,0)" stroke="rgb(0,0,0)" stroke-width="1" opacity="0.8352941176470589" d="M 215.5 400 L 217.5 403 L 215.5 400 Z " /><path fill="rgb(0,0,0)" stroke="rgb(0,0,0)" stroke-width="1" opacity="0.8352941176470589" d="M 295.5 401 L 294.5 403 L 295.5 401 Z " /><path fill="rgb(0,0,0)" stroke="rgb(0,0,0)" stroke-width="1" opacity="0.8352941176470589" d="M 95.5 407 L 104 407.5 L 95.5 408 L 95.5 407 Z " /><path fill="rgb(0,0,0)" stroke="rgb(0,0,0)" stroke-width="1" opacity="0.8352941176470589" d="M 408.5 407 L 417 407.5 L 408.5 408 L 408.5 407 Z " /><path fill="rgb(0,0,0)" stroke="rgb(0,0,0)" stroke-width="1" opacity="0.8352941176470589" d="M 197.5 432 L 198 434.5 L 197 434.5 L 197.5 432 Z " /><path fill="rgb(0,0,0)" stroke="rgb(0,0,0)" stroke-width="1" opacity="0.8352941176470589" d="M 314.5 432 L 315 434.5 L 314 434.5 L 314.5 432 Z " /><path fill="rgb(0,0,0)" stroke="rgb(0,0,0)" stroke-width="1" opacity="0.8352941176470589" d="M 232.5 445 L 233.5 447 L 232.5 445 Z " /><path fill="rgb(0,0,0)" stroke="rgb(0,0,0)" stroke-width="1" opacity="0.8352941176470589" d="M 279.5 445 L 278.5 447 L 279.5 445 Z " /><path fill="rgb(0,0,0)" stroke="rgb(0,0,0)" stroke-width="1" opacity="0.8352941176470589" d="M 245.5 453 L 267 453.5 L 245.5 454 L 245.5 453 Z " /><path fill="rgb(0,0,0)" stroke="rgb(0,0,0)" stroke-width="1" opacity="0.8352941176470589" d="M 217.5 474 L 218.5 476 L 217.5 474 Z " /><path fill="rgb(0,0,0)" stroke="rgb(0,0,0)" stroke-width="1" opacity="0.8352941176470589" d="M 294.5 474 L 293.5 476 L 294.5 474 Z " /><path fill="rgb(0,0,0)" stroke="rgb(0,0,0)" stroke-width="1" opacity="1" d="M 243.5 27 L 268.5 27 L 278.5 29 Q 293.7 34.3 303 45.5 L 313 65.5 L 314 80.5 L 316 86.5 L 321.5 93 Q 344.9 102.6 363.5 117 L 374.5 118 L 399.5 106 Q 408.2 103.2 421.5 105 Q 441.4 109.6 452 123.5 L 465 144.5 L 470 155.5 L 472 163.5 L 472 178.5 Q 467.5 201 451.5 212 L 435 222.5 L 431 229.5 Q 432.3 234.3 430 235.5 L 431 236.5 L 431 273.5 L 430 277.5 L 434 288.5 L 437.5 292 Q 452.7 298.3 462 310.5 L 470 325.5 L 472 334.5 L 472 347.5 L 470 356.5 L 466 365.5 L 452 388.5 L 444.5 396 Q 436.8 402.8 425.5 406 L 420.5 407 L 403.5 407 L 393.5 404 L 377.5 395 L 367.5 394 L 361.5 396 L 340.5 410 L 324.5 417 L 318 422.5 L 314 431.5 L 314 441.5 L 311 452.5 Q 306.2 465.2 296.5 473 Q 287.7 480.7 274.5 484 Q 269.8 482.7 268.5 485 L 243.5 485 Q 220.7 481.3 209 466.5 L 199 446.5 L 198 431.5 L 196 425.5 L 190.5 419 Q 167.1 409.4 148.5 395 L 137.5 394 L 112.5 406 Q 103.8 408.8 90.5 407 Q 70.6 402.4 60 388.5 L 47 367.5 L 42 356.5 L 40 348.5 L 40 333.5 Q 44.5 311 60.5 300 L 77 289.5 L 81 282.5 Q 79.8 277.8 82 276.5 L 81 275.5 L 81 257.5 L 80 256.5 L 81 255.5 Q 79.3 242.8 82 234.5 L 78 223.5 L 74.5 220 Q 59.3 213.7 50 201.5 L 42 186.5 L 40 177.5 L 40 164.5 Q 48.4 133.9 68.5 115 L 86.5 106 Q 95.2 103.2 108.5 105 L 118.5 108 L 134.5 117 L 144.5 118 L 152.5 115 L 173.5 101 L 187.5 95 L 194 89.5 L 198 80.5 L 198 70.5 L 201 59.5 Q 205.8 46.8 215.5 39 L 230.5 30 L 243.5 27 Z M 246 58 L 238 61 L 230 70 L 227 92 L 219 108 Q 212 117 201 123 L 185 130 L 162 145 L 147 149 L 137 149 L 127 147 L 105 136 Q 92 134 87 140 Q 77 152 71 167 Q 70 177 74 183 L 79 187 L 93 195 L 105 209 L 111 223 L 112 234 L 113 235 L 112 239 L 112 273 L 113 274 Q 113 296 102 308 Q 93 319 79 325 Q 73 329 71 337 L 72 349 L 83 368 Q 87 374 95 376 L 106 376 L 124 366 L 136 363 L 147 363 L 162 367 Q 183 383 209 394 Q 218 401 224 413 L 229 430 L 229 440 L 232 446 Q 236 452 245 454 L 268 454 L 275 451 L 282 443 L 284 424 Q 287 412 293 405 L 307 392 Q 329 383 347 369 L 366 363 L 376 363 L 386 365 L 407 376 Q 417 378 423 374 L 431 365 L 441 346 Q 443 334 437 329 L 434 325 L 420 317 L 407 304 L 401 291 L 399 280 Q 398 274 400 273 L 400 240 L 399 239 L 401 222 L 409 206 Q 418 193 434 187 Q 439 183 441 176 L 440 164 L 427 142 L 418 136 L 408 136 L 389 146 L 377 149 L 365 149 L 351 145 L 326 129 L 304 118 Q 294 111 288 100 L 284 89 L 283 73 L 280 67 Q 276 60 267 58 L 246 58 Z " /><path fill="rgb(0,0,0)" stroke="rgb(0,0,0)" stroke-width="1" opacity="1" d="M 248.5 155 L 271.5 156 L 295.5 163 Q 317.4 172.7 332 189.5 Q 344.1 202.9 351 221.5 L 356 240.5 L 357 263.5 L 353 284.5 L 343 307.5 Q 334.5 321.5 322.5 332 Q 309.1 344.1 290.5 351 L 271.5 356 L 248.5 357 L 227.5 353 L 204.5 343 Q 190.5 334.5 180 322.5 Q 167.9 309.1 161 290.5 L 156 271.5 L 155 248.5 L 159 227.5 L 169 204.5 Q 177.8 189.8 190.5 179 Q 201.7 169.3 216.5 163 L 227.5 159 L 248.5 155 Z M 250 186 L 230 191 L 214 200 L 196 220 L 188 239 L 186 250 L 186 262 L 187 263 L 188 274 Q 192 288 200 299 Q 208 309 220 316 L 239 324 L 250 325 L 251 326 L 263 326 L 274 324 Q 289 320 300 311 Q 309 304 316 293 L 324 274 L 325 263 L 326 262 L 326 250 L 324 239 Q 320 224 312 214 Q 301 199 283 191 L 270 187 L 250 186 Z " /><path fill="rgb(0,0,0)" stroke="rgb(0,0,0)" stroke-width="1" opacity="0.4745098039215686" d="M 246.5 26 L 266 26.5 L 246.5 27 L 246.5 26 Z " /><path fill="rgb(0,0,0)" stroke="rgb(0,0,0)" stroke-width="1" opacity="0.4745098039215686" d="M 215.5 38 L 208.5 46 L 215.5 38 Z " /><path fill="rgb(0,0,0)" stroke="rgb(0,0,0)" stroke-width="1" opacity="0.4745098039215686" d="M 296.5 38 L 303.5 46 L 296.5 38 Z " /><path fill="rgb(0,0,0)" stroke="rgb(0,0,0)" stroke-width="1" opacity="0.4745098039215686" d="M 235.5 63 L 234.5 65 L 235.5 63 Z " /><path fill="rgb(0,0,0)" stroke="rgb(0,0,0)" stroke-width="1" opacity="0.4745098039215686" d="M 276.5 63 L 277.5 65 L 276.5 63 Z " /><path fill="rgb(0,0,0)" stroke="rgb(0,0,0)" stroke-width="1" opacity="0.4745098039215686" d="M 279.5 67 L 280.5 69 L 279.5 67 Z " /><path fill="rgb(0,0,0)" stroke="rgb(0,0,0)" stroke-width="1" opacity="0.4745098039215686" d="M 197.5 71 L 198 76.5 L 197 76.5 L 197.5 71 Z " /><path fill="rgb(0,0,0)" stroke="rgb(0,0,0)" stroke-width="1" opacity="0.4745098039215686" d="M 314.5 71 L 315 76.5 L 314 76.5 L 314.5 71 Z " /><path fill="rgb(0,0,0)" stroke="rgb(0,0,0)" stroke-width="1" opacity="0.4745098039215686" d="M 229.5 74 L 230 79.5 L 229 79.5 L 229.5 74 Z " /><path fill="rgb(0,0,0)" stroke="rgb(0,0,0)" stroke-width="1" opacity="0.4745098039215686" d="M 282.5 74 L 283 79.5 L 282 79.5 L 282.5 74 Z " /><path fill="rgb(0,0,0)" stroke="rgb(0,0,0)" stroke-width="1" opacity="0.4745098039215686" d="M 283.5 85 L 284 87.5 L 283 87.5 L 283.5 85 Z " /><path fill="rgb(0,0,0)" stroke="rgb(0,0,0)" stroke-width="1" opacity="0.4745098039215686" d="M 318.5 88 L 319.5 90 L 318.5 88 Z " /><path fill="rgb(0,0,0)" stroke="rgb(0,0,0)" stroke-width="1" opacity="0.4745098039215686" d="M 321.5 91 L 322.5 93 L 321.5 91 Z " /><path fill="rgb(0,0,0)" stroke="rgb(0,0,0)" stroke-width="1" opacity="0.4745098039215686" d="M 92.5 104 L 95 104.5 L 92.5 105 L 92.5 104 Z " /><path fill="rgb(0,0,0)" stroke="rgb(0,0,0)" stroke-width="1" opacity="0.4745098039215686" d="M 104.5 104 L 107 104.5 L 104.5 105 L 104.5 104 Z " /><path fill="rgb(0,0,0)" stroke="rgb(0,0,0)" stroke-width="1" opacity="0.4745098039215686" d="M 404.5 104 L 408 104.5 L 404.5 105 L 404.5 104 Z " /><path fill="rgb(0,0,0)" stroke="rgb(0,0,0)" stroke-width="1" opacity="0.4745098039215686" d="M 417.5 104 L 421 104.5 L 417.5 105 L 417.5 104 Z " /><path fill="rgb(0,0,0)" stroke="rgb(0,0,0)" stroke-width="1" opacity="0.4745098039215686" d="M 219.5 107 L 218.5 109 L 219.5 107 Z " /><path fill="rgb(0,0,0)" stroke="rgb(0,0,0)" stroke-width="1" opacity="0.4745098039215686" d="M 292.5 107 L 293.5 109 L 292.5 107 Z " /><path fill="rgb(0,0,0)" stroke="rgb(0,0,0)" stroke-width="1" opacity="0.4745098039215686" d="M 158.5 109 L 157.5 111 L 158.5 109 Z " /><path fill="rgb(0,0,0)" stroke="rgb(0,0,0)" stroke-width="1" opacity="0.4745098039215686" d="M 353.5 109 L 354.5 111 L 353.5 109 Z " /><path fill="rgb(0,0,0)" stroke="rgb(0,0,0)" stroke-width="1" opacity="0.4745098039215686" d="M 155.5 111 L 154.5 113 L 155.5 111 Z " /><path fill="rgb(0,0,0)" stroke="rgb(0,0,0)" stroke-width="1" opacity="0.4745098039215686" d="M 356.5 111 L 357.5 113 L 356.5 111 Z " /><path fill="rgb(0,0,0)" stroke="rgb(0,0,0)" stroke-width="1" opacity="0.4745098039215686" d="M 385.5 111 L 384.5 113 L 385.5 111 Z " /><path fill="rgb(0,0,0)" stroke="rgb(0,0,0)" stroke-width="1" opacity="0.4745098039215686" d="M 297.5 113 L 298.5 115 L 297.5 113 Z " /><path fill="rgb(0,0,0)" stroke="rgb(0,0,0)" stroke-width="1" opacity="0.4745098039215686" d="M 359.5 113 L 360.5 115 L 359.5 113 Z " /><path fill="rgb(0,0,0)" stroke="rgb(0,0,0)" stroke-width="1" opacity="0.4745098039215686" d="M 68.5 114 L 67.5 116 L 68.5 114 Z " /><path fill="rgb(0,0,0)" stroke="rgb(0,0,0)" stroke-width="1" opacity="0.4745098039215686" d="M 443.5 114 L 444.5 116 L 443.5 114 Z " /><path fill="rgb(0,0,0)" stroke="rgb(0,0,0)" stroke-width="1" opacity="0.4745098039215686" d="M 140.5 117 L 143 117.5 L 140.5 118 L 140.5 117 Z " /><path fill="rgb(0,0,0)" stroke="rgb(0,0,0)" stroke-width="1" opacity="0.4745098039215686" d="M 209.5 117 L 208.5 119 L 209.5 117 Z " /><path fill="rgb(0,0,0)" stroke="rgb(0,0,0)" stroke-width="1" opacity="0.4745098039215686" d="M 302.5 117 L 303.5 119 L 302.5 117 Z " /><path fill="rgb(0,0,0)" stroke="rgb(0,0,0)" stroke-width="1" opacity="0.4745098039215686" d="M 60.5 122 L 59.5 124 L 60.5 122 Z " /><path fill="rgb(0,0,0)" stroke="rgb(0,0,0)" stroke-width="1" opacity="0.4745098039215686" d="M 451.5 122 L 452.5 124 L 451.5 122 Z " /><path fill="rgb(0,0,0)" stroke="rgb(0,0,0)" stroke-width="1" opacity="0.4745098039215686" d="M 57.5 126 L 56.5 128 L 57.5 126 Z " /><path fill="rgb(0,0,0)" stroke="rgb(0,0,0)" stroke-width="1" opacity="0.4745098039215686" d="M 454.5 126 L 455.5 128 L 454.5 126 Z " /><path fill="rgb(0,0,0)" stroke="rgb(0,0,0)" stroke-width="1" opacity="0.4745098039215686" d="M 331.5 133 L 332.5 135 L 331.5 133 Z " /><path fill="rgb(0,0,0)" stroke="rgb(0,0,0)" stroke-width="1" opacity="0.4745098039215686" d="M 337.5 137 L 338.5 139 L 337.5 137 Z " /><path fill="rgb(0,0,0)" stroke="rgb(0,0,0)" stroke-width="1" opacity="0.4745098039215686" d="M 171.5 139 L 170.5 141 L 171.5 139 Z " /><path fill="rgb(0,0,0)" stroke="rgb(0,0,0)" stroke-width="1" opacity="0.4745098039215686" d="M 340.5 139 L 341.5 141 L 340.5 139 Z " /><path fill="rgb(0,0,0)" stroke="rgb(0,0,0)" stroke-width="1" opacity="0.4745098039215686" d="M 87.5 140 L 84.5 144 L 87.5 140 Z " /><path fill="rgb(0,0,0)" stroke="rgb(0,0,0)" stroke-width="1" opacity="0.4745098039215686" d="M 424.5 140 L 427.5 144 L 424.5 140 Z " /><path fill="rgb(0,0,0)" stroke="rgb(0,0,0)" stroke-width="1" opacity="0.4745098039215686" d="M 149.5 148 L 152 148.5 L 149.5 149 L 149.5 148 Z " /><path fill="rgb(0,0,0)" stroke="rgb(0,0,0)" stroke-width="1" opacity="0.4745098039215686" d="M 139.5 149 L 144 149.5 L 139.5 150 L 139.5 149 Z " /><path fill="rgb(0,0,0)" stroke="rgb(0,0,0)" stroke-width="1" opacity="0.4745098039215686" d="M 367.5 149 L 375 149.5 L 367.5 150 L 367.5 149 Z " /><path fill="rgb(0,0,0)" stroke="rgb(0,0,0)" stroke-width="1" opacity="0.4745098039215686" d="M 252.5 154 L 260 154.5 L 252.5 155 L 252.5 154 Z " /><path fill="rgb(0,0,0)" stroke="rgb(0,0,0)" stroke-width="1" opacity="0.4745098039215686" d="M 241.5 155 L 245 155.5 L 241.5 156 L 241.5 155 Z " /><path fill="rgb(0,0,0)" stroke="rgb(0,0,0)" stroke-width="1" opacity="0.4745098039215686" d="M 267.5 155 L 271 155.5 L 267.5 156 L 267.5 155 Z " /><path fill="rgb(0,0,0)" stroke="rgb(0,0,0)" stroke-width="1" opacity="0.4745098039215686" d="M 40.5 159 L 41 161.5 L 40 161.5 L 40.5 159 Z " /><path fill="rgb(0,0,0)" stroke="rgb(0,0,0)" stroke-width="1" opacity="0.4745098039215686" d="M 39.5 165 L 40 176.5 L 39 176.5 L 39.5 165 Z " /><path fill="rgb(0,0,0)" stroke="rgb(0,0,0)" stroke-width="1" opacity="0.4745098039215686" d="M 472.5 165 L 473 176.5 L 472 176.5 L 472.5 165 Z " /><path fill="rgb(0,0,0)" stroke="rgb(0,0,0)" stroke-width="1" opacity="0.4745098039215686" d="M 71.5 168 L 72 173.5 L 71 173.5 L 71.5 168 Z " /><path fill="rgb(0,0,0)" stroke="rgb(0,0,0)" stroke-width="1" opacity="0.4745098039215686" d="M 440.5 168 L 441 173.5 L 440 173.5 L 440.5 168 Z " /><path fill="rgb(0,0,0)" stroke="rgb(0,0,0)" stroke-width="1" opacity="0.4745098039215686" d="M 195.5 174 L 194.5 176 L 195.5 174 Z " /><path fill="rgb(0,0,0)" stroke="rgb(0,0,0)" stroke-width="1" opacity="0.4745098039215686" d="M 316.5 174 L 317.5 176 L 316.5 174 Z " /><path fill="rgb(0,0,0)" stroke="rgb(0,0,0)" stroke-width="1" opacity="0.4745098039215686" d="M 190.5 178 L 186.5 183 L 190.5 178 Z " /><path fill="rgb(0,0,0)" stroke="rgb(0,0,0)" stroke-width="1" opacity="0.4745098039215686" d="M 321.5 178 L 324.5 182 L 321.5 178 Z " /><path fill="rgb(0,0,0)" stroke="rgb(0,0,0)" stroke-width="1" opacity="0.4745098039215686" d="M 437.5 181 L 436.5 183 L 437.5 181 Z " /><path fill="rgb(0,0,0)" stroke="rgb(0,0,0)" stroke-width="1" opacity="0.4745098039215686" d="M 433.5 185 L 432.5 187 L 433.5 185 Z " /><path fill="rgb(0,0,0)" stroke="rgb(0,0,0)" stroke-width="1" opacity="0.4745098039215686" d="M 182.5 186 L 178.5 191 L 182.5 186 Z " /><path fill="rgb(0,0,0)" stroke="rgb(0,0,0)" stroke-width="1" opacity="0.4745098039215686" d="M 265.5 187 L 268 187.5 L 265.5 188 L 265.5 187 Z " /><path fill="rgb(0,0,0)" stroke="rgb(0,0,0)" stroke-width="1" opacity="0.4745098039215686" d="M 330.5 187 L 333.5 191 L 330.5 187 Z " /><path fill="rgb(0,0,0)" stroke="rgb(0,0,0)" stroke-width="1" opacity="0.4745098039215686" d="M 92.5 194 L 93.5 196 L 92.5 194 Z " /><path fill="rgb(0,0,0)" stroke="rgb(0,0,0)" stroke-width="1" opacity="0.4745098039215686" d="M 175.5 194 L 174.5 196 L 175.5 194 Z " /><path fill="rgb(0,0,0)" stroke="rgb(0,0,0)" stroke-width="1" opacity="0.4745098039215686" d="M 465.5 197 L 464.5 199 L 465.5 197 Z " /><path fill="rgb(0,0,0)" stroke="rgb(0,0,0)" stroke-width="1" opacity="0.4745098039215686" d="M 214.5 200 L 213.5 202 L 214.5 200 Z " /><path fill="rgb(0,0,0)" stroke="rgb(0,0,0)" stroke-width="1" opacity="0.4745098039215686" d="M 297.5 200 L 298.5 202 L 297.5 200 Z " /><path fill="rgb(0,0,0)" stroke="rgb(0,0,0)" stroke-width="1" opacity="0.4745098039215686" d="M 463.5 200 L 462.5 202 L 463.5 200 Z " /><path fill="rgb(0,0,0)" stroke="rgb(0,0,0)" stroke-width="1" opacity="0.4745098039215686" d="M 209.5 204 L 204.5 210 L 209.5 204 Z " /><path fill="rgb(0,0,0)" stroke="rgb(0,0,0)" stroke-width="1" opacity="0.4745098039215686" d="M 302.5 204 L 307.5 210 L 302.5 204 Z " /><path fill="rgb(0,0,0)" stroke="rgb(0,0,0)" stroke-width="1" opacity="0.4745098039215686" d="M 409.5 204 L 408.5 206 L 409.5 204 Z " /><path fill="rgb(0,0,0)" stroke="rgb(0,0,0)" stroke-width="1" opacity="0.4745098039215686" d="M 459.5 205 L 456.5 209 L 459.5 205 Z " /><path fill="rgb(0,0,0)" stroke="rgb(0,0,0)" stroke-width="1" opacity="0.4745098039215686" d="M 59.5 211 L 60.5 213 L 59.5 211 Z " /><path fill="rgb(0,0,0)" stroke="rgb(0,0,0)" stroke-width="1" opacity="0.4745098039215686" d="M 452.5 211 L 451.5 213 L 452.5 211 Z " /><path fill="rgb(0,0,0)" stroke="rgb(0,0,0)" stroke-width="1" opacity="0.4745098039215686" d="M 201.5 213 L 200.5 215 L 201.5 213 Z " /><path fill="rgb(0,0,0)" stroke="rgb(0,0,0)" stroke-width="1" opacity="0.4745098039215686" d="M 310.5 213 L 311.5 215 L 310.5 213 Z " /><path fill="rgb(0,0,0)" stroke="rgb(0,0,0)" stroke-width="1" opacity="0.4745098039215686" d="M 72.5 219 L 73.5 221 L 72.5 219 Z " /><path fill="rgb(0,0,0)" stroke="rgb(0,0,0)" stroke-width="1" opacity="0.4745098039215686" d="M 435.5 223 L 434.5 225 L 435.5 223 Z " /><path fill="rgb(0,0,0)" stroke="rgb(0,0,0)" stroke-width="1" opacity="0.4745098039215686" d="M 399.5 226 L 400 228.5 L 399 228.5 L 399.5 226 Z " /><path fill="rgb(0,0,0)" stroke="rgb(0,0,0)" stroke-width="1" opacity="0.4745098039215686" d="M 431.5 240 L 432 244.5 L 431 244.5 L 431.5 240 Z " /><path fill="rgb(0,0,0)" stroke="rgb(0,0,0)" stroke-width="1" opacity="0.4745098039215686" d="M 80.5 241 L 81 245.5 L 80 245.5 L 80.5 241 Z " /><path fill="rgb(0,0,0)" stroke="rgb(0,0,0)" stroke-width="1" opacity="0.4745098039215686" d="M 155.5 241 L 156 243.5 L 155 243.5 L 155.5 241 Z " /><path fill="rgb(0,0,0)" stroke="rgb(0,0,0)" stroke-width="1" opacity="0.4745098039215686" d="M 356.5 241 L 357 244.5 L 356 244.5 L 356.5 241 Z " /><path fill="rgb(0,0,0)" stroke="rgb(0,0,0)" stroke-width="1" opacity="0.4745098039215686" d="M 112.5 242 L 113 247.5 L 112 247.5 L 112.5 242 Z " /><path fill="rgb(0,0,0)" stroke="rgb(0,0,0)" stroke-width="1" opacity="0.4745098039215686" d="M 399.5 243 L 400 247.5 L 399 247.5 L 399.5 243 Z " /><path fill="rgb(0,0,0)" stroke="rgb(0,0,0)" stroke-width="1" opacity="0.4745098039215686" d="M 187.5 244 L 188 246.5 L 187 246.5 L 187.5 244 Z " /><path fill="rgb(0,0,0)" stroke="rgb(0,0,0)" stroke-width="1" opacity="0.4745098039215686" d="M 154.5 253 L 155 259.5 L 154 259.5 L 154.5 253 Z " /><path fill="rgb(0,0,0)" stroke="rgb(0,0,0)" stroke-width="1" opacity="0.4745098039215686" d="M 357.5 254 L 358 258.5 L 357 258.5 L 357.5 254 Z " /><path fill="rgb(0,0,0)" stroke="rgb(0,0,0)" stroke-width="1" opacity="0.4745098039215686" d="M 112.5 264 L 113 268.5 L 112 268.5 L 112.5 264 Z " /><path fill="rgb(0,0,0)" stroke="rgb(0,0,0)" stroke-width="1" opacity="0.4745098039215686" d="M 324.5 264 L 325 266.5 L 324 266.5 L 324.5 264 Z " /><path fill="rgb(0,0,0)" stroke="rgb(0,0,0)" stroke-width="1" opacity="0.4745098039215686" d="M 399.5 264 L 400 268.5 L 399 268.5 L 399.5 264 Z " /><path fill="rgb(0,0,0)" stroke="rgb(0,0,0)" stroke-width="1" opacity="0.4745098039215686" d="M 431.5 266 L 432 270.5 L 431 270.5 L 431.5 266 Z " /><path fill="rgb(0,0,0)" stroke="rgb(0,0,0)" stroke-width="1" opacity="0.4745098039215686" d="M 80.5 267 L 81 271.5 L 80 271.5 L 80.5 267 Z " /><path fill="rgb(0,0,0)" stroke="rgb(0,0,0)" stroke-width="1" opacity="0.4745098039215686" d="M 155.5 267 L 156 270.5 L 155 270.5 L 155.5 267 Z " /><path fill="rgb(0,0,0)" stroke="rgb(0,0,0)" stroke-width="1" opacity="0.4745098039215686" d="M 356.5 267 L 357 270.5 L 356 270.5 L 356.5 267 Z " /><path fill="rgb(0,0,0)" stroke="rgb(0,0,0)" stroke-width="1" opacity="0.4745098039215686" d="M 112.5 283 L 113 285.5 L 112 285.5 L 112.5 283 Z " /><path fill="rgb(0,0,0)" stroke="rgb(0,0,0)" stroke-width="1" opacity="0.4745098039215686" d="M 399.5 283 L 400 285.5 L 399 285.5 L 399.5 283 Z " /><path fill="rgb(0,0,0)" stroke="rgb(0,0,0)" stroke-width="1" opacity="0.4745098039215686" d="M 77.5 287 L 76.5 289 L 77.5 287 Z " /><path fill="rgb(0,0,0)" stroke="rgb(0,0,0)" stroke-width="1" opacity="0.4745098039215686" d="M 438.5 291 L 439.5 293 L 438.5 291 Z " /><path fill="rgb(0,0,0)" stroke="rgb(0,0,0)" stroke-width="1" opacity="0.4745098039215686" d="M 63.5 297 L 62.5 299 L 63.5 297 Z " /><path fill="rgb(0,0,0)" stroke="rgb(0,0,0)" stroke-width="1" opacity="0.4745098039215686" d="M 200.5 297 L 201.5 299 L 200.5 297 Z " /><path fill="rgb(0,0,0)" stroke="rgb(0,0,0)" stroke-width="1" opacity="0.4745098039215686" d="M 311.5 297 L 310.5 299 L 311.5 297 Z " /><path fill="rgb(0,0,0)" stroke="rgb(0,0,0)" stroke-width="1" opacity="0.4745098039215686" d="M 448.5 297 L 449.5 299 L 448.5 297 Z " /><path fill="rgb(0,0,0)" stroke="rgb(0,0,0)" stroke-width="1" opacity="0.4745098039215686" d="M 60.5 299 L 59.5 301 L 60.5 299 Z " /><path fill="rgb(0,0,0)" stroke="rgb(0,0,0)" stroke-width="1" opacity="0.4745098039215686" d="M 451.5 299 L 452.5 301 L 451.5 299 Z " /><path fill="rgb(0,0,0)" stroke="rgb(0,0,0)" stroke-width="1" opacity="0.4745098039215686" d="M 204.5 302 L 209.5 308 L 204.5 302 Z " /><path fill="rgb(0,0,0)" stroke="rgb(0,0,0)" stroke-width="1" opacity="0.4745098039215686" d="M 307.5 302 L 302.5 308 L 307.5 302 Z " /><path fill="rgb(0,0,0)" stroke="rgb(0,0,0)" stroke-width="1" opacity="0.4745098039215686" d="M 55.5 303 L 52.5 307 L 55.5 303 Z " /><path fill="rgb(0,0,0)" stroke="rgb(0,0,0)" stroke-width="1" opacity="0.4745098039215686" d="M 105.5 303 L 104.5 305 L 105.5 303 Z " /><path fill="rgb(0,0,0)" stroke="rgb(0,0,0)" stroke-width="1" opacity="0.4745098039215686" d="M 103.5 306 L 102.5 308 L 103.5 306 Z " /><path fill="rgb(0,0,0)" stroke="rgb(0,0,0)" stroke-width="1" opacity="0.4745098039215686" d="M 408.5 306 L 409.5 308 L 408.5 306 Z " /><path fill="rgb(0,0,0)" stroke="rgb(0,0,0)" stroke-width="1" opacity="0.4745098039215686" d="M 49.5 310 L 48.5 312 L 49.5 310 Z " /><path fill="rgb(0,0,0)" stroke="rgb(0,0,0)" stroke-width="1" opacity="0.4745098039215686" d="M 213.5 310 L 214.5 312 L 213.5 310 Z " /><path fill="rgb(0,0,0)" stroke="rgb(0,0,0)" stroke-width="1" opacity="0.4745098039215686" d="M 298.5 310 L 297.5 312 L 298.5 310 Z " /><path fill="rgb(0,0,0)" stroke="rgb(0,0,0)" stroke-width="1" opacity="0.4745098039215686" d="M 47.5 313 L 46.5 315 L 47.5 313 Z " /><path fill="rgb(0,0,0)" stroke="rgb(0,0,0)" stroke-width="1" opacity="0.4745098039215686" d="M 339.5 313 L 338.5 315 L 339.5 313 Z " /><path fill="rgb(0,0,0)" stroke="rgb(0,0,0)" stroke-width="1" opacity="0.4745098039215686" d="M 93.5 316 L 92.5 318 L 93.5 316 Z " /><path fill="rgb(0,0,0)" stroke="rgb(0,0,0)" stroke-width="1" opacity="0.4745098039215686" d="M 174.5 316 L 175.5 318 L 174.5 316 Z " /><path fill="rgb(0,0,0)" stroke="rgb(0,0,0)" stroke-width="1" opacity="0.4745098039215686" d="M 336.5 317 L 335.5 319 L 336.5 317 Z " /><path fill="rgb(0,0,0)" stroke="rgb(0,0,0)" stroke-width="1" opacity="0.4745098039215686" d="M 178.5 321 L 181.5 325 L 178.5 321 Z " /><path fill="rgb(0,0,0)" stroke="rgb(0,0,0)" stroke-width="1" opacity="0.4745098039215686" d="M 332.5 322 L 329.5 326 L 332.5 322 Z " /><path fill="rgb(0,0,0)" stroke="rgb(0,0,0)" stroke-width="1" opacity="0.4745098039215686" d="M 265.5 324 L 268 324.5 L 265.5 325 L 265.5 324 Z " /><path fill="rgb(0,0,0)" stroke="rgb(0,0,0)" stroke-width="1" opacity="0.4745098039215686" d="M 79.5 325 L 78.5 327 L 79.5 325 Z " /><path fill="rgb(0,0,0)" stroke="rgb(0,0,0)" stroke-width="1" opacity="0.4745098039215686" d="M 432.5 325 L 433.5 327 L 432.5 325 Z " /><path fill="rgb(0,0,0)" stroke="rgb(0,0,0)" stroke-width="1" opacity="0.4745098039215686" d="M 75.5 329 L 74.5 331 L 75.5 329 Z " /><path fill="rgb(0,0,0)" stroke="rgb(0,0,0)" stroke-width="1" opacity="0.4745098039215686" d="M 186.5 329 L 189.5 333 L 186.5 329 Z " /><path fill="rgb(0,0,0)" stroke="rgb(0,0,0)" stroke-width="1" opacity="0.4745098039215686" d="M 325.5 329 L 321.5 334 L 325.5 329 Z " /><path fill="rgb(0,0,0)" stroke="rgb(0,0,0)" stroke-width="1" opacity="0.4745098039215686" d="M 436.5 329 L 437.5 331 L 436.5 329 Z " /><path fill="rgb(0,0,0)" stroke="rgb(0,0,0)" stroke-width="1" opacity="0.4745098039215686" d="M 39.5 335 L 40 347.5 L 39 347.5 L 39.5 335 Z " /><path fill="rgb(0,0,0)" stroke="rgb(0,0,0)" stroke-width="1" opacity="0.4745098039215686" d="M 318.5 335 L 317.5 337 L 318.5 335 Z " /><path fill="rgb(0,0,0)" stroke="rgb(0,0,0)" stroke-width="1" opacity="0.4745098039215686" d="M 472.5 336 L 473 346.5 L 472 346.5 L 472.5 336 Z " /><path fill="rgb(0,0,0)" stroke="rgb(0,0,0)" stroke-width="1" opacity="0.4745098039215686" d="M 71.5 338 L 72 343.5 L 71 343.5 L 71.5 338 Z " /><path fill="rgb(0,0,0)" stroke="rgb(0,0,0)" stroke-width="1" opacity="0.4745098039215686" d="M 197.5 338 L 198.5 340 L 197.5 338 Z " /><path fill="rgb(0,0,0)" stroke="rgb(0,0,0)" stroke-width="1" opacity="0.4745098039215686" d="M 440.5 338 L 441 343.5 L 440 343.5 L 440.5 338 Z " /><path fill="rgb(0,0,0)" stroke="rgb(0,0,0)" stroke-width="1" opacity="0.4745098039215686" d="M 241.5 356 L 245 356.5 L 241.5 357 L 241.5 356 Z " /><path fill="rgb(0,0,0)" stroke="rgb(0,0,0)" stroke-width="1" opacity="0.4745098039215686" d="M 267.5 356 L 271 356.5 L 267.5 357 L 267.5 356 Z " /><path fill="rgb(0,0,0)" stroke="rgb(0,0,0)" stroke-width="1" opacity="0.4745098039215686" d="M 253.5 357 L 259 357.5 L 253.5 358 L 253.5 357 Z " /><path fill="rgb(0,0,0)" stroke="rgb(0,0,0)" stroke-width="1" opacity="0.4745098039215686" d="M 138.5 362 L 144 362.5 L 138.5 363 L 138.5 362 Z " /><path fill="rgb(0,0,0)" stroke="rgb(0,0,0)" stroke-width="1" opacity="0.4745098039215686" d="M 368.5 362 L 373 362.5 L 368.5 363 L 368.5 362 Z " /><path fill="rgb(0,0,0)" stroke="rgb(0,0,0)" stroke-width="1" opacity="0.4745098039215686" d="M 360.5 363 L 363 363.5 L 360.5 364 L 360.5 363 Z " /><path fill="rgb(0,0,0)" stroke="rgb(0,0,0)" stroke-width="1" opacity="0.4745098039215686" d="M 84.5 368 L 87.5 372 L 84.5 368 Z " /><path fill="rgb(0,0,0)" stroke="rgb(0,0,0)" stroke-width="1" opacity="0.4745098039215686" d="M 427.5 368 L 424.5 372 L 427.5 368 Z " /><path fill="rgb(0,0,0)" stroke="rgb(0,0,0)" stroke-width="1" opacity="0.4745098039215686" d="M 56.5 384 L 57.5 386 L 56.5 384 Z " /><path fill="rgb(0,0,0)" stroke="rgb(0,0,0)" stroke-width="1" opacity="0.4745098039215686" d="M 59.5 388 L 60.5 390 L 59.5 388 Z " /><path fill="rgb(0,0,0)" stroke="rgb(0,0,0)" stroke-width="1" opacity="0.4745098039215686" d="M 452.5 388 L 451.5 390 L 452.5 388 Z " /><path fill="rgb(0,0,0)" stroke="rgb(0,0,0)" stroke-width="1" opacity="0.4745098039215686" d="M 208.5 393 L 209.5 395 L 208.5 393 Z " /><path fill="rgb(0,0,0)" stroke="rgb(0,0,0)" stroke-width="1" opacity="0.4745098039215686" d="M 303.5 393 L 302.5 395 L 303.5 393 Z " /><path fill="rgb(0,0,0)" stroke="rgb(0,0,0)" stroke-width="1" opacity="0.4745098039215686" d="M 445.5 395 L 443.5 398 L 445.5 395 Z " /><path fill="rgb(0,0,0)" stroke="rgb(0,0,0)" stroke-width="1" opacity="0.4745098039215686" d="M 67.5 396 L 68.5 398 L 67.5 396 Z " /><path fill="rgb(0,0,0)" stroke="rgb(0,0,0)" stroke-width="1" opacity="0.4745098039215686" d="M 151.5 397 L 152.5 399 L 151.5 397 Z " /><path fill="rgb(0,0,0)" stroke="rgb(0,0,0)" stroke-width="1" opacity="0.4745098039215686" d="M 360.5 397 L 359.5 399 L 360.5 397 Z " /><path fill="rgb(0,0,0)" stroke="rgb(0,0,0)" stroke-width="1" opacity="0.4745098039215686" d="M 154.5 399 L 155.5 401 L 154.5 399 Z " /><path fill="rgb(0,0,0)" stroke="rgb(0,0,0)" stroke-width="1" opacity="0.4745098039215686" d="M 357.5 399 L 356.5 401 L 357.5 399 Z " /><path fill="rgb(0,0,0)" stroke="rgb(0,0,0)" stroke-width="1" opacity="0.4745098039215686" d="M 384.5 399 L 385.5 401 L 384.5 399 Z " /><path fill="rgb(0,0,0)" stroke="rgb(0,0,0)" stroke-width="1" opacity="0.4745098039215686" d="M 157.5 401 L 158.5 403 L 157.5 401 Z " /><path fill="rgb(0,0,0)" stroke="rgb(0,0,0)" stroke-width="1" opacity="0.4745098039215686" d="M 354.5 401 L 353.5 403 L 354.5 401 Z " /><path fill="rgb(0,0,0)" stroke="rgb(0,0,0)" stroke-width="1" opacity="0.4745098039215686" d="M 218.5 403 L 219.5 405 L 218.5 403 Z " /><path fill="rgb(0,0,0)" stroke="rgb(0,0,0)" stroke-width="1" opacity="0.4745098039215686" d="M 293.5 403 L 292.5 405 L 293.5 403 Z " /><path fill="rgb(0,0,0)" stroke="rgb(0,0,0)" stroke-width="1" opacity="0.4745098039215686" d="M 91.5 407 L 95 407.5 L 91.5 408 L 91.5 407 Z " /><path fill="rgb(0,0,0)" stroke="rgb(0,0,0)" stroke-width="1" opacity="0.4745098039215686" d="M 104.5 407 L 108 407.5 L 104.5 408 L 104.5 407 Z " /><path fill="rgb(0,0,0)" stroke="rgb(0,0,0)" stroke-width="1" opacity="0.4745098039215686" d="M 405.5 407 L 408 407.5 L 405.5 408 L 405.5 407 Z " /><path fill="rgb(0,0,0)" stroke="rgb(0,0,0)" stroke-width="1" opacity="0.4745098039215686" d="M 417.5 407 L 420 407.5 L 417.5 408 L 417.5 407 Z " /><path fill="rgb(0,0,0)" stroke="rgb(0,0,0)" stroke-width="1" opacity="0.4745098039215686" d="M 189.5 419 L 190.5 421 L 189.5 419 Z " /><path fill="rgb(0,0,0)" stroke="rgb(0,0,0)" stroke-width="1" opacity="0.4745098039215686" d="M 322.5 419 L 321.5 421 L 322.5 419 Z " /><path fill="rgb(0,0,0)" stroke="rgb(0,0,0)" stroke-width="1" opacity="0.4745098039215686" d="M 319.5 422 L 318.5 424 L 319.5 422 Z " /><path fill="rgb(0,0,0)" stroke="rgb(0,0,0)" stroke-width="1" opacity="0.4745098039215686" d="M 283.5 424 L 284 426.5 L 283 426.5 L 283.5 424 Z " /><path fill="rgb(0,0,0)" stroke="rgb(0,0,0)" stroke-width="1" opacity="0.4745098039215686" d="M 229.5 432 L 230 437.5 L 229 437.5 L 229.5 432 Z " /><path fill="rgb(0,0,0)" stroke="rgb(0,0,0)" stroke-width="1" opacity="0.4745098039215686" d="M 282.5 432 L 283 437.5 L 282 437.5 L 282.5 432 Z " /><path fill="rgb(0,0,0)" stroke="rgb(0,0,0)" stroke-width="1" opacity="0.4745098039215686" d="M 197.5 435 L 198 440.5 L 197 440.5 L 197.5 435 Z " /><path fill="rgb(0,0,0)" stroke="rgb(0,0,0)" stroke-width="1" opacity="0.4745098039215686" d="M 314.5 435 L 315 440.5 L 314 440.5 L 314.5 435 Z " /><path fill="rgb(0,0,0)" stroke="rgb(0,0,0)" stroke-width="1" opacity="0.4745098039215686" d="M 280.5 443 L 279.5 445 L 280.5 443 Z " /><path fill="rgb(0,0,0)" stroke="rgb(0,0,0)" stroke-width="1" opacity="0.4745098039215686" d="M 234.5 447 L 235.5 449 L 234.5 447 Z " /><path fill="rgb(0,0,0)" stroke="rgb(0,0,0)" stroke-width="1" opacity="0.4745098039215686" d="M 277.5 447 L 276.5 449 L 277.5 447 Z " /><path fill="rgb(0,0,0)" stroke="rgb(0,0,0)" stroke-width="1" opacity="0.4745098039215686" d="M 208.5 466 L 215.5 474 L 208.5 466 Z " /><path fill="rgb(0,0,0)" stroke="rgb(0,0,0)" stroke-width="1" opacity="0.4745098039215686" d="M 303.5 466 L 296.5 474 L 303.5 466 Z " /><path fill="rgb(0,0,0)" stroke="rgb(0,0,0)" stroke-width="1" opacity="0.4745098039215686" d="M 221.5 477 L 222.5 479 L 221.5 477 Z " /><path fill="rgb(0,0,0)" stroke="rgb(0,0,0)" stroke-width="1" opacity="0.4745098039215686" d="M 246.5 485 L 266 485.5 L 246.5 486 L 246.5 485 Z " /></svg>