<svg width="512" height="512" version="1.1" xmlns="http://www.w3.org/2000/svg" desc="Created with imagetracer.js version 1.2.6" ><path fill="rgb(0,0,0)" stroke="rgb(0,0,0)" stroke-width="1" opacity="0.8117647058823529" d="M 476.5 0 L 480 0.5 L 476.5 1 L 476.5 0 Z " /><path fill="rgb(0,0,0)" stroke="rgb(0,0,0)" stroke-width="1" opacity="0.8117647058823529" d="M 483.5 0 L 488 0.5 L 483.5 1 L 483.5 0 Z " /><path fill="rgb(0,0,0)" stroke="rgb(0,0,0)" stroke-width="1" opacity="0.8117647058823529" d="M 497.5 4 L 498.5 6 L 497.5 4 Z " /><path fill="rgb(0,0,0)" stroke="rgb(0,0,0)" stroke-width="1" opacity="0.8117647058823529" d="M 500.5 6 L 505.5 12 L 500.5 6 Z " /><path fill="rgb(0,0,0)" stroke="rgb(0,0,0)" stroke-width="1" opacity="0.8117647058823529" d="M 506.5 13 L 507.5 15 L 506.5 13 Z " /><path fill="rgb(0,0,0)" stroke="rgb(0,0,0)" stroke-width="1" opacity="0.8117647058823529" d="M 511.5 24 L 512 28.5 L 511 28.5 L 511.5 24 Z " /><path fill="rgb(0,0,0)" stroke="rgb(0,0,0)" stroke-width="1" opacity="0.8117647058823529" d="M 511.5 32 L 512 35.5 L 511 35.5 L 511.5 32 Z " /><path fill="rgb(0,0,0)" stroke="rgb(0,0,0)" stroke-width="1" opacity="0.8117647058823529" d="M 364.5 146 Q 366.8 145.3 366 147.5 Q 364.5 150.5 363 147.5 L 364.5 146 Z " /><path fill="rgb(0,0,0)" stroke="rgb(0,0,0)" stroke-width="1" opacity="0.8117647058823529" d="M 360.5 149 L 359.5 151 L 360.5 149 Z " /><path fill="rgb(0,0,0)" stroke="rgb(0,0,0)" stroke-width="1" opacity="0.8117647058823529" d="M 13.5 150 L 12.5 152 L 13.5 150 Z " /><path fill="rgb(0,0,0)" stroke="rgb(0,0,0)" stroke-width="1" opacity="0.8117647058823529" d="M 357.5 151 L 356.5 153 L 357.5 151 Z " /><path fill="rgb(0,0,0)" stroke="rgb(0,0,0)" stroke-width="1" opacity="0.8117647058823529" d="M 362.5 151 L 361.5 153 L 362.5 151 Z " /><path fill="rgb(0,0,0)" stroke="rgb(0,0,0)" stroke-width="1" opacity="0.8117647058823529" d="M 354.5 153 L 353.5 155 L 354.5 153 Z " /><path fill="rgb(0,0,0)" stroke="rgb(0,0,0)" stroke-width="1" opacity="0.8117647058823529" d="M 360.5 154 L 359.5 156 L 360.5 154 Z " /><path fill="rgb(0,0,0)" stroke="rgb(0,0,0)" stroke-width="1" opacity="0.8117647058823529" d="M 6.5 157 L 5.5 159 L 6.5 157 Z " /><path fill="rgb(0,0,0)" stroke="rgb(0,0,0)" stroke-width="1" opacity="0.8117647058823529" d="M 358.5 157 L 357.5 159 L 358.5 157 Z " /><path fill="rgb(0,0,0)" stroke="rgb(0,0,0)" stroke-width="1" opacity="0.8117647058823529" d="M 347.5 158 L 346.5 160 L 347.5 158 Z " /><path fill="rgb(0,0,0)" stroke="rgb(0,0,0)" stroke-width="1" opacity="0.8117647058823529" d="M 4.5 160 L 3.5 162 L 4.5 160 Z " /><path fill="rgb(0,0,0)" stroke="rgb(0,0,0)" stroke-width="1" opacity="0.8117647058823529" d="M 344.5 160 L 343.5 162 L 344.5 160 Z " /><path fill="rgb(0,0,0)" stroke="rgb(0,0,0)" stroke-width="1" opacity="0.8117647058823529" d="M 355.5 161 L 354.5 163 L 355.5 161 Z " /><path fill="rgb(0,0,0)" stroke="rgb(0,0,0)" stroke-width="1" opacity="0.8117647058823529" d="M 341.5 162 L 340.5 164 L 341.5 162 Z " /><path fill="rgb(0,0,0)" stroke="rgb(0,0,0)" stroke-width="1" opacity="0.8117647058823529" d="M 353.5 164 L 352.5 166 L 353.5 164 Z " /><path fill="rgb(0,0,0)" stroke="rgb(0,0,0)" stroke-width="1" opacity="0.8117647058823529" d="M 334.5 167 L 333.5 169 L 334.5 167 Z " /><path fill="rgb(0,0,0)" stroke="rgb(0,0,0)" stroke-width="1" opacity="0.8117647058823529" d="M 351.5 167 L 350.5 169 L 351.5 167 Z " /><path fill="rgb(0,0,0)" stroke="rgb(0,0,0)" stroke-width="1" opacity="0.8117647058823529" d="M 331.5 169 L 330.5 171 L 331.5 169 Z " /><path fill="rgb(0,0,0)" stroke="rgb(0,0,0)" stroke-width="1" opacity="0.8117647058823529" d="M 0.5 170 L 1 172.5 L 0 172.5 L 0.5 170 Z " /><path fill="rgb(0,0,0)" stroke="rgb(0,0,0)" stroke-width="1" opacity="0.8117647058823529" d="M 328.5 171 L 327.5 173 L 328.5 171 Z " /><path fill="rgb(0,0,0)" stroke="rgb(0,0,0)" stroke-width="1" opacity="0.8117647058823529" d="M 348.5 171 L 347.5 173 L 348.5 171 Z " /><path fill="rgb(0,0,0)" stroke="rgb(0,0,0)" stroke-width="1" opacity="0.8117647058823529" d="M 324.5 174 L 323.5 176 L 324.5 174 Z " /><path fill="rgb(0,0,0)" stroke="rgb(0,0,0)" stroke-width="1" opacity="0.8117647058823529" d="M 346.5 174 L 345.5 176 L 346.5 174 Z " /><path fill="rgb(0,0,0)" stroke="rgb(0,0,0)" stroke-width="1" opacity="0.8117647058823529" d="M 321.5 176 L 320.5 178 L 321.5 176 Z " /><path fill="rgb(0,0,0)" stroke="rgb(0,0,0)" stroke-width="1" opacity="0.8117647058823529" d="M 344.5 177 L 343.5 179 L 344.5 177 Z " /><path fill="rgb(0,0,0)" stroke="rgb(0,0,0)" stroke-width="1" opacity="0.8117647058823529" d="M 0.5 178 L 1 180.5 L 0 180.5 L 0.5 178 Z " /><path fill="rgb(0,0,0)" stroke="rgb(0,0,0)" stroke-width="1" opacity="0.8117647058823529" d="M 318.5 178 L 317.5 180 L 318.5 178 Z " /><path fill="rgb(0,0,0)" stroke="rgb(0,0,0)" stroke-width="1" opacity="0.8117647058823529" d="M 315.5 180 L 314.5 182 L 315.5 180 Z " /><path fill="rgb(0,0,0)" stroke="rgb(0,0,0)" stroke-width="1" opacity="0.8117647058823529" d="M 341.5 181 L 340.5 183 L 341.5 181 Z " /><path fill="rgb(0,0,0)" stroke="rgb(0,0,0)" stroke-width="1" opacity="0.8117647058823529" d="M 311.5 183 L 310.5 185 L 311.5 183 Z " /><path fill="rgb(0,0,0)" stroke="rgb(0,0,0)" stroke-width="1" opacity="0.8117647058823529" d="M 339.5 184 L 338.5 186 L 339.5 184 Z " /><path fill="rgb(0,0,0)" stroke="rgb(0,0,0)" stroke-width="1" opacity="0.8117647058823529" d="M 308.5 185 L 307.5 187 L 308.5 185 Z " /><path fill="rgb(0,0,0)" stroke="rgb(0,0,0)" stroke-width="1" opacity="0.8117647058823529" d="M 305.5 187 L 304.5 189 L 305.5 187 Z " /><path fill="rgb(0,0,0)" stroke="rgb(0,0,0)" stroke-width="1" opacity="0.8117647058823529" d="M 337.5 187 L 336.5 189 L 337.5 187 Z " /><path fill="rgb(0,0,0)" stroke="rgb(0,0,0)" stroke-width="1" opacity="0.8117647058823529" d="M 4.5 191 L 5.5 193 L 4.5 191 Z " /><path fill="rgb(0,0,0)" stroke="rgb(0,0,0)" stroke-width="1" opacity="0.8117647058823529" d="M 334.5 191 L 333.5 193 L 334.5 191 Z " /><path fill="rgb(0,0,0)" stroke="rgb(0,0,0)" stroke-width="1" opacity="0.8117647058823529" d="M 298.5 192 L 297.5 194 L 298.5 192 Z " /><path fill="rgb(0,0,0)" stroke="rgb(0,0,0)" stroke-width="1" opacity="0.8117647058823529" d="M 295.5 194 L 294.5 196 L 295.5 194 Z " /><path fill="rgb(0,0,0)" stroke="rgb(0,0,0)" stroke-width="1" opacity="0.8117647058823529" d="M 332.5 194 L 331.5 196 L 332.5 194 Z " /><path fill="rgb(0,0,0)" stroke="rgb(0,0,0)" stroke-width="1" opacity="0.8117647058823529" d="M 7.5 195 L 9.5 198 L 7.5 195 Z " /><path fill="rgb(0,0,0)" stroke="rgb(0,0,0)" stroke-width="1" opacity="0.8117647058823529" d="M 292.5 196 L 291.5 198 L 292.5 196 Z " /><path fill="rgb(0,0,0)" stroke="rgb(0,0,0)" stroke-width="1" opacity="0.8117647058823529" d="M 330.5 197 L 329.5 199 L 330.5 197 Z " /><path fill="rgb(0,0,0)" stroke="rgb(0,0,0)" stroke-width="1" opacity="0.8117647058823529" d="M 12.5 199 L 13.5 201 L 12.5 199 Z " /><path fill="rgb(0,0,0)" stroke="rgb(0,0,0)" stroke-width="1" opacity="0.8117647058823529" d="M 288.5 199 L 287.5 201 L 288.5 199 Z " /><path fill="rgb(0,0,0)" stroke="rgb(0,0,0)" stroke-width="1" opacity="0.8117647058823529" d="M 15.5 201 L 18 202.5 L 16.5 203 L 15.5 201 Z " /><path fill="rgb(0,0,0)" stroke="rgb(0,0,0)" stroke-width="1" opacity="0.8117647058823529" d="M 285.5 201 L 284.5 203 L 285.5 201 Z " /><path fill="rgb(0,0,0)" stroke="rgb(0,0,0)" stroke-width="1" opacity="0.8117647058823529" d="M 327.5 201 L 326.5 203 L 327.5 201 Z " /><path fill="rgb(0,0,0)" stroke="rgb(0,0,0)" stroke-width="1" opacity="0.8117647058823529" d="M 282.5 203 L 281.5 205 L 282.5 203 Z " /><path fill="rgb(0,0,0)" stroke="rgb(0,0,0)" stroke-width="1" opacity="0.8117647058823529" d="M 325.5 204 L 324.5 206 L 325.5 204 Z " /><path fill="rgb(0,0,0)" stroke="rgb(0,0,0)" stroke-width="1" opacity="0.8117647058823529" d="M 323.5 207 L 322.5 209 L 323.5 207 Z " /><path fill="rgb(0,0,0)" stroke="rgb(0,0,0)" stroke-width="1" opacity="0.8117647058823529" d="M 275.5 208 L 274.5 210 L 275.5 208 Z " /><path fill="rgb(0,0,0)" stroke="rgb(0,0,0)" stroke-width="1" opacity="0.8117647058823529" d="M 272.5 210 L 271.5 212 L 272.5 210 Z " /><path fill="rgb(0,0,0)" stroke="rgb(0,0,0)" stroke-width="1" opacity="0.8117647058823529" d="M 320.5 211 L 319.5 213 L 320.5 211 Z " /><path fill="rgb(0,0,0)" stroke="rgb(0,0,0)" stroke-width="1" opacity="0.8117647058823529" d="M 269.5 212 L 268.5 214 L 269.5 212 Z " /><path fill="rgb(0,0,0)" stroke="rgb(0,0,0)" stroke-width="1" opacity="0.8117647058823529" d="M 318.5 214 L 317.5 216 L 318.5 214 Z " /><path fill="rgb(0,0,0)" stroke="rgb(0,0,0)" stroke-width="1" opacity="0.8117647058823529" d="M 265.5 215 L 264.5 217 L 265.5 215 Z " /><path fill="rgb(0,0,0)" stroke="rgb(0,0,0)" stroke-width="1" opacity="0.8117647058823529" d="M 262.5 217 L 261.5 219 L 262.5 217 Z " /><path fill="rgb(0,0,0)" stroke="rgb(0,0,0)" stroke-width="1" opacity="0.8117647058823529" d="M 316.5 217 L 315.5 219 L 316.5 217 Z " /><path fill="rgb(0,0,0)" stroke="rgb(0,0,0)" stroke-width="1" opacity="0.8117647058823529" d="M 259.5 219 L 258.5 221 L 259.5 219 Z " /><path fill="rgb(0,0,0)" stroke="rgb(0,0,0)" stroke-width="1" opacity="0.8117647058823529" d="M 256.5 221 L 255.5 223 L 256.5 221 Z " /><path fill="rgb(0,0,0)" stroke="rgb(0,0,0)" stroke-width="1" opacity="0.8117647058823529" d="M 313.5 221 L 312.5 223 L 313.5 221 Z " /><path fill="rgb(0,0,0)" stroke="rgb(0,0,0)" stroke-width="1" opacity="0.8117647058823529" d="M 252.5 224 L 251.5 226 L 252.5 224 Z " /><path fill="rgb(0,0,0)" stroke="rgb(0,0,0)" stroke-width="1" opacity="0.8117647058823529" d="M 311.5 224 L 310.5 226 L 311.5 224 Z " /><path fill="rgb(0,0,0)" stroke="rgb(0,0,0)" stroke-width="1" opacity="0.8117647058823529" d="M 249.5 226 L 248.5 228 L 249.5 226 Z " /><path fill="rgb(0,0,0)" stroke="rgb(0,0,0)" stroke-width="1" opacity="0.8117647058823529" d="M 309.5 227 L 308.5 229 L 309.5 227 Z " /><path fill="rgb(0,0,0)" stroke="rgb(0,0,0)" stroke-width="1" opacity="0.8117647058823529" d="M 246.5 228 L 245.5 230 L 246.5 228 Z " /><path fill="rgb(0,0,0)" stroke="rgb(0,0,0)" stroke-width="1" opacity="0.8117647058823529" d="M 306.5 231 L 305.5 233 L 306.5 231 Z " /><path fill="rgb(0,0,0)" stroke="rgb(0,0,0)" stroke-width="1" opacity="0.8117647058823529" d="M 239.5 233 L 238.5 235 L 239.5 233 Z " /><path fill="rgb(0,0,0)" stroke="rgb(0,0,0)" stroke-width="1" opacity="0.8117647058823529" d="M 304.5 234 L 303.5 236 L 304.5 234 Z " /><path fill="rgb(0,0,0)" stroke="rgb(0,0,0)" stroke-width="1" opacity="0.8117647058823529" d="M 236.5 235 L 235.5 237 L 236.5 235 Z " /><path fill="rgb(0,0,0)" stroke="rgb(0,0,0)" stroke-width="1" opacity="0.8117647058823529" d="M 233.5 237 L 232.5 239 L 233.5 237 Z " /><path fill="rgb(0,0,0)" stroke="rgb(0,0,0)" stroke-width="1" opacity="0.8117647058823529" d="M 302.5 237 L 301.5 239 L 302.5 237 Z " /><path fill="rgb(0,0,0)" stroke="rgb(0,0,0)" stroke-width="1" opacity="0.8117647058823529" d="M 299.5 241 L 298.5 243 L 299.5 241 Z " /><path fill="rgb(0,0,0)" stroke="rgb(0,0,0)" stroke-width="1" opacity="0.8117647058823529" d="M 226.5 242 L 225.5 244 L 226.5 242 Z " /><path fill="rgb(0,0,0)" stroke="rgb(0,0,0)" stroke-width="1" opacity="0.8117647058823529" d="M 223.5 244 L 222.5 246 L 223.5 244 Z " /><path fill="rgb(0,0,0)" stroke="rgb(0,0,0)" stroke-width="1" opacity="0.8117647058823529" d="M 297.5 244 L 296.5 246 L 297.5 244 Z " /><path fill="rgb(0,0,0)" stroke="rgb(0,0,0)" stroke-width="1" opacity="0.8117647058823529" d="M 220.5 246 L 219.5 248 L 220.5 246 Z " /><path fill="rgb(0,0,0)" stroke="rgb(0,0,0)" stroke-width="1" opacity="0.8117647058823529" d="M 295.5 247 L 294.5 249 L 295.5 247 Z " /><path fill="rgb(0,0,0)" stroke="rgb(0,0,0)" stroke-width="1" opacity="0.8117647058823529" d="M 216.5 249 L 215.5 251 L 216.5 249 Z " /><path fill="rgb(0,0,0)" stroke="rgb(0,0,0)" stroke-width="1" opacity="0.8117647058823529" d="M 213.5 251 L 212.5 253 L 213.5 251 Z " /><path fill="rgb(0,0,0)" stroke="rgb(0,0,0)" stroke-width="1" opacity="0.8117647058823529" d="M 292.5 251 L 291.5 253 L 292.5 251 Z " /><path fill="rgb(0,0,0)" stroke="rgb(0,0,0)" stroke-width="1" opacity="0.8117647058823529" d="M 210.5 253 L 209.5 255 L 210.5 253 Z " /><path fill="rgb(0,0,0)" stroke="rgb(0,0,0)" stroke-width="1" opacity="0.8117647058823529" d="M 290.5 254 L 289.5 256 L 290.5 254 Z " /><path fill="rgb(0,0,0)" stroke="rgb(0,0,0)" stroke-width="1" opacity="0.8117647058823529" d="M 288.5 257 L 287.5 259 L 288.5 257 Z " /><path fill="rgb(0,0,0)" stroke="rgb(0,0,0)" stroke-width="1" opacity="0.8117647058823529" d="M 203.5 258 L 202.5 260 L 203.5 258 Z " /><path fill="rgb(0,0,0)" stroke="rgb(0,0,0)" stroke-width="1" opacity="0.8117647058823529" d="M 200.5 260 L 199.5 262 L 200.5 260 Z " /><path fill="rgb(0,0,0)" stroke="rgb(0,0,0)" stroke-width="1" opacity="0.8117647058823529" d="M 285.5 261 L 284.5 263 L 285.5 261 Z " /><path fill="rgb(0,0,0)" stroke="rgb(0,0,0)" stroke-width="1" opacity="0.8117647058823529" d="M 195.5 262 L 198 262.5 L 195.5 263 L 195.5 262 Z " /><path fill="rgb(0,0,0)" stroke="rgb(0,0,0)" stroke-width="1" opacity="0.8117647058823529" d="M 283.5 264 L 282.5 266 L 283.5 264 Z " /><path fill="rgb(0,0,0)" stroke="rgb(0,0,0)" stroke-width="1" opacity="0.8117647058823529" d="M 281.5 267 L 280.5 269 L 281.5 267 Z " /><path fill="rgb(0,0,0)" stroke="rgb(0,0,0)" stroke-width="1" opacity="0.8117647058823529" d="M 278.5 271 L 277.5 273 L 278.5 271 Z " /><path fill="rgb(0,0,0)" stroke="rgb(0,0,0)" stroke-width="1" opacity="0.8117647058823529" d="M 276.5 274 L 275.5 276 L 276.5 274 Z " /><path fill="rgb(0,0,0)" stroke="rgb(0,0,0)" stroke-width="1" opacity="0.8117647058823529" d="M 274.5 277 L 273.5 279 L 274.5 277 Z " /><path fill="rgb(0,0,0)" stroke="rgb(0,0,0)" stroke-width="1" opacity="0.8117647058823529" d="M 271.5 281 L 270.5 283 L 271.5 281 Z " /><path fill="rgb(0,0,0)" stroke="rgb(0,0,0)" stroke-width="1" opacity="0.8117647058823529" d="M 269.5 284 L 268.5 286 L 269.5 284 Z " /><path fill="rgb(0,0,0)" stroke="rgb(0,0,0)" stroke-width="1" opacity="0.8117647058823529" d="M 267.5 287 L 266.5 289 L 267.5 287 Z " /><path fill="rgb(0,0,0)" stroke="rgb(0,0,0)" stroke-width="1" opacity="0.8117647058823529" d="M 262.5 294 L 261.5 296 L 262.5 294 Z " /><path fill="rgb(0,0,0)" stroke="rgb(0,0,0)" stroke-width="1" opacity="0.8117647058823529" d="M 260.5 297 L 259.5 299 L 260.5 297 Z " /><path fill="rgb(0,0,0)" stroke="rgb(0,0,0)" stroke-width="1" opacity="0.8117647058823529" d="M 258.5 300 L 257.5 302 L 258.5 300 Z " /><path fill="rgb(0,0,0)" stroke="rgb(0,0,0)" stroke-width="1" opacity="0.8117647058823529" d="M 255.5 304 L 254.5 306 L 255.5 304 Z " /><path fill="rgb(0,0,0)" stroke="rgb(0,0,0)" stroke-width="1" opacity="0.8117647058823529" d="M 253.5 307 L 252.5 309 L 253.5 307 Z " /><path fill="rgb(0,0,0)" stroke="rgb(0,0,0)" stroke-width="1" opacity="0.8117647058823529" d="M 251.5 310 L 250.5 312 L 251.5 310 Z " /><path fill="rgb(0,0,0)" stroke="rgb(0,0,0)" stroke-width="1" opacity="0.8117647058823529" d="M 309.5 494 L 311 496.5 L 309 495.5 L 309.5 494 Z " /><path fill="rgb(0,0,0)" stroke="rgb(0,0,0)" stroke-width="1" opacity="0.8117647058823529" d="M 311.5 498 L 312.5 500 L 311.5 498 Z " /><path fill="rgb(0,0,0)" stroke="rgb(0,0,0)" stroke-width="1" opacity="0.8117647058823529" d="M 361.5 498 L 360.5 500 L 361.5 498 Z " /><path fill="rgb(0,0,0)" stroke="rgb(0,0,0)" stroke-width="1" opacity="0.8117647058823529" d="M 314.5 502 L 316.5 505 L 314.5 502 Z " /><path fill="rgb(0,0,0)" stroke="rgb(0,0,0)" stroke-width="1" opacity="0.8117647058823529" d="M 354.5 505 L 353.5 507 L 354.5 505 Z " /><path fill="rgb(0,0,0)" stroke="rgb(0,0,0)" stroke-width="1" opacity="0.8117647058823529" d="M 319.5 506 L 320.5 508 L 319.5 506 Z " /><path fill="rgb(0,0,0)" stroke="rgb(0,0,0)" stroke-width="1" opacity="0.8117647058823529" d="M 351.5 507 L 350.5 509 L 351.5 507 Z " /><path fill="rgb(0,0,0)" stroke="rgb(0,0,0)" stroke-width="1" opacity="0.8117647058823529" d="M 331.5 511 L 334 511.5 L 331.5 512 L 331.5 511 Z " /><path fill="rgb(0,0,0)" stroke="rgb(0,0,0)" stroke-width="1" opacity="0.8117647058823529" d="M 339.5 511 L 342 511.5 L 339.5 512 L 339.5 511 Z " /><path fill="rgb(0,0,0)" stroke="rgb(0,0,0)" stroke-width="1" opacity="1" d="M 480.5 0 L 492.5 2 Q 500.9 5.6 506 12.5 L 511 22.5 L 512 31.5 L 508 47.5 L 498 75.5 L 498 78.5 L 384 429.5 L 375 460.5 L 364 493.5 L 355.5 505 Q 348.3 511.8 334.5 512 L 321.5 508 L 313 500.5 L 308 491.5 L 249 313.5 L 366 146 L 207.5 256 L 198.5 262 L 194.5 262 L 20.5 204 Q 11.5 200.5 6 193.5 L 1 183.5 L 0 173.5 L 3 162.5 L 11.5 152 L 18.5 148 L 48.5 138 L 51.5 138 L 343.5 43 L 374.5 34 L 461.5 5 L 480.5 0 Z " /><path fill="rgb(0,0,0)" stroke="rgb(0,0,0)" stroke-width="1" opacity="0" d="M 0 0 L 476 0.5 L 19.5 147 Q 10.1 150.6 5 158.5 Q 1.3 162.8 0.5 170 L 0 0 Z " /><path fill="rgb(0,0,0)" stroke="rgb(0,0,0)" stroke-width="1" opacity="0" d="M 488.5 0 L 512 0 L 512 23.5 L 511 23.5 Q 508.8 11.7 500.5 6 Q 496.2 1.8 488.5 1 L 488.5 0 Z " /><path fill="rgb(0,0,0)" stroke="rgb(0,0,0)" stroke-width="1" opacity="0" d="M 511.5 36 L 512 512 L 342 511.5 Q 356.1 509.1 362 498.5 L 370 477.5 L 370 474.5 L 380 446.5 L 380 443.5 L 511.5 36 Z " /><path fill="rgb(0,0,0)" stroke="rgb(0,0,0)" stroke-width="1" opacity="0" d="M 364.5 147 L 364 148.5 L 254 305.5 L 249 313.5 L 249 316.5 L 307 490.5 Q 309.9 499.6 316.5 505 Q 321.7 510.3 331 511.5 L 0 512 L 0.5 181 Q 2.3 192.2 9.5 198 L 21.5 205 L 197.5 263 L 364.5 147 Z " /></svg>