<svg width="26" height="26" viewBox="0 0 26 26" fill="none" xmlns="http://www.w3.org/2000/svg">
<path d="M9.75 12.9998C9.75 14.4956 8.53743 15.7082 7.04167 15.7082C5.5459 15.7082 4.33333 14.4956 4.33333 12.9998C4.33333 11.5041 5.5459 10.2915 7.04167 10.2915C8.53743 10.2915 9.75 11.5041 9.75 12.9998Z" stroke="black" stroke-width="1.5"/>
<path d="M15.1667 7.0415L9.75 10.8332" stroke="black" stroke-width="1.5" stroke-linecap="round"/>
<path d="M15.1667 18.9582L9.75 15.1665" stroke="black" stroke-width="1.5" stroke-linecap="round"/>
<path d="M20.5833 20.0418C20.5833 21.5376 19.3708 22.7502 17.875 22.7502C16.3792 22.7502 15.1667 21.5376 15.1667 20.0418C15.1667 18.5461 16.3792 17.3335 17.875 17.3335C19.3708 17.3335 20.5833 18.5461 20.5833 20.0418Z" stroke="black" stroke-width="1.5"/>
<path d="M20.5833 5.95833C20.5833 7.4541 19.3708 8.66667 17.875 8.66667C16.3792 8.66667 15.1667 7.4541 15.1667 5.95833C15.1667 4.46256 16.3792 3.25 17.875 3.25C19.3708 3.25 20.5833 4.46256 20.5833 5.95833Z" stroke="black" stroke-width="1.5"/>
</svg>
