<svg width="23" height="20" viewBox="0 0 23 20" fill="none" xmlns="http://www.w3.org/2000/svg">
<path d="M16.8463 7.17845C17.1518 7.17941 17.4445 7.29669 17.6606 7.50474C17.8767 7.71279 17.9987 7.99473 18 8.28911V12.6376C17.9932 12.9408 17.8736 13.2315 17.663 13.4569C17.4524 13.6823 17.1648 13.8272 16.8526 13.8653L6.19142 14.9313C6.13214 14.9464 6.0711 14.9541 6.00979 14.9542C5.8181 14.9542 5.63426 15.0276 5.49871 15.1583C5.36317 15.2889 5.28702 15.4661 5.28702 15.6508C5.28702 15.8356 5.36317 16.0127 5.49871 16.1434C5.63426 16.274 5.8181 16.3474 6.00979 16.3474H16.6421C16.8292 16.3474 17.0086 16.419 17.1408 16.5465C17.2731 16.6739 17.3474 16.8468 17.3474 17.0271C17.3474 17.2073 17.2731 17.3802 17.1408 17.5077C17.0086 17.6351 16.8292 17.7067 16.6421 17.7067H15.5022C15.7381 17.851 15.919 18.0652 16.0178 18.3171C16.1165 18.569 16.1277 18.845 16.0498 19.1035C15.9718 19.3621 15.8089 19.5893 15.5854 19.7509C15.362 19.9126 15.0902 20 14.8108 20C14.5314 20 14.2596 19.9126 14.0362 19.7509C13.8127 19.5893 13.6498 19.3621 13.5718 19.1035C13.4939 18.845 13.5051 18.569 13.6038 18.3171C13.7026 18.0652 13.8835 17.851 14.1193 17.7067H7.57308C7.80895 17.851 7.98985 18.0652 8.08858 18.3171C8.18732 18.569 8.19855 18.845 8.12059 19.1035C8.04262 19.3621 7.87969 19.5893 7.65626 19.7509C7.43284 19.9126 7.16101 20 6.88162 20C6.60224 20 6.3304 19.9126 6.10698 19.7509C5.88356 19.5893 5.72062 19.3621 5.64266 19.1035C5.5647 18.845 5.57593 18.569 5.67466 18.3171C5.77339 18.0652 5.95429 17.851 6.19017 17.7067H6.00854C5.7284 17.7067 5.451 17.6536 5.19218 17.5502C4.93337 17.4469 4.6982 17.2955 4.50011 17.1046C4.30202 16.9137 4.14489 16.687 4.03768 16.4376C3.93048 16.1882 3.8753 15.9208 3.8753 15.6508C3.8753 15.3808 3.93048 15.1135 4.03768 14.8641C4.14489 14.6146 4.30202 14.388 4.50011 14.1971C4.6982 14.0062 4.93337 13.8547 5.19218 13.7514C5.451 13.6481 5.7284 13.5949 6.00854 13.5949C6.06246 13.5948 6.11624 13.6005 6.16887 13.6118L2.89073 6.35874H0.734948C0.639918 6.3626 0.54506 6.3479 0.45608 6.31552C0.367099 6.28313 0.285835 6.23373 0.217177 6.17029C0.148519 6.10686 0.093885 6.03069 0.0565625 5.94637C0.01924 5.86206 0 5.77134 0 5.67967C0 5.58801 0.01924 5.49729 0.0565625 5.41297C0.093885 5.32866 0.148519 5.25249 0.217177 5.18905C0.285835 5.12561 0.367099 5.07622 0.45608 5.04383C0.54506 5.01144 0.639918 4.99674 0.734948 5.0006H3.35295C3.48989 5.0006 3.62385 5.03909 3.73843 5.11135C3.85301 5.18361 3.94324 5.28651 3.99806 5.40744L4.79975 7.17725L16.8463 7.17845Z" fill="#808080"/>
<path fill-rule="evenodd" clip-rule="evenodd" d="M15.9678 10.2916C15.7742 10.2916 15.6091 10.1479 15.5775 9.95202C15.5485 9.79353 15.4372 9.66402 15.2876 9.61456C15.1656 9.57161 15.0464 9.52096 14.9306 9.4629C14.7927 9.39058 14.6274 9.40142 14.4996 9.49106C14.345 9.60508 14.1326 9.58742 13.9979 9.44935L13.474 8.91202C13.333 8.76739 13.3147 8.53941 13.4307 8.37306C13.5202 8.239 13.5331 8.06615 13.4645 7.91969C13.4193 7.81796 13.3795 7.7138 13.3451 7.60769C13.296 7.44047 13.1602 7.31524 12.9929 7.28269C12.7911 7.24965 12.6422 7.07192 12.6406 6.86235V6.19015C12.6396 5.94862 12.8097 5.74202 13.042 5.70265C13.2183 5.66825 13.3655 5.54442 13.4328 5.37385C13.4529 5.32582 13.474 5.27816 13.4962 5.23085C13.5858 5.05397 13.5734 4.84091 13.464 4.67619C13.3271 4.48112 13.3481 4.21311 13.5136 4.04298L13.8986 3.6481C14.0885 3.45328 14.388 3.42806 14.6063 3.58852L14.6185 3.59719C14.7815 3.70972 14.9889 3.73011 15.1698 3.65135C15.3633 3.57991 15.506 3.40936 15.5453 3.20231L15.5506 3.1839C15.5941 2.9098 15.8249 2.70843 16.0956 2.70831H16.5604C16.8384 2.70818 17.0757 2.91446 17.1212 3.19581L17.1297 3.23373C17.167 3.43207 17.3023 3.59622 17.4867 3.66706C17.6645 3.74532 17.8689 3.72488 18.0286 3.6129L18.055 3.5934C18.2789 3.42783 18.5869 3.45329 18.7822 3.65352L19.1366 4.01752C19.3142 4.20069 19.3365 4.48873 19.1894 4.6984C19.0741 4.87364 19.0594 5.09882 19.1508 5.28827L19.1736 5.34244C19.2475 5.52742 19.4077 5.66148 19.5992 5.69885C19.8495 5.74072 20.0336 5.96205 20.0344 6.2221V6.82498C20.0343 7.05432 19.8726 7.24997 19.652 7.28756C19.4706 7.32326 19.3228 7.45797 19.267 7.63856C19.2423 7.71077 19.2149 7.78302 19.1846 7.85523C19.1141 8.01394 19.1298 8.19886 19.2258 8.34273C19.3525 8.52354 19.3329 8.77189 19.1794 8.92935L18.6877 9.43419C18.5471 9.57838 18.3253 9.59696 18.1638 9.47806C18.0289 9.38354 17.8542 9.37314 17.7096 9.45098C17.6065 9.50336 17.5007 9.54983 17.3927 9.59019C17.2416 9.64365 17.1303 9.77625 17.1012 9.9374C17.0704 10.1401 16.9009 10.2901 16.7008 10.2916H15.9678Z" fill="#808080" stroke="white" stroke-width="0.5" stroke-linecap="round" stroke-linejoin="round"/>
<path fill-rule="evenodd" clip-rule="evenodd" d="M17.5697 6.49998C17.5697 7.19792 17.0181 7.76369 16.3376 7.76369C15.6571 7.76369 15.1055 7.19792 15.1055 6.49998C15.1055 5.80204 15.6571 5.23627 16.3376 5.23627C17.0181 5.23627 17.5697 5.80204 17.5697 6.49998Z" fill="white"/>
</svg>
