<svg width="30" height="30" viewBox="0 0 30 30" fill="none" xmlns="http://www.w3.org/2000/svg">
<g clip-path="url(#clip0_139_1310)">
<path opacity="0.768627" d="M3.25195 1.875L3.45703 1.9043L3.25195 1.93359V1.875Z" fill="black" stroke="black"/>
<path opacity="0.768627" d="M26.5723 1.875L26.8359 1.9043L26.5723 1.93359V1.875Z" fill="black" stroke="black"/>
<path opacity="0.768627" d="M2.43164 2.22656L2.37305 2.34375" stroke="black"/>
<path opacity="0.768627" d="M27.5684 2.22656L27.627 2.34375" stroke="black"/>
<path opacity="0.768627" d="M2.13867 2.51953L2.02148 2.69531" stroke="black"/>
<path opacity="0.768627" d="M27.9199 2.57812L27.9785 2.69531" stroke="black"/>
<path opacity="0.768627" d="M1.96289 2.75391L1.9043 2.87109" stroke="black"/>
<path opacity="0.768627" d="M28.0371 2.75391L28.0957 2.87109" stroke="black"/>
<path opacity="0.768627" d="M0.0292969 10.0781L0.0585938 10.2246H0L0.0292969 10.0781Z" fill="black" stroke="black"/>
<path opacity="0.768627" d="M29.9707 10.0781L30 10.2246H29.9414L29.9707 10.0781Z" fill="black" stroke="black"/>
<path opacity="0.768627" d="M0.0292969 10.4297L0.0585938 10.8691H0L0.0292969 10.4297Z" fill="black" stroke="black"/>
<path opacity="0.768627" d="M29.9707 10.4297L30 10.8691H29.9414L29.9707 10.4297Z" fill="black" stroke="black"/>
<path opacity="0.768627" d="M0.0878906 11.0742L0.117188 11.2207H0.0585938L0.0878906 11.0742Z" fill="black" stroke="black"/>
<path opacity="0.768627" d="M29.9121 11.0742L29.9414 11.2207H29.8828L29.9121 11.0742Z" fill="black" stroke="black"/>
<path opacity="0.768627" d="M0.146484 11.3672L0.175781 11.5137H0.117188L0.146484 11.3672Z" fill="black" stroke="black"/>
<path opacity="0.768627" d="M29.8535 11.3672L29.8828 11.5137H29.8242L29.8535 11.3672Z" fill="black" stroke="black"/>
<path opacity="0.768627" d="M0.615234 12.6562L0.673828 12.7734" stroke="black"/>
<path opacity="0.768627" d="M29.3848 12.6562L29.3262 12.7734" stroke="black"/>
<path opacity="0.768627" d="M0.791016 12.9492L0.849609 13.0664" stroke="black"/>
<path opacity="0.768627" d="M29.209 12.9492L29.1504 13.0664" stroke="black"/>
<path opacity="0.768627" d="M0.966797 13.1836L1.02539 13.3008" stroke="black"/>
<path opacity="0.768627" d="M7.93945 13.1836L8.08594 13.2715L7.99805 13.2422L7.88086 13.3008L7.93945 13.1836Z" fill="black" stroke="black"/>
<path opacity="0.768627" d="M14.9707 13.1836L15.1172 13.2715L15.0293 13.2422L14.9121 13.3008L14.9707 13.1836Z" fill="black" stroke="black"/>
<path opacity="0.768627" d="M22.002 13.1836L22.1484 13.2715L22.0605 13.2422L21.9434 13.3008L22.002 13.1836Z" fill="black" stroke="black"/>
<path opacity="0.768627" d="M29.0332 13.1836L28.9746 13.3008" stroke="black"/>
<path opacity="0.768627" d="M1.20117 13.4766L1.61133 13.9453" stroke="black"/>
<path opacity="0.768627" d="M7.70508 13.4766L7.29492 13.9453" stroke="black"/>
<path opacity="0.768627" d="M8.23242 13.4766L8.64258 13.9453" stroke="black"/>
<path opacity="0.768627" d="M14.7363 13.4766L14.3262 13.9453" stroke="black"/>
<path opacity="0.768627" d="M15.2637 13.4766L15.6738 13.9453" stroke="black"/>
<path opacity="0.768627" d="M21.7676 13.4766L21.3574 13.9453" stroke="black"/>
<path opacity="0.768627" d="M22.2949 13.4766L22.7051 13.9453" stroke="black"/>
<path opacity="0.768627" d="M28.7988 13.4766L28.3887 13.9453" stroke="black"/>
<path opacity="0.768627" d="M1.78711 14.0039L1.9043 14.1797" stroke="black"/>
<path opacity="0.768627" d="M7.11914 14.0039L7.00195 14.1797" stroke="black"/>
<path opacity="0.768627" d="M8.81836 14.0039L8.93555 14.1797" stroke="black"/>
<path opacity="0.768627" d="M14.1504 14.0039L14.0332 14.1797" stroke="black"/>
<path opacity="0.768627" d="M15.8496 14.0039L15.9668 14.1797" stroke="black"/>
<path opacity="0.768627" d="M21.1816 14.0039L21.0645 14.1797" stroke="black"/>
<path opacity="0.768627" d="M22.8809 14.0039L22.998 14.1797" stroke="black"/>
<path opacity="0.768627" d="M28.2129 14.0039L28.0957 14.1797" stroke="black"/>
<path opacity="0.768627" d="M2.02148 14.1797L2.08008 14.2969" stroke="black"/>
<path opacity="0.768627" d="M27.9785 14.1797L27.9199 14.2969" stroke="black"/>
<path opacity="0.768627" d="M2.19727 14.2969L2.25586 14.4141" stroke="black"/>
<path opacity="0.768627" d="M6.70898 14.2969L6.65039 14.4141" stroke="black"/>
<path opacity="0.768627" d="M9.22852 14.2969L9.28711 14.4141" stroke="black"/>
<path opacity="0.768627" d="M13.7402 14.2969L13.6816 14.4141" stroke="black"/>
<path opacity="0.768627" d="M16.2598 14.2969L16.3184 14.4141" stroke="black"/>
<path opacity="0.768627" d="M20.7715 14.2969L20.7129 14.4141" stroke="black"/>
<path opacity="0.768627" d="M23.291 14.2969L23.3496 14.4141" stroke="black"/>
<path opacity="0.768627" d="M27.8027 14.2969L27.7441 14.4141" stroke="black"/>
<path opacity="0.768627" d="M3.60352 14.8828L3.75 14.9121L3.60352 14.9414V14.8828Z" fill="black" stroke="black"/>
<path opacity="0.768627" d="M5.18555 14.8828L5.33203 14.9121L5.18555 14.9414V14.8828Z" fill="black" stroke="black"/>
<path opacity="0.768627" d="M10.6348 14.8828L10.7812 14.9121L10.6348 14.9414V14.8828Z" fill="black" stroke="black"/>
<path opacity="0.768627" d="M12.2168 14.8828L12.3633 14.9121L12.2168 14.9414V14.8828Z" fill="black" stroke="black"/>
<path opacity="0.768627" d="M17.666 14.8828L17.8125 14.9121L17.666 14.9414V14.8828Z" fill="black" stroke="black"/>
<path opacity="0.768627" d="M19.248 14.8828L19.3945 14.9121L19.248 14.9414V14.8828Z" fill="black" stroke="black"/>
<path opacity="0.768627" d="M24.6973 14.8828L24.8438 14.9121L24.6973 14.9414V14.8828Z" fill="black" stroke="black"/>
<path opacity="0.768627" d="M26.2793 14.8828L26.4258 14.9121L26.2793 14.9414V14.8828Z" fill="black" stroke="black"/>
<path opacity="0.768627" d="M3.95508 14.9414L4.33594 14.9707L3.95508 15V14.9414Z" fill="black" stroke="black"/>
<path opacity="0.768627" d="M4.59961 14.9414L4.98047 14.9707L4.59961 15V14.9414Z" fill="black" stroke="black"/>
<path opacity="0.768627" d="M10.9863 14.9414L11.3672 14.9707L10.9863 15V14.9414Z" fill="black" stroke="black"/>
<path opacity="0.768627" d="M11.6309 14.9414L12.0117 14.9707L11.6309 15V14.9414Z" fill="black" stroke="black"/>
<path opacity="0.768627" d="M18.0176 14.9414L18.3984 14.9707L18.0176 15V14.9414Z" fill="black" stroke="black"/>
<path opacity="0.768627" d="M18.6621 14.9414L19.043 14.9707L18.6621 15V14.9414Z" fill="black" stroke="black"/>
<path opacity="0.768627" d="M25.0488 14.9414L25.4297 14.9707L25.0488 15V14.9414Z" fill="black" stroke="black"/>
<path opacity="0.768627" d="M25.6934 14.9414L26.0742 14.9707L25.6934 15V14.9414Z" fill="black" stroke="black"/>
<path opacity="0.768627" d="M7.93945 15.7617L8.08594 15.8496L7.99805 15.8203L7.88086 15.8789L7.93945 15.7617Z" fill="black" stroke="black"/>
<path opacity="0.768627" d="M14.9707 15.7617L15.1172 15.8496L15.0293 15.8203L14.9121 15.8789L14.9707 15.7617Z" fill="black" stroke="black"/>
<path opacity="0.768627" d="M22.002 15.7617L22.1484 15.8496L22.0605 15.8203L21.9434 15.8789L22.002 15.7617Z" fill="black" stroke="black"/>
<path opacity="0.768627" d="M7.23633 16.1719L7.17773 16.2891L7.08984 16.2598L7.23633 16.1719Z" fill="black" stroke="black"/>
<path opacity="0.768627" d="M22.7637 16.1719L22.9102 16.2598L22.8223 16.2891L22.7637 16.1719Z" fill="black" stroke="black"/>
<path opacity="0.768627" d="M3.07617 16.6992L3.22266 16.7285L3.07617 16.7578V16.6992Z" fill="black" stroke="black"/>
<path opacity="0.768627" d="M26.8066 16.6992L26.9531 16.7285L26.8066 16.7578V16.6992Z" fill="black" stroke="black"/>
<path opacity="0.768627" d="M3.36914 16.7578L3.51562 16.7871L3.36914 16.8164V16.7578Z" fill="black" stroke="black"/>
<path opacity="0.768627" d="M10.5176 16.7578L10.7227 16.7871L10.5176 16.8164V16.7578Z" fill="black" stroke="black"/>
<path opacity="0.768627" d="M12.2754 16.7578L12.4805 16.7871L12.2754 16.8164V16.7578Z" fill="black" stroke="black"/>
<path opacity="0.768627" d="M17.5488 16.7578L17.7539 16.7871L17.5488 16.8164V16.7578Z" fill="black" stroke="black"/>
<path opacity="0.768627" d="M19.3066 16.7578L19.5117 16.7871L19.3066 16.8164V16.7578Z" fill="black" stroke="black"/>
<path opacity="0.768627" d="M26.5137 16.7578L26.6602 16.7871L26.5137 16.8164V16.7578Z" fill="black" stroke="black"/>
<path opacity="0.768627" d="M3.7207 16.8164L4.10156 16.8457L3.7207 16.875V16.8164Z" fill="black" stroke="black"/>
<path opacity="0.768627" d="M5.00977 16.8164L5.21484 16.8457L5.00977 16.875V16.8164Z" fill="black" stroke="black"/>
<path opacity="0.768627" d="M11.0449 16.8164L11.9531 16.8457L11.0449 16.875V16.8164Z" fill="black" stroke="black"/>
<path opacity="0.768627" d="M18.0762 16.8164L18.9844 16.8457L18.0762 16.875V16.8164Z" fill="black" stroke="black"/>
<path opacity="0.768627" d="M24.8145 16.8164L25.0195 16.8457L24.8145 16.875V16.8164Z" fill="black" stroke="black"/>
<path opacity="0.768627" d="M25.9277 16.8164L26.3086 16.8457L25.9277 16.875V16.8164Z" fill="black" stroke="black"/>
<path opacity="0.768627" d="M1.9043 26.3086L1.93359 26.5723H1.875L1.9043 26.3086Z" fill="black" stroke="black"/>
<path opacity="0.768627" d="M28.0957 26.3086L28.125 26.5723H28.0664L28.0957 26.3086Z" fill="black" stroke="black"/>
<path opacity="0.768627" d="M2.02148 26.8945L2.10938 27.041L1.99219 26.9824L2.02148 26.8945Z" fill="black" stroke="black"/>
<path opacity="0.768627" d="M27.9785 26.8945L28.0078 26.9824L27.8906 27.041L27.9785 26.8945Z" fill="black" stroke="black"/>
<path opacity="0.768627" d="M2.37305 27.4805L2.49023 27.6562" stroke="black"/>
<path opacity="0.768627" d="M27.627 27.4805L27.5098 27.6562" stroke="black"/>
<path opacity="0.768627" d="M2.95898 27.8906L3.10547 27.9785L3.01758 28.0078L2.95898 27.8906Z" fill="black" stroke="black"/>
<path opacity="0.768627" d="M27.041 27.8906L26.9824 28.0078L26.8945 27.9785L27.041 27.8906Z" fill="black" stroke="black"/>
<path opacity="0.768627" d="M3.42773 28.0664L3.69141 28.0957L3.42773 28.125V28.0664Z" fill="black" stroke="black"/>
<path opacity="0.768627" d="M26.3379 28.0664L26.6016 28.0957L26.3379 28.125V28.0664Z" fill="black" stroke="black"/>
<path d="M3.48633 1.875H26.5137L27.0996 1.99219C27.4238 2.11719 27.6875 2.30273 27.8906 2.54883L28.2422 3.19336L30 10.4004L29.9414 10.459V11.0449L29.8242 11.6309L29.5898 12.2754C29.2734 12.9746 28.834 13.5508 28.2715 14.0039C27.8887 14.3242 27.4395 14.5781 26.9238 14.7656L26.2207 14.9414L25.459 15L25.4004 14.9414H24.873L24.3457 14.8242L23.4082 14.4141C22.9199 14.1211 22.5 13.7598 22.1484 13.3301L22.0605 13.1836L21.9141 13.2715L21.2402 14.0039L20.0684 14.707L19.1895 14.9414L18.4277 15L18.3691 14.9414H17.8418L17.3145 14.8242L16.377 14.4141C15.8887 14.1211 15.4688 13.7598 15.1172 13.3301L15.0293 13.1836L14.8828 13.2715L14.209 14.0039L13.0371 14.707L12.1582 14.9414L11.3965 15L11.3379 14.9414H10.8105L10.2832 14.8242L9.3457 14.4141C8.85742 14.1211 8.4375 13.7598 8.08594 13.3301L7.99805 13.1836L7.85156 13.2715L7.17773 14.0039L6.00586 14.707L5.12695 14.9414L4.36523 15L4.30664 14.9414H3.7793L3.25195 14.8242L2.31445 14.4141C1.82617 14.1211 1.40625 13.7598 1.05469 13.3301C0.738281 12.9434 0.484375 12.4941 0.292969 11.9824L0.0585938 11.0449C0.109375 10.7246 0.0898437 10.4707 0 10.2832L1.75781 3.19336C1.87109 2.83789 2.05664 2.55469 2.31445 2.34375L2.90039 1.99219L3.48633 1.875Z" fill="black" stroke="black"/>
<path d="M7.93945 15.8203L9.05273 16.4062L9.93164 16.6992L10.5176 16.8164H10.9863L11.0449 16.875H11.9238L11.9824 16.8164H12.4512L13.0371 16.6992L13.623 16.5234L15.0293 15.8203C15.5723 16.2148 16.2168 16.5078 16.9629 16.6992L17.5488 16.8164H18.0176L18.0762 16.875H18.9551L19.0137 16.8164H19.4824L20.0684 16.6992L20.6543 16.5234L22.0605 15.8203L22.8223 16.2891L23.7012 16.6406L24.8145 16.875H26.2793L27.334 16.6406L28.125 16.3477V26.2793C28.0273 26.3379 28.0078 26.4746 28.0664 26.6895L27.7734 27.334L27.334 27.7734L26.8652 28.0078L26.2793 28.125H18.75V20.625H11.25V28.125H3.7207C3.66211 28.0273 3.52539 28.0078 3.31055 28.0664L2.66602 27.7734L2.22656 27.334L1.99219 26.8652L1.875 26.2793V16.3477L2.66602 16.6406L3.7207 16.875H5.18555L6.29883 16.6406L6.76758 16.4648L7.93945 15.8203Z" fill="black" stroke="black"/>
</g>
<defs>
<clipPath id="clip0_139_1310">
<rect width="30" height="30" fill="white"/>
</clipPath>
</defs>
</svg>
