<svg width="512" height="512" version="1.1" xmlns="http://www.w3.org/2000/svg" desc="Created with imagetracer.js version 1.2.6" ><path fill="rgb(0,0,0)" stroke="rgb(0,0,0)" stroke-width="1" opacity="0" d="M 0 0 L 512 0 L 512 512 L 0 512 L 0 0 Z M 103 21 Q 92 23 86 28 Q 74 36 71 52 L 71 461 L 77 476 Q 85 488 103 491 L 410 491 Q 420 489 427 484 Q 438 476 441 461 L 441 52 L 435 37 Q 427 24 410 21 L 103 21 Z " /><path fill="rgb(0,0,0)" stroke="rgb(0,0,0)" stroke-width="1" opacity="0" d="M 238.5 64 L 273.5 64 Q 283.5 66 288 73.5 L 291 79.5 L 291 97.5 L 292.5 99 L 301.5 103 L 317.5 89 Q 323 86.5 332.5 88 L 338.5 91 L 365 117.5 L 368 126.5 L 368 131.5 Q 363.6 146.1 352 153.5 L 357.5 164 L 375.5 164 Q 383.6 166.9 388 173.5 L 391 180.5 L 391 217.5 L 384.5 229 L 375.5 234 L 356 235 L 352 244.5 L 365 258.5 L 368 266.5 L 368 272.5 L 362 284.5 L 341.5 305 Q 335.8 310.8 324.5 311 L 315.5 308 L 302.5 296 L 299.5 296 L 291 300.5 L 291 318.5 L 284.5 329 L 274.5 334 L 237.5 334 L 226 327.5 L 221 318.5 L 221 300.5 L 219.5 299 L 209.5 296 L 196.5 308 L 187.5 311 L 183.5 311 Q 175.3 309.7 170.5 305 L 150 284.5 Q 143.5 279 144 266.5 L 147 258.5 L 160 244.5 L 156 235 L 136.5 234 L 126 227.5 L 121 217.5 L 121 180.5 Q 123.4 171.4 130.5 167 L 136.5 164 L 154.5 164 L 156 162.5 L 160 153.5 L 147 139.5 L 144 131.5 L 144 126.5 L 147 117.5 L 173.5 91 Q 179 86 191.5 88 Q 203.4 93.1 210.5 103 L 221 97.5 L 221 79.5 Q 223.9 71.4 230.5 67 L 238.5 64 Z M 254 156 L 242 159 L 234 164 L 224 176 L 220 190 Q 220 206 228 215 L 240 224 L 254 228 Q 270 228 279 220 L 288 209 L 292 195 Q 292 178 284 170 L 271 159 L 265 157 L 254 156 Z " /><path fill="rgb(0,0,0)" stroke="rgb(0,0,0)" stroke-width="1" opacity="0" d="M 120.5 341 L 185.5 341 L 191 344.5 L 192 350.5 L 189.5 354 L 187.5 355 L 117.5 355 Q 113.1 353.4 114 346.5 L 117.5 342 L 120.5 341 Z " /><path fill="rgb(0,0,0)" stroke="rgb(0,0,0)" stroke-width="1" opacity="0" d="M 326.5 341 L 391.5 341 L 397 344.5 L 398 350.5 L 394.5 355 L 324.5 355 L 321 352.5 L 320 346.5 L 323.5 342 L 326.5 341 Z " /><path fill="rgb(0,0,0)" stroke="rgb(0,0,0)" stroke-width="1" opacity="0" d="M 118.5 363 L 187.5 363 L 191 366.5 L 192 371.5 L 188.5 376 L 186.5 377 L 119.5 377 L 114 372.5 Q 113 366 116.5 364 L 118.5 363 Z " /><path fill="rgb(0,0,0)" stroke="rgb(0,0,0)" stroke-width="1" opacity="0" d="M 324.5 363 L 393.5 363 L 397 365.5 L 398 372.5 L 392.5 377 L 325.5 377 L 321 373.5 L 320 368.5 L 324.5 363 Z " /><path fill="rgb(0,0,0)" stroke="rgb(0,0,0)" stroke-width="1" opacity="0" d="M 137.5 400 L 147.5 400 L 157 407.5 Q 160.3 412.2 159 421.5 L 153 430.5 L 155.5 434 L 157.5 434 L 188.5 403 L 195.5 403 Q 199.9 404.6 199 411.5 L 166.5 445 Q 162.4 448.9 153.5 448 Q 145.9 446.1 142 440.5 Q 139 436.5 139 429.5 Q 140.1 422.1 145 418.5 L 145 415.5 Q 144.3 413.3 140.5 414 L 117.5 437 L 112.5 438 L 107 433.5 L 108 426.5 L 131.5 403 L 137.5 400 Z " /><path fill="rgb(0,0,0)" stroke="rgb(0,0,0)" stroke-width="1" opacity="0" d="M 343.5 400 L 353.5 400 L 363 407.5 Q 366.7 411.8 365 421.5 L 360 429.5 L 360 432.5 L 363.5 434 L 393.5 404 L 401.5 403 Q 406.5 404.5 405 412.5 L 372.5 445 Q 368.4 448.9 359.5 448 Q 352.6 446.5 349 441.5 Q 344.3 436.7 346 425.5 L 351 418.5 L 351 414 L 346.5 414 L 323.5 437 L 318.5 438 L 314 434.5 L 313 428.5 L 337.5 403 L 343.5 400 Z " /><path fill="rgb(0,0,0)" stroke="rgb(0,0,0)" stroke-width="1" opacity="0.788235294117647" d="M 102.5 21 L 410 21.5 L 102.5 22 L 102.5 21 Z " /><path fill="rgb(0,0,0)" stroke="rgb(0,0,0)" stroke-width="1" opacity="0.788235294117647" d="M 85.5 28 L 84.5 30 L 85.5 28 Z " /><path fill="rgb(0,0,0)" stroke="rgb(0,0,0)" stroke-width="1" opacity="0.788235294117647" d="M 426.5 28 L 427.5 30 L 426.5 28 Z " /><path fill="rgb(0,0,0)" stroke="rgb(0,0,0)" stroke-width="1" opacity="0.788235294117647" d="M 79.5 34 L 77.5 37 L 79.5 34 Z " /><path fill="rgb(0,0,0)" stroke="rgb(0,0,0)" stroke-width="1" opacity="0.788235294117647" d="M 432.5 34 L 434.5 37 L 432.5 34 Z " /><path fill="rgb(0,0,0)" stroke="rgb(0,0,0)" stroke-width="1" opacity="0.788235294117647" d="M 71.5 51 L 72 460.5 L 71 460.5 L 71.5 51 Z " /><path fill="rgb(0,0,0)" stroke="rgb(0,0,0)" stroke-width="1" opacity="0.788235294117647" d="M 440.5 51 L 441 460.5 L 440 460.5 L 440.5 51 Z " /><path fill="rgb(0,0,0)" stroke="rgb(0,0,0)" stroke-width="1" opacity="0.788235294117647" d="M 229.5 67 L 224.5 73 L 229.5 67 Z " /><path fill="rgb(0,0,0)" stroke="rgb(0,0,0)" stroke-width="1" opacity="0.788235294117647" d="M 282.5 67 L 287.5 73 L 282.5 67 Z " /><path fill="rgb(0,0,0)" stroke="rgb(0,0,0)" stroke-width="1" opacity="0.788235294117647" d="M 223.5 74 L 222.5 76 L 223.5 74 Z " /><path fill="rgb(0,0,0)" stroke="rgb(0,0,0)" stroke-width="1" opacity="0.788235294117647" d="M 288.5 74 L 290 76.5 L 289 76.5 L 288.5 74 Z " /><path fill="rgb(0,0,0)" stroke="rgb(0,0,0)" stroke-width="1" opacity="0.788235294117647" d="M 220.5 81 L 221 97.5 L 220 97.5 L 220.5 81 Z " /><path fill="rgb(0,0,0)" stroke="rgb(0,0,0)" stroke-width="1" opacity="0.788235294117647" d="M 291.5 81 L 292 97.5 L 291 97.5 L 291.5 81 Z " /><path fill="rgb(0,0,0)" stroke="rgb(0,0,0)" stroke-width="1" opacity="0.788235294117647" d="M 181.5 87 L 190 87.5 L 181.5 88 L 181.5 87 Z " /><path fill="rgb(0,0,0)" stroke="rgb(0,0,0)" stroke-width="1" opacity="0.788235294117647" d="M 322.5 87 L 331 87.5 L 322.5 88 L 322.5 87 Z " /><path fill="rgb(0,0,0)" stroke="rgb(0,0,0)" stroke-width="1" opacity="0.788235294117647" d="M 194.5 89 L 197 90.5 L 195.5 90 L 194.5 89 Z " /><path fill="rgb(0,0,0)" stroke="rgb(0,0,0)" stroke-width="1" opacity="0.788235294117647" d="M 316.5 89 L 315.5 91 L 316.5 89 Z " /><path fill="rgb(0,0,0)" stroke="rgb(0,0,0)" stroke-width="1" opacity="0.788235294117647" d="M 172.5 91 L 148.5 116 L 172.5 91 Z " /><path fill="rgb(0,0,0)" stroke="rgb(0,0,0)" stroke-width="1" opacity="0.788235294117647" d="M 198.5 91 L 199.5 93 L 198.5 91 Z " /><path fill="rgb(0,0,0)" stroke="rgb(0,0,0)" stroke-width="1" opacity="0.788235294117647" d="M 313.5 91 L 312.5 93 L 313.5 91 Z " /><path fill="rgb(0,0,0)" stroke="rgb(0,0,0)" stroke-width="1" opacity="0.788235294117647" d="M 339.5 91 L 363.5 116 L 339.5 91 Z " /><path fill="rgb(0,0,0)" stroke="rgb(0,0,0)" stroke-width="1" opacity="0.788235294117647" d="M 144.5 123 L 145 125.5 L 144 125.5 L 144.5 123 Z " /><path fill="rgb(0,0,0)" stroke="rgb(0,0,0)" stroke-width="1" opacity="0.788235294117647" d="M 367.5 123 L 368 125.5 L 367 125.5 L 367.5 123 Z " /><path fill="rgb(0,0,0)" stroke="rgb(0,0,0)" stroke-width="1" opacity="0.788235294117647" d="M 147.5 140 L 148.5 142 L 147.5 140 Z " /><path fill="rgb(0,0,0)" stroke="rgb(0,0,0)" stroke-width="1" opacity="0.788235294117647" d="M 364.5 140 L 363.5 142 L 364.5 140 Z " /><path fill="rgb(0,0,0)" stroke="rgb(0,0,0)" stroke-width="1" opacity="0.788235294117647" d="M 253.5 156 L 259 156.5 L 253.5 157 L 253.5 156 Z " /><path fill="rgb(0,0,0)" stroke="rgb(0,0,0)" stroke-width="1" opacity="0.788235294117647" d="M 239.5 160 L 238.5 162 L 239.5 160 Z " /><path fill="rgb(0,0,0)" stroke="rgb(0,0,0)" stroke-width="1" opacity="0.788235294117647" d="M 272.5 160 L 273.5 162 L 272.5 160 Z " /><path fill="rgb(0,0,0)" stroke="rgb(0,0,0)" stroke-width="1" opacity="0.788235294117647" d="M 155.5 162 L 154.5 164 L 139 163.5 L 154.5 163 L 155.5 162 Z " /><path fill="rgb(0,0,0)" stroke="rgb(0,0,0)" stroke-width="1" opacity="0.788235294117647" d="M 356.5 162 L 357.5 163 L 373 163.5 L 357.5 164 L 356.5 162 Z " /><path fill="rgb(0,0,0)" stroke="rgb(0,0,0)" stroke-width="1" opacity="0.788235294117647" d="M 233.5 164 L 228.5 170 L 233.5 164 Z " /><path fill="rgb(0,0,0)" stroke="rgb(0,0,0)" stroke-width="1" opacity="0.788235294117647" d="M 278.5 164 L 283.5 170 L 278.5 164 Z " /><path fill="rgb(0,0,0)" stroke="rgb(0,0,0)" stroke-width="1" opacity="0.788235294117647" d="M 129.5 167 L 124.5 173 L 129.5 167 Z " /><path fill="rgb(0,0,0)" stroke="rgb(0,0,0)" stroke-width="1" opacity="0.788235294117647" d="M 382.5 167 L 387.5 173 L 382.5 167 Z " /><path fill="rgb(0,0,0)" stroke="rgb(0,0,0)" stroke-width="1" opacity="0.788235294117647" d="M 225.5 174 L 224.5 176 L 225.5 174 Z " /><path fill="rgb(0,0,0)" stroke="rgb(0,0,0)" stroke-width="1" opacity="0.788235294117647" d="M 286.5 174 L 287.5 176 L 286.5 174 Z " /><path fill="rgb(0,0,0)" stroke="rgb(0,0,0)" stroke-width="1" opacity="0.788235294117647" d="M 120.5 185 L 121 212.5 L 120 212.5 L 120.5 185 Z " /><path fill="rgb(0,0,0)" stroke="rgb(0,0,0)" stroke-width="1" opacity="0.788235294117647" d="M 391.5 185 L 392 212.5 L 391 212.5 L 391.5 185 Z " /><path fill="rgb(0,0,0)" stroke="rgb(0,0,0)" stroke-width="1" opacity="0.788235294117647" d="M 220.5 189 L 221 194.5 L 220 194.5 L 220.5 189 Z " /><path fill="rgb(0,0,0)" stroke="rgb(0,0,0)" stroke-width="1" opacity="0.788235294117647" d="M 291.5 189 L 292 194.5 L 291 194.5 L 291.5 189 Z " /><path fill="rgb(0,0,0)" stroke="rgb(0,0,0)" stroke-width="1" opacity="0.788235294117647" d="M 224.5 208 L 225.5 210 L 224.5 208 Z " /><path fill="rgb(0,0,0)" stroke="rgb(0,0,0)" stroke-width="1" opacity="0.788235294117647" d="M 287.5 208 L 286.5 210 L 287.5 208 Z " /><path fill="rgb(0,0,0)" stroke="rgb(0,0,0)" stroke-width="1" opacity="0.788235294117647" d="M 228.5 214 L 233.5 220 L 228.5 214 Z " /><path fill="rgb(0,0,0)" stroke="rgb(0,0,0)" stroke-width="1" opacity="0.788235294117647" d="M 283.5 214 L 278.5 220 L 283.5 214 Z " /><path fill="rgb(0,0,0)" stroke="rgb(0,0,0)" stroke-width="1" opacity="0.788235294117647" d="M 238.5 222 L 239.5 224 L 238.5 222 Z " /><path fill="rgb(0,0,0)" stroke="rgb(0,0,0)" stroke-width="1" opacity="0.788235294117647" d="M 273.5 222 L 272.5 224 L 273.5 222 Z " /><path fill="rgb(0,0,0)" stroke="rgb(0,0,0)" stroke-width="1" opacity="0.788235294117647" d="M 124.5 225 L 125.5 227 L 124.5 225 Z " /><path fill="rgb(0,0,0)" stroke="rgb(0,0,0)" stroke-width="1" opacity="0.788235294117647" d="M 387.5 225 L 386.5 227 L 387.5 225 Z " /><path fill="rgb(0,0,0)" stroke="rgb(0,0,0)" stroke-width="1" opacity="0.788235294117647" d="M 253.5 227 L 259 227.5 L 253.5 228 L 253.5 227 Z " /><path fill="rgb(0,0,0)" stroke="rgb(0,0,0)" stroke-width="1" opacity="0.788235294117647" d="M 383.5 229 L 381.5 232 L 383.5 229 Z " /><path fill="rgb(0,0,0)" stroke="rgb(0,0,0)" stroke-width="1" opacity="0.788235294117647" d="M 129.5 230 L 130.5 232 L 129.5 230 Z " /><path fill="rgb(0,0,0)" stroke="rgb(0,0,0)" stroke-width="1" opacity="0.788235294117647" d="M 137.5 234 L 141 234.5 L 137.5 235 L 137.5 234 Z " /><path fill="rgb(0,0,0)" stroke="rgb(0,0,0)" stroke-width="1" opacity="0.788235294117647" d="M 371.5 234 L 375 234.5 L 371.5 235 L 371.5 234 Z " /><path fill="rgb(0,0,0)" stroke="rgb(0,0,0)" stroke-width="1" opacity="0.788235294117647" d="M 149.5 255 L 147.5 258 L 149.5 255 Z " /><path fill="rgb(0,0,0)" stroke="rgb(0,0,0)" stroke-width="1" opacity="0.788235294117647" d="M 362.5 255 L 364.5 258 L 362.5 255 Z " /><path fill="rgb(0,0,0)" stroke="rgb(0,0,0)" stroke-width="1" opacity="0.788235294117647" d="M 147.5 281 L 149.5 284 L 147.5 281 Z " /><path fill="rgb(0,0,0)" stroke="rgb(0,0,0)" stroke-width="1" opacity="0.788235294117647" d="M 364.5 281 L 362.5 284 L 364.5 281 Z " /><path fill="rgb(0,0,0)" stroke="rgb(0,0,0)" stroke-width="1" opacity="0.788235294117647" d="M 219.5 299 L 221 300.5 L 221 316.5 L 220 316.5 L 220 300.5 L 219.5 299 Z " /><path fill="rgb(0,0,0)" stroke="rgb(0,0,0)" stroke-width="1" opacity="0.788235294117647" d="M 292.5 299 L 292 300.5 L 291.5 317 L 291 300.5 L 292.5 299 Z " /><path fill="rgb(0,0,0)" stroke="rgb(0,0,0)" stroke-width="1" opacity="0.788235294117647" d="M 171.5 305 L 173.5 308 L 171.5 305 Z " /><path fill="rgb(0,0,0)" stroke="rgb(0,0,0)" stroke-width="1" opacity="0.788235294117647" d="M 340.5 305 L 338.5 308 L 340.5 305 Z " /><path fill="rgb(0,0,0)" stroke="rgb(0,0,0)" stroke-width="1" opacity="0.788235294117647" d="M 198.5 306 L 197.5 308 L 198.5 306 Z " /><path fill="rgb(0,0,0)" stroke="rgb(0,0,0)" stroke-width="1" opacity="0.788235294117647" d="M 313.5 306 L 314.5 308 L 313.5 306 Z " /><path fill="rgb(0,0,0)" stroke="rgb(0,0,0)" stroke-width="1" opacity="0.788235294117647" d="M 180.5 310 L 183 310.5 L 180.5 311 L 180.5 310 Z " /><path fill="rgb(0,0,0)" stroke="rgb(0,0,0)" stroke-width="1" opacity="0.788235294117647" d="M 188.5 310 L 191 310.5 L 188.5 311 L 188.5 310 Z " /><path fill="rgb(0,0,0)" stroke="rgb(0,0,0)" stroke-width="1" opacity="0.788235294117647" d="M 321.5 310 L 324 310.5 L 321.5 311 L 321.5 310 Z " /><path fill="rgb(0,0,0)" stroke="rgb(0,0,0)" stroke-width="1" opacity="0.788235294117647" d="M 223.5 324 L 225.5 327 L 223.5 324 Z " /><path fill="rgb(0,0,0)" stroke="rgb(0,0,0)" stroke-width="1" opacity="0.788235294117647" d="M 288.5 324 L 286.5 327 L 288.5 324 Z " /><path fill="rgb(0,0,0)" stroke="rgb(0,0,0)" stroke-width="1" opacity="0.788235294117647" d="M 228.5 329 L 229.5 331 L 228.5 329 Z " /><path fill="rgb(0,0,0)" stroke="rgb(0,0,0)" stroke-width="1" opacity="0.788235294117647" d="M 283.5 329 L 282.5 331 L 283.5 329 Z " /><path fill="rgb(0,0,0)" stroke="rgb(0,0,0)" stroke-width="1" opacity="0.788235294117647" d="M 240.5 334 L 272 334.5 L 240.5 335 L 240.5 334 Z " /><path fill="rgb(0,0,0)" stroke="rgb(0,0,0)" stroke-width="1" opacity="0.788235294117647" d="M 116.5 342 L 115.5 344 L 116.5 342 Z " /><path fill="rgb(0,0,0)" stroke="rgb(0,0,0)" stroke-width="1" opacity="0.788235294117647" d="M 395.5 342 L 396.5 344 L 395.5 342 Z " /><path fill="rgb(0,0,0)" stroke="rgb(0,0,0)" stroke-width="1" opacity="0.788235294117647" d="M 113.5 347 L 114 349.5 L 113 349.5 L 113.5 347 Z " /><path fill="rgb(0,0,0)" stroke="rgb(0,0,0)" stroke-width="1" opacity="0.788235294117647" d="M 398.5 347 L 399 349.5 L 398 349.5 L 398.5 347 Z " /><path fill="rgb(0,0,0)" stroke="rgb(0,0,0)" stroke-width="1" opacity="0.788235294117647" d="M 118.5 355 L 187 355.5 L 118.5 356 L 118.5 355 Z " /><path fill="rgb(0,0,0)" stroke="rgb(0,0,0)" stroke-width="1" opacity="0.788235294117647" d="M 325.5 355 L 394 355.5 L 325.5 356 L 325.5 355 Z " /><path fill="rgb(0,0,0)" stroke="rgb(0,0,0)" stroke-width="1" opacity="0.788235294117647" d="M 119.5 362 L 187 362.5 L 119.5 363 L 119.5 362 Z " /><path fill="rgb(0,0,0)" stroke="rgb(0,0,0)" stroke-width="1" opacity="0.788235294117647" d="M 325.5 362 L 393 362.5 L 325.5 363 L 325.5 362 Z " /><path fill="rgb(0,0,0)" stroke="rgb(0,0,0)" stroke-width="1" opacity="0.788235294117647" d="M 188.5 363 L 192 367.5 L 191 367.5 L 188.5 363 Z " /><path fill="rgb(0,0,0)" stroke="rgb(0,0,0)" stroke-width="1" opacity="0.788235294117647" d="M 323.5 363 L 321 366.5 L 320.5 368 L 320 366.5 L 323.5 363 Z " /><path fill="rgb(0,0,0)" stroke="rgb(0,0,0)" stroke-width="1" opacity="0.788235294117647" d="M 114.5 373 L 116.5 376 L 114.5 373 Z " /><path fill="rgb(0,0,0)" stroke="rgb(0,0,0)" stroke-width="1" opacity="0.788235294117647" d="M 397.5 373 L 395.5 376 L 397.5 373 Z " /><path fill="rgb(0,0,0)" stroke="rgb(0,0,0)" stroke-width="1" opacity="0.788235294117647" d="M 190.5 374 L 189.5 376 L 190.5 374 Z " /><path fill="rgb(0,0,0)" stroke="rgb(0,0,0)" stroke-width="1" opacity="0.788235294117647" d="M 321.5 374 L 322.5 376 L 321.5 374 Z " /><path fill="rgb(0,0,0)" stroke="rgb(0,0,0)" stroke-width="1" opacity="0.788235294117647" d="M 138.5 399 L 146 399.5 L 138.5 400 L 138.5 399 Z " /><path fill="rgb(0,0,0)" stroke="rgb(0,0,0)" stroke-width="1" opacity="0.788235294117647" d="M 345.5 399 L 352 399.5 L 345.5 400 L 345.5 399 Z " /><path fill="rgb(0,0,0)" stroke="rgb(0,0,0)" stroke-width="1" opacity="0.788235294117647" d="M 133.5 401 L 132.5 403 L 133.5 401 Z " /><path fill="rgb(0,0,0)" stroke="rgb(0,0,0)" stroke-width="1" opacity="0.788235294117647" d="M 152.5 402 L 156.5 407 L 152.5 402 Z " /><path fill="rgb(0,0,0)" stroke="rgb(0,0,0)" stroke-width="1" opacity="0.788235294117647" d="M 189.5 402 L 195 402.5 L 189.5 403 L 189.5 402 Z " /><path fill="rgb(0,0,0)" stroke="rgb(0,0,0)" stroke-width="1" opacity="0.788235294117647" d="M 358.5 402 L 362.5 407 L 358.5 402 Z " /><path fill="rgb(0,0,0)" stroke="rgb(0,0,0)" stroke-width="1" opacity="0.788235294117647" d="M 396.5 402 L 401 402.5 L 396.5 403 L 396.5 402 Z " /><path fill="rgb(0,0,0)" stroke="rgb(0,0,0)" stroke-width="1" opacity="0.788235294117647" d="M 402.5 403 L 404.5 406 L 402.5 403 Z " /><path fill="rgb(0,0,0)" stroke="rgb(0,0,0)" stroke-width="1" opacity="0.788235294117647" d="M 186.5 404 L 157.5 434 L 154 432.5 L 155.5 433 L 157.5 433 L 186.5 404 Z " /><path fill="rgb(0,0,0)" stroke="rgb(0,0,0)" stroke-width="1" opacity="0.788235294117647" d="M 405.5 408 L 406 410.5 L 405 410.5 L 405.5 408 Z " /><path fill="rgb(0,0,0)" stroke="rgb(0,0,0)" stroke-width="1" opacity="0.788235294117647" d="M 365.5 413 L 366 420.5 L 365 420.5 L 365.5 413 Z " /><path fill="rgb(0,0,0)" stroke="rgb(0,0,0)" stroke-width="1" opacity="0.788235294117647" d="M 404.5 413 L 373.5 445 L 404.5 413 Z " /><path fill="rgb(0,0,0)" stroke="rgb(0,0,0)" stroke-width="1" opacity="0.788235294117647" d="M 140.5 414 L 118.5 437 L 140.5 414 Z " /><path fill="rgb(0,0,0)" stroke="rgb(0,0,0)" stroke-width="1" opacity="0.788235294117647" d="M 159.5 414 L 160 418.5 L 159 418.5 L 159.5 414 Z " /><path fill="rgb(0,0,0)" stroke="rgb(0,0,0)" stroke-width="1" opacity="0.788235294117647" d="M 197.5 414 L 168.5 444 L 197.5 414 Z " /><path fill="rgb(0,0,0)" stroke="rgb(0,0,0)" stroke-width="1" opacity="0.788235294117647" d="M 346.5 414 L 324.5 437 L 346.5 414 Z " /><path fill="rgb(0,0,0)" stroke="rgb(0,0,0)" stroke-width="1" opacity="0.788235294117647" d="M 144.5 418 L 142.5 421 L 144.5 418 Z " /><path fill="rgb(0,0,0)" stroke="rgb(0,0,0)" stroke-width="1" opacity="0.788235294117647" d="M 350.5 418 L 348.5 421 L 350.5 418 Z " /><path fill="rgb(0,0,0)" stroke="rgb(0,0,0)" stroke-width="1" opacity="0.788235294117647" d="M 141.5 422 L 141 423.5 L 140.5 425 L 140 423.5 L 141.5 422 Z " /><path fill="rgb(0,0,0)" stroke="rgb(0,0,0)" stroke-width="1" opacity="0.788235294117647" d="M 363.5 425 L 362.5 427 L 363.5 425 Z " /><path fill="rgb(0,0,0)" stroke="rgb(0,0,0)" stroke-width="1" opacity="0.788235294117647" d="M 139.5 426 L 140 428.5 L 139 428.5 L 139.5 426 Z " /><path fill="rgb(0,0,0)" stroke="rgb(0,0,0)" stroke-width="1" opacity="0.788235294117647" d="M 156.5 426 L 154.5 429 L 156.5 426 Z " /><path fill="rgb(0,0,0)" stroke="rgb(0,0,0)" stroke-width="1" opacity="0.788235294117647" d="M 345.5 427 L 346 434.5 L 345 434.5 L 345.5 427 Z " /><path fill="rgb(0,0,0)" stroke="rgb(0,0,0)" stroke-width="1" opacity="0.788235294117647" d="M 106.5 429 L 107 432.5 L 106 432.5 L 106.5 429 Z " /><path fill="rgb(0,0,0)" stroke="rgb(0,0,0)" stroke-width="1" opacity="0.788235294117647" d="M 360.5 432 L 364 433.5 L 361.5 434 L 360.5 432 Z " /><path fill="rgb(0,0,0)" stroke="rgb(0,0,0)" stroke-width="1" opacity="0.788235294117647" d="M 139.5 433 L 140 435.5 L 139 435.5 L 139.5 433 Z " /><path fill="rgb(0,0,0)" stroke="rgb(0,0,0)" stroke-width="1" opacity="0.788235294117647" d="M 313.5 433 L 316 436.5 L 313 434.5 L 313.5 433 Z " /><path fill="rgb(0,0,0)" stroke="rgb(0,0,0)" stroke-width="1" opacity="0.788235294117647" d="M 107.5 434 L 112 437.5 L 110.5 438 L 107.5 434 Z " /><path fill="rgb(0,0,0)" stroke="rgb(0,0,0)" stroke-width="1" opacity="0.788235294117647" d="M 347.5 439 L 348.5 441 L 347.5 439 Z " /><path fill="rgb(0,0,0)" stroke="rgb(0,0,0)" stroke-width="1" opacity="0.788235294117647" d="M 142.5 441 L 145.5 445 L 142.5 441 Z " /><path fill="rgb(0,0,0)" stroke="rgb(0,0,0)" stroke-width="1" opacity="0.788235294117647" d="M 147.5 445 L 150 446.5 L 148.5 447 L 147.5 445 Z " /><path fill="rgb(0,0,0)" stroke="rgb(0,0,0)" stroke-width="1" opacity="0.788235294117647" d="M 371.5 445 L 370.5 447 L 369 446.5 L 371.5 445 Z " /><path fill="rgb(0,0,0)" stroke="rgb(0,0,0)" stroke-width="1" opacity="0.788235294117647" d="M 77.5 475 L 79.5 478 L 77.5 475 Z " /><path fill="rgb(0,0,0)" stroke="rgb(0,0,0)" stroke-width="1" opacity="0.788235294117647" d="M 434.5 475 L 432.5 478 L 434.5 475 Z " /><path fill="rgb(0,0,0)" stroke="rgb(0,0,0)" stroke-width="1" opacity="0.788235294117647" d="M 83.5 481 L 85.5 484 L 83.5 481 Z " /><path fill="rgb(0,0,0)" stroke="rgb(0,0,0)" stroke-width="1" opacity="0.788235294117647" d="M 427.5 482 L 426.5 484 L 427.5 482 Z " /><path fill="rgb(0,0,0)" stroke="rgb(0,0,0)" stroke-width="1" opacity="0.788235294117647" d="M 102.5 490 L 410 490.5 L 102.5 491 L 102.5 490 Z " /><path fill="rgb(0,0,0)" stroke="rgb(0,0,0)" stroke-width="1" opacity="1" d="M 99.5 22 L 412.5 22 Q 424.9 25.1 432 33.5 L 440 49.5 L 440 462.5 Q 436.9 474.9 428.5 482 L 412.5 490 L 99.5 490 Q 87.1 486.9 80 478.5 L 72 462.5 L 72 49.5 Q 75.1 37.1 83.5 30 L 99.5 22 Z M 237 64 L 230 67 Q 222 72 220 82 L 220 99 L 212 102 L 210 102 L 199 91 L 190 87 L 182 87 L 173 91 L 148 116 L 144 124 Q 143 135 147 141 L 159 153 L 156 162 L 155 163 L 140 163 L 130 167 L 124 173 L 121 179 Q 123 184 120 186 L 120 213 Q 123 214 121 220 L 124 226 Q 128 233 138 235 L 155 235 L 159 244 L 159 246 L 147 258 L 144 265 Q 143 276 147 282 L 174 308 L 181 311 Q 192 313 198 308 L 210 296 L 219 299 L 220 301 L 220 317 L 223 325 Q 228 333 241 335 L 272 335 L 283 331 Q 295 324 292 301 L 301 296 L 303 296 L 315 308 L 322 311 Q 333 312 339 308 L 365 282 L 368 275 Q 370 263 365 258 L 353 246 L 356 237 L 358 235 L 375 235 L 382 232 L 388 226 L 391 220 Q 390 214 392 213 L 392 186 Q 390 184 391 179 L 388 173 Q 380 160 358 163 L 353 155 L 353 153 L 365 141 L 368 134 Q 370 121 364 116 L 340 91 L 331 87 Q 322 86 317 89 L 303 102 L 292 99 L 292 82 L 288 73 Q 284 66 276 64 L 237 64 Z M 119 341 L 117 342 L 113 348 L 115 354 L 119 356 L 187 356 L 189 355 Q 194 354 192 346 L 188 341 L 119 341 Z M 325 341 Q 319 343 320 352 L 326 356 L 394 356 L 397 354 L 399 350 L 397 344 L 394 341 L 325 341 Z M 120 362 L 118 363 L 113 370 L 114 374 L 119 377 L 188 377 L 190 376 Q 193 374 192 367 L 187 362 L 120 362 Z M 326 362 L 320 367 L 321 375 L 325 377 L 394 377 L 396 376 L 399 371 L 398 367 L 393 362 L 326 362 Z M 139 399 L 134 401 L 106 430 Q 106 436 111 438 L 119 437 L 142 414 L 144 414 L 145 417 L 139 427 Q 138 437 142 442 L 152 448 Q 164 450 169 444 L 199 413 Q 200 406 198 404 L 195 402 Q 189 401 187 404 L 158 433 L 154 432 L 160 419 Q 160 411 157 407 Q 152 398 139 399 Z M 346 399 L 339 402 L 313 428 L 313 435 L 318 438 L 325 437 L 348 414 L 351 416 L 345 428 Q 344 436 347 440 L 358 448 Q 369 450 374 445 L 405 414 L 406 411 L 405 406 L 401 402 L 395 403 L 365 433 Q 361 434 360 432 L 366 421 Q 367 411 363 407 Q 358 399 346 399 Z " /><path fill="rgb(0,0,0)" stroke="rgb(0,0,0)" stroke-width="1" opacity="1" d="M 249.5 157 Q 263.6 155.4 271.5 160 L 285 171.5 L 291 185.5 L 291 198.5 Q 287.4 213.4 276.5 221 L 262.5 227 L 249.5 227 Q 234.6 223.4 227 212.5 L 221 198.5 L 221 185.5 Q 224.6 170.5 235.5 163 L 249.5 157 Z " /></svg>