<svg width="30" height="30" viewBox="0 0 30 30" fill="none" xmlns="http://www.w3.org/2000/svg">
<g clip-path="url(#clip0_145_2192)">
<path opacity="0.796078" d="M14.3262 0.9375L14.7656 0.966797L14.3262 0.996094V0.9375Z" fill="black" stroke="black"/>
<path opacity="0.796078" d="M15.2637 0.9375L15.7031 0.966797L15.2637 0.996094V0.9375Z" fill="black" stroke="black"/>
<path opacity="0.796078" d="M13.916 0.996094L14.0625 1.02539L13.916 1.05469V0.996094Z" fill="black" stroke="black"/>
<path opacity="0.796078" d="M15.9668 0.996094L16.1133 1.02539L15.9668 1.05469V0.996094Z" fill="black" stroke="black"/>
<path opacity="0.796078" d="M18.0176 1.64062L18.0762 1.75781" stroke="black"/>
<path opacity="0.796078" d="M11.8652 1.69922L11.8066 1.81641" stroke="black"/>
<path opacity="0.796078" d="M11.5723 1.875L11.5137 1.99219" stroke="black"/>
<path opacity="0.796078" d="M18.4277 1.875L18.4863 1.99219" stroke="black"/>
<path opacity="0.796078" d="M11.3965 1.99219L11.3379 2.10938" stroke="black"/>
<path opacity="0.796078" d="M18.6035 1.99219L18.6621 2.10938" stroke="black"/>
<path opacity="0.796078" d="M11.2207 2.10938L11.1621 2.22656" stroke="black"/>
<path opacity="0.796078" d="M18.7793 2.10938L18.8379 2.22656" stroke="black"/>
<path opacity="0.796078" d="M10.9863 2.28516L10.9277 2.40234" stroke="black"/>
<path opacity="0.796078" d="M19.0137 2.28516L19.0723 2.40234" stroke="black"/>
<path opacity="0.796078" d="M10.6934 2.51953L10.0488 3.22266" stroke="black"/>
<path opacity="0.796078" d="M19.3066 2.51953L19.9512 3.22266" stroke="black"/>
<path opacity="0.796078" d="M9.87305 3.39844L9.81445 3.51562" stroke="black"/>
<path opacity="0.796078" d="M20.127 3.39844L20.1855 3.51562" stroke="black"/>
<path opacity="0.796078" d="M9.69727 3.63281L9.63867 3.75" stroke="black"/>
<path opacity="0.796078" d="M20.3027 3.63281L20.3613 3.75" stroke="black"/>
<path opacity="0.796078" d="M9.58008 3.80859L9.52148 3.92578" stroke="black"/>
<path opacity="0.796078" d="M20.4199 3.80859L20.4785 3.92578" stroke="black"/>
<path opacity="0.796078" d="M9.46289 3.98438L9.4043 4.10156" stroke="black"/>
<path opacity="0.796078" d="M20.5371 3.98438L20.5957 4.10156" stroke="black"/>
<path opacity="0.796078" d="M9.28711 4.27734L9.22852 4.39453" stroke="black"/>
<path opacity="0.796078" d="M20.7715 4.39453L20.8301 4.51172" stroke="black"/>
<path opacity="0.796078" d="M20.8887 4.57031L20.9766 4.77539H20.918L20.8887 4.57031Z" fill="black" stroke="black"/>
<path opacity="0.796078" d="M8.52539 6.38672L8.55469 6.5332H8.49609L8.52539 6.38672Z" fill="black" stroke="black"/>
<path opacity="0.796078" d="M21.4746 6.38672L21.5039 6.5918H21.4453L21.4746 6.38672Z" fill="black" stroke="black"/>
<path opacity="0.796078" d="M8.4668 6.79688L8.49609 7.23633H8.4375L8.4668 6.79688Z" fill="black" stroke="black"/>
<path opacity="0.796078" d="M21.5332 6.85547L21.5625 7.23633H21.5039L21.5332 6.85547Z" fill="black" stroke="black"/>
<path opacity="0.796078" d="M8.4668 7.73438L8.49609 8.17383H8.4375L8.4668 7.73438Z" fill="black" stroke="black"/>
<path opacity="0.796078" d="M21.5332 7.73438L21.5625 8.17383H21.5039L21.5332 7.73438Z" fill="black" stroke="black"/>
<path opacity="0.796078" d="M21.4746 8.37891L21.5039 8.58398H21.4453L21.4746 8.37891Z" fill="black" stroke="black"/>
<path opacity="0.796078" d="M8.52539 8.4375L8.55469 8.58398H8.49609L8.52539 8.4375Z" fill="black" stroke="black"/>
<path opacity="0.796078" d="M9.16992 10.4883L9.31641 10.6934L9.19922 10.6348L9.16992 10.4883Z" fill="black" stroke="black"/>
<path opacity="0.796078" d="M20.8301 10.4883L20.7715 10.6055" stroke="black"/>
<path opacity="0.796078" d="M9.4043 10.8984L9.46289 11.0156" stroke="black"/>
<path opacity="0.796078" d="M20.5957 10.8984L20.5371 11.0156" stroke="black"/>
<path opacity="0.796078" d="M9.52148 11.0742L9.58008 11.1914" stroke="black"/>
<path opacity="0.796078" d="M20.4785 11.0742L20.4199 11.1914" stroke="black"/>
<path opacity="0.796078" d="M9.63867 11.25L9.69727 11.3672" stroke="black"/>
<path opacity="0.796078" d="M20.3613 11.25L20.3027 11.3672" stroke="black"/>
<path opacity="0.796078" d="M9.81445 11.4844L9.93164 11.6602" stroke="black"/>
<path opacity="0.796078" d="M20.1855 11.4844L20.127 11.6016" stroke="black"/>
<path opacity="0.796078" d="M10.0488 11.7773L10.6934 12.4805" stroke="black"/>
<path opacity="0.796078" d="M19.9512 11.7773L19.3066 12.4805" stroke="black"/>
<path opacity="0.796078" d="M19.1309 12.5391L19.0137 12.7148" stroke="black"/>
<path opacity="0.796078" d="M10.9277 12.5977L10.9863 12.7148" stroke="black"/>
<path opacity="0.796078" d="M11.1621 12.7734L11.2207 12.8906" stroke="black"/>
<path opacity="0.796078" d="M18.8379 12.7734L18.7793 12.8906" stroke="black"/>
<path opacity="0.796078" d="M11.3379 12.8906L11.3965 13.0078" stroke="black"/>
<path opacity="0.796078" d="M18.6621 12.8906L18.6035 13.0078" stroke="black"/>
<path opacity="0.796078" d="M11.5137 13.0078L11.5723 13.125" stroke="black"/>
<path opacity="0.796078" d="M18.4863 13.0078L18.4277 13.125" stroke="black"/>
<path opacity="0.796078" d="M11.8066 13.1836L12.0117 13.3301L11.9238 13.3008L11.8066 13.1836Z" fill="black" stroke="black"/>
<path opacity="0.796078" d="M18.0762 13.2422L18.0176 13.3594" stroke="black"/>
<path opacity="0.796078" d="M13.916 13.9453L14.0625 13.9746L13.916 14.0039V13.9453Z" fill="black" stroke="black"/>
<path opacity="0.796078" d="M15.9668 13.9453L16.1133 13.9746L15.9668 14.0039V13.9453Z" fill="black" stroke="black"/>
<path opacity="0.796078" d="M14.3262 14.0039L14.7656 14.0332L14.3262 14.0625V14.0039Z" fill="black" stroke="black"/>
<path opacity="0.796078" d="M15.2637 14.0039L15.7031 14.0332L15.2637 14.0625V14.0039Z" fill="black" stroke="black"/>
<path opacity="0.796078" d="M9.63867 15.9375L10.1367 15.9668L9.63867 15.9961V15.9375Z" fill="black" stroke="black"/>
<path opacity="0.796078" d="M19.8926 15.9375L20.3906 15.9668L19.8926 15.9961V15.9375Z" fill="black" stroke="black"/>
<path opacity="0.796078" d="M9.16992 15.9961L9.375 16.0254L9.16992 16.0547V15.9961Z" fill="black" stroke="black"/>
<path opacity="0.796078" d="M20.6543 15.9961L20.8594 16.0254L20.6543 16.0547V15.9961Z" fill="black" stroke="black"/>
<path opacity="0.796078" d="M8.87695 16.0547L9.02344 16.084L8.87695 16.1133V16.0547Z" fill="black" stroke="black"/>
<path opacity="0.796078" d="M21.0059 16.0547L21.1523 16.084L21.0059 16.1133V16.0547Z" fill="black" stroke="black"/>
<path opacity="0.796078" d="M8.58398 16.1133L8.73047 16.1426L8.58398 16.1719V16.1133Z" fill="black" stroke="black"/>
<path opacity="0.796078" d="M6.65039 16.875L6.5918 16.9922" stroke="black"/>
<path opacity="0.796078" d="M23.3496 16.875L23.4082 16.9922" stroke="black"/>
<path opacity="0.796078" d="M6.35742 17.0508L6.29883 17.168" stroke="black"/>
<path opacity="0.796078" d="M23.6426 17.0508L23.7012 17.168" stroke="black"/>
<path opacity="0.796078" d="M6.18164 17.168L6.12305 17.2852" stroke="black"/>
<path opacity="0.796078" d="M23.8184 17.168L23.877 17.2852" stroke="black"/>
<path opacity="0.796078" d="M6.00586 17.2852L5.94727 17.4023" stroke="black"/>
<path opacity="0.796078" d="M23.9941 17.2852L24.0527 17.4023" stroke="black"/>
<path opacity="0.796078" d="M5.77148 17.4609L5.6543 17.6367" stroke="black"/>
<path opacity="0.796078" d="M24.2285 17.4609L24.3457 17.6367" stroke="black"/>
<path opacity="0.796078" d="M5.47852 17.6953L5.18555 18.0469" stroke="black"/>
<path opacity="0.796078" d="M24.5215 17.6953L24.7559 17.9883" stroke="black"/>
<path opacity="0.796078" d="M4.89258 18.2812L4.59961 18.6328" stroke="black"/>
<path opacity="0.796078" d="M25.1074 18.2812L25.4004 18.6328" stroke="black"/>
<path opacity="0.796078" d="M4.48242 18.75L4.36523 18.9258" stroke="black"/>
<path opacity="0.796078" d="M25.5176 18.75L25.6348 18.9258" stroke="black"/>
<path opacity="0.796078" d="M4.24805 19.043L4.18945 19.1602" stroke="black"/>
<path opacity="0.796078" d="M25.752 19.043L25.8105 19.1602" stroke="black"/>
<path opacity="0.796078" d="M4.13086 19.2188L4.07227 19.3359" stroke="black"/>
<path opacity="0.796078" d="M25.8691 19.2188L25.9277 19.3359" stroke="black"/>
<path opacity="0.796078" d="M4.01367 19.3945L3.95508 19.5117" stroke="black"/>
<path opacity="0.796078" d="M25.9863 19.3945L26.0449 19.5117" stroke="black"/>
<path opacity="0.796078" d="M3.83789 19.6875L3.7793 19.8047" stroke="black"/>
<path opacity="0.796078" d="M26.1621 19.6875L26.2207 19.8047" stroke="black"/>
<path opacity="0.796078" d="M3.01758 21.6797L3.04688 21.8262H2.98828L3.01758 21.6797Z" fill="black" stroke="black"/>
<path opacity="0.796078" d="M26.9824 21.6797L27.0117 21.8262H26.9531L26.9824 21.6797Z" fill="black" stroke="black"/>
<path opacity="0.796078" d="M2.95898 21.9727L2.98828 22.1191H2.92969L2.95898 21.9727Z" fill="black" stroke="black"/>
<path opacity="0.796078" d="M27.041 21.9727L27.0703 22.1191H27.0117L27.041 21.9727Z" fill="black" stroke="black"/>
<path opacity="0.796078" d="M2.90039 22.2656L2.92969 22.4707H2.87109L2.90039 22.2656Z" fill="black" stroke="black"/>
<path opacity="0.796078" d="M27.0996 22.2656L27.1289 22.4707H27.0703L27.0996 22.2656Z" fill="black" stroke="black"/>
<path opacity="0.796078" d="M2.8418 22.7344L2.87109 23.1738H2.8125L2.8418 22.7344Z" fill="black" stroke="black"/>
<path opacity="0.796078" d="M27.1582 22.7344L27.1875 23.2324H27.1289L27.1582 22.7344Z" fill="black" stroke="black"/>
<path opacity="0.796078" d="M2.95898 28.5938L3.25195 28.9453" stroke="black"/>
<path opacity="0.796078" d="M27.041 28.5938L26.748 28.9453" stroke="black"/>
<path d="M14.7949 0.9375L16.2598 1.05469L17.8418 1.58203C18.7441 2.02734 19.4961 2.62305 20.0977 3.36914C20.4961 3.86914 20.8281 4.43555 21.0938 5.06836L21.4453 6.24023L21.5625 7.70508L21.5039 7.76367L21.4453 8.75977L20.918 10.3418C20.4883 11.2207 19.9121 11.9531 19.1895 12.5391C18.6816 12.9688 18.0957 13.3203 17.4316 13.5938L16.2598 13.9453L14.7949 14.0625L14.7363 14.0039L13.7402 13.9453L12.1582 13.418C11.2793 12.9883 10.5469 12.4121 9.96094 11.6895C9.53125 11.1816 9.17969 10.5957 8.90625 9.93164L8.55469 8.75977L8.4375 7.29492L8.49609 7.23633L8.55469 6.24023L9.08203 4.6582C9.52734 3.75586 10.123 3.00391 10.8691 2.40234C11.3574 1.99219 11.9238 1.66016 12.5684 1.40625L13.7402 1.05469L14.7363 0.996094L14.7949 0.9375Z" fill="black" stroke="black"/>
<path d="M10.166 15.9375H19.834L19.8926 15.9961H20.5957C22.5137 16.3242 24.0078 17.0762 25.0781 18.252C25.9453 19.123 26.5703 20.2363 26.9531 21.5918L27.1289 22.5293V23.2324L27.1875 23.291V28.2129C27.125 28.5605 26.959 28.8047 26.6895 28.9453L26.3379 29.0625H3.66211C3.31445 29 3.07031 28.834 2.92969 28.5645L2.8125 28.2129V23.2324L2.87109 23.1738V22.5293L3.04688 21.5918L3.45703 20.4199C3.87891 19.4941 4.43555 18.7031 5.12695 18.0469C5.74023 17.4492 6.46289 16.9609 7.29492 16.582L8.4668 16.1719L9.4043 15.9961H10.1074L10.166 15.9375Z" fill="black" stroke="black"/>
</g>
<defs>
<clipPath id="clip0_145_2192">
<rect width="30" height="30" fill="white"/>
</clipPath>
</defs>
</svg>
