<svg width="23" height="23" viewBox="0 0 23 23" fill="none" xmlns="http://www.w3.org/2000/svg">
<rect width="23" height="23" fill="#4087FE"/>
<path d="M19.9084 17.25C20.6265 17.25 21.1977 16.7981 21.7105 16.1662C22.7603 14.8728 21.0367 13.8391 20.3792 13.3329C19.711 12.8183 18.9648 12.5268 18.2083 12.4583M17.25 10.5417C18.5732 10.5417 19.6458 9.46901 19.6458 8.14583C19.6458 6.82265 18.5732 5.75 17.25 5.75" stroke="white" stroke-width="1.5" stroke-linecap="round"/>
<path d="M3.09171 17.25C2.37362 17.25 1.80247 16.7981 1.28964 16.1662C0.239833 14.8728 1.96347 13.8391 2.62086 13.3329C3.28914 12.8183 4.0353 12.5268 4.79183 12.4583M5.271 10.5417C3.94782 10.5417 2.87517 9.46901 2.87517 8.14583C2.87517 6.82265 3.94782 5.75 5.271 5.75" stroke="white" stroke-width="1.5" stroke-linecap="round"/>
<path d="M7.74714 14.4814C6.76794 15.0869 4.20052 16.3232 5.76425 17.8703C6.52812 18.626 7.37887 19.1665 8.44847 19.1665H14.5519C15.6215 19.1665 16.4722 18.626 17.2361 17.8703C18.7998 16.3232 16.2324 15.0869 15.2532 14.4814C12.9569 13.0615 10.0433 13.0615 7.74714 14.4814Z" stroke="white" stroke-width="1.5" stroke-linecap="round" stroke-linejoin="round"/>
<path d="M14.8543 7.18766C14.8543 9.04012 13.3526 10.5418 11.5002 10.5418C9.64772 10.5418 8.146 9.04012 8.146 7.18766C8.146 5.3352 9.64772 3.8335 11.5002 3.8335C13.3526 3.8335 14.8543 5.3352 14.8543 7.18766Z" stroke="white" stroke-width="1.5"/>
</svg>
