<svg width="31" height="31" viewBox="0 0 31 31" fill="none" xmlns="http://www.w3.org/2000/svg">
<g filter="url(#filter0_d_1393_4330)">
<path fill-rule="evenodd" clip-rule="evenodd" d="M13.5941 8.53353C13.4014 8.69782 13.305 8.77998 13.202 8.84898C12.966 9.00716 12.701 9.11694 12.4222 9.17197C12.3007 9.19597 12.1744 9.20605 11.9219 9.2262C11.2875 9.27683 10.9702 9.30214 10.7056 9.39562C10.0935 9.61182 9.61201 10.0933 9.3958 10.7054C9.30232 10.9701 9.27701 11.2873 9.22638 11.9217C9.20623 12.1742 9.19616 12.3005 9.17215 12.4221C9.11712 12.7008 9.00734 12.9658 8.84916 13.2018C8.78016 13.3048 8.69801 13.4012 8.53371 13.594C8.12091 14.0784 7.9145 14.3206 7.79346 14.5738C7.51351 15.1595 7.51351 15.8404 7.79346 16.4261C7.9145 16.6794 8.1209 16.9216 8.53371 17.406C8.69799 17.5988 8.78016 17.6952 8.84916 17.7981C9.00734 18.0341 9.11712 18.2992 9.17215 18.5779C9.19616 18.6995 9.20623 18.8257 9.22638 19.0782C9.27701 19.7127 9.30232 20.0299 9.3958 20.2945C9.61201 20.9067 10.0935 21.3881 10.7056 21.6043C10.9702 21.6978 11.2875 21.7231 11.9219 21.7738C12.1744 21.7939 12.3007 21.804 12.4222 21.828C12.701 21.883 12.966 21.9928 13.202 22.151C13.305 22.22 13.4014 22.3021 13.5941 22.4664C14.0786 22.8792 14.3208 23.0856 14.574 23.2067C15.1597 23.4866 15.8406 23.4866 16.4263 23.2067C16.6796 23.0856 16.9218 22.8792 17.4062 22.4664C17.599 22.3021 17.6954 22.22 17.7983 22.151C18.0343 21.9928 18.2994 21.883 18.5781 21.828C18.6997 21.804 18.8259 21.7939 19.0784 21.7738C19.7129 21.7231 20.0301 21.6978 20.2947 21.6043C20.9068 21.3881 21.3883 20.9067 21.6045 20.2945C21.698 20.0299 21.7233 19.7127 21.7739 19.0782C21.7941 18.8257 21.8042 18.6995 21.8282 18.5779C21.8832 18.2992 21.993 18.0341 22.1512 17.7981C22.2202 17.6952 22.3023 17.5988 22.4666 17.406C22.8794 16.9216 23.0858 16.6794 23.2069 16.4261C23.4868 15.8404 23.4868 15.1595 23.2069 14.5738C23.0858 14.3206 22.8794 14.0784 22.4666 13.594C22.3023 13.4012 22.2202 13.3048 22.1512 13.2018C21.993 12.9658 21.8832 12.7008 21.8282 12.4221C21.8042 12.3005 21.7941 12.1742 21.7739 11.9217C21.7233 11.2873 21.698 10.9701 21.6045 10.7054C21.3883 10.0933 20.9068 9.61182 20.2947 9.39562C20.0301 9.30214 19.7129 9.27683 19.0784 9.2262C18.8259 9.20605 18.6997 9.19597 18.5781 9.17197C18.2994 9.11694 18.0343 9.00716 17.7983 8.84898C17.6954 8.77998 17.599 8.69783 17.4062 8.53353C16.9218 8.12072 16.6796 7.91431 16.4263 7.79328C15.8406 7.51333 15.1597 7.51333 14.574 7.79328C14.3208 7.91431 14.0786 8.12072 13.5941 8.53353ZM18.9625 13.8083C19.2141 13.5567 19.2141 13.1487 18.9625 12.8971C18.7109 12.6455 18.3029 12.6455 18.0513 12.8971L14.2115 16.7369L12.949 15.4743C12.6974 15.2227 12.2894 15.2227 12.0378 15.4743C11.7862 15.726 11.7862 16.1339 12.0378 16.3855L13.7559 18.1037C14.0076 18.3553 14.4155 18.3553 14.6671 18.1037L18.9625 13.8083Z" fill="#003AFF"/>
</g>
<defs>
<filter id="filter0_d_1393_4330" x="-1" y="-1" width="33" height="33" filterUnits="userSpaceOnUse" color-interpolation-filters="sRGB">
<feFlood flood-opacity="0" result="BackgroundImageFix"/>
<feColorMatrix in="SourceAlpha" type="matrix" values="0 0 0 0 0 0 0 0 0 0 0 0 0 0 0 0 0 0 127 0" result="hardAlpha"/>
<feOffset/>
<feGaussianBlur stdDeviation="3.5"/>
<feComposite in2="hardAlpha" operator="out"/>
<feColorMatrix type="matrix" values="0 0 0 0 0.447059 0 0 0 0 0.756863 0 0 0 0 0.721569 0 0 0 0.25 0"/>
<feBlend mode="normal" in2="BackgroundImageFix" result="effect1_dropShadow_1393_4330"/>
<feBlend mode="normal" in="SourceGraphic" in2="effect1_dropShadow_1393_4330" result="shape"/>
</filter>
</defs>
</svg>
