<svg width="512" height="512" version="1.1" xmlns="http://www.w3.org/2000/svg" desc="Created with imagetracer.js version 1.2.6" ><path fill="rgb(0,0,0)" stroke="rgb(0,0,0)" stroke-width="1" opacity="0" d="M 0 0 L 512 0 L 512 512 L 0 512 L 0 0 Z M 41 53 Q 28 55 20 62 Q 8 71 5 89 L 5 424 Q 7 436 14 445 Q 23 456 41 459 L 426 459 L 435 457 L 446 451 Q 457 442 461 425 L 461 346 L 479 345 L 494 337 Q 504 328 507 313 L 507 199 Q 505 188 500 182 Q 489 164 460 166 L 460 89 L 458 80 L 452 69 Q 443 56 425 53 L 41 53 Z " /><path fill="rgb(0,0,0)" stroke="rgb(0,0,0)" stroke-width="1" opacity="0" d="M 45.5 85 L 420.5 85 L 424.5 86 L 428 89.5 L 429 91.5 L 429 166 L 342.5 166 L 341.5 167 L 329.5 168 Q 297 176.5 279 199.5 Q 268.6 211.6 263 228.5 L 259 247.5 L 259 264.5 L 263 283.5 L 269 297.5 Q 278.2 314.4 292.5 326 Q 308.9 340.1 334.5 345 L 342.5 345 L 343.5 346 L 429 346 L 429 420.5 L 424.5 426 L 420.5 427 L 45.5 427 L 41.5 426 L 38 422.5 L 37 418.5 L 37 93.5 L 38 89.5 L 41.5 86 L 45.5 85 Z M 152 183 L 150 185 L 150 202 Q 141 202 136 207 Q 127 213 124 224 Q 122 239 128 246 L 140 255 L 165 267 Q 172 271 174 281 Q 174 288 171 293 L 167 297 L 161 300 Q 156 299 155 301 L 143 300 L 126 294 L 123 306 L 136 311 L 147 313 L 150 314 L 150 331 L 162 331 L 162 313 L 178 306 Q 188 300 191 286 L 190 274 L 184 263 L 172 252 L 146 240 L 139 232 L 140 221 L 146 215 L 156 212 L 168 213 L 181 218 L 184 206 L 175 202 L 164 200 L 161 200 L 161 183 L 152 183 Z " /><path fill="rgb(0,0,0)" stroke="rgb(0,0,0)" stroke-width="1" opacity="0" d="M 337.5 199 L 472.5 199 L 474 200.5 L 475 204.5 L 475 307.5 L 472.5 313 L 337.5 313 Q 314.1 307.9 302 291.5 L 292 271.5 L 290 252.5 L 291 251.5 L 292 240.5 L 298 226.5 L 311.5 211 Q 321.7 202.2 337.5 199 Z M 335 240 L 335 272 L 367 272 L 367 240 L 335 240 Z " /><path fill="rgb(0,0,0)" stroke="rgb(0,0,0)" stroke-width="1" opacity="0.7019607843137254" d="M 40.5 53 L 425 53.5 L 40.5 54 L 40.5 53 Z " /><path fill="rgb(0,0,0)" stroke="rgb(0,0,0)" stroke-width="1" opacity="0.7019607843137254" d="M 23.5 59 L 22.5 61 L 23.5 59 Z " /><path fill="rgb(0,0,0)" stroke="rgb(0,0,0)" stroke-width="1" opacity="0.7019607843137254" d="M 441.5 59 L 442.5 61 L 441.5 59 Z " /><path fill="rgb(0,0,0)" stroke="rgb(0,0,0)" stroke-width="1" opacity="0.7019607843137254" d="M 444.5 61 L 451.5 69 L 444.5 61 Z " /><path fill="rgb(0,0,0)" stroke="rgb(0,0,0)" stroke-width="1" opacity="0.7019607843137254" d="M 19.5 62 L 14.5 68 L 19.5 62 Z " /><path fill="rgb(0,0,0)" stroke="rgb(0,0,0)" stroke-width="1" opacity="0.7019607843137254" d="M 12.5 70 L 11.5 72 L 12.5 70 Z " /><path fill="rgb(0,0,0)" stroke="rgb(0,0,0)" stroke-width="1" opacity="0.7019607843137254" d="M 452.5 70 L 453.5 72 L 452.5 70 Z " /><path fill="rgb(0,0,0)" stroke="rgb(0,0,0)" stroke-width="1" opacity="0.7019607843137254" d="M 42.5 85 L 45 85.5 L 42.5 86 L 42.5 85 Z " /><path fill="rgb(0,0,0)" stroke="rgb(0,0,0)" stroke-width="1" opacity="0.7019607843137254" d="M 421.5 85 L 424 85.5 L 421.5 86 L 421.5 85 Z " /><path fill="rgb(0,0,0)" stroke="rgb(0,0,0)" stroke-width="1" opacity="0.7019607843137254" d="M 40.5 86 L 38.5 89 L 40.5 86 Z " /><path fill="rgb(0,0,0)" stroke="rgb(0,0,0)" stroke-width="1" opacity="0.7019607843137254" d="M 425.5 86 L 427.5 89 L 425.5 86 Z " /><path fill="rgb(0,0,0)" stroke="rgb(0,0,0)" stroke-width="1" opacity="0.7019607843137254" d="M 5.5 88 L 6 423.5 L 5 423.5 L 5.5 88 Z " /><path fill="rgb(0,0,0)" stroke="rgb(0,0,0)" stroke-width="1" opacity="0.7019607843137254" d="M 459.5 88 L 460 166 L 474 166.5 L 460.5 167 L 459 165.5 L 459.5 88 Z " /><path fill="rgb(0,0,0)" stroke="rgb(0,0,0)" stroke-width="1" opacity="0.7019607843137254" d="M 37.5 90 L 38 92.5 L 37 92.5 L 37.5 90 Z " /><path fill="rgb(0,0,0)" stroke="rgb(0,0,0)" stroke-width="1" opacity="0.7019607843137254" d="M 342.5 166 L 429 166.5 L 342.5 167 L 342.5 166 Z " /><path fill="rgb(0,0,0)" stroke="rgb(0,0,0)" stroke-width="1" opacity="0.7019607843137254" d="M 334.5 167 L 337 167.5 L 334.5 168 L 334.5 167 Z " /><path fill="rgb(0,0,0)" stroke="rgb(0,0,0)" stroke-width="1" opacity="0.7019607843137254" d="M 488.5 171 L 489.5 173 L 488.5 171 Z " /><path fill="rgb(0,0,0)" stroke="rgb(0,0,0)" stroke-width="1" opacity="0.7019607843137254" d="M 491.5 173 L 493.5 176 L 491.5 173 Z " /><path fill="rgb(0,0,0)" stroke="rgb(0,0,0)" stroke-width="1" opacity="0.7019607843137254" d="M 302.5 179 L 301.5 181 L 302.5 179 Z " /><path fill="rgb(0,0,0)" stroke="rgb(0,0,0)" stroke-width="1" opacity="0.7019607843137254" d="M 498.5 180 L 499.5 182 L 498.5 180 Z " /><path fill="rgb(0,0,0)" stroke="rgb(0,0,0)" stroke-width="1" opacity="0.7019607843137254" d="M 151.5 183 L 161 183.5 L 151 184 L 150.5 202 L 150 184.5 L 151.5 183 Z " /><path fill="rgb(0,0,0)" stroke="rgb(0,0,0)" stroke-width="1" opacity="0.7019607843137254" d="M 296.5 183 L 295.5 185 L 296.5 183 Z " /><path fill="rgb(0,0,0)" stroke="rgb(0,0,0)" stroke-width="1" opacity="0.7019607843137254" d="M 292.5 186 L 289.5 190 L 292.5 186 Z " /><path fill="rgb(0,0,0)" stroke="rgb(0,0,0)" stroke-width="1" opacity="0.7019607843137254" d="M 282.5 196 L 279.5 200 L 282.5 196 Z " /><path fill="rgb(0,0,0)" stroke="rgb(0,0,0)" stroke-width="1" opacity="0.7019607843137254" d="M 341.5 198 L 472 198.5 L 341.5 199 L 341.5 198 Z " /><path fill="rgb(0,0,0)" stroke="rgb(0,0,0)" stroke-width="1" opacity="0.7019607843137254" d="M 506.5 198 L 507 312.5 L 506 312.5 L 506.5 198 Z " /><path fill="rgb(0,0,0)" stroke="rgb(0,0,0)" stroke-width="1" opacity="0.7019607843137254" d="M 161.5 200 L 164 200.5 L 161.5 201 L 161.5 200 Z " /><path fill="rgb(0,0,0)" stroke="rgb(0,0,0)" stroke-width="1" opacity="0.7019607843137254" d="M 474.5 201 L 475 203.5 L 474 203.5 L 474.5 201 Z " /><path fill="rgb(0,0,0)" stroke="rgb(0,0,0)" stroke-width="1" opacity="0.7019607843137254" d="M 277.5 202 L 276.5 204 L 277.5 202 Z " /><path fill="rgb(0,0,0)" stroke="rgb(0,0,0)" stroke-width="1" opacity="0.7019607843137254" d="M 138.5 205 L 137.5 207 L 138.5 205 Z " /><path fill="rgb(0,0,0)" stroke="rgb(0,0,0)" stroke-width="1" opacity="0.7019607843137254" d="M 135.5 207 L 134.5 209 L 135.5 207 Z " /><path fill="rgb(0,0,0)" stroke="rgb(0,0,0)" stroke-width="1" opacity="0.7019607843137254" d="M 314.5 208 L 312.5 211 L 314.5 208 Z " /><path fill="rgb(0,0,0)" stroke="rgb(0,0,0)" stroke-width="1" opacity="0.7019607843137254" d="M 271.5 211 L 270.5 213 L 271.5 211 Z " /><path fill="rgb(0,0,0)" stroke="rgb(0,0,0)" stroke-width="1" opacity="0.7019607843137254" d="M 152.5 212 L 155 212.5 L 152.5 213 L 152.5 212 Z " /><path fill="rgb(0,0,0)" stroke="rgb(0,0,0)" stroke-width="1" opacity="0.7019607843137254" d="M 160.5 212 L 165 212.5 L 160.5 213 L 160.5 212 Z " /><path fill="rgb(0,0,0)" stroke="rgb(0,0,0)" stroke-width="1" opacity="0.7019607843137254" d="M 309.5 212 L 304.5 218 L 309.5 212 Z " /><path fill="rgb(0,0,0)" stroke="rgb(0,0,0)" stroke-width="1" opacity="0.7019607843137254" d="M 144.5 215 L 141.5 219 L 144.5 215 Z " /><path fill="rgb(0,0,0)" stroke="rgb(0,0,0)" stroke-width="1" opacity="0.7019607843137254" d="M 127.5 216 L 127 217.5 L 126.5 219 L 126 217.5 L 127.5 216 Z " /><path fill="rgb(0,0,0)" stroke="rgb(0,0,0)" stroke-width="1" opacity="0.7019607843137254" d="M 301.5 221 L 300.5 223 L 301.5 221 Z " /><path fill="rgb(0,0,0)" stroke="rgb(0,0,0)" stroke-width="1" opacity="0.7019607843137254" d="M 299.5 224 L 298.5 226 L 299.5 224 Z " /><path fill="rgb(0,0,0)" stroke="rgb(0,0,0)" stroke-width="1" opacity="0.7019607843137254" d="M 138.5 225 L 139 229.5 L 138 229.5 L 138.5 225 Z " /><path fill="rgb(0,0,0)" stroke="rgb(0,0,0)" stroke-width="1" opacity="0.7019607843137254" d="M 261.5 235 L 262 237.5 L 261 237.5 L 261.5 235 Z " /><path fill="rgb(0,0,0)" stroke="rgb(0,0,0)" stroke-width="1" opacity="0.7019607843137254" d="M 141.5 236 L 143.5 239 L 141.5 236 Z " /><path fill="rgb(0,0,0)" stroke="rgb(0,0,0)" stroke-width="1" opacity="0.7019607843137254" d="M 260.5 240 L 261 242.5 L 260 242.5 L 260.5 240 Z " /><path fill="rgb(0,0,0)" stroke="rgb(0,0,0)" stroke-width="1" opacity="0.7019607843137254" d="M 148.5 241 L 149.5 243 L 148.5 241 Z " /><path fill="rgb(0,0,0)" stroke="rgb(0,0,0)" stroke-width="1" opacity="0.7019607843137254" d="M 128.5 245 L 133.5 251 L 128.5 245 Z " /><path fill="rgb(0,0,0)" stroke="rgb(0,0,0)" stroke-width="1" opacity="0.7019607843137254" d="M 259.5 247 L 260 264.5 L 259 264.5 L 259.5 247 Z " /><path fill="rgb(0,0,0)" stroke="rgb(0,0,0)" stroke-width="1" opacity="0.7019607843137254" d="M 290.5 247 L 291 251.5 L 290 251.5 L 290.5 247 Z " /><path fill="rgb(0,0,0)" stroke="rgb(0,0,0)" stroke-width="1" opacity="0.7019607843137254" d="M 171.5 252 L 172.5 254 L 171.5 252 Z " /><path fill="rgb(0,0,0)" stroke="rgb(0,0,0)" stroke-width="1" opacity="0.7019607843137254" d="M 174.5 254 L 175.5 256 L 174.5 254 Z " /><path fill="rgb(0,0,0)" stroke="rgb(0,0,0)" stroke-width="1" opacity="0.7019607843137254" d="M 178.5 257 L 183.5 263 L 178.5 257 Z " /><path fill="rgb(0,0,0)" stroke="rgb(0,0,0)" stroke-width="1" opacity="0.7019607843137254" d="M 290.5 260 L 291 264.5 L 290 264.5 L 290.5 260 Z " /><path fill="rgb(0,0,0)" stroke="rgb(0,0,0)" stroke-width="1" opacity="0.7019607843137254" d="M 162.5 265 L 163.5 267 L 162.5 265 Z " /><path fill="rgb(0,0,0)" stroke="rgb(0,0,0)" stroke-width="1" opacity="0.7019607843137254" d="M 165.5 267 L 170.5 273 L 165.5 267 Z " /><path fill="rgb(0,0,0)" stroke="rgb(0,0,0)" stroke-width="1" opacity="0.7019607843137254" d="M 260.5 269 L 261 271.5 L 260 271.5 L 260.5 269 Z " /><path fill="rgb(0,0,0)" stroke="rgb(0,0,0)" stroke-width="1" opacity="0.7019607843137254" d="M 261.5 274 L 262 276.5 L 261 276.5 L 261.5 274 Z " /><path fill="rgb(0,0,0)" stroke="rgb(0,0,0)" stroke-width="1" opacity="0.7019607843137254" d="M 190.5 277 L 191 279.5 L 190 279.5 L 190.5 277 Z " /><path fill="rgb(0,0,0)" stroke="rgb(0,0,0)" stroke-width="1" opacity="0.7019607843137254" d="M 190.5 282 L 191 285.5 L 190 285.5 L 190.5 282 Z " /><path fill="rgb(0,0,0)" stroke="rgb(0,0,0)" stroke-width="1" opacity="0.7019607843137254" d="M 173.5 285 L 174 287.5 L 173 287.5 L 173.5 285 Z " /><path fill="rgb(0,0,0)" stroke="rgb(0,0,0)" stroke-width="1" opacity="0.7019607843137254" d="M 298.5 286 L 299.5 288 L 298.5 286 Z " /><path fill="rgb(0,0,0)" stroke="rgb(0,0,0)" stroke-width="1" opacity="0.7019607843137254" d="M 300.5 289 L 301.5 291 L 300.5 289 Z " /><path fill="rgb(0,0,0)" stroke="rgb(0,0,0)" stroke-width="1" opacity="0.7019607843137254" d="M 170.5 293 L 167.5 297 L 170.5 293 Z " /><path fill="rgb(0,0,0)" stroke="rgb(0,0,0)" stroke-width="1" opacity="0.7019607843137254" d="M 304.5 294 L 309.5 300 L 304.5 294 Z " /><path fill="rgb(0,0,0)" stroke="rgb(0,0,0)" stroke-width="1" opacity="0.7019607843137254" d="M 185.5 297 L 184.5 299 L 185.5 297 Z " /><path fill="rgb(0,0,0)" stroke="rgb(0,0,0)" stroke-width="1" opacity="0.7019607843137254" d="M 145.5 300 L 149 300.5 L 145.5 301 L 145.5 300 Z " /><path fill="rgb(0,0,0)" stroke="rgb(0,0,0)" stroke-width="1" opacity="0.7019607843137254" d="M 155.5 300 L 159 300.5 L 155.5 301 L 155.5 300 Z " /><path fill="rgb(0,0,0)" stroke="rgb(0,0,0)" stroke-width="1" opacity="0.7019607843137254" d="M 312.5 301 L 314.5 304 L 312.5 301 Z " /><path fill="rgb(0,0,0)" stroke="rgb(0,0,0)" stroke-width="1" opacity="0.7019607843137254" d="M 178.5 304 L 177.5 306 L 178.5 304 Z " /><path fill="rgb(0,0,0)" stroke="rgb(0,0,0)" stroke-width="1" opacity="0.7019607843137254" d="M 276.5 308 L 277.5 310 L 276.5 308 Z " /><path fill="rgb(0,0,0)" stroke="rgb(0,0,0)" stroke-width="1" opacity="0.7019607843137254" d="M 474.5 308 L 475 310.5 L 474 310.5 L 474.5 308 Z " /><path fill="rgb(0,0,0)" stroke="rgb(0,0,0)" stroke-width="1" opacity="0.7019607843137254" d="M 139.5 311 L 142 311.5 L 139.5 312 L 139.5 311 Z " /><path fill="rgb(0,0,0)" stroke="rgb(0,0,0)" stroke-width="1" opacity="0.7019607843137254" d="M 146.5 312 Q 151 311.5 151 312.5 L 151 330 L 161.5 330 L 161.5 331 L 150 331 L 150 313.5 L 146.5 313 L 146.5 312 Z " /><path fill="rgb(0,0,0)" stroke="rgb(0,0,0)" stroke-width="1" opacity="0.7019607843137254" d="M 279.5 312 L 282.5 316 L 279.5 312 Z " /><path fill="rgb(0,0,0)" stroke="rgb(0,0,0)" stroke-width="1" opacity="0.7019607843137254" d="M 341.5 313 L 472 313.5 L 341.5 314 L 341.5 313 Z " /><path fill="rgb(0,0,0)" stroke="rgb(0,0,0)" stroke-width="1" opacity="0.7019607843137254" d="M 289.5 322 L 292.5 326 L 289.5 322 Z " /><path fill="rgb(0,0,0)" stroke="rgb(0,0,0)" stroke-width="1" opacity="0.7019607843137254" d="M 295.5 327 L 296.5 329 L 295.5 327 Z " /><path fill="rgb(0,0,0)" stroke="rgb(0,0,0)" stroke-width="1" opacity="0.7019607843137254" d="M 500.5 328 L 499.5 330 L 500.5 328 Z " /><path fill="rgb(0,0,0)" stroke="rgb(0,0,0)" stroke-width="1" opacity="0.7019607843137254" d="M 301.5 331 L 302.5 333 L 301.5 331 Z " /><path fill="rgb(0,0,0)" stroke="rgb(0,0,0)" stroke-width="1" opacity="0.7019607843137254" d="M 497.5 332 L 493.5 337 L 497.5 332 Z " /><path fill="rgb(0,0,0)" stroke="rgb(0,0,0)" stroke-width="1" opacity="0.7019607843137254" d="M 308.5 335 L 311 336.5 L 309.5 337 L 308.5 335 Z " /><path fill="rgb(0,0,0)" stroke="rgb(0,0,0)" stroke-width="1" opacity="0.7019607843137254" d="M 490.5 338 L 489.5 340 L 490.5 338 Z " /><path fill="rgb(0,0,0)" stroke="rgb(0,0,0)" stroke-width="1" opacity="0.7019607843137254" d="M 334.5 344 L 338 344.5 L 334.5 345 L 334.5 344 Z " /><path fill="rgb(0,0,0)" stroke="rgb(0,0,0)" stroke-width="1" opacity="0.7019607843137254" d="M 343.5 345 L 429 345.5 L 343.5 346 L 343.5 345 Z " /><path fill="rgb(0,0,0)" stroke="rgb(0,0,0)" stroke-width="1" opacity="0.7019607843137254" d="M 461.5 345 L 473 345.5 L 461 346 L 460.5 425 L 460 346.5 L 461.5 345 Z " /><path fill="rgb(0,0,0)" stroke="rgb(0,0,0)" stroke-width="1" opacity="0.7019607843137254" d="M 37.5 419 L 38 421.5 L 37 421.5 L 37.5 419 Z " /><path fill="rgb(0,0,0)" stroke="rgb(0,0,0)" stroke-width="1" opacity="0.7019607843137254" d="M 38.5 423 L 40.5 426 L 38.5 423 Z " /><path fill="rgb(0,0,0)" stroke="rgb(0,0,0)" stroke-width="1" opacity="0.7019607843137254" d="M 427.5 423 L 425.5 426 L 427.5 423 Z " /><path fill="rgb(0,0,0)" stroke="rgb(0,0,0)" stroke-width="1" opacity="0.7019607843137254" d="M 42.5 426 L 45 426.5 L 42.5 427 L 42.5 426 Z " /><path fill="rgb(0,0,0)" stroke="rgb(0,0,0)" stroke-width="1" opacity="0.7019607843137254" d="M 421.5 426 L 424 426.5 L 421.5 427 L 421.5 426 Z " /><path fill="rgb(0,0,0)" stroke="rgb(0,0,0)" stroke-width="1" opacity="0.7019607843137254" d="M 11.5 440 L 12.5 442 L 11.5 440 Z " /><path fill="rgb(0,0,0)" stroke="rgb(0,0,0)" stroke-width="1" opacity="0.7019607843137254" d="M 452.5 443 L 445.5 451 L 452.5 443 Z " /><path fill="rgb(0,0,0)" stroke="rgb(0,0,0)" stroke-width="1" opacity="0.7019607843137254" d="M 14.5 444 L 19.5 450 L 14.5 444 Z " /><path fill="rgb(0,0,0)" stroke="rgb(0,0,0)" stroke-width="1" opacity="0.7019607843137254" d="M 22.5 451 L 23.5 453 L 22.5 451 Z " /><path fill="rgb(0,0,0)" stroke="rgb(0,0,0)" stroke-width="1" opacity="0.7019607843137254" d="M 443.5 451 L 442.5 453 L 443.5 451 Z " /><path fill="rgb(0,0,0)" stroke="rgb(0,0,0)" stroke-width="1" opacity="0.7019607843137254" d="M 40.5 458 L 426 458.5 L 40.5 459 L 40.5 458 Z " /><path fill="rgb(0,0,0)" stroke="rgb(0,0,0)" stroke-width="1" opacity="0.996078431372549" d="M 37.5 54 L 427.5 54 Q 443.7 57.8 452 69.5 Q 457.1 75.9 459 85.5 L 459 165.5 L 460.5 167 Q 472.6 165.4 480.5 168 Q 491.4 171.6 498 179.5 L 506 195.5 L 506 315.5 Q 502.1 330.1 491.5 338 L 476.5 345 L 461.5 345 L 460 346.5 L 460 427.5 Q 456.2 443.2 444.5 451 Q 438.1 456.1 428.5 458 L 37.5 458 Q 21.3 454.2 13 442.5 Q 7.9 436.1 6 426.5 L 6 85.5 Q 9.8 69.3 21.5 61 Q 27.9 55.9 37.5 54 Z M 43 85 L 41 86 L 37 91 L 37 422 L 38 424 L 43 427 L 424 427 L 426 426 L 429 422 L 429 345 L 339 345 Q 337 343 332 344 Q 305 338 289 322 Q 266 303 260 269 L 260 244 L 262 234 Q 269 211 283 196 Q 294 184 309 176 L 332 168 Q 336 169 338 167 L 429 167 L 429 91 L 428 89 L 424 85 L 43 85 Z M 342 198 L 326 202 L 310 212 Q 294 224 290 248 L 290 265 L 292 274 Q 296 286 304 295 L 320 307 L 332 312 L 342 314 L 472 314 L 475 311 L 475 202 L 472 198 L 342 198 Z " /><path fill="rgb(0,0,0)" stroke="rgb(0,0,0)" stroke-width="1" opacity="0.996078431372549" d="M 151 184 L 161 184 L 161 201 L 168.5 201 L 176.5 203 L 184 207.5 L 179.5 218 Q 170.6 210.4 152.5 212 Q 144.7 213.2 141 218.5 Q 137.5 222 138 229.5 L 143.5 239 L 153.5 245 L 170.5 252 L 185 264.5 Q 189.7 271.3 191 281.5 Q 188.5 283 190 288.5 L 187 295.5 L 179.5 304 Q 172.4 309.7 162 311 L 162 330 L 151 330 L 151 312 L 142.5 312 L 130.5 309 L 123 304.5 L 127.5 294 Q 138 302.5 158.5 301 Q 166.7 299.2 171 293.5 Q 175.5 289 174 278.5 Q 171.4 271.1 165.5 267 L 138.5 254 L 128 244.5 L 124 234.5 L 124 225.5 Q 126.1 214.6 133.5 209 Q 140.2 203 151 202 L 151 184 Z " /><path fill="rgb(0,0,0)" stroke="rgb(0,0,0)" stroke-width="1" opacity="0.996078431372549" d="M 335 240 L 367 240 L 367 272 L 335 272 L 335 240 Z " /></svg>