<svg width="512" height="512" version="1.1" xmlns="http://www.w3.org/2000/svg" desc="Created with imagetracer.js version 1.2.6" ><path fill="rgb(0,0,0)" stroke="rgb(0,0,0)" stroke-width="1" opacity="0" d="M 0 0 L 512 0 L 512 411 L 474 411 L 474 452 L 512 452 L 512 512 L 0.5 512 L 0 511.5 L 0 452 L 38 452 L 38 412.5 L 36.5 411 L 0 411 L 0 0 Z M 203 60 L 203 452 L 204 452 L 241 452 L 241 61 L 241 60 L 203 60 Z M 406 130 L 406 452 L 407 452 L 444 452 L 444 131 L 444 130 L 406 130 Z M 271 200 L 271 452 L 309 452 L 309 452 L 309 202 L 308 200 L 271 200 Z M 68 271 L 68 452 L 69 452 L 106 452 L 106 272 L 106 271 L 68 271 Z M 339 271 L 339 452 L 340 452 L 377 452 L 377 272 L 377 271 L 339 271 Z M 135 359 L 135 452 L 173 452 L 173 359 L 135 359 Z " /><path fill="rgb(0,0,0)" stroke="rgb(0,0,0)" stroke-width="1" opacity="0.6196078431372549" d="M 203.5 60 L 204 451.5 L 203 451.5 L 203.5 60 Z " /><path fill="rgb(0,0,0)" stroke="rgb(0,0,0)" stroke-width="1" opacity="0.6196078431372549" d="M 406 130 L 444 130.5 L 407 131 L 406.5 452 L 406 130 Z " /><path fill="rgb(0,0,0)" stroke="rgb(0,0,0)" stroke-width="1" opacity="0.6196078431372549" d="M 271.5 200 L 307.5 200 L 309 201.5 L 308.5 452 L 308 201 L 271.5 201 L 271.5 200 Z " /><path fill="rgb(0,0,0)" stroke="rgb(0,0,0)" stroke-width="1" opacity="0.6196078431372549" d="M 105.5 271 L 106 451.5 L 105 451.5 L 105.5 271 Z " /><path fill="rgb(0,0,0)" stroke="rgb(0,0,0)" stroke-width="1" opacity="0.6196078431372549" d="M 376.5 271 L 377 451.5 L 376 451.5 L 376.5 271 Z " /><path fill="rgb(0,0,0)" stroke="rgb(0,0,0)" stroke-width="1" opacity="0.6196078431372549" d="M 135.5 359 L 136 451.5 L 135 451.5 L 135.5 359 Z " /><path fill="rgb(0,0,0)" stroke="rgb(0,0,0)" stroke-width="1" opacity="0.6196078431372549" d="M 0.5 411 L 36.5 411 L 38 412.5 L 37.5 452 L 37 412 L 0.5 412 L 0.5 411 Z " /><path fill="rgb(0,0,0)" stroke="rgb(0,0,0)" stroke-width="1" opacity="0.6196078431372549" d="M 474 411 L 512 411.5 L 475 412 L 474.5 452 L 474 411 Z " /><path fill="rgb(0,0,0)" stroke="rgb(0,0,0)" stroke-width="1" opacity="1" d="M 204 60 L 240.5 60 L 241 60.5 L 241 452 L 204.5 452 L 204 451.5 L 204 60 Z " /><path fill="rgb(0,0,0)" stroke="rgb(0,0,0)" stroke-width="1" opacity="1" d="M 407 131 L 443.5 131 L 444 131.5 L 444 452 L 407.5 452 L 407 451.5 L 407 131 Z " /><path fill="rgb(0,0,0)" stroke="rgb(0,0,0)" stroke-width="1" opacity="1" d="M 271 201 L 307.5 201 L 308 201.5 L 308 452 L 271.5 452 L 271 451.5 L 271 201 Z " /><path fill="rgb(0,0,0)" stroke="rgb(0,0,0)" stroke-width="1" opacity="1" d="M 68 271 L 104.5 271 L 105 271.5 L 105 452 L 68.5 452 L 68 451.5 L 68 271 Z " /><path fill="rgb(0,0,0)" stroke="rgb(0,0,0)" stroke-width="1" opacity="1" d="M 339 271 L 375.5 271 L 376 271.5 L 376 452 L 339.5 452 L 339 451.5 L 339 271 Z " /><path fill="rgb(0,0,0)" stroke="rgb(0,0,0)" stroke-width="1" opacity="1" d="M 136 359 L 173 359 L 173 452 L 136 452 L 136 359 Z " /><path fill="rgb(0,0,0)" stroke="rgb(0,0,0)" stroke-width="1" opacity="1" d="M 0 412 L 37 412 L 37 452 L 0 452 L 0 412 Z " /><path fill="rgb(0,0,0)" stroke="rgb(0,0,0)" stroke-width="1" opacity="1" d="M 475 412 L 512 412 L 512 452 L 475 452 L 475 412 Z " /></svg>