<svg width="512" height="512" version="1.1" xmlns="http://www.w3.org/2000/svg" desc="Created with imagetracer.js version 1.2.6" ><path fill="rgb(207,245,221)" stroke="rgb(207,245,221)" stroke-width="1" opacity="1" d="M 250.5 87 L 264 87.5 L 250.5 88 L 250.5 87 Z " /><path fill="rgb(207,245,221)" stroke="rgb(207,245,221)" stroke-width="1" opacity="1" d="M 237.5 88 L 242 88.5 L 237.5 89 L 237.5 88 Z " /><path fill="rgb(207,245,221)" stroke="rgb(207,245,221)" stroke-width="1" opacity="1" d="M 271.5 88 L 276 88.5 L 271.5 89 L 271.5 88 Z " /><path fill="rgb(207,245,221)" stroke="rgb(207,245,221)" stroke-width="1" opacity="1" d="M 230.5 89 L 233 89.5 L 230.5 90 L 230.5 89 Z " /><path fill="rgb(207,245,221)" stroke="rgb(207,245,221)" stroke-width="1" opacity="1" d="M 280.5 89 L 284 89.5 L 280.5 90 L 280.5 89 Z " /><path fill="rgb(207,245,221)" stroke="rgb(207,245,221)" stroke-width="1" opacity="1" d="M 224.5 90 L 227 90.5 L 224.5 91 L 224.5 90 Z " /><path fill="rgb(207,245,221)" stroke="rgb(207,245,221)" stroke-width="1" opacity="1" d="M 286.5 90 L 289 90.5 L 286.5 91 L 286.5 90 Z " /><path fill="rgb(207,245,221)" stroke="rgb(207,245,221)" stroke-width="1" opacity="1" d="M 338.5 108 L 339.5 110 L 338.5 108 Z " /><path fill="rgb(207,245,221)" stroke="rgb(207,245,221)" stroke-width="1" opacity="1" d="M 173.5 109 L 172.5 111 L 173.5 109 Z " /><path fill="rgb(207,245,221)" stroke="rgb(207,245,221)" stroke-width="1" opacity="1" d="M 343.5 111 L 344.5 113 L 343.5 111 Z " /><path fill="rgb(207,245,221)" stroke="rgb(207,245,221)" stroke-width="1" opacity="1" d="M 168.5 112 L 167.5 114 L 168.5 112 Z " /><path fill="rgb(207,245,221)" stroke="rgb(207,245,221)" stroke-width="1" opacity="1" d="M 165.5 114 L 164.5 116 L 165.5 114 Z " /><path fill="rgb(207,245,221)" stroke="rgb(207,245,221)" stroke-width="1" opacity="1" d="M 162.5 116 L 161.5 118 L 162.5 116 Z " /><path fill="rgb(207,245,221)" stroke="rgb(207,245,221)" stroke-width="1" opacity="1" d="M 240.5 116 L 245 116.5 L 240.5 117 L 240.5 116 Z " /><path fill="rgb(207,245,221)" stroke="rgb(207,245,221)" stroke-width="1" opacity="1" d="M 269.5 116 L 274 116.5 L 269.5 117 L 269.5 116 Z " /><path fill="rgb(207,245,221)" stroke="rgb(207,245,221)" stroke-width="1" opacity="1" d="M 233.5 117 L 236 117.5 L 233.5 118 L 233.5 117 Z " /><path fill="rgb(207,245,221)" stroke="rgb(207,245,221)" stroke-width="1" opacity="1" d="M 352.5 117 L 353.5 119 L 352.5 117 Z " /><path fill="rgb(207,245,221)" stroke="rgb(207,245,221)" stroke-width="1" opacity="1" d="M 159.5 118 L 158.5 120 L 159.5 118 Z " /><path fill="rgb(207,245,221)" stroke="rgb(207,245,221)" stroke-width="1" opacity="1" d="M 283.5 118 L 286 118.5 L 283.5 119 L 283.5 118 Z " /><path fill="rgb(207,245,221)" stroke="rgb(207,245,221)" stroke-width="1" opacity="1" d="M 355.5 119 L 356.5 121 L 355.5 119 Z " /><path fill="rgb(207,245,221)" stroke="rgb(207,245,221)" stroke-width="1" opacity="1" d="M 155.5 121 L 154.5 123 L 155.5 121 Z " /><path fill="rgb(207,245,221)" stroke="rgb(207,245,221)" stroke-width="1" opacity="1" d="M 359.5 122 L 361.5 125 L 359.5 122 Z " /><path fill="rgb(207,245,221)" stroke="rgb(207,245,221)" stroke-width="1" opacity="1" d="M 151.5 124 L 148.5 128 L 151.5 124 Z " /><path fill="rgb(207,245,221)" stroke="rgb(207,245,221)" stroke-width="1" opacity="1" d="M 364.5 126 L 367.5 130 L 364.5 126 Z " /><path fill="rgb(207,245,221)" stroke="rgb(207,245,221)" stroke-width="1" opacity="1" d="M 145.5 129 L 131.5 144 L 145.5 129 Z " /><path fill="rgb(207,245,221)" stroke="rgb(207,245,221)" stroke-width="1" opacity="1" d="M 325.5 133 L 326.5 135 L 325.5 133 Z " /><path fill="rgb(207,245,221)" stroke="rgb(207,245,221)" stroke-width="1" opacity="1" d="M 186.5 134 L 185.5 136 L 186.5 134 Z " /><path fill="rgb(207,245,221)" stroke="rgb(207,245,221)" stroke-width="1" opacity="1" d="M 374.5 135 L 377.5 139 L 374.5 135 Z " /><path fill="rgb(207,245,221)" stroke="rgb(207,245,221)" stroke-width="1" opacity="1" d="M 330.5 136 L 331.5 138 L 330.5 136 Z " /><path fill="rgb(207,245,221)" stroke="rgb(207,245,221)" stroke-width="1" opacity="1" d="M 333.5 138 L 334.5 140 L 333.5 138 Z " /><path fill="rgb(207,245,221)" stroke="rgb(207,245,221)" stroke-width="1" opacity="1" d="M 178.5 139 L 177.5 141 L 178.5 139 Z " /><path fill="rgb(207,245,221)" stroke="rgb(207,245,221)" stroke-width="1" opacity="1" d="M 336.5 140 L 337.5 142 L 336.5 140 Z " /><path fill="rgb(207,245,221)" stroke="rgb(207,245,221)" stroke-width="1" opacity="1" d="M 174.5 142 L 173.5 144 L 174.5 142 Z " /><path fill="rgb(207,245,221)" stroke="rgb(207,245,221)" stroke-width="1" opacity="1" d="M 340.5 143 L 341.5 145 L 340.5 143 Z " /><path fill="rgb(207,245,221)" stroke="rgb(207,245,221)" stroke-width="1" opacity="1" d="M 382.5 144 L 386.5 149 L 382.5 144 Z " /><path fill="rgb(207,245,221)" stroke="rgb(207,245,221)" stroke-width="1" opacity="1" d="M 170.5 145 L 169.5 147 L 170.5 145 Z " /><path fill="rgb(207,245,221)" stroke="rgb(207,245,221)" stroke-width="1" opacity="1" d="M 344.5 146 L 346.5 149 L 344.5 146 Z " /><path fill="rgb(207,245,221)" stroke="rgb(207,245,221)" stroke-width="1" opacity="1" d="M 128.5 147 L 125.5 151 L 128.5 147 Z " /><path fill="rgb(207,245,221)" stroke="rgb(207,245,221)" stroke-width="1" opacity="1" d="M 165.5 149 L 160.5 155 L 165.5 149 Z " /><path fill="rgb(207,245,221)" stroke="rgb(207,245,221)" stroke-width="1" opacity="1" d="M 350.5 151 L 360.5 162 L 350.5 151 Z " /><path fill="rgb(207,245,221)" stroke="rgb(207,245,221)" stroke-width="1" opacity="1" d="M 388.5 151 L 389.5 153 L 388.5 151 Z " /><path fill="rgb(207,245,221)" stroke="rgb(207,245,221)" stroke-width="1" opacity="1" d="M 123.5 153 L 122.5 155 L 123.5 153 Z " /><path fill="rgb(207,245,221)" stroke="rgb(207,245,221)" stroke-width="1" opacity="1" d="M 391.5 155 L 392.5 157 L 391.5 155 Z " /><path fill="rgb(207,245,221)" stroke="rgb(207,245,221)" stroke-width="1" opacity="1" d="M 120.5 157 L 119.5 159 L 120.5 157 Z " /><path fill="rgb(207,245,221)" stroke="rgb(207,245,221)" stroke-width="1" opacity="1" d="M 156.5 158 L 150.5 165 L 156.5 158 Z " /><path fill="rgb(207,245,221)" stroke="rgb(207,245,221)" stroke-width="1" opacity="1" d="M 394.5 159 L 395.5 161 L 394.5 159 Z " /><path fill="rgb(207,245,221)" stroke="rgb(207,245,221)" stroke-width="1" opacity="1" d="M 118.5 160 L 117.5 162 L 118.5 160 Z " /><path fill="rgb(207,245,221)" stroke="rgb(207,245,221)" stroke-width="1" opacity="1" d="M 396.5 162 L 397.5 164 L 396.5 162 Z " /><path fill="rgb(207,245,221)" stroke="rgb(207,245,221)" stroke-width="1" opacity="1" d="M 116.5 163 L 115.5 165 L 116.5 163 Z " /><path fill="rgb(207,245,221)" stroke="rgb(207,245,221)" stroke-width="1" opacity="1" d="M 363.5 165 L 366.5 169 L 363.5 165 Z " /><path fill="rgb(207,245,221)" stroke="rgb(207,245,221)" stroke-width="1" opacity="1" d="M 398.5 165 L 399.5 167 L 398.5 165 Z " /><path fill="rgb(207,245,221)" stroke="rgb(207,245,221)" stroke-width="1" opacity="1" d="M 114.5 166 L 113.5 168 L 114.5 166 Z " /><path fill="rgb(207,245,221)" stroke="rgb(207,245,221)" stroke-width="1" opacity="1" d="M 147.5 168 L 146.5 170 L 147.5 168 Z " /><path fill="rgb(207,245,221)" stroke="rgb(207,245,221)" stroke-width="1" opacity="1" d="M 401.5 170 L 402.5 172 L 401.5 170 Z " /><path fill="rgb(207,245,221)" stroke="rgb(207,245,221)" stroke-width="1" opacity="1" d="M 111.5 171 L 110.5 173 L 111.5 171 Z " /><path fill="rgb(207,245,221)" stroke="rgb(207,245,221)" stroke-width="1" opacity="1" d="M 368.5 171 L 369.5 173 L 368.5 171 Z " /><path fill="rgb(207,245,221)" stroke="rgb(207,245,221)" stroke-width="1" opacity="1" d="M 144.5 172 L 143.5 174 L 144.5 172 Z " /><path fill="rgb(207,245,221)" stroke="rgb(207,245,221)" stroke-width="1" opacity="1" d="M 370.5 174 L 371.5 176 L 370.5 174 Z " /><path fill="rgb(207,245,221)" stroke="rgb(207,245,221)" stroke-width="1" opacity="1" d="M 141.5 176 L 140.5 178 L 141.5 176 Z " /><path fill="rgb(207,245,221)" stroke="rgb(207,245,221)" stroke-width="1" opacity="1" d="M 139.5 179 L 138.5 181 L 139.5 179 Z " /><path fill="rgb(207,245,221)" stroke="rgb(207,245,221)" stroke-width="1" opacity="1" d="M 210.5 179 L 212.5 182 L 210.5 179 Z " /><path fill="rgb(207,245,221)" stroke="rgb(207,245,221)" stroke-width="1" opacity="1" d="M 376.5 183 L 377.5 185 L 376.5 183 Z " /><path fill="rgb(207,245,221)" stroke="rgb(207,245,221)" stroke-width="1" opacity="1" d="M 136.5 184 L 135.5 186 L 136.5 184 Z " /><path fill="rgb(207,245,221)" stroke="rgb(207,245,221)" stroke-width="1" opacity="1" d="M 182.5 187 L 180.5 190 L 182.5 187 Z " /><path fill="rgb(207,245,221)" stroke="rgb(207,245,221)" stroke-width="1" opacity="1" d="M 179.5 191 L 178.5 193 L 179.5 191 Z " /><path fill="rgb(207,245,221)" stroke="rgb(207,245,221)" stroke-width="1" opacity="1" d="M 172.5 206 L 173 208.5 L 172 208.5 L 172.5 206 Z " /><path fill="rgb(207,245,221)" stroke="rgb(207,245,221)" stroke-width="1" opacity="1" d="M 171.5 212 L 172 223.5 L 171 223.5 L 171.5 212 Z " /><path fill="rgb(207,245,221)" stroke="rgb(207,245,221)" stroke-width="1" opacity="1" d="M 93.5 214 L 94 216.5 L 93 216.5 L 93.5 214 Z " /><path fill="rgb(207,245,221)" stroke="rgb(207,245,221)" stroke-width="1" opacity="1" d="M 228.5 218 L 229 222.5 L 228 222.5 L 228.5 218 Z " /><path fill="rgb(207,245,221)" stroke="rgb(207,245,221)" stroke-width="1" opacity="1" d="M 91.5 223 L 92 225.5 L 91 225.5 L 91.5 223 Z " /><path fill="rgb(207,245,221)" stroke="rgb(207,245,221)" stroke-width="1" opacity="1" d="M 422.5 226 L 423 228.5 L 422 228.5 L 422.5 226 Z " /><path fill="rgb(207,245,221)" stroke="rgb(207,245,221)" stroke-width="1" opacity="1" d="M 119.5 227 L 120 229.5 L 119 229.5 L 119.5 227 Z " /><path fill="rgb(207,245,221)" stroke="rgb(207,245,221)" stroke-width="1" opacity="1" d="M 225.5 228 L 224.5 230 L 225.5 228 Z " /><path fill="rgb(207,245,221)" stroke="rgb(207,245,221)" stroke-width="1" opacity="1" d="M 90.5 229 L 91 231.5 L 90 231.5 L 90.5 229 Z " /><path fill="rgb(207,245,221)" stroke="rgb(207,245,221)" stroke-width="1" opacity="1" d="M 394.5 229 L 395 231.5 L 394 231.5 L 394.5 229 Z " /><path fill="rgb(207,245,221)" stroke="rgb(207,245,221)" stroke-width="1" opacity="1" d="M 118.5 232 L 119 234.5 L 118 234.5 L 118.5 232 Z " /><path fill="rgb(207,245,221)" stroke="rgb(207,245,221)" stroke-width="1" opacity="1" d="M 222.5 232 L 219.5 236 L 222.5 232 Z " /><path fill="rgb(207,245,221)" stroke="rgb(207,245,221)" stroke-width="1" opacity="1" d="M 423.5 233 L 424 236.5 L 423 236.5 L 423.5 233 Z " /><path fill="rgb(207,245,221)" stroke="rgb(207,245,221)" stroke-width="1" opacity="1" d="M 395.5 235 L 396 238.5 L 395 238.5 L 395.5 235 Z " /><path fill="rgb(207,245,221)" stroke="rgb(207,245,221)" stroke-width="1" opacity="1" d="M 89.5 236 L 90 240.5 L 89 240.5 L 89.5 236 Z " /><path fill="rgb(207,245,221)" stroke="rgb(207,245,221)" stroke-width="1" opacity="1" d="M 117.5 239 L 118 243.5 L 117 243.5 L 117.5 239 Z " /><path fill="rgb(207,245,221)" stroke="rgb(207,245,221)" stroke-width="1" opacity="1" d="M 214.5 242 L 215 244.5 L 214 244.5 L 214.5 242 Z " /><path fill="rgb(207,245,221)" stroke="rgb(207,245,221)" stroke-width="1" opacity="1" d="M 424.5 242 L 425 252.5 L 424 252.5 L 424.5 242 Z " /><path fill="rgb(207,245,221)" stroke="rgb(207,245,221)" stroke-width="1" opacity="1" d="M 396.5 244 L 397 266.5 L 396 266.5 L 396.5 244 Z " /><path fill="rgb(207,245,221)" stroke="rgb(207,245,221)" stroke-width="1" opacity="1" d="M 180.5 249 L 181.5 251 L 180.5 249 Z " /><path fill="rgb(207,245,221)" stroke="rgb(207,245,221)" stroke-width="1" opacity="1" d="M 88.5 250 L 89 261.5 L 88 261.5 L 88.5 250 Z " /><path fill="rgb(207,245,221)" stroke="rgb(207,245,221)" stroke-width="1" opacity="1" d="M 217.5 250 L 218.5 252 L 217.5 250 Z " /><path fill="rgb(207,245,221)" stroke="rgb(207,245,221)" stroke-width="1" opacity="1" d="M 219.5 253 L 220.5 255 L 219.5 253 Z " /><path fill="rgb(207,245,221)" stroke="rgb(207,245,221)" stroke-width="1" opacity="1" d="M 183.5 254 L 184.5 256 L 183.5 254 Z " /><path fill="rgb(207,245,221)" stroke="rgb(207,245,221)" stroke-width="1" opacity="1" d="M 221.5 256 L 222.5 258 L 221.5 256 Z " /><path fill="rgb(207,245,221)" stroke="rgb(207,245,221)" stroke-width="1" opacity="1" d="M 185.5 257 L 186.5 259 L 185.5 257 Z " /><path fill="rgb(207,245,221)" stroke="rgb(207,245,221)" stroke-width="1" opacity="1" d="M 424.5 259 L 425 268.5 L 424 268.5 L 424.5 259 Z " /><path fill="rgb(207,245,221)" stroke="rgb(207,245,221)" stroke-width="1" opacity="1" d="M 187.5 260 L 188.5 262 L 187.5 260 Z " /><path fill="rgb(207,245,221)" stroke="rgb(207,245,221)" stroke-width="1" opacity="1" d="M 224.5 260 L 226.5 263 L 224.5 260 Z " /><path fill="rgb(207,245,221)" stroke="rgb(207,245,221)" stroke-width="1" opacity="1" d="M 190.5 264 L 191.5 266 L 190.5 264 Z " /><path fill="rgb(207,245,221)" stroke="rgb(207,245,221)" stroke-width="1" opacity="1" d="M 228.5 265 L 233.5 271 L 228.5 265 Z " /><path fill="rgb(207,245,221)" stroke="rgb(207,245,221)" stroke-width="1" opacity="1" d="M 117.5 267 L 118 271.5 L 117 271.5 L 117.5 267 Z " /><path fill="rgb(207,245,221)" stroke="rgb(207,245,221)" stroke-width="1" opacity="1" d="M 192.5 267 L 193.5 269 L 192.5 267 Z " /><path fill="rgb(207,245,221)" stroke="rgb(207,245,221)" stroke-width="1" opacity="1" d="M 89.5 270 L 90 274.5 L 89 274.5 L 89.5 270 Z " /><path fill="rgb(207,245,221)" stroke="rgb(207,245,221)" stroke-width="1" opacity="1" d="M 195.5 271 L 197.5 274 L 195.5 271 Z " /><path fill="rgb(207,245,221)" stroke="rgb(207,245,221)" stroke-width="1" opacity="1" d="M 395.5 272 L 396 275.5 L 395 275.5 L 395.5 272 Z " /><path fill="rgb(207,245,221)" stroke="rgb(207,245,221)" stroke-width="1" opacity="1" d="M 236.5 273 L 241.5 279 L 236.5 273 Z " /><path fill="rgb(207,245,221)" stroke="rgb(207,245,221)" stroke-width="1" opacity="1" d="M 423.5 274 L 424 277.5 L 423 277.5 L 423.5 274 Z " /><path fill="rgb(207,245,221)" stroke="rgb(207,245,221)" stroke-width="1" opacity="1" d="M 118.5 276 L 119 278.5 L 118 278.5 L 118.5 276 Z " /><path fill="rgb(207,245,221)" stroke="rgb(207,245,221)" stroke-width="1" opacity="1" d="M 199.5 276 L 202.5 280 L 199.5 276 Z " /><path fill="rgb(207,245,221)" stroke="rgb(207,245,221)" stroke-width="1" opacity="1" d="M 298.5 276 L 303 276.5 L 298.5 277 L 298.5 276 Z " /><path fill="rgb(207,245,221)" stroke="rgb(207,245,221)" stroke-width="1" opacity="1" d="M 90.5 279 L 91 282.5 L 90 282.5 L 90.5 279 Z " /><path fill="rgb(207,245,221)" stroke="rgb(207,245,221)" stroke-width="1" opacity="1" d="M 295.5 279 L 294.5 281 L 295.5 279 Z " /><path fill="rgb(207,245,221)" stroke="rgb(207,245,221)" stroke-width="1" opacity="1" d="M 394.5 279 L 395 281.5 L 394 281.5 L 394.5 279 Z " /><path fill="rgb(207,245,221)" stroke="rgb(207,245,221)" stroke-width="1" opacity="1" d="M 244.5 280 L 246.5 283 L 244.5 280 Z " /><path fill="rgb(207,245,221)" stroke="rgb(207,245,221)" stroke-width="1" opacity="1" d="M 119.5 282 L 120 284.5 L 119 284.5 L 119.5 282 Z " /><path fill="rgb(207,245,221)" stroke="rgb(207,245,221)" stroke-width="1" opacity="1" d="M 204.5 282 L 213.5 292 L 204.5 282 Z " /><path fill="rgb(207,245,221)" stroke="rgb(207,245,221)" stroke-width="1" opacity="1" d="M 422.5 282 L 423 284.5 L 422 284.5 L 422.5 282 Z " /><path fill="rgb(207,245,221)" stroke="rgb(207,245,221)" stroke-width="1" opacity="1" d="M 248.5 283 L 249.5 285 L 248.5 283 Z " /><path fill="rgb(207,245,221)" stroke="rgb(207,245,221)" stroke-width="1" opacity="1" d="M 292.5 283 L 290.5 286 L 292.5 283 Z " /><path fill="rgb(207,245,221)" stroke="rgb(207,245,221)" stroke-width="1" opacity="1" d="M 91.5 285 L 92 287.5 L 91 287.5 L 91.5 285 Z " /><path fill="rgb(207,245,221)" stroke="rgb(207,245,221)" stroke-width="1" opacity="1" d="M 288.5 288 L 286.5 291 L 288.5 288 Z " /><path fill="rgb(207,245,221)" stroke="rgb(207,245,221)" stroke-width="1" opacity="1" d="M 259.5 290 L 260.5 292 L 259.5 290 Z " /><path fill="rgb(207,245,221)" stroke="rgb(207,245,221)" stroke-width="1" opacity="1" d="M 420.5 292 L 421 294.5 L 420 294.5 L 420.5 292 Z " /><path fill="rgb(207,245,221)" stroke="rgb(207,245,221)" stroke-width="1" opacity="1" d="M 215.5 293 L 222.5 301 L 215.5 293 Z " /><path fill="rgb(207,245,221)" stroke="rgb(207,245,221)" stroke-width="1" opacity="1" d="M 283.5 294 L 280.5 298 L 283.5 294 Z " /><path fill="rgb(207,245,221)" stroke="rgb(207,245,221)" stroke-width="1" opacity="1" d="M 226.5 303 L 228.5 306 L 226.5 303 Z " /><path fill="rgb(207,245,221)" stroke="rgb(207,245,221)" stroke-width="1" opacity="1" d="M 341.5 303 L 342 306.5 L 341 306.5 L 341.5 303 Z " /><path fill="rgb(207,245,221)" stroke="rgb(207,245,221)" stroke-width="1" opacity="1" d="M 231.5 307 L 233.5 310 L 231.5 307 Z " /><path fill="rgb(207,245,221)" stroke="rgb(207,245,221)" stroke-width="1" opacity="1" d="M 235.5 310 L 236.5 312 L 235.5 310 Z " /><path fill="rgb(207,245,221)" stroke="rgb(207,245,221)" stroke-width="1" opacity="1" d="M 249.5 319 L 250.5 321 L 249.5 319 Z " /><path fill="rgb(207,245,221)" stroke="rgb(207,245,221)" stroke-width="1" opacity="1" d="M 335.5 321 L 332.5 325 L 335.5 321 Z " /><path fill="rgb(207,245,221)" stroke="rgb(207,245,221)" stroke-width="1" opacity="1" d="M 133.5 322 L 134.5 324 L 133.5 322 Z " /><path fill="rgb(207,245,221)" stroke="rgb(207,245,221)" stroke-width="1" opacity="1" d="M 329.5 326 L 328.5 328 L 329.5 326 Z " /><path fill="rgb(207,245,221)" stroke="rgb(207,245,221)" stroke-width="1" opacity="1" d="M 408.5 327 L 409 328.5 L 406.5 332 L 407 330.5 L 408.5 327 Z " /><path fill="rgb(207,245,221)" stroke="rgb(207,245,221)" stroke-width="1" opacity="1" d="M 376.5 328 L 375.5 330 L 376.5 328 Z " /><path fill="rgb(207,245,221)" stroke="rgb(207,245,221)" stroke-width="1" opacity="1" d="M 137.5 329 L 138.5 331 L 137.5 329 Z " /><path fill="rgb(207,245,221)" stroke="rgb(207,245,221)" stroke-width="1" opacity="1" d="M 374.5 331 L 373.5 333 L 374.5 331 Z " /><path fill="rgb(207,245,221)" stroke="rgb(207,245,221)" stroke-width="1" opacity="1" d="M 139.5 332 L 140.5 334 L 139.5 332 Z " /><path fill="rgb(207,245,221)" stroke="rgb(207,245,221)" stroke-width="1" opacity="1" d="M 372.5 334 L 371.5 336 L 372.5 334 Z " /><path fill="rgb(207,245,221)" stroke="rgb(207,245,221)" stroke-width="1" opacity="1" d="M 108.5 335 L 109.5 337 L 108.5 335 Z " /><path fill="rgb(207,245,221)" stroke="rgb(207,245,221)" stroke-width="1" opacity="1" d="M 289.5 335 L 292 335.5 L 289.5 336 L 289.5 335 Z " /><path fill="rgb(207,245,221)" stroke="rgb(207,245,221)" stroke-width="1" opacity="1" d="M 296.5 336 L 305 336.5 L 296.5 337 L 296.5 336 Z " /><path fill="rgb(207,245,221)" stroke="rgb(207,245,221)" stroke-width="1" opacity="1" d="M 370.5 337 L 369.5 339 L 370.5 337 Z " /><path fill="rgb(207,245,221)" stroke="rgb(207,245,221)" stroke-width="1" opacity="1" d="M 367.5 341 L 365.5 344 L 367.5 341 Z " /><path fill="rgb(207,245,221)" stroke="rgb(207,245,221)" stroke-width="1" opacity="1" d="M 401.5 341 L 400.5 343 L 401.5 341 Z " /><path fill="rgb(207,245,221)" stroke="rgb(207,245,221)" stroke-width="1" opacity="1" d="M 399.5 344 L 398.5 346 L 399.5 344 Z " /><path fill="rgb(207,245,221)" stroke="rgb(207,245,221)" stroke-width="1" opacity="1" d="M 363.5 346 L 358.5 352 L 363.5 346 Z " /><path fill="rgb(207,245,221)" stroke="rgb(207,245,221)" stroke-width="1" opacity="1" d="M 393.5 353 L 392.5 355 L 393.5 353 Z " /><path fill="rgb(207,245,221)" stroke="rgb(207,245,221)" stroke-width="1" opacity="1" d="M 391.5 356 L 389.5 359 L 391.5 356 Z " /><path fill="rgb(207,245,221)" stroke="rgb(207,245,221)" stroke-width="1" opacity="1" d="M 352.5 357 L 347.5 363 L 352.5 357 Z " /><path fill="rgb(207,245,221)" stroke="rgb(207,245,221)" stroke-width="1" opacity="1" d="M 387.5 361 L 385.5 364 L 387.5 361 Z " /><path fill="rgb(207,245,221)" stroke="rgb(207,245,221)" stroke-width="1" opacity="1" d="M 344.5 364 L 342.5 367 L 344.5 364 Z " /><path fill="rgb(207,245,221)" stroke="rgb(207,245,221)" stroke-width="1" opacity="1" d="M 339.5 368 L 338.5 370 L 339.5 368 Z " /><path fill="rgb(207,245,221)" stroke="rgb(207,245,221)" stroke-width="1" opacity="1" d="M 381.5 368 L 368.5 382 L 381.5 368 Z " /><path fill="rgb(207,245,221)" stroke="rgb(207,245,221)" stroke-width="1" opacity="1" d="M 330.5 374 L 329.5 376 L 330.5 374 Z " /><path fill="rgb(207,245,221)" stroke="rgb(207,245,221)" stroke-width="1" opacity="1" d="M 184.5 375 L 185.5 377 L 184.5 375 Z " /><path fill="rgb(207,245,221)" stroke="rgb(207,245,221)" stroke-width="1" opacity="1" d="M 325.5 377 L 324.5 379 L 325.5 377 Z " /><path fill="rgb(207,245,221)" stroke="rgb(207,245,221)" stroke-width="1" opacity="1" d="M 364.5 384 L 362.5 387 L 364.5 384 Z " /><path fill="rgb(207,245,221)" stroke="rgb(207,245,221)" stroke-width="1" opacity="1" d="M 359.5 388 L 357.5 391 L 359.5 388 Z " /><path fill="rgb(207,245,221)" stroke="rgb(207,245,221)" stroke-width="1" opacity="1" d="M 355.5 391 L 354.5 393 L 355.5 391 Z " /><path fill="rgb(207,245,221)" stroke="rgb(207,245,221)" stroke-width="1" opacity="1" d="M 225.5 392 L 228 392.5 L 225.5 393 L 225.5 392 Z " /><path fill="rgb(207,245,221)" stroke="rgb(207,245,221)" stroke-width="1" opacity="1" d="M 230.5 393 L 233 393.5 L 230.5 394 L 230.5 393 Z " /><path fill="rgb(207,245,221)" stroke="rgb(207,245,221)" stroke-width="1" opacity="1" d="M 280.5 393 L 283 393.5 L 280.5 394 L 280.5 393 Z " /><path fill="rgb(207,245,221)" stroke="rgb(207,245,221)" stroke-width="1" opacity="1" d="M 236.5 394 L 240 394.5 L 236.5 395 L 236.5 394 Z " /><path fill="rgb(207,245,221)" stroke="rgb(207,245,221)" stroke-width="1" opacity="1" d="M 274.5 394 L 278 394.5 L 274.5 395 L 274.5 394 Z " /><path fill="rgb(207,245,221)" stroke="rgb(207,245,221)" stroke-width="1" opacity="1" d="M 351.5 394 L 350.5 396 L 351.5 394 Z " /><path fill="rgb(207,245,221)" stroke="rgb(207,245,221)" stroke-width="1" opacity="1" d="M 245.5 395 L 254 395.5 L 245.5 396 L 245.5 395 Z " /><path fill="rgb(207,245,221)" stroke="rgb(207,245,221)" stroke-width="1" opacity="1" d="M 259.5 395 L 269 395.5 L 259.5 396 L 259.5 395 Z " /><path fill="rgb(207,245,221)" stroke="rgb(207,245,221)" stroke-width="1" opacity="1" d="M 348.5 396 L 347.5 398 L 348.5 396 Z " /><path fill="rgb(207,245,221)" stroke="rgb(207,245,221)" stroke-width="1" opacity="1" d="M 343.5 399 L 342.5 401 L 343.5 399 Z " /><path fill="rgb(207,245,221)" stroke="rgb(207,245,221)" stroke-width="1" opacity="1" d="M 336.5 403 L 335.5 405 L 336.5 403 Z " /><path fill="rgb(207,245,221)" stroke="rgb(207,245,221)" stroke-width="1" opacity="1" d="M 171.5 404 L 174 404.5 L 171.5 405 L 171.5 404 Z " /><path fill="rgb(207,245,221)" stroke="rgb(207,245,221)" stroke-width="1" opacity="1" d="M 217.5 419 L 220 419.5 L 217.5 420 L 217.5 419 Z " /><path fill="rgb(207,245,221)" stroke="rgb(207,245,221)" stroke-width="1" opacity="1" d="M 289.5 420 L 292 420.5 L 289.5 421 L 289.5 420 Z " /><path fill="rgb(207,245,221)" stroke="rgb(207,245,221)" stroke-width="1" opacity="1" d="M 227.5 421 L 230 421.5 L 227.5 422 L 227.5 421 Z " /><path fill="rgb(207,245,221)" stroke="rgb(207,245,221)" stroke-width="1" opacity="1" d="M 284.5 421 L 287 421.5 L 284.5 422 L 284.5 421 Z " /><path fill="rgb(207,245,221)" stroke="rgb(207,245,221)" stroke-width="1" opacity="1" d="M 233.5 422 L 237 422.5 L 233.5 423 L 233.5 422 Z " /><path fill="rgb(207,245,221)" stroke="rgb(207,245,221)" stroke-width="1" opacity="1" d="M 276.5 422 L 280 422.5 L 276.5 423 L 276.5 422 Z " /><path fill="rgb(207,245,221)" stroke="rgb(207,245,221)" stroke-width="1" opacity="1" d="M 242.5 423 L 249 423.5 L 242.5 424 L 242.5 423 Z " /><path fill="rgb(207,245,221)" stroke="rgb(207,245,221)" stroke-width="1" opacity="1" d="M 264.5 423 L 272 423.5 L 264.5 424 L 264.5 423 Z " /><path fill="rgb(207,245,221)" stroke="rgb(207,245,221)" stroke-width="1" opacity="1" d="M 87.5 425 L 88.5 427 Q 85.7 427.7 87.5 425 Z " /><path fill="rgb(39,213,106)" stroke="rgb(39,213,106)" stroke-width="1" opacity="0.5294117647058824" d="M 233.5 0 L 245 0.5 L 233.5 1 L 233.5 0 Z " /><path fill="rgb(39,213,106)" stroke="rgb(39,213,106)" stroke-width="1" opacity="0.5294117647058824" d="M 267.5 0 L 279 0.5 L 267.5 1 L 267.5 0 Z " /><path fill="rgb(39,213,106)" stroke="rgb(39,213,106)" stroke-width="1" opacity="0.5294117647058824" d="M 224.5 1 L 231 1.5 L 224.5 2 L 224.5 1 Z " /><path fill="rgb(39,213,106)" stroke="rgb(39,213,106)" stroke-width="1" opacity="0.5294117647058824" d="M 281.5 1 L 288 1.5 L 281.5 2 L 281.5 1 Z " /><path fill="rgb(39,213,106)" stroke="rgb(39,213,106)" stroke-width="1" opacity="0.5294117647058824" d="M 216.5 2 L 222 2.5 L 216.5 3 L 216.5 2 Z " /><path fill="rgb(39,213,106)" stroke="rgb(39,213,106)" stroke-width="1" opacity="0.5294117647058824" d="M 290.5 2 L 296 2.5 L 290.5 3 L 290.5 2 Z " /><path fill="rgb(39,213,106)" stroke="rgb(39,213,106)" stroke-width="1" opacity="0.5294117647058824" d="M 211.5 3 L 215 3.5 L 211.5 4 L 211.5 3 Z " /><path fill="rgb(39,213,106)" stroke="rgb(39,213,106)" stroke-width="1" opacity="0.5294117647058824" d="M 297.5 3 L 302 3.5 L 297.5 4 L 297.5 3 Z " /><path fill="rgb(39,213,106)" stroke="rgb(39,213,106)" stroke-width="1" opacity="0.5294117647058824" d="M 205.5 4 L 209 4.5 L 205.5 5 L 205.5 4 Z " /><path fill="rgb(39,213,106)" stroke="rgb(39,213,106)" stroke-width="1" opacity="0.5294117647058824" d="M 303.5 4 L 307 4.5 L 303.5 5 L 303.5 4 Z " /><path fill="rgb(39,213,106)" stroke="rgb(39,213,106)" stroke-width="1" opacity="0.5294117647058824" d="M 200.5 5 L 204 5.5 L 196.5 7 L 196.5 6 L 200.5 5 Z " /><path fill="rgb(39,213,106)" stroke="rgb(39,213,106)" stroke-width="1" opacity="0.5294117647058824" d="M 308.5 5 L 316 6.5 L 312.5 7 L 308.5 6 L 308.5 5 Z " /><path fill="rgb(39,213,106)" stroke="rgb(39,213,106)" stroke-width="1" opacity="0.5294117647058824" d="M 192.5 7 L 195 7.5 L 192.5 8 L 192.5 7 Z " /><path fill="rgb(39,213,106)" stroke="rgb(39,213,106)" stroke-width="1" opacity="0.5294117647058824" d="M 317.5 7 L 320 7.5 L 317.5 8 L 317.5 7 Z " /><path fill="rgb(39,213,106)" stroke="rgb(39,213,106)" stroke-width="1" opacity="0.5294117647058824" d="M 188.5 8 L 191 8.5 L 185.5 10 L 185.5 9 L 188.5 8 Z " /><path fill="rgb(39,213,106)" stroke="rgb(39,213,106)" stroke-width="1" opacity="0.5294117647058824" d="M 321.5 8 L 327 9.5 L 324.5 10 L 321.5 9 L 321.5 8 Z " /><path fill="rgb(39,213,106)" stroke="rgb(39,213,106)" stroke-width="1" opacity="0.5294117647058824" d="M 181.5 10 L 184 10.5 L 164.5 17 L 164.5 16 L 181.5 10 Z " /><path fill="rgb(39,213,106)" stroke="rgb(39,213,106)" stroke-width="1" opacity="0.5294117647058824" d="M 328.5 10 L 334 11.5 L 331.5 12 L 328.5 11 L 328.5 10 Z " /><path fill="rgb(39,213,106)" stroke="rgb(39,213,106)" stroke-width="1" opacity="0.5294117647058824" d="M 335.5 12 L 348 16.5 L 346.5 17 L 335.5 13 L 335.5 12 Z " /><path fill="rgb(39,213,106)" stroke="rgb(39,213,106)" stroke-width="1" opacity="0.5294117647058824" d="M 161.5 17 L 163 17.5 L 152.5 22 L 152.5 21 L 161.5 17 Z " /><path fill="rgb(39,213,106)" stroke="rgb(39,213,106)" stroke-width="1" opacity="0.5294117647058824" d="M 349.5 17 L 353 18.5 L 351.5 19 L 349.5 17 Z " /><path fill="rgb(39,213,106)" stroke="rgb(39,213,106)" stroke-width="1" opacity="0.5294117647058824" d="M 354.5 19 Q 411.6 42.9 449 86.5 Q 485 125.5 502 183.5 L 501 183.5 Q 491.4 148.6 474 121.5 Q 454.1 89.4 426.5 65 Q 409.9 50.1 390.5 38 L 354.5 20 L 354.5 19 Z " /><path fill="rgb(39,213,106)" stroke="rgb(39,213,106)" stroke-width="1" opacity="0.5294117647058824" d="M 149.5 22 L 151 22.5 Q 99.9 45.9 65 85.5 Q 39.2 113.7 22.5 151 L 22 149.5 Q 46.1 98.1 86.5 63 Q 114 38.5 149.5 22 Z " /><path fill="rgb(39,213,106)" stroke="rgb(39,213,106)" stroke-width="1" opacity="0.5294117647058824" d="M 21.5 152 L 22 153.5 L 19.5 158 L 19 156.5 L 21.5 152 Z " /><path fill="rgb(39,213,106)" stroke="rgb(39,213,106)" stroke-width="1" opacity="0.5294117647058824" d="M 18.5 159 L 19 160.5 L 17.5 163 L 17 161.5 L 18.5 159 Z " /><path fill="rgb(39,213,106)" stroke="rgb(39,213,106)" stroke-width="1" opacity="0.5294117647058824" d="M 16.5 164 L 17 165.5 L 10.5 184 L 10 181.5 L 16.5 164 Z " /><path fill="rgb(39,213,106)" stroke="rgb(39,213,106)" stroke-width="1" opacity="0.5294117647058824" d="M 9.5 185 L 10 187.5 L 8.5 191 L 8 188.5 L 9.5 185 Z " /><path fill="rgb(39,213,106)" stroke="rgb(39,213,106)" stroke-width="1" opacity="0.5294117647058824" d="M 502.5 185 L 504 190.5 L 503 190.5 L 502.5 185 Z " /><path fill="rgb(39,213,106)" stroke="rgb(39,213,106)" stroke-width="1" opacity="0.5294117647058824" d="M 7.5 192 L 8 194.5 L 7 194.5 L 7.5 192 Z " /><path fill="rgb(39,213,106)" stroke="rgb(39,213,106)" stroke-width="1" opacity="0.5294117647058824" d="M 504.5 192 L 505 194.5 L 504 194.5 L 504.5 192 Z " /><path fill="rgb(39,213,106)" stroke="rgb(39,213,106)" stroke-width="1" opacity="0.5294117647058824" d="M 6.5 196 L 7 199.5 L 5.5 204 L 5 200.5 L 6.5 196 Z " /><path fill="rgb(39,213,106)" stroke="rgb(39,213,106)" stroke-width="1" opacity="0.5294117647058824" d="M 505.5 196 L 507 203.5 L 506 203.5 L 505.5 196 Z " /><path fill="rgb(39,213,106)" stroke="rgb(39,213,106)" stroke-width="1" opacity="0.5294117647058824" d="M 4.5 205 L 5 208.5 L 4 208.5 L 4.5 205 Z " /><path fill="rgb(39,213,106)" stroke="rgb(39,213,106)" stroke-width="1" opacity="0.5294117647058824" d="M 507.5 205 L 508 208.5 L 507 208.5 L 507.5 205 Z " /><path fill="rgb(39,213,106)" stroke="rgb(39,213,106)" stroke-width="1" opacity="0.5294117647058824" d="M 3.5 210 L 4 214.5 L 3 214.5 L 3.5 210 Z " /><path fill="rgb(39,213,106)" stroke="rgb(39,213,106)" stroke-width="1" opacity="0.5294117647058824" d="M 508.5 210 L 509 214.5 L 508 214.5 L 508.5 210 Z " /><path fill="rgb(39,213,106)" stroke="rgb(39,213,106)" stroke-width="1" opacity="0.5294117647058824" d="M 2.5 216 L 3 221.5 L 2 221.5 L 2.5 216 Z " /><path fill="rgb(39,213,106)" stroke="rgb(39,213,106)" stroke-width="1" opacity="0.5294117647058824" d="M 509.5 217 L 510 221.5 L 509 221.5 L 509.5 217 Z " /><path fill="rgb(39,213,106)" stroke="rgb(39,213,106)" stroke-width="1" opacity="0.5294117647058824" d="M 1.5 224 L 2 230.5 L 1 230.5 L 1.5 224 Z " /><path fill="rgb(39,213,106)" stroke="rgb(39,213,106)" stroke-width="1" opacity="0.5294117647058824" d="M 510.5 224 L 511 230.5 L 510 230.5 L 510.5 224 Z " /><path fill="rgb(39,213,106)" stroke="rgb(39,213,106)" stroke-width="1" opacity="0.5294117647058824" d="M 0.5 233 L 1 244.5 L 0 244.5 L 0.5 233 Z " /><path fill="rgb(39,213,106)" stroke="rgb(39,213,106)" stroke-width="1" opacity="0.5294117647058824" d="M 511.5 233 L 512 245.5 L 511 245.5 L 511.5 233 Z " /><path fill="rgb(39,213,106)" stroke="rgb(39,213,106)" stroke-width="1" opacity="0.5294117647058824" d="M 511.5 266 L 512 278.5 L 511 278.5 L 511.5 266 Z " /><path fill="rgb(39,213,106)" stroke="rgb(39,213,106)" stroke-width="1" opacity="0.5294117647058824" d="M 0.5 267 L 1 278.5 L 0 278.5 L 0.5 267 Z " /><path fill="rgb(39,213,106)" stroke="rgb(39,213,106)" stroke-width="1" opacity="0.5294117647058824" d="M 1.5 281 L 2 287.5 L 1 287.5 L 1.5 281 Z " /><path fill="rgb(39,213,106)" stroke="rgb(39,213,106)" stroke-width="1" opacity="0.5294117647058824" d="M 510.5 281 L 511 287.5 L 510 287.5 L 510.5 281 Z " /><path fill="rgb(39,213,106)" stroke="rgb(39,213,106)" stroke-width="1" opacity="0.5294117647058824" d="M 2.5 290 L 3 295.5 L 2 295.5 L 2.5 290 Z " /><path fill="rgb(39,213,106)" stroke="rgb(39,213,106)" stroke-width="1" opacity="0.5294117647058824" d="M 509.5 290 L 510 294.5 L 509 294.5 L 509.5 290 Z " /><path fill="rgb(39,213,106)" stroke="rgb(39,213,106)" stroke-width="1" opacity="0.5294117647058824" d="M 3.5 297 L 4 301.5 L 3 301.5 L 3.5 297 Z " /><path fill="rgb(39,213,106)" stroke="rgb(39,213,106)" stroke-width="1" opacity="0.5294117647058824" d="M 508.5 297 L 509 300.5 L 508 300.5 L 508.5 297 Z " /><path fill="rgb(39,213,106)" stroke="rgb(39,213,106)" stroke-width="1" opacity="0.5294117647058824" d="M 507.5 302 L 508 306.5 L 507 306.5 L 507.5 302 Z " /><path fill="rgb(39,213,106)" stroke="rgb(39,213,106)" stroke-width="1" opacity="0.5294117647058824" d="M 4.5 303 L 5 306.5 L 4 306.5 L 4.5 303 Z " /><path fill="rgb(39,213,106)" stroke="rgb(39,213,106)" stroke-width="1" opacity="0.5294117647058824" d="M 5.5 308 L 6 310.5 L 5 310.5 L 5.5 308 Z " /><path fill="rgb(39,213,106)" stroke="rgb(39,213,106)" stroke-width="1" opacity="0.5294117647058824" d="M 506.5 308 L 507 310.5 L 506 310.5 L 506.5 308 Z " /><path fill="rgb(39,213,106)" stroke="rgb(39,213,106)" stroke-width="1" opacity="0.5294117647058824" d="M 6.5 312 L 7 315.5 L 6 315.5 L 6.5 312 Z " /><path fill="rgb(39,213,106)" stroke="rgb(39,213,106)" stroke-width="1" opacity="0.5294117647058824" d="M 505.5 312 L 506 315.5 L 505 315.5 L 505.5 312 Z " /><path fill="rgb(39,213,106)" stroke="rgb(39,213,106)" stroke-width="1" opacity="0.5294117647058824" d="M 7.5 317 L 8 319.5 L 7 319.5 L 7.5 317 Z " /><path fill="rgb(39,213,106)" stroke="rgb(39,213,106)" stroke-width="1" opacity="0.5294117647058824" d="M 504.5 317 L 505 319.5 L 504 319.5 L 504.5 317 Z " /><path fill="rgb(39,213,106)" stroke="rgb(39,213,106)" stroke-width="1" opacity="0.5294117647058824" d="M 8.5 321 L 10 326.5 L 9 326.5 L 8.5 321 Z " /><path fill="rgb(39,213,106)" stroke="rgb(39,213,106)" stroke-width="1" opacity="0.5294117647058824" d="M 503.5 321 L 504 323.5 L 502.5 327 L 502 324.5 L 503.5 321 Z " /><path fill="rgb(39,213,106)" stroke="rgb(39,213,106)" stroke-width="1" opacity="0.5294117647058824" d="M 10.5 328 L 17 347.5 L 16 347.5 L 10 330.5 L 10.5 328 Z " /><path fill="rgb(39,213,106)" stroke="rgb(39,213,106)" stroke-width="1" opacity="0.5294117647058824" d="M 501.5 328 L 502 330.5 L 489.5 362 L 489 360.5 Q 497 346 501.5 328 Z " /><path fill="rgb(39,213,106)" stroke="rgb(39,213,106)" stroke-width="1" opacity="0.5294117647058824" d="M 17.5 349 L 23 361.5 L 22 361.5 L 17 350.5 L 17.5 349 Z " /><path fill="rgb(39,213,106)" stroke="rgb(39,213,106)" stroke-width="1" opacity="0.5294117647058824" d="M 23.5 363 L 35 384.5 L 33 383.5 L 23 364.5 L 23.5 363 Z " /><path fill="rgb(39,213,106)" stroke="rgb(39,213,106)" stroke-width="1" opacity="0.5294117647058824" d="M 488.5 363 L 489 364.5 L 477.5 385 L 478 383.5 L 488.5 363 Z " /><path fill="rgb(39,213,106)" stroke="rgb(39,213,106)" stroke-width="1" opacity="0.5294117647058824" d="M 35.5 386 Q 56 421 85.5 447 Q 112.9 472.1 149 488.5 L 147.5 489 Q 97.5 465 63 425.5 Q 46.4 407.6 35.5 386 Z " /><path fill="rgb(39,213,106)" stroke="rgb(39,213,106)" stroke-width="1" opacity="0.5294117647058824" d="M 476.5 386 L 476 387.5 Q 455.7 423.2 425.5 449 Q 407.9 464.9 386.5 477 L 387.5 475 Q 421.8 455.3 447 426.5 Q 463.6 408.1 476.5 386 Z " /><path fill="rgb(39,213,106)" stroke="rgb(39,213,106)" stroke-width="1" opacity="0.5294117647058824" d="M 384.5 477 L 383.5 479 L 363.5 489 L 363.5 488 L 384.5 477 Z " /><path fill="rgb(39,213,106)" stroke="rgb(39,213,106)" stroke-width="1" opacity="0.5294117647058824" d="M 150.5 489 L 163 494.5 L 161.5 495 L 150.5 490 L 150.5 489 Z " /><path fill="rgb(39,213,106)" stroke="rgb(39,213,106)" stroke-width="1" opacity="0.5294117647058824" d="M 360.5 489 L 362 489.5 L 354.5 493 L 354.5 492 L 360.5 489 Z " /><path fill="rgb(39,213,106)" stroke="rgb(39,213,106)" stroke-width="1" opacity="0.5294117647058824" d="M 351.5 493 L 353 493.5 L 328.5 502 L 328.5 501 L 351.5 493 Z " /><path fill="rgb(39,213,106)" stroke="rgb(39,213,106)" stroke-width="1" opacity="0.5294117647058824" d="M 164.5 495 L 184 501.5 L 181.5 502 L 166.5 497 L 164.5 495 Z " /><path fill="rgb(39,213,106)" stroke="rgb(39,213,106)" stroke-width="1" opacity="0.5294117647058824" d="M 185.5 502 L 191 503.5 L 188.5 504 L 185.5 503 L 185.5 502 Z " /><path fill="rgb(39,213,106)" stroke="rgb(39,213,106)" stroke-width="1" opacity="0.5294117647058824" d="M 324.5 502 L 327 502.5 L 321.5 504 L 321.5 503 L 324.5 502 Z " /><path fill="rgb(39,213,106)" stroke="rgb(39,213,106)" stroke-width="1" opacity="0.5294117647058824" d="M 192.5 504 L 200 505.5 L 196.5 506 L 192.5 505 L 192.5 504 Z " /><path fill="rgb(39,213,106)" stroke="rgb(39,213,106)" stroke-width="1" opacity="0.5294117647058824" d="M 317.5 504 L 320 504.5 L 317.5 505 L 317.5 504 Z " /><path fill="rgb(39,213,106)" stroke="rgb(39,213,106)" stroke-width="1" opacity="0.5294117647058824" d="M 312.5 505 L 316 505.5 L 312.5 506 L 312.5 505 Z " /><path fill="rgb(39,213,106)" stroke="rgb(39,213,106)" stroke-width="1" opacity="0.5294117647058824" d="M 201.5 506 L 204 506.5 L 201.5 507 L 201.5 506 Z " /><path fill="rgb(39,213,106)" stroke="rgb(39,213,106)" stroke-width="1" opacity="0.5294117647058824" d="M 308.5 506 L 311 506.5 L 308.5 507 L 308.5 506 Z " /><path fill="rgb(39,213,106)" stroke="rgb(39,213,106)" stroke-width="1" opacity="0.5294117647058824" d="M 205.5 507 L 210 507.5 L 205.5 508 L 205.5 507 Z " /><path fill="rgb(39,213,106)" stroke="rgb(39,213,106)" stroke-width="1" opacity="0.5294117647058824" d="M 303.5 507 L 307 507.5 L 303.5 508 L 303.5 507 Z " /><path fill="rgb(39,213,106)" stroke="rgb(39,213,106)" stroke-width="1" opacity="0.5294117647058824" d="M 211.5 508 L 215 508.5 L 211.5 509 L 211.5 508 Z " /><path fill="rgb(39,213,106)" stroke="rgb(39,213,106)" stroke-width="1" opacity="0.5294117647058824" d="M 297.5 508 L 302 508.5 L 297.5 509 L 297.5 508 Z " /><path fill="rgb(39,213,106)" stroke="rgb(39,213,106)" stroke-width="1" opacity="0.5294117647058824" d="M 217.5 509 L 222 509.5 L 217.5 510 L 217.5 509 Z " /><path fill="rgb(39,213,106)" stroke="rgb(39,213,106)" stroke-width="1" opacity="0.5294117647058824" d="M 290.5 509 L 295 509.5 L 290.5 510 L 290.5 509 Z " /><path fill="rgb(39,213,106)" stroke="rgb(39,213,106)" stroke-width="1" opacity="0.5294117647058824" d="M 224.5 510 L 231 510.5 L 224.5 511 L 224.5 510 Z " /><path fill="rgb(39,213,106)" stroke="rgb(39,213,106)" stroke-width="1" opacity="0.5294117647058824" d="M 281.5 510 L 288 510.5 L 281.5 511 L 281.5 510 Z " /><path fill="rgb(39,213,106)" stroke="rgb(39,213,106)" stroke-width="1" opacity="0.5294117647058824" d="M 233.5 511 L 245 511.5 L 233.5 512 L 233.5 511 Z " /><path fill="rgb(39,213,106)" stroke="rgb(39,213,106)" stroke-width="1" opacity="0.5294117647058824" d="M 266.5 511 L 279 511.5 L 266.5 512 L 266.5 511 Z " /><path fill="rgb(0,0,0)" stroke="rgb(0,0,0)" stroke-width="1" opacity="0" d="M 0 0 L 233 0.5 L 205.5 4 L 181.5 10 Q 155.5 18 133.5 30 Q 92.6 52.6 63 86.5 Q 36.1 116.6 19 156.5 Q 10.4 176.9 5 200.5 L 0.5 233 L 0 0 Z " /><path fill="rgb(0,0,0)" stroke="rgb(0,0,0)" stroke-width="1" opacity="0" d="M 279.5 0 L 512 0 L 512 232.5 L 511 232.5 L 509 210.5 L 502 181.5 Q 494 155.5 482 133.5 Q 459.4 92.6 425.5 63 Q 398 38.5 362.5 22 L 323.5 8 L 295.5 2 L 279.5 1 L 279.5 0 Z " /><path fill="rgb(0,0,0)" stroke="rgb(0,0,0)" stroke-width="1" opacity="0" d="M 0.5 279 L 3 301.5 L 10 330.5 Q 18 356.5 30 378.5 Q 52.6 419.4 86.5 449 Q 116.6 475.9 156.5 493 L 196.5 506 L 217.5 510 L 233 511.5 L 0 512 L 0.5 279 Z " /><path fill="rgb(0,0,0)" stroke="rgb(0,0,0)" stroke-width="1" opacity="0" d="M 511.5 279 L 512 512 L 279 511.5 L 301.5 509 L 330.5 502 Q 356.5 494 378.5 482 Q 419.4 459.4 449 425.5 Q 475.9 395.4 493 355.5 L 506 315.5 L 510 294.5 L 511.5 279 Z " /><path fill="rgb(37,211,102)" stroke="rgb(37,211,102)" stroke-width="1" opacity="1" d="M 245.5 0 L 266.5 0 L 267.5 1 L 280.5 1 L 281.5 2 L 302.5 4 L 334.5 12 L 353.5 19 Q 410.1 43.4 448 86.5 Q 478.3 120.2 496 166.5 L 504 191.5 L 509 215.5 L 510 230.5 L 511 231.5 L 511 245.5 L 512 246.5 L 512 265.5 L 511 266.5 L 510 289.5 L 505 316.5 Q 498.7 341.2 489 362.5 Q 465.5 412.5 426.5 447 Q 392.5 478 345.5 496 L 320.5 504 L 296.5 509 L 281.5 510 L 280.5 511 L 266.5 511 L 265.5 512 L 245.5 512 L 244.5 511 L 231.5 511 L 230.5 510 L 215.5 509 L 191.5 504 L 163.5 495 L 149.5 489 Q 99.5 465.5 65 426.5 Q 35 393.5 17 348.5 L 8 320.5 L 3 296.5 L 2 281.5 L 1 280.5 L 1 267.5 L 0 266.5 L 0 245.5 L 1 244.5 L 2 222.5 L 7 195.5 L 22 151.5 Q 45.7 100.2 85.5 65 Q 118.5 35 163.5 17 L 204.5 5 L 221.5 3 L 222.5 2 L 230.5 2 L 231.5 1 L 244.5 1 L 245.5 0 Z M 251 87 L 250 88 L 231 89 L 216 92 L 190 101 Q 165 112 146 129 Q 118 153 102 189 L 93 215 L 89 237 L 89 250 L 88 251 L 89 275 L 94 301 L 103 326 L 111 340 L 87 427 L 175 404 L 178 404 Q 190 412 207 417 L 228 422 L 242 423 L 243 424 L 272 424 Q 273 421 280 423 L 304 418 L 316 414 Q 346 402 369 382 Q 394 360 409 329 L 420 299 L 424 278 L 424 270 L 425 269 L 425 243 L 424 242 L 423 227 L 414 195 Q 401 162 378 139 Q 354 113 320 99 L 302 93 L 284 89 L 265 88 L 264 87 L 251 87 Z " /><path fill="rgb(37,211,102)" stroke="rgb(37,211,102)" stroke-width="1" opacity="1" d="M 245.5 116 L 277.5 117 L 295.5 121 L 312.5 127 Q 342.7 140.8 363 164.5 Q 381.5 185.5 391 215.5 L 396 239.5 L 396 271.5 L 392 292.5 L 384 314.5 Q 372.2 339.2 353.5 357 Q 334.8 375.3 308.5 386 L 285.5 393 L 280.5 393 L 273.5 395 L 254.5 396 L 253.5 395 L 240.5 395 L 219.5 391 Q 197.1 384.4 179.5 373 L 128.5 387 L 128 384.5 L 142 335.5 Q 128.9 318.1 122 294.5 L 117 266.5 L 117 244.5 L 118 243.5 L 118 235.5 L 121 220.5 L 128 200.5 Q 139.8 173.8 159.5 155 Q 177.3 137.8 201.5 127 L 221.5 120 L 236.5 117 L 244.5 117 L 245.5 116 Z M 194 178 L 190 180 Q 175 191 171 213 L 171 224 L 177 244 Q 188 265 204 283 Q 224 305 251 321 L 274 331 L 297 337 L 305 337 L 316 335 L 333 325 L 340 315 L 342 307 L 342 297 L 339 293 L 319 283 L 306 277 L 299 276 L 280 298 L 275 298 L 262 292 Q 247 284 236 273 Q 223 261 215 246 L 216 240 Q 224 233 229 223 L 229 219 L 213 182 L 209 178 L 194 178 Z " /><path fill="rgb(254,255,254)" stroke="rgb(254,255,254)" stroke-width="1" opacity="1" d="M 252.5 115 L 256 115.5 L 252.5 116 L 252.5 115 Z " /><path fill="rgb(254,255,254)" stroke="rgb(254,255,254)" stroke-width="1" opacity="1" d="M 258.5 115 L 261 115.5 L 258.5 116 L 258.5 115 Z " /><path fill="rgb(254,255,254)" stroke="rgb(254,255,254)" stroke-width="1" opacity="1" d="M 357.5 121 L 358.5 123 L 357.5 121 Z " /><path fill="rgb(254,255,254)" stroke="rgb(254,255,254)" stroke-width="1" opacity="1" d="M 153.5 123 L 152.5 125 L 153.5 123 Z " /><path fill="rgb(254,255,254)" stroke="rgb(254,255,254)" stroke-width="1" opacity="1" d="M 362.5 125 L 363.5 127 L 362.5 125 Z " /><path fill="rgb(254,255,254)" stroke="rgb(254,255,254)" stroke-width="1" opacity="1" d="M 147.5 128 L 146.5 130 L 147.5 128 Z " /><path fill="rgb(254,255,254)" stroke="rgb(254,255,254)" stroke-width="1" opacity="1" d="M 368.5 130 L 374.5 137 L 368.5 130 Z " /><path fill="rgb(254,255,254)" stroke="rgb(254,255,254)" stroke-width="1" opacity="1" d="M 376.5 138 L 381.5 144 L 376.5 138 Z " /><path fill="rgb(254,255,254)" stroke="rgb(254,255,254)" stroke-width="1" opacity="1" d="M 338.5 141 L 339.5 143 L 338.5 141 Z " /><path fill="rgb(254,255,254)" stroke="rgb(254,255,254)" stroke-width="1" opacity="1" d="M 172.5 143 L 171.5 145 L 172.5 143 Z " /><path fill="rgb(254,255,254)" stroke="rgb(254,255,254)" stroke-width="1" opacity="1" d="M 342.5 144 L 343.5 146 L 342.5 144 Z " /><path fill="rgb(254,255,254)" stroke="rgb(254,255,254)" stroke-width="1" opacity="1" d="M 130.5 145 L 129.5 147 L 130.5 145 Z " /><path fill="rgb(254,255,254)" stroke="rgb(254,255,254)" stroke-width="1" opacity="1" d="M 167.5 147 L 166.5 149 L 167.5 147 Z " /><path fill="rgb(254,255,254)" stroke="rgb(254,255,254)" stroke-width="1" opacity="1" d="M 347.5 148 L 349.5 151 L 347.5 148 Z " /><path fill="rgb(254,255,254)" stroke="rgb(254,255,254)" stroke-width="1" opacity="1" d="M 386.5 149 L 387.5 151 L 386.5 149 Z " /><path fill="rgb(254,255,254)" stroke="rgb(254,255,254)" stroke-width="1" opacity="1" d="M 125.5 151 L 124.5 153 L 125.5 151 Z " /><path fill="rgb(254,255,254)" stroke="rgb(254,255,254)" stroke-width="1" opacity="1" d="M 159.5 154 L 155.5 159 L 159.5 154 Z " /><path fill="rgb(254,255,254)" stroke="rgb(254,255,254)" stroke-width="1" opacity="1" d="M 361.5 162 L 363.5 165 L 361.5 162 Z " /><path fill="rgb(254,255,254)" stroke="rgb(254,255,254)" stroke-width="1" opacity="1" d="M 149.5 165 L 148.5 167 L 149.5 165 Z " /><path fill="rgb(254,255,254)" stroke="rgb(254,255,254)" stroke-width="1" opacity="1" d="M 145.5 170 L 144.5 172 L 145.5 170 Z " /><path fill="rgb(254,255,254)" stroke="rgb(254,255,254)" stroke-width="1" opacity="1" d="M 142.5 174 L 141.5 176 L 142.5 174 Z " /><path fill="rgb(254,255,254)" stroke="rgb(254,255,254)" stroke-width="1" opacity="1" d="M 372.5 176 L 373.5 178 L 372.5 176 Z " /><path fill="rgb(254,255,254)" stroke="rgb(254,255,254)" stroke-width="1" opacity="1" d="M 203.5 178 L 207 178.5 L 203.5 179 L 203.5 178 Z " /><path fill="rgb(254,255,254)" stroke="rgb(254,255,254)" stroke-width="1" opacity="1" d="M 188.5 181 L 183.5 187 L 188.5 181 Z " /><path fill="rgb(254,255,254)" stroke="rgb(254,255,254)" stroke-width="1" opacity="1" d="M 223.5 230 L 222.5 232 L 223.5 230 Z " /><path fill="rgb(254,255,254)" stroke="rgb(254,255,254)" stroke-width="1" opacity="1" d="M 218.5 236 L 215.5 240 L 218.5 236 Z " /><path fill="rgb(254,255,254)" stroke="rgb(254,255,254)" stroke-width="1" opacity="1" d="M 116.5 251 L 117 260.5 L 116 260.5 L 116.5 251 Z " /><path fill="rgb(254,255,254)" stroke="rgb(254,255,254)" stroke-width="1" opacity="1" d="M 424.5 253 L 425 258.5 L 424 258.5 L 424.5 253 Z " /><path fill="rgb(254,255,254)" stroke="rgb(254,255,254)" stroke-width="1" opacity="1" d="M 226.5 263 L 227.5 265 L 226.5 263 Z " /><path fill="rgb(254,255,254)" stroke="rgb(254,255,254)" stroke-width="1" opacity="1" d="M 194.5 269 L 195.5 271 L 194.5 269 Z " /><path fill="rgb(254,255,254)" stroke="rgb(254,255,254)" stroke-width="1" opacity="1" d="M 233.5 271 L 235.5 274 L 233.5 271 Z " /><path fill="rgb(254,255,254)" stroke="rgb(254,255,254)" stroke-width="1" opacity="1" d="M 198.5 274 L 199.5 276 L 198.5 274 Z " /><path fill="rgb(254,255,254)" stroke="rgb(254,255,254)" stroke-width="1" opacity="1" d="M 297.5 277 L 296.5 279 L 297.5 277 Z " /><path fill="rgb(254,255,254)" stroke="rgb(254,255,254)" stroke-width="1" opacity="1" d="M 242.5 279 L 243.5 281 L 242.5 279 Z " /><path fill="rgb(254,255,254)" stroke="rgb(254,255,254)" stroke-width="1" opacity="1" d="M 203.5 280 L 204.5 282 L 203.5 280 Z " /><path fill="rgb(254,255,254)" stroke="rgb(254,255,254)" stroke-width="1" opacity="1" d="M 290.5 286 L 289.5 288 L 290.5 286 Z " /><path fill="rgb(254,255,254)" stroke="rgb(254,255,254)" stroke-width="1" opacity="1" d="M 285.5 292 L 284.5 294 L 285.5 292 Z " /><path fill="rgb(254,255,254)" stroke="rgb(254,255,254)" stroke-width="1" opacity="1" d="M 339.5 294 L 340.5 296 L 339.5 294 Z " /><path fill="rgb(254,255,254)" stroke="rgb(254,255,254)" stroke-width="1" opacity="1" d="M 223.5 300 L 225.5 303 L 223.5 300 Z " /><path fill="rgb(254,255,254)" stroke="rgb(254,255,254)" stroke-width="1" opacity="1" d="M 369.5 339 L 368.5 341 L 369.5 339 Z " /><path fill="rgb(254,255,254)" stroke="rgb(254,255,254)" stroke-width="1" opacity="1" d="M 365.5 344 L 364.5 346 L 365.5 344 Z " /><path fill="rgb(254,255,254)" stroke="rgb(254,255,254)" stroke-width="1" opacity="1" d="M 359.5 351 L 352.5 359 L 359.5 351 Z " /><path fill="rgb(254,255,254)" stroke="rgb(254,255,254)" stroke-width="1" opacity="1" d="M 394.5 351 L 393.5 353 L 394.5 351 Z " /><path fill="rgb(254,255,254)" stroke="rgb(254,255,254)" stroke-width="1" opacity="1" d="M 388.5 359 L 387.5 361 L 388.5 359 Z " /><path fill="rgb(254,255,254)" stroke="rgb(254,255,254)" stroke-width="1" opacity="1" d="M 346.5 363 L 345.5 365 L 346.5 363 Z " /><path fill="rgb(254,255,254)" stroke="rgb(254,255,254)" stroke-width="1" opacity="1" d="M 384.5 364 L 382.5 367 L 384.5 364 Z " /><path fill="rgb(254,255,254)" stroke="rgb(254,255,254)" stroke-width="1" opacity="1" d="M 341.5 367 L 340.5 369 L 341.5 367 Z " /><path fill="rgb(254,255,254)" stroke="rgb(254,255,254)" stroke-width="1" opacity="1" d="M 367.5 381 L 365.5 384 L 367.5 381 Z " /><path fill="rgb(254,255,254)" stroke="rgb(254,255,254)" stroke-width="1" opacity="1" d="M 361.5 386 L 360.5 388 L 361.5 386 Z " /><path fill="rgb(254,255,254)" stroke="rgb(254,255,254)" stroke-width="1" opacity="1" d="M 353.5 392 L 352.5 394 L 353.5 392 Z " /><path fill="rgb(254,255,254)" stroke="rgb(254,255,254)" stroke-width="1" opacity="1" d="M 261.5 423 L 264 423.5 L 261.5 424 L 261.5 423 Z " /><path fill="rgb(255,255,255)" stroke="rgb(255,255,255)" stroke-width="1" opacity="1" d="M 244.5 88 L 269.5 88 L 270.5 89 L 278.5 89 L 302.5 94 L 317.5 99 L 348.5 115 L 376 137 L 376 138.5 L 390 153.5 L 401 169.5 L 414 196.5 L 420 215.5 L 423 230.5 Q 421.2 236.8 424 238.5 L 424 272.5 L 419 299.5 Q 413.4 319.9 404 336.5 Q 389.6 362.1 368.5 381 Q 345.5 402 313.5 414 L 282.5 422 L 251.5 424 L 250.5 423 L 231.5 422 L 212.5 418 L 174.5 403 L 170.5 405 L 88 426 L 111 343.5 L 111 338.5 Q 97.9 317.6 92 289.5 L 92 284.5 L 90 277.5 L 90 269.5 L 89 268.5 L 89 243.5 L 90 242.5 L 90 234.5 L 94 213.5 L 105 183.5 Q 120.5 152 145.5 130 Q 166 111.5 193.5 100 L 218.5 92 L 234.5 89 L 243.5 89 L 244.5 88 Z M 253 115 L 252 116 L 240 116 L 239 117 L 228 118 L 205 125 Q 178 136 160 154 Q 141 172 129 197 L 122 215 L 119 227 L 118 238 L 117 239 L 117 251 L 116 252 L 117 273 L 121 294 Q 128 318 141 336 L 127 387 L 136 386 L 179 374 L 206 387 L 230 394 L 243 395 L 244 396 L 270 396 L 271 395 L 279 395 L 306 388 Q 333 377 353 359 Q 374 339 387 310 L 394 288 L 396 270 L 397 269 L 397 244 L 392 217 Q 383 186 364 165 Q 345 142 317 128 L 287 118 L 276 117 L 275 116 L 253 115 Z " /><path fill="rgb(255,255,255)" stroke="rgb(255,255,255)" stroke-width="1" opacity="1" d="M 196.5 178 L 209.5 179 L 213 182.5 L 227 215.5 L 228 222.5 Q 223.4 232.9 215 239.5 L 214 245.5 Q 222.9 261.6 235.5 274 Q 252.2 291.3 278.5 299 L 286 292.5 L 298.5 277 L 303.5 277 L 310.5 280 L 338.5 294 L 341 296.5 L 342 301.5 L 339 315.5 L 331.5 325 L 313.5 335 L 293.5 336 Q 265.1 329.4 243.5 316 Q 221.8 301.7 205 282.5 Q 187.9 263.6 176 239.5 L 172 225.5 L 172 210.5 Q 176 190 190.5 180 L 196.5 178 Z " /></svg>