<svg width="512" height="512" version="1.1" xmlns="http://www.w3.org/2000/svg" desc="Created with imagetracer.js version 1.2.6" ><path fill="rgb(0,0,0)" stroke="rgb(0,0,0)" stroke-width="1" opacity="0" d="M 0 0 L 512 0 L 512 512 L 0 512 L 0 0 Z M 78 48 L 59 54 L 43 65 L 34 78 L 27 97 L 27 245 Q 30 262 40 273 Q 50 284 65 290 L 76 293 L 101 293 L 101 411 L 106 430 L 115 444 Q 128 460 153 464 L 360 464 L 375 460 L 390 451 L 404 434 L 408 425 L 411 411 L 411 293 L 437 293 Q 454 290 465 280 Q 480 267 485 245 L 485 97 Q 481 77 469 66 Q 457 52 435 48 L 78 48 Z " /><path fill="rgb(0,0,0)" stroke="rgb(0,0,0)" stroke-width="1" opacity="0" d="M 81.5 80 L 430.5 80 Q 442.3 82.2 448 90.5 L 453 101.5 L 453 240.5 Q 449.9 251.4 441.5 257 L 432.5 261 L 411 261 L 411 165.5 L 411.5 165 L 420.5 165 L 428 161 L 432 153.5 L 432 145.5 L 425.5 136 L 418.5 133 L 93.5 133 Q 86.6 134.6 83 139.5 Q 78.7 143.7 80 153.5 L 84 161 L 91.5 165 L 101 165 L 101 260.5 L 100.5 261 L 79.5 261 Q 68.6 257.9 63 249.5 L 59 240.5 L 59 101.5 Q 61.6 90.6 69.5 85 L 81.5 80 Z " /><path fill="rgb(0,0,0)" stroke="rgb(0,0,0)" stroke-width="1" opacity="0" d="M 133 166 L 379 166 L 379 273.5 Q 376.8 274.8 378 279.5 L 379 280.5 L 379 405.5 L 376 417.5 L 366.5 428 L 355.5 432 L 156.5 432 Q 143.8 429.8 138 420.5 L 135 415.5 L 133 405.5 L 133 280.5 Q 135.3 279.3 134 274.5 L 133 273.5 L 133 166 Z M 252 219 L 246 222 L 240 231 L 240 345 L 201 306 L 195 304 L 185 306 Q 178 310 176 319 L 178 329 L 248 398 L 252 400 Q 261 401 265 398 L 334 329 L 336 323 L 334 313 Q 330 306 322 304 L 312 306 L 273 345 L 272 231 L 268 223 L 261 219 L 252 219 Z " /><path fill="rgb(0,0,0)" stroke="rgb(0,0,0)" stroke-width="1" opacity="0.7450980392156863" d="M 77.5 48 L 82 48.5 L 77.5 49 L 77.5 48 Z " /><path fill="rgb(0,0,0)" stroke="rgb(0,0,0)" stroke-width="1" opacity="0.7450980392156863" d="M 430.5 48 L 435 48.5 L 430.5 49 L 430.5 48 Z " /><path fill="rgb(0,0,0)" stroke="rgb(0,0,0)" stroke-width="1" opacity="0.7450980392156863" d="M 56.5 55 L 55.5 57 L 56.5 55 Z " /><path fill="rgb(0,0,0)" stroke="rgb(0,0,0)" stroke-width="1" opacity="0.7450980392156863" d="M 455.5 55 L 456.5 57 L 455.5 55 Z " /><path fill="rgb(0,0,0)" stroke="rgb(0,0,0)" stroke-width="1" opacity="0.7450980392156863" d="M 53.5 57 L 52.5 59 L 53.5 57 Z " /><path fill="rgb(0,0,0)" stroke="rgb(0,0,0)" stroke-width="1" opacity="0.7450980392156863" d="M 50.5 59 L 49.5 61 L 50.5 59 Z " /><path fill="rgb(0,0,0)" stroke="rgb(0,0,0)" stroke-width="1" opacity="0.7450980392156863" d="M 461.5 59 L 462.5 61 L 461.5 59 Z " /><path fill="rgb(0,0,0)" stroke="rgb(0,0,0)" stroke-width="1" opacity="0.7450980392156863" d="M 467.5 64 L 468.5 66 L 467.5 64 Z " /><path fill="rgb(0,0,0)" stroke="rgb(0,0,0)" stroke-width="1" opacity="0.7450980392156863" d="M 39.5 70 L 38.5 72 L 39.5 70 Z " /><path fill="rgb(0,0,0)" stroke="rgb(0,0,0)" stroke-width="1" opacity="0.7450980392156863" d="M 472.5 70 L 473.5 72 L 472.5 70 Z " /><path fill="rgb(0,0,0)" stroke="rgb(0,0,0)" stroke-width="1" opacity="0.7450980392156863" d="M 35.5 76 L 34.5 78 L 35.5 76 Z " /><path fill="rgb(0,0,0)" stroke="rgb(0,0,0)" stroke-width="1" opacity="0.7450980392156863" d="M 476.5 76 L 477.5 78 L 476.5 76 Z " /><path fill="rgb(0,0,0)" stroke="rgb(0,0,0)" stroke-width="1" opacity="0.7450980392156863" d="M 71.5 83 L 70.5 85 L 71.5 83 Z " /><path fill="rgb(0,0,0)" stroke="rgb(0,0,0)" stroke-width="1" opacity="0.7450980392156863" d="M 67.5 86 L 64.5 90 L 67.5 86 Z " /><path fill="rgb(0,0,0)" stroke="rgb(0,0,0)" stroke-width="1" opacity="0.7450980392156863" d="M 444.5 86 L 446.5 89 L 444.5 86 Z " /><path fill="rgb(0,0,0)" stroke="rgb(0,0,0)" stroke-width="1" opacity="0.7450980392156863" d="M 63.5 91 L 62.5 93 L 63.5 91 Z " /><path fill="rgb(0,0,0)" stroke="rgb(0,0,0)" stroke-width="1" opacity="0.7450980392156863" d="M 448.5 91 L 449.5 93 L 448.5 91 Z " /><path fill="rgb(0,0,0)" stroke="rgb(0,0,0)" stroke-width="1" opacity="0.7450980392156863" d="M 27.5 96 L 28 98.5 L 27 98.5 L 27.5 96 Z " /><path fill="rgb(0,0,0)" stroke="rgb(0,0,0)" stroke-width="1" opacity="0.7450980392156863" d="M 484.5 96 L 485 99.5 L 484 99.5 L 484.5 96 Z " /><path fill="rgb(0,0,0)" stroke="rgb(0,0,0)" stroke-width="1" opacity="0.7450980392156863" d="M 58.5 103 L 59 237.5 L 58 237.5 L 58.5 103 Z " /><path fill="rgb(0,0,0)" stroke="rgb(0,0,0)" stroke-width="1" opacity="0.7450980392156863" d="M 453.5 104 L 454 237.5 L 453 237.5 L 453.5 104 Z " /><path fill="rgb(0,0,0)" stroke="rgb(0,0,0)" stroke-width="1" opacity="0.7450980392156863" d="M 93.5 133 L 116 133.5 L 93.5 134 L 93.5 133 Z " /><path fill="rgb(0,0,0)" stroke="rgb(0,0,0)" stroke-width="1" opacity="0.7450980392156863" d="M 396.5 133 L 419 133.5 L 396.5 134 L 396.5 133 Z " /><path fill="rgb(0,0,0)" stroke="rgb(0,0,0)" stroke-width="1" opacity="0.7450980392156863" d="M 86.5 136 L 83.5 140 L 86.5 136 Z " /><path fill="rgb(0,0,0)" stroke="rgb(0,0,0)" stroke-width="1" opacity="0.7450980392156863" d="M 425.5 136 L 428.5 140 L 425.5 136 Z " /><path fill="rgb(0,0,0)" stroke="rgb(0,0,0)" stroke-width="1" opacity="0.7450980392156863" d="M 429.5 141 L 430.5 143 L 429.5 141 Z " /><path fill="rgb(0,0,0)" stroke="rgb(0,0,0)" stroke-width="1" opacity="0.7450980392156863" d="M 80.5 151 L 81 153.5 L 80 153.5 L 80.5 151 Z " /><path fill="rgb(0,0,0)" stroke="rgb(0,0,0)" stroke-width="1" opacity="0.7450980392156863" d="M 431.5 151 L 432 153.5 L 431 153.5 L 431.5 151 Z " /><path fill="rgb(0,0,0)" stroke="rgb(0,0,0)" stroke-width="1" opacity="0.7450980392156863" d="M 87.5 162 L 88.5 164 L 87.5 162 Z " /><path fill="rgb(0,0,0)" stroke="rgb(0,0,0)" stroke-width="1" opacity="0.7450980392156863" d="M 424.5 162 L 423.5 164 L 424.5 162 Z " /><path fill="rgb(0,0,0)" stroke="rgb(0,0,0)" stroke-width="1" opacity="0.7450980392156863" d="M 101.5 165 L 102 260.5 L 100.5 262 L 82.5 262 L 82.5 261 L 100.5 261 L 101 260.5 L 101.5 165 Z " /><path fill="rgb(0,0,0)" stroke="rgb(0,0,0)" stroke-width="1" opacity="0.7450980392156863" d="M 133.5 165 L 379 165.5 L 133.5 166 L 133.5 165 Z " /><path fill="rgb(0,0,0)" stroke="rgb(0,0,0)" stroke-width="1" opacity="0.7450980392156863" d="M 410.5 165 L 411 261 L 430 261.5 L 411.5 262 L 410 260.5 L 410.5 165 Z " /><path fill="rgb(0,0,0)" stroke="rgb(0,0,0)" stroke-width="1" opacity="0.7450980392156863" d="M 248.5 220 L 247.5 222 L 248.5 220 Z " /><path fill="rgb(0,0,0)" stroke="rgb(0,0,0)" stroke-width="1" opacity="0.7450980392156863" d="M 263.5 220 L 264.5 222 L 263.5 220 Z " /><path fill="rgb(0,0,0)" stroke="rgb(0,0,0)" stroke-width="1" opacity="0.7450980392156863" d="M 245.5 222 L 244.5 224 L 245.5 222 Z " /><path fill="rgb(0,0,0)" stroke="rgb(0,0,0)" stroke-width="1" opacity="0.7450980392156863" d="M 240.5 230 L 241 232.5 L 240 232.5 L 240.5 230 Z " /><path fill="rgb(0,0,0)" stroke="rgb(0,0,0)" stroke-width="1" opacity="0.7450980392156863" d="M 271.5 230 L 272 232.5 L 271 232.5 L 271.5 230 Z " /><path fill="rgb(0,0,0)" stroke="rgb(0,0,0)" stroke-width="1" opacity="0.7450980392156863" d="M 27.5 242 L 28 244.5 L 27 244.5 L 27.5 242 Z " /><path fill="rgb(0,0,0)" stroke="rgb(0,0,0)" stroke-width="1" opacity="0.7450980392156863" d="M 484.5 242 L 485 244.5 L 484 244.5 L 484.5 242 Z " /><path fill="rgb(0,0,0)" stroke="rgb(0,0,0)" stroke-width="1" opacity="0.7450980392156863" d="M 448.5 250 L 443.5 256 L 448.5 250 Z " /><path fill="rgb(0,0,0)" stroke="rgb(0,0,0)" stroke-width="1" opacity="0.7450980392156863" d="M 64.5 251 L 68.5 256 L 64.5 251 Z " /><path fill="rgb(0,0,0)" stroke="rgb(0,0,0)" stroke-width="1" opacity="0.7450980392156863" d="M 35.5 265 L 36.5 267 L 35.5 265 Z " /><path fill="rgb(0,0,0)" stroke="rgb(0,0,0)" stroke-width="1" opacity="0.7450980392156863" d="M 476.5 265 L 475.5 267 L 476.5 265 Z " /><path fill="rgb(0,0,0)" stroke="rgb(0,0,0)" stroke-width="1" opacity="0.7450980392156863" d="M 37.5 268 L 38.5 270 L 37.5 268 Z " /><path fill="rgb(0,0,0)" stroke="rgb(0,0,0)" stroke-width="1" opacity="0.7450980392156863" d="M 474.5 268 L 473.5 270 L 474.5 268 Z " /><path fill="rgb(0,0,0)" stroke="rgb(0,0,0)" stroke-width="1" opacity="0.7450980392156863" d="M 40.5 272 L 47.5 280 L 40.5 272 Z " /><path fill="rgb(0,0,0)" stroke="rgb(0,0,0)" stroke-width="1" opacity="0.7450980392156863" d="M 471.5 272 L 464.5 280 L 471.5 272 Z " /><path fill="rgb(0,0,0)" stroke="rgb(0,0,0)" stroke-width="1" opacity="0.7450980392156863" d="M 133.5 274 L 134 279.5 L 133 279.5 L 133.5 274 Z " /><path fill="rgb(0,0,0)" stroke="rgb(0,0,0)" stroke-width="1" opacity="0.7450980392156863" d="M 378.5 274 L 379 279.5 L 378 279.5 L 378.5 274 Z " /><path fill="rgb(0,0,0)" stroke="rgb(0,0,0)" stroke-width="1" opacity="0.7450980392156863" d="M 50.5 281 L 51.5 283 L 50.5 281 Z " /><path fill="rgb(0,0,0)" stroke="rgb(0,0,0)" stroke-width="1" opacity="0.7450980392156863" d="M 461.5 281 L 460.5 283 L 461.5 281 Z " /><path fill="rgb(0,0,0)" stroke="rgb(0,0,0)" stroke-width="1" opacity="0.7450980392156863" d="M 53.5 283 L 54.5 285 L 53.5 283 Z " /><path fill="rgb(0,0,0)" stroke="rgb(0,0,0)" stroke-width="1" opacity="0.7450980392156863" d="M 458.5 283 L 457.5 285 L 458.5 283 Z " /><path fill="rgb(0,0,0)" stroke="rgb(0,0,0)" stroke-width="1" opacity="0.7450980392156863" d="M 75.5 292 L 78 292.5 L 75.5 293 L 75.5 292 Z " /><path fill="rgb(0,0,0)" stroke="rgb(0,0,0)" stroke-width="1" opacity="0.7450980392156863" d="M 434.5 292 L 437 292.5 L 434.5 293 L 434.5 292 Z " /><path fill="rgb(0,0,0)" stroke="rgb(0,0,0)" stroke-width="1" opacity="0.7450980392156863" d="M 101.5 293 L 102 410.5 L 101 410.5 L 101.5 293 Z " /><path fill="rgb(0,0,0)" stroke="rgb(0,0,0)" stroke-width="1" opacity="0.7450980392156863" d="M 410.5 293 L 411 410.5 L 410 410.5 L 410.5 293 Z " /><path fill="rgb(0,0,0)" stroke="rgb(0,0,0)" stroke-width="1" opacity="0.7450980392156863" d="M 190.5 304 L 195 304.5 L 190.5 305 L 190.5 304 Z " /><path fill="rgb(0,0,0)" stroke="rgb(0,0,0)" stroke-width="1" opacity="0.7450980392156863" d="M 317.5 304 L 322 304.5 L 317.5 305 L 317.5 304 Z " /><path fill="rgb(0,0,0)" stroke="rgb(0,0,0)" stroke-width="1" opacity="0.7450980392156863" d="M 184.5 306 L 183.5 308 L 184.5 306 Z " /><path fill="rgb(0,0,0)" stroke="rgb(0,0,0)" stroke-width="1" opacity="0.7450980392156863" d="M 200.5 306 L 201.5 308 L 200.5 306 Z " /><path fill="rgb(0,0,0)" stroke="rgb(0,0,0)" stroke-width="1" opacity="0.7450980392156863" d="M 311.5 306 L 310.5 308 L 311.5 306 Z " /><path fill="rgb(0,0,0)" stroke="rgb(0,0,0)" stroke-width="1" opacity="0.7450980392156863" d="M 327.5 306 L 328.5 308 L 327.5 306 Z " /><path fill="rgb(0,0,0)" stroke="rgb(0,0,0)" stroke-width="1" opacity="0.7450980392156863" d="M 179.5 311 L 178.5 313 L 179.5 311 Z " /><path fill="rgb(0,0,0)" stroke="rgb(0,0,0)" stroke-width="1" opacity="0.7450980392156863" d="M 332.5 311 L 333.5 313 L 332.5 311 Z " /><path fill="rgb(0,0,0)" stroke="rgb(0,0,0)" stroke-width="1" opacity="0.7450980392156863" d="M 176.5 318 L 177 322.5 L 176 322.5 L 176.5 318 Z " /><path fill="rgb(0,0,0)" stroke="rgb(0,0,0)" stroke-width="1" opacity="0.7450980392156863" d="M 335.5 318 L 336 322.5 L 335 322.5 L 335.5 318 Z " /><path fill="rgb(0,0,0)" stroke="rgb(0,0,0)" stroke-width="1" opacity="0.7450980392156863" d="M 178.5 328 L 179.5 330 L 178.5 328 Z " /><path fill="rgb(0,0,0)" stroke="rgb(0,0,0)" stroke-width="1" opacity="0.7450980392156863" d="M 333.5 328 L 332.5 330 L 333.5 328 Z " /><path fill="rgb(0,0,0)" stroke="rgb(0,0,0)" stroke-width="1" opacity="0.7450980392156863" d="M 133.5 406 L 134 410.5 L 133 410.5 L 133.5 406 Z " /><path fill="rgb(0,0,0)" stroke="rgb(0,0,0)" stroke-width="1" opacity="0.7450980392156863" d="M 378.5 406 L 379 410.5 L 378 410.5 L 378.5 406 Z " /><path fill="rgb(0,0,0)" stroke="rgb(0,0,0)" stroke-width="1" opacity="0.7450980392156863" d="M 102.5 415 L 103 417.5 L 102 417.5 L 102.5 415 Z " /><path fill="rgb(0,0,0)" stroke="rgb(0,0,0)" stroke-width="1" opacity="0.7450980392156863" d="M 136.5 418 L 137.5 420 L 136.5 418 Z " /><path fill="rgb(0,0,0)" stroke="rgb(0,0,0)" stroke-width="1" opacity="0.7450980392156863" d="M 375.5 418 L 374.5 420 L 375.5 418 Z " /><path fill="rgb(0,0,0)" stroke="rgb(0,0,0)" stroke-width="1" opacity="0.7450980392156863" d="M 138.5 421 L 143.5 427 L 138.5 421 Z " /><path fill="rgb(0,0,0)" stroke="rgb(0,0,0)" stroke-width="1" opacity="0.7450980392156863" d="M 373.5 421 L 368.5 427 L 373.5 421 Z " /><path fill="rgb(0,0,0)" stroke="rgb(0,0,0)" stroke-width="1" opacity="0.7450980392156863" d="M 153.5 431 L 156 431.5 L 153.5 432 L 153.5 431 Z " /><path fill="rgb(0,0,0)" stroke="rgb(0,0,0)" stroke-width="1" opacity="0.7450980392156863" d="M 356.5 431 L 359 431.5 L 356.5 432 L 356.5 431 Z " /><path fill="rgb(0,0,0)" stroke="rgb(0,0,0)" stroke-width="1" opacity="0.7450980392156863" d="M 108.5 433 L 109.5 435 L 108.5 433 Z " /><path fill="rgb(0,0,0)" stroke="rgb(0,0,0)" stroke-width="1" opacity="0.7450980392156863" d="M 403.5 433 L 402.5 435 L 403.5 433 Z " /><path fill="rgb(0,0,0)" stroke="rgb(0,0,0)" stroke-width="1" opacity="0.7450980392156863" d="M 112.5 439 L 113.5 441 L 112.5 439 Z " /><path fill="rgb(0,0,0)" stroke="rgb(0,0,0)" stroke-width="1" opacity="0.7450980392156863" d="M 399.5 439 L 398.5 441 L 399.5 439 Z " /><path fill="rgb(0,0,0)" stroke="rgb(0,0,0)" stroke-width="1" opacity="0.7450980392156863" d="M 115.5 443 L 122.5 451 L 115.5 443 Z " /><path fill="rgb(0,0,0)" stroke="rgb(0,0,0)" stroke-width="1" opacity="0.7450980392156863" d="M 396.5 443 L 389.5 451 L 396.5 443 Z " /><path fill="rgb(0,0,0)" stroke="rgb(0,0,0)" stroke-width="1" opacity="0.7450980392156863" d="M 124.5 451 L 126.5 454 L 124.5 451 Z " /><path fill="rgb(0,0,0)" stroke="rgb(0,0,0)" stroke-width="1" opacity="0.7450980392156863" d="M 386.5 452 L 385.5 454 L 386.5 452 Z " /><path fill="rgb(0,0,0)" stroke="rgb(0,0,0)" stroke-width="1" opacity="0.7450980392156863" d="M 152.5 463 L 156 463.5 L 152.5 464 L 152.5 463 Z " /><path fill="rgb(0,0,0)" stroke="rgb(0,0,0)" stroke-width="1" opacity="0.7450980392156863" d="M 356.5 463 L 360 463.5 L 356.5 464 L 356.5 463 Z " /><path fill="rgb(0,0,0)" stroke="rgb(0,0,0)" stroke-width="1" opacity="1" d="M 82.5 48 L 429.5 48 L 430.5 49 L 441.5 50 L 454.5 55 Q 464.9 60.6 472 69.5 L 481 84.5 L 485 100.5 L 485 241.5 Q 480.3 267.8 462.5 281 Q 444.8 296.1 410 293 L 410 414.5 Q 405 439.5 387.5 452 L 370.5 461 L 355.5 464 L 156.5 464 L 141.5 461 L 130.5 456 L 114 441.5 L 107 430.5 L 102 414.5 L 102 293 L 78.5 293 L 63.5 289 Q 48.3 282.7 39 270.5 Q 29.9 259.1 27 241.5 L 27 99.5 Q 31.7 74.2 48.5 61 L 64.5 52 L 82.5 48 Z M 80 80 L 68 86 Q 60 92 58 104 L 58 238 L 59 243 L 64 252 Q 69 258 78 261 L 83 262 L 101 262 L 102 261 L 102 165 Q 92 167 87 162 Q 81 158 80 151 L 82 142 L 92 134 L 116 134 L 117 133 L 396 133 L 397 134 L 421 134 L 425 136 Q 431 139 432 148 Q 432 154 429 159 Q 424 167 410 165 L 410 261 L 412 262 Q 433 265 444 256 Q 452 250 454 238 L 454 105 L 452 97 L 447 89 Q 442 82 433 80 L 80 80 Z M 133 165 L 133 411 L 138 422 Q 144 429 154 432 L 359 432 L 369 427 Q 376 421 379 411 L 379 165 L 133 165 Z " /><path fill="rgb(0,0,0)" stroke="rgb(0,0,0)" stroke-width="1" opacity="1" d="M 252.5 219 Q 265 218 269 225.5 L 272 233.5 L 272.5 345 L 309.5 308 Q 313.7 303.7 323.5 305 L 332 310.5 Q 336.3 314.7 335 324.5 L 332 330.5 L 265.5 397 L 258.5 400 L 253.5 400 L 246.5 397 L 180 330.5 Q 175.7 326.3 177 316.5 L 182.5 308 Q 186.7 303.7 196.5 305 L 202.5 308 L 239.5 345 L 240 233.5 Q 241.2 225.7 246.5 222 L 252.5 219 Z " /></svg>